<?xml version="1.0" encoding="utf-8"?>
<svg xmlns="http://www.w3.org/2000/svg" xmlns:xlink="http://www.w3.org/1999/xlink" width="600" height="400" viewBox="0 0 2400 1600">
<defs>
  <clipPath id="clip890">
    <rect x="0" y="0" width="2400" height="1600"/>
  </clipPath>
</defs>
<path clip-path="url(#clip890)" d="
M0 1600 L2400 1600 L2400 0 L0 0  Z
  " fill="#ffffff" fill-rule="evenodd" fill-opacity="1"/>
<defs>
  <clipPath id="clip891">
    <rect x="480" y="0" width="1681" height="1600"/>
  </clipPath>
</defs>
<defs>
  <clipPath id="clip892">
    <rect x="194" y="47" width="2159" height="1308"/>
  </clipPath>
</defs>
<path clip-path="url(#clip890)" d="
M194.776 1354.06 L2352.76 1354.06 L2352.76 47.2441 L194.776 47.2441  Z
  " fill="#ffffff" fill-rule="evenodd" fill-opacity="1"/>
<polyline clip-path="url(#clip892)" style="stroke:#000000; stroke-linecap:round; stroke-linejoin:round; stroke-width:2; stroke-opacity:0.1; fill:none" points="
  255.851,1354.06 255.851,47.2441 
  "/>
<polyline clip-path="url(#clip892)" style="stroke:#000000; stroke-linecap:round; stroke-linejoin:round; stroke-width:2; stroke-opacity:0.1; fill:none" points="
  459.434,1354.06 459.434,47.2441 
  "/>
<polyline clip-path="url(#clip892)" style="stroke:#000000; stroke-linecap:round; stroke-linejoin:round; stroke-width:2; stroke-opacity:0.1; fill:none" points="
  663.017,1354.06 663.017,47.2441 
  "/>
<polyline clip-path="url(#clip892)" style="stroke:#000000; stroke-linecap:round; stroke-linejoin:round; stroke-width:2; stroke-opacity:0.1; fill:none" points="
  866.6,1354.06 866.6,47.2441 
  "/>
<polyline clip-path="url(#clip892)" style="stroke:#000000; stroke-linecap:round; stroke-linejoin:round; stroke-width:2; stroke-opacity:0.1; fill:none" points="
  1070.18,1354.06 1070.18,47.2441 
  "/>
<polyline clip-path="url(#clip892)" style="stroke:#000000; stroke-linecap:round; stroke-linejoin:round; stroke-width:2; stroke-opacity:0.1; fill:none" points="
  1273.77,1354.06 1273.77,47.2441 
  "/>
<polyline clip-path="url(#clip892)" style="stroke:#000000; stroke-linecap:round; stroke-linejoin:round; stroke-width:2; stroke-opacity:0.1; fill:none" points="
  1477.35,1354.06 1477.35,47.2441 
  "/>
<polyline clip-path="url(#clip892)" style="stroke:#000000; stroke-linecap:round; stroke-linejoin:round; stroke-width:2; stroke-opacity:0.1; fill:none" points="
  1680.93,1354.06 1680.93,47.2441 
  "/>
<polyline clip-path="url(#clip892)" style="stroke:#000000; stroke-linecap:round; stroke-linejoin:round; stroke-width:2; stroke-opacity:0.1; fill:none" points="
  1884.51,1354.06 1884.51,47.2441 
  "/>
<polyline clip-path="url(#clip892)" style="stroke:#000000; stroke-linecap:round; stroke-linejoin:round; stroke-width:2; stroke-opacity:0.1; fill:none" points="
  2088.1,1354.06 2088.1,47.2441 
  "/>
<polyline clip-path="url(#clip892)" style="stroke:#000000; stroke-linecap:round; stroke-linejoin:round; stroke-width:2; stroke-opacity:0.1; fill:none" points="
  2291.68,1354.06 2291.68,47.2441 
  "/>
<polyline clip-path="url(#clip890)" style="stroke:#000000; stroke-linecap:round; stroke-linejoin:round; stroke-width:4; stroke-opacity:1; fill:none" points="
  194.776,1354.06 2352.76,1354.06 
  "/>
<polyline clip-path="url(#clip890)" style="stroke:#000000; stroke-linecap:round; stroke-linejoin:round; stroke-width:4; stroke-opacity:1; fill:none" points="
  255.851,1354.06 255.851,1335.16 
  "/>
<polyline clip-path="url(#clip890)" style="stroke:#000000; stroke-linecap:round; stroke-linejoin:round; stroke-width:4; stroke-opacity:1; fill:none" points="
  459.434,1354.06 459.434,1335.16 
  "/>
<polyline clip-path="url(#clip890)" style="stroke:#000000; stroke-linecap:round; stroke-linejoin:round; stroke-width:4; stroke-opacity:1; fill:none" points="
  663.017,1354.06 663.017,1335.16 
  "/>
<polyline clip-path="url(#clip890)" style="stroke:#000000; stroke-linecap:round; stroke-linejoin:round; stroke-width:4; stroke-opacity:1; fill:none" points="
  866.6,1354.06 866.6,1335.16 
  "/>
<polyline clip-path="url(#clip890)" style="stroke:#000000; stroke-linecap:round; stroke-linejoin:round; stroke-width:4; stroke-opacity:1; fill:none" points="
  1070.18,1354.06 1070.18,1335.16 
  "/>
<polyline clip-path="url(#clip890)" style="stroke:#000000; stroke-linecap:round; stroke-linejoin:round; stroke-width:4; stroke-opacity:1; fill:none" points="
  1273.77,1354.06 1273.77,1335.16 
  "/>
<polyline clip-path="url(#clip890)" style="stroke:#000000; stroke-linecap:round; stroke-linejoin:round; stroke-width:4; stroke-opacity:1; fill:none" points="
  1477.35,1354.06 1477.35,1335.16 
  "/>
<polyline clip-path="url(#clip890)" style="stroke:#000000; stroke-linecap:round; stroke-linejoin:round; stroke-width:4; stroke-opacity:1; fill:none" points="
  1680.93,1354.06 1680.93,1335.16 
  "/>
<polyline clip-path="url(#clip890)" style="stroke:#000000; stroke-linecap:round; stroke-linejoin:round; stroke-width:4; stroke-opacity:1; fill:none" points="
  1884.51,1354.06 1884.51,1335.16 
  "/>
<polyline clip-path="url(#clip890)" style="stroke:#000000; stroke-linecap:round; stroke-linejoin:round; stroke-width:4; stroke-opacity:1; fill:none" points="
  2088.1,1354.06 2088.1,1335.16 
  "/>
<polyline clip-path="url(#clip890)" style="stroke:#000000; stroke-linecap:round; stroke-linejoin:round; stroke-width:4; stroke-opacity:1; fill:none" points="
  2291.68,1354.06 2291.68,1335.16 
  "/>
<path clip-path="url(#clip890)" d="M255.851 1395.23 Q249.08 1395.23 245.651 1401.92 Q242.266 1408.56 242.266 1421.92 Q242.266 1435.25 245.651 1441.93 Q249.08 1448.57 255.851 1448.57 Q262.665 1448.57 266.05 1441.93 Q269.479 1435.25 269.479 1421.92 Q269.479 1408.56 266.05 1401.92 Q262.665 1395.23 255.851 1395.23 M255.851 1388.29 Q266.745 1388.29 272.474 1396.93 Q278.246 1405.52 278.246 1421.92 Q278.246 1438.29 272.474 1446.92 Q266.745 1455.52 255.851 1455.52 Q244.957 1455.52 239.184 1446.92 Q233.455 1438.29 233.455 1421.92 Q233.455 1405.52 239.184 1396.93 Q244.957 1388.29 255.851 1388.29 Z" fill="#000000" fill-rule="evenodd" fill-opacity="1" /><path clip-path="url(#clip890)" d="M622.11 1395.23 Q615.339 1395.23 611.91 1401.92 Q608.525 1408.56 608.525 1421.92 Q608.525 1435.25 611.91 1441.93 Q615.339 1448.57 622.11 1448.57 Q628.924 1448.57 632.309 1441.93 Q635.738 1435.25 635.738 1421.92 Q635.738 1408.56 632.309 1401.92 Q628.924 1395.23 622.11 1395.23 M622.11 1388.29 Q633.004 1388.29 638.733 1396.93 Q644.505 1405.52 644.505 1421.92 Q644.505 1438.29 638.733 1446.92 Q633.004 1455.52 622.11 1455.52 Q611.216 1455.52 605.443 1446.92 Q599.714 1438.29 599.714 1421.92 Q599.714 1405.52 605.443 1396.93 Q611.216 1388.29 622.11 1388.29 Z" fill="#000000" fill-rule="evenodd" fill-opacity="1" /><path clip-path="url(#clip890)" d="M659.913 1443.24 L669.071 1443.24 L669.071 1454.26 L659.913 1454.26 L659.913 1443.24 Z" fill="#000000" fill-rule="evenodd" fill-opacity="1" /><path clip-path="url(#clip890)" d="M695.72 1446.88 L726.319 1446.88 L726.319 1454.26 L685.174 1454.26 L685.174 1446.88 Q690.165 1441.72 698.759 1433.04 Q707.396 1424.31 709.609 1421.79 Q713.819 1417.06 715.469 1413.81 Q717.161 1410.51 717.161 1407.34 Q717.161 1402.18 713.516 1398.92 Q709.913 1395.67 704.097 1395.67 Q699.974 1395.67 695.373 1397.1 Q690.816 1398.53 685.608 1401.44 L685.608 1392.58 Q690.903 1390.46 695.503 1389.37 Q700.104 1388.29 703.924 1388.29 Q713.993 1388.29 719.983 1393.32 Q725.972 1398.36 725.972 1406.78 Q725.972 1410.77 724.453 1414.37 Q722.977 1417.93 719.028 1422.79 Q717.943 1424.05 712.127 1430.08 Q706.311 1436.07 695.72 1446.88 Z" fill="#000000" fill-rule="evenodd" fill-opacity="1" /><path clip-path="url(#clip890)" d="M1027.32 1395.23 Q1020.55 1395.23 1017.12 1401.92 Q1013.74 1408.56 1013.74 1421.92 Q1013.74 1435.25 1017.12 1441.93 Q1020.55 1448.57 1027.32 1448.57 Q1034.14 1448.57 1037.52 1441.93 Q1040.95 1435.25 1040.95 1421.92 Q1040.95 1408.56 1037.52 1401.92 Q1034.14 1395.23 1027.32 1395.23 M1027.32 1388.29 Q1038.22 1388.29 1043.95 1396.93 Q1049.72 1405.52 1049.72 1421.92 Q1049.72 1438.29 1043.95 1446.92 Q1038.22 1455.52 1027.32 1455.52 Q1016.43 1455.52 1010.66 1446.92 Q1004.93 1438.29 1004.93 1421.92 Q1004.93 1405.52 1010.66 1396.93 Q1016.43 1388.29 1027.32 1388.29 Z" fill="#000000" fill-rule="evenodd" fill-opacity="1" /><path clip-path="url(#clip890)" d="M1065.13 1443.24 L1074.28 1443.24 L1074.28 1454.26 L1065.13 1454.26 L1065.13 1443.24 Z" fill="#000000" fill-rule="evenodd" fill-opacity="1" /><path clip-path="url(#clip890)" d="M1117.47 1397.1 L1095.33 1431.69 L1117.47 1431.69 L1117.47 1397.1 M1115.17 1389.46 L1126.19 1389.46 L1126.19 1431.69 L1135.44 1431.69 L1135.44 1438.98 L1126.19 1438.98 L1126.19 1454.26 L1117.47 1454.26 L1117.47 1438.98 L1088.22 1438.98 L1088.22 1430.52 L1115.17 1389.46 Z" fill="#000000" fill-rule="evenodd" fill-opacity="1" /><path clip-path="url(#clip890)" d="M1434.79 1395.23 Q1428.02 1395.23 1424.59 1401.92 Q1421.21 1408.56 1421.21 1421.92 Q1421.21 1435.25 1424.59 1441.93 Q1428.02 1448.57 1434.79 1448.57 Q1441.61 1448.57 1444.99 1441.93 Q1448.42 1435.25 1448.42 1421.92 Q1448.42 1408.56 1444.99 1401.92 Q1441.61 1395.23 1434.79 1395.23 M1434.79 1388.29 Q1445.69 1388.29 1451.42 1396.93 Q1457.19 1405.52 1457.19 1421.92 Q1457.19 1438.29 1451.42 1446.92 Q1445.69 1455.52 1434.79 1455.52 Q1423.9 1455.52 1418.13 1446.92 Q1412.4 1438.29 1412.4 1421.92 Q1412.4 1405.52 1418.13 1396.93 Q1423.9 1388.29 1434.79 1388.29 Z" fill="#000000" fill-rule="evenodd" fill-opacity="1" /><path clip-path="url(#clip890)" d="M1472.6 1443.24 L1481.75 1443.24 L1481.75 1454.26 L1472.6 1454.26 L1472.6 1443.24 Z" fill="#000000" fill-rule="evenodd" fill-opacity="1" /><path clip-path="url(#clip890)" d="M1520.69 1418.37 Q1514.78 1418.37 1511.31 1422.4 Q1507.88 1426.44 1507.88 1433.47 Q1507.88 1440.46 1511.31 1444.54 Q1514.78 1448.57 1520.69 1448.57 Q1526.59 1448.57 1530.02 1444.54 Q1533.49 1440.46 1533.49 1433.47 Q1533.49 1426.44 1530.02 1422.4 Q1526.59 1418.37 1520.69 1418.37 M1538.09 1390.89 L1538.09 1398.88 Q1534.79 1397.32 1531.41 1396.49 Q1528.06 1395.67 1524.77 1395.67 Q1516.09 1395.67 1511.48 1401.53 Q1506.93 1407.39 1506.28 1419.23 Q1508.84 1415.46 1512.7 1413.46 Q1516.56 1411.42 1521.21 1411.42 Q1530.97 1411.42 1536.62 1417.37 Q1542.3 1423.27 1542.3 1433.47 Q1542.3 1443.45 1536.4 1449.49 Q1530.5 1455.52 1520.69 1455.52 Q1509.45 1455.52 1503.5 1446.92 Q1497.55 1438.29 1497.55 1421.92 Q1497.55 1406.56 1504.84 1397.45 Q1512.14 1388.29 1524.42 1388.29 Q1527.72 1388.29 1531.06 1388.94 Q1534.44 1389.59 1538.09 1390.89 Z" fill="#000000" fill-rule="evenodd" fill-opacity="1" /><path clip-path="url(#clip890)" d="M1842.2 1395.23 Q1835.43 1395.23 1832 1401.92 Q1828.61 1408.56 1828.61 1421.92 Q1828.61 1435.25 1832 1441.93 Q1835.43 1448.57 1842.2 1448.57 Q1849.01 1448.57 1852.4 1441.93 Q1855.83 1435.25 1855.83 1421.92 Q1855.83 1408.56 1852.4 1401.92 Q1849.01 1395.23 1842.2 1395.23 M1842.2 1388.29 Q1853.09 1388.29 1858.82 1396.93 Q1864.59 1405.52 1864.59 1421.92 Q1864.59 1438.29 1858.82 1446.92 Q1853.09 1455.52 1842.2 1455.52 Q1831.3 1455.52 1825.53 1446.92 Q1819.8 1438.29 1819.8 1421.92 Q1819.8 1405.52 1825.53 1396.93 Q1831.3 1388.29 1842.2 1388.29 Z" fill="#000000" fill-rule="evenodd" fill-opacity="1" /><path clip-path="url(#clip890)" d="M1880 1443.24 L1889.16 1443.24 L1889.16 1454.26 L1880 1454.26 L1880 1443.24 Z" fill="#000000" fill-rule="evenodd" fill-opacity="1" /><path clip-path="url(#clip890)" d="M1927.01 1423.49 Q1920.76 1423.49 1917.15 1426.83 Q1913.59 1430.17 1913.59 1436.03 Q1913.59 1441.89 1917.15 1445.23 Q1920.76 1448.57 1927.01 1448.57 Q1933.26 1448.57 1936.86 1445.23 Q1940.46 1441.85 1940.46 1436.03 Q1940.46 1430.17 1936.86 1426.83 Q1933.3 1423.49 1927.01 1423.49 M1918.24 1419.75 Q1912.6 1418.37 1909.43 1414.5 Q1906.3 1410.64 1906.3 1405.08 Q1906.3 1397.32 1911.82 1392.8 Q1917.37 1388.29 1927.01 1388.29 Q1936.68 1388.29 1942.2 1392.8 Q1947.71 1397.32 1947.71 1405.08 Q1947.71 1410.64 1944.54 1414.5 Q1941.42 1418.37 1935.82 1419.75 Q1942.15 1421.23 1945.67 1425.53 Q1949.23 1429.82 1949.23 1436.03 Q1949.23 1445.45 1943.46 1450.48 Q1937.73 1455.52 1927.01 1455.52 Q1916.29 1455.52 1910.51 1450.48 Q1904.78 1445.45 1904.78 1436.03 Q1904.78 1429.82 1908.34 1425.53 Q1911.9 1421.23 1918.24 1419.75 M1915.03 1405.91 Q1915.03 1410.94 1918.15 1413.77 Q1921.32 1416.59 1927.01 1416.59 Q1932.65 1416.59 1935.82 1413.77 Q1939.03 1410.94 1939.03 1405.91 Q1939.03 1400.87 1935.82 1398.05 Q1932.65 1395.23 1927.01 1395.23 Q1921.32 1395.23 1918.15 1398.05 Q1915.03 1400.87 1915.03 1405.91 Z" fill="#000000" fill-rule="evenodd" fill-opacity="1" /><path clip-path="url(#clip890)" d="M2273.65 1446.88 L2287.97 1446.88 L2287.97 1397.45 L2272.39 1400.57 L2272.39 1392.58 L2287.88 1389.46 L2296.65 1389.46 L2296.65 1446.88 L2310.97 1446.88 L2310.97 1454.26 L2273.65 1454.26 L2273.65 1446.88 Z" fill="#000000" fill-rule="evenodd" fill-opacity="1" /><path clip-path="url(#clip890)" d="M1299.53 1519.59 Q1299.53 1522.87 1297.49 1524.74 Q1295.44 1526.56 1293.09 1526.56 Q1290.87 1526.56 1289.7 1525.27 Q1288.53 1523.98 1288.53 1522.34 Q1288.53 1520.12 1290.17 1518.18 Q1291.81 1516.25 1294.26 1515.84 Q1291.86 1514.32 1288.29 1514.32 Q1285.95 1514.32 1283.9 1515.55 Q1281.91 1516.78 1280.68 1518.36 Q1279.51 1519.94 1278.45 1522.22 Q1277.46 1524.45 1277.05 1525.8 Q1276.7 1527.08 1276.41 1528.49 L1272.31 1544.89 Q1270.32 1552.67 1270.32 1555.43 Q1270.32 1558.82 1271.95 1561.11 Q1273.59 1563.33 1276.87 1563.33 Q1278.16 1563.33 1279.63 1562.98 Q1281.09 1562.57 1282.96 1561.52 Q1284.9 1560.4 1286.59 1558.76 Q1288.35 1557.07 1290.05 1554.2 Q1291.75 1551.33 1292.86 1547.64 Q1293.21 1546.35 1294.38 1546.35 Q1295.85 1546.35 1295.85 1547.52 Q1295.85 1548.52 1295.03 1550.62 Q1294.26 1552.67 1292.57 1555.37 Q1290.93 1558 1288.76 1560.4 Q1286.59 1562.75 1283.37 1564.39 Q1280.15 1566.02 1276.64 1566.02 Q1271.6 1566.02 1268.27 1563.33 Q1264.93 1560.64 1263.7 1556.89 Q1263.41 1557.42 1263 1558.12 Q1262.59 1558.82 1261.36 1560.4 Q1260.19 1561.93 1258.84 1563.1 Q1257.49 1564.21 1255.38 1565.09 Q1253.33 1566.02 1251.11 1566.02 Q1248.3 1566.02 1245.78 1565.2 Q1243.32 1564.39 1241.56 1562.51 Q1239.81 1560.64 1239.81 1558.06 Q1239.81 1555.19 1241.74 1553.2 Q1243.73 1551.15 1246.42 1551.15 Q1248.12 1551.15 1249.47 1552.15 Q1250.87 1553.14 1250.87 1555.31 Q1250.87 1557.71 1249.24 1559.53 Q1247.6 1561.34 1245.25 1561.81 Q1247.65 1563.33 1251.23 1563.33 Q1255.09 1563.33 1258.14 1559.93 Q1261.18 1556.54 1262.64 1550.86 Q1266.27 1537.22 1267.68 1531.13 Q1269.09 1524.98 1269.09 1522.34 Q1269.09 1519.88 1268.44 1518.18 Q1267.8 1516.49 1266.68 1515.73 Q1265.63 1514.91 1264.64 1514.61 Q1263.7 1514.32 1262.64 1514.32 Q1260.89 1514.32 1258.9 1515.02 Q1256.96 1515.73 1254.62 1517.36 Q1252.34 1518.95 1250.17 1522.22 Q1248.01 1525.5 1246.54 1530.01 Q1246.25 1531.36 1244.96 1531.36 Q1243.56 1531.3 1243.56 1530.13 Q1243.56 1529.13 1244.32 1527.08 Q1245.14 1524.98 1246.78 1522.34 Q1248.47 1519.71 1250.64 1517.36 Q1252.87 1514.96 1256.09 1513.32 Q1259.37 1511.68 1262.88 1511.68 Q1264.46 1511.68 1265.98 1512.04 Q1267.56 1512.33 1269.44 1513.21 Q1271.37 1514.09 1273.07 1516.02 Q1274.77 1517.95 1275.82 1520.76 Q1276.52 1519.41 1277.46 1518.13 Q1278.45 1516.84 1279.98 1515.26 Q1281.56 1513.62 1283.72 1512.68 Q1285.95 1511.68 1288.41 1511.68 Q1290.81 1511.68 1293.15 1512.33 Q1295.49 1512.91 1297.49 1514.85 Q1299.53 1516.72 1299.53 1519.59 Z" fill="#000000" fill-rule="evenodd" fill-opacity="1" /><polyline clip-path="url(#clip892)" style="stroke:#000000; stroke-linecap:round; stroke-linejoin:round; stroke-width:2; stroke-opacity:0.1; fill:none" points="
  194.776,814.924 2352.76,814.924 
  "/>
<polyline clip-path="url(#clip890)" style="stroke:#000000; stroke-linecap:round; stroke-linejoin:round; stroke-width:4; stroke-opacity:1; fill:none" points="
  194.776,1354.06 194.776,47.2441 
  "/>
<polyline clip-path="url(#clip890)" style="stroke:#000000; stroke-linecap:round; stroke-linejoin:round; stroke-width:4; stroke-opacity:1; fill:none" points="
  194.776,814.924 213.673,814.924 
  "/>
<path clip-path="url(#clip890)" d="M136.38 788.296 Q129.609 788.296 126.18 794.98 Q122.795 801.621 122.795 814.989 Q122.795 828.313 126.18 834.997 Q129.609 841.638 136.38 841.638 Q143.194 841.638 146.58 834.997 Q150.008 828.313 150.008 814.989 Q150.008 801.621 146.58 794.98 Q143.194 788.296 136.38 788.296 M136.38 781.352 Q147.274 781.352 153.003 789.989 Q158.776 798.583 158.776 814.989 Q158.776 831.351 153.003 839.989 Q147.274 848.582 136.38 848.582 Q125.486 848.582 119.713 839.989 Q113.984 831.351 113.984 814.989 Q113.984 798.583 119.713 789.989 Q125.486 781.352 136.38 781.352 Z" fill="#000000" fill-rule="evenodd" fill-opacity="1" /><polyline clip-path="url(#clip892)" style="stroke:#000000; stroke-linecap:round; stroke-linejoin:round; stroke-width:12; stroke-opacity:1; fill:none" points="
  255.851,814.924 266.081,814.691 276.311,813.993 286.542,812.834 296.772,811.219 307.002,809.158 317.232,806.659 327.463,803.737 337.693,800.405 347.923,796.681 
  358.154,792.584 368.384,788.135 378.614,783.357 388.845,778.275 399.075,772.915 409.305,767.307 419.535,761.478 429.766,755.462 439.996,749.289 450.226,742.994 
  460.457,736.612 470.687,730.177 480.917,723.727 491.148,717.297 501.378,710.927 511.608,704.653 521.838,698.513 532.069,692.545 542.299,686.787 552.529,681.276 
  562.76,676.051 572.99,671.146 583.22,666.599 593.451,662.443 603.681,658.713 613.911,655.441 624.142,652.659 634.372,650.397 644.602,648.682 654.832,647.542 
  665.063,647.002 675.293,647.083 685.523,647.808 695.754,649.193 705.984,651.257 716.214,654.012 726.445,657.47 736.675,661.64 746.905,666.528 757.135,672.139 
  767.366,678.472 777.596,685.527 787.826,693.298 798.057,701.779 808.287,710.959 818.517,720.826 828.748,731.363 838.978,742.552 849.208,754.373 859.438,766.8 
  869.669,779.807 879.899,793.366 890.129,807.443 900.36,822.005 910.59,837.015 920.82,852.434 931.051,868.221 941.281,884.332 951.511,900.722 961.742,917.343 
  971.972,934.148 982.202,951.085 992.432,968.102 1002.66,985.147 1012.89,1002.16 1023.12,1019.1 1033.35,1035.9 1043.58,1052.5 1053.81,1068.85 1064.04,1084.89 
  1074.27,1100.57 1084.51,1115.82 1094.74,1130.59 1104.97,1144.82 1115.2,1158.47 1125.43,1171.46 1135.66,1183.75 1145.89,1195.29 1156.12,1206.02 1166.35,1215.9 
  1176.58,1224.88 1186.81,1232.91 1197.04,1239.95 1207.27,1245.96 1217.5,1250.9 1227.73,1254.74 1237.96,1257.43 1248.19,1258.96 1258.42,1259.28 1268.65,1258.39 
  1278.88,1256.26 1289.11,1252.87 1299.34,1248.21 1309.57,1242.27 1319.8,1235.04 1330.03,1226.53 1340.26,1216.72 1350.49,1205.63 1360.72,1193.27 1370.95,1179.64 
  1381.18,1164.78 1391.41,1148.69 1401.64,1131.4 1411.87,1112.94 1422.11,1093.35 1432.34,1072.66 1442.57,1050.91 1452.8,1028.15 1463.03,1004.42 1473.26,979.772 
  1483.49,954.266 1493.72,927.956 1503.95,900.904 1514.18,873.175 1524.41,844.835 1534.64,815.955 1544.87,786.605 1555.1,756.862 1565.33,726.802 1575.56,696.503 
  1585.79,666.047 1596.02,635.515 1606.25,604.991 1616.48,574.558 1626.71,544.304 1636.94,514.313 1647.17,484.673 1657.4,455.469 1667.63,426.789 1677.86,398.718 
  1688.09,371.342 1698.32,344.745 1708.55,319.012 1718.78,294.224 1729.01,270.461 1739.24,247.804 1749.47,226.328 1759.71,206.107 1769.94,187.214 1780.17,169.716 
  1790.4,153.681 1800.63,139.17 1810.86,126.243 1821.09,114.954 1831.32,105.356 1841.55,97.4962 1851.78,91.4169 1862.01,87.1574 1872.24,84.7518 1882.47,84.2294 
  1892.7,85.615 1902.93,88.9282 1913.16,94.1833 1923.39,101.39 1933.62,110.552 1943.85,121.668 1954.08,134.732 1964.31,149.732 1974.54,166.65 1984.77,185.463 
  1995,206.142 2005.23,228.655 2015.46,252.962 2025.69,279.019 2035.92,306.775 2046.15,336.176 2056.38,367.162 2066.61,399.669 2076.84,433.625 2087.07,468.958 
  2097.31,505.587 2107.54,543.43 2117.77,582.4 2128,622.405 2138.23,663.349 2148.46,705.135 2158.69,747.66 2168.92,790.82 2179.15,834.506 2189.38,878.608 
  2199.61,923.015 2209.84,967.611 2220.07,1012.28 2230.3,1056.91 2240.53,1101.37 2250.76,1145.55 2260.99,1189.33 2271.22,1232.59 2281.45,1275.21 2291.68,1317.07 
  
  "/>
<polyline clip-path="url(#clip892)" style="stroke:#0000ff; stroke-linecap:round; stroke-linejoin:round; stroke-width:12; stroke-opacity:1; fill:none" stroke-dasharray="48, 24, 6, 24, 6, 24" points="
  255.851,752.031 266.081,752.449 276.311,752.98 286.542,753.6 296.772,754.056 307.002,754.605 317.232,755.164 327.463,755.816 337.693,756.653 347.923,757.352 
  358.154,757.903 368.384,758.737 378.614,759.825 388.845,760.847 399.075,761.708 409.305,762.927 419.535,763.883 429.766,764.824 439.996,765.292 450.226,766.359 
  460.457,768.15 470.687,770.18 480.917,771.768 491.148,773.009 501.378,774.479 511.608,776.856 521.838,779.556 532.069,781.385 542.299,783.64 552.529,785.654 
  562.76,787.779 572.99,790.275 583.22,791.76 593.451,794.734 603.681,797.324 613.911,799.879 624.142,803.59 634.372,806.843 644.602,809.665 654.832,812.383 
  665.063,814.712 675.293,817.57 685.523,820.989 695.754,824.604 705.984,828.169 716.214,831.049 726.445,834.639 736.675,837.381 746.905,841.518 757.135,844.62 
  767.366,846.975 777.596,850.835 787.826,853.746 798.057,857.274 808.287,860.177 818.517,862.878 828.748,865.548 838.978,868.373 849.208,871.57 859.438,874.715 
  869.669,877.429 879.899,881.109 890.129,883.958 900.36,887.212 910.59,890.237 920.82,892.369 931.051,895.559 941.281,898.465 951.511,901.171 961.742,903.392 
  971.972,905.217 982.202,907.316 992.432,909.105 1002.66,911.175 1012.89,913.429 1023.12,914.545 1033.35,915.81 1043.58,917.638 1053.81,918.698 1064.04,919.981 
  1074.27,920.736 1084.51,920.907 1094.74,920.975 1104.97,921.027 1115.2,920.565 1125.43,920.058 1135.66,919.435 1145.89,918.598 1156.12,917.381 1166.35,915.884 
  1176.58,914.042 1186.81,912.047 1197.04,909.775 1207.27,907.406 1217.5,904.474 1227.73,901.357 1237.96,898.117 1248.19,894.611 1258.42,891.589 1268.65,887.578 
  1278.88,883.37 1289.11,878.322 1299.34,873.673 1309.57,868.979 1319.8,864.762 1330.03,859.28 1340.26,853.471 1350.49,847.171 1360.72,841.983 1370.95,836.114 
  1381.18,830.612 1391.41,825.344 1401.64,818.87 1411.87,812.514 1422.11,806.22 1432.34,799.023 1442.57,791.954 1452.8,785.642 1463.03,780.099 1473.26,773.573 
  1483.49,768.758 1493.72,762.003 1503.95,755.146 1514.18,748.148 1524.41,741.754 1534.64,735.181 1544.87,728.933 1555.1,723.078 1565.33,715.59 1575.56,709.968 
  1585.79,703.591 1596.02,697.288 1606.25,690.783 1616.48,685.463 1626.71,679.045 1636.94,673.154 1647.17,666.799 1657.4,660.545 1667.63,654.692 1677.86,647.643 
  1688.09,640.426 1698.32,633.881 1708.55,627.425 1718.78,620.823 1729.01,615.789 1739.24,610.548 1749.47,604.306 1759.71,598.219 1769.94,592.952 1780.17,588.138 
  1790.4,583.325 1800.63,577.629 1810.86,573.378 1821.09,569.292 1831.32,566.077 1841.55,562.302 1851.78,558.546 1862.01,555.724 1872.24,552.232 1882.47,548.744 
  1892.7,546.351 1902.93,543.152 1913.16,540.585 1923.39,538.77 1933.62,537.643 1943.85,536.542 1954.08,535.504 1964.31,534.911 1974.54,534.247 1984.77,533.324 
  1995,533.066 2005.23,533.227 2015.46,532.602 2025.69,532.814 2035.92,533.961 2046.15,534.912 2056.38,536.412 2066.61,537.424 2076.84,538.93 2087.07,541.796 
  2097.31,544.441 2107.54,547.429 2117.77,550.036 2128,552.236 2138.23,554.263 2148.46,557.068 2158.69,560.285 2168.92,563.755 2179.15,566.238 2189.38,569.707 
  2199.61,572.966 2209.84,575.245 2220.07,579.081 2230.3,582.024 2240.53,585.941 2250.76,589.635 2260.99,593.718 2271.22,595.55 2281.45,598.268 2291.68,599.519 
  
  "/>
<polyline clip-path="url(#clip892)" style="stroke:#0000ff; stroke-linecap:round; stroke-linejoin:round; stroke-width:12; stroke-opacity:1; fill:none" stroke-dasharray="48, 30" points="
  255.851,771.215 266.081,767.858 276.311,765.993 286.542,763.815 296.772,763.307 307.002,761.385 317.232,760.215 327.463,757.127 337.693,754.538 347.923,751.353 
  358.154,749.251 368.384,744.81 378.614,742.611 388.845,740.503 399.075,740.266 409.305,739.303 419.535,737.059 429.766,733.861 439.996,732.206 450.226,728.802 
  460.457,726.741 470.687,726.012 480.917,723.313 491.148,719.575 501.378,717.978 511.608,715.735 521.838,713.693 532.069,712.306 542.299,710.477 552.529,707.689 
  562.76,707.034 572.99,705.477 583.22,704.976 593.451,705.293 603.681,704.859 613.911,704.613 624.142,704.666 634.372,706.765 644.602,707.065 654.832,708.532 
  665.063,710.171 675.293,712.072 685.523,716.103 695.754,717.848 705.984,719.875 716.214,722.766 726.445,727.73 736.675,732.98 746.905,738.13 757.135,743.901 
  767.366,750.406 777.596,757.997 787.826,765.224 798.057,772.57 808.287,778.902 818.517,787.99 828.748,796.622 838.978,805.411 849.208,815.64 859.438,825.81 
  869.669,835.633 879.899,845.485 890.129,856.373 900.36,868.122 910.59,879.855 920.82,891.611 931.051,903.446 941.281,914.815 951.511,924.401 961.742,938.008 
  971.972,948.409 982.202,960.356 992.432,972.04 1002.66,982.061 1012.89,993.352 1023.12,1006.71 1033.35,1018.96 1043.58,1028.09 1053.81,1040.82 1064.04,1051.21 
  1074.27,1062.9 1084.51,1072.13 1094.74,1080.01 1104.97,1087.77 1115.2,1093.53 1125.43,1100.05 1135.66,1109.11 1145.89,1115.12 1156.12,1120.5 1166.35,1125.13 
  1176.58,1129.87 1186.81,1133.37 1197.04,1138.1 1207.27,1137.92 1217.5,1138.46 1227.73,1138.88 1237.96,1138.95 1248.19,1136.89 1258.42,1134.54 1268.65,1129.87 
  1278.88,1125.81 1289.11,1121.48 1299.34,1114.91 1309.57,1106.35 1319.8,1097.33 1330.03,1086.68 1340.26,1077.39 1350.49,1068.2 1360.72,1058.62 1370.95,1047.39 
  1381.18,1033.02 1391.41,1022.06 1401.64,1008.51 1411.87,994.608 1422.11,979.518 1432.34,962.35 1442.57,945.732 1452.8,928.46 1463.03,908.836 1473.26,890.893 
  1483.49,870.342 1493.72,851.669 1503.95,833.04 1514.18,813.617 1524.41,794.087 1534.64,773.049 1544.87,749.793 1555.1,729.048 1565.33,707.379 1575.56,687.498 
  1585.79,666.876 1596.02,643.623 1606.25,624.799 1616.48,605.932 1626.71,584.971 1636.94,560.873 1647.17,539.973 1657.4,520.767 1667.63,499.689 1677.86,483.119 
  1688.09,463.908 1698.32,449.722 1708.55,433.11 1718.78,416.585 1729.01,402.036 1739.24,388.525 1749.47,376.594 1759.71,363.273 1769.94,351.989 1780.17,341.751 
  1790.4,333.286 1800.63,328.236 1810.86,321.558 1821.09,315.781 1831.32,309.274 1841.55,307.194 1851.78,306.939 1862.01,305.113 1872.24,307.878 1882.47,313.361 
  1892.7,320.053 1902.93,325.312 1913.16,329.148 1923.39,336.177 1933.62,344.485 1943.85,353.703 1954.08,363.538 1964.31,373.215 1974.54,383.608 1984.77,393.266 
  1995,406.128 2005.23,417.832 2015.46,429.975 2025.69,442.544 2035.92,457.823 2046.15,472.192 2056.38,485.787 2066.61,498.835 2076.84,513.322 2087.07,527.308 
  2097.31,541.732 2107.54,556.952 2117.77,572.72 2128,588.908 2138.23,606.432 2148.46,622.88 2158.69,638.22 2168.92,656.205 2179.15,674.121 2189.38,689.545 
  2199.61,704.712 2209.84,720.83 2220.07,737.179 2230.3,752.472 2240.53,769.263 2250.76,784.474 2260.99,797.138 2271.22,809.978 2281.45,820.392 2291.68,833.975 
  
  "/>
<polyline clip-path="url(#clip892)" style="stroke:#0000ff; stroke-linecap:round; stroke-linejoin:round; stroke-width:12; stroke-opacity:1; fill:none" points="
  255.851,785.183 266.081,789.652 276.311,789.578 286.542,787.756 296.772,791.47 307.002,780.439 317.232,780.075 327.463,778.905 337.693,780.285 347.923,778.498 
  358.154,773.971 368.384,767.318 378.614,763.99 388.845,759.554 399.075,753.679 409.305,751.453 419.535,748.524 429.766,745.406 439.996,744.636 450.226,742.093 
  460.457,734.154 470.687,730.069 480.917,727.529 491.148,721.812 501.378,716.225 511.608,713.671 521.838,706.767 532.069,701.002 542.299,696.124 552.529,690.417 
  562.76,686.395 572.99,684.701 583.22,684.443 593.451,681.959 603.681,682.108 613.911,678.087 624.142,674.779 634.372,674.102 644.602,672.053 654.832,669.648 
  665.063,666.471 675.293,663.367 685.523,662.637 695.754,661.969 705.984,666.047 716.214,673.848 726.445,676.454 736.675,681.766 746.905,686.292 757.135,695.485 
  767.366,701.231 777.596,710.021 787.826,718.104 798.057,724.911 808.287,732.539 818.517,741.287 828.748,753.785 838.978,765.787 849.208,776.289 859.438,790.013 
  869.669,804.558 879.899,815.042 890.129,829.686 900.36,845.598 910.59,855.447 920.82,864.936 931.051,879.483 941.281,894.338 951.511,907.018 961.742,916.669 
  971.972,930.006 982.202,947.29 992.432,957.661 1002.66,976.5 1012.89,994.637 1023.12,1008.31 1033.35,1023.69 1043.58,1035.26 1053.81,1047.55 1064.04,1060.63 
  1074.27,1071.46 1084.51,1088.21 1094.74,1102.16 1104.97,1110.3 1115.2,1123.27 1125.43,1139.05 1135.66,1148.19 1145.89,1156.42 1156.12,1167.1 1166.35,1171.71 
  1176.58,1178.81 1186.81,1181.19 1197.04,1189.14 1207.27,1189.74 1217.5,1198.07 1227.73,1201.46 1237.96,1200.73 1248.19,1198.54 1258.42,1194.58 1268.65,1191.17 
  1278.88,1192.61 1289.11,1190.32 1299.34,1187.32 1309.57,1184.32 1319.8,1181.06 1330.03,1175.67 1340.26,1168.66 1350.49,1165.66 1360.72,1153.41 1370.95,1145.64 
  1381.18,1135.17 1391.41,1122.51 1401.64,1105.52 1411.87,1084.99 1422.11,1064.85 1432.34,1045.3 1442.57,1025.7 1452.8,1009.54 1463.03,987.988 1473.26,962.877 
  1483.49,938.14 1493.72,913.641 1503.95,887.169 1514.18,862.824 1524.41,834.402 1534.64,806.411 1544.87,781.753 1555.1,752.756 1565.33,729.934 1575.56,702.2 
  1585.79,677.04 1596.02,650.106 1606.25,621.582 1616.48,594.354 1626.71,565.906 1636.94,532.509 1647.17,505.413 1657.4,475.714 1667.63,458.834 1677.86,434.546 
  1688.09,408.989 1698.32,390.118 1708.55,369.075 1718.78,345.828 1729.01,326.233 1739.24,304.568 1749.47,284.835 1759.71,268.586 1769.94,252.909 1780.17,239.87 
  1790.4,225.151 1800.63,212.916 1810.86,204.721 1821.09,192.385 1831.32,185.001 1841.55,180.633 1851.78,177.474 1862.01,180.182 1872.24,170.732 1882.47,170.665 
  1892.7,167.859 1902.93,169.814 1913.16,175.101 1923.39,183.233 1933.62,196.091 1943.85,203.279 1954.08,213.847 1964.31,226.186 1974.54,243.011 1984.77,253.501 
  1995,266.354 2005.23,282.195 2015.46,304.114 2025.69,335.012 2035.92,363.56 2046.15,394.938 2056.38,422.189 2066.61,448.884 2076.84,483.983 2087.07,517.749 
  2097.31,551.103 2107.54,584.042 2117.77,617 2128,649.753 2138.23,682.111 2148.46,716.348 2158.69,749.222 2168.92,778.73 2179.15,806.652 2189.38,834.204 
  2199.61,864.365 2209.84,891.067 2220.07,912.835 2230.3,938.857 2240.53,958.097 2250.76,977.589 2260.99,997.421 2271.22,1017.75 2281.45,1034.34 2291.68,1046.09 
  
  "/>
</svg>
