<?xml version="1.0" encoding="utf-8"?>
<svg xmlns="http://www.w3.org/2000/svg" xmlns:xlink="http://www.w3.org/1999/xlink" width="600" height="400" viewBox="0 0 2400 1600">
<defs>
  <clipPath id="clip790">
    <rect x="0" y="0" width="2400" height="1600"/>
  </clipPath>
</defs>
<path clip-path="url(#clip790)" d="
M0 1600 L2400 1600 L2400 0 L0 0  Z
  " fill="#ffffff" fill-rule="evenodd" fill-opacity="1"/>
<defs>
  <clipPath id="clip791">
    <rect x="480" y="0" width="1681" height="1600"/>
  </clipPath>
</defs>
<defs>
  <clipPath id="clip792">
    <rect x="194" y="47" width="2159" height="1308"/>
  </clipPath>
</defs>
<path clip-path="url(#clip790)" d="
M194.776 1354.06 L2352.76 1354.06 L2352.76 47.2441 L194.776 47.2441  Z
  " fill="#ffffff" fill-rule="evenodd" fill-opacity="1"/>
<polyline clip-path="url(#clip792)" style="stroke:#000000; stroke-linecap:round; stroke-linejoin:round; stroke-width:2; stroke-opacity:0.1; fill:none" points="
  255.851,1354.06 255.851,47.2441 
  "/>
<polyline clip-path="url(#clip792)" style="stroke:#000000; stroke-linecap:round; stroke-linejoin:round; stroke-width:2; stroke-opacity:0.1; fill:none" points="
  459.434,1354.06 459.434,47.2441 
  "/>
<polyline clip-path="url(#clip792)" style="stroke:#000000; stroke-linecap:round; stroke-linejoin:round; stroke-width:2; stroke-opacity:0.1; fill:none" points="
  663.017,1354.06 663.017,47.2441 
  "/>
<polyline clip-path="url(#clip792)" style="stroke:#000000; stroke-linecap:round; stroke-linejoin:round; stroke-width:2; stroke-opacity:0.1; fill:none" points="
  866.6,1354.06 866.6,47.2441 
  "/>
<polyline clip-path="url(#clip792)" style="stroke:#000000; stroke-linecap:round; stroke-linejoin:round; stroke-width:2; stroke-opacity:0.1; fill:none" points="
  1070.18,1354.06 1070.18,47.2441 
  "/>
<polyline clip-path="url(#clip792)" style="stroke:#000000; stroke-linecap:round; stroke-linejoin:round; stroke-width:2; stroke-opacity:0.1; fill:none" points="
  1273.77,1354.06 1273.77,47.2441 
  "/>
<polyline clip-path="url(#clip792)" style="stroke:#000000; stroke-linecap:round; stroke-linejoin:round; stroke-width:2; stroke-opacity:0.1; fill:none" points="
  1477.35,1354.06 1477.35,47.2441 
  "/>
<polyline clip-path="url(#clip792)" style="stroke:#000000; stroke-linecap:round; stroke-linejoin:round; stroke-width:2; stroke-opacity:0.1; fill:none" points="
  1680.93,1354.06 1680.93,47.2441 
  "/>
<polyline clip-path="url(#clip792)" style="stroke:#000000; stroke-linecap:round; stroke-linejoin:round; stroke-width:2; stroke-opacity:0.1; fill:none" points="
  1884.51,1354.06 1884.51,47.2441 
  "/>
<polyline clip-path="url(#clip792)" style="stroke:#000000; stroke-linecap:round; stroke-linejoin:round; stroke-width:2; stroke-opacity:0.1; fill:none" points="
  2088.1,1354.06 2088.1,47.2441 
  "/>
<polyline clip-path="url(#clip792)" style="stroke:#000000; stroke-linecap:round; stroke-linejoin:round; stroke-width:2; stroke-opacity:0.1; fill:none" points="
  2291.68,1354.06 2291.68,47.2441 
  "/>
<polyline clip-path="url(#clip790)" style="stroke:#000000; stroke-linecap:round; stroke-linejoin:round; stroke-width:4; stroke-opacity:1; fill:none" points="
  194.776,1354.06 2352.76,1354.06 
  "/>
<polyline clip-path="url(#clip790)" style="stroke:#000000; stroke-linecap:round; stroke-linejoin:round; stroke-width:4; stroke-opacity:1; fill:none" points="
  255.851,1354.06 255.851,1335.16 
  "/>
<polyline clip-path="url(#clip790)" style="stroke:#000000; stroke-linecap:round; stroke-linejoin:round; stroke-width:4; stroke-opacity:1; fill:none" points="
  459.434,1354.06 459.434,1335.16 
  "/>
<polyline clip-path="url(#clip790)" style="stroke:#000000; stroke-linecap:round; stroke-linejoin:round; stroke-width:4; stroke-opacity:1; fill:none" points="
  663.017,1354.06 663.017,1335.16 
  "/>
<polyline clip-path="url(#clip790)" style="stroke:#000000; stroke-linecap:round; stroke-linejoin:round; stroke-width:4; stroke-opacity:1; fill:none" points="
  866.6,1354.06 866.6,1335.16 
  "/>
<polyline clip-path="url(#clip790)" style="stroke:#000000; stroke-linecap:round; stroke-linejoin:round; stroke-width:4; stroke-opacity:1; fill:none" points="
  1070.18,1354.06 1070.18,1335.16 
  "/>
<polyline clip-path="url(#clip790)" style="stroke:#000000; stroke-linecap:round; stroke-linejoin:round; stroke-width:4; stroke-opacity:1; fill:none" points="
  1273.77,1354.06 1273.77,1335.16 
  "/>
<polyline clip-path="url(#clip790)" style="stroke:#000000; stroke-linecap:round; stroke-linejoin:round; stroke-width:4; stroke-opacity:1; fill:none" points="
  1477.35,1354.06 1477.35,1335.16 
  "/>
<polyline clip-path="url(#clip790)" style="stroke:#000000; stroke-linecap:round; stroke-linejoin:round; stroke-width:4; stroke-opacity:1; fill:none" points="
  1680.93,1354.06 1680.93,1335.16 
  "/>
<polyline clip-path="url(#clip790)" style="stroke:#000000; stroke-linecap:round; stroke-linejoin:round; stroke-width:4; stroke-opacity:1; fill:none" points="
  1884.51,1354.06 1884.51,1335.16 
  "/>
<polyline clip-path="url(#clip790)" style="stroke:#000000; stroke-linecap:round; stroke-linejoin:round; stroke-width:4; stroke-opacity:1; fill:none" points="
  2088.1,1354.06 2088.1,1335.16 
  "/>
<polyline clip-path="url(#clip790)" style="stroke:#000000; stroke-linecap:round; stroke-linejoin:round; stroke-width:4; stroke-opacity:1; fill:none" points="
  2291.68,1354.06 2291.68,1335.16 
  "/>
<path clip-path="url(#clip790)" d="M255.851 1395.23 Q249.08 1395.23 245.651 1401.92 Q242.266 1408.56 242.266 1421.92 Q242.266 1435.25 245.651 1441.93 Q249.08 1448.57 255.851 1448.57 Q262.665 1448.57 266.05 1441.93 Q269.479 1435.25 269.479 1421.92 Q269.479 1408.56 266.05 1401.92 Q262.665 1395.23 255.851 1395.23 M255.851 1388.29 Q266.745 1388.29 272.474 1396.93 Q278.246 1405.52 278.246 1421.92 Q278.246 1438.29 272.474 1446.92 Q266.745 1455.52 255.851 1455.52 Q244.957 1455.52 239.184 1446.92 Q233.455 1438.29 233.455 1421.92 Q233.455 1405.52 239.184 1396.93 Q244.957 1388.29 255.851 1388.29 Z" fill="#000000" fill-rule="evenodd" fill-opacity="1" /><path clip-path="url(#clip790)" d="M622.11 1395.23 Q615.339 1395.23 611.91 1401.92 Q608.525 1408.56 608.525 1421.92 Q608.525 1435.25 611.91 1441.93 Q615.339 1448.57 622.11 1448.57 Q628.924 1448.57 632.309 1441.93 Q635.738 1435.25 635.738 1421.92 Q635.738 1408.56 632.309 1401.92 Q628.924 1395.23 622.11 1395.23 M622.11 1388.29 Q633.004 1388.29 638.733 1396.93 Q644.505 1405.52 644.505 1421.92 Q644.505 1438.29 638.733 1446.92 Q633.004 1455.52 622.11 1455.52 Q611.216 1455.52 605.443 1446.92 Q599.714 1438.29 599.714 1421.92 Q599.714 1405.52 605.443 1396.93 Q611.216 1388.29 622.11 1388.29 Z" fill="#000000" fill-rule="evenodd" fill-opacity="1" /><path clip-path="url(#clip790)" d="M659.913 1443.24 L669.071 1443.24 L669.071 1454.26 L659.913 1454.26 L659.913 1443.24 Z" fill="#000000" fill-rule="evenodd" fill-opacity="1" /><path clip-path="url(#clip790)" d="M695.72 1446.88 L726.319 1446.88 L726.319 1454.26 L685.174 1454.26 L685.174 1446.88 Q690.165 1441.72 698.759 1433.04 Q707.396 1424.31 709.609 1421.79 Q713.819 1417.06 715.469 1413.81 Q717.161 1410.51 717.161 1407.34 Q717.161 1402.18 713.516 1398.92 Q709.913 1395.67 704.097 1395.67 Q699.974 1395.67 695.373 1397.1 Q690.816 1398.53 685.608 1401.44 L685.608 1392.58 Q690.903 1390.46 695.503 1389.37 Q700.104 1388.29 703.924 1388.29 Q713.993 1388.29 719.983 1393.32 Q725.972 1398.36 725.972 1406.78 Q725.972 1410.77 724.453 1414.37 Q722.977 1417.93 719.028 1422.79 Q717.943 1424.05 712.127 1430.08 Q706.311 1436.07 695.72 1446.88 Z" fill="#000000" fill-rule="evenodd" fill-opacity="1" /><path clip-path="url(#clip790)" d="M1027.32 1395.23 Q1020.55 1395.23 1017.12 1401.92 Q1013.74 1408.56 1013.74 1421.92 Q1013.74 1435.25 1017.12 1441.93 Q1020.55 1448.57 1027.32 1448.57 Q1034.14 1448.57 1037.52 1441.93 Q1040.95 1435.25 1040.95 1421.92 Q1040.95 1408.56 1037.52 1401.92 Q1034.14 1395.23 1027.32 1395.23 M1027.32 1388.29 Q1038.22 1388.29 1043.95 1396.93 Q1049.72 1405.52 1049.72 1421.92 Q1049.72 1438.29 1043.95 1446.92 Q1038.22 1455.52 1027.32 1455.52 Q1016.43 1455.52 1010.66 1446.92 Q1004.93 1438.29 1004.93 1421.92 Q1004.93 1405.52 1010.66 1396.93 Q1016.43 1388.29 1027.32 1388.29 Z" fill="#000000" fill-rule="evenodd" fill-opacity="1" /><path clip-path="url(#clip790)" d="M1065.13 1443.24 L1074.28 1443.24 L1074.28 1454.26 L1065.13 1454.26 L1065.13 1443.24 Z" fill="#000000" fill-rule="evenodd" fill-opacity="1" /><path clip-path="url(#clip790)" d="M1117.47 1397.1 L1095.33 1431.69 L1117.47 1431.69 L1117.47 1397.1 M1115.17 1389.46 L1126.19 1389.46 L1126.19 1431.69 L1135.44 1431.69 L1135.44 1438.98 L1126.19 1438.98 L1126.19 1454.26 L1117.47 1454.26 L1117.47 1438.98 L1088.22 1438.98 L1088.22 1430.52 L1115.17 1389.46 Z" fill="#000000" fill-rule="evenodd" fill-opacity="1" /><path clip-path="url(#clip790)" d="M1434.79 1395.23 Q1428.02 1395.23 1424.59 1401.92 Q1421.21 1408.56 1421.21 1421.92 Q1421.21 1435.25 1424.59 1441.93 Q1428.02 1448.57 1434.79 1448.57 Q1441.61 1448.57 1444.99 1441.93 Q1448.42 1435.25 1448.42 1421.92 Q1448.42 1408.56 1444.99 1401.92 Q1441.61 1395.23 1434.79 1395.23 M1434.79 1388.29 Q1445.69 1388.29 1451.42 1396.93 Q1457.19 1405.52 1457.19 1421.92 Q1457.19 1438.29 1451.42 1446.92 Q1445.69 1455.52 1434.79 1455.52 Q1423.9 1455.52 1418.13 1446.92 Q1412.4 1438.29 1412.4 1421.92 Q1412.4 1405.52 1418.13 1396.93 Q1423.9 1388.29 1434.79 1388.29 Z" fill="#000000" fill-rule="evenodd" fill-opacity="1" /><path clip-path="url(#clip790)" d="M1472.6 1443.24 L1481.75 1443.24 L1481.75 1454.26 L1472.6 1454.26 L1472.6 1443.24 Z" fill="#000000" fill-rule="evenodd" fill-opacity="1" /><path clip-path="url(#clip790)" d="M1520.69 1418.37 Q1514.78 1418.37 1511.31 1422.4 Q1507.88 1426.44 1507.88 1433.47 Q1507.88 1440.46 1511.31 1444.54 Q1514.78 1448.57 1520.69 1448.57 Q1526.59 1448.57 1530.02 1444.54 Q1533.49 1440.46 1533.49 1433.47 Q1533.49 1426.44 1530.02 1422.4 Q1526.59 1418.37 1520.69 1418.37 M1538.09 1390.89 L1538.09 1398.88 Q1534.79 1397.32 1531.41 1396.49 Q1528.06 1395.67 1524.77 1395.67 Q1516.09 1395.67 1511.48 1401.53 Q1506.93 1407.39 1506.28 1419.23 Q1508.84 1415.46 1512.7 1413.46 Q1516.56 1411.42 1521.21 1411.42 Q1530.97 1411.42 1536.62 1417.37 Q1542.3 1423.27 1542.3 1433.47 Q1542.3 1443.45 1536.4 1449.49 Q1530.5 1455.52 1520.69 1455.52 Q1509.45 1455.52 1503.5 1446.92 Q1497.55 1438.29 1497.55 1421.92 Q1497.55 1406.56 1504.84 1397.45 Q1512.14 1388.29 1524.42 1388.29 Q1527.72 1388.29 1531.06 1388.94 Q1534.44 1389.59 1538.09 1390.89 Z" fill="#000000" fill-rule="evenodd" fill-opacity="1" /><path clip-path="url(#clip790)" d="M1842.2 1395.23 Q1835.43 1395.23 1832 1401.92 Q1828.61 1408.56 1828.61 1421.92 Q1828.61 1435.25 1832 1441.93 Q1835.43 1448.57 1842.2 1448.57 Q1849.01 1448.57 1852.4 1441.93 Q1855.83 1435.25 1855.83 1421.92 Q1855.83 1408.56 1852.4 1401.92 Q1849.01 1395.23 1842.2 1395.23 M1842.2 1388.29 Q1853.09 1388.29 1858.82 1396.93 Q1864.59 1405.52 1864.59 1421.92 Q1864.59 1438.29 1858.82 1446.92 Q1853.09 1455.52 1842.2 1455.52 Q1831.3 1455.52 1825.53 1446.92 Q1819.8 1438.29 1819.8 1421.92 Q1819.8 1405.52 1825.53 1396.93 Q1831.3 1388.29 1842.2 1388.29 Z" fill="#000000" fill-rule="evenodd" fill-opacity="1" /><path clip-path="url(#clip790)" d="M1880 1443.24 L1889.16 1443.24 L1889.16 1454.26 L1880 1454.26 L1880 1443.24 Z" fill="#000000" fill-rule="evenodd" fill-opacity="1" /><path clip-path="url(#clip790)" d="M1927.01 1423.49 Q1920.76 1423.49 1917.15 1426.83 Q1913.59 1430.17 1913.59 1436.03 Q1913.59 1441.89 1917.15 1445.23 Q1920.76 1448.57 1927.01 1448.57 Q1933.26 1448.57 1936.86 1445.23 Q1940.46 1441.85 1940.46 1436.03 Q1940.46 1430.17 1936.86 1426.83 Q1933.3 1423.49 1927.01 1423.49 M1918.24 1419.75 Q1912.6 1418.37 1909.43 1414.5 Q1906.3 1410.64 1906.3 1405.08 Q1906.3 1397.32 1911.82 1392.8 Q1917.37 1388.29 1927.01 1388.29 Q1936.68 1388.29 1942.2 1392.8 Q1947.71 1397.32 1947.71 1405.08 Q1947.71 1410.64 1944.54 1414.5 Q1941.42 1418.37 1935.82 1419.75 Q1942.15 1421.23 1945.67 1425.53 Q1949.23 1429.82 1949.23 1436.03 Q1949.23 1445.45 1943.46 1450.48 Q1937.73 1455.52 1927.01 1455.52 Q1916.29 1455.52 1910.51 1450.48 Q1904.78 1445.45 1904.78 1436.03 Q1904.78 1429.82 1908.34 1425.53 Q1911.9 1421.23 1918.24 1419.75 M1915.03 1405.91 Q1915.03 1410.94 1918.15 1413.77 Q1921.32 1416.59 1927.01 1416.59 Q1932.65 1416.59 1935.82 1413.77 Q1939.03 1410.94 1939.03 1405.91 Q1939.03 1400.87 1935.82 1398.05 Q1932.65 1395.23 1927.01 1395.23 Q1921.32 1395.23 1918.15 1398.05 Q1915.03 1400.87 1915.03 1405.91 Z" fill="#000000" fill-rule="evenodd" fill-opacity="1" /><path clip-path="url(#clip790)" d="M2273.65 1446.88 L2287.97 1446.88 L2287.97 1397.45 L2272.39 1400.57 L2272.39 1392.58 L2287.88 1389.46 L2296.65 1389.46 L2296.65 1446.88 L2310.97 1446.88 L2310.97 1454.26 L2273.65 1454.26 L2273.65 1446.88 Z" fill="#000000" fill-rule="evenodd" fill-opacity="1" /><path clip-path="url(#clip790)" d="M1299.53 1519.59 Q1299.53 1522.87 1297.49 1524.74 Q1295.44 1526.56 1293.09 1526.56 Q1290.87 1526.56 1289.7 1525.27 Q1288.53 1523.98 1288.53 1522.34 Q1288.53 1520.12 1290.17 1518.18 Q1291.81 1516.25 1294.26 1515.84 Q1291.86 1514.32 1288.29 1514.32 Q1285.95 1514.32 1283.9 1515.55 Q1281.91 1516.78 1280.68 1518.36 Q1279.51 1519.94 1278.45 1522.22 Q1277.46 1524.45 1277.05 1525.8 Q1276.7 1527.08 1276.41 1528.49 L1272.31 1544.89 Q1270.32 1552.67 1270.32 1555.43 Q1270.32 1558.82 1271.95 1561.11 Q1273.59 1563.33 1276.87 1563.33 Q1278.16 1563.33 1279.63 1562.98 Q1281.09 1562.57 1282.96 1561.52 Q1284.9 1560.4 1286.59 1558.76 Q1288.35 1557.07 1290.05 1554.2 Q1291.75 1551.33 1292.86 1547.64 Q1293.21 1546.35 1294.38 1546.35 Q1295.85 1546.35 1295.85 1547.52 Q1295.85 1548.52 1295.03 1550.62 Q1294.26 1552.67 1292.57 1555.37 Q1290.93 1558 1288.76 1560.4 Q1286.59 1562.75 1283.37 1564.39 Q1280.15 1566.02 1276.64 1566.02 Q1271.6 1566.02 1268.27 1563.33 Q1264.93 1560.64 1263.7 1556.89 Q1263.41 1557.42 1263 1558.12 Q1262.59 1558.82 1261.36 1560.4 Q1260.19 1561.93 1258.84 1563.1 Q1257.49 1564.21 1255.38 1565.09 Q1253.33 1566.02 1251.11 1566.02 Q1248.3 1566.02 1245.78 1565.2 Q1243.32 1564.39 1241.56 1562.51 Q1239.81 1560.64 1239.81 1558.06 Q1239.81 1555.19 1241.74 1553.2 Q1243.73 1551.15 1246.42 1551.15 Q1248.12 1551.15 1249.47 1552.15 Q1250.87 1553.14 1250.87 1555.31 Q1250.87 1557.71 1249.24 1559.53 Q1247.6 1561.34 1245.25 1561.81 Q1247.65 1563.33 1251.23 1563.33 Q1255.09 1563.33 1258.14 1559.93 Q1261.18 1556.54 1262.64 1550.86 Q1266.27 1537.22 1267.68 1531.13 Q1269.09 1524.98 1269.09 1522.34 Q1269.09 1519.88 1268.44 1518.18 Q1267.8 1516.49 1266.68 1515.73 Q1265.63 1514.91 1264.64 1514.61 Q1263.7 1514.32 1262.64 1514.32 Q1260.89 1514.32 1258.9 1515.02 Q1256.96 1515.73 1254.62 1517.36 Q1252.34 1518.95 1250.17 1522.22 Q1248.01 1525.5 1246.54 1530.01 Q1246.25 1531.36 1244.96 1531.36 Q1243.56 1531.3 1243.56 1530.13 Q1243.56 1529.13 1244.32 1527.08 Q1245.14 1524.98 1246.78 1522.34 Q1248.47 1519.71 1250.64 1517.36 Q1252.87 1514.96 1256.09 1513.32 Q1259.37 1511.68 1262.88 1511.68 Q1264.46 1511.68 1265.98 1512.04 Q1267.56 1512.33 1269.44 1513.21 Q1271.37 1514.09 1273.07 1516.02 Q1274.77 1517.95 1275.82 1520.76 Q1276.52 1519.41 1277.46 1518.13 Q1278.45 1516.84 1279.98 1515.26 Q1281.56 1513.62 1283.72 1512.68 Q1285.95 1511.68 1288.41 1511.68 Q1290.81 1511.68 1293.15 1512.33 Q1295.49 1512.91 1297.49 1514.85 Q1299.53 1516.72 1299.53 1519.59 Z" fill="#000000" fill-rule="evenodd" fill-opacity="1" /><polyline clip-path="url(#clip792)" style="stroke:#000000; stroke-linecap:round; stroke-linejoin:round; stroke-width:2; stroke-opacity:0.1; fill:none" points="
  194.776,814.924 2352.76,814.924 
  "/>
<polyline clip-path="url(#clip790)" style="stroke:#000000; stroke-linecap:round; stroke-linejoin:round; stroke-width:4; stroke-opacity:1; fill:none" points="
  194.776,1354.06 194.776,47.2441 
  "/>
<polyline clip-path="url(#clip790)" style="stroke:#000000; stroke-linecap:round; stroke-linejoin:round; stroke-width:4; stroke-opacity:1; fill:none" points="
  194.776,814.924 213.673,814.924 
  "/>
<path clip-path="url(#clip790)" d="M136.38 788.296 Q129.609 788.296 126.18 794.98 Q122.795 801.621 122.795 814.989 Q122.795 828.313 126.18 834.997 Q129.609 841.638 136.38 841.638 Q143.194 841.638 146.58 834.997 Q150.008 828.313 150.008 814.989 Q150.008 801.621 146.58 794.98 Q143.194 788.296 136.38 788.296 M136.38 781.352 Q147.274 781.352 153.003 789.989 Q158.776 798.583 158.776 814.989 Q158.776 831.351 153.003 839.989 Q147.274 848.582 136.38 848.582 Q125.486 848.582 119.713 839.989 Q113.984 831.351 113.984 814.989 Q113.984 798.583 119.713 789.989 Q125.486 781.352 136.38 781.352 Z" fill="#000000" fill-rule="evenodd" fill-opacity="1" /><polyline clip-path="url(#clip792)" style="stroke:#000000; stroke-linecap:round; stroke-linejoin:round; stroke-width:12; stroke-opacity:1; fill:none" points="
  255.851,814.924 266.081,814.691 276.311,813.993 286.542,812.834 296.772,811.219 307.002,809.158 317.232,806.659 327.463,803.737 337.693,800.405 347.923,796.681 
  358.154,792.584 368.384,788.135 378.614,783.357 388.845,778.275 399.075,772.915 409.305,767.307 419.535,761.478 429.766,755.462 439.996,749.289 450.226,742.994 
  460.457,736.612 470.687,730.177 480.917,723.727 491.148,717.297 501.378,710.927 511.608,704.653 521.838,698.513 532.069,692.545 542.299,686.787 552.529,681.276 
  562.76,676.051 572.99,671.146 583.22,666.599 593.451,662.443 603.681,658.713 613.911,655.441 624.142,652.659 634.372,650.397 644.602,648.682 654.832,647.542 
  665.063,647.002 675.293,647.083 685.523,647.808 695.754,649.193 705.984,651.257 716.214,654.012 726.445,657.47 736.675,661.64 746.905,666.528 757.135,672.139 
  767.366,678.472 777.596,685.527 787.826,693.298 798.057,701.779 808.287,710.959 818.517,720.826 828.748,731.363 838.978,742.552 849.208,754.373 859.438,766.8 
  869.669,779.807 879.899,793.366 890.129,807.443 900.36,822.005 910.59,837.015 920.82,852.434 931.051,868.221 941.281,884.332 951.511,900.722 961.742,917.343 
  971.972,934.148 982.202,951.085 992.432,968.102 1002.66,985.147 1012.89,1002.16 1023.12,1019.1 1033.35,1035.9 1043.58,1052.5 1053.81,1068.85 1064.04,1084.89 
  1074.27,1100.57 1084.51,1115.82 1094.74,1130.59 1104.97,1144.82 1115.2,1158.47 1125.43,1171.46 1135.66,1183.75 1145.89,1195.29 1156.12,1206.02 1166.35,1215.9 
  1176.58,1224.88 1186.81,1232.91 1197.04,1239.95 1207.27,1245.96 1217.5,1250.9 1227.73,1254.74 1237.96,1257.43 1248.19,1258.96 1258.42,1259.28 1268.65,1258.39 
  1278.88,1256.26 1289.11,1252.87 1299.34,1248.21 1309.57,1242.27 1319.8,1235.04 1330.03,1226.53 1340.26,1216.72 1350.49,1205.63 1360.72,1193.27 1370.95,1179.64 
  1381.18,1164.78 1391.41,1148.69 1401.64,1131.4 1411.87,1112.94 1422.11,1093.35 1432.34,1072.66 1442.57,1050.91 1452.8,1028.15 1463.03,1004.42 1473.26,979.772 
  1483.49,954.266 1493.72,927.956 1503.95,900.904 1514.18,873.175 1524.41,844.835 1534.64,815.955 1544.87,786.605 1555.1,756.862 1565.33,726.802 1575.56,696.503 
  1585.79,666.047 1596.02,635.515 1606.25,604.991 1616.48,574.558 1626.71,544.304 1636.94,514.313 1647.17,484.673 1657.4,455.469 1667.63,426.789 1677.86,398.718 
  1688.09,371.342 1698.32,344.745 1708.55,319.012 1718.78,294.224 1729.01,270.461 1739.24,247.804 1749.47,226.328 1759.71,206.107 1769.94,187.214 1780.17,169.716 
  1790.4,153.681 1800.63,139.17 1810.86,126.243 1821.09,114.954 1831.32,105.356 1841.55,97.4962 1851.78,91.4169 1862.01,87.1574 1872.24,84.7518 1882.47,84.2294 
  1892.7,85.615 1902.93,88.9282 1913.16,94.1833 1923.39,101.39 1933.62,110.552 1943.85,121.668 1954.08,134.732 1964.31,149.732 1974.54,166.65 1984.77,185.463 
  1995,206.142 2005.23,228.655 2015.46,252.962 2025.69,279.019 2035.92,306.775 2046.15,336.176 2056.38,367.162 2066.61,399.669 2076.84,433.625 2087.07,468.958 
  2097.31,505.587 2107.54,543.43 2117.77,582.4 2128,622.405 2138.23,663.349 2148.46,705.135 2158.69,747.66 2168.92,790.82 2179.15,834.506 2189.38,878.608 
  2199.61,923.015 2209.84,967.611 2220.07,1012.28 2230.3,1056.91 2240.53,1101.37 2250.76,1145.55 2260.99,1189.33 2271.22,1232.59 2281.45,1275.21 2291.68,1317.07 
  
  "/>
<polyline clip-path="url(#clip792)" style="stroke:#0000ff; stroke-linecap:round; stroke-linejoin:round; stroke-width:12; stroke-opacity:1; fill:none" stroke-dasharray="48, 24, 6, 24, 6, 24" points="
  255.851,746.762 266.081,745.733 276.311,744.684 286.542,743.616 296.772,742.532 307.002,741.434 317.232,740.325 327.463,739.209 337.693,738.089 347.923,736.967 
  358.154,735.849 368.384,734.74 378.614,733.644 388.845,732.566 399.075,731.511 409.305,730.485 419.535,729.495 429.766,728.546 439.996,727.645 450.226,726.801 
  460.457,726.025 470.687,725.328 480.917,724.72 491.148,724.211 501.378,723.81 511.608,723.525 521.838,723.367 532.069,723.343 542.299,723.465 552.529,723.742 
  562.76,724.182 572.99,724.794 583.22,725.592 593.451,726.589 603.681,727.799 613.911,729.242 624.142,730.929 634.372,732.875 644.602,735.088 654.832,737.576 
  665.063,740.347 675.293,743.414 685.523,746.783 695.754,750.459 705.984,754.438 716.214,758.724 726.445,763.313 736.675,768.206 746.905,773.403 757.135,778.902 
  767.366,784.697 777.596,790.783 787.826,797.149 798.057,803.784 808.287,810.678 818.517,817.819 828.748,825.192 838.978,832.785 849.208,840.585 859.438,848.573 
  869.669,856.734 879.899,865.051 890.129,873.5 900.36,882.06 910.59,890.707 920.82,899.417 931.051,908.169 941.281,916.942 951.511,925.713 961.742,934.455 
  971.972,943.142 982.202,951.747 992.432,960.243 1002.66,968.606 1012.89,976.812 1023.12,984.834 1033.35,992.647 1043.58,1000.23 1053.81,1007.54 1064.04,1014.57 
  1074.27,1021.29 1084.51,1027.67 1094.74,1033.68 1104.97,1039.29 1115.2,1044.49 1125.43,1049.24 1135.66,1053.52 1145.89,1057.32 1156.12,1060.6 1166.35,1063.35 
  1176.58,1065.55 1186.81,1067.17 1197.04,1068.21 1207.27,1068.64 1217.5,1068.45 1227.73,1067.61 1237.96,1066.13 1248.19,1063.99 1258.42,1061.18 1268.65,1057.69 
  1278.88,1053.52 1289.11,1048.65 1299.34,1043.09 1309.57,1036.85 1319.8,1029.91 1330.03,1022.29 1340.26,1014 1350.49,1005.05 1360.72,995.45 1370.95,985.218 
  1381.18,974.374 1391.41,962.937 1401.64,950.924 1411.87,938.357 1422.11,925.25 1432.34,911.622 1442.57,897.5 1452.8,882.909 1463.03,867.884 1473.26,852.458 
  1483.49,836.658 1493.72,820.517 1503.95,804.073 1514.18,787.369 1524.41,770.449 1534.64,753.362 1544.87,736.154 1555.1,718.874 1565.33,701.572 1575.56,684.303 
  1585.79,667.119 1596.02,650.072 1606.25,633.218 1616.48,616.605 1626.71,600.283 1636.94,584.302 1647.17,568.714 1657.4,553.561 1667.63,538.889 1677.86,524.741 
  1688.09,511.156 1698.32,498.181 1708.55,485.858 1718.78,474.224 1729.01,463.317 1739.24,453.169 1749.47,443.802 1759.71,435.237 1769.94,427.486 1780.17,420.565 
  1790.4,414.483 1800.63,409.247 1810.86,404.857 1821.09,401.316 1831.32,398.616 1841.55,396.751 1851.78,395.709 1862.01,395.475 1872.24,396.033 1882.47,397.371 
  1892.7,399.466 1902.93,402.294 1913.16,405.827 1923.39,410.036 1933.62,414.89 1943.85,420.358 1954.08,426.405 1964.31,432.999 1974.54,440.107 1984.77,447.697 
  1995,455.735 2005.23,464.193 2015.46,473.039 2025.69,482.24 2035.92,491.768 2046.15,501.592 2056.38,511.682 2066.61,522.009 2076.84,532.544 2087.07,543.263 
  2097.31,554.143 2107.54,565.162 2117.77,576.294 2128,587.518 2138.23,598.813 2148.46,610.159 2158.69,621.539 2168.92,632.936 2179.15,644.334 2189.38,655.721 
  2199.61,667.082 2209.84,678.408 2220.07,689.69 2230.3,700.924 2240.53,712.112 2250.76,723.244 2260.99,734.309 2271.22,745.298 2281.45,756.198 2291.68,767.004 
  
  "/>
<polyline clip-path="url(#clip792)" style="stroke:#0000ff; stroke-linecap:round; stroke-linejoin:round; stroke-width:12; stroke-opacity:1; fill:none" stroke-dasharray="48, 30" points="
  255.851,799.881 266.081,797.971 276.311,795.856 286.542,793.537 296.772,791.031 307.002,788.326 317.232,785.417 327.463,782.317 337.693,779.021 347.923,775.561 
  358.154,771.969 368.384,768.264 378.614,764.43 388.845,760.461 399.075,756.376 409.305,752.212 419.535,747.994 429.766,743.752 439.996,739.514 450.226,735.345 
  460.457,731.232 470.687,727.162 480.917,723.128 491.148,719.133 501.378,715.202 511.608,711.351 521.838,707.623 532.069,704.07 542.299,700.72 552.529,697.616 
  562.76,694.785 572.99,692.244 583.22,690.02 593.451,688.132 603.681,686.596 613.911,685.424 624.142,684.617 634.372,684.179 644.602,684.158 654.832,684.579 
  665.063,685.461 675.293,686.803 685.523,688.622 695.754,690.915 705.984,693.704 716.214,696.996 726.445,700.801 736.675,705.142 746.905,710.027 757.135,715.462 
  767.366,721.442 777.596,727.96 787.826,735.009 798.057,742.572 808.287,750.648 818.517,759.21 828.748,768.226 838.978,777.666 849.208,787.518 859.438,797.757 
  869.669,808.39 879.899,819.438 890.129,830.928 900.36,842.852 910.59,855.163 920.82,867.828 931.051,880.774 941.281,893.962 951.511,907.366 961.742,920.962 
  971.972,934.727 982.202,948.627 992.432,962.649 1002.66,976.779 1012.89,991.001 1023.12,1005.27 1033.35,1019.51 1043.58,1033.61 1053.81,1047.5 1064.04,1061.13 
  1074.27,1074.45 1084.51,1087.41 1094.74,1099.98 1104.97,1112.01 1115.2,1123.41 1125.43,1134.08 1135.66,1143.94 1145.89,1152.93 1156.12,1160.97 1166.35,1168.05 
  1176.58,1174.1 1186.81,1179.12 1197.04,1183.14 1207.27,1186.23 1217.5,1188.44 1227.73,1189.8 1237.96,1190.26 1248.19,1189.85 1258.42,1188.56 1268.65,1186.42 
  1278.88,1183.43 1289.11,1179.58 1299.34,1174.83 1309.57,1169.2 1319.8,1162.7 1330.03,1155.32 1340.26,1147.04 1350.49,1137.87 1360.72,1127.75 1370.95,1116.6 
  1381.18,1104.4 1391.41,1091.13 1401.64,1076.77 1411.87,1061.28 1422.11,1044.6 1432.34,1026.74 1442.57,1007.77 1452.8,987.785 1463.03,966.818 1473.26,944.927 
  1483.49,922.14 1493.72,898.522 1503.95,874.153 1514.18,849.174 1524.41,823.683 1534.64,797.756 1544.87,771.478 1555.1,744.891 1565.33,718.073 1575.56,691.108 
  1585.79,664.102 1596.02,637.132 1606.25,610.324 1616.48,583.738 1626.71,557.414 1636.94,531.476 1647.17,506.027 1657.4,481.134 1667.63,456.82 1677.86,433.119 
  1688.09,410.104 1698.32,387.823 1708.55,366.321 1718.78,345.676 1729.01,326.003 1739.24,307.334 1749.47,289.632 1759.71,272.88 1769.94,257.113 1780.17,242.353 
  1790.4,228.659 1800.63,216.165 1810.86,205.013 1821.09,195.267 1831.32,186.968 1841.55,180.141 1851.78,174.808 1862.01,171.111 1872.24,169.222 1882.47,169.192 
  1892.7,171.072 1902.93,174.952 1913.16,180.881 1923.39,188.883 1933.62,198.934 1943.85,210.961 1954.08,224.959 1964.31,240.988 1974.54,259.022 1984.77,278.972 
  1995,300.695 2005.23,323.976 2015.46,348.609 2025.69,374.459 2035.92,401.382 2046.15,429.159 2056.38,457.62 2066.61,486.61 2076.84,515.979 2087.07,545.549 
  2097.31,575.118 2107.54,604.511 2117.77,633.578 2128,662.137 2138.23,690.051 2148.46,717.211 2158.69,743.553 2168.92,769.048 2179.15,793.652 2189.38,817.358 
  2199.61,840.142 2209.84,861.981 2220.07,882.885 2230.3,902.887 2240.53,922.053 2250.76,940.417 2260.99,957.997 2271.22,974.852 2281.45,991.038 2291.68,1006.61 
  
  "/>
<polyline clip-path="url(#clip792)" style="stroke:#0000ff; stroke-linecap:round; stroke-linejoin:round; stroke-width:12; stroke-opacity:1; fill:none" points="
  255.851,801.496 266.081,801.918 276.311,801.734 286.542,801.152 296.772,800.314 307.002,799.297 317.232,798.1 327.463,796.425 337.693,794.218 347.923,791.442 
  358.154,788.138 368.384,784.33 378.614,780.096 388.845,775.392 399.075,770.21 409.305,764.415 419.535,758.204 429.766,751.917 439.996,745.665 450.226,739.478 
  460.457,733.411 470.687,727.548 480.917,721.755 491.148,715.995 501.378,710.718 511.608,706.149 521.838,702.168 532.069,698.498 542.299,694.862 552.529,691.218 
  562.76,687.651 572.99,684.253 583.22,681.181 593.451,678.422 603.681,675.917 613.911,673.556 624.142,671.338 634.372,669.183 644.602,667.283 654.832,665.636 
  665.063,664.179 675.293,662.995 685.523,662.357 695.754,662.44 705.984,662.885 716.214,663.726 726.445,665.376 736.675,668.1 746.905,671.882 757.135,676.729 
  767.366,682.512 777.596,689.343 787.826,697.423 798.057,706.72 808.287,716.826 818.517,727.428 828.748,738.268 838.978,749.136 849.208,759.713 859.438,770.246 
  869.669,781.052 879.899,792.411 890.129,804.336 900.36,816.87 910.59,830.218 920.82,844.216 931.051,859.066 941.281,874.879 951.511,891.694 961.742,909.492 
  971.972,927.955 982.202,946.809 992.432,965.548 1002.66,983.865 1012.89,1001.88 1023.12,1019.65 1033.35,1036.98 1043.58,1053.79 1053.81,1070.3 1064.04,1086.35 
  1074.27,1101.81 1084.51,1116.45 1094.74,1130.05 1104.97,1142.24 1115.2,1152.75 1125.43,1162.04 1135.66,1170.27 1145.89,1177.57 1156.12,1184.14 1166.35,1190.16 
  1176.58,1196.07 1186.81,1202.01 1197.04,1207.9 1207.27,1213.79 1217.5,1219.39 1227.73,1224.19 1237.96,1227.98 1248.19,1230.63 1258.42,1231.85 1268.65,1231.71 
  1278.88,1230.52 1289.11,1228.61 1299.34,1226.22 1309.57,1223.06 1319.8,1218.9 1330.03,1213.25 1340.26,1205.75 1350.49,1196.12 1360.72,1184.46 1370.95,1170.74 
  1381.18,1155.22 1391.41,1137.94 1401.64,1119.04 1411.87,1098.51 1422.11,1076.65 1432.34,1054.13 1442.57,1031.3 1452.8,1008.2 1463.03,984.666 1473.26,960.622 
  1483.49,936.077 1493.72,910.774 1503.95,884.591 1514.18,857.748 1524.41,830.28 1534.64,802.151 1544.87,773.327 1555.1,743.917 1565.33,714.088 1575.56,684.081 
  1585.79,653.751 1596.02,623.199 1606.25,592.687 1616.48,562.623 1626.71,533.312 1636.94,505.199 1647.17,478.34 1657.4,452.604 1667.63,427.956 1677.86,404.341 
  1688.09,381.701 1698.32,359.818 1708.55,338.658 1718.78,318.253 1729.01,298.562 1739.24,279.414 1749.47,260.903 1759.71,243.155 1769.94,225.95 1780.17,210.212 
  1790.4,196.161 1800.63,183.64 1810.86,172.744 1821.09,163.117 1831.32,154.642 1841.55,147.531 1851.78,141.711 1862.01,136.738 1872.24,132.54 1882.47,129.33 
  1892.7,127.477 1902.93,127.294 1913.16,129.133 1923.39,133.079 1933.62,138.765 1943.85,146.752 1954.08,157.493 1964.31,170.96 1974.54,187.274 1984.77,205.975 
  1995,226.765 2005.23,249.167 2015.46,272.862 2025.69,298.166 2035.92,324.886 2046.15,352.693 2056.38,381.799 2066.61,412.675 2076.84,445.422 2087.07,480.295 
  2097.31,517.467 2107.54,556.918 2117.77,598.212 2128,640.919 2138.23,684.614 2148.46,728.929 2158.69,773.111 2168.92,816.626 2179.15,858.748 2189.38,898.81 
  2199.61,936.59 2209.84,972.171 2220.07,1005.06 2230.3,1034.93 2240.53,1061.6 2250.76,1085.03 2260.99,1105.16 2271.22,1122.15 2281.45,1135.65 2291.68,1145.44 
  
  "/>
</svg>
