<?xml version="1.0" encoding="utf-8"?>
<svg xmlns="http://www.w3.org/2000/svg" xmlns:xlink="http://www.w3.org/1999/xlink" width="600" height="400" viewBox="0 0 2400 1600">
<defs>
  <clipPath id="clip390">
    <rect x="0" y="0" width="2400" height="1600"/>
  </clipPath>
</defs>
<path clip-path="url(#clip390)" d="
M0 1600 L2400 1600 L2400 0 L0 0  Z
  " fill="#ffffff" fill-rule="evenodd" fill-opacity="1"/>
<defs>
  <clipPath id="clip391">
    <rect x="480" y="0" width="1681" height="1600"/>
  </clipPath>
</defs>
<defs>
  <clipPath id="clip392">
    <rect x="156" y="47" width="2197" height="1440"/>
  </clipPath>
</defs>
<path clip-path="url(#clip390)" d="
M156.598 1486.45 L2352.76 1486.45 L2352.76 47.2441 L156.598 47.2441  Z
  " fill="#ffffff" fill-rule="evenodd" fill-opacity="1"/>
<polyline clip-path="url(#clip392)" style="stroke:#000000; stroke-linecap:round; stroke-linejoin:round; stroke-width:2; stroke-opacity:0.1; fill:none" points="
  156.598,1486.45 156.598,47.2441 
  "/>
<polyline clip-path="url(#clip392)" style="stroke:#000000; stroke-linecap:round; stroke-linejoin:round; stroke-width:2; stroke-opacity:0.1; fill:none" points="
  595.83,1486.45 595.83,47.2441 
  "/>
<polyline clip-path="url(#clip392)" style="stroke:#000000; stroke-linecap:round; stroke-linejoin:round; stroke-width:2; stroke-opacity:0.1; fill:none" points="
  1035.06,1486.45 1035.06,47.2441 
  "/>
<polyline clip-path="url(#clip392)" style="stroke:#000000; stroke-linecap:round; stroke-linejoin:round; stroke-width:2; stroke-opacity:0.1; fill:none" points="
  1474.29,1486.45 1474.29,47.2441 
  "/>
<polyline clip-path="url(#clip392)" style="stroke:#000000; stroke-linecap:round; stroke-linejoin:round; stroke-width:2; stroke-opacity:0.1; fill:none" points="
  1913.52,1486.45 1913.52,47.2441 
  "/>
<polyline clip-path="url(#clip392)" style="stroke:#000000; stroke-linecap:round; stroke-linejoin:round; stroke-width:2; stroke-opacity:0.1; fill:none" points="
  2352.76,1486.45 2352.76,47.2441 
  "/>
<polyline clip-path="url(#clip390)" style="stroke:#000000; stroke-linecap:round; stroke-linejoin:round; stroke-width:4; stroke-opacity:1; fill:none" points="
  156.598,1486.45 2352.76,1486.45 
  "/>
<polyline clip-path="url(#clip390)" style="stroke:#000000; stroke-linecap:round; stroke-linejoin:round; stroke-width:4; stroke-opacity:1; fill:none" points="
  156.598,1486.45 156.598,1467.55 
  "/>
<polyline clip-path="url(#clip390)" style="stroke:#000000; stroke-linecap:round; stroke-linejoin:round; stroke-width:4; stroke-opacity:1; fill:none" points="
  595.83,1486.45 595.83,1467.55 
  "/>
<polyline clip-path="url(#clip390)" style="stroke:#000000; stroke-linecap:round; stroke-linejoin:round; stroke-width:4; stroke-opacity:1; fill:none" points="
  1035.06,1486.45 1035.06,1467.55 
  "/>
<polyline clip-path="url(#clip390)" style="stroke:#000000; stroke-linecap:round; stroke-linejoin:round; stroke-width:4; stroke-opacity:1; fill:none" points="
  1474.29,1486.45 1474.29,1467.55 
  "/>
<polyline clip-path="url(#clip390)" style="stroke:#000000; stroke-linecap:round; stroke-linejoin:round; stroke-width:4; stroke-opacity:1; fill:none" points="
  1913.52,1486.45 1913.52,1467.55 
  "/>
<polyline clip-path="url(#clip390)" style="stroke:#000000; stroke-linecap:round; stroke-linejoin:round; stroke-width:4; stroke-opacity:1; fill:none" points="
  2352.76,1486.45 2352.76,1467.55 
  "/>
<path clip-path="url(#clip390)" d="M133.983 1517.37 Q130.372 1517.37 128.543 1520.93 Q126.737 1524.47 126.737 1531.6 Q126.737 1538.71 128.543 1542.27 Q130.372 1545.82 133.983 1545.82 Q137.617 1545.82 139.422 1542.27 Q141.251 1538.71 141.251 1531.6 Q141.251 1524.47 139.422 1520.93 Q137.617 1517.37 133.983 1517.37 M133.983 1513.66 Q139.793 1513.66 142.848 1518.27 Q145.927 1522.85 145.927 1531.6 Q145.927 1540.33 142.848 1544.94 Q139.793 1549.52 133.983 1549.52 Q128.172 1549.52 125.094 1544.94 Q122.038 1540.33 122.038 1531.6 Q122.038 1522.85 125.094 1518.27 Q128.172 1513.66 133.983 1513.66 Z" fill="#000000" fill-rule="evenodd" fill-opacity="1" /><path clip-path="url(#clip390)" d="M154.145 1542.97 L159.029 1542.97 L159.029 1548.85 L154.145 1548.85 L154.145 1542.97 Z" fill="#000000" fill-rule="evenodd" fill-opacity="1" /><path clip-path="url(#clip390)" d="M179.214 1517.37 Q175.603 1517.37 173.774 1520.93 Q171.969 1524.47 171.969 1531.6 Q171.969 1538.71 173.774 1542.27 Q175.603 1545.82 179.214 1545.82 Q182.848 1545.82 184.654 1542.27 Q186.482 1538.71 186.482 1531.6 Q186.482 1524.47 184.654 1520.93 Q182.848 1517.37 179.214 1517.37 M179.214 1513.66 Q185.024 1513.66 188.08 1518.27 Q191.158 1522.85 191.158 1531.6 Q191.158 1540.33 188.08 1544.94 Q185.024 1549.52 179.214 1549.52 Q173.404 1549.52 170.325 1544.94 Q167.269 1540.33 167.269 1531.6 Q167.269 1522.85 170.325 1518.27 Q173.404 1513.66 179.214 1513.66 Z" fill="#000000" fill-rule="evenodd" fill-opacity="1" /><path clip-path="url(#clip390)" d="M574.013 1517.37 Q570.402 1517.37 568.573 1520.93 Q566.767 1524.47 566.767 1531.6 Q566.767 1538.71 568.573 1542.27 Q570.402 1545.82 574.013 1545.82 Q577.647 1545.82 579.453 1542.27 Q581.281 1538.71 581.281 1531.6 Q581.281 1524.47 579.453 1520.93 Q577.647 1517.37 574.013 1517.37 M574.013 1513.66 Q579.823 1513.66 582.878 1518.27 Q585.957 1522.85 585.957 1531.6 Q585.957 1540.33 582.878 1544.94 Q579.823 1549.52 574.013 1549.52 Q568.203 1549.52 565.124 1544.94 Q562.068 1540.33 562.068 1531.6 Q562.068 1522.85 565.124 1518.27 Q568.203 1513.66 574.013 1513.66 Z" fill="#000000" fill-rule="evenodd" fill-opacity="1" /><path clip-path="url(#clip390)" d="M594.175 1542.97 L599.059 1542.97 L599.059 1548.85 L594.175 1548.85 L594.175 1542.97 Z" fill="#000000" fill-rule="evenodd" fill-opacity="1" /><path clip-path="url(#clip390)" d="M613.272 1544.91 L629.591 1544.91 L629.591 1548.85 L607.647 1548.85 L607.647 1544.91 Q610.309 1542.16 614.892 1537.53 Q619.499 1532.88 620.679 1531.53 Q622.925 1529.01 623.804 1527.27 Q624.707 1525.51 624.707 1523.82 Q624.707 1521.07 622.762 1519.33 Q620.841 1517.6 617.739 1517.6 Q615.54 1517.6 613.087 1518.36 Q610.656 1519.13 607.878 1520.68 L607.878 1515.95 Q610.702 1514.82 613.156 1514.24 Q615.61 1513.66 617.647 1513.66 Q623.017 1513.66 626.212 1516.35 Q629.406 1519.03 629.406 1523.52 Q629.406 1525.65 628.596 1527.57 Q627.809 1529.47 625.702 1532.07 Q625.124 1532.74 622.022 1535.95 Q618.92 1539.15 613.272 1544.91 Z" fill="#000000" fill-rule="evenodd" fill-opacity="1" /><path clip-path="url(#clip390)" d="M1012.2 1517.37 Q1008.59 1517.37 1006.76 1520.93 Q1004.96 1524.47 1004.96 1531.6 Q1004.96 1538.71 1006.76 1542.27 Q1008.59 1545.82 1012.2 1545.82 Q1015.84 1545.82 1017.64 1542.27 Q1019.47 1538.71 1019.47 1531.6 Q1019.47 1524.47 1017.64 1520.93 Q1015.84 1517.37 1012.2 1517.37 M1012.2 1513.66 Q1018.01 1513.66 1021.07 1518.27 Q1024.15 1522.85 1024.15 1531.6 Q1024.15 1540.33 1021.07 1544.94 Q1018.01 1549.52 1012.2 1549.52 Q1006.39 1549.52 1003.31 1544.94 Q1000.26 1540.33 1000.26 1531.6 Q1000.26 1522.85 1003.31 1518.27 Q1006.39 1513.66 1012.2 1513.66 Z" fill="#000000" fill-rule="evenodd" fill-opacity="1" /><path clip-path="url(#clip390)" d="M1032.36 1542.97 L1037.25 1542.97 L1037.25 1548.85 L1032.36 1548.85 L1032.36 1542.97 Z" fill="#000000" fill-rule="evenodd" fill-opacity="1" /><path clip-path="url(#clip390)" d="M1060.28 1518.36 L1048.48 1536.81 L1060.28 1536.81 L1060.28 1518.36 M1059.05 1514.29 L1064.93 1514.29 L1064.93 1536.81 L1069.86 1536.81 L1069.86 1540.7 L1064.93 1540.7 L1064.93 1548.85 L1060.28 1548.85 L1060.28 1540.7 L1044.68 1540.7 L1044.68 1536.19 L1059.05 1514.29 Z" fill="#000000" fill-rule="evenodd" fill-opacity="1" /><path clip-path="url(#clip390)" d="M1451.6 1517.37 Q1447.99 1517.37 1446.16 1520.93 Q1444.35 1524.47 1444.35 1531.6 Q1444.35 1538.71 1446.16 1542.27 Q1447.99 1545.82 1451.6 1545.82 Q1455.23 1545.82 1457.04 1542.27 Q1458.86 1538.71 1458.86 1531.6 Q1458.86 1524.47 1457.04 1520.93 Q1455.23 1517.37 1451.6 1517.37 M1451.6 1513.66 Q1457.41 1513.66 1460.46 1518.27 Q1463.54 1522.85 1463.54 1531.6 Q1463.54 1540.33 1460.46 1544.94 Q1457.41 1549.52 1451.6 1549.52 Q1445.79 1549.52 1442.71 1544.94 Q1439.65 1540.33 1439.65 1531.6 Q1439.65 1522.85 1442.71 1518.27 Q1445.79 1513.66 1451.6 1513.66 Z" fill="#000000" fill-rule="evenodd" fill-opacity="1" /><path clip-path="url(#clip390)" d="M1471.76 1542.97 L1476.64 1542.97 L1476.64 1548.85 L1471.76 1548.85 L1471.76 1542.97 Z" fill="#000000" fill-rule="evenodd" fill-opacity="1" /><path clip-path="url(#clip390)" d="M1497.41 1529.7 Q1494.26 1529.7 1492.41 1531.86 Q1490.58 1534.01 1490.58 1537.76 Q1490.58 1541.49 1492.41 1543.66 Q1494.26 1545.82 1497.41 1545.82 Q1500.55 1545.82 1502.38 1543.66 Q1504.23 1541.49 1504.23 1537.76 Q1504.23 1534.01 1502.38 1531.86 Q1500.55 1529.7 1497.41 1529.7 M1506.69 1515.05 L1506.69 1519.31 Q1504.93 1518.48 1503.12 1518.04 Q1501.34 1517.6 1499.58 1517.6 Q1494.95 1517.6 1492.5 1520.72 Q1490.07 1523.85 1489.72 1530.17 Q1491.09 1528.15 1493.15 1527.09 Q1495.21 1526 1497.68 1526 Q1502.89 1526 1505.9 1529.17 Q1508.93 1532.32 1508.93 1537.76 Q1508.93 1543.08 1505.79 1546.3 Q1502.64 1549.52 1497.41 1549.52 Q1491.41 1549.52 1488.24 1544.94 Q1485.07 1540.33 1485.07 1531.6 Q1485.07 1523.41 1488.96 1518.55 Q1492.85 1513.66 1499.4 1513.66 Q1501.16 1513.66 1502.94 1514.01 Q1504.74 1514.36 1506.69 1515.05 Z" fill="#000000" fill-rule="evenodd" fill-opacity="1" /><path clip-path="url(#clip390)" d="M1890.96 1517.37 Q1887.34 1517.37 1885.52 1520.93 Q1883.71 1524.47 1883.71 1531.6 Q1883.71 1538.71 1885.52 1542.27 Q1887.34 1545.82 1890.96 1545.82 Q1894.59 1545.82 1896.39 1542.27 Q1898.22 1538.71 1898.22 1531.6 Q1898.22 1524.47 1896.39 1520.93 Q1894.59 1517.37 1890.96 1517.37 M1890.96 1513.66 Q1896.77 1513.66 1899.82 1518.27 Q1902.9 1522.85 1902.9 1531.6 Q1902.9 1540.33 1899.82 1544.94 Q1896.77 1549.52 1890.96 1549.52 Q1885.14 1549.52 1882.07 1544.94 Q1879.01 1540.33 1879.01 1531.6 Q1879.01 1522.85 1882.07 1518.27 Q1885.14 1513.66 1890.96 1513.66 Z" fill="#000000" fill-rule="evenodd" fill-opacity="1" /><path clip-path="url(#clip390)" d="M1911.12 1542.97 L1916 1542.97 L1916 1548.85 L1911.12 1548.85 L1911.12 1542.97 Z" fill="#000000" fill-rule="evenodd" fill-opacity="1" /><path clip-path="url(#clip390)" d="M1936.19 1532.44 Q1932.85 1532.44 1930.93 1534.22 Q1929.03 1536 1929.03 1539.13 Q1929.03 1542.25 1930.93 1544.03 Q1932.85 1545.82 1936.19 1545.82 Q1939.52 1545.82 1941.44 1544.03 Q1943.36 1542.23 1943.36 1539.13 Q1943.36 1536 1941.44 1534.22 Q1939.54 1532.44 1936.19 1532.44 M1931.51 1530.45 Q1928.5 1529.7 1926.81 1527.64 Q1925.14 1525.58 1925.14 1522.62 Q1925.14 1518.48 1928.08 1516.07 Q1931.05 1513.66 1936.19 1513.66 Q1941.35 1513.66 1944.29 1516.07 Q1947.23 1518.48 1947.23 1522.62 Q1947.23 1525.58 1945.54 1527.64 Q1943.87 1529.7 1940.89 1530.45 Q1944.26 1531.23 1946.14 1533.52 Q1948.04 1535.82 1948.04 1539.13 Q1948.04 1544.15 1944.96 1546.83 Q1941.9 1549.52 1936.19 1549.52 Q1930.47 1549.52 1927.39 1546.83 Q1924.33 1544.15 1924.33 1539.13 Q1924.33 1535.82 1926.23 1533.52 Q1928.13 1531.23 1931.51 1530.45 M1929.8 1523.06 Q1929.8 1525.75 1931.46 1527.25 Q1933.15 1528.76 1936.19 1528.76 Q1939.2 1528.76 1940.89 1527.25 Q1942.6 1525.75 1942.6 1523.06 Q1942.6 1520.38 1940.89 1518.87 Q1939.2 1517.37 1936.19 1517.37 Q1933.15 1517.37 1931.46 1518.87 Q1929.8 1520.38 1929.8 1523.06 Z" fill="#000000" fill-rule="evenodd" fill-opacity="1" /><path clip-path="url(#clip390)" d="M2319.91 1544.91 L2327.55 1544.91 L2327.55 1518.55 L2319.24 1520.21 L2319.24 1515.95 L2327.5 1514.29 L2332.18 1514.29 L2332.18 1544.91 L2339.82 1544.91 L2339.82 1548.85 L2319.91 1548.85 L2319.91 1544.91 Z" fill="#000000" fill-rule="evenodd" fill-opacity="1" /><path clip-path="url(#clip390)" d="M2349.26 1542.97 L2354.14 1542.97 L2354.14 1548.85 L2349.26 1548.85 L2349.26 1542.97 Z" fill="#000000" fill-rule="evenodd" fill-opacity="1" /><path clip-path="url(#clip390)" d="M2374.33 1517.37 Q2370.72 1517.37 2368.89 1520.93 Q2367.08 1524.47 2367.08 1531.6 Q2367.08 1538.71 2368.89 1542.27 Q2370.72 1545.82 2374.33 1545.82 Q2377.96 1545.82 2379.77 1542.27 Q2381.6 1538.71 2381.6 1531.6 Q2381.6 1524.47 2379.77 1520.93 Q2377.96 1517.37 2374.33 1517.37 M2374.33 1513.66 Q2380.14 1513.66 2383.2 1518.27 Q2386.27 1522.85 2386.27 1531.6 Q2386.27 1540.33 2383.2 1544.94 Q2380.14 1549.52 2374.33 1549.52 Q2368.52 1549.52 2365.44 1544.94 Q2362.39 1540.33 2362.39 1531.6 Q2362.39 1522.85 2365.44 1518.27 Q2368.52 1513.66 2374.33 1513.66 Z" fill="#000000" fill-rule="evenodd" fill-opacity="1" /><polyline clip-path="url(#clip392)" style="stroke:#000000; stroke-linecap:round; stroke-linejoin:round; stroke-width:2; stroke-opacity:0.1; fill:none" points="
  156.598,1486.45 2352.76,1486.45 
  "/>
<polyline clip-path="url(#clip392)" style="stroke:#000000; stroke-linecap:round; stroke-linejoin:round; stroke-width:2; stroke-opacity:0.1; fill:none" points="
  156.598,1198.61 2352.76,1198.61 
  "/>
<polyline clip-path="url(#clip392)" style="stroke:#000000; stroke-linecap:round; stroke-linejoin:round; stroke-width:2; stroke-opacity:0.1; fill:none" points="
  156.598,910.766 2352.76,910.766 
  "/>
<polyline clip-path="url(#clip392)" style="stroke:#000000; stroke-linecap:round; stroke-linejoin:round; stroke-width:2; stroke-opacity:0.1; fill:none" points="
  156.598,622.926 2352.76,622.926 
  "/>
<polyline clip-path="url(#clip392)" style="stroke:#000000; stroke-linecap:round; stroke-linejoin:round; stroke-width:2; stroke-opacity:0.1; fill:none" points="
  156.598,335.085 2352.76,335.085 
  "/>
<polyline clip-path="url(#clip392)" style="stroke:#000000; stroke-linecap:round; stroke-linejoin:round; stroke-width:2; stroke-opacity:0.1; fill:none" points="
  156.598,47.2441 2352.76,47.2441 
  "/>
<polyline clip-path="url(#clip390)" style="stroke:#000000; stroke-linecap:round; stroke-linejoin:round; stroke-width:4; stroke-opacity:1; fill:none" points="
  156.598,1486.45 156.598,47.2441 
  "/>
<polyline clip-path="url(#clip390)" style="stroke:#000000; stroke-linecap:round; stroke-linejoin:round; stroke-width:4; stroke-opacity:1; fill:none" points="
  156.598,1486.45 175.496,1486.45 
  "/>
<polyline clip-path="url(#clip390)" style="stroke:#000000; stroke-linecap:round; stroke-linejoin:round; stroke-width:4; stroke-opacity:1; fill:none" points="
  156.598,1198.61 175.496,1198.61 
  "/>
<polyline clip-path="url(#clip390)" style="stroke:#000000; stroke-linecap:round; stroke-linejoin:round; stroke-width:4; stroke-opacity:1; fill:none" points="
  156.598,910.766 175.496,910.766 
  "/>
<polyline clip-path="url(#clip390)" style="stroke:#000000; stroke-linecap:round; stroke-linejoin:round; stroke-width:4; stroke-opacity:1; fill:none" points="
  156.598,622.926 175.496,622.926 
  "/>
<polyline clip-path="url(#clip390)" style="stroke:#000000; stroke-linecap:round; stroke-linejoin:round; stroke-width:4; stroke-opacity:1; fill:none" points="
  156.598,335.085 175.496,335.085 
  "/>
<polyline clip-path="url(#clip390)" style="stroke:#000000; stroke-linecap:round; stroke-linejoin:round; stroke-width:4; stroke-opacity:1; fill:none" points="
  156.598,47.2441 175.496,47.2441 
  "/>
<path clip-path="url(#clip390)" d="M63.4226 1472.25 Q59.8115 1472.25 57.9828 1475.81 Q56.1773 1479.35 56.1773 1486.48 Q56.1773 1493.59 57.9828 1497.15 Q59.8115 1500.7 63.4226 1500.7 Q67.0569 1500.7 68.8624 1497.15 Q70.6911 1493.59 70.6911 1486.48 Q70.6911 1479.35 68.8624 1475.81 Q67.0569 1472.25 63.4226 1472.25 M63.4226 1468.54 Q69.2328 1468.54 72.2883 1473.15 Q75.367 1477.73 75.367 1486.48 Q75.367 1495.21 72.2883 1499.82 Q69.2328 1504.4 63.4226 1504.4 Q57.6125 1504.4 54.5338 1499.82 Q51.4782 1495.21 51.4782 1486.48 Q51.4782 1477.73 54.5338 1473.15 Q57.6125 1468.54 63.4226 1468.54 Z" fill="#000000" fill-rule="evenodd" fill-opacity="1" /><path clip-path="url(#clip390)" d="M83.5845 1497.85 L88.4688 1497.85 L88.4688 1503.73 L83.5845 1503.73 L83.5845 1497.85 Z" fill="#000000" fill-rule="evenodd" fill-opacity="1" /><path clip-path="url(#clip390)" d="M108.654 1472.25 Q105.043 1472.25 103.214 1475.81 Q101.409 1479.35 101.409 1486.48 Q101.409 1493.59 103.214 1497.15 Q105.043 1500.7 108.654 1500.7 Q112.288 1500.7 114.094 1497.15 Q115.922 1493.59 115.922 1486.48 Q115.922 1479.35 114.094 1475.81 Q112.288 1472.25 108.654 1472.25 M108.654 1468.54 Q114.464 1468.54 117.52 1473.15 Q120.598 1477.73 120.598 1486.48 Q120.598 1495.21 117.52 1499.82 Q114.464 1504.4 108.654 1504.4 Q102.844 1504.4 99.765 1499.82 Q96.7095 1495.21 96.7095 1486.48 Q96.7095 1477.73 99.765 1473.15 Q102.844 1468.54 108.654 1468.54 Z" fill="#000000" fill-rule="evenodd" fill-opacity="1" /><path clip-path="url(#clip390)" d="M65.0198 1184.41 Q61.4087 1184.41 59.58 1187.97 Q57.7745 1191.51 57.7745 1198.64 Q57.7745 1205.75 59.58 1209.31 Q61.4087 1212.85 65.0198 1212.85 Q68.6541 1212.85 70.4596 1209.31 Q72.2883 1205.75 72.2883 1198.64 Q72.2883 1191.51 70.4596 1187.97 Q68.6541 1184.41 65.0198 1184.41 M65.0198 1180.7 Q70.83 1180.7 73.8855 1185.31 Q76.9642 1189.89 76.9642 1198.64 Q76.9642 1207.37 73.8855 1211.98 Q70.83 1216.56 65.0198 1216.56 Q59.2097 1216.56 56.131 1211.98 Q53.0754 1207.37 53.0754 1198.64 Q53.0754 1189.89 56.131 1185.31 Q59.2097 1180.7 65.0198 1180.7 Z" fill="#000000" fill-rule="evenodd" fill-opacity="1" /><path clip-path="url(#clip390)" d="M85.1818 1210.01 L90.066 1210.01 L90.066 1215.89 L85.1818 1215.89 L85.1818 1210.01 Z" fill="#000000" fill-rule="evenodd" fill-opacity="1" /><path clip-path="url(#clip390)" d="M104.279 1211.95 L120.598 1211.95 L120.598 1215.89 L98.6539 1215.89 L98.6539 1211.95 Q101.316 1209.2 105.899 1204.57 Q110.506 1199.91 111.686 1198.57 Q113.932 1196.05 114.811 1194.31 Q115.714 1192.55 115.714 1190.86 Q115.714 1188.11 113.77 1186.37 Q111.848 1184.64 108.746 1184.64 Q106.547 1184.64 104.094 1185.4 Q101.663 1186.17 98.8854 1187.72 L98.8854 1182.99 Q101.709 1181.86 104.163 1181.28 Q106.617 1180.7 108.654 1180.7 Q114.024 1180.7 117.219 1183.39 Q120.413 1186.07 120.413 1190.56 Q120.413 1192.69 119.603 1194.61 Q118.816 1196.51 116.709 1199.1 Q116.131 1199.78 113.029 1202.99 Q109.927 1206.19 104.279 1211.95 Z" fill="#000000" fill-rule="evenodd" fill-opacity="1" /><path clip-path="url(#clip390)" d="M62.9365 896.565 Q59.3254 896.565 57.4967 900.13 Q55.6912 903.671 55.6912 910.801 Q55.6912 917.908 57.4967 921.472 Q59.3254 925.014 62.9365 925.014 Q66.5707 925.014 68.3763 921.472 Q70.205 917.908 70.205 910.801 Q70.205 903.671 68.3763 900.13 Q66.5707 896.565 62.9365 896.565 M62.9365 892.861 Q68.7467 892.861 71.8022 897.468 Q74.8809 902.051 74.8809 910.801 Q74.8809 919.528 71.8022 924.134 Q68.7467 928.718 62.9365 928.718 Q57.1264 928.718 54.0477 924.134 Q50.9921 919.528 50.9921 910.801 Q50.9921 902.051 54.0477 897.468 Q57.1264 892.861 62.9365 892.861 Z" fill="#000000" fill-rule="evenodd" fill-opacity="1" /><path clip-path="url(#clip390)" d="M83.0984 922.167 L87.9827 922.167 L87.9827 928.046 L83.0984 928.046 L83.0984 922.167 Z" fill="#000000" fill-rule="evenodd" fill-opacity="1" /><path clip-path="url(#clip390)" d="M111.015 897.56 L99.2095 916.009 L111.015 916.009 L111.015 897.56 M109.788 893.486 L115.668 893.486 L115.668 916.009 L120.598 916.009 L120.598 919.898 L115.668 919.898 L115.668 928.046 L111.015 928.046 L111.015 919.898 L95.4132 919.898 L95.4132 915.384 L109.788 893.486 Z" fill="#000000" fill-rule="evenodd" fill-opacity="1" /><path clip-path="url(#clip390)" d="M63.2606 608.724 Q59.6495 608.724 57.8208 612.289 Q56.0152 615.831 56.0152 622.96 Q56.0152 630.067 57.8208 633.632 Q59.6495 637.173 63.2606 637.173 Q66.8948 637.173 68.7004 633.632 Q70.5291 630.067 70.5291 622.96 Q70.5291 615.831 68.7004 612.289 Q66.8948 608.724 63.2606 608.724 M63.2606 605.021 Q69.0707 605.021 72.1263 609.627 Q75.205 614.21 75.205 622.96 Q75.205 631.687 72.1263 636.294 Q69.0707 640.877 63.2606 640.877 Q57.4504 640.877 54.3717 636.294 Q51.3162 631.687 51.3162 622.96 Q51.3162 614.21 54.3717 609.627 Q57.4504 605.021 63.2606 605.021 Z" fill="#000000" fill-rule="evenodd" fill-opacity="1" /><path clip-path="url(#clip390)" d="M83.4225 634.326 L88.3067 634.326 L88.3067 640.206 L83.4225 640.206 L83.4225 634.326 Z" fill="#000000" fill-rule="evenodd" fill-opacity="1" /><path clip-path="url(#clip390)" d="M109.071 621.062 Q105.922 621.062 104.071 623.215 Q102.242 625.368 102.242 629.118 Q102.242 632.845 104.071 635.02 Q105.922 637.173 109.071 637.173 Q112.219 637.173 114.047 635.02 Q115.899 632.845 115.899 629.118 Q115.899 625.368 114.047 623.215 Q112.219 621.062 109.071 621.062 M118.353 606.409 L118.353 610.669 Q116.594 609.835 114.788 609.396 Q113.006 608.956 111.246 608.956 Q106.617 608.956 104.163 612.081 Q101.733 615.206 101.385 621.525 Q102.751 619.511 104.811 618.446 Q106.871 617.359 109.348 617.359 Q114.557 617.359 117.566 620.53 Q120.598 623.678 120.598 629.118 Q120.598 634.442 117.45 637.659 Q114.302 640.877 109.071 640.877 Q103.075 640.877 99.9039 636.294 Q96.7326 631.687 96.7326 622.96 Q96.7326 614.766 100.621 609.905 Q104.51 605.021 111.061 605.021 Q112.82 605.021 114.603 605.368 Q116.408 605.715 118.353 606.409 Z" fill="#000000" fill-rule="evenodd" fill-opacity="1" /><path clip-path="url(#clip390)" d="M63.5152 320.884 Q59.9041 320.884 58.0754 324.448 Q56.2699 327.99 56.2699 335.12 Q56.2699 342.226 58.0754 345.791 Q59.9041 349.332 63.5152 349.332 Q67.1494 349.332 68.955 345.791 Q70.7837 342.226 70.7837 335.12 Q70.7837 327.99 68.955 324.448 Q67.1494 320.884 63.5152 320.884 M63.5152 317.18 Q69.3254 317.18 72.3809 321.786 Q75.4596 326.37 75.4596 335.12 Q75.4596 343.846 72.3809 348.453 Q69.3254 353.036 63.5152 353.036 Q57.7051 353.036 54.6264 348.453 Q51.5708 343.846 51.5708 335.12 Q51.5708 326.37 54.6264 321.786 Q57.7051 317.18 63.5152 317.18 Z" fill="#000000" fill-rule="evenodd" fill-opacity="1" /><path clip-path="url(#clip390)" d="M83.6771 346.485 L88.5614 346.485 L88.5614 352.365 L83.6771 352.365 L83.6771 346.485 Z" fill="#000000" fill-rule="evenodd" fill-opacity="1" /><path clip-path="url(#clip390)" d="M108.746 335.953 Q105.413 335.953 103.492 337.735 Q101.594 339.518 101.594 342.643 Q101.594 345.768 103.492 347.55 Q105.413 349.332 108.746 349.332 Q112.08 349.332 114.001 347.55 Q115.922 345.745 115.922 342.643 Q115.922 339.518 114.001 337.735 Q112.103 335.953 108.746 335.953 M104.071 333.962 Q101.061 333.221 99.3715 331.161 Q97.7048 329.101 97.7048 326.138 Q97.7048 321.995 100.645 319.587 Q103.608 317.18 108.746 317.18 Q113.908 317.18 116.848 319.587 Q119.788 321.995 119.788 326.138 Q119.788 329.101 118.098 331.161 Q116.432 333.221 113.445 333.962 Q116.825 334.749 118.7 337.041 Q120.598 339.333 120.598 342.643 Q120.598 347.666 117.52 350.351 Q114.464 353.036 108.746 353.036 Q103.029 353.036 99.9502 350.351 Q96.8947 347.666 96.8947 342.643 Q96.8947 339.333 98.7928 337.041 Q100.691 334.749 104.071 333.962 M102.358 326.578 Q102.358 329.263 104.024 330.768 Q105.714 332.272 108.746 332.272 Q111.756 332.272 113.445 330.768 Q115.158 329.263 115.158 326.578 Q115.158 323.893 113.445 322.388 Q111.756 320.884 108.746 320.884 Q105.714 320.884 104.024 322.388 Q102.358 323.893 102.358 326.578 Z" fill="#000000" fill-rule="evenodd" fill-opacity="1" /><path clip-path="url(#clip390)" d="M54.2328 60.5889 L61.8717 60.5889 L61.8717 34.2233 L53.5616 35.89 L53.5616 31.6308 L61.8254 29.9641 L66.5013 29.9641 L66.5013 60.5889 L74.1402 60.5889 L74.1402 64.5241 L54.2328 64.5241 L54.2328 60.5889 Z" fill="#000000" fill-rule="evenodd" fill-opacity="1" /><path clip-path="url(#clip390)" d="M83.5845 58.6445 L88.4688 58.6445 L88.4688 64.5241 L83.5845 64.5241 L83.5845 58.6445 Z" fill="#000000" fill-rule="evenodd" fill-opacity="1" /><path clip-path="url(#clip390)" d="M108.654 33.0428 Q105.043 33.0428 103.214 36.6076 Q101.409 40.1492 101.409 47.2788 Q101.409 54.3853 103.214 57.9501 Q105.043 61.4917 108.654 61.4917 Q112.288 61.4917 114.094 57.9501 Q115.922 54.3853 115.922 47.2788 Q115.922 40.1492 114.094 36.6076 Q112.288 33.0428 108.654 33.0428 M108.654 29.3391 Q114.464 29.3391 117.52 33.9456 Q120.598 38.5289 120.598 47.2788 Q120.598 56.0056 117.52 60.6121 Q114.464 65.1954 108.654 65.1954 Q102.844 65.1954 99.765 60.6121 Q96.7095 56.0056 96.7095 47.2788 Q96.7095 38.5289 99.765 33.9456 Q102.844 29.3391 108.654 29.3391 Z" fill="#000000" fill-rule="evenodd" fill-opacity="1" /><polyline clip-path="url(#clip392)" style="stroke:#0000ff; stroke-linecap:round; stroke-linejoin:round; stroke-width:12; stroke-opacity:1; fill:none" points="
  4548.91,-1391.96 4548.91,-1391.96 
  "/>
<path clip-path="url(#clip390)" d="
M1509.96 484.018 L2279.55 484.018 L2279.55 95.2176 L1509.96 95.2176  Z
  " fill="#ffffff" fill-rule="evenodd" fill-opacity="1"/>
<polyline clip-path="url(#clip390)" style="stroke:#000000; stroke-linecap:round; stroke-linejoin:round; stroke-width:4; stroke-opacity:1; fill:none" points="
  1509.96,484.018 2279.55,484.018 2279.55,95.2176 1509.96,95.2176 1509.96,484.018 
  "/>
<polyline clip-path="url(#clip390)" style="stroke:#000000; stroke-linecap:round; stroke-linejoin:round; stroke-width:10; stroke-opacity:1; fill:none" points="
  1534.36,224.818 1680.77,224.818 
  "/>
<path clip-path="url(#clip390)" d="M1764.96 178.214 Q1764.96 181.435 1762.91 183.426 Q1760.92 185.417 1758.4 185.417 Q1756.59 185.417 1755.24 184.304 Q1753.95 183.192 1753.95 181.259 Q1753.95 179.268 1755.47 177.16 Q1757 175.052 1760.45 174.759 Q1758.17 172.593 1754.54 172.593 Q1752.72 172.593 1751.2 173.764 Q1749.73 174.877 1748.91 176.692 Q1748.04 178.566 1746.05 189.164 Q1745.4 192.619 1744.82 195.957 Q1744.23 199.294 1743.53 202.808 L1753.48 202.808 Q1754.77 202.808 1755.3 202.866 Q1755.82 202.925 1756.23 203.218 Q1756.7 203.51 1756.7 204.155 Q1756.7 205.794 1755.94 206.204 Q1755.24 206.555 1753.13 206.555 L1742.83 206.555 L1735.62 244.558 Q1735.45 245.671 1734.69 249.184 Q1733.98 252.639 1732.28 258.319 Q1730.59 264.058 1728.89 267.454 Q1727.95 269.386 1726.72 271.201 Q1725.55 273.075 1723.85 274.949 Q1722.15 276.823 1719.93 277.935 Q1717.7 279.106 1715.36 279.106 Q1711.38 279.106 1708.28 276.881 Q1705.17 274.656 1705.17 270.85 Q1705.17 267.629 1707.16 265.639 Q1709.21 263.648 1711.73 263.648 Q1713.55 263.648 1714.84 264.76 Q1716.18 265.873 1716.18 267.805 Q1716.18 268.625 1715.89 269.562 Q1715.6 270.499 1714.95 271.553 Q1714.31 272.665 1712.9 273.426 Q1711.5 274.188 1709.57 274.305 Q1711.85 276.471 1715.36 276.471 Q1716.47 276.471 1717.47 276.003 Q1718.47 275.593 1719.29 274.539 Q1720.16 273.485 1720.81 272.431 Q1721.45 271.436 1722.1 269.503 Q1722.74 267.629 1723.15 266.224 Q1723.56 264.819 1724.09 262.301 Q1724.67 259.783 1724.97 258.26 Q1725.26 256.797 1725.79 253.927 L1734.74 206.555 L1726.84 206.555 Q1725.43 206.555 1724.85 206.497 Q1724.32 206.438 1723.91 206.146 Q1723.5 205.794 1723.5 205.092 Q1723.5 203.979 1723.97 203.51 Q1724.5 202.983 1725.08 202.925 Q1725.67 202.808 1727.07 202.808 L1735.39 202.808 Q1738.2 187.993 1739.31 184.011 Q1740.6 179.795 1742.59 176.867 Q1744.58 173.881 1746.81 172.476 Q1749.03 171.07 1750.85 170.543 Q1752.72 169.958 1754.54 169.958 Q1758.64 169.958 1761.8 172.183 Q1764.96 174.35 1764.96 178.214 Z" fill="#000000" fill-rule="evenodd" fill-opacity="1" /><polyline clip-path="url(#clip390)" style="stroke:#0000ff; stroke-linecap:round; stroke-linejoin:round; stroke-width:10; stroke-opacity:1; fill:none" points="
  1534.36,354.418 1680.77,354.418 
  "/>
<path clip-path="url(#clip390)" d="M1790.31 316.526 L1787.91 337.255 Q1787.74 339.129 1787.44 339.715 Q1787.15 340.242 1786.22 340.242 Q1784.81 340.242 1784.81 338.836 Q1784.81 338.251 1785.04 336.67 Q1785.4 333.449 1785.4 330.17 Q1785.4 326.481 1784.69 324.197 Q1784.05 321.855 1782.17 320.157 Q1780.3 318.459 1776.85 317.756 Q1773.39 316.995 1767.89 316.995 L1752.08 316.995 Q1748.21 316.995 1747.28 317.698 Q1746.4 318.4 1745.58 321.679 L1737.91 352.129 L1748.8 352.129 Q1756.41 352.129 1759.4 349.903 Q1762.38 347.678 1764.26 340.593 Q1764.55 339.48 1764.67 339.071 Q1764.84 338.602 1765.13 338.368 Q1765.49 338.075 1766.07 338.075 Q1766.6 338.075 1766.95 338.426 Q1767.3 338.719 1767.42 339.071 L1767.54 339.422 Q1767.54 340.007 1767.18 341.354 L1760.57 367.353 Q1760.1 369.11 1759.81 369.52 Q1759.57 369.871 1758.75 369.871 Q1758.17 369.871 1757.76 369.461 Q1757.35 369.051 1757.35 368.407 Q1757.46 367.705 1757.7 367.119 Q1758.52 363.547 1758.52 361.263 Q1758.52 359.799 1758.23 358.921 Q1757.93 358.043 1756.94 357.282 Q1755.94 356.52 1753.89 356.169 Q1751.84 355.818 1748.56 355.818 L1736.97 355.818 L1729.53 385.681 L1729.01 388.433 Q1729.01 389.663 1729.65 390.132 Q1730.35 390.6 1732.87 390.834 Q1736.62 391.127 1739.08 391.127 Q1742.12 391.127 1742.47 391.244 Q1743.18 391.595 1743.18 392.532 Q1743.18 393.586 1742.71 394.172 Q1742.24 394.699 1741.83 394.757 Q1741.42 394.816 1740.66 394.816 L1722.8 394.465 L1706.99 394.816 Q1705.17 394.816 1705.17 393.352 Q1705.17 392.24 1705.64 391.771 Q1706.11 391.244 1706.64 391.186 Q1707.16 391.127 1708.51 391.127 Q1711.44 391.127 1713.2 390.951 Q1714.95 390.776 1716.06 390.541 Q1717.24 390.249 1717.82 389.429 Q1718.47 388.609 1718.76 387.906 Q1719.05 387.145 1719.46 385.447 L1735.27 322.031 Q1735.86 319.864 1735.86 319.161 Q1735.86 318.4 1735.33 317.932 Q1734.86 317.463 1733.57 317.288 Q1732.28 317.053 1731.23 317.053 Q1730.24 316.995 1728.07 316.995 Q1726.66 316.995 1726.08 316.936 Q1725.55 316.878 1725.14 316.585 Q1724.73 316.292 1724.73 315.648 Q1724.73 314.009 1725.43 313.657 Q1726.2 313.247 1728.3 313.247 L1787.09 313.247 Q1789.44 313.247 1789.96 313.774 Q1790.55 314.243 1790.31 316.526 Z" fill="#000000" fill-rule="evenodd" fill-opacity="1" /><path clip-path="url(#clip390)" d="M1833.06 333.532 L1845.27 333.532 L1845.27 348.231 L1833.06 348.231 L1833.06 333.532 M1833.06 380.117 L1845.27 380.117 L1845.27 390.071 L1835.78 408.589 L1828.32 408.589 L1833.06 390.071 L1833.06 380.117 Z" fill="#000000" fill-rule="evenodd" fill-opacity="1" /><path clip-path="url(#clip390)" d="M1922.42 312.404 L1905.15 381.734 Q1904.45 384.486 1904.45 387.473 Q1904.45 392.977 1908.08 392.977 Q1909.78 392.977 1911.18 391.864 Q1912.59 390.693 1913.64 388.41 Q1914.75 386.067 1915.46 383.842 Q1916.22 381.617 1917.15 378.162 Q1917.45 376.816 1917.74 376.406 Q1918.03 375.996 1918.85 375.996 Q1920.32 375.996 1920.32 377.167 Q1918.85 384.369 1916.69 388.937 Q1913.52 395.671 1907.67 395.671 Q1903.28 395.671 1900 392.626 Q1896.78 389.522 1896.78 384.603 Q1896.78 382.73 1897.36 380.505 L1912.47 320.543 L1912.88 318.201 Q1912.88 317.557 1912.65 317.205 Q1912.41 316.854 1911.01 316.503 Q1909.66 316.151 1906.97 316.151 Q1905.85 316.151 1905.33 316.093 Q1904.86 316.034 1904.39 315.742 Q1903.98 315.449 1903.98 314.805 Q1903.98 313.751 1904.39 313.165 Q1904.86 312.579 1905.21 312.462 Q1905.56 312.345 1906.26 312.287 Q1907.26 312.228 1910.6 311.935 Q1913.93 311.584 1916.8 311.35 Q1919.67 311.116 1920.9 311.116 Q1921.6 311.116 1921.96 311.467 Q1922.37 311.76 1922.42 312.111 L1922.42 312.404 Z" fill="#000000" fill-rule="evenodd" fill-opacity="1" /><path clip-path="url(#clip390)" d="M1965.43 376.113 Q1965.54 374.649 1967.83 374.649 L2041.32 374.649 Q2044.77 374.649 2044.83 375.996 Q2044.83 377.46 2041.55 377.401 L1968.65 377.401 Q1965.43 377.46 1965.43 376.113 M1965.43 352.69 Q1965.43 351.227 1967.94 351.285 L2041.2 351.285 Q2044.77 351.285 2044.83 352.69 Q2044.83 354.037 2041.78 354.037 L1967.83 354.037 Q1965.43 354.037 1965.43 352.69 Z" fill="#000000" fill-rule="evenodd" fill-opacity="1" /><path clip-path="url(#clip390)" d="M2091.09 355.97 Q2091.09 338.344 2095.54 328.741 Q2101.75 314.453 2116.39 314.453 Q2119.49 314.453 2122.71 315.332 Q2125.99 316.151 2130.09 319.372 Q2134.25 322.593 2136.76 327.863 Q2141.57 338.051 2141.57 355.97 Q2141.57 373.478 2137.11 383.022 Q2130.62 396.959 2116.27 396.959 Q2110.88 396.959 2105.38 394.207 Q2099.93 391.455 2096.48 384.838 Q2091.09 374.942 2091.09 355.97 M2101.04 354.506 Q2101.04 372.599 2102.33 379.802 Q2103.8 387.59 2107.78 390.986 Q2111.82 394.324 2116.27 394.324 Q2121.07 394.324 2125.05 390.752 Q2129.09 387.121 2130.32 379.333 Q2131.67 371.663 2131.61 354.506 Q2131.61 337.817 2130.44 331.142 Q2128.86 323.354 2124.64 320.25 Q2120.48 317.088 2116.27 317.088 Q2114.69 317.088 2112.99 317.557 Q2111.35 318.025 2108.95 319.372 Q2106.55 320.719 2104.67 324.056 Q2102.86 327.394 2101.98 332.43 Q2101.04 338.93 2101.04 354.506 Z" fill="#000000" fill-rule="evenodd" fill-opacity="1" /><path clip-path="url(#clip390)" d="M2152.3 392.391 Q2150.48 390.459 2150.48 387.941 Q2150.48 385.423 2152.3 383.608 Q2154.11 381.734 2156.86 381.734 Q2159.5 381.734 2161.25 383.491 Q2163.07 385.189 2163.07 388 Q2163.07 390.752 2161.14 392.567 Q2159.26 394.324 2156.86 394.324 Q2154.11 394.324 2152.3 392.391 Z" fill="#000000" fill-rule="evenodd" fill-opacity="1" /><path clip-path="url(#clip390)" d="M2171.36 325.872 L2171.36 322.124 Q2185.76 322.124 2193.2 314.453 Q2195.25 314.453 2195.6 314.922 Q2195.95 315.39 2195.95 317.557 L2195.95 384.838 Q2195.95 388.41 2197.71 389.522 Q2199.46 390.635 2207.13 390.635 L2210.94 390.635 L2210.94 394.324 Q2206.72 393.972 2191.5 393.972 Q2176.28 393.972 2172.12 394.324 L2172.12 390.635 L2175.92 390.635 Q2183.48 390.635 2185.29 389.581 Q2187.11 388.468 2187.11 384.838 L2187.11 322.71 Q2180.84 325.872 2171.36 325.872 Z" fill="#000000" fill-rule="evenodd" fill-opacity="1" /></svg>
