<?xml version="1.0" encoding="utf-8"?>
<svg xmlns="http://www.w3.org/2000/svg" xmlns:xlink="http://www.w3.org/1999/xlink" width="600" height="400" viewBox="0 0 2400 1600">
<defs>
  <clipPath id="clip730">
    <rect x="0" y="0" width="2400" height="1600"/>
  </clipPath>
</defs>
<path clip-path="url(#clip730)" d="
M0 1600 L2400 1600 L2400 0 L0 0  Z
  " fill="#ffffff" fill-rule="evenodd" fill-opacity="1"/>
<defs>
  <clipPath id="clip731">
    <rect x="480" y="0" width="1681" height="1600"/>
  </clipPath>
</defs>
<defs>
  <clipPath id="clip732">
    <rect x="156" y="47" width="2197" height="1440"/>
  </clipPath>
</defs>
<path clip-path="url(#clip730)" d="
M156.598 1486.45 L2352.76 1486.45 L2352.76 47.2441 L156.598 47.2441  Z
  " fill="#ffffff" fill-rule="evenodd" fill-opacity="1"/>
<polyline clip-path="url(#clip732)" style="stroke:#000000; stroke-linecap:round; stroke-linejoin:round; stroke-width:2; stroke-opacity:0.1; fill:none" points="
  156.598,1486.45 156.598,47.2441 
  "/>
<polyline clip-path="url(#clip732)" style="stroke:#000000; stroke-linecap:round; stroke-linejoin:round; stroke-width:2; stroke-opacity:0.1; fill:none" points="
  595.83,1486.45 595.83,47.2441 
  "/>
<polyline clip-path="url(#clip732)" style="stroke:#000000; stroke-linecap:round; stroke-linejoin:round; stroke-width:2; stroke-opacity:0.1; fill:none" points="
  1035.06,1486.45 1035.06,47.2441 
  "/>
<polyline clip-path="url(#clip732)" style="stroke:#000000; stroke-linecap:round; stroke-linejoin:round; stroke-width:2; stroke-opacity:0.1; fill:none" points="
  1474.29,1486.45 1474.29,47.2441 
  "/>
<polyline clip-path="url(#clip732)" style="stroke:#000000; stroke-linecap:round; stroke-linejoin:round; stroke-width:2; stroke-opacity:0.1; fill:none" points="
  1913.52,1486.45 1913.52,47.2441 
  "/>
<polyline clip-path="url(#clip732)" style="stroke:#000000; stroke-linecap:round; stroke-linejoin:round; stroke-width:2; stroke-opacity:0.1; fill:none" points="
  2352.76,1486.45 2352.76,47.2441 
  "/>
<polyline clip-path="url(#clip730)" style="stroke:#000000; stroke-linecap:round; stroke-linejoin:round; stroke-width:4; stroke-opacity:1; fill:none" points="
  156.598,1486.45 2352.76,1486.45 
  "/>
<polyline clip-path="url(#clip730)" style="stroke:#000000; stroke-linecap:round; stroke-linejoin:round; stroke-width:4; stroke-opacity:1; fill:none" points="
  156.598,1486.45 156.598,1467.55 
  "/>
<polyline clip-path="url(#clip730)" style="stroke:#000000; stroke-linecap:round; stroke-linejoin:round; stroke-width:4; stroke-opacity:1; fill:none" points="
  595.83,1486.45 595.83,1467.55 
  "/>
<polyline clip-path="url(#clip730)" style="stroke:#000000; stroke-linecap:round; stroke-linejoin:round; stroke-width:4; stroke-opacity:1; fill:none" points="
  1035.06,1486.45 1035.06,1467.55 
  "/>
<polyline clip-path="url(#clip730)" style="stroke:#000000; stroke-linecap:round; stroke-linejoin:round; stroke-width:4; stroke-opacity:1; fill:none" points="
  1474.29,1486.45 1474.29,1467.55 
  "/>
<polyline clip-path="url(#clip730)" style="stroke:#000000; stroke-linecap:round; stroke-linejoin:round; stroke-width:4; stroke-opacity:1; fill:none" points="
  1913.52,1486.45 1913.52,1467.55 
  "/>
<polyline clip-path="url(#clip730)" style="stroke:#000000; stroke-linecap:round; stroke-linejoin:round; stroke-width:4; stroke-opacity:1; fill:none" points="
  2352.76,1486.45 2352.76,1467.55 
  "/>
<path clip-path="url(#clip730)" d="M133.983 1517.37 Q130.372 1517.37 128.543 1520.93 Q126.737 1524.47 126.737 1531.6 Q126.737 1538.71 128.543 1542.27 Q130.372 1545.82 133.983 1545.82 Q137.617 1545.82 139.422 1542.27 Q141.251 1538.71 141.251 1531.6 Q141.251 1524.47 139.422 1520.93 Q137.617 1517.37 133.983 1517.37 M133.983 1513.66 Q139.793 1513.66 142.848 1518.27 Q145.927 1522.85 145.927 1531.6 Q145.927 1540.33 142.848 1544.94 Q139.793 1549.52 133.983 1549.52 Q128.172 1549.52 125.094 1544.94 Q122.038 1540.33 122.038 1531.6 Q122.038 1522.85 125.094 1518.27 Q128.172 1513.66 133.983 1513.66 Z" fill="#000000" fill-rule="evenodd" fill-opacity="1" /><path clip-path="url(#clip730)" d="M154.145 1542.97 L159.029 1542.97 L159.029 1548.85 L154.145 1548.85 L154.145 1542.97 Z" fill="#000000" fill-rule="evenodd" fill-opacity="1" /><path clip-path="url(#clip730)" d="M179.214 1517.37 Q175.603 1517.37 173.774 1520.93 Q171.969 1524.47 171.969 1531.6 Q171.969 1538.71 173.774 1542.27 Q175.603 1545.82 179.214 1545.82 Q182.848 1545.82 184.654 1542.27 Q186.482 1538.71 186.482 1531.6 Q186.482 1524.47 184.654 1520.93 Q182.848 1517.37 179.214 1517.37 M179.214 1513.66 Q185.024 1513.66 188.08 1518.27 Q191.158 1522.85 191.158 1531.6 Q191.158 1540.33 188.08 1544.94 Q185.024 1549.52 179.214 1549.52 Q173.404 1549.52 170.325 1544.94 Q167.269 1540.33 167.269 1531.6 Q167.269 1522.85 170.325 1518.27 Q173.404 1513.66 179.214 1513.66 Z" fill="#000000" fill-rule="evenodd" fill-opacity="1" /><path clip-path="url(#clip730)" d="M574.013 1517.37 Q570.402 1517.37 568.573 1520.93 Q566.767 1524.47 566.767 1531.6 Q566.767 1538.71 568.573 1542.27 Q570.402 1545.82 574.013 1545.82 Q577.647 1545.82 579.453 1542.27 Q581.281 1538.71 581.281 1531.6 Q581.281 1524.47 579.453 1520.93 Q577.647 1517.37 574.013 1517.37 M574.013 1513.66 Q579.823 1513.66 582.878 1518.27 Q585.957 1522.85 585.957 1531.6 Q585.957 1540.33 582.878 1544.94 Q579.823 1549.52 574.013 1549.52 Q568.203 1549.52 565.124 1544.94 Q562.068 1540.33 562.068 1531.6 Q562.068 1522.85 565.124 1518.27 Q568.203 1513.66 574.013 1513.66 Z" fill="#000000" fill-rule="evenodd" fill-opacity="1" /><path clip-path="url(#clip730)" d="M594.175 1542.97 L599.059 1542.97 L599.059 1548.85 L594.175 1548.85 L594.175 1542.97 Z" fill="#000000" fill-rule="evenodd" fill-opacity="1" /><path clip-path="url(#clip730)" d="M613.272 1544.91 L629.591 1544.91 L629.591 1548.85 L607.647 1548.85 L607.647 1544.91 Q610.309 1542.16 614.892 1537.53 Q619.499 1532.88 620.679 1531.53 Q622.925 1529.01 623.804 1527.27 Q624.707 1525.51 624.707 1523.82 Q624.707 1521.07 622.762 1519.33 Q620.841 1517.6 617.739 1517.6 Q615.54 1517.6 613.087 1518.36 Q610.656 1519.13 607.878 1520.68 L607.878 1515.95 Q610.702 1514.82 613.156 1514.24 Q615.61 1513.66 617.647 1513.66 Q623.017 1513.66 626.212 1516.35 Q629.406 1519.03 629.406 1523.52 Q629.406 1525.65 628.596 1527.57 Q627.809 1529.47 625.702 1532.07 Q625.124 1532.74 622.022 1535.95 Q618.92 1539.15 613.272 1544.91 Z" fill="#000000" fill-rule="evenodd" fill-opacity="1" /><path clip-path="url(#clip730)" d="M1012.2 1517.37 Q1008.59 1517.37 1006.76 1520.93 Q1004.96 1524.47 1004.96 1531.6 Q1004.96 1538.71 1006.76 1542.27 Q1008.59 1545.82 1012.2 1545.82 Q1015.84 1545.82 1017.64 1542.27 Q1019.47 1538.71 1019.47 1531.6 Q1019.47 1524.47 1017.64 1520.93 Q1015.84 1517.37 1012.2 1517.37 M1012.2 1513.66 Q1018.01 1513.66 1021.07 1518.27 Q1024.15 1522.85 1024.15 1531.6 Q1024.15 1540.33 1021.07 1544.94 Q1018.01 1549.52 1012.2 1549.52 Q1006.39 1549.52 1003.31 1544.94 Q1000.26 1540.33 1000.26 1531.6 Q1000.26 1522.85 1003.31 1518.27 Q1006.39 1513.66 1012.2 1513.66 Z" fill="#000000" fill-rule="evenodd" fill-opacity="1" /><path clip-path="url(#clip730)" d="M1032.36 1542.97 L1037.25 1542.97 L1037.25 1548.85 L1032.36 1548.85 L1032.36 1542.97 Z" fill="#000000" fill-rule="evenodd" fill-opacity="1" /><path clip-path="url(#clip730)" d="M1060.28 1518.36 L1048.48 1536.81 L1060.28 1536.81 L1060.28 1518.36 M1059.05 1514.29 L1064.93 1514.29 L1064.93 1536.81 L1069.86 1536.81 L1069.86 1540.7 L1064.93 1540.7 L1064.93 1548.85 L1060.28 1548.85 L1060.28 1540.7 L1044.68 1540.7 L1044.68 1536.19 L1059.05 1514.29 Z" fill="#000000" fill-rule="evenodd" fill-opacity="1" /><path clip-path="url(#clip730)" d="M1451.6 1517.37 Q1447.99 1517.37 1446.16 1520.93 Q1444.35 1524.47 1444.35 1531.6 Q1444.35 1538.71 1446.16 1542.27 Q1447.99 1545.82 1451.6 1545.82 Q1455.23 1545.82 1457.04 1542.27 Q1458.86 1538.71 1458.86 1531.6 Q1458.86 1524.47 1457.04 1520.93 Q1455.23 1517.37 1451.6 1517.37 M1451.6 1513.66 Q1457.41 1513.66 1460.46 1518.27 Q1463.54 1522.85 1463.54 1531.6 Q1463.54 1540.33 1460.46 1544.94 Q1457.41 1549.52 1451.6 1549.52 Q1445.79 1549.52 1442.71 1544.94 Q1439.65 1540.33 1439.65 1531.6 Q1439.65 1522.85 1442.71 1518.27 Q1445.79 1513.66 1451.6 1513.66 Z" fill="#000000" fill-rule="evenodd" fill-opacity="1" /><path clip-path="url(#clip730)" d="M1471.76 1542.97 L1476.64 1542.97 L1476.64 1548.85 L1471.76 1548.85 L1471.76 1542.97 Z" fill="#000000" fill-rule="evenodd" fill-opacity="1" /><path clip-path="url(#clip730)" d="M1497.41 1529.7 Q1494.26 1529.7 1492.41 1531.86 Q1490.58 1534.01 1490.58 1537.76 Q1490.58 1541.49 1492.41 1543.66 Q1494.26 1545.82 1497.41 1545.82 Q1500.55 1545.82 1502.38 1543.66 Q1504.23 1541.49 1504.23 1537.76 Q1504.23 1534.01 1502.38 1531.86 Q1500.55 1529.7 1497.41 1529.7 M1506.69 1515.05 L1506.69 1519.31 Q1504.93 1518.48 1503.12 1518.04 Q1501.34 1517.6 1499.58 1517.6 Q1494.95 1517.6 1492.5 1520.72 Q1490.07 1523.85 1489.72 1530.17 Q1491.09 1528.15 1493.15 1527.09 Q1495.21 1526 1497.68 1526 Q1502.89 1526 1505.9 1529.17 Q1508.93 1532.32 1508.93 1537.76 Q1508.93 1543.08 1505.79 1546.3 Q1502.64 1549.52 1497.41 1549.52 Q1491.41 1549.52 1488.24 1544.94 Q1485.07 1540.33 1485.07 1531.6 Q1485.07 1523.41 1488.96 1518.55 Q1492.85 1513.66 1499.4 1513.66 Q1501.16 1513.66 1502.94 1514.01 Q1504.74 1514.36 1506.69 1515.05 Z" fill="#000000" fill-rule="evenodd" fill-opacity="1" /><path clip-path="url(#clip730)" d="M1890.96 1517.37 Q1887.34 1517.37 1885.52 1520.93 Q1883.71 1524.47 1883.71 1531.6 Q1883.71 1538.71 1885.52 1542.27 Q1887.34 1545.82 1890.96 1545.82 Q1894.59 1545.82 1896.39 1542.27 Q1898.22 1538.71 1898.22 1531.6 Q1898.22 1524.47 1896.39 1520.93 Q1894.59 1517.37 1890.96 1517.37 M1890.96 1513.66 Q1896.77 1513.66 1899.82 1518.27 Q1902.9 1522.85 1902.9 1531.6 Q1902.9 1540.33 1899.82 1544.94 Q1896.77 1549.52 1890.96 1549.52 Q1885.14 1549.52 1882.07 1544.94 Q1879.01 1540.33 1879.01 1531.6 Q1879.01 1522.85 1882.07 1518.27 Q1885.14 1513.66 1890.96 1513.66 Z" fill="#000000" fill-rule="evenodd" fill-opacity="1" /><path clip-path="url(#clip730)" d="M1911.12 1542.97 L1916 1542.97 L1916 1548.85 L1911.12 1548.85 L1911.12 1542.97 Z" fill="#000000" fill-rule="evenodd" fill-opacity="1" /><path clip-path="url(#clip730)" d="M1936.19 1532.44 Q1932.85 1532.44 1930.93 1534.22 Q1929.03 1536 1929.03 1539.13 Q1929.03 1542.25 1930.93 1544.03 Q1932.85 1545.82 1936.19 1545.82 Q1939.52 1545.82 1941.44 1544.03 Q1943.36 1542.23 1943.36 1539.13 Q1943.36 1536 1941.44 1534.22 Q1939.54 1532.44 1936.19 1532.44 M1931.51 1530.45 Q1928.5 1529.7 1926.81 1527.64 Q1925.14 1525.58 1925.14 1522.62 Q1925.14 1518.48 1928.08 1516.07 Q1931.05 1513.66 1936.19 1513.66 Q1941.35 1513.66 1944.29 1516.07 Q1947.23 1518.48 1947.23 1522.62 Q1947.23 1525.58 1945.54 1527.64 Q1943.87 1529.7 1940.89 1530.45 Q1944.26 1531.23 1946.14 1533.52 Q1948.04 1535.82 1948.04 1539.13 Q1948.04 1544.15 1944.96 1546.83 Q1941.9 1549.52 1936.19 1549.52 Q1930.47 1549.52 1927.39 1546.83 Q1924.33 1544.15 1924.33 1539.13 Q1924.33 1535.82 1926.23 1533.52 Q1928.13 1531.23 1931.51 1530.45 M1929.8 1523.06 Q1929.8 1525.75 1931.46 1527.25 Q1933.15 1528.76 1936.19 1528.76 Q1939.2 1528.76 1940.89 1527.25 Q1942.6 1525.75 1942.6 1523.06 Q1942.6 1520.38 1940.89 1518.87 Q1939.2 1517.37 1936.19 1517.37 Q1933.15 1517.37 1931.46 1518.87 Q1929.8 1520.38 1929.8 1523.06 Z" fill="#000000" fill-rule="evenodd" fill-opacity="1" /><path clip-path="url(#clip730)" d="M2319.91 1544.91 L2327.55 1544.91 L2327.55 1518.55 L2319.24 1520.21 L2319.24 1515.95 L2327.5 1514.29 L2332.18 1514.29 L2332.18 1544.91 L2339.82 1544.91 L2339.82 1548.85 L2319.91 1548.85 L2319.91 1544.91 Z" fill="#000000" fill-rule="evenodd" fill-opacity="1" /><path clip-path="url(#clip730)" d="M2349.26 1542.97 L2354.14 1542.97 L2354.14 1548.85 L2349.26 1548.85 L2349.26 1542.97 Z" fill="#000000" fill-rule="evenodd" fill-opacity="1" /><path clip-path="url(#clip730)" d="M2374.33 1517.37 Q2370.72 1517.37 2368.89 1520.93 Q2367.08 1524.47 2367.08 1531.6 Q2367.08 1538.71 2368.89 1542.27 Q2370.72 1545.82 2374.33 1545.82 Q2377.96 1545.82 2379.77 1542.27 Q2381.6 1538.71 2381.6 1531.6 Q2381.6 1524.47 2379.77 1520.93 Q2377.96 1517.37 2374.33 1517.37 M2374.33 1513.66 Q2380.14 1513.66 2383.2 1518.27 Q2386.27 1522.85 2386.27 1531.6 Q2386.27 1540.33 2383.2 1544.94 Q2380.14 1549.52 2374.33 1549.52 Q2368.52 1549.52 2365.44 1544.94 Q2362.39 1540.33 2362.39 1531.6 Q2362.39 1522.85 2365.44 1518.27 Q2368.52 1513.66 2374.33 1513.66 Z" fill="#000000" fill-rule="evenodd" fill-opacity="1" /><polyline clip-path="url(#clip732)" style="stroke:#000000; stroke-linecap:round; stroke-linejoin:round; stroke-width:2; stroke-opacity:0.1; fill:none" points="
  156.598,1486.45 2352.76,1486.45 
  "/>
<polyline clip-path="url(#clip732)" style="stroke:#000000; stroke-linecap:round; stroke-linejoin:round; stroke-width:2; stroke-opacity:0.1; fill:none" points="
  156.598,1198.61 2352.76,1198.61 
  "/>
<polyline clip-path="url(#clip732)" style="stroke:#000000; stroke-linecap:round; stroke-linejoin:round; stroke-width:2; stroke-opacity:0.1; fill:none" points="
  156.598,910.766 2352.76,910.766 
  "/>
<polyline clip-path="url(#clip732)" style="stroke:#000000; stroke-linecap:round; stroke-linejoin:round; stroke-width:2; stroke-opacity:0.1; fill:none" points="
  156.598,622.926 2352.76,622.926 
  "/>
<polyline clip-path="url(#clip732)" style="stroke:#000000; stroke-linecap:round; stroke-linejoin:round; stroke-width:2; stroke-opacity:0.1; fill:none" points="
  156.598,335.085 2352.76,335.085 
  "/>
<polyline clip-path="url(#clip732)" style="stroke:#000000; stroke-linecap:round; stroke-linejoin:round; stroke-width:2; stroke-opacity:0.1; fill:none" points="
  156.598,47.2441 2352.76,47.2441 
  "/>
<polyline clip-path="url(#clip730)" style="stroke:#000000; stroke-linecap:round; stroke-linejoin:round; stroke-width:4; stroke-opacity:1; fill:none" points="
  156.598,1486.45 156.598,47.2441 
  "/>
<polyline clip-path="url(#clip730)" style="stroke:#000000; stroke-linecap:round; stroke-linejoin:round; stroke-width:4; stroke-opacity:1; fill:none" points="
  156.598,1486.45 175.496,1486.45 
  "/>
<polyline clip-path="url(#clip730)" style="stroke:#000000; stroke-linecap:round; stroke-linejoin:round; stroke-width:4; stroke-opacity:1; fill:none" points="
  156.598,1198.61 175.496,1198.61 
  "/>
<polyline clip-path="url(#clip730)" style="stroke:#000000; stroke-linecap:round; stroke-linejoin:round; stroke-width:4; stroke-opacity:1; fill:none" points="
  156.598,910.766 175.496,910.766 
  "/>
<polyline clip-path="url(#clip730)" style="stroke:#000000; stroke-linecap:round; stroke-linejoin:round; stroke-width:4; stroke-opacity:1; fill:none" points="
  156.598,622.926 175.496,622.926 
  "/>
<polyline clip-path="url(#clip730)" style="stroke:#000000; stroke-linecap:round; stroke-linejoin:round; stroke-width:4; stroke-opacity:1; fill:none" points="
  156.598,335.085 175.496,335.085 
  "/>
<polyline clip-path="url(#clip730)" style="stroke:#000000; stroke-linecap:round; stroke-linejoin:round; stroke-width:4; stroke-opacity:1; fill:none" points="
  156.598,47.2441 175.496,47.2441 
  "/>
<path clip-path="url(#clip730)" d="M63.4226 1472.25 Q59.8115 1472.25 57.9828 1475.81 Q56.1773 1479.35 56.1773 1486.48 Q56.1773 1493.59 57.9828 1497.15 Q59.8115 1500.7 63.4226 1500.7 Q67.0569 1500.7 68.8624 1497.15 Q70.6911 1493.59 70.6911 1486.48 Q70.6911 1479.35 68.8624 1475.81 Q67.0569 1472.25 63.4226 1472.25 M63.4226 1468.54 Q69.2328 1468.54 72.2883 1473.15 Q75.367 1477.73 75.367 1486.48 Q75.367 1495.21 72.2883 1499.82 Q69.2328 1504.4 63.4226 1504.4 Q57.6125 1504.4 54.5338 1499.82 Q51.4782 1495.21 51.4782 1486.48 Q51.4782 1477.73 54.5338 1473.15 Q57.6125 1468.54 63.4226 1468.54 Z" fill="#000000" fill-rule="evenodd" fill-opacity="1" /><path clip-path="url(#clip730)" d="M83.5845 1497.85 L88.4688 1497.85 L88.4688 1503.73 L83.5845 1503.73 L83.5845 1497.85 Z" fill="#000000" fill-rule="evenodd" fill-opacity="1" /><path clip-path="url(#clip730)" d="M108.654 1472.25 Q105.043 1472.25 103.214 1475.81 Q101.409 1479.35 101.409 1486.48 Q101.409 1493.59 103.214 1497.15 Q105.043 1500.7 108.654 1500.7 Q112.288 1500.7 114.094 1497.15 Q115.922 1493.59 115.922 1486.48 Q115.922 1479.35 114.094 1475.81 Q112.288 1472.25 108.654 1472.25 M108.654 1468.54 Q114.464 1468.54 117.52 1473.15 Q120.598 1477.73 120.598 1486.48 Q120.598 1495.21 117.52 1499.82 Q114.464 1504.4 108.654 1504.4 Q102.844 1504.4 99.765 1499.82 Q96.7095 1495.21 96.7095 1486.48 Q96.7095 1477.73 99.765 1473.15 Q102.844 1468.54 108.654 1468.54 Z" fill="#000000" fill-rule="evenodd" fill-opacity="1" /><path clip-path="url(#clip730)" d="M65.0198 1184.41 Q61.4087 1184.41 59.58 1187.97 Q57.7745 1191.51 57.7745 1198.64 Q57.7745 1205.75 59.58 1209.31 Q61.4087 1212.85 65.0198 1212.85 Q68.6541 1212.85 70.4596 1209.31 Q72.2883 1205.75 72.2883 1198.64 Q72.2883 1191.51 70.4596 1187.97 Q68.6541 1184.41 65.0198 1184.41 M65.0198 1180.7 Q70.83 1180.7 73.8855 1185.31 Q76.9642 1189.89 76.9642 1198.64 Q76.9642 1207.37 73.8855 1211.98 Q70.83 1216.56 65.0198 1216.56 Q59.2097 1216.56 56.131 1211.98 Q53.0754 1207.37 53.0754 1198.64 Q53.0754 1189.89 56.131 1185.31 Q59.2097 1180.7 65.0198 1180.7 Z" fill="#000000" fill-rule="evenodd" fill-opacity="1" /><path clip-path="url(#clip730)" d="M85.1818 1210.01 L90.066 1210.01 L90.066 1215.89 L85.1818 1215.89 L85.1818 1210.01 Z" fill="#000000" fill-rule="evenodd" fill-opacity="1" /><path clip-path="url(#clip730)" d="M104.279 1211.95 L120.598 1211.95 L120.598 1215.89 L98.6539 1215.89 L98.6539 1211.95 Q101.316 1209.2 105.899 1204.57 Q110.506 1199.91 111.686 1198.57 Q113.932 1196.05 114.811 1194.31 Q115.714 1192.55 115.714 1190.86 Q115.714 1188.11 113.77 1186.37 Q111.848 1184.64 108.746 1184.64 Q106.547 1184.64 104.094 1185.4 Q101.663 1186.17 98.8854 1187.72 L98.8854 1182.99 Q101.709 1181.86 104.163 1181.28 Q106.617 1180.7 108.654 1180.7 Q114.024 1180.7 117.219 1183.39 Q120.413 1186.07 120.413 1190.56 Q120.413 1192.69 119.603 1194.61 Q118.816 1196.51 116.709 1199.1 Q116.131 1199.78 113.029 1202.99 Q109.927 1206.19 104.279 1211.95 Z" fill="#000000" fill-rule="evenodd" fill-opacity="1" /><path clip-path="url(#clip730)" d="M62.9365 896.565 Q59.3254 896.565 57.4967 900.13 Q55.6912 903.671 55.6912 910.801 Q55.6912 917.908 57.4967 921.472 Q59.3254 925.014 62.9365 925.014 Q66.5707 925.014 68.3763 921.472 Q70.205 917.908 70.205 910.801 Q70.205 903.671 68.3763 900.13 Q66.5707 896.565 62.9365 896.565 M62.9365 892.861 Q68.7467 892.861 71.8022 897.468 Q74.8809 902.051 74.8809 910.801 Q74.8809 919.528 71.8022 924.134 Q68.7467 928.718 62.9365 928.718 Q57.1264 928.718 54.0477 924.134 Q50.9921 919.528 50.9921 910.801 Q50.9921 902.051 54.0477 897.468 Q57.1264 892.861 62.9365 892.861 Z" fill="#000000" fill-rule="evenodd" fill-opacity="1" /><path clip-path="url(#clip730)" d="M83.0984 922.167 L87.9827 922.167 L87.9827 928.046 L83.0984 928.046 L83.0984 922.167 Z" fill="#000000" fill-rule="evenodd" fill-opacity="1" /><path clip-path="url(#clip730)" d="M111.015 897.56 L99.2095 916.009 L111.015 916.009 L111.015 897.56 M109.788 893.486 L115.668 893.486 L115.668 916.009 L120.598 916.009 L120.598 919.898 L115.668 919.898 L115.668 928.046 L111.015 928.046 L111.015 919.898 L95.4132 919.898 L95.4132 915.384 L109.788 893.486 Z" fill="#000000" fill-rule="evenodd" fill-opacity="1" /><path clip-path="url(#clip730)" d="M63.2606 608.724 Q59.6495 608.724 57.8208 612.289 Q56.0152 615.831 56.0152 622.96 Q56.0152 630.067 57.8208 633.632 Q59.6495 637.173 63.2606 637.173 Q66.8948 637.173 68.7004 633.632 Q70.5291 630.067 70.5291 622.96 Q70.5291 615.831 68.7004 612.289 Q66.8948 608.724 63.2606 608.724 M63.2606 605.021 Q69.0707 605.021 72.1263 609.627 Q75.205 614.21 75.205 622.96 Q75.205 631.687 72.1263 636.294 Q69.0707 640.877 63.2606 640.877 Q57.4504 640.877 54.3717 636.294 Q51.3162 631.687 51.3162 622.96 Q51.3162 614.21 54.3717 609.627 Q57.4504 605.021 63.2606 605.021 Z" fill="#000000" fill-rule="evenodd" fill-opacity="1" /><path clip-path="url(#clip730)" d="M83.4225 634.326 L88.3067 634.326 L88.3067 640.206 L83.4225 640.206 L83.4225 634.326 Z" fill="#000000" fill-rule="evenodd" fill-opacity="1" /><path clip-path="url(#clip730)" d="M109.071 621.062 Q105.922 621.062 104.071 623.215 Q102.242 625.368 102.242 629.118 Q102.242 632.845 104.071 635.02 Q105.922 637.173 109.071 637.173 Q112.219 637.173 114.047 635.02 Q115.899 632.845 115.899 629.118 Q115.899 625.368 114.047 623.215 Q112.219 621.062 109.071 621.062 M118.353 606.409 L118.353 610.669 Q116.594 609.835 114.788 609.396 Q113.006 608.956 111.246 608.956 Q106.617 608.956 104.163 612.081 Q101.733 615.206 101.385 621.525 Q102.751 619.511 104.811 618.446 Q106.871 617.359 109.348 617.359 Q114.557 617.359 117.566 620.53 Q120.598 623.678 120.598 629.118 Q120.598 634.442 117.45 637.659 Q114.302 640.877 109.071 640.877 Q103.075 640.877 99.9039 636.294 Q96.7326 631.687 96.7326 622.96 Q96.7326 614.766 100.621 609.905 Q104.51 605.021 111.061 605.021 Q112.82 605.021 114.603 605.368 Q116.408 605.715 118.353 606.409 Z" fill="#000000" fill-rule="evenodd" fill-opacity="1" /><path clip-path="url(#clip730)" d="M63.5152 320.884 Q59.9041 320.884 58.0754 324.448 Q56.2699 327.99 56.2699 335.12 Q56.2699 342.226 58.0754 345.791 Q59.9041 349.332 63.5152 349.332 Q67.1494 349.332 68.955 345.791 Q70.7837 342.226 70.7837 335.12 Q70.7837 327.99 68.955 324.448 Q67.1494 320.884 63.5152 320.884 M63.5152 317.18 Q69.3254 317.18 72.3809 321.786 Q75.4596 326.37 75.4596 335.12 Q75.4596 343.846 72.3809 348.453 Q69.3254 353.036 63.5152 353.036 Q57.7051 353.036 54.6264 348.453 Q51.5708 343.846 51.5708 335.12 Q51.5708 326.37 54.6264 321.786 Q57.7051 317.18 63.5152 317.18 Z" fill="#000000" fill-rule="evenodd" fill-opacity="1" /><path clip-path="url(#clip730)" d="M83.6771 346.485 L88.5614 346.485 L88.5614 352.365 L83.6771 352.365 L83.6771 346.485 Z" fill="#000000" fill-rule="evenodd" fill-opacity="1" /><path clip-path="url(#clip730)" d="M108.746 335.953 Q105.413 335.953 103.492 337.735 Q101.594 339.518 101.594 342.643 Q101.594 345.768 103.492 347.55 Q105.413 349.332 108.746 349.332 Q112.08 349.332 114.001 347.55 Q115.922 345.745 115.922 342.643 Q115.922 339.518 114.001 337.735 Q112.103 335.953 108.746 335.953 M104.071 333.962 Q101.061 333.221 99.3715 331.161 Q97.7048 329.101 97.7048 326.138 Q97.7048 321.995 100.645 319.587 Q103.608 317.18 108.746 317.18 Q113.908 317.18 116.848 319.587 Q119.788 321.995 119.788 326.138 Q119.788 329.101 118.098 331.161 Q116.432 333.221 113.445 333.962 Q116.825 334.749 118.7 337.041 Q120.598 339.333 120.598 342.643 Q120.598 347.666 117.52 350.351 Q114.464 353.036 108.746 353.036 Q103.029 353.036 99.9502 350.351 Q96.8947 347.666 96.8947 342.643 Q96.8947 339.333 98.7928 337.041 Q100.691 334.749 104.071 333.962 M102.358 326.578 Q102.358 329.263 104.024 330.768 Q105.714 332.272 108.746 332.272 Q111.756 332.272 113.445 330.768 Q115.158 329.263 115.158 326.578 Q115.158 323.893 113.445 322.388 Q111.756 320.884 108.746 320.884 Q105.714 320.884 104.024 322.388 Q102.358 323.893 102.358 326.578 Z" fill="#000000" fill-rule="evenodd" fill-opacity="1" /><path clip-path="url(#clip730)" d="M54.2328 60.5889 L61.8717 60.5889 L61.8717 34.2233 L53.5616 35.89 L53.5616 31.6308 L61.8254 29.9641 L66.5013 29.9641 L66.5013 60.5889 L74.1402 60.5889 L74.1402 64.5241 L54.2328 64.5241 L54.2328 60.5889 Z" fill="#000000" fill-rule="evenodd" fill-opacity="1" /><path clip-path="url(#clip730)" d="M83.5845 58.6445 L88.4688 58.6445 L88.4688 64.5241 L83.5845 64.5241 L83.5845 58.6445 Z" fill="#000000" fill-rule="evenodd" fill-opacity="1" /><path clip-path="url(#clip730)" d="M108.654 33.0428 Q105.043 33.0428 103.214 36.6076 Q101.409 40.1492 101.409 47.2788 Q101.409 54.3853 103.214 57.9501 Q105.043 61.4917 108.654 61.4917 Q112.288 61.4917 114.094 57.9501 Q115.922 54.3853 115.922 47.2788 Q115.922 40.1492 114.094 36.6076 Q112.288 33.0428 108.654 33.0428 M108.654 29.3391 Q114.464 29.3391 117.52 33.9456 Q120.598 38.5289 120.598 47.2788 Q120.598 56.0056 117.52 60.6121 Q114.464 65.1954 108.654 65.1954 Q102.844 65.1954 99.765 60.6121 Q96.7095 56.0056 96.7095 47.2788 Q96.7095 38.5289 99.765 33.9456 Q102.844 29.3391 108.654 29.3391 Z" fill="#000000" fill-rule="evenodd" fill-opacity="1" /><polyline clip-path="url(#clip732)" style="stroke:#0000ff; stroke-linecap:round; stroke-linejoin:round; stroke-width:12; stroke-opacity:1; fill:none" points="
  4548.91,-1391.96 4548.91,-1391.96 
  "/>
<path clip-path="url(#clip730)" d="
M1478.71 484.018 L2279.55 484.018 L2279.55 95.2176 L1478.71 95.2176  Z
  " fill="#ffffff" fill-rule="evenodd" fill-opacity="1"/>
<polyline clip-path="url(#clip730)" style="stroke:#000000; stroke-linecap:round; stroke-linejoin:round; stroke-width:4; stroke-opacity:1; fill:none" points="
  1478.71,484.018 2279.55,484.018 2279.55,95.2176 1478.71,95.2176 1478.71,484.018 
  "/>
<polyline clip-path="url(#clip730)" style="stroke:#000000; stroke-linecap:round; stroke-linejoin:round; stroke-width:10; stroke-opacity:1; fill:none" points="
  1503.11,224.818 1649.52,224.818 
  "/>
<path clip-path="url(#clip730)" d="M1733.71 178.214 Q1733.71 181.435 1731.66 183.426 Q1729.67 185.417 1727.15 185.417 Q1725.34 185.417 1723.99 184.304 Q1722.7 183.192 1722.7 181.259 Q1722.7 179.268 1724.23 177.16 Q1725.75 175.052 1729.2 174.759 Q1726.92 172.593 1723.29 172.593 Q1721.47 172.593 1719.95 173.764 Q1718.49 174.877 1717.67 176.692 Q1716.79 178.566 1714.8 189.164 Q1714.15 192.619 1713.57 195.957 Q1712.98 199.294 1712.28 202.808 L1722.23 202.808 Q1723.52 202.808 1724.05 202.866 Q1724.58 202.925 1724.99 203.218 Q1725.46 203.51 1725.46 204.155 Q1725.46 205.794 1724.69 206.204 Q1723.99 206.555 1721.88 206.555 L1711.58 206.555 L1704.37 244.558 Q1704.2 245.671 1703.44 249.184 Q1702.74 252.639 1701.04 258.319 Q1699.34 264.058 1697.64 267.454 Q1696.7 269.386 1695.47 271.201 Q1694.3 273.075 1692.61 274.949 Q1690.91 276.823 1688.68 277.935 Q1686.46 279.106 1684.11 279.106 Q1680.13 279.106 1677.03 276.881 Q1673.93 274.656 1673.93 270.85 Q1673.93 267.629 1675.92 265.639 Q1677.97 263.648 1680.48 263.648 Q1682.3 263.648 1683.59 264.76 Q1684.93 265.873 1684.93 267.805 Q1684.93 268.625 1684.64 269.562 Q1684.35 270.499 1683.7 271.553 Q1683.06 272.665 1681.66 273.426 Q1680.25 274.188 1678.32 274.305 Q1680.6 276.471 1684.11 276.471 Q1685.23 276.471 1686.22 276.003 Q1687.22 275.593 1688.04 274.539 Q1688.92 273.485 1689.56 272.431 Q1690.2 271.436 1690.85 269.503 Q1691.49 267.629 1691.9 266.224 Q1692.31 264.819 1692.84 262.301 Q1693.42 259.783 1693.72 258.26 Q1694.01 256.797 1694.54 253.927 L1703.5 206.555 L1695.59 206.555 Q1694.19 206.555 1693.6 206.497 Q1693.07 206.438 1692.66 206.146 Q1692.25 205.794 1692.25 205.092 Q1692.25 203.979 1692.72 203.51 Q1693.25 202.983 1693.83 202.925 Q1694.42 202.808 1695.83 202.808 L1704.14 202.808 Q1706.95 187.993 1708.06 184.011 Q1709.35 179.795 1711.34 176.867 Q1713.33 173.881 1715.56 172.476 Q1717.78 171.07 1719.6 170.543 Q1721.47 169.958 1723.29 169.958 Q1727.39 169.958 1730.55 172.183 Q1733.71 174.35 1733.71 178.214 Z" fill="#000000" fill-rule="evenodd" fill-opacity="1" /><polyline clip-path="url(#clip730)" style="stroke:#0000ff; stroke-linecap:round; stroke-linejoin:round; stroke-width:10; stroke-opacity:1; fill:none" points="
  1503.11,354.418 1649.52,354.418 
  "/>
<path clip-path="url(#clip730)" d="M1759.07 316.526 L1756.67 337.255 Q1756.49 339.129 1756.2 339.715 Q1755.9 340.242 1754.97 340.242 Q1753.56 340.242 1753.56 338.836 Q1753.56 338.251 1753.8 336.67 Q1754.15 333.449 1754.15 330.17 Q1754.15 326.481 1753.45 324.197 Q1752.8 321.855 1750.93 320.157 Q1749.05 318.459 1745.6 317.756 Q1742.14 316.995 1736.64 316.995 L1720.83 316.995 Q1716.96 316.995 1716.03 317.698 Q1715.15 318.4 1714.33 321.679 L1706.66 352.129 L1717.55 352.129 Q1725.16 352.129 1728.15 349.903 Q1731.14 347.678 1733.01 340.593 Q1733.3 339.48 1733.42 339.071 Q1733.59 338.602 1733.89 338.368 Q1734.24 338.075 1734.82 338.075 Q1735.35 338.075 1735.7 338.426 Q1736.05 338.719 1736.17 339.071 L1736.29 339.422 Q1736.29 340.007 1735.94 341.354 L1729.32 367.353 Q1728.85 369.11 1728.56 369.52 Q1728.32 369.871 1727.5 369.871 Q1726.92 369.871 1726.51 369.461 Q1726.1 369.051 1726.1 368.407 Q1726.22 367.705 1726.45 367.119 Q1727.27 363.547 1727.27 361.263 Q1727.27 359.799 1726.98 358.921 Q1726.68 358.043 1725.69 357.282 Q1724.69 356.52 1722.64 356.169 Q1720.6 355.818 1717.32 355.818 L1705.72 355.818 L1698.29 385.681 L1697.76 388.433 Q1697.76 389.663 1698.4 390.132 Q1699.1 390.6 1701.62 390.834 Q1705.37 391.127 1707.83 391.127 Q1710.87 391.127 1711.23 391.244 Q1711.93 391.595 1711.93 392.532 Q1711.93 393.586 1711.46 394.172 Q1710.99 394.699 1710.58 394.757 Q1710.17 394.816 1709.41 394.816 L1691.55 394.465 L1675.74 394.816 Q1673.93 394.816 1673.93 393.352 Q1673.93 392.24 1674.39 391.771 Q1674.86 391.244 1675.39 391.186 Q1675.92 391.127 1677.26 391.127 Q1680.19 391.127 1681.95 390.951 Q1683.7 390.776 1684.82 390.541 Q1685.99 390.249 1686.57 389.429 Q1687.22 388.609 1687.51 387.906 Q1687.8 387.145 1688.21 385.447 L1704.02 322.031 Q1704.61 319.864 1704.61 319.161 Q1704.61 318.4 1704.08 317.932 Q1703.61 317.463 1702.33 317.288 Q1701.04 317.053 1699.98 317.053 Q1698.99 316.995 1696.82 316.995 Q1695.42 316.995 1694.83 316.936 Q1694.3 316.878 1693.89 316.585 Q1693.48 316.292 1693.48 315.648 Q1693.48 314.009 1694.19 313.657 Q1694.95 313.247 1697.06 313.247 L1755.85 313.247 Q1758.19 313.247 1758.72 313.774 Q1759.3 314.243 1759.07 316.526 Z" fill="#000000" fill-rule="evenodd" fill-opacity="1" /><path clip-path="url(#clip730)" d="M1801.81 333.532 L1814.02 333.532 L1814.02 348.231 L1801.81 348.231 L1801.81 333.532 M1801.81 380.117 L1814.02 380.117 L1814.02 390.071 L1804.53 408.589 L1797.07 408.589 L1801.81 390.071 L1801.81 380.117 Z" fill="#000000" fill-rule="evenodd" fill-opacity="1" /><path clip-path="url(#clip730)" d="M1887.23 311.599 L1887.23 330.002 L1909.16 330.002 L1909.16 338.277 L1887.23 338.277 L1887.23 373.462 Q1887.23 381.39 1889.37 383.647 Q1891.57 385.904 1898.23 385.904 L1909.16 385.904 L1909.16 394.816 L1898.23 394.816 Q1885.9 394.816 1881.21 390.244 Q1876.52 385.615 1876.52 373.462 L1876.52 338.277 L1868.71 338.277 L1868.71 330.002 L1876.52 330.002 L1876.52 311.599 L1887.23 311.599 Z" fill="#000000" fill-rule="evenodd" fill-opacity="1" /><path clip-path="url(#clip730)" d="M1960.73 339.955 Q1958.93 338.914 1956.79 338.451 Q1954.71 337.93 1952.16 337.93 Q1943.13 337.93 1938.27 343.832 Q1933.47 349.677 1933.47 360.673 L1933.47 394.816 L1922.76 394.816 L1922.76 330.002 L1933.47 330.002 L1933.47 340.071 Q1936.83 334.168 1942.21 331.333 Q1947.59 328.439 1955.29 328.439 Q1956.39 328.439 1957.72 328.613 Q1959.05 328.728 1960.67 329.018 L1960.73 339.955 Z" fill="#000000" fill-rule="evenodd" fill-opacity="1" /><path clip-path="url(#clip730)" d="M1971.89 330.002 L1982.54 330.002 L1982.54 394.816 L1971.89 394.816 L1971.89 330.002 M1971.89 304.77 L1982.54 304.77 L1982.54 318.254 L1971.89 318.254 L1971.89 304.77 Z" fill="#000000" fill-rule="evenodd" fill-opacity="1" /><path clip-path="url(#clip730)" d="M2055.29 342.444 Q2059.28 335.268 2064.83 331.853 Q2070.39 328.439 2077.91 328.439 Q2088.04 328.439 2093.54 335.557 Q2099.03 342.617 2099.03 355.696 L2099.03 394.816 L2088.33 394.816 L2088.33 356.043 Q2088.33 346.726 2085.03 342.212 Q2081.73 337.698 2074.96 337.698 Q2066.69 337.698 2061.88 343.196 Q2057.08 348.694 2057.08 358.184 L2057.08 394.816 L2046.37 394.816 L2046.37 356.043 Q2046.37 346.668 2043.07 342.212 Q2039.78 337.698 2032.89 337.698 Q2024.73 337.698 2019.93 343.254 Q2015.12 348.751 2015.12 358.184 L2015.12 394.816 L2004.42 394.816 L2004.42 330.002 L2015.12 330.002 L2015.12 340.071 Q2018.77 334.11 2023.86 331.275 Q2028.95 328.439 2035.96 328.439 Q2043.02 328.439 2047.94 332.027 Q2052.91 335.615 2055.29 342.444 Z" fill="#000000" fill-rule="evenodd" fill-opacity="1" /><path clip-path="url(#clip730)" d="M2175.71 359.747 L2175.71 364.955 L2126.75 364.955 Q2127.45 375.95 2133.35 381.737 Q2139.31 387.466 2149.9 387.466 Q2156.04 387.466 2161.77 385.962 Q2167.55 384.457 2173.22 381.448 L2173.22 391.517 Q2167.5 393.948 2161.48 395.221 Q2155.46 396.494 2149.27 396.494 Q2133.76 396.494 2124.67 387.466 Q2115.64 378.439 2115.64 363.045 Q2115.64 347.131 2124.21 337.814 Q2132.83 328.439 2147.41 328.439 Q2160.49 328.439 2168.07 336.888 Q2175.71 345.279 2175.71 359.747 M2165.06 356.622 Q2164.95 347.883 2160.15 342.675 Q2155.4 337.467 2147.53 337.467 Q2138.62 337.467 2133.24 342.501 Q2127.91 347.536 2127.1 356.68 L2165.06 356.622 Z" fill="#000000" fill-rule="evenodd" fill-opacity="1" /><path clip-path="url(#clip730)" d="M2230.75 339.955 Q2228.95 338.914 2226.81 338.451 Q2224.73 337.93 2222.18 337.93 Q2213.15 337.93 2208.29 343.832 Q2203.49 349.677 2203.49 360.673 L2203.49 394.816 L2192.78 394.816 L2192.78 330.002 L2203.49 330.002 L2203.49 340.071 Q2206.85 334.168 2212.23 331.333 Q2217.61 328.439 2225.31 328.439 Q2226.41 328.439 2227.74 328.613 Q2229.07 328.728 2230.69 329.018 L2230.75 339.955 Z" fill="#000000" fill-rule="evenodd" fill-opacity="1" /></svg>
