<?xml version="1.0" encoding="utf-8"?>
<svg xmlns="http://www.w3.org/2000/svg" xmlns:xlink="http://www.w3.org/1999/xlink" width="600" height="400" viewBox="0 0 2400 1600">
<defs>
  <clipPath id="clip250">
    <rect x="0" y="0" width="2400" height="1600"/>
  </clipPath>
</defs>
<path clip-path="url(#clip250)" d="
M0 1600 L2400 1600 L2400 0 L0 0  Z
  " fill="#ffffff" fill-rule="evenodd" fill-opacity="1"/>
<defs>
  <clipPath id="clip251">
    <rect x="480" y="0" width="1681" height="1600"/>
  </clipPath>
</defs>
<defs>
  <clipPath id="clip252">
    <rect x="194" y="47" width="2159" height="1308"/>
  </clipPath>
</defs>
<path clip-path="url(#clip250)" d="
M194.776 1354.06 L2352.76 1354.06 L2352.76 47.2441 L194.776 47.2441  Z
  " fill="#ffffff" fill-rule="evenodd" fill-opacity="1"/>
<polyline clip-path="url(#clip252)" style="stroke:#000000; stroke-linecap:round; stroke-linejoin:round; stroke-width:2; stroke-opacity:0.1; fill:none" points="
  255.851,1354.06 255.851,47.2441 
  "/>
<polyline clip-path="url(#clip252)" style="stroke:#000000; stroke-linecap:round; stroke-linejoin:round; stroke-width:2; stroke-opacity:0.1; fill:none" points="
  459.434,1354.06 459.434,47.2441 
  "/>
<polyline clip-path="url(#clip252)" style="stroke:#000000; stroke-linecap:round; stroke-linejoin:round; stroke-width:2; stroke-opacity:0.1; fill:none" points="
  663.017,1354.06 663.017,47.2441 
  "/>
<polyline clip-path="url(#clip252)" style="stroke:#000000; stroke-linecap:round; stroke-linejoin:round; stroke-width:2; stroke-opacity:0.1; fill:none" points="
  866.6,1354.06 866.6,47.2441 
  "/>
<polyline clip-path="url(#clip252)" style="stroke:#000000; stroke-linecap:round; stroke-linejoin:round; stroke-width:2; stroke-opacity:0.1; fill:none" points="
  1070.18,1354.06 1070.18,47.2441 
  "/>
<polyline clip-path="url(#clip252)" style="stroke:#000000; stroke-linecap:round; stroke-linejoin:round; stroke-width:2; stroke-opacity:0.1; fill:none" points="
  1273.77,1354.06 1273.77,47.2441 
  "/>
<polyline clip-path="url(#clip252)" style="stroke:#000000; stroke-linecap:round; stroke-linejoin:round; stroke-width:2; stroke-opacity:0.1; fill:none" points="
  1477.35,1354.06 1477.35,47.2441 
  "/>
<polyline clip-path="url(#clip252)" style="stroke:#000000; stroke-linecap:round; stroke-linejoin:round; stroke-width:2; stroke-opacity:0.1; fill:none" points="
  1680.93,1354.06 1680.93,47.2441 
  "/>
<polyline clip-path="url(#clip252)" style="stroke:#000000; stroke-linecap:round; stroke-linejoin:round; stroke-width:2; stroke-opacity:0.1; fill:none" points="
  1884.51,1354.06 1884.51,47.2441 
  "/>
<polyline clip-path="url(#clip252)" style="stroke:#000000; stroke-linecap:round; stroke-linejoin:round; stroke-width:2; stroke-opacity:0.1; fill:none" points="
  2088.1,1354.06 2088.1,47.2441 
  "/>
<polyline clip-path="url(#clip252)" style="stroke:#000000; stroke-linecap:round; stroke-linejoin:round; stroke-width:2; stroke-opacity:0.1; fill:none" points="
  2291.68,1354.06 2291.68,47.2441 
  "/>
<polyline clip-path="url(#clip250)" style="stroke:#000000; stroke-linecap:round; stroke-linejoin:round; stroke-width:4; stroke-opacity:1; fill:none" points="
  194.776,1354.06 2352.76,1354.06 
  "/>
<polyline clip-path="url(#clip250)" style="stroke:#000000; stroke-linecap:round; stroke-linejoin:round; stroke-width:4; stroke-opacity:1; fill:none" points="
  255.851,1354.06 255.851,1335.16 
  "/>
<polyline clip-path="url(#clip250)" style="stroke:#000000; stroke-linecap:round; stroke-linejoin:round; stroke-width:4; stroke-opacity:1; fill:none" points="
  459.434,1354.06 459.434,1335.16 
  "/>
<polyline clip-path="url(#clip250)" style="stroke:#000000; stroke-linecap:round; stroke-linejoin:round; stroke-width:4; stroke-opacity:1; fill:none" points="
  663.017,1354.06 663.017,1335.16 
  "/>
<polyline clip-path="url(#clip250)" style="stroke:#000000; stroke-linecap:round; stroke-linejoin:round; stroke-width:4; stroke-opacity:1; fill:none" points="
  866.6,1354.06 866.6,1335.16 
  "/>
<polyline clip-path="url(#clip250)" style="stroke:#000000; stroke-linecap:round; stroke-linejoin:round; stroke-width:4; stroke-opacity:1; fill:none" points="
  1070.18,1354.06 1070.18,1335.16 
  "/>
<polyline clip-path="url(#clip250)" style="stroke:#000000; stroke-linecap:round; stroke-linejoin:round; stroke-width:4; stroke-opacity:1; fill:none" points="
  1273.77,1354.06 1273.77,1335.16 
  "/>
<polyline clip-path="url(#clip250)" style="stroke:#000000; stroke-linecap:round; stroke-linejoin:round; stroke-width:4; stroke-opacity:1; fill:none" points="
  1477.35,1354.06 1477.35,1335.16 
  "/>
<polyline clip-path="url(#clip250)" style="stroke:#000000; stroke-linecap:round; stroke-linejoin:round; stroke-width:4; stroke-opacity:1; fill:none" points="
  1680.93,1354.06 1680.93,1335.16 
  "/>
<polyline clip-path="url(#clip250)" style="stroke:#000000; stroke-linecap:round; stroke-linejoin:round; stroke-width:4; stroke-opacity:1; fill:none" points="
  1884.51,1354.06 1884.51,1335.16 
  "/>
<polyline clip-path="url(#clip250)" style="stroke:#000000; stroke-linecap:round; stroke-linejoin:round; stroke-width:4; stroke-opacity:1; fill:none" points="
  2088.1,1354.06 2088.1,1335.16 
  "/>
<polyline clip-path="url(#clip250)" style="stroke:#000000; stroke-linecap:round; stroke-linejoin:round; stroke-width:4; stroke-opacity:1; fill:none" points="
  2291.68,1354.06 2291.68,1335.16 
  "/>
<path clip-path="url(#clip250)" d="M255.851 1395.23 Q249.08 1395.23 245.651 1401.92 Q242.266 1408.56 242.266 1421.92 Q242.266 1435.25 245.651 1441.93 Q249.08 1448.57 255.851 1448.57 Q262.665 1448.57 266.05 1441.93 Q269.479 1435.25 269.479 1421.92 Q269.479 1408.56 266.05 1401.92 Q262.665 1395.23 255.851 1395.23 M255.851 1388.29 Q266.745 1388.29 272.474 1396.93 Q278.246 1405.52 278.246 1421.92 Q278.246 1438.29 272.474 1446.92 Q266.745 1455.52 255.851 1455.52 Q244.957 1455.52 239.184 1446.92 Q233.455 1438.29 233.455 1421.92 Q233.455 1405.52 239.184 1396.93 Q244.957 1388.29 255.851 1388.29 Z" fill="#000000" fill-rule="evenodd" fill-opacity="1" /><path clip-path="url(#clip250)" d="M622.11 1395.23 Q615.339 1395.23 611.91 1401.92 Q608.525 1408.56 608.525 1421.92 Q608.525 1435.25 611.91 1441.93 Q615.339 1448.57 622.11 1448.57 Q628.924 1448.57 632.309 1441.93 Q635.738 1435.25 635.738 1421.92 Q635.738 1408.56 632.309 1401.92 Q628.924 1395.23 622.11 1395.23 M622.11 1388.29 Q633.004 1388.29 638.733 1396.93 Q644.505 1405.52 644.505 1421.92 Q644.505 1438.29 638.733 1446.92 Q633.004 1455.52 622.11 1455.52 Q611.216 1455.52 605.443 1446.92 Q599.714 1438.29 599.714 1421.92 Q599.714 1405.52 605.443 1396.93 Q611.216 1388.29 622.11 1388.29 Z" fill="#000000" fill-rule="evenodd" fill-opacity="1" /><path clip-path="url(#clip250)" d="M659.913 1443.24 L669.071 1443.24 L669.071 1454.26 L659.913 1454.26 L659.913 1443.24 Z" fill="#000000" fill-rule="evenodd" fill-opacity="1" /><path clip-path="url(#clip250)" d="M695.72 1446.88 L726.319 1446.88 L726.319 1454.26 L685.174 1454.26 L685.174 1446.88 Q690.165 1441.72 698.759 1433.04 Q707.396 1424.31 709.609 1421.79 Q713.819 1417.06 715.469 1413.81 Q717.161 1410.51 717.161 1407.34 Q717.161 1402.18 713.516 1398.92 Q709.913 1395.67 704.097 1395.67 Q699.974 1395.67 695.373 1397.1 Q690.816 1398.53 685.608 1401.44 L685.608 1392.58 Q690.903 1390.46 695.503 1389.37 Q700.104 1388.29 703.924 1388.29 Q713.993 1388.29 719.983 1393.32 Q725.972 1398.36 725.972 1406.78 Q725.972 1410.77 724.453 1414.37 Q722.977 1417.93 719.028 1422.79 Q717.943 1424.05 712.127 1430.08 Q706.311 1436.07 695.72 1446.88 Z" fill="#000000" fill-rule="evenodd" fill-opacity="1" /><path clip-path="url(#clip250)" d="M1027.32 1395.23 Q1020.55 1395.23 1017.12 1401.92 Q1013.74 1408.56 1013.74 1421.92 Q1013.74 1435.25 1017.12 1441.93 Q1020.55 1448.57 1027.32 1448.57 Q1034.14 1448.57 1037.52 1441.93 Q1040.95 1435.25 1040.95 1421.92 Q1040.95 1408.56 1037.52 1401.92 Q1034.14 1395.23 1027.32 1395.23 M1027.32 1388.29 Q1038.22 1388.29 1043.95 1396.93 Q1049.72 1405.52 1049.72 1421.92 Q1049.72 1438.29 1043.95 1446.92 Q1038.22 1455.52 1027.32 1455.52 Q1016.43 1455.52 1010.66 1446.92 Q1004.93 1438.29 1004.93 1421.92 Q1004.93 1405.52 1010.66 1396.93 Q1016.43 1388.29 1027.32 1388.29 Z" fill="#000000" fill-rule="evenodd" fill-opacity="1" /><path clip-path="url(#clip250)" d="M1065.13 1443.24 L1074.28 1443.24 L1074.28 1454.26 L1065.13 1454.26 L1065.13 1443.24 Z" fill="#000000" fill-rule="evenodd" fill-opacity="1" /><path clip-path="url(#clip250)" d="M1117.47 1397.1 L1095.33 1431.69 L1117.47 1431.69 L1117.47 1397.1 M1115.17 1389.46 L1126.19 1389.46 L1126.19 1431.69 L1135.44 1431.69 L1135.44 1438.98 L1126.19 1438.98 L1126.19 1454.26 L1117.47 1454.26 L1117.47 1438.98 L1088.22 1438.98 L1088.22 1430.52 L1115.17 1389.46 Z" fill="#000000" fill-rule="evenodd" fill-opacity="1" /><path clip-path="url(#clip250)" d="M1434.79 1395.23 Q1428.02 1395.23 1424.59 1401.92 Q1421.21 1408.56 1421.21 1421.92 Q1421.21 1435.25 1424.59 1441.93 Q1428.02 1448.57 1434.79 1448.57 Q1441.61 1448.57 1444.99 1441.93 Q1448.42 1435.25 1448.42 1421.92 Q1448.42 1408.56 1444.99 1401.92 Q1441.61 1395.23 1434.79 1395.23 M1434.79 1388.29 Q1445.69 1388.29 1451.42 1396.93 Q1457.19 1405.52 1457.19 1421.92 Q1457.19 1438.29 1451.42 1446.92 Q1445.69 1455.52 1434.79 1455.52 Q1423.9 1455.52 1418.13 1446.92 Q1412.4 1438.29 1412.4 1421.92 Q1412.4 1405.52 1418.13 1396.93 Q1423.9 1388.29 1434.79 1388.29 Z" fill="#000000" fill-rule="evenodd" fill-opacity="1" /><path clip-path="url(#clip250)" d="M1472.6 1443.24 L1481.75 1443.24 L1481.75 1454.26 L1472.6 1454.26 L1472.6 1443.24 Z" fill="#000000" fill-rule="evenodd" fill-opacity="1" /><path clip-path="url(#clip250)" d="M1520.69 1418.37 Q1514.78 1418.37 1511.31 1422.4 Q1507.88 1426.44 1507.88 1433.47 Q1507.88 1440.46 1511.31 1444.54 Q1514.78 1448.57 1520.69 1448.57 Q1526.59 1448.57 1530.02 1444.54 Q1533.49 1440.46 1533.49 1433.47 Q1533.49 1426.44 1530.02 1422.4 Q1526.59 1418.37 1520.69 1418.37 M1538.09 1390.89 L1538.09 1398.88 Q1534.79 1397.32 1531.41 1396.49 Q1528.06 1395.67 1524.77 1395.67 Q1516.09 1395.67 1511.48 1401.53 Q1506.93 1407.39 1506.28 1419.23 Q1508.84 1415.46 1512.7 1413.46 Q1516.56 1411.42 1521.21 1411.42 Q1530.97 1411.42 1536.62 1417.37 Q1542.3 1423.27 1542.3 1433.47 Q1542.3 1443.45 1536.4 1449.49 Q1530.5 1455.52 1520.69 1455.52 Q1509.45 1455.52 1503.5 1446.92 Q1497.55 1438.29 1497.55 1421.92 Q1497.55 1406.56 1504.84 1397.45 Q1512.14 1388.29 1524.42 1388.29 Q1527.72 1388.29 1531.06 1388.94 Q1534.44 1389.59 1538.09 1390.89 Z" fill="#000000" fill-rule="evenodd" fill-opacity="1" /><path clip-path="url(#clip250)" d="M1842.2 1395.23 Q1835.43 1395.23 1832 1401.92 Q1828.61 1408.56 1828.61 1421.92 Q1828.61 1435.25 1832 1441.93 Q1835.43 1448.57 1842.2 1448.57 Q1849.01 1448.57 1852.4 1441.93 Q1855.83 1435.25 1855.83 1421.92 Q1855.83 1408.56 1852.4 1401.92 Q1849.01 1395.23 1842.2 1395.23 M1842.2 1388.29 Q1853.09 1388.29 1858.82 1396.93 Q1864.59 1405.52 1864.59 1421.92 Q1864.59 1438.29 1858.82 1446.92 Q1853.09 1455.52 1842.2 1455.52 Q1831.3 1455.52 1825.53 1446.92 Q1819.8 1438.29 1819.8 1421.92 Q1819.8 1405.52 1825.53 1396.93 Q1831.3 1388.29 1842.2 1388.29 Z" fill="#000000" fill-rule="evenodd" fill-opacity="1" /><path clip-path="url(#clip250)" d="M1880 1443.24 L1889.16 1443.24 L1889.16 1454.26 L1880 1454.26 L1880 1443.24 Z" fill="#000000" fill-rule="evenodd" fill-opacity="1" /><path clip-path="url(#clip250)" d="M1927.01 1423.49 Q1920.76 1423.49 1917.15 1426.83 Q1913.59 1430.17 1913.59 1436.03 Q1913.59 1441.89 1917.15 1445.23 Q1920.76 1448.57 1927.01 1448.57 Q1933.26 1448.57 1936.86 1445.23 Q1940.46 1441.85 1940.46 1436.03 Q1940.46 1430.17 1936.86 1426.83 Q1933.3 1423.49 1927.01 1423.49 M1918.24 1419.75 Q1912.6 1418.37 1909.43 1414.5 Q1906.3 1410.64 1906.3 1405.08 Q1906.3 1397.32 1911.82 1392.8 Q1917.37 1388.29 1927.01 1388.29 Q1936.68 1388.29 1942.2 1392.8 Q1947.71 1397.32 1947.71 1405.08 Q1947.71 1410.64 1944.54 1414.5 Q1941.42 1418.37 1935.82 1419.75 Q1942.15 1421.23 1945.67 1425.53 Q1949.23 1429.82 1949.23 1436.03 Q1949.23 1445.45 1943.46 1450.48 Q1937.73 1455.52 1927.01 1455.52 Q1916.29 1455.52 1910.51 1450.48 Q1904.78 1445.45 1904.78 1436.03 Q1904.78 1429.82 1908.34 1425.53 Q1911.9 1421.23 1918.24 1419.75 M1915.03 1405.91 Q1915.03 1410.94 1918.15 1413.77 Q1921.32 1416.59 1927.01 1416.59 Q1932.65 1416.59 1935.82 1413.77 Q1939.03 1410.94 1939.03 1405.91 Q1939.03 1400.87 1935.82 1398.05 Q1932.65 1395.23 1927.01 1395.23 Q1921.32 1395.23 1918.15 1398.05 Q1915.03 1400.87 1915.03 1405.91 Z" fill="#000000" fill-rule="evenodd" fill-opacity="1" /><path clip-path="url(#clip250)" d="M2273.65 1446.88 L2287.97 1446.88 L2287.97 1397.45 L2272.39 1400.57 L2272.39 1392.58 L2287.88 1389.46 L2296.65 1389.46 L2296.65 1446.88 L2310.97 1446.88 L2310.97 1454.26 L2273.65 1454.26 L2273.65 1446.88 Z" fill="#000000" fill-rule="evenodd" fill-opacity="1" /><path clip-path="url(#clip250)" d="M1299.53 1519.59 Q1299.53 1522.87 1297.49 1524.74 Q1295.44 1526.56 1293.09 1526.56 Q1290.87 1526.56 1289.7 1525.27 Q1288.53 1523.98 1288.53 1522.34 Q1288.53 1520.12 1290.17 1518.18 Q1291.81 1516.25 1294.26 1515.84 Q1291.86 1514.32 1288.29 1514.32 Q1285.95 1514.32 1283.9 1515.55 Q1281.91 1516.78 1280.68 1518.36 Q1279.51 1519.94 1278.45 1522.22 Q1277.46 1524.45 1277.05 1525.8 Q1276.7 1527.08 1276.41 1528.49 L1272.31 1544.89 Q1270.32 1552.67 1270.32 1555.43 Q1270.32 1558.82 1271.95 1561.11 Q1273.59 1563.33 1276.87 1563.33 Q1278.16 1563.33 1279.63 1562.98 Q1281.09 1562.57 1282.96 1561.52 Q1284.9 1560.4 1286.59 1558.76 Q1288.35 1557.07 1290.05 1554.2 Q1291.75 1551.33 1292.86 1547.64 Q1293.21 1546.35 1294.38 1546.35 Q1295.85 1546.35 1295.85 1547.52 Q1295.85 1548.52 1295.03 1550.62 Q1294.26 1552.67 1292.57 1555.37 Q1290.93 1558 1288.76 1560.4 Q1286.59 1562.75 1283.37 1564.39 Q1280.15 1566.02 1276.64 1566.02 Q1271.6 1566.02 1268.27 1563.33 Q1264.93 1560.64 1263.7 1556.89 Q1263.41 1557.42 1263 1558.12 Q1262.59 1558.82 1261.36 1560.4 Q1260.19 1561.93 1258.84 1563.1 Q1257.49 1564.21 1255.38 1565.09 Q1253.33 1566.02 1251.11 1566.02 Q1248.3 1566.02 1245.78 1565.2 Q1243.32 1564.39 1241.56 1562.51 Q1239.81 1560.64 1239.81 1558.06 Q1239.81 1555.19 1241.74 1553.2 Q1243.73 1551.15 1246.42 1551.15 Q1248.12 1551.15 1249.47 1552.15 Q1250.87 1553.14 1250.87 1555.31 Q1250.87 1557.71 1249.24 1559.53 Q1247.6 1561.34 1245.25 1561.81 Q1247.65 1563.33 1251.23 1563.33 Q1255.09 1563.33 1258.14 1559.93 Q1261.18 1556.54 1262.64 1550.86 Q1266.27 1537.22 1267.68 1531.13 Q1269.09 1524.98 1269.09 1522.34 Q1269.09 1519.88 1268.44 1518.18 Q1267.8 1516.49 1266.68 1515.73 Q1265.63 1514.91 1264.64 1514.61 Q1263.7 1514.32 1262.64 1514.32 Q1260.89 1514.32 1258.9 1515.02 Q1256.96 1515.73 1254.62 1517.36 Q1252.34 1518.95 1250.17 1522.22 Q1248.01 1525.5 1246.54 1530.01 Q1246.25 1531.36 1244.96 1531.36 Q1243.56 1531.3 1243.56 1530.13 Q1243.56 1529.13 1244.32 1527.08 Q1245.14 1524.98 1246.78 1522.34 Q1248.47 1519.71 1250.64 1517.36 Q1252.87 1514.96 1256.09 1513.32 Q1259.37 1511.68 1262.88 1511.68 Q1264.46 1511.68 1265.98 1512.04 Q1267.56 1512.33 1269.44 1513.21 Q1271.37 1514.09 1273.07 1516.02 Q1274.77 1517.95 1275.82 1520.76 Q1276.52 1519.41 1277.46 1518.13 Q1278.45 1516.84 1279.98 1515.26 Q1281.56 1513.62 1283.72 1512.68 Q1285.95 1511.68 1288.41 1511.68 Q1290.81 1511.68 1293.15 1512.33 Q1295.49 1512.91 1297.49 1514.85 Q1299.53 1516.72 1299.53 1519.59 Z" fill="#000000" fill-rule="evenodd" fill-opacity="1" /><polyline clip-path="url(#clip252)" style="stroke:#000000; stroke-linecap:round; stroke-linejoin:round; stroke-width:2; stroke-opacity:0.1; fill:none" points="
  194.776,814.924 2352.76,814.924 
  "/>
<polyline clip-path="url(#clip250)" style="stroke:#000000; stroke-linecap:round; stroke-linejoin:round; stroke-width:4; stroke-opacity:1; fill:none" points="
  194.776,1354.06 194.776,47.2441 
  "/>
<polyline clip-path="url(#clip250)" style="stroke:#000000; stroke-linecap:round; stroke-linejoin:round; stroke-width:4; stroke-opacity:1; fill:none" points="
  194.776,814.924 213.673,814.924 
  "/>
<path clip-path="url(#clip250)" d="M136.38 788.296 Q129.609 788.296 126.18 794.98 Q122.795 801.621 122.795 814.989 Q122.795 828.313 126.18 834.997 Q129.609 841.638 136.38 841.638 Q143.194 841.638 146.58 834.997 Q150.008 828.313 150.008 814.989 Q150.008 801.621 146.58 794.98 Q143.194 788.296 136.38 788.296 M136.38 781.352 Q147.274 781.352 153.003 789.989 Q158.776 798.583 158.776 814.989 Q158.776 831.351 153.003 839.989 Q147.274 848.582 136.38 848.582 Q125.486 848.582 119.713 839.989 Q113.984 831.351 113.984 814.989 Q113.984 798.583 119.713 789.989 Q125.486 781.352 136.38 781.352 Z" fill="#000000" fill-rule="evenodd" fill-opacity="1" /><polyline clip-path="url(#clip252)" style="stroke:#000000; stroke-linecap:round; stroke-linejoin:round; stroke-width:12; stroke-opacity:1; fill:none" points="
  255.851,814.924 266.081,814.691 276.311,813.993 286.542,812.834 296.772,811.219 307.002,809.158 317.232,806.659 327.463,803.737 337.693,800.405 347.923,796.681 
  358.154,792.584 368.384,788.135 378.614,783.357 388.845,778.275 399.075,772.915 409.305,767.307 419.535,761.478 429.766,755.462 439.996,749.289 450.226,742.994 
  460.457,736.612 470.687,730.177 480.917,723.727 491.148,717.297 501.378,710.927 511.608,704.653 521.838,698.513 532.069,692.545 542.299,686.787 552.529,681.276 
  562.76,676.051 572.99,671.146 583.22,666.599 593.451,662.443 603.681,658.713 613.911,655.441 624.142,652.659 634.372,650.397 644.602,648.682 654.832,647.542 
  665.063,647.002 675.293,647.083 685.523,647.808 695.754,649.193 705.984,651.257 716.214,654.012 726.445,657.47 736.675,661.64 746.905,666.528 757.135,672.139 
  767.366,678.472 777.596,685.527 787.826,693.298 798.057,701.779 808.287,710.959 818.517,720.826 828.748,731.363 838.978,742.552 849.208,754.373 859.438,766.8 
  869.669,779.807 879.899,793.366 890.129,807.443 900.36,822.005 910.59,837.015 920.82,852.434 931.051,868.221 941.281,884.332 951.511,900.722 961.742,917.343 
  971.972,934.148 982.202,951.085 992.432,968.102 1002.66,985.147 1012.89,1002.16 1023.12,1019.1 1033.35,1035.9 1043.58,1052.5 1053.81,1068.85 1064.04,1084.89 
  1074.27,1100.57 1084.51,1115.82 1094.74,1130.59 1104.97,1144.82 1115.2,1158.47 1125.43,1171.46 1135.66,1183.75 1145.89,1195.29 1156.12,1206.02 1166.35,1215.9 
  1176.58,1224.88 1186.81,1232.91 1197.04,1239.95 1207.27,1245.96 1217.5,1250.9 1227.73,1254.74 1237.96,1257.43 1248.19,1258.96 1258.42,1259.28 1268.65,1258.39 
  1278.88,1256.26 1289.11,1252.87 1299.34,1248.21 1309.57,1242.27 1319.8,1235.04 1330.03,1226.53 1340.26,1216.72 1350.49,1205.63 1360.72,1193.27 1370.95,1179.64 
  1381.18,1164.78 1391.41,1148.69 1401.64,1131.4 1411.87,1112.94 1422.11,1093.35 1432.34,1072.66 1442.57,1050.91 1452.8,1028.15 1463.03,1004.42 1473.26,979.772 
  1483.49,954.266 1493.72,927.956 1503.95,900.904 1514.18,873.175 1524.41,844.835 1534.64,815.955 1544.87,786.605 1555.1,756.862 1565.33,726.802 1575.56,696.503 
  1585.79,666.047 1596.02,635.515 1606.25,604.991 1616.48,574.558 1626.71,544.304 1636.94,514.313 1647.17,484.673 1657.4,455.469 1667.63,426.789 1677.86,398.718 
  1688.09,371.342 1698.32,344.745 1708.55,319.012 1718.78,294.224 1729.01,270.461 1739.24,247.804 1749.47,226.328 1759.71,206.107 1769.94,187.214 1780.17,169.716 
  1790.4,153.681 1800.63,139.17 1810.86,126.243 1821.09,114.954 1831.32,105.356 1841.55,97.4962 1851.78,91.4169 1862.01,87.1574 1872.24,84.7518 1882.47,84.2294 
  1892.7,85.615 1902.93,88.9282 1913.16,94.1833 1923.39,101.39 1933.62,110.552 1943.85,121.668 1954.08,134.732 1964.31,149.732 1974.54,166.65 1984.77,185.463 
  1995,206.142 2005.23,228.655 2015.46,252.962 2025.69,279.019 2035.92,306.775 2046.15,336.176 2056.38,367.162 2066.61,399.669 2076.84,433.625 2087.07,468.958 
  2097.31,505.587 2107.54,543.43 2117.77,582.4 2128,622.405 2138.23,663.349 2148.46,705.135 2158.69,747.66 2168.92,790.82 2179.15,834.506 2189.38,878.608 
  2199.61,923.015 2209.84,967.611 2220.07,1012.28 2230.3,1056.91 2240.53,1101.37 2250.76,1145.55 2260.99,1189.33 2271.22,1232.59 2281.45,1275.21 2291.68,1317.07 
  
  "/>
<circle clip-path="url(#clip252)" cx="278.701" cy="813.763" r="21.6" fill="#008000" fill-rule="evenodd" fill-opacity="1" stroke="#000000" stroke-opacity="1" stroke-width="3.2"/>
<circle clip-path="url(#clip252)" cx="2206.16" cy="951.553" r="21.6" fill="#008000" fill-rule="evenodd" fill-opacity="1" stroke="#000000" stroke-opacity="1" stroke-width="3.2"/>
<circle clip-path="url(#clip252)" cx="1252.09" cy="1259.22" r="21.6" fill="#008000" fill-rule="evenodd" fill-opacity="1" stroke="#000000" stroke-opacity="1" stroke-width="3.2"/>
<circle clip-path="url(#clip252)" cx="415.225" cy="763.959" r="21.6" fill="#008000" fill-rule="evenodd" fill-opacity="1" stroke="#000000" stroke-opacity="1" stroke-width="3.2"/>
<circle clip-path="url(#clip252)" cx="2082.74" cy="453.84" r="21.6" fill="#008000" fill-rule="evenodd" fill-opacity="1" stroke="#000000" stroke-opacity="1" stroke-width="3.2"/>
<circle clip-path="url(#clip252)" cx="2032.21" cy="296.495" r="21.6" fill="#008000" fill-rule="evenodd" fill-opacity="1" stroke="#000000" stroke-opacity="1" stroke-width="3.2"/>
<circle clip-path="url(#clip252)" cx="999.182" cy="979.348" r="21.6" fill="#008000" fill-rule="evenodd" fill-opacity="1" stroke="#000000" stroke-opacity="1" stroke-width="3.2"/>
<circle clip-path="url(#clip252)" cx="899.254" cy="820.409" r="21.6" fill="#008000" fill-rule="evenodd" fill-opacity="1" stroke="#000000" stroke-opacity="1" stroke-width="3.2"/>
<circle clip-path="url(#clip252)" cx="2191.61" cy="888.28" r="21.6" fill="#008000" fill-rule="evenodd" fill-opacity="1" stroke="#000000" stroke-opacity="1" stroke-width="3.2"/>
<circle clip-path="url(#clip252)" cx="1103.26" cy="1142.48" r="21.6" fill="#008000" fill-rule="evenodd" fill-opacity="1" stroke="#000000" stroke-opacity="1" stroke-width="3.2"/>
<circle clip-path="url(#clip252)" cx="298.535" cy="810.896" r="21.6" fill="#008000" fill-rule="evenodd" fill-opacity="1" stroke="#000000" stroke-opacity="1" stroke-width="3.2"/>
<circle clip-path="url(#clip252)" cx="2178.69" cy="832.538" r="21.6" fill="#008000" fill-rule="evenodd" fill-opacity="1" stroke="#000000" stroke-opacity="1" stroke-width="3.2"/>
<circle clip-path="url(#clip252)" cx="1347.09" cy="1209.46" r="21.6" fill="#008000" fill-rule="evenodd" fill-opacity="1" stroke="#000000" stroke-opacity="1" stroke-width="3.2"/>
<circle clip-path="url(#clip252)" cx="1279.1" cy="1256.2" r="21.6" fill="#008000" fill-rule="evenodd" fill-opacity="1" stroke="#000000" stroke-opacity="1" stroke-width="3.2"/>
<circle clip-path="url(#clip252)" cx="832.287" cy="735.161" r="21.6" fill="#008000" fill-rule="evenodd" fill-opacity="1" stroke="#000000" stroke-opacity="1" stroke-width="3.2"/>
<circle clip-path="url(#clip252)" cx="981.571" cy="950.038" r="21.6" fill="#008000" fill-rule="evenodd" fill-opacity="1" stroke="#000000" stroke-opacity="1" stroke-width="3.2"/>
<circle clip-path="url(#clip252)" cx="874.241" cy="785.801" r="21.6" fill="#008000" fill-rule="evenodd" fill-opacity="1" stroke="#000000" stroke-opacity="1" stroke-width="3.2"/>
<circle clip-path="url(#clip252)" cx="998.773" cy="978.666" r="21.6" fill="#008000" fill-rule="evenodd" fill-opacity="1" stroke="#000000" stroke-opacity="1" stroke-width="3.2"/>
<circle clip-path="url(#clip252)" cx="1272.55" cy="1257.73" r="21.6" fill="#008000" fill-rule="evenodd" fill-opacity="1" stroke="#000000" stroke-opacity="1" stroke-width="3.2"/>
<circle clip-path="url(#clip252)" cx="2040.92" cy="320.923" r="21.6" fill="#008000" fill-rule="evenodd" fill-opacity="1" stroke="#000000" stroke-opacity="1" stroke-width="3.2"/>
<circle clip-path="url(#clip252)" cx="1039.53" cy="1045.95" r="21.6" fill="#008000" fill-rule="evenodd" fill-opacity="1" stroke="#000000" stroke-opacity="1" stroke-width="3.2"/>
<circle clip-path="url(#clip252)" cx="2092.82" cy="489.371" r="21.6" fill="#008000" fill-rule="evenodd" fill-opacity="1" stroke="#000000" stroke-opacity="1" stroke-width="3.2"/>
<circle clip-path="url(#clip252)" cx="2031.81" cy="295.424" r="21.6" fill="#008000" fill-rule="evenodd" fill-opacity="1" stroke="#000000" stroke-opacity="1" stroke-width="3.2"/>
<circle clip-path="url(#clip252)" cx="605.449" cy="658.114" r="21.6" fill="#008000" fill-rule="evenodd" fill-opacity="1" stroke="#000000" stroke-opacity="1" stroke-width="3.2"/>
<circle clip-path="url(#clip252)" cx="1331.59" cy="1225.11" r="21.6" fill="#008000" fill-rule="evenodd" fill-opacity="1" stroke="#000000" stroke-opacity="1" stroke-width="3.2"/>
<circle clip-path="url(#clip252)" cx="664.77" cy="647.009" r="21.6" fill="#008000" fill-rule="evenodd" fill-opacity="1" stroke="#000000" stroke-opacity="1" stroke-width="3.2"/>
<circle clip-path="url(#clip252)" cx="396.512" cy="774.283" r="21.6" fill="#008000" fill-rule="evenodd" fill-opacity="1" stroke="#000000" stroke-opacity="1" stroke-width="3.2"/>
<circle clip-path="url(#clip252)" cx="2205.41" cy="948.303" r="21.6" fill="#008000" fill-rule="evenodd" fill-opacity="1" stroke="#000000" stroke-opacity="1" stroke-width="3.2"/>
<circle clip-path="url(#clip252)" cx="2074.27" cy="424.935" r="21.6" fill="#008000" fill-rule="evenodd" fill-opacity="1" stroke="#000000" stroke-opacity="1" stroke-width="3.2"/>
<circle clip-path="url(#clip252)" cx="653.566" cy="647.651" r="21.6" fill="#008000" fill-rule="evenodd" fill-opacity="1" stroke="#000000" stroke-opacity="1" stroke-width="3.2"/>
<circle clip-path="url(#clip252)" cx="1550.63" cy="769.911" r="21.6" fill="#008000" fill-rule="evenodd" fill-opacity="1" stroke="#000000" stroke-opacity="1" stroke-width="3.2"/>
<circle clip-path="url(#clip252)" cx="1466.83" cy="995.359" r="21.6" fill="#008000" fill-rule="evenodd" fill-opacity="1" stroke="#000000" stroke-opacity="1" stroke-width="3.2"/>
<circle clip-path="url(#clip252)" cx="867.228" cy="776.653" r="21.6" fill="#008000" fill-rule="evenodd" fill-opacity="1" stroke="#000000" stroke-opacity="1" stroke-width="3.2"/>
<circle clip-path="url(#clip252)" cx="1151.33" cy="1201.1" r="21.6" fill="#008000" fill-rule="evenodd" fill-opacity="1" stroke="#000000" stroke-opacity="1" stroke-width="3.2"/>
<circle clip-path="url(#clip252)" cx="1530.78" cy="826.903" r="21.6" fill="#008000" fill-rule="evenodd" fill-opacity="1" stroke="#000000" stroke-opacity="1" stroke-width="3.2"/>
<circle clip-path="url(#clip252)" cx="1072.24" cy="1097.48" r="21.6" fill="#008000" fill-rule="evenodd" fill-opacity="1" stroke="#000000" stroke-opacity="1" stroke-width="3.2"/>
<circle clip-path="url(#clip252)" cx="787.941" cy="693.389" r="21.6" fill="#008000" fill-rule="evenodd" fill-opacity="1" stroke="#000000" stroke-opacity="1" stroke-width="3.2"/>
<circle clip-path="url(#clip252)" cx="1930.59" cy="107.635" r="21.6" fill="#008000" fill-rule="evenodd" fill-opacity="1" stroke="#000000" stroke-opacity="1" stroke-width="3.2"/>
<circle clip-path="url(#clip252)" cx="1359.58" cy="1194.71" r="21.6" fill="#008000" fill-rule="evenodd" fill-opacity="1" stroke="#000000" stroke-opacity="1" stroke-width="3.2"/>
<circle clip-path="url(#clip252)" cx="411.892" cy="765.852" r="21.6" fill="#008000" fill-rule="evenodd" fill-opacity="1" stroke="#000000" stroke-opacity="1" stroke-width="3.2"/>
<circle clip-path="url(#clip252)" cx="1455.73" cy="1021.44" r="21.6" fill="#008000" fill-rule="evenodd" fill-opacity="1" stroke="#000000" stroke-opacity="1" stroke-width="3.2"/>
<circle clip-path="url(#clip252)" cx="740.51" cy="663.388" r="21.6" fill="#008000" fill-rule="evenodd" fill-opacity="1" stroke="#000000" stroke-opacity="1" stroke-width="3.2"/>
<circle clip-path="url(#clip252)" cx="1947.04" cy="125.528" r="21.6" fill="#008000" fill-rule="evenodd" fill-opacity="1" stroke="#000000" stroke-opacity="1" stroke-width="3.2"/>
<circle clip-path="url(#clip252)" cx="760.522" cy="674.155" r="21.6" fill="#008000" fill-rule="evenodd" fill-opacity="1" stroke="#000000" stroke-opacity="1" stroke-width="3.2"/>
<circle clip-path="url(#clip252)" cx="1305.03" cy="1245.07" r="21.6" fill="#008000" fill-rule="evenodd" fill-opacity="1" stroke="#000000" stroke-opacity="1" stroke-width="3.2"/>
<circle clip-path="url(#clip252)" cx="905.913" cy="830.099" r="21.6" fill="#008000" fill-rule="evenodd" fill-opacity="1" stroke="#000000" stroke-opacity="1" stroke-width="3.2"/>
<circle clip-path="url(#clip252)" cx="413.842" cy="764.747" r="21.6" fill="#008000" fill-rule="evenodd" fill-opacity="1" stroke="#000000" stroke-opacity="1" stroke-width="3.2"/>
<circle clip-path="url(#clip252)" cx="1324.76" cy="1231.08" r="21.6" fill="#008000" fill-rule="evenodd" fill-opacity="1" stroke="#000000" stroke-opacity="1" stroke-width="3.2"/>
<circle clip-path="url(#clip252)" cx="1097.3" cy="1134.22" r="21.6" fill="#008000" fill-rule="evenodd" fill-opacity="1" stroke="#000000" stroke-opacity="1" stroke-width="3.2"/>
<circle clip-path="url(#clip252)" cx="486.442" cy="720.25" r="21.6" fill="#008000" fill-rule="evenodd" fill-opacity="1" stroke="#000000" stroke-opacity="1" stroke-width="3.2"/>
<circle clip-path="url(#clip252)" cx="1264.33" cy="1258.92" r="21.6" fill="#008000" fill-rule="evenodd" fill-opacity="1" stroke="#000000" stroke-opacity="1" stroke-width="3.2"/>
<circle clip-path="url(#clip252)" cx="301.345" cy="810.352" r="21.6" fill="#008000" fill-rule="evenodd" fill-opacity="1" stroke="#000000" stroke-opacity="1" stroke-width="3.2"/>
<circle clip-path="url(#clip252)" cx="1179.75" cy="1227.48" r="21.6" fill="#008000" fill-rule="evenodd" fill-opacity="1" stroke="#000000" stroke-opacity="1" stroke-width="3.2"/>
<circle clip-path="url(#clip252)" cx="1136.72" cy="1184.99" r="21.6" fill="#008000" fill-rule="evenodd" fill-opacity="1" stroke="#000000" stroke-opacity="1" stroke-width="3.2"/>
<circle clip-path="url(#clip252)" cx="627.8" cy="651.789" r="21.6" fill="#008000" fill-rule="evenodd" fill-opacity="1" stroke="#000000" stroke-opacity="1" stroke-width="3.2"/>
<circle clip-path="url(#clip252)" cx="1007.45" cy="993.117" r="21.6" fill="#008000" fill-rule="evenodd" fill-opacity="1" stroke="#000000" stroke-opacity="1" stroke-width="3.2"/>
<circle clip-path="url(#clip252)" cx="528.989" cy="694.321" r="21.6" fill="#008000" fill-rule="evenodd" fill-opacity="1" stroke="#000000" stroke-opacity="1" stroke-width="3.2"/>
<circle clip-path="url(#clip252)" cx="320.897" cy="805.66" r="21.6" fill="#008000" fill-rule="evenodd" fill-opacity="1" stroke="#000000" stroke-opacity="1" stroke-width="3.2"/>
<circle clip-path="url(#clip252)" cx="1834.57" cy="102.664" r="21.6" fill="#008000" fill-rule="evenodd" fill-opacity="1" stroke="#000000" stroke-opacity="1" stroke-width="3.2"/>
<circle clip-path="url(#clip252)" cx="1135.13" cy="1183.13" r="21.6" fill="#008000" fill-rule="evenodd" fill-opacity="1" stroke="#000000" stroke-opacity="1" stroke-width="3.2"/>
<circle clip-path="url(#clip252)" cx="1221.7" cy="1252.61" r="21.6" fill="#008000" fill-rule="evenodd" fill-opacity="1" stroke="#000000" stroke-opacity="1" stroke-width="3.2"/>
<circle clip-path="url(#clip252)" cx="1408.25" cy="1119.61" r="21.6" fill="#008000" fill-rule="evenodd" fill-opacity="1" stroke="#000000" stroke-opacity="1" stroke-width="3.2"/>
<circle clip-path="url(#clip252)" cx="1410.9" cy="1114.75" r="21.6" fill="#008000" fill-rule="evenodd" fill-opacity="1" stroke="#000000" stroke-opacity="1" stroke-width="3.2"/>
<circle clip-path="url(#clip252)" cx="1273.51" cy="1257.54" r="21.6" fill="#008000" fill-rule="evenodd" fill-opacity="1" stroke="#000000" stroke-opacity="1" stroke-width="3.2"/>
<circle clip-path="url(#clip252)" cx="1491.81" cy="932.927" r="21.6" fill="#008000" fill-rule="evenodd" fill-opacity="1" stroke="#000000" stroke-opacity="1" stroke-width="3.2"/>
<circle clip-path="url(#clip252)" cx="1982.52" cy="181.156" r="21.6" fill="#008000" fill-rule="evenodd" fill-opacity="1" stroke="#000000" stroke-opacity="1" stroke-width="3.2"/>
<circle clip-path="url(#clip252)" cx="739.54" cy="662.936" r="21.6" fill="#008000" fill-rule="evenodd" fill-opacity="1" stroke="#000000" stroke-opacity="1" stroke-width="3.2"/>
<circle clip-path="url(#clip252)" cx="1267.43" cy="1258.57" r="21.6" fill="#008000" fill-rule="evenodd" fill-opacity="1" stroke="#000000" stroke-opacity="1" stroke-width="3.2"/>
<circle clip-path="url(#clip252)" cx="2195.74" cy="906.214" r="21.6" fill="#008000" fill-rule="evenodd" fill-opacity="1" stroke="#000000" stroke-opacity="1" stroke-width="3.2"/>
<circle clip-path="url(#clip252)" cx="750.025" cy="668.162" r="21.6" fill="#008000" fill-rule="evenodd" fill-opacity="1" stroke="#000000" stroke-opacity="1" stroke-width="3.2"/>
<circle clip-path="url(#clip252)" cx="939.638" cy="881.724" r="21.6" fill="#008000" fill-rule="evenodd" fill-opacity="1" stroke="#000000" stroke-opacity="1" stroke-width="3.2"/>
<circle clip-path="url(#clip252)" cx="1602.13" cy="617.285" r="21.6" fill="#008000" fill-rule="evenodd" fill-opacity="1" stroke="#000000" stroke-opacity="1" stroke-width="3.2"/>
<circle clip-path="url(#clip252)" cx="2274.37" cy="1245.8" r="21.6" fill="#008000" fill-rule="evenodd" fill-opacity="1" stroke="#000000" stroke-opacity="1" stroke-width="3.2"/>
<circle clip-path="url(#clip252)" cx="1496.97" cy="919.421" r="21.6" fill="#008000" fill-rule="evenodd" fill-opacity="1" stroke="#000000" stroke-opacity="1" stroke-width="3.2"/>
<circle clip-path="url(#clip252)" cx="1247.75" cy="1258.91" r="21.6" fill="#008000" fill-rule="evenodd" fill-opacity="1" stroke="#000000" stroke-opacity="1" stroke-width="3.2"/>
<circle clip-path="url(#clip252)" cx="2227.99" cy="1046.83" r="21.6" fill="#008000" fill-rule="evenodd" fill-opacity="1" stroke="#000000" stroke-opacity="1" stroke-width="3.2"/>
<circle clip-path="url(#clip252)" cx="360.177" cy="791.731" r="21.6" fill="#008000" fill-rule="evenodd" fill-opacity="1" stroke="#000000" stroke-opacity="1" stroke-width="3.2"/>
<circle clip-path="url(#clip252)" cx="1229.13" cy="1255.17" r="21.6" fill="#008000" fill-rule="evenodd" fill-opacity="1" stroke="#000000" stroke-opacity="1" stroke-width="3.2"/>
<circle clip-path="url(#clip252)" cx="713.517" cy="653.218" r="21.6" fill="#008000" fill-rule="evenodd" fill-opacity="1" stroke="#000000" stroke-opacity="1" stroke-width="3.2"/>
<circle clip-path="url(#clip252)" cx="617.599" cy="654.38" r="21.6" fill="#008000" fill-rule="evenodd" fill-opacity="1" stroke="#000000" stroke-opacity="1" stroke-width="3.2"/>
<circle clip-path="url(#clip252)" cx="1287.22" cy="1253.59" r="21.6" fill="#008000" fill-rule="evenodd" fill-opacity="1" stroke="#000000" stroke-opacity="1" stroke-width="3.2"/>
<circle clip-path="url(#clip252)" cx="512.594" cy="704.054" r="21.6" fill="#008000" fill-rule="evenodd" fill-opacity="1" stroke="#000000" stroke-opacity="1" stroke-width="3.2"/>
<circle clip-path="url(#clip252)" cx="1371.34" cy="1179.11" r="21.6" fill="#008000" fill-rule="evenodd" fill-opacity="1" stroke="#000000" stroke-opacity="1" stroke-width="3.2"/>
<circle clip-path="url(#clip252)" cx="783.134" cy="689.645" r="21.6" fill="#008000" fill-rule="evenodd" fill-opacity="1" stroke="#000000" stroke-opacity="1" stroke-width="3.2"/>
<circle clip-path="url(#clip252)" cx="550.442" cy="682.379" r="21.6" fill="#008000" fill-rule="evenodd" fill-opacity="1" stroke="#000000" stroke-opacity="1" stroke-width="3.2"/>
<circle clip-path="url(#clip252)" cx="1801.92" cy="137.449" r="21.6" fill="#008000" fill-rule="evenodd" fill-opacity="1" stroke="#000000" stroke-opacity="1" stroke-width="3.2"/>
<circle clip-path="url(#clip252)" cx="1214.97" cy="1249.78" r="21.6" fill="#008000" fill-rule="evenodd" fill-opacity="1" stroke="#000000" stroke-opacity="1" stroke-width="3.2"/>
<circle clip-path="url(#clip252)" cx="1315.97" cy="1237.9" r="21.6" fill="#008000" fill-rule="evenodd" fill-opacity="1" stroke="#000000" stroke-opacity="1" stroke-width="3.2"/>
<circle clip-path="url(#clip252)" cx="401.044" cy="771.855" r="21.6" fill="#008000" fill-rule="evenodd" fill-opacity="1" stroke="#000000" stroke-opacity="1" stroke-width="3.2"/>
<circle clip-path="url(#clip252)" cx="1736.04" cy="254.773" r="21.6" fill="#008000" fill-rule="evenodd" fill-opacity="1" stroke="#000000" stroke-opacity="1" stroke-width="3.2"/>
<circle clip-path="url(#clip252)" cx="1499.26" cy="913.388" r="21.6" fill="#008000" fill-rule="evenodd" fill-opacity="1" stroke="#000000" stroke-opacity="1" stroke-width="3.2"/>
<circle clip-path="url(#clip252)" cx="1087.82" cy="1120.65" r="21.6" fill="#008000" fill-rule="evenodd" fill-opacity="1" stroke="#000000" stroke-opacity="1" stroke-width="3.2"/>
<circle clip-path="url(#clip252)" cx="1923.82" cy="101.737" r="21.6" fill="#008000" fill-rule="evenodd" fill-opacity="1" stroke="#000000" stroke-opacity="1" stroke-width="3.2"/>
<circle clip-path="url(#clip252)" cx="1445.43" cy="1044.63" r="21.6" fill="#008000" fill-rule="evenodd" fill-opacity="1" stroke="#000000" stroke-opacity="1" stroke-width="3.2"/>
<circle clip-path="url(#clip252)" cx="1876.57" cy="84.299" r="21.6" fill="#008000" fill-rule="evenodd" fill-opacity="1" stroke="#000000" stroke-opacity="1" stroke-width="3.2"/>
<circle clip-path="url(#clip252)" cx="2249.6" cy="1140.58" r="21.6" fill="#008000" fill-rule="evenodd" fill-opacity="1" stroke="#000000" stroke-opacity="1" stroke-width="3.2"/>
<circle clip-path="url(#clip252)" cx="1260.96" cy="1259.18" r="21.6" fill="#008000" fill-rule="evenodd" fill-opacity="1" stroke="#000000" stroke-opacity="1" stroke-width="3.2"/>
<circle clip-path="url(#clip252)" cx="452.721" cy="741.445" r="21.6" fill="#008000" fill-rule="evenodd" fill-opacity="1" stroke="#000000" stroke-opacity="1" stroke-width="3.2"/>
<circle clip-path="url(#clip252)" cx="2068.47" cy="405.724" r="21.6" fill="#008000" fill-rule="evenodd" fill-opacity="1" stroke="#000000" stroke-opacity="1" stroke-width="3.2"/>
<circle clip-path="url(#clip252)" cx="1730.55" cy="266.978" r="21.6" fill="#008000" fill-rule="evenodd" fill-opacity="1" stroke="#000000" stroke-opacity="1" stroke-width="3.2"/>
<polyline clip-path="url(#clip252)" style="stroke:#0000ff; stroke-linecap:round; stroke-linejoin:round; stroke-width:12; stroke-opacity:1; fill:none" stroke-dasharray="48, 24, 6, 24, 6, 24" points="
  255.851,754.839 266.081,753.803 276.311,752.75 286.542,751.68 296.772,750.593 307.002,749.492 317.232,748.377 327.463,747.246 337.693,746.102 347.923,744.948 
  358.154,743.788 368.384,742.627 378.614,741.469 388.845,740.319 399.075,739.184 409.305,738.067 419.535,736.977 429.766,735.92 439.996,734.904 450.226,733.935 
  460.457,733.022 470.687,732.172 480.917,731.394 491.148,730.697 501.378,730.09 511.608,729.583 521.838,729.181 532.069,728.896 542.299,728.736 552.529,728.714 
  562.76,728.841 572.99,729.131 583.22,729.594 593.451,730.243 603.681,731.091 613.911,732.155 624.142,733.45 634.372,734.992 644.602,736.799 654.832,738.881 
  665.063,741.247 675.293,743.905 685.523,746.865 695.754,750.138 705.984,753.733 716.214,757.657 726.445,761.917 736.675,766.511 746.905,771.445 757.135,776.721 
  767.366,782.339 777.596,788.302 787.826,794.612 798.057,801.27 808.287,808.273 818.517,815.613 828.748,823.286 838.978,831.28 849.208,839.584 859.438,848.181 
  869.669,857.059 879.899,866.202 890.129,875.6 900.36,885.232 910.59,895.072 920.82,905.096 931.051,915.286 941.281,925.621 951.511,936.073 961.742,946.615 
  971.972,957.211 982.202,967.828 992.432,978.438 1002.66,989.008 1012.89,999.504 1023.12,1009.89 1033.35,1020.14 1043.58,1030.21 1053.81,1040.08 1064.04,1049.71 
  1074.27,1059.06 1084.51,1068.1 1094.74,1076.79 1104.97,1085.11 1115.2,1093.01 1125.43,1100.48 1135.66,1107.49 1145.89,1114 1156.12,1119.98 1166.35,1125.42 
  1176.58,1130.27 1186.81,1134.53 1197.04,1138.16 1207.27,1141.14 1217.5,1143.46 1227.73,1145.1 1237.96,1146.04 1248.19,1146.26 1258.42,1145.77 1268.65,1144.54 
  1278.88,1142.57 1289.11,1139.87 1299.34,1136.42 1309.57,1132.23 1319.8,1127.3 1330.03,1121.64 1340.26,1115.26 1350.49,1108.17 1360.72,1100.38 1370.95,1091.91 
  1381.18,1082.77 1391.41,1072.98 1401.64,1062.56 1411.87,1051.54 1422.11,1039.92 1432.34,1027.75 1442.57,1015.03 1452.8,1001.79 1463.03,988.053 1473.26,973.852 
  1483.49,959.218 1493.72,944.182 1503.95,928.78 1514.18,913.043 1524.41,897.008 1534.64,880.711 1544.87,864.195 1555.1,847.504 1565.33,830.677 1575.56,813.756 
  1585.79,796.785 1596.02,779.805 1606.25,762.859 1616.48,745.99 1626.71,729.242 1636.94,712.663 1647.17,696.295 1657.4,680.182 1667.63,664.37 1677.86,648.902 
  1688.09,633.814 1698.32,619.142 1708.55,604.918 1718.78,591.177 1729.01,577.955 1739.24,565.285 1749.47,553.199 1759.71,541.722 1769.94,530.884 1780.17,520.711 
  1790.4,511.223 1800.63,502.437 1810.86,494.366 1821.09,487.027 1831.32,480.429 1841.55,474.576 1851.78,469.47 1862.01,465.11 1872.24,461.494 1882.47,458.618 
  1892.7,456.474 1902.93,455.057 1913.16,454.359 1923.39,454.365 1933.62,455.062 1943.85,456.429 1954.08,458.445 1964.31,461.085 1974.54,464.323 1984.77,468.137 
  1995,472.498 2005.23,477.382 2015.46,482.76 2025.69,488.604 2035.92,494.887 2046.15,501.585 2056.38,508.669 2066.61,516.113 2076.84,523.891 2087.07,531.977 
  2097.31,540.345 2107.54,548.971 2117.77,557.828 2128,566.893 2138.23,576.141 2148.46,585.547 2158.69,595.085 2168.92,604.729 2179.15,614.455 2189.38,624.24 
  2199.61,634.071 2209.84,643.931 2220.07,653.8 2230.3,663.662 2240.53,673.503 2250.76,683.307 2260.99,693.066 2271.22,702.764 2281.45,712.389 2291.68,721.926 
  
  "/>
<polyline clip-path="url(#clip252)" style="stroke:#0000ff; stroke-linecap:round; stroke-linejoin:round; stroke-width:12; stroke-opacity:1; fill:none" stroke-dasharray="48, 30" points="
  255.851,789.056 266.081,786.612 276.311,784.159 286.542,781.645 296.772,779.074 307.002,776.422 317.232,773.676 327.463,770.824 337.693,767.856 347.923,764.754 
  358.154,761.54 368.384,758.229 378.614,754.79 388.845,751.221 399.075,747.555 409.305,743.79 419.535,739.912 429.766,735.953 439.996,731.922 450.226,727.827 
  460.457,723.667 470.687,719.469 480.917,715.233 491.148,710.98 501.378,706.754 511.608,702.567 521.838,698.446 532.069,694.416 542.299,690.54 552.529,686.84 
  562.76,683.34 572.99,680.098 583.22,677.13 593.451,674.469 603.681,672.131 613.911,670.123 624.142,668.456 634.372,667.124 644.602,666.168 654.832,665.624 
  665.063,665.493 675.293,665.795 685.523,666.622 695.754,668.047 705.984,670.129 716.214,672.924 726.445,676.437 736.675,680.69 746.905,685.709 757.135,691.488 
  767.366,698.008 777.596,705.237 787.826,713.141 798.057,721.699 808.287,730.894 818.517,740.699 828.748,751.081 838.978,761.976 849.208,773.341 859.438,785.115 
  869.669,797.25 879.899,809.71 890.129,822.469 900.36,835.494 910.59,848.715 920.82,862.091 931.051,875.562 941.281,889.063 951.511,902.548 961.742,916.004 
  971.972,929.407 982.202,942.691 992.432,955.899 1002.66,969.054 1012.89,982.196 1023.12,995.365 1033.35,1008.6 1043.58,1021.91 1053.81,1035.25 1064.04,1048.64 
  1074.27,1062.05 1084.51,1075.46 1094.74,1088.86 1104.97,1102.24 1115.2,1115.54 1125.43,1128.76 1135.66,1141.88 1145.89,1154.78 1156.12,1167.38 1166.35,1179.57 
  1176.58,1191.23 1186.81,1202.23 1197.04,1212.39 1207.27,1221.51 1217.5,1229.35 1227.73,1235.75 1237.96,1240.64 1248.19,1243.95 1258.42,1245.62 1268.65,1245.59 
  1278.88,1243.8 1289.11,1240.25 1299.34,1234.95 1309.57,1227.86 1319.8,1219.01 1330.03,1208.44 1340.26,1196.31 1350.49,1182.8 1360.72,1168.07 1370.95,1152.35 
  1381.18,1135.85 1391.41,1118.8 1401.64,1101.27 1411.87,1083.4 1422.11,1065.25 1432.34,1046.87 1442.57,1028.28 1452.8,1009.56 1463.03,990.743 1473.26,971.827 
  1483.49,952.808 1493.72,933.686 1503.95,914.398 1514.18,894.907 1524.41,875.146 1534.64,854.997 1544.87,834.383 1555.1,813.244 1565.33,791.512 1575.56,769.164 
  1585.79,746.193 1596.02,722.663 1606.25,698.651 1616.48,674.24 1626.71,649.517 1636.94,624.569 1647.17,599.498 1657.4,574.389 1667.63,549.334 1677.86,524.475 
  1688.09,499.977 1698.32,475.972 1708.55,452.618 1718.78,430.064 1729.01,408.427 1739.24,387.813 1749.47,368.299 1759.71,349.946 1769.94,332.819 1780.17,316.913 
  1790.4,302.243 1800.63,288.854 1810.86,276.764 1821.09,266.025 1831.32,256.676 1841.55,248.802 1851.78,242.412 1862.01,237.454 1872.24,233.873 1882.47,231.692 
  1892.7,230.959 1902.93,231.696 1913.16,233.949 1923.39,237.796 1933.62,243.337 1943.85,250.677 1954.08,259.879 1964.31,270.931 1974.54,283.819 1984.77,298.511 
  1995,314.926 2005.23,332.977 2015.46,352.648 2025.69,373.936 2035.92,396.787 2046.15,421.067 2056.38,446.601 2066.61,473.271 2076.84,500.892 2087.07,529.201 
  2097.31,557.965 2107.54,586.948 2117.77,615.894 2128,644.59 2138.23,672.834 2148.46,700.433 2158.69,727.195 2168.92,752.967 2179.15,777.648 2189.38,801.193 
  2199.61,823.531 2209.84,844.613 2220.07,864.434 2230.3,882.966 2240.53,900.226 2250.76,916.293 2260.99,931.238 2271.22,945.107 2281.45,957.936 2291.68,969.772 
  
  "/>
<polyline clip-path="url(#clip252)" style="stroke:#0000ff; stroke-linecap:round; stroke-linejoin:round; stroke-width:12; stroke-opacity:1; fill:none" points="
  255.851,810.87 266.081,810.64 276.311,809.124 286.542,806.5 296.772,803.062 307.002,798.827 317.232,793.716 327.463,787.873 337.693,781.596 347.923,775.173 
  358.154,769.043 368.384,763.754 378.614,759.647 388.845,756.557 399.075,754.043 409.305,751.77 419.535,749.495 429.766,746.818 439.996,743.346 450.226,738.711 
  460.457,732.614 470.687,725.229 480.917,717.192 491.148,709.045 501.378,701.224 511.608,694.227 521.838,688.29 532.069,683.528 542.299,679.959 552.529,677.641 
  562.76,676.123 572.99,674.819 583.22,673.45 593.451,671.961 603.681,670.397 613.911,668.91 624.142,667.578 634.372,666.289 644.602,665.08 654.832,663.928 
  665.063,662.917 675.293,662.122 685.523,661.52 695.754,661.051 705.984,660.694 716.214,660.477 726.445,660.698 736.675,661.932 746.905,664.701 757.135,669.154 
  767.366,675.392 777.596,683.239 787.826,692.237 798.057,701.76 808.287,711.368 818.517,720.898 828.748,730.282 838.978,739.67 849.208,749.259 859.438,759.337 
  869.669,770.202 879.899,782.087 890.129,795.137 900.36,809.716 910.59,825.824 920.82,843.31 931.051,861.871 941.281,880.91 951.511,899.784 961.742,918.061 
  971.972,935.691 982.202,952.643 992.432,969.091 1002.66,985.503 1012.89,1002.4 1023.12,1019.8 1033.35,1037.69 1043.58,1055.99 1053.81,1074.44 1064.04,1092.64 
  1074.27,1109.88 1084.51,1125.37 1094.74,1138.5 1104.97,1148.69 1115.2,1155.63 1125.43,1159.46 1135.66,1160.72 1145.89,1160.37 1156.12,1159.78 1166.35,1160.2 
  1176.58,1162.55 1186.81,1167.91 1197.04,1176.8 1207.27,1189.2 1217.5,1204.41 1227.73,1221.47 1237.96,1238.61 1248.19,1254.62 1258.42,1268.39 1268.65,1278.31 
  1278.88,1283.1 1289.11,1282.21 1299.34,1275.46 1309.57,1263.33 1319.8,1246.9 1330.03,1227.15 1340.26,1205.53 1350.49,1183.17 1360.72,1161.03 1370.95,1139.95 
  1381.18,1120.55 1391.41,1103.29 1401.64,1088.39 1411.87,1075.32 1422.11,1063.11 1432.34,1051.14 1442.57,1038.9 1452.8,1025.5 1463.03,1010.13 1473.26,992.613 
  1483.49,972.74 1493.72,950.308 1503.95,925.574 1514.18,899.101 1524.41,871.543 1534.64,844.208 1544.87,818.409 1555.1,795.198 1565.33,775.182 1575.56,758.201 
  1585.79,743.581 1596.02,730.334 1606.25,716.869 1616.48,701.593 1626.71,683.228 1636.94,660.69 1647.17,633.346 1657.4,600.74 1667.63,562.841 1677.86,520.583 
  1688.09,475.396 1698.32,429.198 1708.55,383.9 1718.78,341.604 1729.01,304.439 1739.24,273.809 1749.47,250.02 1759.71,231.993 1769.94,218.862 1780.17,209.779 
  1790.4,203.653 1800.63,199.018 1810.86,194.637 1821.09,189.314 1831.32,181.841 1841.55,172.176 1851.78,160.564 1862.01,147.989 1872.24,135.819 1882.47,124.894 
  1892.7,116.676 1902.93,112.714 1913.16,114.322 1923.39,121.847 1933.62,134.725 1943.85,151.405 1954.08,170.964 1964.31,192.716 1974.54,215.34 1984.77,237.799 
  1995,258.855 2005.23,277.941 2015.46,295.394 2025.69,311.921 2035.92,329.018 2046.15,348.056 2056.38,370.435 2066.61,397.207 2076.84,428.974 2087.07,466.104 
  2097.31,508.248 2107.54,554.655 2117.77,603.945 2128,654.612 2138.23,704.82 2148.46,753.001 2158.69,798.065 2168.92,839.395 2179.15,876.471 2189.38,909.295 
  2199.61,937.826 2209.84,962.052 2220.07,982.11 2230.3,998.284 2240.53,1010.73 2250.76,1019.33 2260.99,1024.24 2271.22,1025.56 2281.45,1023.82 2291.68,1019.25 
  
  "/>
</svg>
