<?xml version="1.0" encoding="utf-8"?>
<svg xmlns="http://www.w3.org/2000/svg" xmlns:xlink="http://www.w3.org/1999/xlink" width="600" height="400" viewBox="0 0 2400 1600">
<defs>
  <clipPath id="clip350">
    <rect x="0" y="0" width="2400" height="1600"/>
  </clipPath>
</defs>
<path clip-path="url(#clip350)" d="
M0 1600 L2400 1600 L2400 0 L0 0  Z
  " fill="#ffffff" fill-rule="evenodd" fill-opacity="1"/>
<defs>
  <clipPath id="clip351">
    <rect x="480" y="0" width="1681" height="1600"/>
  </clipPath>
</defs>
<defs>
  <clipPath id="clip352">
    <rect x="194" y="47" width="2159" height="1308"/>
  </clipPath>
</defs>
<path clip-path="url(#clip350)" d="
M194.776 1354.06 L2352.76 1354.06 L2352.76 47.2441 L194.776 47.2441  Z
  " fill="#ffffff" fill-rule="evenodd" fill-opacity="1"/>
<polyline clip-path="url(#clip352)" style="stroke:#000000; stroke-linecap:round; stroke-linejoin:round; stroke-width:2; stroke-opacity:0.1; fill:none" points="
  255.851,1354.06 255.851,47.2441 
  "/>
<polyline clip-path="url(#clip352)" style="stroke:#000000; stroke-linecap:round; stroke-linejoin:round; stroke-width:2; stroke-opacity:0.1; fill:none" points="
  459.434,1354.06 459.434,47.2441 
  "/>
<polyline clip-path="url(#clip352)" style="stroke:#000000; stroke-linecap:round; stroke-linejoin:round; stroke-width:2; stroke-opacity:0.1; fill:none" points="
  663.017,1354.06 663.017,47.2441 
  "/>
<polyline clip-path="url(#clip352)" style="stroke:#000000; stroke-linecap:round; stroke-linejoin:round; stroke-width:2; stroke-opacity:0.1; fill:none" points="
  866.6,1354.06 866.6,47.2441 
  "/>
<polyline clip-path="url(#clip352)" style="stroke:#000000; stroke-linecap:round; stroke-linejoin:round; stroke-width:2; stroke-opacity:0.1; fill:none" points="
  1070.18,1354.06 1070.18,47.2441 
  "/>
<polyline clip-path="url(#clip352)" style="stroke:#000000; stroke-linecap:round; stroke-linejoin:round; stroke-width:2; stroke-opacity:0.1; fill:none" points="
  1273.77,1354.06 1273.77,47.2441 
  "/>
<polyline clip-path="url(#clip352)" style="stroke:#000000; stroke-linecap:round; stroke-linejoin:round; stroke-width:2; stroke-opacity:0.1; fill:none" points="
  1477.35,1354.06 1477.35,47.2441 
  "/>
<polyline clip-path="url(#clip352)" style="stroke:#000000; stroke-linecap:round; stroke-linejoin:round; stroke-width:2; stroke-opacity:0.1; fill:none" points="
  1680.93,1354.06 1680.93,47.2441 
  "/>
<polyline clip-path="url(#clip352)" style="stroke:#000000; stroke-linecap:round; stroke-linejoin:round; stroke-width:2; stroke-opacity:0.1; fill:none" points="
  1884.51,1354.06 1884.51,47.2441 
  "/>
<polyline clip-path="url(#clip352)" style="stroke:#000000; stroke-linecap:round; stroke-linejoin:round; stroke-width:2; stroke-opacity:0.1; fill:none" points="
  2088.1,1354.06 2088.1,47.2441 
  "/>
<polyline clip-path="url(#clip352)" style="stroke:#000000; stroke-linecap:round; stroke-linejoin:round; stroke-width:2; stroke-opacity:0.1; fill:none" points="
  2291.68,1354.06 2291.68,47.2441 
  "/>
<polyline clip-path="url(#clip350)" style="stroke:#000000; stroke-linecap:round; stroke-linejoin:round; stroke-width:4; stroke-opacity:1; fill:none" points="
  194.776,1354.06 2352.76,1354.06 
  "/>
<polyline clip-path="url(#clip350)" style="stroke:#000000; stroke-linecap:round; stroke-linejoin:round; stroke-width:4; stroke-opacity:1; fill:none" points="
  255.851,1354.06 255.851,1335.16 
  "/>
<polyline clip-path="url(#clip350)" style="stroke:#000000; stroke-linecap:round; stroke-linejoin:round; stroke-width:4; stroke-opacity:1; fill:none" points="
  459.434,1354.06 459.434,1335.16 
  "/>
<polyline clip-path="url(#clip350)" style="stroke:#000000; stroke-linecap:round; stroke-linejoin:round; stroke-width:4; stroke-opacity:1; fill:none" points="
  663.017,1354.06 663.017,1335.16 
  "/>
<polyline clip-path="url(#clip350)" style="stroke:#000000; stroke-linecap:round; stroke-linejoin:round; stroke-width:4; stroke-opacity:1; fill:none" points="
  866.6,1354.06 866.6,1335.16 
  "/>
<polyline clip-path="url(#clip350)" style="stroke:#000000; stroke-linecap:round; stroke-linejoin:round; stroke-width:4; stroke-opacity:1; fill:none" points="
  1070.18,1354.06 1070.18,1335.16 
  "/>
<polyline clip-path="url(#clip350)" style="stroke:#000000; stroke-linecap:round; stroke-linejoin:round; stroke-width:4; stroke-opacity:1; fill:none" points="
  1273.77,1354.06 1273.77,1335.16 
  "/>
<polyline clip-path="url(#clip350)" style="stroke:#000000; stroke-linecap:round; stroke-linejoin:round; stroke-width:4; stroke-opacity:1; fill:none" points="
  1477.35,1354.06 1477.35,1335.16 
  "/>
<polyline clip-path="url(#clip350)" style="stroke:#000000; stroke-linecap:round; stroke-linejoin:round; stroke-width:4; stroke-opacity:1; fill:none" points="
  1680.93,1354.06 1680.93,1335.16 
  "/>
<polyline clip-path="url(#clip350)" style="stroke:#000000; stroke-linecap:round; stroke-linejoin:round; stroke-width:4; stroke-opacity:1; fill:none" points="
  1884.51,1354.06 1884.51,1335.16 
  "/>
<polyline clip-path="url(#clip350)" style="stroke:#000000; stroke-linecap:round; stroke-linejoin:round; stroke-width:4; stroke-opacity:1; fill:none" points="
  2088.1,1354.06 2088.1,1335.16 
  "/>
<polyline clip-path="url(#clip350)" style="stroke:#000000; stroke-linecap:round; stroke-linejoin:round; stroke-width:4; stroke-opacity:1; fill:none" points="
  2291.68,1354.06 2291.68,1335.16 
  "/>
<path clip-path="url(#clip350)" d="M255.851 1395.23 Q249.08 1395.23 245.651 1401.92 Q242.266 1408.56 242.266 1421.92 Q242.266 1435.25 245.651 1441.93 Q249.08 1448.57 255.851 1448.57 Q262.665 1448.57 266.05 1441.93 Q269.479 1435.25 269.479 1421.92 Q269.479 1408.56 266.05 1401.92 Q262.665 1395.23 255.851 1395.23 M255.851 1388.29 Q266.745 1388.29 272.474 1396.93 Q278.246 1405.52 278.246 1421.92 Q278.246 1438.29 272.474 1446.92 Q266.745 1455.52 255.851 1455.52 Q244.957 1455.52 239.184 1446.92 Q233.455 1438.29 233.455 1421.92 Q233.455 1405.52 239.184 1396.93 Q244.957 1388.29 255.851 1388.29 Z" fill="#000000" fill-rule="evenodd" fill-opacity="1" /><path clip-path="url(#clip350)" d="M622.11 1395.23 Q615.339 1395.23 611.91 1401.92 Q608.525 1408.56 608.525 1421.92 Q608.525 1435.25 611.91 1441.93 Q615.339 1448.57 622.11 1448.57 Q628.924 1448.57 632.309 1441.93 Q635.738 1435.25 635.738 1421.92 Q635.738 1408.56 632.309 1401.92 Q628.924 1395.23 622.11 1395.23 M622.11 1388.29 Q633.004 1388.29 638.733 1396.93 Q644.505 1405.52 644.505 1421.92 Q644.505 1438.29 638.733 1446.92 Q633.004 1455.52 622.11 1455.52 Q611.216 1455.52 605.443 1446.92 Q599.714 1438.29 599.714 1421.92 Q599.714 1405.52 605.443 1396.93 Q611.216 1388.29 622.11 1388.29 Z" fill="#000000" fill-rule="evenodd" fill-opacity="1" /><path clip-path="url(#clip350)" d="M659.913 1443.24 L669.071 1443.24 L669.071 1454.26 L659.913 1454.26 L659.913 1443.24 Z" fill="#000000" fill-rule="evenodd" fill-opacity="1" /><path clip-path="url(#clip350)" d="M695.72 1446.88 L726.319 1446.88 L726.319 1454.26 L685.174 1454.26 L685.174 1446.88 Q690.165 1441.72 698.759 1433.04 Q707.396 1424.31 709.609 1421.79 Q713.819 1417.06 715.469 1413.81 Q717.161 1410.51 717.161 1407.34 Q717.161 1402.18 713.516 1398.92 Q709.913 1395.67 704.097 1395.67 Q699.974 1395.67 695.373 1397.1 Q690.816 1398.53 685.608 1401.44 L685.608 1392.58 Q690.903 1390.46 695.503 1389.37 Q700.104 1388.29 703.924 1388.29 Q713.993 1388.29 719.983 1393.32 Q725.972 1398.36 725.972 1406.78 Q725.972 1410.77 724.453 1414.37 Q722.977 1417.93 719.028 1422.79 Q717.943 1424.05 712.127 1430.08 Q706.311 1436.07 695.72 1446.88 Z" fill="#000000" fill-rule="evenodd" fill-opacity="1" /><path clip-path="url(#clip350)" d="M1027.32 1395.23 Q1020.55 1395.23 1017.12 1401.92 Q1013.74 1408.56 1013.74 1421.92 Q1013.74 1435.25 1017.12 1441.93 Q1020.55 1448.57 1027.32 1448.57 Q1034.14 1448.57 1037.52 1441.93 Q1040.95 1435.25 1040.95 1421.92 Q1040.95 1408.56 1037.52 1401.92 Q1034.14 1395.23 1027.32 1395.23 M1027.32 1388.29 Q1038.22 1388.29 1043.95 1396.93 Q1049.72 1405.52 1049.72 1421.92 Q1049.72 1438.29 1043.95 1446.92 Q1038.22 1455.52 1027.32 1455.52 Q1016.43 1455.52 1010.66 1446.92 Q1004.93 1438.29 1004.93 1421.92 Q1004.93 1405.52 1010.66 1396.93 Q1016.43 1388.29 1027.32 1388.29 Z" fill="#000000" fill-rule="evenodd" fill-opacity="1" /><path clip-path="url(#clip350)" d="M1065.13 1443.24 L1074.28 1443.24 L1074.28 1454.26 L1065.13 1454.26 L1065.13 1443.24 Z" fill="#000000" fill-rule="evenodd" fill-opacity="1" /><path clip-path="url(#clip350)" d="M1117.47 1397.1 L1095.33 1431.69 L1117.47 1431.69 L1117.47 1397.1 M1115.17 1389.46 L1126.19 1389.46 L1126.19 1431.69 L1135.44 1431.69 L1135.44 1438.98 L1126.19 1438.98 L1126.19 1454.26 L1117.47 1454.26 L1117.47 1438.98 L1088.22 1438.98 L1088.22 1430.52 L1115.17 1389.46 Z" fill="#000000" fill-rule="evenodd" fill-opacity="1" /><path clip-path="url(#clip350)" d="M1434.79 1395.23 Q1428.02 1395.23 1424.59 1401.92 Q1421.21 1408.56 1421.21 1421.92 Q1421.21 1435.25 1424.59 1441.93 Q1428.02 1448.57 1434.79 1448.57 Q1441.61 1448.57 1444.99 1441.93 Q1448.42 1435.25 1448.42 1421.92 Q1448.42 1408.56 1444.99 1401.92 Q1441.61 1395.23 1434.79 1395.23 M1434.79 1388.29 Q1445.69 1388.29 1451.42 1396.93 Q1457.19 1405.52 1457.19 1421.92 Q1457.19 1438.29 1451.42 1446.92 Q1445.69 1455.52 1434.79 1455.52 Q1423.9 1455.52 1418.13 1446.92 Q1412.4 1438.29 1412.4 1421.92 Q1412.4 1405.52 1418.13 1396.93 Q1423.9 1388.29 1434.79 1388.29 Z" fill="#000000" fill-rule="evenodd" fill-opacity="1" /><path clip-path="url(#clip350)" d="M1472.6 1443.24 L1481.75 1443.24 L1481.75 1454.26 L1472.6 1454.26 L1472.6 1443.24 Z" fill="#000000" fill-rule="evenodd" fill-opacity="1" /><path clip-path="url(#clip350)" d="M1520.69 1418.37 Q1514.78 1418.37 1511.31 1422.4 Q1507.88 1426.44 1507.88 1433.47 Q1507.88 1440.46 1511.31 1444.54 Q1514.78 1448.57 1520.69 1448.57 Q1526.59 1448.57 1530.02 1444.54 Q1533.49 1440.46 1533.49 1433.47 Q1533.49 1426.44 1530.02 1422.4 Q1526.59 1418.37 1520.69 1418.37 M1538.09 1390.89 L1538.09 1398.88 Q1534.79 1397.32 1531.41 1396.49 Q1528.06 1395.67 1524.77 1395.67 Q1516.09 1395.67 1511.48 1401.53 Q1506.93 1407.39 1506.28 1419.23 Q1508.84 1415.46 1512.7 1413.46 Q1516.56 1411.42 1521.21 1411.42 Q1530.97 1411.42 1536.62 1417.37 Q1542.3 1423.27 1542.3 1433.47 Q1542.3 1443.45 1536.4 1449.49 Q1530.5 1455.52 1520.69 1455.52 Q1509.45 1455.52 1503.5 1446.92 Q1497.55 1438.29 1497.55 1421.92 Q1497.55 1406.56 1504.84 1397.45 Q1512.14 1388.29 1524.42 1388.29 Q1527.72 1388.29 1531.06 1388.94 Q1534.44 1389.59 1538.09 1390.89 Z" fill="#000000" fill-rule="evenodd" fill-opacity="1" /><path clip-path="url(#clip350)" d="M1842.2 1395.23 Q1835.43 1395.23 1832 1401.92 Q1828.61 1408.56 1828.61 1421.92 Q1828.61 1435.25 1832 1441.93 Q1835.43 1448.57 1842.2 1448.57 Q1849.01 1448.57 1852.4 1441.93 Q1855.83 1435.25 1855.83 1421.92 Q1855.83 1408.56 1852.4 1401.92 Q1849.01 1395.23 1842.2 1395.23 M1842.2 1388.29 Q1853.09 1388.29 1858.82 1396.93 Q1864.59 1405.52 1864.59 1421.92 Q1864.59 1438.29 1858.82 1446.92 Q1853.09 1455.52 1842.2 1455.52 Q1831.3 1455.52 1825.53 1446.92 Q1819.8 1438.29 1819.8 1421.92 Q1819.8 1405.52 1825.53 1396.93 Q1831.3 1388.29 1842.2 1388.29 Z" fill="#000000" fill-rule="evenodd" fill-opacity="1" /><path clip-path="url(#clip350)" d="M1880 1443.24 L1889.16 1443.24 L1889.16 1454.26 L1880 1454.26 L1880 1443.24 Z" fill="#000000" fill-rule="evenodd" fill-opacity="1" /><path clip-path="url(#clip350)" d="M1927.01 1423.49 Q1920.76 1423.49 1917.15 1426.83 Q1913.59 1430.17 1913.59 1436.03 Q1913.59 1441.89 1917.15 1445.23 Q1920.76 1448.57 1927.01 1448.57 Q1933.26 1448.57 1936.86 1445.23 Q1940.46 1441.85 1940.46 1436.03 Q1940.46 1430.17 1936.86 1426.83 Q1933.3 1423.49 1927.01 1423.49 M1918.24 1419.75 Q1912.6 1418.37 1909.43 1414.5 Q1906.3 1410.64 1906.3 1405.08 Q1906.3 1397.32 1911.82 1392.8 Q1917.37 1388.29 1927.01 1388.29 Q1936.68 1388.29 1942.2 1392.8 Q1947.71 1397.32 1947.71 1405.08 Q1947.71 1410.64 1944.54 1414.5 Q1941.42 1418.37 1935.82 1419.75 Q1942.15 1421.23 1945.67 1425.53 Q1949.23 1429.82 1949.23 1436.03 Q1949.23 1445.45 1943.46 1450.48 Q1937.73 1455.52 1927.01 1455.52 Q1916.29 1455.52 1910.51 1450.48 Q1904.78 1445.45 1904.78 1436.03 Q1904.78 1429.82 1908.34 1425.53 Q1911.9 1421.23 1918.24 1419.75 M1915.03 1405.91 Q1915.03 1410.94 1918.15 1413.77 Q1921.32 1416.59 1927.01 1416.59 Q1932.65 1416.59 1935.82 1413.77 Q1939.03 1410.94 1939.03 1405.91 Q1939.03 1400.87 1935.82 1398.05 Q1932.65 1395.23 1927.01 1395.23 Q1921.32 1395.23 1918.15 1398.05 Q1915.03 1400.87 1915.03 1405.91 Z" fill="#000000" fill-rule="evenodd" fill-opacity="1" /><path clip-path="url(#clip350)" d="M2273.65 1446.88 L2287.97 1446.88 L2287.97 1397.45 L2272.39 1400.57 L2272.39 1392.58 L2287.88 1389.46 L2296.65 1389.46 L2296.65 1446.88 L2310.97 1446.88 L2310.97 1454.26 L2273.65 1454.26 L2273.65 1446.88 Z" fill="#000000" fill-rule="evenodd" fill-opacity="1" /><path clip-path="url(#clip350)" d="M1299.53 1519.59 Q1299.53 1522.87 1297.49 1524.74 Q1295.44 1526.56 1293.09 1526.56 Q1290.87 1526.56 1289.7 1525.27 Q1288.53 1523.98 1288.53 1522.34 Q1288.53 1520.12 1290.17 1518.18 Q1291.81 1516.25 1294.26 1515.84 Q1291.86 1514.32 1288.29 1514.32 Q1285.95 1514.32 1283.9 1515.55 Q1281.91 1516.78 1280.68 1518.36 Q1279.51 1519.94 1278.45 1522.22 Q1277.46 1524.45 1277.05 1525.8 Q1276.7 1527.08 1276.41 1528.49 L1272.31 1544.89 Q1270.32 1552.67 1270.32 1555.43 Q1270.32 1558.82 1271.95 1561.11 Q1273.59 1563.33 1276.87 1563.33 Q1278.16 1563.33 1279.63 1562.98 Q1281.09 1562.57 1282.96 1561.52 Q1284.9 1560.4 1286.59 1558.76 Q1288.35 1557.07 1290.05 1554.2 Q1291.75 1551.33 1292.86 1547.64 Q1293.21 1546.35 1294.38 1546.35 Q1295.85 1546.35 1295.85 1547.52 Q1295.85 1548.52 1295.03 1550.62 Q1294.26 1552.67 1292.57 1555.37 Q1290.93 1558 1288.76 1560.4 Q1286.59 1562.75 1283.37 1564.39 Q1280.15 1566.02 1276.64 1566.02 Q1271.6 1566.02 1268.27 1563.33 Q1264.93 1560.64 1263.7 1556.89 Q1263.41 1557.42 1263 1558.12 Q1262.59 1558.82 1261.36 1560.4 Q1260.19 1561.93 1258.84 1563.1 Q1257.49 1564.21 1255.38 1565.09 Q1253.33 1566.02 1251.11 1566.02 Q1248.3 1566.02 1245.78 1565.2 Q1243.32 1564.39 1241.56 1562.51 Q1239.81 1560.64 1239.81 1558.06 Q1239.81 1555.19 1241.74 1553.2 Q1243.73 1551.15 1246.42 1551.15 Q1248.12 1551.15 1249.47 1552.15 Q1250.87 1553.14 1250.87 1555.31 Q1250.87 1557.71 1249.24 1559.53 Q1247.6 1561.34 1245.25 1561.81 Q1247.65 1563.33 1251.23 1563.33 Q1255.09 1563.33 1258.14 1559.93 Q1261.18 1556.54 1262.64 1550.86 Q1266.27 1537.22 1267.68 1531.13 Q1269.09 1524.98 1269.09 1522.34 Q1269.09 1519.88 1268.44 1518.18 Q1267.8 1516.49 1266.68 1515.73 Q1265.63 1514.91 1264.64 1514.61 Q1263.7 1514.32 1262.64 1514.32 Q1260.89 1514.32 1258.9 1515.02 Q1256.96 1515.73 1254.62 1517.36 Q1252.34 1518.95 1250.17 1522.22 Q1248.01 1525.5 1246.54 1530.01 Q1246.25 1531.36 1244.96 1531.36 Q1243.56 1531.3 1243.56 1530.13 Q1243.56 1529.13 1244.32 1527.08 Q1245.14 1524.98 1246.78 1522.34 Q1248.47 1519.71 1250.64 1517.36 Q1252.87 1514.96 1256.09 1513.32 Q1259.37 1511.68 1262.88 1511.68 Q1264.46 1511.68 1265.98 1512.04 Q1267.56 1512.33 1269.44 1513.21 Q1271.37 1514.09 1273.07 1516.02 Q1274.77 1517.95 1275.82 1520.76 Q1276.52 1519.41 1277.46 1518.13 Q1278.45 1516.84 1279.98 1515.26 Q1281.56 1513.62 1283.72 1512.68 Q1285.95 1511.68 1288.41 1511.68 Q1290.81 1511.68 1293.15 1512.33 Q1295.49 1512.91 1297.49 1514.85 Q1299.53 1516.72 1299.53 1519.59 Z" fill="#000000" fill-rule="evenodd" fill-opacity="1" /><polyline clip-path="url(#clip352)" style="stroke:#000000; stroke-linecap:round; stroke-linejoin:round; stroke-width:2; stroke-opacity:0.1; fill:none" points="
  194.776,814.924 2352.76,814.924 
  "/>
<polyline clip-path="url(#clip350)" style="stroke:#000000; stroke-linecap:round; stroke-linejoin:round; stroke-width:4; stroke-opacity:1; fill:none" points="
  194.776,1354.06 194.776,47.2441 
  "/>
<polyline clip-path="url(#clip350)" style="stroke:#000000; stroke-linecap:round; stroke-linejoin:round; stroke-width:4; stroke-opacity:1; fill:none" points="
  194.776,814.924 213.673,814.924 
  "/>
<path clip-path="url(#clip350)" d="M136.38 788.296 Q129.609 788.296 126.18 794.98 Q122.795 801.621 122.795 814.989 Q122.795 828.313 126.18 834.997 Q129.609 841.638 136.38 841.638 Q143.194 841.638 146.58 834.997 Q150.008 828.313 150.008 814.989 Q150.008 801.621 146.58 794.98 Q143.194 788.296 136.38 788.296 M136.38 781.352 Q147.274 781.352 153.003 789.989 Q158.776 798.583 158.776 814.989 Q158.776 831.351 153.003 839.989 Q147.274 848.582 136.38 848.582 Q125.486 848.582 119.713 839.989 Q113.984 831.351 113.984 814.989 Q113.984 798.583 119.713 789.989 Q125.486 781.352 136.38 781.352 Z" fill="#000000" fill-rule="evenodd" fill-opacity="1" /><polyline clip-path="url(#clip352)" style="stroke:#000000; stroke-linecap:round; stroke-linejoin:round; stroke-width:12; stroke-opacity:1; fill:none" points="
  255.851,814.924 266.081,814.691 276.311,813.993 286.542,812.834 296.772,811.219 307.002,809.158 317.232,806.659 327.463,803.737 337.693,800.405 347.923,796.681 
  358.154,792.584 368.384,788.135 378.614,783.357 388.845,778.275 399.075,772.915 409.305,767.307 419.535,761.478 429.766,755.462 439.996,749.289 450.226,742.994 
  460.457,736.612 470.687,730.177 480.917,723.727 491.148,717.297 501.378,710.927 511.608,704.653 521.838,698.513 532.069,692.545 542.299,686.787 552.529,681.276 
  562.76,676.051 572.99,671.146 583.22,666.599 593.451,662.443 603.681,658.713 613.911,655.441 624.142,652.659 634.372,650.397 644.602,648.682 654.832,647.542 
  665.063,647.002 675.293,647.083 685.523,647.808 695.754,649.193 705.984,651.257 716.214,654.012 726.445,657.47 736.675,661.64 746.905,666.528 757.135,672.139 
  767.366,678.472 777.596,685.527 787.826,693.298 798.057,701.779 808.287,710.959 818.517,720.826 828.748,731.363 838.978,742.552 849.208,754.373 859.438,766.8 
  869.669,779.807 879.899,793.366 890.129,807.443 900.36,822.005 910.59,837.015 920.82,852.434 931.051,868.221 941.281,884.332 951.511,900.722 961.742,917.343 
  971.972,934.148 982.202,951.085 992.432,968.102 1002.66,985.147 1012.89,1002.16 1023.12,1019.1 1033.35,1035.9 1043.58,1052.5 1053.81,1068.85 1064.04,1084.89 
  1074.27,1100.57 1084.51,1115.82 1094.74,1130.59 1104.97,1144.82 1115.2,1158.47 1125.43,1171.46 1135.66,1183.75 1145.89,1195.29 1156.12,1206.02 1166.35,1215.9 
  1176.58,1224.88 1186.81,1232.91 1197.04,1239.95 1207.27,1245.96 1217.5,1250.9 1227.73,1254.74 1237.96,1257.43 1248.19,1258.96 1258.42,1259.28 1268.65,1258.39 
  1278.88,1256.26 1289.11,1252.87 1299.34,1248.21 1309.57,1242.27 1319.8,1235.04 1330.03,1226.53 1340.26,1216.72 1350.49,1205.63 1360.72,1193.27 1370.95,1179.64 
  1381.18,1164.78 1391.41,1148.69 1401.64,1131.4 1411.87,1112.94 1422.11,1093.35 1432.34,1072.66 1442.57,1050.91 1452.8,1028.15 1463.03,1004.42 1473.26,979.772 
  1483.49,954.266 1493.72,927.956 1503.95,900.904 1514.18,873.175 1524.41,844.835 1534.64,815.955 1544.87,786.605 1555.1,756.862 1565.33,726.802 1575.56,696.503 
  1585.79,666.047 1596.02,635.515 1606.25,604.991 1616.48,574.558 1626.71,544.304 1636.94,514.313 1647.17,484.673 1657.4,455.469 1667.63,426.789 1677.86,398.718 
  1688.09,371.342 1698.32,344.745 1708.55,319.012 1718.78,294.224 1729.01,270.461 1739.24,247.804 1749.47,226.328 1759.71,206.107 1769.94,187.214 1780.17,169.716 
  1790.4,153.681 1800.63,139.17 1810.86,126.243 1821.09,114.954 1831.32,105.356 1841.55,97.4962 1851.78,91.4169 1862.01,87.1574 1872.24,84.7518 1882.47,84.2294 
  1892.7,85.615 1902.93,88.9282 1913.16,94.1833 1923.39,101.39 1933.62,110.552 1943.85,121.668 1954.08,134.732 1964.31,149.732 1974.54,166.65 1984.77,185.463 
  1995,206.142 2005.23,228.655 2015.46,252.962 2025.69,279.019 2035.92,306.775 2046.15,336.176 2056.38,367.162 2066.61,399.669 2076.84,433.625 2087.07,468.958 
  2097.31,505.587 2107.54,543.43 2117.77,582.4 2128,622.405 2138.23,663.349 2148.46,705.135 2158.69,747.66 2168.92,790.82 2179.15,834.506 2189.38,878.608 
  2199.61,923.015 2209.84,967.611 2220.07,1012.28 2230.3,1056.91 2240.53,1101.37 2250.76,1145.55 2260.99,1189.33 2271.22,1232.59 2281.45,1275.21 2291.68,1317.07 
  
  "/>
<circle clip-path="url(#clip352)" cx="278.701" cy="813.763" r="21.6" fill="#008000" fill-rule="evenodd" fill-opacity="1" stroke="#000000" stroke-opacity="1" stroke-width="3.2"/>
<circle clip-path="url(#clip352)" cx="2206.16" cy="951.553" r="21.6" fill="#008000" fill-rule="evenodd" fill-opacity="1" stroke="#000000" stroke-opacity="1" stroke-width="3.2"/>
<circle clip-path="url(#clip352)" cx="1252.09" cy="1259.22" r="21.6" fill="#008000" fill-rule="evenodd" fill-opacity="1" stroke="#000000" stroke-opacity="1" stroke-width="3.2"/>
<circle clip-path="url(#clip352)" cx="415.225" cy="763.959" r="21.6" fill="#008000" fill-rule="evenodd" fill-opacity="1" stroke="#000000" stroke-opacity="1" stroke-width="3.2"/>
<circle clip-path="url(#clip352)" cx="2082.74" cy="453.84" r="21.6" fill="#008000" fill-rule="evenodd" fill-opacity="1" stroke="#000000" stroke-opacity="1" stroke-width="3.2"/>
<circle clip-path="url(#clip352)" cx="2032.21" cy="296.495" r="21.6" fill="#008000" fill-rule="evenodd" fill-opacity="1" stroke="#000000" stroke-opacity="1" stroke-width="3.2"/>
<circle clip-path="url(#clip352)" cx="999.182" cy="979.348" r="21.6" fill="#008000" fill-rule="evenodd" fill-opacity="1" stroke="#000000" stroke-opacity="1" stroke-width="3.2"/>
<circle clip-path="url(#clip352)" cx="899.254" cy="820.409" r="21.6" fill="#008000" fill-rule="evenodd" fill-opacity="1" stroke="#000000" stroke-opacity="1" stroke-width="3.2"/>
<circle clip-path="url(#clip352)" cx="2191.61" cy="888.28" r="21.6" fill="#008000" fill-rule="evenodd" fill-opacity="1" stroke="#000000" stroke-opacity="1" stroke-width="3.2"/>
<circle clip-path="url(#clip352)" cx="1103.26" cy="1142.48" r="21.6" fill="#008000" fill-rule="evenodd" fill-opacity="1" stroke="#000000" stroke-opacity="1" stroke-width="3.2"/>
<circle clip-path="url(#clip352)" cx="298.535" cy="810.896" r="21.6" fill="#008000" fill-rule="evenodd" fill-opacity="1" stroke="#000000" stroke-opacity="1" stroke-width="3.2"/>
<circle clip-path="url(#clip352)" cx="2178.69" cy="832.538" r="21.6" fill="#008000" fill-rule="evenodd" fill-opacity="1" stroke="#000000" stroke-opacity="1" stroke-width="3.2"/>
<circle clip-path="url(#clip352)" cx="1347.09" cy="1209.46" r="21.6" fill="#008000" fill-rule="evenodd" fill-opacity="1" stroke="#000000" stroke-opacity="1" stroke-width="3.2"/>
<circle clip-path="url(#clip352)" cx="1279.1" cy="1256.2" r="21.6" fill="#008000" fill-rule="evenodd" fill-opacity="1" stroke="#000000" stroke-opacity="1" stroke-width="3.2"/>
<circle clip-path="url(#clip352)" cx="832.287" cy="735.161" r="21.6" fill="#008000" fill-rule="evenodd" fill-opacity="1" stroke="#000000" stroke-opacity="1" stroke-width="3.2"/>
<circle clip-path="url(#clip352)" cx="981.571" cy="950.038" r="21.6" fill="#008000" fill-rule="evenodd" fill-opacity="1" stroke="#000000" stroke-opacity="1" stroke-width="3.2"/>
<circle clip-path="url(#clip352)" cx="874.241" cy="785.801" r="21.6" fill="#008000" fill-rule="evenodd" fill-opacity="1" stroke="#000000" stroke-opacity="1" stroke-width="3.2"/>
<circle clip-path="url(#clip352)" cx="998.773" cy="978.666" r="21.6" fill="#008000" fill-rule="evenodd" fill-opacity="1" stroke="#000000" stroke-opacity="1" stroke-width="3.2"/>
<circle clip-path="url(#clip352)" cx="1272.55" cy="1257.73" r="21.6" fill="#008000" fill-rule="evenodd" fill-opacity="1" stroke="#000000" stroke-opacity="1" stroke-width="3.2"/>
<circle clip-path="url(#clip352)" cx="2040.92" cy="320.923" r="21.6" fill="#008000" fill-rule="evenodd" fill-opacity="1" stroke="#000000" stroke-opacity="1" stroke-width="3.2"/>
<circle clip-path="url(#clip352)" cx="1039.53" cy="1045.95" r="21.6" fill="#008000" fill-rule="evenodd" fill-opacity="1" stroke="#000000" stroke-opacity="1" stroke-width="3.2"/>
<circle clip-path="url(#clip352)" cx="2092.82" cy="489.371" r="21.6" fill="#008000" fill-rule="evenodd" fill-opacity="1" stroke="#000000" stroke-opacity="1" stroke-width="3.2"/>
<circle clip-path="url(#clip352)" cx="2031.81" cy="295.424" r="21.6" fill="#008000" fill-rule="evenodd" fill-opacity="1" stroke="#000000" stroke-opacity="1" stroke-width="3.2"/>
<circle clip-path="url(#clip352)" cx="605.449" cy="658.114" r="21.6" fill="#008000" fill-rule="evenodd" fill-opacity="1" stroke="#000000" stroke-opacity="1" stroke-width="3.2"/>
<circle clip-path="url(#clip352)" cx="1331.59" cy="1225.11" r="21.6" fill="#008000" fill-rule="evenodd" fill-opacity="1" stroke="#000000" stroke-opacity="1" stroke-width="3.2"/>
<circle clip-path="url(#clip352)" cx="664.77" cy="647.009" r="21.6" fill="#008000" fill-rule="evenodd" fill-opacity="1" stroke="#000000" stroke-opacity="1" stroke-width="3.2"/>
<circle clip-path="url(#clip352)" cx="396.512" cy="774.283" r="21.6" fill="#008000" fill-rule="evenodd" fill-opacity="1" stroke="#000000" stroke-opacity="1" stroke-width="3.2"/>
<circle clip-path="url(#clip352)" cx="2205.41" cy="948.303" r="21.6" fill="#008000" fill-rule="evenodd" fill-opacity="1" stroke="#000000" stroke-opacity="1" stroke-width="3.2"/>
<circle clip-path="url(#clip352)" cx="2074.27" cy="424.935" r="21.6" fill="#008000" fill-rule="evenodd" fill-opacity="1" stroke="#000000" stroke-opacity="1" stroke-width="3.2"/>
<circle clip-path="url(#clip352)" cx="653.566" cy="647.651" r="21.6" fill="#008000" fill-rule="evenodd" fill-opacity="1" stroke="#000000" stroke-opacity="1" stroke-width="3.2"/>
<circle clip-path="url(#clip352)" cx="1550.63" cy="769.911" r="21.6" fill="#008000" fill-rule="evenodd" fill-opacity="1" stroke="#000000" stroke-opacity="1" stroke-width="3.2"/>
<circle clip-path="url(#clip352)" cx="1466.83" cy="995.359" r="21.6" fill="#008000" fill-rule="evenodd" fill-opacity="1" stroke="#000000" stroke-opacity="1" stroke-width="3.2"/>
<circle clip-path="url(#clip352)" cx="867.228" cy="776.653" r="21.6" fill="#008000" fill-rule="evenodd" fill-opacity="1" stroke="#000000" stroke-opacity="1" stroke-width="3.2"/>
<circle clip-path="url(#clip352)" cx="1151.33" cy="1201.1" r="21.6" fill="#008000" fill-rule="evenodd" fill-opacity="1" stroke="#000000" stroke-opacity="1" stroke-width="3.2"/>
<circle clip-path="url(#clip352)" cx="1530.78" cy="826.903" r="21.6" fill="#008000" fill-rule="evenodd" fill-opacity="1" stroke="#000000" stroke-opacity="1" stroke-width="3.2"/>
<circle clip-path="url(#clip352)" cx="1072.24" cy="1097.48" r="21.6" fill="#008000" fill-rule="evenodd" fill-opacity="1" stroke="#000000" stroke-opacity="1" stroke-width="3.2"/>
<circle clip-path="url(#clip352)" cx="787.941" cy="693.389" r="21.6" fill="#008000" fill-rule="evenodd" fill-opacity="1" stroke="#000000" stroke-opacity="1" stroke-width="3.2"/>
<circle clip-path="url(#clip352)" cx="1930.59" cy="107.635" r="21.6" fill="#008000" fill-rule="evenodd" fill-opacity="1" stroke="#000000" stroke-opacity="1" stroke-width="3.2"/>
<circle clip-path="url(#clip352)" cx="1359.58" cy="1194.71" r="21.6" fill="#008000" fill-rule="evenodd" fill-opacity="1" stroke="#000000" stroke-opacity="1" stroke-width="3.2"/>
<circle clip-path="url(#clip352)" cx="411.892" cy="765.852" r="21.6" fill="#008000" fill-rule="evenodd" fill-opacity="1" stroke="#000000" stroke-opacity="1" stroke-width="3.2"/>
<circle clip-path="url(#clip352)" cx="1455.73" cy="1021.44" r="21.6" fill="#008000" fill-rule="evenodd" fill-opacity="1" stroke="#000000" stroke-opacity="1" stroke-width="3.2"/>
<circle clip-path="url(#clip352)" cx="740.51" cy="663.388" r="21.6" fill="#008000" fill-rule="evenodd" fill-opacity="1" stroke="#000000" stroke-opacity="1" stroke-width="3.2"/>
<circle clip-path="url(#clip352)" cx="1947.04" cy="125.528" r="21.6" fill="#008000" fill-rule="evenodd" fill-opacity="1" stroke="#000000" stroke-opacity="1" stroke-width="3.2"/>
<circle clip-path="url(#clip352)" cx="760.522" cy="674.155" r="21.6" fill="#008000" fill-rule="evenodd" fill-opacity="1" stroke="#000000" stroke-opacity="1" stroke-width="3.2"/>
<circle clip-path="url(#clip352)" cx="1305.03" cy="1245.07" r="21.6" fill="#008000" fill-rule="evenodd" fill-opacity="1" stroke="#000000" stroke-opacity="1" stroke-width="3.2"/>
<circle clip-path="url(#clip352)" cx="905.913" cy="830.099" r="21.6" fill="#008000" fill-rule="evenodd" fill-opacity="1" stroke="#000000" stroke-opacity="1" stroke-width="3.2"/>
<circle clip-path="url(#clip352)" cx="413.842" cy="764.747" r="21.6" fill="#008000" fill-rule="evenodd" fill-opacity="1" stroke="#000000" stroke-opacity="1" stroke-width="3.2"/>
<circle clip-path="url(#clip352)" cx="1324.76" cy="1231.08" r="21.6" fill="#008000" fill-rule="evenodd" fill-opacity="1" stroke="#000000" stroke-opacity="1" stroke-width="3.2"/>
<circle clip-path="url(#clip352)" cx="1097.3" cy="1134.22" r="21.6" fill="#008000" fill-rule="evenodd" fill-opacity="1" stroke="#000000" stroke-opacity="1" stroke-width="3.2"/>
<circle clip-path="url(#clip352)" cx="486.442" cy="720.25" r="21.6" fill="#008000" fill-rule="evenodd" fill-opacity="1" stroke="#000000" stroke-opacity="1" stroke-width="3.2"/>
<circle clip-path="url(#clip352)" cx="1264.33" cy="1258.92" r="21.6" fill="#008000" fill-rule="evenodd" fill-opacity="1" stroke="#000000" stroke-opacity="1" stroke-width="3.2"/>
<circle clip-path="url(#clip352)" cx="301.345" cy="810.352" r="21.6" fill="#008000" fill-rule="evenodd" fill-opacity="1" stroke="#000000" stroke-opacity="1" stroke-width="3.2"/>
<circle clip-path="url(#clip352)" cx="1179.75" cy="1227.48" r="21.6" fill="#008000" fill-rule="evenodd" fill-opacity="1" stroke="#000000" stroke-opacity="1" stroke-width="3.2"/>
<circle clip-path="url(#clip352)" cx="1136.72" cy="1184.99" r="21.6" fill="#008000" fill-rule="evenodd" fill-opacity="1" stroke="#000000" stroke-opacity="1" stroke-width="3.2"/>
<circle clip-path="url(#clip352)" cx="627.8" cy="651.789" r="21.6" fill="#008000" fill-rule="evenodd" fill-opacity="1" stroke="#000000" stroke-opacity="1" stroke-width="3.2"/>
<circle clip-path="url(#clip352)" cx="1007.45" cy="993.117" r="21.6" fill="#008000" fill-rule="evenodd" fill-opacity="1" stroke="#000000" stroke-opacity="1" stroke-width="3.2"/>
<circle clip-path="url(#clip352)" cx="528.989" cy="694.321" r="21.6" fill="#008000" fill-rule="evenodd" fill-opacity="1" stroke="#000000" stroke-opacity="1" stroke-width="3.2"/>
<circle clip-path="url(#clip352)" cx="320.897" cy="805.66" r="21.6" fill="#008000" fill-rule="evenodd" fill-opacity="1" stroke="#000000" stroke-opacity="1" stroke-width="3.2"/>
<circle clip-path="url(#clip352)" cx="1834.57" cy="102.664" r="21.6" fill="#008000" fill-rule="evenodd" fill-opacity="1" stroke="#000000" stroke-opacity="1" stroke-width="3.2"/>
<circle clip-path="url(#clip352)" cx="1135.13" cy="1183.13" r="21.6" fill="#008000" fill-rule="evenodd" fill-opacity="1" stroke="#000000" stroke-opacity="1" stroke-width="3.2"/>
<circle clip-path="url(#clip352)" cx="1221.7" cy="1252.61" r="21.6" fill="#008000" fill-rule="evenodd" fill-opacity="1" stroke="#000000" stroke-opacity="1" stroke-width="3.2"/>
<circle clip-path="url(#clip352)" cx="1408.25" cy="1119.61" r="21.6" fill="#008000" fill-rule="evenodd" fill-opacity="1" stroke="#000000" stroke-opacity="1" stroke-width="3.2"/>
<circle clip-path="url(#clip352)" cx="1410.9" cy="1114.75" r="21.6" fill="#008000" fill-rule="evenodd" fill-opacity="1" stroke="#000000" stroke-opacity="1" stroke-width="3.2"/>
<circle clip-path="url(#clip352)" cx="1273.51" cy="1257.54" r="21.6" fill="#008000" fill-rule="evenodd" fill-opacity="1" stroke="#000000" stroke-opacity="1" stroke-width="3.2"/>
<circle clip-path="url(#clip352)" cx="1491.81" cy="932.927" r="21.6" fill="#008000" fill-rule="evenodd" fill-opacity="1" stroke="#000000" stroke-opacity="1" stroke-width="3.2"/>
<circle clip-path="url(#clip352)" cx="1982.52" cy="181.156" r="21.6" fill="#008000" fill-rule="evenodd" fill-opacity="1" stroke="#000000" stroke-opacity="1" stroke-width="3.2"/>
<circle clip-path="url(#clip352)" cx="739.54" cy="662.936" r="21.6" fill="#008000" fill-rule="evenodd" fill-opacity="1" stroke="#000000" stroke-opacity="1" stroke-width="3.2"/>
<circle clip-path="url(#clip352)" cx="1267.43" cy="1258.57" r="21.6" fill="#008000" fill-rule="evenodd" fill-opacity="1" stroke="#000000" stroke-opacity="1" stroke-width="3.2"/>
<circle clip-path="url(#clip352)" cx="2195.74" cy="906.214" r="21.6" fill="#008000" fill-rule="evenodd" fill-opacity="1" stroke="#000000" stroke-opacity="1" stroke-width="3.2"/>
<circle clip-path="url(#clip352)" cx="750.025" cy="668.162" r="21.6" fill="#008000" fill-rule="evenodd" fill-opacity="1" stroke="#000000" stroke-opacity="1" stroke-width="3.2"/>
<circle clip-path="url(#clip352)" cx="939.638" cy="881.724" r="21.6" fill="#008000" fill-rule="evenodd" fill-opacity="1" stroke="#000000" stroke-opacity="1" stroke-width="3.2"/>
<circle clip-path="url(#clip352)" cx="1602.13" cy="617.285" r="21.6" fill="#008000" fill-rule="evenodd" fill-opacity="1" stroke="#000000" stroke-opacity="1" stroke-width="3.2"/>
<circle clip-path="url(#clip352)" cx="2274.37" cy="1245.8" r="21.6" fill="#008000" fill-rule="evenodd" fill-opacity="1" stroke="#000000" stroke-opacity="1" stroke-width="3.2"/>
<circle clip-path="url(#clip352)" cx="1496.97" cy="919.421" r="21.6" fill="#008000" fill-rule="evenodd" fill-opacity="1" stroke="#000000" stroke-opacity="1" stroke-width="3.2"/>
<circle clip-path="url(#clip352)" cx="1247.75" cy="1258.91" r="21.6" fill="#008000" fill-rule="evenodd" fill-opacity="1" stroke="#000000" stroke-opacity="1" stroke-width="3.2"/>
<circle clip-path="url(#clip352)" cx="2227.99" cy="1046.83" r="21.6" fill="#008000" fill-rule="evenodd" fill-opacity="1" stroke="#000000" stroke-opacity="1" stroke-width="3.2"/>
<circle clip-path="url(#clip352)" cx="360.177" cy="791.731" r="21.6" fill="#008000" fill-rule="evenodd" fill-opacity="1" stroke="#000000" stroke-opacity="1" stroke-width="3.2"/>
<circle clip-path="url(#clip352)" cx="1229.13" cy="1255.17" r="21.6" fill="#008000" fill-rule="evenodd" fill-opacity="1" stroke="#000000" stroke-opacity="1" stroke-width="3.2"/>
<circle clip-path="url(#clip352)" cx="713.517" cy="653.218" r="21.6" fill="#008000" fill-rule="evenodd" fill-opacity="1" stroke="#000000" stroke-opacity="1" stroke-width="3.2"/>
<circle clip-path="url(#clip352)" cx="617.599" cy="654.38" r="21.6" fill="#008000" fill-rule="evenodd" fill-opacity="1" stroke="#000000" stroke-opacity="1" stroke-width="3.2"/>
<circle clip-path="url(#clip352)" cx="1287.22" cy="1253.59" r="21.6" fill="#008000" fill-rule="evenodd" fill-opacity="1" stroke="#000000" stroke-opacity="1" stroke-width="3.2"/>
<circle clip-path="url(#clip352)" cx="512.594" cy="704.054" r="21.6" fill="#008000" fill-rule="evenodd" fill-opacity="1" stroke="#000000" stroke-opacity="1" stroke-width="3.2"/>
<circle clip-path="url(#clip352)" cx="1371.34" cy="1179.11" r="21.6" fill="#008000" fill-rule="evenodd" fill-opacity="1" stroke="#000000" stroke-opacity="1" stroke-width="3.2"/>
<circle clip-path="url(#clip352)" cx="783.134" cy="689.645" r="21.6" fill="#008000" fill-rule="evenodd" fill-opacity="1" stroke="#000000" stroke-opacity="1" stroke-width="3.2"/>
<circle clip-path="url(#clip352)" cx="550.442" cy="682.379" r="21.6" fill="#008000" fill-rule="evenodd" fill-opacity="1" stroke="#000000" stroke-opacity="1" stroke-width="3.2"/>
<circle clip-path="url(#clip352)" cx="1801.92" cy="137.449" r="21.6" fill="#008000" fill-rule="evenodd" fill-opacity="1" stroke="#000000" stroke-opacity="1" stroke-width="3.2"/>
<circle clip-path="url(#clip352)" cx="1214.97" cy="1249.78" r="21.6" fill="#008000" fill-rule="evenodd" fill-opacity="1" stroke="#000000" stroke-opacity="1" stroke-width="3.2"/>
<circle clip-path="url(#clip352)" cx="1315.97" cy="1237.9" r="21.6" fill="#008000" fill-rule="evenodd" fill-opacity="1" stroke="#000000" stroke-opacity="1" stroke-width="3.2"/>
<circle clip-path="url(#clip352)" cx="401.044" cy="771.855" r="21.6" fill="#008000" fill-rule="evenodd" fill-opacity="1" stroke="#000000" stroke-opacity="1" stroke-width="3.2"/>
<circle clip-path="url(#clip352)" cx="1736.04" cy="254.773" r="21.6" fill="#008000" fill-rule="evenodd" fill-opacity="1" stroke="#000000" stroke-opacity="1" stroke-width="3.2"/>
<circle clip-path="url(#clip352)" cx="1499.26" cy="913.388" r="21.6" fill="#008000" fill-rule="evenodd" fill-opacity="1" stroke="#000000" stroke-opacity="1" stroke-width="3.2"/>
<circle clip-path="url(#clip352)" cx="1087.82" cy="1120.65" r="21.6" fill="#008000" fill-rule="evenodd" fill-opacity="1" stroke="#000000" stroke-opacity="1" stroke-width="3.2"/>
<circle clip-path="url(#clip352)" cx="1923.82" cy="101.737" r="21.6" fill="#008000" fill-rule="evenodd" fill-opacity="1" stroke="#000000" stroke-opacity="1" stroke-width="3.2"/>
<circle clip-path="url(#clip352)" cx="1445.43" cy="1044.63" r="21.6" fill="#008000" fill-rule="evenodd" fill-opacity="1" stroke="#000000" stroke-opacity="1" stroke-width="3.2"/>
<circle clip-path="url(#clip352)" cx="1876.57" cy="84.299" r="21.6" fill="#008000" fill-rule="evenodd" fill-opacity="1" stroke="#000000" stroke-opacity="1" stroke-width="3.2"/>
<circle clip-path="url(#clip352)" cx="2249.6" cy="1140.58" r="21.6" fill="#008000" fill-rule="evenodd" fill-opacity="1" stroke="#000000" stroke-opacity="1" stroke-width="3.2"/>
<circle clip-path="url(#clip352)" cx="1260.96" cy="1259.18" r="21.6" fill="#008000" fill-rule="evenodd" fill-opacity="1" stroke="#000000" stroke-opacity="1" stroke-width="3.2"/>
<circle clip-path="url(#clip352)" cx="452.721" cy="741.445" r="21.6" fill="#008000" fill-rule="evenodd" fill-opacity="1" stroke="#000000" stroke-opacity="1" stroke-width="3.2"/>
<circle clip-path="url(#clip352)" cx="2068.47" cy="405.724" r="21.6" fill="#008000" fill-rule="evenodd" fill-opacity="1" stroke="#000000" stroke-opacity="1" stroke-width="3.2"/>
<circle clip-path="url(#clip352)" cx="1730.55" cy="266.978" r="21.6" fill="#008000" fill-rule="evenodd" fill-opacity="1" stroke="#000000" stroke-opacity="1" stroke-width="3.2"/>
<polyline clip-path="url(#clip352)" style="stroke:#0000ff; stroke-linecap:round; stroke-linejoin:round; stroke-width:12; stroke-opacity:1; fill:none" stroke-dasharray="48, 24, 6, 24, 6, 24" points="
  255.851,744.003 266.081,745.248 276.311,746.538 286.542,747.596 296.772,748.544 307.002,748.821 317.232,749.556 327.463,750.076 337.693,750.948 347.923,751.664 
  358.154,752.613 368.384,753.407 378.614,754.565 388.845,755.533 399.075,756.472 409.305,757.638 419.535,759.056 429.766,760.376 439.996,762.093 450.226,764.037 
  460.457,766.185 470.687,768.955 480.917,771.995 491.148,774.858 501.378,777.716 511.608,780.558 521.838,784.308 532.069,788.3 542.299,791.655 552.529,795.187 
  562.76,798.228 572.99,801.974 583.22,806.056 593.451,809.003 603.681,812.999 613.911,817.3 624.142,820.344 634.372,823.972 644.602,827.395 654.832,831.567 
  665.063,835.139 675.293,838.725 685.523,841.955 695.754,845.63 705.984,850.174 716.214,854.808 726.445,858.564 736.675,862.795 746.905,867.731 757.135,872.121 
  767.366,875.706 777.596,879.469 787.826,884.055 798.057,887.766 808.287,891.628 818.517,895.762 828.748,899 838.978,903.137 849.208,908.305 859.438,912.815 
  869.669,916.698 879.899,921.766 890.129,925.53 900.36,929.858 910.59,933.599 920.82,938.363 931.051,942.447 941.281,946.184 951.511,949.575 961.742,954.576 
  971.972,958.773 982.202,962.185 992.432,966.58 1002.66,970.752 1012.89,974.208 1023.12,978.114 1033.35,982.223 1043.58,985.827 1053.81,989.285 1064.04,992.867 
  1074.27,996.705 1084.51,999.534 1094.74,1002.18 1104.97,1004.82 1115.2,1007.01 1125.43,1009.51 1135.66,1010.94 1145.89,1012.3 1156.12,1013.2 1166.35,1014.17 
  1176.58,1014.97 1186.81,1015.36 1197.04,1015.5 1207.27,1015.79 1217.5,1016.29 1227.73,1015.66 1237.96,1014.78 1248.19,1013.91 1258.42,1011.94 1268.65,1009.62 
  1278.88,1006.54 1289.11,1002.61 1299.34,998.069 1309.57,993.474 1319.8,988.824 1330.03,984.365 1340.26,978.287 1350.49,972.524 1360.72,966.078 1370.95,960.242 
  1381.18,955.55 1391.41,948.712 1401.64,943.001 1411.87,937.242 1422.11,930.69 1432.34,924.859 1442.57,919.712 1452.8,914.237 1463.03,907.775 1473.26,900.796 
  1483.49,894.994 1493.72,890.191 1503.95,885.063 1514.18,878.734 1524.41,872.114 1534.64,865.234 1544.87,858.517 1555.1,851.521 1565.33,845.769 1575.56,839.211 
  1585.79,833.064 1596.02,827.187 1606.25,821.297 1616.48,815.166 1626.71,809.035 1636.94,803.11 1647.17,797.533 1657.4,791.034 1667.63,784.52 1677.86,776.827 
  1688.09,770.407 1698.32,764.308 1708.55,757.742 1718.78,751.11 1729.01,745.036 1739.24,738.948 1749.47,733.352 1759.71,728.551 1769.94,722.484 1780.17,715.71 
  1790.4,709.671 1800.63,704.23 1810.86,698.761 1821.09,693.421 1831.32,687.892 1841.55,682.348 1851.78,677.205 1862.01,672.197 1872.24,666.939 1882.47,661.794 
  1892.7,656.964 1902.93,652.667 1913.16,648.324 1923.39,643.121 1933.62,638.649 1943.85,634.78 1954.08,631.844 1964.31,628.692 1974.54,626.187 1984.77,623.408 
  1995,621.32 2005.23,619.102 2015.46,616.389 2025.69,614.06 2035.92,610.946 2046.15,609.06 2056.38,608.635 2066.61,607.582 2076.84,607.295 2087.07,607.551 
  2097.31,609.346 2107.54,611.718 2117.77,613.85 2128,615.892 2138.23,617.194 2148.46,619.301 2158.69,622.009 2168.92,624.226 2179.15,626.555 2189.38,628.837 
  2199.61,630.863 2209.84,633.717 2220.07,636.414 2230.3,637.858 2240.53,640.763 2250.76,642.3 2260.99,643.829 2271.22,643.64 2281.45,644.798 2291.68,645.369 
  
  "/>
<polyline clip-path="url(#clip352)" style="stroke:#0000ff; stroke-linecap:round; stroke-linejoin:round; stroke-width:12; stroke-opacity:1; fill:none" stroke-dasharray="48, 30" points="
  255.851,775.394 266.081,774.19 276.311,770.673 286.542,769.186 296.772,770.474 307.002,769.276 317.232,766.875 327.463,764.145 337.693,764.421 347.923,760.757 
  358.154,757.099 368.384,753.477 378.614,752.576 388.845,749.639 399.075,747.297 409.305,744.911 419.535,741.618 429.766,741.321 439.996,738.726 450.226,735.734 
  460.457,734.072 470.687,732.156 480.917,731.027 491.148,729.916 501.378,726.144 511.608,726.008 521.838,724.159 532.069,721.955 542.299,720.349 552.529,718.063 
  562.76,718.89 572.99,719.208 583.22,717.634 593.451,717.469 603.681,716.213 613.911,715.65 624.142,716.121 634.372,716.731 644.602,716.883 654.832,717.041 
  665.063,718.166 675.293,719.828 685.523,721.741 695.754,724.73 705.984,727.56 716.214,728.17 726.445,732.009 736.675,736.234 746.905,738.985 757.135,744.823 
  767.366,750.324 777.596,757.143 787.826,762.234 798.057,768.122 808.287,773.559 818.517,780.223 828.748,790.099 838.978,797.243 849.208,805.399 859.438,813.152 
  869.669,820.32 879.899,830.49 890.129,840.142 900.36,850.586 910.59,862.345 920.82,871.435 931.051,883.927 941.281,899.07 951.511,913.943 961.742,925.215 
  971.972,936.069 982.202,946.932 992.432,960.85 1002.66,973.06 1012.89,982.437 1023.12,996.274 1033.35,1007.15 1043.58,1020.29 1053.81,1032.29 1064.04,1047.57 
  1074.27,1059.35 1084.51,1070.45 1094.74,1082.87 1104.97,1090.53 1115.2,1099.71 1125.43,1109.1 1135.66,1119.04 1145.89,1129.06 1156.12,1134.08 1166.35,1143.36 
  1176.58,1150.3 1186.81,1157.57 1197.04,1164.67 1207.27,1169.83 1217.5,1175.12 1227.73,1178.5 1237.96,1180.85 1248.19,1184.94 1258.42,1188.22 1268.65,1188.42 
  1278.88,1189.06 1289.11,1184.07 1299.34,1183.28 1309.57,1177.49 1319.8,1174.68 1330.03,1170.4 1340.26,1158.74 1350.49,1147.39 1360.72,1135.41 1370.95,1124.03 
  1381.18,1113.98 1391.41,1105.09 1401.64,1091.82 1411.87,1079.16 1422.11,1068.09 1432.34,1049.76 1442.57,1035.73 1452.8,1017.13 1463.03,1000.28 1473.26,982.07 
  1483.49,964.047 1493.72,947.343 1503.95,926.71 1514.18,911.623 1524.41,893.919 1534.64,875.735 1544.87,854.875 1555.1,835.575 1565.33,816.725 1575.56,797.35 
  1585.79,777.095 1596.02,754.533 1606.25,736.358 1616.48,717.558 1626.71,699.75 1636.94,678.328 1647.17,658.082 1657.4,639.268 1667.63,618.222 1677.86,598.138 
  1688.09,579.245 1698.32,559.959 1708.55,541.437 1718.78,522.693 1729.01,502.729 1739.24,489.503 1749.47,473.853 1759.71,459.265 1769.94,447.301 1780.17,437.649 
  1790.4,427.185 1800.63,419.125 1810.86,409.45 1821.09,402.248 1831.32,395.066 1841.55,391.061 1851.78,389.329 1862.01,385.063 1872.24,382.255 1882.47,382.471 
  1892.7,383.552 1902.93,387.942 1913.16,389.874 1923.39,387.744 1933.62,392.132 1943.85,395.922 1954.08,403.503 1964.31,408.245 1974.54,416.625 1984.77,424.173 
  1995,434.492 2005.23,443.305 2015.46,446.793 2025.69,452.232 2035.92,458.116 2046.15,469.516 2056.38,478.613 2066.61,489.085 2076.84,501.303 2087.07,514.547 
  2097.31,530.539 2107.54,546.93 2117.77,562.632 2128,578.97 2138.23,596.024 2148.46,606.799 2158.69,622.707 2168.92,638.163 2179.15,653.235 2189.38,664.626 
  2199.61,679.463 2209.84,691.867 2220.07,705.993 2230.3,718.767 2240.53,732.05 2250.76,745.035 2260.99,754.595 2271.22,766.521 2281.45,777.556 2291.68,786.074 
  
  "/>
<polyline clip-path="url(#clip352)" style="stroke:#0000ff; stroke-linecap:round; stroke-linejoin:round; stroke-width:12; stroke-opacity:1; fill:none" points="
  255.851,813.121 266.081,810.405 276.311,811.628 286.542,803.69 296.772,796.86 307.002,795.871 317.232,793.705 327.463,793.067 337.693,790.566 347.923,786.079 
  358.154,781.579 368.384,779.843 378.614,772.058 388.845,767.943 399.075,764.362 409.305,762.928 419.535,757.982 429.766,755.213 439.996,749.25 450.226,744.972 
  460.457,739.267 470.687,734.304 480.917,723.706 491.148,722.154 501.378,719.216 511.608,721.127 521.838,715.598 532.069,709.776 542.299,707.475 552.529,705.471 
  562.76,704.623 572.99,701.619 583.22,699.235 593.451,694.173 603.681,689.834 613.911,684.997 624.142,681.565 634.372,679.29 644.602,677.826 654.832,679.846 
  665.063,677.186 675.293,677.488 685.523,682.593 695.754,682.389 705.984,683.422 716.214,677.697 726.445,678.261 736.675,682.006 746.905,685.659 757.135,687.904 
  767.366,693.077 777.596,696.815 787.826,705.629 798.057,716.173 808.287,725.746 818.517,735.165 828.748,749.792 838.978,758.344 849.208,768.289 859.438,777.609 
  869.669,790.726 879.899,800.915 890.129,809.662 900.36,823.206 910.59,837.995 920.82,857.173 931.051,868.873 941.281,885.347 951.511,904.389 961.742,921.072 
  971.972,934.186 982.202,950.235 992.432,962.095 1002.66,972.784 1012.89,985.286 1023.12,998.411 1033.35,1007.36 1043.58,1019.24 1053.81,1030.24 1064.04,1040.68 
  1074.27,1065.61 1084.51,1083.47 1094.74,1098.6 1104.97,1115.81 1115.2,1129.81 1125.43,1141.76 1135.66,1153.14 1145.89,1165.64 1156.12,1166.89 1166.35,1176.93 
  1176.58,1189.51 1186.81,1198.86 1197.04,1209.87 1207.27,1223.15 1217.5,1236.07 1227.73,1245.78 1237.96,1252.12 1248.19,1258.42 1258.42,1264.84 1268.65,1265.11 
  1278.88,1253.55 1289.11,1241.23 1299.34,1244.88 1309.57,1231.07 1319.8,1222.38 1330.03,1220.25 1340.26,1204.4 1350.49,1194.87 1360.72,1187.11 1370.95,1168.44 
  1381.18,1152.56 1391.41,1134.3 1401.64,1116.02 1411.87,1097.3 1422.11,1073.21 1432.34,1048.49 1442.57,1028.98 1452.8,1013.11 1463.03,989.641 1473.26,971.672 
  1483.49,953.514 1493.72,942.127 1503.95,915.358 1514.18,901.689 1524.41,884.829 1534.64,862.243 1544.87,837.488 1555.1,807.026 1565.33,780.522 1575.56,759.756 
  1585.79,736.655 1596.02,714.378 1606.25,688.664 1616.48,664.897 1626.71,640.069 1636.94,616.944 1647.17,584.024 1657.4,554.341 1667.63,523.69 1677.86,496.953 
  1688.09,462.711 1698.32,430.901 1708.55,400.045 1718.78,373.681 1729.01,334.505 1739.24,305.804 1749.47,284.013 1759.71,267.703 1769.94,256.682 1780.17,229.692 
  1790.4,207.42 1800.63,184.931 1810.86,176.262 1821.09,164.791 1831.32,160.173 1841.55,144.633 1851.78,146.385 1862.01,146.622 1872.24,144.239 1882.47,142.54 
  1892.7,141.235 1902.93,145.962 1913.16,152.055 1923.39,153.357 1933.62,171.18 1943.85,185.859 1954.08,200.71 1964.31,214.586 1974.54,226.027 1984.77,244.102 
  1995,271.491 2005.23,293.062 2015.46,307.992 2025.69,321.832 2035.92,345.557 2046.15,373.912 2056.38,410.349 2066.61,438.536 2076.84,474.268 2087.07,511.722 
  2097.31,555.816 2107.54,592.511 2117.77,635.137 2128,671.204 2138.23,705.088 2148.46,735.109 2158.69,763.981 2168.92,788.675 2179.15,814.4 2189.38,844.028 
  2199.61,862.915 2209.84,882.472 2220.07,906.923 2230.3,929.377 2240.53,949.474 2250.76,965.158 2260.99,979.095 2271.22,997.936 2281.45,1009.35 2291.68,1010.55 
  
  "/>
</svg>
