<?xml version="1.0" encoding="utf-8"?>
<svg xmlns="http://www.w3.org/2000/svg" xmlns:xlink="http://www.w3.org/1999/xlink" width="600" height="400" viewBox="0 0 2400 1600">
<defs>
  <clipPath id="clip450">
    <rect x="0" y="0" width="2400" height="1600"/>
  </clipPath>
</defs>
<path clip-path="url(#clip450)" d="
M0 1600 L2400 1600 L2400 0 L0 0  Z
  " fill="#ffffff" fill-rule="evenodd" fill-opacity="1"/>
<defs>
  <clipPath id="clip451">
    <rect x="480" y="0" width="1681" height="1600"/>
  </clipPath>
</defs>
<defs>
  <clipPath id="clip452">
    <rect x="156" y="47" width="2197" height="1440"/>
  </clipPath>
</defs>
<path clip-path="url(#clip450)" d="
M156.598 1486.45 L2352.76 1486.45 L2352.76 47.2441 L156.598 47.2441  Z
  " fill="#ffffff" fill-rule="evenodd" fill-opacity="1"/>
<polyline clip-path="url(#clip452)" style="stroke:#000000; stroke-linecap:round; stroke-linejoin:round; stroke-width:2; stroke-opacity:0.1; fill:none" points="
  156.598,1486.45 156.598,47.2441 
  "/>
<polyline clip-path="url(#clip452)" style="stroke:#000000; stroke-linecap:round; stroke-linejoin:round; stroke-width:2; stroke-opacity:0.1; fill:none" points="
  595.83,1486.45 595.83,47.2441 
  "/>
<polyline clip-path="url(#clip452)" style="stroke:#000000; stroke-linecap:round; stroke-linejoin:round; stroke-width:2; stroke-opacity:0.1; fill:none" points="
  1035.06,1486.45 1035.06,47.2441 
  "/>
<polyline clip-path="url(#clip452)" style="stroke:#000000; stroke-linecap:round; stroke-linejoin:round; stroke-width:2; stroke-opacity:0.1; fill:none" points="
  1474.29,1486.45 1474.29,47.2441 
  "/>
<polyline clip-path="url(#clip452)" style="stroke:#000000; stroke-linecap:round; stroke-linejoin:round; stroke-width:2; stroke-opacity:0.1; fill:none" points="
  1913.52,1486.45 1913.52,47.2441 
  "/>
<polyline clip-path="url(#clip452)" style="stroke:#000000; stroke-linecap:round; stroke-linejoin:round; stroke-width:2; stroke-opacity:0.1; fill:none" points="
  2352.76,1486.45 2352.76,47.2441 
  "/>
<polyline clip-path="url(#clip450)" style="stroke:#000000; stroke-linecap:round; stroke-linejoin:round; stroke-width:4; stroke-opacity:1; fill:none" points="
  156.598,1486.45 2352.76,1486.45 
  "/>
<polyline clip-path="url(#clip450)" style="stroke:#000000; stroke-linecap:round; stroke-linejoin:round; stroke-width:4; stroke-opacity:1; fill:none" points="
  156.598,1486.45 156.598,1467.55 
  "/>
<polyline clip-path="url(#clip450)" style="stroke:#000000; stroke-linecap:round; stroke-linejoin:round; stroke-width:4; stroke-opacity:1; fill:none" points="
  595.83,1486.45 595.83,1467.55 
  "/>
<polyline clip-path="url(#clip450)" style="stroke:#000000; stroke-linecap:round; stroke-linejoin:round; stroke-width:4; stroke-opacity:1; fill:none" points="
  1035.06,1486.45 1035.06,1467.55 
  "/>
<polyline clip-path="url(#clip450)" style="stroke:#000000; stroke-linecap:round; stroke-linejoin:round; stroke-width:4; stroke-opacity:1; fill:none" points="
  1474.29,1486.45 1474.29,1467.55 
  "/>
<polyline clip-path="url(#clip450)" style="stroke:#000000; stroke-linecap:round; stroke-linejoin:round; stroke-width:4; stroke-opacity:1; fill:none" points="
  1913.52,1486.45 1913.52,1467.55 
  "/>
<polyline clip-path="url(#clip450)" style="stroke:#000000; stroke-linecap:round; stroke-linejoin:round; stroke-width:4; stroke-opacity:1; fill:none" points="
  2352.76,1486.45 2352.76,1467.55 
  "/>
<path clip-path="url(#clip450)" d="M133.983 1517.37 Q130.372 1517.37 128.543 1520.93 Q126.737 1524.47 126.737 1531.6 Q126.737 1538.71 128.543 1542.27 Q130.372 1545.82 133.983 1545.82 Q137.617 1545.82 139.422 1542.27 Q141.251 1538.71 141.251 1531.6 Q141.251 1524.47 139.422 1520.93 Q137.617 1517.37 133.983 1517.37 M133.983 1513.66 Q139.793 1513.66 142.848 1518.27 Q145.927 1522.85 145.927 1531.6 Q145.927 1540.33 142.848 1544.94 Q139.793 1549.52 133.983 1549.52 Q128.172 1549.52 125.094 1544.94 Q122.038 1540.33 122.038 1531.6 Q122.038 1522.85 125.094 1518.27 Q128.172 1513.66 133.983 1513.66 Z" fill="#000000" fill-rule="evenodd" fill-opacity="1" /><path clip-path="url(#clip450)" d="M154.145 1542.97 L159.029 1542.97 L159.029 1548.85 L154.145 1548.85 L154.145 1542.97 Z" fill="#000000" fill-rule="evenodd" fill-opacity="1" /><path clip-path="url(#clip450)" d="M179.214 1517.37 Q175.603 1517.37 173.774 1520.93 Q171.969 1524.47 171.969 1531.6 Q171.969 1538.71 173.774 1542.27 Q175.603 1545.82 179.214 1545.82 Q182.848 1545.82 184.654 1542.27 Q186.482 1538.71 186.482 1531.6 Q186.482 1524.47 184.654 1520.93 Q182.848 1517.37 179.214 1517.37 M179.214 1513.66 Q185.024 1513.66 188.08 1518.27 Q191.158 1522.85 191.158 1531.6 Q191.158 1540.33 188.08 1544.94 Q185.024 1549.52 179.214 1549.52 Q173.404 1549.52 170.325 1544.94 Q167.269 1540.33 167.269 1531.6 Q167.269 1522.85 170.325 1518.27 Q173.404 1513.66 179.214 1513.66 Z" fill="#000000" fill-rule="evenodd" fill-opacity="1" /><path clip-path="url(#clip450)" d="M574.013 1517.37 Q570.402 1517.37 568.573 1520.93 Q566.767 1524.47 566.767 1531.6 Q566.767 1538.71 568.573 1542.27 Q570.402 1545.82 574.013 1545.82 Q577.647 1545.82 579.453 1542.27 Q581.281 1538.71 581.281 1531.6 Q581.281 1524.47 579.453 1520.93 Q577.647 1517.37 574.013 1517.37 M574.013 1513.66 Q579.823 1513.66 582.878 1518.27 Q585.957 1522.85 585.957 1531.6 Q585.957 1540.33 582.878 1544.94 Q579.823 1549.52 574.013 1549.52 Q568.203 1549.52 565.124 1544.94 Q562.068 1540.33 562.068 1531.6 Q562.068 1522.85 565.124 1518.27 Q568.203 1513.66 574.013 1513.66 Z" fill="#000000" fill-rule="evenodd" fill-opacity="1" /><path clip-path="url(#clip450)" d="M594.175 1542.97 L599.059 1542.97 L599.059 1548.85 L594.175 1548.85 L594.175 1542.97 Z" fill="#000000" fill-rule="evenodd" fill-opacity="1" /><path clip-path="url(#clip450)" d="M613.272 1544.91 L629.591 1544.91 L629.591 1548.85 L607.647 1548.85 L607.647 1544.91 Q610.309 1542.16 614.892 1537.53 Q619.499 1532.88 620.679 1531.53 Q622.925 1529.01 623.804 1527.27 Q624.707 1525.51 624.707 1523.82 Q624.707 1521.07 622.762 1519.33 Q620.841 1517.6 617.739 1517.6 Q615.54 1517.6 613.087 1518.36 Q610.656 1519.13 607.878 1520.68 L607.878 1515.95 Q610.702 1514.82 613.156 1514.24 Q615.61 1513.66 617.647 1513.66 Q623.017 1513.66 626.212 1516.35 Q629.406 1519.03 629.406 1523.52 Q629.406 1525.65 628.596 1527.57 Q627.809 1529.47 625.702 1532.07 Q625.124 1532.74 622.022 1535.95 Q618.92 1539.15 613.272 1544.91 Z" fill="#000000" fill-rule="evenodd" fill-opacity="1" /><path clip-path="url(#clip450)" d="M1012.2 1517.37 Q1008.59 1517.37 1006.76 1520.93 Q1004.96 1524.47 1004.96 1531.6 Q1004.96 1538.71 1006.76 1542.27 Q1008.59 1545.82 1012.2 1545.82 Q1015.84 1545.82 1017.64 1542.27 Q1019.47 1538.71 1019.47 1531.6 Q1019.47 1524.47 1017.64 1520.93 Q1015.84 1517.37 1012.2 1517.37 M1012.2 1513.66 Q1018.01 1513.66 1021.07 1518.27 Q1024.15 1522.85 1024.15 1531.6 Q1024.15 1540.33 1021.07 1544.94 Q1018.01 1549.52 1012.2 1549.52 Q1006.39 1549.52 1003.31 1544.94 Q1000.26 1540.33 1000.26 1531.6 Q1000.26 1522.85 1003.31 1518.27 Q1006.39 1513.66 1012.2 1513.66 Z" fill="#000000" fill-rule="evenodd" fill-opacity="1" /><path clip-path="url(#clip450)" d="M1032.36 1542.97 L1037.25 1542.97 L1037.25 1548.85 L1032.36 1548.85 L1032.36 1542.97 Z" fill="#000000" fill-rule="evenodd" fill-opacity="1" /><path clip-path="url(#clip450)" d="M1060.28 1518.36 L1048.48 1536.81 L1060.28 1536.81 L1060.28 1518.36 M1059.05 1514.29 L1064.93 1514.29 L1064.93 1536.81 L1069.86 1536.81 L1069.86 1540.7 L1064.93 1540.7 L1064.93 1548.85 L1060.28 1548.85 L1060.28 1540.7 L1044.68 1540.7 L1044.68 1536.19 L1059.05 1514.29 Z" fill="#000000" fill-rule="evenodd" fill-opacity="1" /><path clip-path="url(#clip450)" d="M1451.6 1517.37 Q1447.99 1517.37 1446.16 1520.93 Q1444.35 1524.47 1444.35 1531.6 Q1444.35 1538.71 1446.16 1542.27 Q1447.99 1545.82 1451.6 1545.82 Q1455.23 1545.82 1457.04 1542.27 Q1458.86 1538.71 1458.86 1531.6 Q1458.86 1524.47 1457.04 1520.93 Q1455.23 1517.37 1451.6 1517.37 M1451.6 1513.66 Q1457.41 1513.66 1460.46 1518.27 Q1463.54 1522.85 1463.54 1531.6 Q1463.54 1540.33 1460.46 1544.94 Q1457.41 1549.52 1451.6 1549.52 Q1445.79 1549.52 1442.71 1544.94 Q1439.65 1540.33 1439.65 1531.6 Q1439.65 1522.85 1442.71 1518.27 Q1445.79 1513.66 1451.6 1513.66 Z" fill="#000000" fill-rule="evenodd" fill-opacity="1" /><path clip-path="url(#clip450)" d="M1471.76 1542.97 L1476.64 1542.97 L1476.64 1548.85 L1471.76 1548.85 L1471.76 1542.97 Z" fill="#000000" fill-rule="evenodd" fill-opacity="1" /><path clip-path="url(#clip450)" d="M1497.41 1529.7 Q1494.26 1529.7 1492.41 1531.86 Q1490.58 1534.01 1490.58 1537.76 Q1490.58 1541.49 1492.41 1543.66 Q1494.26 1545.82 1497.41 1545.82 Q1500.55 1545.82 1502.38 1543.66 Q1504.23 1541.49 1504.23 1537.76 Q1504.23 1534.01 1502.38 1531.86 Q1500.55 1529.7 1497.41 1529.7 M1506.69 1515.05 L1506.69 1519.31 Q1504.93 1518.48 1503.12 1518.04 Q1501.34 1517.6 1499.58 1517.6 Q1494.95 1517.6 1492.5 1520.72 Q1490.07 1523.85 1489.72 1530.17 Q1491.09 1528.15 1493.15 1527.09 Q1495.21 1526 1497.68 1526 Q1502.89 1526 1505.9 1529.17 Q1508.93 1532.32 1508.93 1537.76 Q1508.93 1543.08 1505.79 1546.3 Q1502.64 1549.52 1497.41 1549.52 Q1491.41 1549.52 1488.24 1544.94 Q1485.07 1540.33 1485.07 1531.6 Q1485.07 1523.41 1488.96 1518.55 Q1492.85 1513.66 1499.4 1513.66 Q1501.16 1513.66 1502.94 1514.01 Q1504.74 1514.36 1506.69 1515.05 Z" fill="#000000" fill-rule="evenodd" fill-opacity="1" /><path clip-path="url(#clip450)" d="M1890.96 1517.37 Q1887.34 1517.37 1885.52 1520.93 Q1883.71 1524.47 1883.71 1531.6 Q1883.71 1538.71 1885.52 1542.27 Q1887.34 1545.82 1890.96 1545.82 Q1894.59 1545.82 1896.39 1542.27 Q1898.22 1538.71 1898.22 1531.6 Q1898.22 1524.47 1896.39 1520.93 Q1894.59 1517.37 1890.96 1517.37 M1890.96 1513.66 Q1896.77 1513.66 1899.82 1518.27 Q1902.9 1522.85 1902.9 1531.6 Q1902.9 1540.33 1899.82 1544.94 Q1896.77 1549.52 1890.96 1549.52 Q1885.14 1549.52 1882.07 1544.94 Q1879.01 1540.33 1879.01 1531.6 Q1879.01 1522.85 1882.07 1518.27 Q1885.14 1513.66 1890.96 1513.66 Z" fill="#000000" fill-rule="evenodd" fill-opacity="1" /><path clip-path="url(#clip450)" d="M1911.12 1542.97 L1916 1542.97 L1916 1548.85 L1911.12 1548.85 L1911.12 1542.97 Z" fill="#000000" fill-rule="evenodd" fill-opacity="1" /><path clip-path="url(#clip450)" d="M1936.19 1532.44 Q1932.85 1532.44 1930.93 1534.22 Q1929.03 1536 1929.03 1539.13 Q1929.03 1542.25 1930.93 1544.03 Q1932.85 1545.82 1936.19 1545.82 Q1939.52 1545.82 1941.44 1544.03 Q1943.36 1542.23 1943.36 1539.13 Q1943.36 1536 1941.44 1534.22 Q1939.54 1532.44 1936.19 1532.44 M1931.51 1530.45 Q1928.5 1529.7 1926.81 1527.64 Q1925.14 1525.58 1925.14 1522.62 Q1925.14 1518.48 1928.08 1516.07 Q1931.05 1513.66 1936.19 1513.66 Q1941.35 1513.66 1944.29 1516.07 Q1947.23 1518.48 1947.23 1522.62 Q1947.23 1525.58 1945.54 1527.64 Q1943.87 1529.7 1940.89 1530.45 Q1944.26 1531.23 1946.14 1533.52 Q1948.04 1535.82 1948.04 1539.13 Q1948.04 1544.15 1944.96 1546.83 Q1941.9 1549.52 1936.19 1549.52 Q1930.47 1549.52 1927.39 1546.83 Q1924.33 1544.15 1924.33 1539.13 Q1924.33 1535.82 1926.23 1533.52 Q1928.13 1531.23 1931.51 1530.45 M1929.8 1523.06 Q1929.8 1525.75 1931.46 1527.25 Q1933.15 1528.76 1936.19 1528.76 Q1939.2 1528.76 1940.89 1527.25 Q1942.6 1525.75 1942.6 1523.06 Q1942.6 1520.38 1940.89 1518.87 Q1939.2 1517.37 1936.19 1517.37 Q1933.15 1517.37 1931.46 1518.87 Q1929.8 1520.38 1929.8 1523.06 Z" fill="#000000" fill-rule="evenodd" fill-opacity="1" /><path clip-path="url(#clip450)" d="M2319.91 1544.91 L2327.55 1544.91 L2327.55 1518.55 L2319.24 1520.21 L2319.24 1515.95 L2327.5 1514.29 L2332.18 1514.29 L2332.18 1544.91 L2339.82 1544.91 L2339.82 1548.85 L2319.91 1548.85 L2319.91 1544.91 Z" fill="#000000" fill-rule="evenodd" fill-opacity="1" /><path clip-path="url(#clip450)" d="M2349.26 1542.97 L2354.14 1542.97 L2354.14 1548.85 L2349.26 1548.85 L2349.26 1542.97 Z" fill="#000000" fill-rule="evenodd" fill-opacity="1" /><path clip-path="url(#clip450)" d="M2374.33 1517.37 Q2370.72 1517.37 2368.89 1520.93 Q2367.08 1524.47 2367.08 1531.6 Q2367.08 1538.71 2368.89 1542.27 Q2370.72 1545.82 2374.33 1545.82 Q2377.96 1545.82 2379.77 1542.27 Q2381.6 1538.71 2381.6 1531.6 Q2381.6 1524.47 2379.77 1520.93 Q2377.96 1517.37 2374.33 1517.37 M2374.33 1513.66 Q2380.14 1513.66 2383.2 1518.27 Q2386.27 1522.85 2386.27 1531.6 Q2386.27 1540.33 2383.2 1544.94 Q2380.14 1549.52 2374.33 1549.52 Q2368.52 1549.52 2365.44 1544.94 Q2362.39 1540.33 2362.39 1531.6 Q2362.39 1522.85 2365.44 1518.27 Q2368.52 1513.66 2374.33 1513.66 Z" fill="#000000" fill-rule="evenodd" fill-opacity="1" /><polyline clip-path="url(#clip452)" style="stroke:#000000; stroke-linecap:round; stroke-linejoin:round; stroke-width:2; stroke-opacity:0.1; fill:none" points="
  156.598,1486.45 2352.76,1486.45 
  "/>
<polyline clip-path="url(#clip452)" style="stroke:#000000; stroke-linecap:round; stroke-linejoin:round; stroke-width:2; stroke-opacity:0.1; fill:none" points="
  156.598,1198.61 2352.76,1198.61 
  "/>
<polyline clip-path="url(#clip452)" style="stroke:#000000; stroke-linecap:round; stroke-linejoin:round; stroke-width:2; stroke-opacity:0.1; fill:none" points="
  156.598,910.766 2352.76,910.766 
  "/>
<polyline clip-path="url(#clip452)" style="stroke:#000000; stroke-linecap:round; stroke-linejoin:round; stroke-width:2; stroke-opacity:0.1; fill:none" points="
  156.598,622.926 2352.76,622.926 
  "/>
<polyline clip-path="url(#clip452)" style="stroke:#000000; stroke-linecap:round; stroke-linejoin:round; stroke-width:2; stroke-opacity:0.1; fill:none" points="
  156.598,335.085 2352.76,335.085 
  "/>
<polyline clip-path="url(#clip452)" style="stroke:#000000; stroke-linecap:round; stroke-linejoin:round; stroke-width:2; stroke-opacity:0.1; fill:none" points="
  156.598,47.2441 2352.76,47.2441 
  "/>
<polyline clip-path="url(#clip450)" style="stroke:#000000; stroke-linecap:round; stroke-linejoin:round; stroke-width:4; stroke-opacity:1; fill:none" points="
  156.598,1486.45 156.598,47.2441 
  "/>
<polyline clip-path="url(#clip450)" style="stroke:#000000; stroke-linecap:round; stroke-linejoin:round; stroke-width:4; stroke-opacity:1; fill:none" points="
  156.598,1486.45 175.496,1486.45 
  "/>
<polyline clip-path="url(#clip450)" style="stroke:#000000; stroke-linecap:round; stroke-linejoin:round; stroke-width:4; stroke-opacity:1; fill:none" points="
  156.598,1198.61 175.496,1198.61 
  "/>
<polyline clip-path="url(#clip450)" style="stroke:#000000; stroke-linecap:round; stroke-linejoin:round; stroke-width:4; stroke-opacity:1; fill:none" points="
  156.598,910.766 175.496,910.766 
  "/>
<polyline clip-path="url(#clip450)" style="stroke:#000000; stroke-linecap:round; stroke-linejoin:round; stroke-width:4; stroke-opacity:1; fill:none" points="
  156.598,622.926 175.496,622.926 
  "/>
<polyline clip-path="url(#clip450)" style="stroke:#000000; stroke-linecap:round; stroke-linejoin:round; stroke-width:4; stroke-opacity:1; fill:none" points="
  156.598,335.085 175.496,335.085 
  "/>
<polyline clip-path="url(#clip450)" style="stroke:#000000; stroke-linecap:round; stroke-linejoin:round; stroke-width:4; stroke-opacity:1; fill:none" points="
  156.598,47.2441 175.496,47.2441 
  "/>
<path clip-path="url(#clip450)" d="M63.4226 1472.25 Q59.8115 1472.25 57.9828 1475.81 Q56.1773 1479.35 56.1773 1486.48 Q56.1773 1493.59 57.9828 1497.15 Q59.8115 1500.7 63.4226 1500.7 Q67.0569 1500.7 68.8624 1497.15 Q70.6911 1493.59 70.6911 1486.48 Q70.6911 1479.35 68.8624 1475.81 Q67.0569 1472.25 63.4226 1472.25 M63.4226 1468.54 Q69.2328 1468.54 72.2883 1473.15 Q75.367 1477.73 75.367 1486.48 Q75.367 1495.21 72.2883 1499.82 Q69.2328 1504.4 63.4226 1504.4 Q57.6125 1504.4 54.5338 1499.82 Q51.4782 1495.21 51.4782 1486.48 Q51.4782 1477.73 54.5338 1473.15 Q57.6125 1468.54 63.4226 1468.54 Z" fill="#000000" fill-rule="evenodd" fill-opacity="1" /><path clip-path="url(#clip450)" d="M83.5845 1497.85 L88.4688 1497.85 L88.4688 1503.73 L83.5845 1503.73 L83.5845 1497.85 Z" fill="#000000" fill-rule="evenodd" fill-opacity="1" /><path clip-path="url(#clip450)" d="M108.654 1472.25 Q105.043 1472.25 103.214 1475.81 Q101.409 1479.35 101.409 1486.48 Q101.409 1493.59 103.214 1497.15 Q105.043 1500.7 108.654 1500.7 Q112.288 1500.7 114.094 1497.15 Q115.922 1493.59 115.922 1486.48 Q115.922 1479.35 114.094 1475.81 Q112.288 1472.25 108.654 1472.25 M108.654 1468.54 Q114.464 1468.54 117.52 1473.15 Q120.598 1477.73 120.598 1486.48 Q120.598 1495.21 117.52 1499.82 Q114.464 1504.4 108.654 1504.4 Q102.844 1504.4 99.765 1499.82 Q96.7095 1495.21 96.7095 1486.48 Q96.7095 1477.73 99.765 1473.15 Q102.844 1468.54 108.654 1468.54 Z" fill="#000000" fill-rule="evenodd" fill-opacity="1" /><path clip-path="url(#clip450)" d="M65.0198 1184.41 Q61.4087 1184.41 59.58 1187.97 Q57.7745 1191.51 57.7745 1198.64 Q57.7745 1205.75 59.58 1209.31 Q61.4087 1212.85 65.0198 1212.85 Q68.6541 1212.85 70.4596 1209.31 Q72.2883 1205.75 72.2883 1198.64 Q72.2883 1191.51 70.4596 1187.97 Q68.6541 1184.41 65.0198 1184.41 M65.0198 1180.7 Q70.83 1180.7 73.8855 1185.31 Q76.9642 1189.89 76.9642 1198.64 Q76.9642 1207.37 73.8855 1211.98 Q70.83 1216.56 65.0198 1216.56 Q59.2097 1216.56 56.131 1211.98 Q53.0754 1207.37 53.0754 1198.64 Q53.0754 1189.89 56.131 1185.31 Q59.2097 1180.7 65.0198 1180.7 Z" fill="#000000" fill-rule="evenodd" fill-opacity="1" /><path clip-path="url(#clip450)" d="M85.1818 1210.01 L90.066 1210.01 L90.066 1215.89 L85.1818 1215.89 L85.1818 1210.01 Z" fill="#000000" fill-rule="evenodd" fill-opacity="1" /><path clip-path="url(#clip450)" d="M104.279 1211.95 L120.598 1211.95 L120.598 1215.89 L98.6539 1215.89 L98.6539 1211.95 Q101.316 1209.2 105.899 1204.57 Q110.506 1199.91 111.686 1198.57 Q113.932 1196.05 114.811 1194.31 Q115.714 1192.55 115.714 1190.86 Q115.714 1188.11 113.77 1186.37 Q111.848 1184.64 108.746 1184.64 Q106.547 1184.64 104.094 1185.4 Q101.663 1186.17 98.8854 1187.72 L98.8854 1182.99 Q101.709 1181.86 104.163 1181.28 Q106.617 1180.7 108.654 1180.7 Q114.024 1180.7 117.219 1183.39 Q120.413 1186.07 120.413 1190.56 Q120.413 1192.69 119.603 1194.61 Q118.816 1196.51 116.709 1199.1 Q116.131 1199.78 113.029 1202.99 Q109.927 1206.19 104.279 1211.95 Z" fill="#000000" fill-rule="evenodd" fill-opacity="1" /><path clip-path="url(#clip450)" d="M62.9365 896.565 Q59.3254 896.565 57.4967 900.13 Q55.6912 903.671 55.6912 910.801 Q55.6912 917.908 57.4967 921.472 Q59.3254 925.014 62.9365 925.014 Q66.5707 925.014 68.3763 921.472 Q70.205 917.908 70.205 910.801 Q70.205 903.671 68.3763 900.13 Q66.5707 896.565 62.9365 896.565 M62.9365 892.861 Q68.7467 892.861 71.8022 897.468 Q74.8809 902.051 74.8809 910.801 Q74.8809 919.528 71.8022 924.134 Q68.7467 928.718 62.9365 928.718 Q57.1264 928.718 54.0477 924.134 Q50.9921 919.528 50.9921 910.801 Q50.9921 902.051 54.0477 897.468 Q57.1264 892.861 62.9365 892.861 Z" fill="#000000" fill-rule="evenodd" fill-opacity="1" /><path clip-path="url(#clip450)" d="M83.0984 922.167 L87.9827 922.167 L87.9827 928.046 L83.0984 928.046 L83.0984 922.167 Z" fill="#000000" fill-rule="evenodd" fill-opacity="1" /><path clip-path="url(#clip450)" d="M111.015 897.56 L99.2095 916.009 L111.015 916.009 L111.015 897.56 M109.788 893.486 L115.668 893.486 L115.668 916.009 L120.598 916.009 L120.598 919.898 L115.668 919.898 L115.668 928.046 L111.015 928.046 L111.015 919.898 L95.4132 919.898 L95.4132 915.384 L109.788 893.486 Z" fill="#000000" fill-rule="evenodd" fill-opacity="1" /><path clip-path="url(#clip450)" d="M63.2606 608.724 Q59.6495 608.724 57.8208 612.289 Q56.0152 615.831 56.0152 622.96 Q56.0152 630.067 57.8208 633.632 Q59.6495 637.173 63.2606 637.173 Q66.8948 637.173 68.7004 633.632 Q70.5291 630.067 70.5291 622.96 Q70.5291 615.831 68.7004 612.289 Q66.8948 608.724 63.2606 608.724 M63.2606 605.021 Q69.0707 605.021 72.1263 609.627 Q75.205 614.21 75.205 622.96 Q75.205 631.687 72.1263 636.294 Q69.0707 640.877 63.2606 640.877 Q57.4504 640.877 54.3717 636.294 Q51.3162 631.687 51.3162 622.96 Q51.3162 614.21 54.3717 609.627 Q57.4504 605.021 63.2606 605.021 Z" fill="#000000" fill-rule="evenodd" fill-opacity="1" /><path clip-path="url(#clip450)" d="M83.4225 634.326 L88.3067 634.326 L88.3067 640.206 L83.4225 640.206 L83.4225 634.326 Z" fill="#000000" fill-rule="evenodd" fill-opacity="1" /><path clip-path="url(#clip450)" d="M109.071 621.062 Q105.922 621.062 104.071 623.215 Q102.242 625.368 102.242 629.118 Q102.242 632.845 104.071 635.02 Q105.922 637.173 109.071 637.173 Q112.219 637.173 114.047 635.02 Q115.899 632.845 115.899 629.118 Q115.899 625.368 114.047 623.215 Q112.219 621.062 109.071 621.062 M118.353 606.409 L118.353 610.669 Q116.594 609.835 114.788 609.396 Q113.006 608.956 111.246 608.956 Q106.617 608.956 104.163 612.081 Q101.733 615.206 101.385 621.525 Q102.751 619.511 104.811 618.446 Q106.871 617.359 109.348 617.359 Q114.557 617.359 117.566 620.53 Q120.598 623.678 120.598 629.118 Q120.598 634.442 117.45 637.659 Q114.302 640.877 109.071 640.877 Q103.075 640.877 99.9039 636.294 Q96.7326 631.687 96.7326 622.96 Q96.7326 614.766 100.621 609.905 Q104.51 605.021 111.061 605.021 Q112.82 605.021 114.603 605.368 Q116.408 605.715 118.353 606.409 Z" fill="#000000" fill-rule="evenodd" fill-opacity="1" /><path clip-path="url(#clip450)" d="M63.5152 320.884 Q59.9041 320.884 58.0754 324.448 Q56.2699 327.99 56.2699 335.12 Q56.2699 342.226 58.0754 345.791 Q59.9041 349.332 63.5152 349.332 Q67.1494 349.332 68.955 345.791 Q70.7837 342.226 70.7837 335.12 Q70.7837 327.99 68.955 324.448 Q67.1494 320.884 63.5152 320.884 M63.5152 317.18 Q69.3254 317.18 72.3809 321.786 Q75.4596 326.37 75.4596 335.12 Q75.4596 343.846 72.3809 348.453 Q69.3254 353.036 63.5152 353.036 Q57.7051 353.036 54.6264 348.453 Q51.5708 343.846 51.5708 335.12 Q51.5708 326.37 54.6264 321.786 Q57.7051 317.18 63.5152 317.18 Z" fill="#000000" fill-rule="evenodd" fill-opacity="1" /><path clip-path="url(#clip450)" d="M83.6771 346.485 L88.5614 346.485 L88.5614 352.365 L83.6771 352.365 L83.6771 346.485 Z" fill="#000000" fill-rule="evenodd" fill-opacity="1" /><path clip-path="url(#clip450)" d="M108.746 335.953 Q105.413 335.953 103.492 337.735 Q101.594 339.518 101.594 342.643 Q101.594 345.768 103.492 347.55 Q105.413 349.332 108.746 349.332 Q112.08 349.332 114.001 347.55 Q115.922 345.745 115.922 342.643 Q115.922 339.518 114.001 337.735 Q112.103 335.953 108.746 335.953 M104.071 333.962 Q101.061 333.221 99.3715 331.161 Q97.7048 329.101 97.7048 326.138 Q97.7048 321.995 100.645 319.587 Q103.608 317.18 108.746 317.18 Q113.908 317.18 116.848 319.587 Q119.788 321.995 119.788 326.138 Q119.788 329.101 118.098 331.161 Q116.432 333.221 113.445 333.962 Q116.825 334.749 118.7 337.041 Q120.598 339.333 120.598 342.643 Q120.598 347.666 117.52 350.351 Q114.464 353.036 108.746 353.036 Q103.029 353.036 99.9502 350.351 Q96.8947 347.666 96.8947 342.643 Q96.8947 339.333 98.7928 337.041 Q100.691 334.749 104.071 333.962 M102.358 326.578 Q102.358 329.263 104.024 330.768 Q105.714 332.272 108.746 332.272 Q111.756 332.272 113.445 330.768 Q115.158 329.263 115.158 326.578 Q115.158 323.893 113.445 322.388 Q111.756 320.884 108.746 320.884 Q105.714 320.884 104.024 322.388 Q102.358 323.893 102.358 326.578 Z" fill="#000000" fill-rule="evenodd" fill-opacity="1" /><path clip-path="url(#clip450)" d="M54.2328 60.5889 L61.8717 60.5889 L61.8717 34.2233 L53.5616 35.89 L53.5616 31.6308 L61.8254 29.9641 L66.5013 29.9641 L66.5013 60.5889 L74.1402 60.5889 L74.1402 64.5241 L54.2328 64.5241 L54.2328 60.5889 Z" fill="#000000" fill-rule="evenodd" fill-opacity="1" /><path clip-path="url(#clip450)" d="M83.5845 58.6445 L88.4688 58.6445 L88.4688 64.5241 L83.5845 64.5241 L83.5845 58.6445 Z" fill="#000000" fill-rule="evenodd" fill-opacity="1" /><path clip-path="url(#clip450)" d="M108.654 33.0428 Q105.043 33.0428 103.214 36.6076 Q101.409 40.1492 101.409 47.2788 Q101.409 54.3853 103.214 57.9501 Q105.043 61.4917 108.654 61.4917 Q112.288 61.4917 114.094 57.9501 Q115.922 54.3853 115.922 47.2788 Q115.922 40.1492 114.094 36.6076 Q112.288 33.0428 108.654 33.0428 M108.654 29.3391 Q114.464 29.3391 117.52 33.9456 Q120.598 38.5289 120.598 47.2788 Q120.598 56.0056 117.52 60.6121 Q114.464 65.1954 108.654 65.1954 Q102.844 65.1954 99.765 60.6121 Q96.7095 56.0056 96.7095 47.2788 Q96.7095 38.5289 99.765 33.9456 Q102.844 29.3391 108.654 29.3391 Z" fill="#000000" fill-rule="evenodd" fill-opacity="1" /><polyline clip-path="url(#clip452)" style="stroke:#0000ff; stroke-linecap:round; stroke-linejoin:round; stroke-width:12; stroke-opacity:1; fill:none" stroke-dasharray="48, 24, 6, 24, 6, 24" points="
  4548.91,-1391.96 4548.91,-1391.96 
  "/>
<polyline clip-path="url(#clip452)" style="stroke:#0000ff; stroke-linecap:round; stroke-linejoin:round; stroke-width:12; stroke-opacity:1; fill:none" stroke-dasharray="48, 30" points="
  4548.91,-1391.96 4548.91,-1391.96 
  "/>
<polyline clip-path="url(#clip452)" style="stroke:#0000ff; stroke-linecap:round; stroke-linejoin:round; stroke-width:12; stroke-opacity:1; fill:none" points="
  4548.91,-1391.96 4548.91,-1391.96 
  "/>
<path clip-path="url(#clip450)" d="
M1489.6 872.818 L2279.55 872.818 L2279.55 95.2176 L1489.6 95.2176  Z
  " fill="#ffffff" fill-rule="evenodd" fill-opacity="1"/>
<polyline clip-path="url(#clip450)" style="stroke:#000000; stroke-linecap:round; stroke-linejoin:round; stroke-width:4; stroke-opacity:1; fill:none" points="
  1489.6,872.818 2279.55,872.818 2279.55,95.2176 1489.6,95.2176 1489.6,872.818 
  "/>
<polyline clip-path="url(#clip450)" style="stroke:#000000; stroke-linecap:round; stroke-linejoin:round; stroke-width:10; stroke-opacity:1; fill:none" points="
  1514,224.818 1660.41,224.818 
  "/>
<path clip-path="url(#clip450)" d="M1744.6 178.214 Q1744.6 181.435 1742.55 183.426 Q1740.56 185.417 1738.04 185.417 Q1736.22 185.417 1734.88 184.304 Q1733.59 183.192 1733.59 181.259 Q1733.59 179.268 1735.11 177.16 Q1736.63 175.052 1740.09 174.759 Q1737.81 172.593 1734.18 172.593 Q1732.36 172.593 1730.84 173.764 Q1729.37 174.877 1728.55 176.692 Q1727.68 178.566 1725.68 189.164 Q1725.04 192.619 1724.45 195.957 Q1723.87 199.294 1723.17 202.808 L1733.12 202.808 Q1734.41 202.808 1734.94 202.866 Q1735.46 202.925 1735.87 203.218 Q1736.34 203.51 1736.34 204.155 Q1736.34 205.794 1735.58 206.204 Q1734.88 206.555 1732.77 206.555 L1722.46 206.555 L1715.26 244.558 Q1715.09 245.671 1714.32 249.184 Q1713.62 252.639 1711.92 258.319 Q1710.23 264.058 1708.53 267.454 Q1707.59 269.386 1706.36 271.201 Q1705.19 273.075 1703.49 274.949 Q1701.79 276.823 1699.57 277.935 Q1697.34 279.106 1695 279.106 Q1691.02 279.106 1687.92 276.881 Q1684.81 274.656 1684.81 270.85 Q1684.81 267.629 1686.8 265.639 Q1688.85 263.648 1691.37 263.648 Q1693.19 263.648 1694.47 264.76 Q1695.82 265.873 1695.82 267.805 Q1695.82 268.625 1695.53 269.562 Q1695.24 270.499 1694.59 271.553 Q1693.95 272.665 1692.54 273.426 Q1691.14 274.188 1689.2 274.305 Q1691.49 276.471 1695 276.471 Q1696.11 276.471 1697.11 276.003 Q1698.1 275.593 1698.92 274.539 Q1699.8 273.485 1700.45 272.431 Q1701.09 271.436 1701.73 269.503 Q1702.38 267.629 1702.79 266.224 Q1703.2 264.819 1703.73 262.301 Q1704.31 259.783 1704.6 258.26 Q1704.9 256.797 1705.42 253.927 L1714.38 206.555 L1706.48 206.555 Q1705.07 206.555 1704.49 206.497 Q1703.96 206.438 1703.55 206.146 Q1703.14 205.794 1703.14 205.092 Q1703.14 203.979 1703.61 203.51 Q1704.14 202.983 1704.72 202.925 Q1705.31 202.808 1706.71 202.808 L1715.03 202.808 Q1717.84 187.993 1718.95 184.011 Q1720.24 179.795 1722.23 176.867 Q1724.22 173.881 1726.45 172.476 Q1728.67 171.07 1730.49 170.543 Q1732.36 169.958 1734.18 169.958 Q1738.27 169.958 1741.44 172.183 Q1744.6 174.35 1744.6 178.214 Z" fill="#000000" fill-rule="evenodd" fill-opacity="1" /><circle clip-path="url(#clip450)" cx="1587.21" cy="354.418" r="57.6" fill="#008000" fill-rule="evenodd" fill-opacity="1" stroke="#000000" stroke-opacity="1" stroke-width="12.8"/>
<path clip-path="url(#clip450)" d="M1730.88 334.713 L1730.88 344.782 Q1726.36 342.467 1721.5 341.31 Q1716.64 340.153 1711.43 340.153 Q1703.5 340.153 1699.51 342.583 Q1695.58 345.014 1695.58 349.875 Q1695.58 353.578 1698.41 355.72 Q1701.25 357.803 1709.81 359.713 L1713.46 360.523 Q1724.8 362.953 1729.55 367.409 Q1734.35 371.808 1734.35 379.736 Q1734.35 388.763 1727.17 394.03 Q1720.06 399.296 1707.56 399.296 Q1702.35 399.296 1696.68 398.254 Q1691.06 397.27 1684.81 395.245 L1684.81 384.25 Q1690.71 387.317 1696.44 388.879 Q1702.17 390.384 1707.79 390.384 Q1715.31 390.384 1719.36 387.838 Q1723.41 385.233 1723.41 380.546 Q1723.41 376.206 1720.46 373.891 Q1717.57 371.576 1707.67 369.435 L1703.97 368.567 Q1694.07 366.483 1689.67 362.201 Q1685.28 357.861 1685.28 350.338 Q1685.28 341.194 1691.76 336.217 Q1698.24 331.241 1710.16 331.241 Q1716.06 331.241 1721.27 332.109 Q1726.48 332.977 1730.88 334.713 Z" fill="#000000" fill-rule="evenodd" fill-opacity="1" /><path clip-path="url(#clip450)" d="M1780.76 365.037 Q1767.86 365.037 1762.88 367.988 Q1757.9 370.939 1757.9 378.057 Q1757.9 383.729 1761.61 387.085 Q1765.37 390.384 1771.79 390.384 Q1780.65 390.384 1785.97 384.134 Q1791.35 377.826 1791.35 367.409 L1791.35 365.037 L1780.76 365.037 M1802 360.639 L1802 397.618 L1791.35 397.618 L1791.35 387.78 Q1787.71 393.682 1782.27 396.518 Q1776.83 399.296 1768.96 399.296 Q1759 399.296 1753.1 393.74 Q1747.25 388.127 1747.25 378.752 Q1747.25 367.814 1754.55 362.259 Q1761.9 356.703 1776.42 356.703 L1791.35 356.703 L1791.35 355.662 Q1791.35 348.312 1786.49 344.319 Q1781.69 340.268 1772.95 340.268 Q1767.39 340.268 1762.13 341.599 Q1756.86 342.93 1752 345.592 L1752 335.754 Q1757.84 333.498 1763.34 332.398 Q1768.84 331.241 1774.05 331.241 Q1788.11 331.241 1795.05 338.532 Q1802 345.824 1802 360.639 Z" fill="#000000" fill-rule="evenodd" fill-opacity="1" /><path clip-path="url(#clip450)" d="M1874.39 345.245 Q1878.39 338.069 1883.94 334.655 Q1889.5 331.241 1897.02 331.241 Q1907.15 331.241 1912.65 338.359 Q1918.14 345.419 1918.14 358.497 L1918.14 397.618 L1907.44 397.618 L1907.44 358.845 Q1907.44 349.528 1904.14 345.014 Q1900.84 340.5 1894.07 340.5 Q1885.79 340.5 1880.99 345.997 Q1876.19 351.495 1876.19 360.986 L1876.19 397.618 L1865.48 397.618 L1865.48 358.845 Q1865.48 349.47 1862.18 345.014 Q1858.89 340.5 1852 340.5 Q1843.84 340.5 1839.04 346.055 Q1834.23 351.553 1834.23 360.986 L1834.23 397.618 L1823.53 397.618 L1823.53 332.803 L1834.23 332.803 L1834.23 342.872 Q1837.88 336.912 1842.97 334.076 Q1848.06 331.241 1855.07 331.241 Q1862.13 331.241 1867.05 334.829 Q1872.02 338.416 1874.39 345.245 Z" fill="#000000" fill-rule="evenodd" fill-opacity="1" /><path clip-path="url(#clip450)" d="M1949.68 387.895 L1949.68 422.27 L1938.98 422.27 L1938.98 332.803 L1949.68 332.803 L1949.68 342.641 Q1953.04 336.854 1958.13 334.076 Q1963.28 331.241 1970.4 331.241 Q1982.21 331.241 1989.56 340.616 Q1996.96 349.99 1996.96 365.268 Q1996.96 380.546 1989.56 389.921 Q1982.21 399.296 1970.4 399.296 Q1963.28 399.296 1958.13 396.518 Q1953.04 393.682 1949.68 387.895 M1985.91 365.268 Q1985.91 353.521 1981.05 346.866 Q1976.25 340.153 1967.8 340.153 Q1959.35 340.153 1954.49 346.866 Q1949.68 353.521 1949.68 365.268 Q1949.68 377.016 1954.49 383.729 Q1959.35 390.384 1967.8 390.384 Q1976.25 390.384 1981.05 383.729 Q1985.91 377.016 1985.91 365.268 Z" fill="#000000" fill-rule="evenodd" fill-opacity="1" /><path clip-path="url(#clip450)" d="M2014.61 307.572 L2025.26 307.572 L2025.26 397.618 L2014.61 397.618 L2014.61 307.572 Z" fill="#000000" fill-rule="evenodd" fill-opacity="1" /><path clip-path="url(#clip450)" d="M2102.98 362.548 L2102.98 367.757 L2054.02 367.757 Q2054.72 378.752 2060.62 384.539 Q2066.58 390.268 2077.17 390.268 Q2083.31 390.268 2089.03 388.763 Q2094.82 387.259 2100.49 384.25 L2100.49 394.319 Q2094.76 396.75 2088.75 398.023 Q2082.73 399.296 2076.53 399.296 Q2061.03 399.296 2051.94 390.268 Q2042.91 381.24 2042.91 365.847 Q2042.91 349.933 2051.48 340.616 Q2060.1 331.241 2074.68 331.241 Q2087.76 331.241 2095.34 339.69 Q2102.98 348.081 2102.98 362.548 M2092.33 359.423 Q2092.22 350.685 2087.41 345.477 Q2082.67 340.268 2074.8 340.268 Q2065.89 340.268 2060.5 345.303 Q2055.18 350.338 2054.37 359.481 L2092.33 359.423 Z" fill="#000000" fill-rule="evenodd" fill-opacity="1" /><polyline clip-path="url(#clip450)" style="stroke:#0000ff; stroke-linecap:round; stroke-linejoin:round; stroke-width:10; stroke-opacity:1; fill:none" stroke-dasharray="40, 20, 5, 20, 5, 20" points="
  1514,484.018 1660.41,484.018 
  "/>
<path clip-path="url(#clip450)" d="M1750.77 441.181 L1749.75 442.862 Q1743.4 440.115 1735.49 435.73 Q1727.57 440.115 1721.22 442.862 L1720.24 441.181 Q1727.16 435.156 1735.49 430.524 Q1743.89 435.197 1750.77 441.181 Z" fill="#000000" fill-rule="evenodd" fill-opacity="1" /><path clip-path="url(#clip450)" d="M1769.95 458.635 L1767.55 479.364 Q1767.38 481.238 1767.08 481.823 Q1766.79 482.35 1765.85 482.35 Q1764.45 482.35 1764.45 480.945 Q1764.45 480.359 1764.68 478.778 Q1765.03 475.558 1765.03 472.279 Q1765.03 468.59 1764.33 466.306 Q1763.69 463.964 1761.81 462.266 Q1759.94 460.567 1756.48 459.865 Q1753.03 459.104 1747.53 459.104 L1731.72 459.104 Q1727.85 459.104 1726.91 459.806 Q1726.04 460.509 1725.22 463.788 L1717.55 494.237 L1728.44 494.237 Q1736.05 494.237 1739.04 492.012 Q1742.02 489.787 1743.9 482.702 Q1744.19 481.589 1744.31 481.179 Q1744.48 480.711 1744.77 480.476 Q1745.13 480.184 1745.71 480.184 Q1746.24 480.184 1746.59 480.535 Q1746.94 480.828 1747.06 481.179 L1747.17 481.531 Q1747.17 482.116 1746.82 483.463 L1740.21 509.462 Q1739.74 511.218 1739.45 511.628 Q1739.21 511.98 1738.39 511.98 Q1737.81 511.98 1737.4 511.57 Q1736.99 511.16 1736.99 510.516 Q1737.1 509.813 1737.34 509.228 Q1738.16 505.656 1738.16 503.372 Q1738.16 501.908 1737.86 501.03 Q1737.57 500.151 1736.58 499.39 Q1735.58 498.629 1733.53 498.278 Q1731.48 497.926 1728.2 497.926 L1716.61 497.926 L1709.17 527.79 L1708.64 530.542 Q1708.64 531.772 1709.29 532.24 Q1709.99 532.709 1712.51 532.943 Q1716.26 533.236 1718.72 533.236 Q1721.76 533.236 1722.11 533.353 Q1722.82 533.704 1722.82 534.641 Q1722.82 535.695 1722.35 536.28 Q1721.88 536.807 1721.47 536.866 Q1721.06 536.925 1720.3 536.925 L1702.44 536.573 L1686.63 536.925 Q1684.81 536.925 1684.81 535.461 Q1684.81 534.348 1685.28 533.88 Q1685.75 533.353 1686.28 533.294 Q1686.8 533.236 1688.15 533.236 Q1691.08 533.236 1692.83 533.06 Q1694.59 532.884 1695.7 532.65 Q1696.87 532.357 1697.46 531.537 Q1698.1 530.718 1698.4 530.015 Q1698.69 529.254 1699.1 527.556 L1714.91 464.139 Q1715.5 461.973 1715.5 461.27 Q1715.5 460.509 1714.97 460.04 Q1714.5 459.572 1713.21 459.396 Q1711.92 459.162 1710.87 459.162 Q1709.87 459.104 1707.71 459.104 Q1706.3 459.104 1705.72 459.045 Q1705.19 458.986 1704.78 458.694 Q1704.37 458.401 1704.37 457.757 Q1704.37 456.117 1705.07 455.766 Q1705.83 455.356 1707.94 455.356 L1766.73 455.356 Q1769.07 455.356 1769.6 455.883 Q1770.19 456.351 1769.95 458.635 Z" fill="#000000" fill-rule="evenodd" fill-opacity="1" /><path clip-path="url(#clip450)" d="M1820.94 475.64 L1833.15 475.64 L1833.15 490.339 L1820.94 490.339 L1820.94 475.64 M1820.94 522.226 L1833.15 522.226 L1833.15 532.179 L1823.66 550.698 L1816.19 550.698 L1820.94 532.179 L1820.94 522.226 Z" fill="#000000" fill-rule="evenodd" fill-opacity="1" /><path clip-path="url(#clip450)" d="M1910.3 442.004 L1893.03 511.334 Q1892.32 514.086 1892.32 517.073 Q1892.32 522.577 1895.95 522.577 Q1897.65 522.577 1899.06 521.464 Q1900.46 520.293 1901.52 518.01 Q1902.63 515.667 1903.33 513.442 Q1904.09 511.217 1905.03 507.762 Q1905.32 506.416 1905.61 506.006 Q1905.91 505.596 1906.73 505.596 Q1908.19 505.596 1908.19 506.767 Q1906.73 513.969 1904.56 518.537 Q1901.4 525.271 1895.54 525.271 Q1891.15 525.271 1887.87 522.226 Q1884.65 519.122 1884.65 514.203 Q1884.65 512.33 1885.24 510.105 L1900.34 450.143 L1900.75 447.801 Q1900.75 447.157 1900.52 446.805 Q1900.29 446.454 1898.88 446.103 Q1897.53 445.751 1894.84 445.751 Q1893.73 445.751 1893.2 445.693 Q1892.73 445.634 1892.26 445.342 Q1891.85 445.049 1891.85 444.405 Q1891.85 443.351 1892.26 442.765 Q1892.73 442.179 1893.08 442.062 Q1893.44 441.945 1894.14 441.887 Q1895.13 441.828 1898.47 441.535 Q1901.81 441.184 1904.68 440.95 Q1907.55 440.716 1908.78 440.716 Q1909.48 440.716 1909.83 441.067 Q1910.24 441.36 1910.3 441.711 L1910.3 442.004 Z" fill="#000000" fill-rule="evenodd" fill-opacity="1" /><path clip-path="url(#clip450)" d="M1953.3 505.713 Q1953.42 504.249 1955.7 504.249 L2029.19 504.249 Q2032.65 504.249 2032.7 505.596 Q2032.7 507.06 2029.42 507.001 L1956.52 507.001 Q1953.3 507.06 1953.3 505.713 M1953.3 482.29 Q1953.3 480.827 1955.82 480.885 L2029.07 480.885 Q2032.65 480.885 2032.7 482.29 Q2032.7 483.637 2029.66 483.637 L1955.7 483.637 Q1953.3 483.637 1953.3 482.29 Z" fill="#000000" fill-rule="evenodd" fill-opacity="1" /><path clip-path="url(#clip450)" d="M2078.96 485.57 Q2078.96 467.944 2083.41 458.341 Q2089.62 444.053 2104.26 444.053 Q2107.36 444.053 2110.58 444.932 Q2113.86 445.751 2117.96 448.972 Q2122.12 452.193 2124.64 457.463 Q2129.44 467.651 2129.44 485.57 Q2129.44 503.078 2124.99 512.622 Q2118.49 526.559 2104.14 526.559 Q2098.76 526.559 2093.25 523.807 Q2087.81 521.055 2084.35 514.438 Q2078.96 504.542 2078.96 485.57 M2088.92 484.106 Q2088.92 502.199 2090.21 509.402 Q2091.67 517.19 2095.65 520.586 Q2099.69 523.924 2104.14 523.924 Q2108.95 523.924 2112.93 520.352 Q2116.97 516.721 2118.2 508.933 Q2119.54 501.263 2119.49 484.106 Q2119.49 467.417 2118.31 460.742 Q2116.73 452.954 2112.52 449.85 Q2108.36 446.688 2104.14 446.688 Q2102.56 446.688 2100.86 447.157 Q2099.23 447.625 2096.82 448.972 Q2094.42 450.319 2092.55 453.656 Q2090.73 456.994 2089.86 462.03 Q2088.92 468.53 2088.92 484.106 Z" fill="#000000" fill-rule="evenodd" fill-opacity="1" /><path clip-path="url(#clip450)" d="M2140.17 521.991 Q2138.36 520.059 2138.36 517.541 Q2138.36 515.023 2140.17 513.208 Q2141.99 511.334 2144.74 511.334 Q2147.37 511.334 2149.13 513.091 Q2150.94 514.789 2150.94 517.6 Q2150.94 520.352 2149.01 522.167 Q2147.14 523.924 2144.74 523.924 Q2141.99 523.924 2140.17 521.991 Z" fill="#000000" fill-rule="evenodd" fill-opacity="1" /><path clip-path="url(#clip450)" d="M2171.36 504.132 L2171.36 500.443 L2208.19 444.17 Q2209.13 442.706 2210.59 442.765 Q2211.94 442.765 2212.23 443.292 Q2212.52 443.819 2212.52 445.869 L2212.52 500.443 L2224.53 500.443 L2224.53 504.132 L2212.52 504.132 L2212.52 514.555 Q2212.52 518.01 2213.93 519.122 Q2215.39 520.235 2221.6 520.235 L2224.12 520.235 L2224.12 523.924 Q2219.2 523.572 2207.84 523.572 Q2196.54 523.572 2191.62 523.924 L2191.62 520.235 L2194.13 520.235 Q2200.34 520.235 2201.81 519.181 Q2203.27 518.068 2203.27 514.555 L2203.27 504.132 L2171.36 504.132 M2174.75 500.443 L2203.97 500.443 L2203.97 455.706 L2174.75 500.443 Z" fill="#000000" fill-rule="evenodd" fill-opacity="1" /><polyline clip-path="url(#clip450)" style="stroke:#0000ff; stroke-linecap:round; stroke-linejoin:round; stroke-width:10; stroke-opacity:1; fill:none" stroke-dasharray="40, 25" points="
  1514,613.618 1660.41,613.618 
  "/>
<path clip-path="url(#clip450)" d="M1750.77 570.781 L1749.75 572.462 Q1743.4 569.715 1735.49 565.33 Q1727.57 569.715 1721.22 572.462 L1720.24 570.781 Q1727.16 564.756 1735.49 560.124 Q1743.89 564.797 1750.77 570.781 Z" fill="#000000" fill-rule="evenodd" fill-opacity="1" /><path clip-path="url(#clip450)" d="M1769.95 588.235 L1767.55 608.964 Q1767.38 610.838 1767.08 611.423 Q1766.79 611.95 1765.85 611.95 Q1764.45 611.95 1764.45 610.545 Q1764.45 609.959 1764.68 608.378 Q1765.03 605.158 1765.03 601.879 Q1765.03 598.19 1764.33 595.906 Q1763.69 593.564 1761.81 591.866 Q1759.94 590.167 1756.48 589.465 Q1753.03 588.704 1747.53 588.704 L1731.72 588.704 Q1727.85 588.704 1726.91 589.406 Q1726.04 590.109 1725.22 593.388 L1717.55 623.837 L1728.44 623.837 Q1736.05 623.837 1739.04 621.612 Q1742.02 619.387 1743.9 612.302 Q1744.19 611.189 1744.31 610.779 Q1744.48 610.311 1744.77 610.076 Q1745.13 609.784 1745.71 609.784 Q1746.24 609.784 1746.59 610.135 Q1746.94 610.428 1747.06 610.779 L1747.17 611.131 Q1747.17 611.716 1746.82 613.063 L1740.21 639.062 Q1739.74 640.818 1739.45 641.228 Q1739.21 641.58 1738.39 641.58 Q1737.81 641.58 1737.4 641.17 Q1736.99 640.76 1736.99 640.116 Q1737.1 639.413 1737.34 638.828 Q1738.16 635.256 1738.16 632.972 Q1738.16 631.508 1737.86 630.63 Q1737.57 629.751 1736.58 628.99 Q1735.58 628.229 1733.53 627.878 Q1731.48 627.526 1728.2 627.526 L1716.61 627.526 L1709.17 657.39 L1708.64 660.142 Q1708.64 661.372 1709.29 661.84 Q1709.99 662.309 1712.51 662.543 Q1716.26 662.836 1718.72 662.836 Q1721.76 662.836 1722.11 662.953 Q1722.82 663.304 1722.82 664.241 Q1722.82 665.295 1722.35 665.88 Q1721.88 666.407 1721.47 666.466 Q1721.06 666.525 1720.3 666.525 L1702.44 666.173 L1686.63 666.525 Q1684.81 666.525 1684.81 665.061 Q1684.81 663.948 1685.28 663.48 Q1685.75 662.953 1686.28 662.894 Q1686.8 662.836 1688.15 662.836 Q1691.08 662.836 1692.83 662.66 Q1694.59 662.484 1695.7 662.25 Q1696.87 661.957 1697.46 661.137 Q1698.1 660.318 1698.4 659.615 Q1698.69 658.854 1699.1 657.156 L1714.91 593.739 Q1715.5 591.573 1715.5 590.87 Q1715.5 590.109 1714.97 589.64 Q1714.5 589.172 1713.21 588.996 Q1711.92 588.762 1710.87 588.762 Q1709.87 588.704 1707.71 588.704 Q1706.3 588.704 1705.72 588.645 Q1705.19 588.586 1704.78 588.294 Q1704.37 588.001 1704.37 587.357 Q1704.37 585.717 1705.07 585.366 Q1705.83 584.956 1707.94 584.956 L1766.73 584.956 Q1769.07 584.956 1769.6 585.483 Q1770.19 585.951 1769.95 588.235 Z" fill="#000000" fill-rule="evenodd" fill-opacity="1" /><path clip-path="url(#clip450)" d="M1820.94 605.24 L1833.15 605.24 L1833.15 619.939 L1820.94 619.939 L1820.94 605.24 M1820.94 651.826 L1833.15 651.826 L1833.15 661.779 L1823.66 680.298 L1816.19 680.298 L1820.94 661.779 L1820.94 651.826 Z" fill="#000000" fill-rule="evenodd" fill-opacity="1" /><path clip-path="url(#clip450)" d="M1910.3 571.604 L1893.03 640.934 Q1892.32 643.686 1892.32 646.673 Q1892.32 652.177 1895.95 652.177 Q1897.65 652.177 1899.06 651.064 Q1900.46 649.893 1901.52 647.61 Q1902.63 645.267 1903.33 643.042 Q1904.09 640.817 1905.03 637.362 Q1905.32 636.016 1905.61 635.606 Q1905.91 635.196 1906.73 635.196 Q1908.19 635.196 1908.19 636.367 Q1906.73 643.569 1904.56 648.137 Q1901.4 654.871 1895.54 654.871 Q1891.15 654.871 1887.87 651.826 Q1884.65 648.722 1884.65 643.803 Q1884.65 641.93 1885.24 639.705 L1900.34 579.743 L1900.75 577.401 Q1900.75 576.757 1900.52 576.405 Q1900.29 576.054 1898.88 575.703 Q1897.53 575.351 1894.84 575.351 Q1893.73 575.351 1893.2 575.293 Q1892.73 575.234 1892.26 574.942 Q1891.85 574.649 1891.85 574.005 Q1891.85 572.951 1892.26 572.365 Q1892.73 571.779 1893.08 571.662 Q1893.44 571.545 1894.14 571.487 Q1895.13 571.428 1898.47 571.135 Q1901.81 570.784 1904.68 570.55 Q1907.55 570.316 1908.78 570.316 Q1909.48 570.316 1909.83 570.667 Q1910.24 570.96 1910.3 571.311 L1910.3 571.604 Z" fill="#000000" fill-rule="evenodd" fill-opacity="1" /><path clip-path="url(#clip450)" d="M1953.3 635.313 Q1953.42 633.849 1955.7 633.849 L2029.19 633.849 Q2032.65 633.849 2032.7 635.196 Q2032.7 636.66 2029.42 636.601 L1956.52 636.601 Q1953.3 636.66 1953.3 635.313 M1953.3 611.89 Q1953.3 610.427 1955.82 610.485 L2029.07 610.485 Q2032.65 610.485 2032.7 611.89 Q2032.7 613.237 2029.66 613.237 L1955.7 613.237 Q1953.3 613.237 1953.3 611.89 Z" fill="#000000" fill-rule="evenodd" fill-opacity="1" /><path clip-path="url(#clip450)" d="M2078.96 615.17 Q2078.96 597.544 2083.41 587.941 Q2089.62 573.653 2104.26 573.653 Q2107.36 573.653 2110.58 574.532 Q2113.86 575.351 2117.96 578.572 Q2122.12 581.793 2124.64 587.063 Q2129.44 597.251 2129.44 615.17 Q2129.44 632.678 2124.99 642.222 Q2118.49 656.159 2104.14 656.159 Q2098.76 656.159 2093.25 653.407 Q2087.81 650.655 2084.35 644.038 Q2078.96 634.142 2078.96 615.17 M2088.92 613.706 Q2088.92 631.799 2090.21 639.002 Q2091.67 646.79 2095.65 650.186 Q2099.69 653.524 2104.14 653.524 Q2108.95 653.524 2112.93 649.952 Q2116.97 646.321 2118.2 638.533 Q2119.54 630.863 2119.49 613.706 Q2119.49 597.017 2118.31 590.342 Q2116.73 582.554 2112.52 579.45 Q2108.36 576.288 2104.14 576.288 Q2102.56 576.288 2100.86 576.757 Q2099.23 577.225 2096.82 578.572 Q2094.42 579.919 2092.55 583.256 Q2090.73 586.594 2089.86 591.63 Q2088.92 598.13 2088.92 613.706 Z" fill="#000000" fill-rule="evenodd" fill-opacity="1" /><path clip-path="url(#clip450)" d="M2140.17 651.591 Q2138.36 649.659 2138.36 647.141 Q2138.36 644.623 2140.17 642.808 Q2141.99 640.934 2144.74 640.934 Q2147.37 640.934 2149.13 642.691 Q2150.94 644.389 2150.94 647.2 Q2150.94 649.952 2149.01 651.767 Q2147.14 653.524 2144.74 653.524 Q2141.99 653.524 2140.17 651.591 Z" fill="#000000" fill-rule="evenodd" fill-opacity="1" /><path clip-path="url(#clip450)" d="M2171.36 653.524 Q2171.36 651.357 2171.53 650.713 Q2171.77 650.069 2172.7 649.074 L2195.72 623.426 Q2208.31 609.255 2208.31 596.9 Q2208.31 588.878 2204.09 583.139 Q2199.93 577.401 2192.26 577.401 Q2186.99 577.401 2182.54 580.621 Q2178.09 583.842 2176.04 589.581 Q2176.39 589.463 2177.62 589.463 Q2180.61 589.463 2182.25 591.337 Q2183.95 593.211 2183.95 595.729 Q2183.95 598.95 2181.84 600.531 Q2179.79 602.053 2177.74 602.053 Q2176.92 602.053 2175.81 601.877 Q2174.75 601.702 2173.05 600.062 Q2171.36 598.364 2171.36 595.378 Q2171.36 587.004 2177.68 580.329 Q2184.06 573.653 2193.78 573.653 Q2204.79 573.653 2211.99 580.212 Q2219.26 586.711 2219.26 596.9 Q2219.26 600.472 2218.14 603.751 Q2217.09 606.972 2215.62 609.49 Q2214.22 612.008 2210.35 616.048 Q2206.49 620.088 2203.39 622.958 Q2200.28 625.827 2193.32 631.917 L2180.61 644.272 L2202.22 644.272 Q2212.76 644.272 2213.58 643.335 Q2214.75 641.637 2216.21 632.678 L2219.26 632.678 L2215.86 653.524 L2171.36 653.524 Z" fill="#000000" fill-rule="evenodd" fill-opacity="1" /><polyline clip-path="url(#clip450)" style="stroke:#0000ff; stroke-linecap:round; stroke-linejoin:round; stroke-width:10; stroke-opacity:1; fill:none" points="
  1514,743.218 1660.41,743.218 
  "/>
<path clip-path="url(#clip450)" d="M1750.77 700.381 L1749.75 702.062 Q1743.4 699.315 1735.49 694.93 Q1727.57 699.315 1721.22 702.062 L1720.24 700.381 Q1727.16 694.356 1735.49 689.724 Q1743.89 694.397 1750.77 700.381 Z" fill="#000000" fill-rule="evenodd" fill-opacity="1" /><path clip-path="url(#clip450)" d="M1769.95 717.835 L1767.55 738.564 Q1767.38 740.438 1767.08 741.023 Q1766.79 741.55 1765.85 741.55 Q1764.45 741.55 1764.45 740.145 Q1764.45 739.559 1764.68 737.978 Q1765.03 734.758 1765.03 731.479 Q1765.03 727.79 1764.33 725.506 Q1763.69 723.164 1761.81 721.466 Q1759.94 719.767 1756.48 719.065 Q1753.03 718.304 1747.53 718.304 L1731.72 718.304 Q1727.85 718.304 1726.91 719.006 Q1726.04 719.709 1725.22 722.988 L1717.55 753.437 L1728.44 753.437 Q1736.05 753.437 1739.04 751.212 Q1742.02 748.987 1743.9 741.902 Q1744.19 740.789 1744.31 740.379 Q1744.48 739.911 1744.77 739.676 Q1745.13 739.384 1745.71 739.384 Q1746.24 739.384 1746.59 739.735 Q1746.94 740.028 1747.06 740.379 L1747.17 740.731 Q1747.17 741.316 1746.82 742.663 L1740.21 768.662 Q1739.74 770.418 1739.45 770.828 Q1739.21 771.18 1738.39 771.18 Q1737.81 771.18 1737.4 770.77 Q1736.99 770.36 1736.99 769.716 Q1737.1 769.013 1737.34 768.428 Q1738.16 764.856 1738.16 762.572 Q1738.16 761.108 1737.86 760.23 Q1737.57 759.351 1736.58 758.59 Q1735.58 757.829 1733.53 757.478 Q1731.48 757.126 1728.2 757.126 L1716.61 757.126 L1709.17 786.99 L1708.64 789.742 Q1708.64 790.972 1709.29 791.44 Q1709.99 791.909 1712.51 792.143 Q1716.26 792.436 1718.72 792.436 Q1721.76 792.436 1722.11 792.553 Q1722.82 792.904 1722.82 793.841 Q1722.82 794.895 1722.35 795.48 Q1721.88 796.007 1721.47 796.066 Q1721.06 796.125 1720.3 796.125 L1702.44 795.773 L1686.63 796.125 Q1684.81 796.125 1684.81 794.661 Q1684.81 793.548 1685.28 793.08 Q1685.75 792.553 1686.28 792.494 Q1686.8 792.436 1688.15 792.436 Q1691.08 792.436 1692.83 792.26 Q1694.59 792.084 1695.7 791.85 Q1696.87 791.557 1697.46 790.737 Q1698.1 789.918 1698.4 789.215 Q1698.69 788.454 1699.1 786.756 L1714.91 723.339 Q1715.5 721.173 1715.5 720.47 Q1715.5 719.709 1714.97 719.24 Q1714.5 718.772 1713.21 718.596 Q1711.92 718.362 1710.87 718.362 Q1709.87 718.304 1707.71 718.304 Q1706.3 718.304 1705.72 718.245 Q1705.19 718.186 1704.78 717.894 Q1704.37 717.601 1704.37 716.957 Q1704.37 715.317 1705.07 714.966 Q1705.83 714.556 1707.94 714.556 L1766.73 714.556 Q1769.07 714.556 1769.6 715.083 Q1770.19 715.551 1769.95 717.835 Z" fill="#000000" fill-rule="evenodd" fill-opacity="1" /><path clip-path="url(#clip450)" d="M1820.94 734.84 L1833.15 734.84 L1833.15 749.539 L1820.94 749.539 L1820.94 734.84 M1820.94 781.426 L1833.15 781.426 L1833.15 791.379 L1823.66 809.898 L1816.19 809.898 L1820.94 791.379 L1820.94 781.426 Z" fill="#000000" fill-rule="evenodd" fill-opacity="1" /><path clip-path="url(#clip450)" d="M1910.3 701.204 L1893.03 770.534 Q1892.32 773.286 1892.32 776.273 Q1892.32 781.777 1895.95 781.777 Q1897.65 781.777 1899.06 780.664 Q1900.46 779.493 1901.52 777.21 Q1902.63 774.867 1903.33 772.642 Q1904.09 770.417 1905.03 766.962 Q1905.32 765.616 1905.61 765.206 Q1905.91 764.796 1906.73 764.796 Q1908.19 764.796 1908.19 765.967 Q1906.73 773.169 1904.56 777.737 Q1901.4 784.471 1895.54 784.471 Q1891.15 784.471 1887.87 781.426 Q1884.65 778.322 1884.65 773.403 Q1884.65 771.53 1885.24 769.305 L1900.34 709.343 L1900.75 707.001 Q1900.75 706.357 1900.52 706.005 Q1900.29 705.654 1898.88 705.303 Q1897.53 704.951 1894.84 704.951 Q1893.73 704.951 1893.2 704.893 Q1892.73 704.834 1892.26 704.542 Q1891.85 704.249 1891.85 703.605 Q1891.85 702.551 1892.26 701.965 Q1892.73 701.379 1893.08 701.262 Q1893.44 701.145 1894.14 701.087 Q1895.13 701.028 1898.47 700.735 Q1901.81 700.384 1904.68 700.15 Q1907.55 699.916 1908.78 699.916 Q1909.48 699.916 1909.83 700.267 Q1910.24 700.56 1910.3 700.911 L1910.3 701.204 Z" fill="#000000" fill-rule="evenodd" fill-opacity="1" /><path clip-path="url(#clip450)" d="M1953.3 764.913 Q1953.42 763.449 1955.7 763.449 L2029.19 763.449 Q2032.65 763.449 2032.7 764.796 Q2032.7 766.26 2029.42 766.201 L1956.52 766.201 Q1953.3 766.26 1953.3 764.913 M1953.3 741.49 Q1953.3 740.027 1955.82 740.085 L2029.07 740.085 Q2032.65 740.085 2032.7 741.49 Q2032.7 742.837 2029.66 742.837 L1955.7 742.837 Q1953.3 742.837 1953.3 741.49 Z" fill="#000000" fill-rule="evenodd" fill-opacity="1" /><path clip-path="url(#clip450)" d="M2078.96 744.77 Q2078.96 727.144 2083.41 717.541 Q2089.62 703.253 2104.26 703.253 Q2107.36 703.253 2110.58 704.132 Q2113.86 704.951 2117.96 708.172 Q2122.12 711.393 2124.64 716.663 Q2129.44 726.851 2129.44 744.77 Q2129.44 762.278 2124.99 771.822 Q2118.49 785.759 2104.14 785.759 Q2098.76 785.759 2093.25 783.007 Q2087.81 780.255 2084.35 773.638 Q2078.96 763.742 2078.96 744.77 M2088.92 743.306 Q2088.92 761.399 2090.21 768.602 Q2091.67 776.39 2095.65 779.786 Q2099.69 783.124 2104.14 783.124 Q2108.95 783.124 2112.93 779.552 Q2116.97 775.921 2118.2 768.133 Q2119.54 760.463 2119.49 743.306 Q2119.49 726.617 2118.31 719.942 Q2116.73 712.154 2112.52 709.05 Q2108.36 705.888 2104.14 705.888 Q2102.56 705.888 2100.86 706.357 Q2099.23 706.825 2096.82 708.172 Q2094.42 709.519 2092.55 712.856 Q2090.73 716.194 2089.86 721.23 Q2088.92 727.73 2088.92 743.306 Z" fill="#000000" fill-rule="evenodd" fill-opacity="1" /><path clip-path="url(#clip450)" d="M2140.17 781.191 Q2138.36 779.259 2138.36 776.741 Q2138.36 774.223 2140.17 772.408 Q2141.99 770.534 2144.74 770.534 Q2147.37 770.534 2149.13 772.291 Q2150.94 773.989 2150.94 776.8 Q2150.94 779.552 2149.01 781.367 Q2147.14 783.124 2144.74 783.124 Q2141.99 783.124 2140.17 781.191 Z" fill="#000000" fill-rule="evenodd" fill-opacity="1" /><path clip-path="url(#clip450)" d="M2159.23 714.672 L2159.23 710.924 Q2173.64 710.924 2181.07 703.253 Q2183.12 703.253 2183.47 703.722 Q2183.83 704.19 2183.83 706.357 L2183.83 773.638 Q2183.83 777.21 2185.58 778.322 Q2187.34 779.435 2195.01 779.435 L2198.82 779.435 L2198.82 783.124 Q2194.6 782.772 2179.37 782.772 Q2164.15 782.772 2159.99 783.124 L2159.99 779.435 L2163.8 779.435 Q2171.35 779.435 2173.17 778.381 Q2174.98 777.268 2174.98 773.638 L2174.98 711.51 Q2168.72 714.672 2159.23 714.672 Z" fill="#000000" fill-rule="evenodd" fill-opacity="1" /></svg>
