<?xml version="1.0" encoding="utf-8"?>
<svg xmlns="http://www.w3.org/2000/svg" xmlns:xlink="http://www.w3.org/1999/xlink" width="600" height="400" viewBox="0 0 2400 1600">
<defs>
  <clipPath id="clip650">
    <rect x="0" y="0" width="2400" height="1600"/>
  </clipPath>
</defs>
<path clip-path="url(#clip650)" d="
M0 1600 L2400 1600 L2400 0 L0 0  Z
  " fill="#ffffff" fill-rule="evenodd" fill-opacity="1"/>
<defs>
  <clipPath id="clip651">
    <rect x="480" y="0" width="1681" height="1600"/>
  </clipPath>
</defs>
<defs>
  <clipPath id="clip652">
    <rect x="194" y="47" width="2159" height="1308"/>
  </clipPath>
</defs>
<path clip-path="url(#clip650)" d="
M194.776 1354.06 L2352.76 1354.06 L2352.76 47.2441 L194.776 47.2441  Z
  " fill="#ffffff" fill-rule="evenodd" fill-opacity="1"/>
<polyline clip-path="url(#clip652)" style="stroke:#000000; stroke-linecap:round; stroke-linejoin:round; stroke-width:2; stroke-opacity:0.1; fill:none" points="
  255.851,1354.06 255.851,47.2441 
  "/>
<polyline clip-path="url(#clip652)" style="stroke:#000000; stroke-linecap:round; stroke-linejoin:round; stroke-width:2; stroke-opacity:0.1; fill:none" points="
  459.434,1354.06 459.434,47.2441 
  "/>
<polyline clip-path="url(#clip652)" style="stroke:#000000; stroke-linecap:round; stroke-linejoin:round; stroke-width:2; stroke-opacity:0.1; fill:none" points="
  663.017,1354.06 663.017,47.2441 
  "/>
<polyline clip-path="url(#clip652)" style="stroke:#000000; stroke-linecap:round; stroke-linejoin:round; stroke-width:2; stroke-opacity:0.1; fill:none" points="
  866.6,1354.06 866.6,47.2441 
  "/>
<polyline clip-path="url(#clip652)" style="stroke:#000000; stroke-linecap:round; stroke-linejoin:round; stroke-width:2; stroke-opacity:0.1; fill:none" points="
  1070.18,1354.06 1070.18,47.2441 
  "/>
<polyline clip-path="url(#clip652)" style="stroke:#000000; stroke-linecap:round; stroke-linejoin:round; stroke-width:2; stroke-opacity:0.1; fill:none" points="
  1273.77,1354.06 1273.77,47.2441 
  "/>
<polyline clip-path="url(#clip652)" style="stroke:#000000; stroke-linecap:round; stroke-linejoin:round; stroke-width:2; stroke-opacity:0.1; fill:none" points="
  1477.35,1354.06 1477.35,47.2441 
  "/>
<polyline clip-path="url(#clip652)" style="stroke:#000000; stroke-linecap:round; stroke-linejoin:round; stroke-width:2; stroke-opacity:0.1; fill:none" points="
  1680.93,1354.06 1680.93,47.2441 
  "/>
<polyline clip-path="url(#clip652)" style="stroke:#000000; stroke-linecap:round; stroke-linejoin:round; stroke-width:2; stroke-opacity:0.1; fill:none" points="
  1884.51,1354.06 1884.51,47.2441 
  "/>
<polyline clip-path="url(#clip652)" style="stroke:#000000; stroke-linecap:round; stroke-linejoin:round; stroke-width:2; stroke-opacity:0.1; fill:none" points="
  2088.1,1354.06 2088.1,47.2441 
  "/>
<polyline clip-path="url(#clip652)" style="stroke:#000000; stroke-linecap:round; stroke-linejoin:round; stroke-width:2; stroke-opacity:0.1; fill:none" points="
  2291.68,1354.06 2291.68,47.2441 
  "/>
<polyline clip-path="url(#clip650)" style="stroke:#000000; stroke-linecap:round; stroke-linejoin:round; stroke-width:4; stroke-opacity:1; fill:none" points="
  194.776,1354.06 2352.76,1354.06 
  "/>
<polyline clip-path="url(#clip650)" style="stroke:#000000; stroke-linecap:round; stroke-linejoin:round; stroke-width:4; stroke-opacity:1; fill:none" points="
  255.851,1354.06 255.851,1335.16 
  "/>
<polyline clip-path="url(#clip650)" style="stroke:#000000; stroke-linecap:round; stroke-linejoin:round; stroke-width:4; stroke-opacity:1; fill:none" points="
  459.434,1354.06 459.434,1335.16 
  "/>
<polyline clip-path="url(#clip650)" style="stroke:#000000; stroke-linecap:round; stroke-linejoin:round; stroke-width:4; stroke-opacity:1; fill:none" points="
  663.017,1354.06 663.017,1335.16 
  "/>
<polyline clip-path="url(#clip650)" style="stroke:#000000; stroke-linecap:round; stroke-linejoin:round; stroke-width:4; stroke-opacity:1; fill:none" points="
  866.6,1354.06 866.6,1335.16 
  "/>
<polyline clip-path="url(#clip650)" style="stroke:#000000; stroke-linecap:round; stroke-linejoin:round; stroke-width:4; stroke-opacity:1; fill:none" points="
  1070.18,1354.06 1070.18,1335.16 
  "/>
<polyline clip-path="url(#clip650)" style="stroke:#000000; stroke-linecap:round; stroke-linejoin:round; stroke-width:4; stroke-opacity:1; fill:none" points="
  1273.77,1354.06 1273.77,1335.16 
  "/>
<polyline clip-path="url(#clip650)" style="stroke:#000000; stroke-linecap:round; stroke-linejoin:round; stroke-width:4; stroke-opacity:1; fill:none" points="
  1477.35,1354.06 1477.35,1335.16 
  "/>
<polyline clip-path="url(#clip650)" style="stroke:#000000; stroke-linecap:round; stroke-linejoin:round; stroke-width:4; stroke-opacity:1; fill:none" points="
  1680.93,1354.06 1680.93,1335.16 
  "/>
<polyline clip-path="url(#clip650)" style="stroke:#000000; stroke-linecap:round; stroke-linejoin:round; stroke-width:4; stroke-opacity:1; fill:none" points="
  1884.51,1354.06 1884.51,1335.16 
  "/>
<polyline clip-path="url(#clip650)" style="stroke:#000000; stroke-linecap:round; stroke-linejoin:round; stroke-width:4; stroke-opacity:1; fill:none" points="
  2088.1,1354.06 2088.1,1335.16 
  "/>
<polyline clip-path="url(#clip650)" style="stroke:#000000; stroke-linecap:round; stroke-linejoin:round; stroke-width:4; stroke-opacity:1; fill:none" points="
  2291.68,1354.06 2291.68,1335.16 
  "/>
<path clip-path="url(#clip650)" d="M255.851 1395.23 Q249.08 1395.23 245.651 1401.92 Q242.266 1408.56 242.266 1421.92 Q242.266 1435.25 245.651 1441.93 Q249.08 1448.57 255.851 1448.57 Q262.665 1448.57 266.05 1441.93 Q269.479 1435.25 269.479 1421.92 Q269.479 1408.56 266.05 1401.92 Q262.665 1395.23 255.851 1395.23 M255.851 1388.29 Q266.745 1388.29 272.474 1396.93 Q278.246 1405.52 278.246 1421.92 Q278.246 1438.29 272.474 1446.92 Q266.745 1455.52 255.851 1455.52 Q244.957 1455.52 239.184 1446.92 Q233.455 1438.29 233.455 1421.92 Q233.455 1405.52 239.184 1396.93 Q244.957 1388.29 255.851 1388.29 Z" fill="#000000" fill-rule="evenodd" fill-opacity="1" /><path clip-path="url(#clip650)" d="M622.11 1395.23 Q615.339 1395.23 611.91 1401.92 Q608.525 1408.56 608.525 1421.92 Q608.525 1435.25 611.91 1441.93 Q615.339 1448.57 622.11 1448.57 Q628.924 1448.57 632.309 1441.93 Q635.738 1435.25 635.738 1421.92 Q635.738 1408.56 632.309 1401.92 Q628.924 1395.23 622.11 1395.23 M622.11 1388.29 Q633.004 1388.29 638.733 1396.93 Q644.505 1405.52 644.505 1421.92 Q644.505 1438.29 638.733 1446.92 Q633.004 1455.52 622.11 1455.52 Q611.216 1455.52 605.443 1446.92 Q599.714 1438.29 599.714 1421.92 Q599.714 1405.52 605.443 1396.93 Q611.216 1388.29 622.11 1388.29 Z" fill="#000000" fill-rule="evenodd" fill-opacity="1" /><path clip-path="url(#clip650)" d="M659.913 1443.24 L669.071 1443.24 L669.071 1454.26 L659.913 1454.26 L659.913 1443.24 Z" fill="#000000" fill-rule="evenodd" fill-opacity="1" /><path clip-path="url(#clip650)" d="M695.72 1446.88 L726.319 1446.88 L726.319 1454.26 L685.174 1454.26 L685.174 1446.88 Q690.165 1441.72 698.759 1433.04 Q707.396 1424.31 709.609 1421.79 Q713.819 1417.06 715.469 1413.81 Q717.161 1410.51 717.161 1407.34 Q717.161 1402.18 713.516 1398.92 Q709.913 1395.67 704.097 1395.67 Q699.974 1395.67 695.373 1397.1 Q690.816 1398.53 685.608 1401.44 L685.608 1392.58 Q690.903 1390.46 695.503 1389.37 Q700.104 1388.29 703.924 1388.29 Q713.993 1388.29 719.983 1393.32 Q725.972 1398.36 725.972 1406.78 Q725.972 1410.77 724.453 1414.37 Q722.977 1417.93 719.028 1422.79 Q717.943 1424.05 712.127 1430.08 Q706.311 1436.07 695.72 1446.88 Z" fill="#000000" fill-rule="evenodd" fill-opacity="1" /><path clip-path="url(#clip650)" d="M1027.32 1395.23 Q1020.55 1395.23 1017.12 1401.92 Q1013.74 1408.56 1013.74 1421.92 Q1013.74 1435.25 1017.12 1441.93 Q1020.55 1448.57 1027.32 1448.57 Q1034.14 1448.57 1037.52 1441.93 Q1040.95 1435.25 1040.95 1421.92 Q1040.95 1408.56 1037.52 1401.92 Q1034.14 1395.23 1027.32 1395.23 M1027.32 1388.29 Q1038.22 1388.29 1043.95 1396.93 Q1049.72 1405.52 1049.72 1421.92 Q1049.72 1438.29 1043.95 1446.92 Q1038.22 1455.52 1027.32 1455.52 Q1016.43 1455.52 1010.66 1446.92 Q1004.93 1438.29 1004.93 1421.92 Q1004.93 1405.52 1010.66 1396.93 Q1016.43 1388.29 1027.32 1388.29 Z" fill="#000000" fill-rule="evenodd" fill-opacity="1" /><path clip-path="url(#clip650)" d="M1065.13 1443.24 L1074.28 1443.24 L1074.28 1454.26 L1065.13 1454.26 L1065.13 1443.24 Z" fill="#000000" fill-rule="evenodd" fill-opacity="1" /><path clip-path="url(#clip650)" d="M1117.47 1397.1 L1095.33 1431.69 L1117.47 1431.69 L1117.47 1397.1 M1115.17 1389.46 L1126.19 1389.46 L1126.19 1431.69 L1135.44 1431.69 L1135.44 1438.98 L1126.19 1438.98 L1126.19 1454.26 L1117.47 1454.26 L1117.47 1438.98 L1088.22 1438.98 L1088.22 1430.52 L1115.17 1389.46 Z" fill="#000000" fill-rule="evenodd" fill-opacity="1" /><path clip-path="url(#clip650)" d="M1434.79 1395.23 Q1428.02 1395.23 1424.59 1401.92 Q1421.21 1408.56 1421.21 1421.92 Q1421.21 1435.25 1424.59 1441.93 Q1428.02 1448.57 1434.79 1448.57 Q1441.61 1448.57 1444.99 1441.93 Q1448.42 1435.25 1448.42 1421.92 Q1448.42 1408.56 1444.99 1401.92 Q1441.61 1395.23 1434.79 1395.23 M1434.79 1388.29 Q1445.69 1388.29 1451.42 1396.93 Q1457.19 1405.52 1457.19 1421.92 Q1457.19 1438.29 1451.42 1446.92 Q1445.69 1455.52 1434.79 1455.52 Q1423.9 1455.52 1418.13 1446.92 Q1412.4 1438.29 1412.4 1421.92 Q1412.4 1405.52 1418.13 1396.93 Q1423.9 1388.29 1434.79 1388.29 Z" fill="#000000" fill-rule="evenodd" fill-opacity="1" /><path clip-path="url(#clip650)" d="M1472.6 1443.24 L1481.75 1443.24 L1481.75 1454.26 L1472.6 1454.26 L1472.6 1443.24 Z" fill="#000000" fill-rule="evenodd" fill-opacity="1" /><path clip-path="url(#clip650)" d="M1520.69 1418.37 Q1514.78 1418.37 1511.31 1422.4 Q1507.88 1426.44 1507.88 1433.47 Q1507.88 1440.46 1511.31 1444.54 Q1514.78 1448.57 1520.69 1448.57 Q1526.59 1448.57 1530.02 1444.54 Q1533.49 1440.46 1533.49 1433.47 Q1533.49 1426.44 1530.02 1422.4 Q1526.59 1418.37 1520.69 1418.37 M1538.09 1390.89 L1538.09 1398.88 Q1534.79 1397.32 1531.41 1396.49 Q1528.06 1395.67 1524.77 1395.67 Q1516.09 1395.67 1511.48 1401.53 Q1506.93 1407.39 1506.28 1419.23 Q1508.84 1415.46 1512.7 1413.46 Q1516.56 1411.42 1521.21 1411.42 Q1530.97 1411.42 1536.62 1417.37 Q1542.3 1423.27 1542.3 1433.47 Q1542.3 1443.45 1536.4 1449.49 Q1530.5 1455.52 1520.69 1455.52 Q1509.45 1455.52 1503.5 1446.92 Q1497.55 1438.29 1497.55 1421.92 Q1497.55 1406.56 1504.84 1397.45 Q1512.14 1388.29 1524.42 1388.29 Q1527.72 1388.29 1531.06 1388.94 Q1534.44 1389.59 1538.09 1390.89 Z" fill="#000000" fill-rule="evenodd" fill-opacity="1" /><path clip-path="url(#clip650)" d="M1842.2 1395.23 Q1835.43 1395.23 1832 1401.92 Q1828.61 1408.56 1828.61 1421.92 Q1828.61 1435.25 1832 1441.93 Q1835.43 1448.57 1842.2 1448.57 Q1849.01 1448.57 1852.4 1441.93 Q1855.83 1435.25 1855.83 1421.92 Q1855.83 1408.56 1852.4 1401.92 Q1849.01 1395.23 1842.2 1395.23 M1842.2 1388.29 Q1853.09 1388.29 1858.82 1396.93 Q1864.59 1405.52 1864.59 1421.92 Q1864.59 1438.29 1858.82 1446.92 Q1853.09 1455.52 1842.2 1455.52 Q1831.3 1455.52 1825.53 1446.92 Q1819.8 1438.29 1819.8 1421.92 Q1819.8 1405.52 1825.53 1396.93 Q1831.3 1388.29 1842.2 1388.29 Z" fill="#000000" fill-rule="evenodd" fill-opacity="1" /><path clip-path="url(#clip650)" d="M1880 1443.24 L1889.16 1443.24 L1889.16 1454.26 L1880 1454.26 L1880 1443.24 Z" fill="#000000" fill-rule="evenodd" fill-opacity="1" /><path clip-path="url(#clip650)" d="M1927.01 1423.49 Q1920.76 1423.49 1917.15 1426.83 Q1913.59 1430.17 1913.59 1436.03 Q1913.59 1441.89 1917.15 1445.23 Q1920.76 1448.57 1927.01 1448.57 Q1933.26 1448.57 1936.86 1445.23 Q1940.46 1441.85 1940.46 1436.03 Q1940.46 1430.17 1936.86 1426.83 Q1933.3 1423.49 1927.01 1423.49 M1918.24 1419.75 Q1912.6 1418.37 1909.43 1414.5 Q1906.3 1410.64 1906.3 1405.08 Q1906.3 1397.32 1911.82 1392.8 Q1917.37 1388.29 1927.01 1388.29 Q1936.68 1388.29 1942.2 1392.8 Q1947.71 1397.32 1947.71 1405.08 Q1947.71 1410.64 1944.54 1414.5 Q1941.42 1418.37 1935.82 1419.75 Q1942.15 1421.23 1945.67 1425.53 Q1949.23 1429.82 1949.23 1436.03 Q1949.23 1445.45 1943.46 1450.48 Q1937.73 1455.52 1927.01 1455.52 Q1916.29 1455.52 1910.51 1450.48 Q1904.78 1445.45 1904.78 1436.03 Q1904.78 1429.82 1908.34 1425.53 Q1911.9 1421.23 1918.24 1419.75 M1915.03 1405.91 Q1915.03 1410.94 1918.15 1413.77 Q1921.32 1416.59 1927.01 1416.59 Q1932.65 1416.59 1935.82 1413.77 Q1939.03 1410.94 1939.03 1405.91 Q1939.03 1400.87 1935.82 1398.05 Q1932.65 1395.23 1927.01 1395.23 Q1921.32 1395.23 1918.15 1398.05 Q1915.03 1400.87 1915.03 1405.91 Z" fill="#000000" fill-rule="evenodd" fill-opacity="1" /><path clip-path="url(#clip650)" d="M2273.65 1446.88 L2287.97 1446.88 L2287.97 1397.45 L2272.39 1400.57 L2272.39 1392.58 L2287.88 1389.46 L2296.65 1389.46 L2296.65 1446.88 L2310.97 1446.88 L2310.97 1454.26 L2273.65 1454.26 L2273.65 1446.88 Z" fill="#000000" fill-rule="evenodd" fill-opacity="1" /><path clip-path="url(#clip650)" d="M1299.53 1519.59 Q1299.53 1522.87 1297.49 1524.74 Q1295.44 1526.56 1293.09 1526.56 Q1290.87 1526.56 1289.7 1525.27 Q1288.53 1523.98 1288.53 1522.34 Q1288.53 1520.12 1290.17 1518.18 Q1291.81 1516.25 1294.26 1515.84 Q1291.86 1514.32 1288.29 1514.32 Q1285.95 1514.32 1283.9 1515.55 Q1281.91 1516.78 1280.68 1518.36 Q1279.51 1519.94 1278.45 1522.22 Q1277.46 1524.45 1277.05 1525.8 Q1276.7 1527.08 1276.41 1528.49 L1272.31 1544.89 Q1270.32 1552.67 1270.32 1555.43 Q1270.32 1558.82 1271.95 1561.11 Q1273.59 1563.33 1276.87 1563.33 Q1278.16 1563.33 1279.63 1562.98 Q1281.09 1562.57 1282.96 1561.52 Q1284.9 1560.4 1286.59 1558.76 Q1288.35 1557.07 1290.05 1554.2 Q1291.75 1551.33 1292.86 1547.64 Q1293.21 1546.35 1294.38 1546.35 Q1295.85 1546.35 1295.85 1547.52 Q1295.85 1548.52 1295.03 1550.62 Q1294.26 1552.67 1292.57 1555.37 Q1290.93 1558 1288.76 1560.4 Q1286.59 1562.75 1283.37 1564.39 Q1280.15 1566.02 1276.64 1566.02 Q1271.6 1566.02 1268.27 1563.33 Q1264.93 1560.64 1263.7 1556.89 Q1263.41 1557.42 1263 1558.12 Q1262.59 1558.82 1261.36 1560.4 Q1260.19 1561.93 1258.84 1563.1 Q1257.49 1564.21 1255.38 1565.09 Q1253.33 1566.02 1251.11 1566.02 Q1248.3 1566.02 1245.78 1565.2 Q1243.32 1564.39 1241.56 1562.51 Q1239.81 1560.64 1239.81 1558.06 Q1239.81 1555.19 1241.74 1553.2 Q1243.73 1551.15 1246.42 1551.15 Q1248.12 1551.15 1249.47 1552.15 Q1250.87 1553.14 1250.87 1555.31 Q1250.87 1557.71 1249.24 1559.53 Q1247.6 1561.34 1245.25 1561.81 Q1247.65 1563.33 1251.23 1563.33 Q1255.09 1563.33 1258.14 1559.93 Q1261.18 1556.54 1262.64 1550.86 Q1266.27 1537.22 1267.68 1531.13 Q1269.09 1524.98 1269.09 1522.34 Q1269.09 1519.88 1268.44 1518.18 Q1267.8 1516.49 1266.68 1515.73 Q1265.63 1514.91 1264.64 1514.61 Q1263.7 1514.32 1262.64 1514.32 Q1260.89 1514.32 1258.9 1515.02 Q1256.96 1515.73 1254.62 1517.36 Q1252.34 1518.95 1250.17 1522.22 Q1248.01 1525.5 1246.54 1530.01 Q1246.25 1531.36 1244.96 1531.36 Q1243.56 1531.3 1243.56 1530.13 Q1243.56 1529.13 1244.32 1527.08 Q1245.14 1524.98 1246.78 1522.34 Q1248.47 1519.71 1250.64 1517.36 Q1252.87 1514.96 1256.09 1513.32 Q1259.37 1511.68 1262.88 1511.68 Q1264.46 1511.68 1265.98 1512.04 Q1267.56 1512.33 1269.44 1513.21 Q1271.37 1514.09 1273.07 1516.02 Q1274.77 1517.95 1275.82 1520.76 Q1276.52 1519.41 1277.46 1518.13 Q1278.45 1516.84 1279.98 1515.26 Q1281.56 1513.62 1283.72 1512.68 Q1285.95 1511.68 1288.41 1511.68 Q1290.81 1511.68 1293.15 1512.33 Q1295.49 1512.91 1297.49 1514.85 Q1299.53 1516.72 1299.53 1519.59 Z" fill="#000000" fill-rule="evenodd" fill-opacity="1" /><polyline clip-path="url(#clip652)" style="stroke:#000000; stroke-linecap:round; stroke-linejoin:round; stroke-width:2; stroke-opacity:0.1; fill:none" points="
  194.776,1286.38 2352.76,1286.38 
  "/>
<polyline clip-path="url(#clip650)" style="stroke:#000000; stroke-linecap:round; stroke-linejoin:round; stroke-width:4; stroke-opacity:1; fill:none" points="
  194.776,1354.06 194.776,47.2441 
  "/>
<polyline clip-path="url(#clip650)" style="stroke:#000000; stroke-linecap:round; stroke-linejoin:round; stroke-width:4; stroke-opacity:1; fill:none" points="
  194.776,1286.38 213.673,1286.38 
  "/>
<path clip-path="url(#clip650)" d="M136.38 1259.75 Q129.609 1259.75 126.18 1266.43 Q122.795 1273.07 122.795 1286.44 Q122.795 1299.77 126.18 1306.45 Q129.609 1313.09 136.38 1313.09 Q143.194 1313.09 146.58 1306.45 Q150.008 1299.77 150.008 1286.44 Q150.008 1273.07 146.58 1266.43 Q143.194 1259.75 136.38 1259.75 M136.38 1252.8 Q147.274 1252.8 153.003 1261.44 Q158.776 1270.03 158.776 1286.44 Q158.776 1302.8 153.003 1311.44 Q147.274 1320.03 136.38 1320.03 Q125.486 1320.03 119.713 1311.44 Q113.984 1302.8 113.984 1286.44 Q113.984 1270.03 119.713 1261.44 Q125.486 1252.8 136.38 1252.8 Z" fill="#000000" fill-rule="evenodd" fill-opacity="1" /><circle clip-path="url(#clip652)" cx="459.434" cy="84.3793" r="21.6" fill="#008000" fill-rule="evenodd" fill-opacity="1" stroke="#000000" stroke-opacity="1" stroke-width="3.2"/>
<circle clip-path="url(#clip652)" cx="540.867" cy="674.116" r="21.6" fill="#008000" fill-rule="evenodd" fill-opacity="1" stroke="#000000" stroke-opacity="1" stroke-width="3.2"/>
<circle clip-path="url(#clip652)" cx="1273.77" cy="1265.38" r="21.6" fill="#008000" fill-rule="evenodd" fill-opacity="1" stroke="#000000" stroke-opacity="1" stroke-width="3.2"/>
<circle clip-path="url(#clip652)" cx="1477.35" cy="973.78" r="21.6" fill="#008000" fill-rule="evenodd" fill-opacity="1" stroke="#000000" stroke-opacity="1" stroke-width="3.2"/>
<circle clip-path="url(#clip652)" cx="1680.93" cy="737.857" r="21.6" fill="#008000" fill-rule="evenodd" fill-opacity="1" stroke="#000000" stroke-opacity="1" stroke-width="3.2"/>
<circle clip-path="url(#clip652)" cx="1782.72" cy="497.976" r="21.6" fill="#008000" fill-rule="evenodd" fill-opacity="1" stroke="#000000" stroke-opacity="1" stroke-width="3.2"/>
<circle clip-path="url(#clip652)" cx="2088.1" cy="846.893" r="21.6" fill="#008000" fill-rule="evenodd" fill-opacity="1" stroke="#000000" stroke-opacity="1" stroke-width="3.2"/>
<polyline clip-path="url(#clip652)" style="stroke:#0000ff; stroke-linecap:round; stroke-linejoin:round; stroke-width:12; stroke-opacity:1; fill:none" stroke-dasharray="48, 24, 6, 24, 6, 24" points="
  255.851,1277.09 266.081,1285.55 276.311,1275.99 286.542,1277.79 296.772,1268.33 307.002,1276.21 317.232,1276 327.463,1273.36 337.693,1275.67 347.923,1269.6 
  358.154,1268.19 368.384,1279.97 378.614,1277.9 388.845,1115.19 399.075,969.442 409.305,817.763 419.535,664.524 429.766,494.631 439.996,346.351 450.226,222.964 
  460.457,84.2294 470.687,165.441 480.917,243.109 491.148,326.334 501.378,390.142 511.608,459.011 521.838,536.598 532.069,606.86 542.299,691.858 552.529,771.288 
  562.76,833.819 572.99,899.898 583.22,982.872 593.451,1055.18 603.681,1132.51 613.911,1214.43 624.142,1285.64 634.372,1286.73 644.602,1266.39 654.832,1272.3 
  665.063,1275.31 675.293,1285.75 685.523,1291.44 695.754,1293.55 705.984,1296.85 716.214,1298.19 726.445,1301.09 736.675,1293.89 746.905,1295.75 757.135,1291.04 
  767.366,1283.33 777.596,1283.98 787.826,1272.97 798.057,1275.8 808.287,1276.49 818.517,1288.44 828.748,1283.66 838.978,1285.2 849.208,1282.93 859.438,1294.57 
  869.669,1294.63 879.899,1288.51 890.129,1293.68 900.36,1284.57 910.59,1295.83 920.82,1293.43 931.051,1296.85 941.281,1287.2 951.511,1284.75 961.742,1284.27 
  971.972,1287.72 982.202,1296.67 992.432,1286.07 1002.66,1286.96 1012.89,1290.65 1023.12,1285.37 1033.35,1298.28 1043.58,1302.72 1053.81,1302.33 1064.04,1290.78 
  1074.27,1293.21 1084.51,1288.73 1094.74,1288.26 1104.97,1292.32 1115.2,1285.46 1125.43,1286.07 1135.66,1282.59 1145.89,1287.52 1156.12,1290.42 1166.35,1293.24 
  1176.58,1282.52 1186.81,1284.57 1197.04,1292.13 1207.27,1282.72 1217.5,1274.83 1227.73,1269.73 1237.96,1271.38 1248.19,1261.99 1258.42,1263.78 1268.65,1256.28 
  1278.88,1259.15 1289.11,1261.91 1299.34,1268.05 1309.57,1288.27 1319.8,1281.55 1330.03,1287.34 1340.26,1293.16 1350.49,1298.07 1360.72,1295.5 1370.95,1295.32 
  1381.18,1286.86 1391.41,1275.14 1401.64,1258.82 1411.87,1222.45 1422.11,1185.5 1432.34,1140.85 1442.57,1103.02 1452.8,1065.68 1463.03,1035.66 1473.26,994.094 
  1483.49,1004.49 1493.72,1039.63 1503.95,1074.07 1514.18,1114.63 1524.41,1151.18 1534.64,1196.7 1544.87,1234.63 1555.1,1272.3 1565.33,1281.77 1575.56,1285.07 
  1585.79,1280.7 1596.02,1285.67 1606.25,1236.24 1616.48,1163.99 1626.71,1103.07 1636.94,1036.35 1647.17,972.014 1657.4,904.55 1667.63,832.074 1677.86,748.946 
  1688.09,772.851 1698.32,848.568 1708.55,857.317 1718.78,827.336 1729.01,793.857 1739.24,761.709 1749.47,736.059 1759.71,709.226 1769.94,633.639 1780.17,531.301 
  1790.4,571.875 1800.63,686.568 1810.86,787.744 1821.09,886.81 1831.32,986.197 1841.55,1091.89 1851.78,1173.56 1862.01,1268.82 1872.24,1285.65 1882.47,1277.27 
  1892.7,1289.43 1902.93,1280.07 1913.16,1280.47 1923.39,1280.59 1933.62,1285.43 1943.85,1283.02 1954.08,1270.78 1964.31,1280.82 1974.54,1274.51 1984.77,1288.26 
  1995,1286.07 2005.23,1281.08 2015.46,1235.96 2025.69,1185.42 2035.92,1141.16 2046.15,1083.32 2056.38,1028.31 2066.61,970.362 2076.84,910.941 2087.07,858.673 
  2097.31,910.273 2107.54,949.194 2117.77,997.508 2128,1060.02 2138.23,1114.74 2148.46,1182.9 2158.69,1242.45 2168.92,1294.53 2179.15,1294.4 2189.38,1296.46 
  2199.61,1296.74 2209.84,1289.49 2220.07,1291.7 2230.3,1288.17 2240.53,1288.09 2250.76,1292.33 2260.99,1293.21 2271.22,1297.65 2281.45,1293.84 2291.68,1292.16 
  
  "/>
<polyline clip-path="url(#clip652)" style="stroke:#0000ff; stroke-linecap:round; stroke-linejoin:round; stroke-width:12; stroke-opacity:1; fill:none" stroke-dasharray="48, 30" points="
  255.851,1272.11 266.081,1264.44 276.311,1273.63 286.542,1282.34 296.772,1291.71 307.002,1310.73 317.232,1293.88 327.463,1296.14 337.693,1297.22 347.923,1282.84 
  358.154,1291.36 368.384,1271.33 378.614,1270.14 388.845,1285.39 399.075,1289.14 409.305,1296.05 419.535,1277.13 429.766,972.281 439.996,655.468 450.226,348.203 
  460.457,121.417 470.687,435.952 480.917,741.235 491.148,1029.72 501.378,1260.61 511.608,1107.9 521.838,939.354 532.069,785.433 542.299,698.659 552.529,836.467 
  562.76,1009.33 572.99,1166.94 583.22,1286.84 593.451,1282.7 603.681,1268.79 613.911,1289.83 624.142,1284.63 634.372,1294.28 644.602,1307.93 654.832,1299.27 
  665.063,1298.95 675.293,1286.91 685.523,1278.19 695.754,1273.22 705.984,1281.59 716.214,1286.07 726.445,1283.5 736.675,1292.16 746.905,1284.69 757.135,1285.77 
  767.366,1291.05 777.596,1291.01 787.826,1303.05 798.057,1299.22 808.287,1291.58 818.517,1295.48 828.748,1281.32 838.978,1288.94 849.208,1293.61 859.438,1286.38 
  869.669,1295.95 879.899,1296.49 890.129,1290.27 900.36,1286.91 910.59,1291.49 920.82,1280.33 931.051,1288.04 941.281,1293.33 951.511,1273.9 961.742,1272.52 
  971.972,1274.06 982.202,1274.25 992.432,1285.43 1002.66,1279.5 1012.89,1279.44 1023.12,1275.7 1033.35,1281.25 1043.58,1284.94 1053.81,1280.74 1064.04,1277.43 
  1074.27,1275.25 1084.51,1281.33 1094.74,1268.35 1104.97,1284.42 1115.2,1280.57 1125.43,1280.97 1135.66,1299.56 1145.89,1280.59 1156.12,1287.74 1166.35,1280.3 
  1176.58,1277.96 1186.81,1299.14 1197.04,1298.46 1207.27,1304.87 1217.5,1301.84 1227.73,1293 1237.96,1288.83 1248.19,1271.88 1258.42,1272.57 1268.65,1267.28 
  1278.88,1263.27 1289.11,1270.77 1299.34,1276.31 1309.57,1290.34 1319.8,1291.86 1330.03,1296.65 1340.26,1293.38 1350.49,1275.07 1360.72,1279.79 1370.95,1279.35 
  1381.18,1275.91 1391.41,1272.31 1401.64,1281.91 1411.87,1284.95 1422.11,1282.9 1432.34,1290.11 1442.57,1236.63 1452.8,1156.39 1463.03,1082.24 1473.26,1014.27 
  1483.49,1022.4 1493.72,1095.58 1503.95,1171.89 1514.18,1249.44 1524.41,1276.57 1534.64,1269.65 1544.87,1265.39 1555.1,1269.12 1565.33,1269 1575.56,1274.48 
  1585.79,1287.78 1596.02,1288.02 1606.25,1285.01 1616.48,1280.72 1626.71,1276.77 1636.94,1288.87 1647.17,1203.18 1657.4,1065.77 1667.63,930.94 1677.86,773.16 
  1688.09,840.993 1698.32,976.366 1708.55,1102.28 1718.78,1229.69 1729.01,1271.03 1739.24,1268.35 1749.47,1130.06 1759.71,943.987 1769.94,769.26 1780.17,553.421 
  1790.4,625.954 1800.63,838.41 1810.86,1023.26 1821.09,1233.99 1831.32,1295.65 1841.55,1302.59 1851.78,1305.63 1862.01,1297.78 1872.24,1287.19 1882.47,1282.57 
  1892.7,1279.64 1902.93,1270.62 1913.16,1276.94 1923.39,1270.38 1933.62,1288.15 1943.85,1292.73 1954.08,1294.41 1964.31,1295.95 1974.54,1289.63 1984.77,1286.64 
  1995,1272.24 2005.23,1296.74 2015.46,1298.1 2025.69,1304.33 2035.92,1301.32 2046.15,1282.68 2056.38,1182.34 2066.61,1066.84 2076.84,949.031 2087.07,848.88 
  2097.31,952.731 2107.54,1053.02 2117.77,1171.57 2128,1301.92 2138.23,1300.25 2148.46,1293.42 2158.69,1281.78 2168.92,1269.78 2179.15,1271.13 2189.38,1283.51 
  2199.61,1292.84 2209.84,1287.02 2220.07,1290.12 2230.3,1281.65 2240.53,1289.1 2250.76,1289.74 2260.99,1290.65 2271.22,1302.06 2281.45,1296.33 2291.68,1301.19 
  
  "/>
<polyline clip-path="url(#clip652)" style="stroke:#0000ff; stroke-linecap:round; stroke-linejoin:round; stroke-width:12; stroke-opacity:1; fill:none" points="
  255.851,1285.8 266.081,1267.79 276.311,1267.52 286.542,1283.48 296.772,1274.95 307.002,1277.55 317.232,1291.95 327.463,1296.28 337.693,1300.52 347.923,1309.87 
  358.154,1308.74 368.384,1284.31 378.614,1288.09 388.845,1291.48 399.075,1286.77 409.305,1284.66 419.535,1282.92 429.766,1277.62 439.996,1221.2 450.226,587.927 
  460.457,118.946 470.687,753.709 480.917,1285.36 491.148,1284.5 501.378,1280.75 511.608,1283.24 521.838,1243.51 532.069,965.477 542.299,700.521 552.529,1030.8 
  562.76,1273.13 572.99,1258.62 583.22,1288.94 593.451,1298.99 603.681,1290.21 613.911,1291.47 624.142,1297.44 634.372,1317.07 644.602,1306.55 654.832,1291.73 
  665.063,1273.07 675.293,1276.14 685.523,1283.63 695.754,1284.26 705.984,1294.14 716.214,1295.57 726.445,1281.44 736.675,1283.13 746.905,1291.77 757.135,1291.26 
  767.366,1289.18 777.596,1271.55 787.826,1275.02 798.057,1292.94 808.287,1301.62 818.517,1288.11 828.748,1275.53 838.978,1281.12 849.208,1291.08 859.438,1283.88 
  869.669,1290.5 879.899,1311.06 890.129,1305.88 900.36,1286.77 910.59,1289.92 920.82,1294.29 931.051,1286.87 941.281,1279.64 951.511,1271.84 961.742,1284.47 
  971.972,1285.79 982.202,1285.02 992.432,1297.52 1002.66,1298.59 1012.89,1270.99 1023.12,1266.41 1033.35,1273.09 1043.58,1279.84 1053.81,1315.06 1064.04,1314.31 
  1074.27,1296 1084.51,1282.9 1094.74,1289.55 1104.97,1292.04 1115.2,1279.05 1125.43,1268.85 1135.66,1269.07 1145.89,1292.09 1156.12,1298.06 1166.35,1287.66 
  1176.58,1273.54 1186.81,1292.65 1197.04,1299.72 1207.27,1272.73 1217.5,1269.11 1227.73,1287.66 1237.96,1286.9 1248.19,1267.28 1258.42,1262.65 1268.65,1283.94 
  1278.88,1297.18 1289.11,1293.85 1299.34,1290.35 1309.57,1280.69 1319.8,1274.15 1330.03,1287.09 1340.26,1287.02 1350.49,1272.29 1360.72,1292.29 1370.95,1304.66 
  1381.18,1276.69 1391.41,1260 1401.64,1281.64 1411.87,1282.2 1422.11,1289.84 1432.34,1304.92 1442.57,1272.63 1452.8,1259.39 1463.03,1185.63 1473.26,1037.87 
  1483.49,1067.58 1493.72,1225.32 1503.95,1286.19 1514.18,1285.64 1524.41,1272.53 1534.64,1276.67 1544.87,1278.07 1555.1,1282.39 1565.33,1288.81 1575.56,1286.86 
  1585.79,1294.49 1596.02,1287.39 1606.25,1281.87 1616.48,1289.28 1626.71,1286.92 1636.94,1274.16 1647.17,1274.83 1657.4,1293.43 1667.63,1093.06 1677.86,825.86 
  1688.09,917.46 1698.32,1192.61 1708.55,1280.68 1718.78,1274.82 1729.01,1284.01 1739.24,1289.46 1749.47,1261.72 1759.71,1262.29 1769.94,986.346 1780.17,601.157 
  1790.4,777.479 1800.63,1193.77 1810.86,1290.75 1821.09,1294.78 1831.32,1299.85 1841.55,1302.56 1851.78,1299.46 1862.01,1293.47 1872.24,1303.72 1882.47,1298.66 
  1892.7,1281.76 1902.93,1291.15 1913.16,1289.48 1923.39,1282.67 1933.62,1282.1 1943.85,1286.27 1954.08,1292.83 1964.31,1296.38 1974.54,1294.2 1984.77,1283.11 
  1995,1268.21 2005.23,1265.86 2015.46,1290.03 2025.69,1289.32 2035.92,1297.2 2046.15,1293.96 2056.38,1283.85 2066.61,1296.02 2076.84,1110.83 2087.07,876.367 
  2097.31,1033.88 2107.54,1267.42 2117.77,1276.92 2128,1271.87 2138.23,1268.44 2148.46,1277.19 2158.69,1284.54 2168.92,1292.46 2179.15,1314.75 2189.38,1303.33 
  2199.61,1278.1 2209.84,1272.54 2220.07,1268.32 2230.3,1264.06 2240.53,1281.57 2250.76,1291.06 2260.99,1298.12 2271.22,1294.4 2281.45,1290.45 2291.68,1285.92 
  
  "/>
</svg>
