<?xml version="1.0" encoding="utf-8"?>
<svg xmlns="http://www.w3.org/2000/svg" xmlns:xlink="http://www.w3.org/1999/xlink" width="600" height="400" viewBox="0 0 2400 1600">
<defs>
  <clipPath id="clip550">
    <rect x="0" y="0" width="2400" height="1600"/>
  </clipPath>
</defs>
<path clip-path="url(#clip550)" d="
M0 1600 L2400 1600 L2400 0 L0 0  Z
  " fill="#ffffff" fill-rule="evenodd" fill-opacity="1"/>
<defs>
  <clipPath id="clip551">
    <rect x="480" y="0" width="1681" height="1600"/>
  </clipPath>
</defs>
<defs>
  <clipPath id="clip552">
    <rect x="194" y="47" width="2159" height="1308"/>
  </clipPath>
</defs>
<path clip-path="url(#clip550)" d="
M194.776 1354.06 L2352.76 1354.06 L2352.76 47.2441 L194.776 47.2441  Z
  " fill="#ffffff" fill-rule="evenodd" fill-opacity="1"/>
<polyline clip-path="url(#clip552)" style="stroke:#000000; stroke-linecap:round; stroke-linejoin:round; stroke-width:2; stroke-opacity:0.1; fill:none" points="
  255.851,1354.06 255.851,47.2441 
  "/>
<polyline clip-path="url(#clip552)" style="stroke:#000000; stroke-linecap:round; stroke-linejoin:round; stroke-width:2; stroke-opacity:0.1; fill:none" points="
  459.434,1354.06 459.434,47.2441 
  "/>
<polyline clip-path="url(#clip552)" style="stroke:#000000; stroke-linecap:round; stroke-linejoin:round; stroke-width:2; stroke-opacity:0.1; fill:none" points="
  663.017,1354.06 663.017,47.2441 
  "/>
<polyline clip-path="url(#clip552)" style="stroke:#000000; stroke-linecap:round; stroke-linejoin:round; stroke-width:2; stroke-opacity:0.1; fill:none" points="
  866.6,1354.06 866.6,47.2441 
  "/>
<polyline clip-path="url(#clip552)" style="stroke:#000000; stroke-linecap:round; stroke-linejoin:round; stroke-width:2; stroke-opacity:0.1; fill:none" points="
  1070.18,1354.06 1070.18,47.2441 
  "/>
<polyline clip-path="url(#clip552)" style="stroke:#000000; stroke-linecap:round; stroke-linejoin:round; stroke-width:2; stroke-opacity:0.1; fill:none" points="
  1273.77,1354.06 1273.77,47.2441 
  "/>
<polyline clip-path="url(#clip552)" style="stroke:#000000; stroke-linecap:round; stroke-linejoin:round; stroke-width:2; stroke-opacity:0.1; fill:none" points="
  1477.35,1354.06 1477.35,47.2441 
  "/>
<polyline clip-path="url(#clip552)" style="stroke:#000000; stroke-linecap:round; stroke-linejoin:round; stroke-width:2; stroke-opacity:0.1; fill:none" points="
  1680.93,1354.06 1680.93,47.2441 
  "/>
<polyline clip-path="url(#clip552)" style="stroke:#000000; stroke-linecap:round; stroke-linejoin:round; stroke-width:2; stroke-opacity:0.1; fill:none" points="
  1884.51,1354.06 1884.51,47.2441 
  "/>
<polyline clip-path="url(#clip552)" style="stroke:#000000; stroke-linecap:round; stroke-linejoin:round; stroke-width:2; stroke-opacity:0.1; fill:none" points="
  2088.1,1354.06 2088.1,47.2441 
  "/>
<polyline clip-path="url(#clip552)" style="stroke:#000000; stroke-linecap:round; stroke-linejoin:round; stroke-width:2; stroke-opacity:0.1; fill:none" points="
  2291.68,1354.06 2291.68,47.2441 
  "/>
<polyline clip-path="url(#clip550)" style="stroke:#000000; stroke-linecap:round; stroke-linejoin:round; stroke-width:4; stroke-opacity:1; fill:none" points="
  194.776,1354.06 2352.76,1354.06 
  "/>
<polyline clip-path="url(#clip550)" style="stroke:#000000; stroke-linecap:round; stroke-linejoin:round; stroke-width:4; stroke-opacity:1; fill:none" points="
  255.851,1354.06 255.851,1335.16 
  "/>
<polyline clip-path="url(#clip550)" style="stroke:#000000; stroke-linecap:round; stroke-linejoin:round; stroke-width:4; stroke-opacity:1; fill:none" points="
  459.434,1354.06 459.434,1335.16 
  "/>
<polyline clip-path="url(#clip550)" style="stroke:#000000; stroke-linecap:round; stroke-linejoin:round; stroke-width:4; stroke-opacity:1; fill:none" points="
  663.017,1354.06 663.017,1335.16 
  "/>
<polyline clip-path="url(#clip550)" style="stroke:#000000; stroke-linecap:round; stroke-linejoin:round; stroke-width:4; stroke-opacity:1; fill:none" points="
  866.6,1354.06 866.6,1335.16 
  "/>
<polyline clip-path="url(#clip550)" style="stroke:#000000; stroke-linecap:round; stroke-linejoin:round; stroke-width:4; stroke-opacity:1; fill:none" points="
  1070.18,1354.06 1070.18,1335.16 
  "/>
<polyline clip-path="url(#clip550)" style="stroke:#000000; stroke-linecap:round; stroke-linejoin:round; stroke-width:4; stroke-opacity:1; fill:none" points="
  1273.77,1354.06 1273.77,1335.16 
  "/>
<polyline clip-path="url(#clip550)" style="stroke:#000000; stroke-linecap:round; stroke-linejoin:round; stroke-width:4; stroke-opacity:1; fill:none" points="
  1477.35,1354.06 1477.35,1335.16 
  "/>
<polyline clip-path="url(#clip550)" style="stroke:#000000; stroke-linecap:round; stroke-linejoin:round; stroke-width:4; stroke-opacity:1; fill:none" points="
  1680.93,1354.06 1680.93,1335.16 
  "/>
<polyline clip-path="url(#clip550)" style="stroke:#000000; stroke-linecap:round; stroke-linejoin:round; stroke-width:4; stroke-opacity:1; fill:none" points="
  1884.51,1354.06 1884.51,1335.16 
  "/>
<polyline clip-path="url(#clip550)" style="stroke:#000000; stroke-linecap:round; stroke-linejoin:round; stroke-width:4; stroke-opacity:1; fill:none" points="
  2088.1,1354.06 2088.1,1335.16 
  "/>
<polyline clip-path="url(#clip550)" style="stroke:#000000; stroke-linecap:round; stroke-linejoin:round; stroke-width:4; stroke-opacity:1; fill:none" points="
  2291.68,1354.06 2291.68,1335.16 
  "/>
<path clip-path="url(#clip550)" d="M255.851 1395.23 Q249.08 1395.23 245.651 1401.92 Q242.266 1408.56 242.266 1421.92 Q242.266 1435.25 245.651 1441.93 Q249.08 1448.57 255.851 1448.57 Q262.665 1448.57 266.05 1441.93 Q269.479 1435.25 269.479 1421.92 Q269.479 1408.56 266.05 1401.92 Q262.665 1395.23 255.851 1395.23 M255.851 1388.29 Q266.745 1388.29 272.474 1396.93 Q278.246 1405.52 278.246 1421.92 Q278.246 1438.29 272.474 1446.92 Q266.745 1455.52 255.851 1455.52 Q244.957 1455.52 239.184 1446.92 Q233.455 1438.29 233.455 1421.92 Q233.455 1405.52 239.184 1396.93 Q244.957 1388.29 255.851 1388.29 Z" fill="#000000" fill-rule="evenodd" fill-opacity="1" /><path clip-path="url(#clip550)" d="M622.11 1395.23 Q615.339 1395.23 611.91 1401.92 Q608.525 1408.56 608.525 1421.92 Q608.525 1435.25 611.91 1441.93 Q615.339 1448.57 622.11 1448.57 Q628.924 1448.57 632.309 1441.93 Q635.738 1435.25 635.738 1421.92 Q635.738 1408.56 632.309 1401.92 Q628.924 1395.23 622.11 1395.23 M622.11 1388.29 Q633.004 1388.29 638.733 1396.93 Q644.505 1405.52 644.505 1421.92 Q644.505 1438.29 638.733 1446.92 Q633.004 1455.52 622.11 1455.52 Q611.216 1455.52 605.443 1446.92 Q599.714 1438.29 599.714 1421.92 Q599.714 1405.52 605.443 1396.93 Q611.216 1388.29 622.11 1388.29 Z" fill="#000000" fill-rule="evenodd" fill-opacity="1" /><path clip-path="url(#clip550)" d="M659.913 1443.24 L669.071 1443.24 L669.071 1454.26 L659.913 1454.26 L659.913 1443.24 Z" fill="#000000" fill-rule="evenodd" fill-opacity="1" /><path clip-path="url(#clip550)" d="M695.72 1446.88 L726.319 1446.88 L726.319 1454.26 L685.174 1454.26 L685.174 1446.88 Q690.165 1441.72 698.759 1433.04 Q707.396 1424.31 709.609 1421.79 Q713.819 1417.06 715.469 1413.81 Q717.161 1410.51 717.161 1407.34 Q717.161 1402.18 713.516 1398.92 Q709.913 1395.67 704.097 1395.67 Q699.974 1395.67 695.373 1397.1 Q690.816 1398.53 685.608 1401.44 L685.608 1392.58 Q690.903 1390.46 695.503 1389.37 Q700.104 1388.29 703.924 1388.29 Q713.993 1388.29 719.983 1393.32 Q725.972 1398.36 725.972 1406.78 Q725.972 1410.77 724.453 1414.37 Q722.977 1417.93 719.028 1422.79 Q717.943 1424.05 712.127 1430.08 Q706.311 1436.07 695.72 1446.88 Z" fill="#000000" fill-rule="evenodd" fill-opacity="1" /><path clip-path="url(#clip550)" d="M1027.32 1395.23 Q1020.55 1395.23 1017.12 1401.92 Q1013.74 1408.56 1013.74 1421.92 Q1013.74 1435.25 1017.12 1441.93 Q1020.55 1448.57 1027.32 1448.57 Q1034.14 1448.57 1037.52 1441.93 Q1040.95 1435.25 1040.95 1421.92 Q1040.95 1408.56 1037.52 1401.92 Q1034.14 1395.23 1027.32 1395.23 M1027.32 1388.29 Q1038.22 1388.29 1043.95 1396.93 Q1049.72 1405.52 1049.72 1421.92 Q1049.72 1438.29 1043.95 1446.92 Q1038.22 1455.52 1027.32 1455.52 Q1016.43 1455.52 1010.66 1446.92 Q1004.93 1438.29 1004.93 1421.92 Q1004.93 1405.52 1010.66 1396.93 Q1016.43 1388.29 1027.32 1388.29 Z" fill="#000000" fill-rule="evenodd" fill-opacity="1" /><path clip-path="url(#clip550)" d="M1065.13 1443.24 L1074.28 1443.24 L1074.28 1454.26 L1065.13 1454.26 L1065.13 1443.24 Z" fill="#000000" fill-rule="evenodd" fill-opacity="1" /><path clip-path="url(#clip550)" d="M1117.47 1397.1 L1095.33 1431.69 L1117.47 1431.69 L1117.47 1397.1 M1115.17 1389.46 L1126.19 1389.46 L1126.19 1431.69 L1135.44 1431.69 L1135.44 1438.98 L1126.19 1438.98 L1126.19 1454.26 L1117.47 1454.26 L1117.47 1438.98 L1088.22 1438.98 L1088.22 1430.52 L1115.17 1389.46 Z" fill="#000000" fill-rule="evenodd" fill-opacity="1" /><path clip-path="url(#clip550)" d="M1434.79 1395.23 Q1428.02 1395.23 1424.59 1401.92 Q1421.21 1408.56 1421.21 1421.92 Q1421.21 1435.25 1424.59 1441.93 Q1428.02 1448.57 1434.79 1448.57 Q1441.61 1448.57 1444.99 1441.93 Q1448.42 1435.25 1448.42 1421.92 Q1448.42 1408.56 1444.99 1401.92 Q1441.61 1395.23 1434.79 1395.23 M1434.79 1388.29 Q1445.69 1388.29 1451.42 1396.93 Q1457.19 1405.52 1457.19 1421.92 Q1457.19 1438.29 1451.42 1446.92 Q1445.69 1455.52 1434.79 1455.52 Q1423.9 1455.52 1418.13 1446.92 Q1412.4 1438.29 1412.4 1421.92 Q1412.4 1405.52 1418.13 1396.93 Q1423.9 1388.29 1434.79 1388.29 Z" fill="#000000" fill-rule="evenodd" fill-opacity="1" /><path clip-path="url(#clip550)" d="M1472.6 1443.24 L1481.75 1443.24 L1481.75 1454.26 L1472.6 1454.26 L1472.6 1443.24 Z" fill="#000000" fill-rule="evenodd" fill-opacity="1" /><path clip-path="url(#clip550)" d="M1520.69 1418.37 Q1514.78 1418.37 1511.31 1422.4 Q1507.88 1426.44 1507.88 1433.47 Q1507.88 1440.46 1511.31 1444.54 Q1514.78 1448.57 1520.69 1448.57 Q1526.59 1448.57 1530.02 1444.54 Q1533.49 1440.46 1533.49 1433.47 Q1533.49 1426.44 1530.02 1422.4 Q1526.59 1418.37 1520.69 1418.37 M1538.09 1390.89 L1538.09 1398.88 Q1534.79 1397.32 1531.41 1396.49 Q1528.06 1395.67 1524.77 1395.67 Q1516.09 1395.67 1511.48 1401.53 Q1506.93 1407.39 1506.28 1419.23 Q1508.84 1415.46 1512.7 1413.46 Q1516.56 1411.42 1521.21 1411.42 Q1530.97 1411.42 1536.62 1417.37 Q1542.3 1423.27 1542.3 1433.47 Q1542.3 1443.45 1536.4 1449.49 Q1530.5 1455.52 1520.69 1455.52 Q1509.45 1455.52 1503.5 1446.92 Q1497.55 1438.29 1497.55 1421.92 Q1497.55 1406.56 1504.84 1397.45 Q1512.14 1388.29 1524.42 1388.29 Q1527.72 1388.29 1531.06 1388.94 Q1534.44 1389.59 1538.09 1390.89 Z" fill="#000000" fill-rule="evenodd" fill-opacity="1" /><path clip-path="url(#clip550)" d="M1842.2 1395.23 Q1835.43 1395.23 1832 1401.92 Q1828.61 1408.56 1828.61 1421.92 Q1828.61 1435.25 1832 1441.93 Q1835.43 1448.57 1842.2 1448.57 Q1849.01 1448.57 1852.4 1441.93 Q1855.83 1435.25 1855.83 1421.92 Q1855.83 1408.56 1852.4 1401.92 Q1849.01 1395.23 1842.2 1395.23 M1842.2 1388.29 Q1853.09 1388.29 1858.82 1396.93 Q1864.59 1405.52 1864.59 1421.92 Q1864.59 1438.29 1858.82 1446.92 Q1853.09 1455.52 1842.2 1455.52 Q1831.3 1455.52 1825.53 1446.92 Q1819.8 1438.29 1819.8 1421.92 Q1819.8 1405.52 1825.53 1396.93 Q1831.3 1388.29 1842.2 1388.29 Z" fill="#000000" fill-rule="evenodd" fill-opacity="1" /><path clip-path="url(#clip550)" d="M1880 1443.24 L1889.16 1443.24 L1889.16 1454.26 L1880 1454.26 L1880 1443.24 Z" fill="#000000" fill-rule="evenodd" fill-opacity="1" /><path clip-path="url(#clip550)" d="M1927.01 1423.49 Q1920.76 1423.49 1917.15 1426.83 Q1913.59 1430.17 1913.59 1436.03 Q1913.59 1441.89 1917.15 1445.23 Q1920.76 1448.57 1927.01 1448.57 Q1933.26 1448.57 1936.86 1445.23 Q1940.46 1441.85 1940.46 1436.03 Q1940.46 1430.17 1936.86 1426.83 Q1933.3 1423.49 1927.01 1423.49 M1918.24 1419.75 Q1912.6 1418.37 1909.43 1414.5 Q1906.3 1410.64 1906.3 1405.08 Q1906.3 1397.32 1911.82 1392.8 Q1917.37 1388.29 1927.01 1388.29 Q1936.68 1388.29 1942.2 1392.8 Q1947.71 1397.32 1947.71 1405.08 Q1947.71 1410.64 1944.54 1414.5 Q1941.42 1418.37 1935.82 1419.75 Q1942.15 1421.23 1945.67 1425.53 Q1949.23 1429.82 1949.23 1436.03 Q1949.23 1445.45 1943.46 1450.48 Q1937.73 1455.52 1927.01 1455.52 Q1916.29 1455.52 1910.51 1450.48 Q1904.78 1445.45 1904.78 1436.03 Q1904.78 1429.82 1908.34 1425.53 Q1911.9 1421.23 1918.24 1419.75 M1915.03 1405.91 Q1915.03 1410.94 1918.15 1413.77 Q1921.32 1416.59 1927.01 1416.59 Q1932.65 1416.59 1935.82 1413.77 Q1939.03 1410.94 1939.03 1405.91 Q1939.03 1400.87 1935.82 1398.05 Q1932.65 1395.23 1927.01 1395.23 Q1921.32 1395.23 1918.15 1398.05 Q1915.03 1400.87 1915.03 1405.91 Z" fill="#000000" fill-rule="evenodd" fill-opacity="1" /><path clip-path="url(#clip550)" d="M2273.65 1446.88 L2287.97 1446.88 L2287.97 1397.45 L2272.39 1400.57 L2272.39 1392.58 L2287.88 1389.46 L2296.65 1389.46 L2296.65 1446.88 L2310.97 1446.88 L2310.97 1454.26 L2273.65 1454.26 L2273.65 1446.88 Z" fill="#000000" fill-rule="evenodd" fill-opacity="1" /><path clip-path="url(#clip550)" d="M1299.53 1519.59 Q1299.53 1522.87 1297.49 1524.74 Q1295.44 1526.56 1293.09 1526.56 Q1290.87 1526.56 1289.7 1525.27 Q1288.53 1523.98 1288.53 1522.34 Q1288.53 1520.12 1290.17 1518.18 Q1291.81 1516.25 1294.26 1515.84 Q1291.86 1514.32 1288.29 1514.32 Q1285.95 1514.32 1283.9 1515.55 Q1281.91 1516.78 1280.68 1518.36 Q1279.51 1519.94 1278.45 1522.22 Q1277.46 1524.45 1277.05 1525.8 Q1276.7 1527.08 1276.41 1528.49 L1272.31 1544.89 Q1270.32 1552.67 1270.32 1555.43 Q1270.32 1558.82 1271.95 1561.11 Q1273.59 1563.33 1276.87 1563.33 Q1278.16 1563.33 1279.63 1562.98 Q1281.09 1562.57 1282.96 1561.52 Q1284.9 1560.4 1286.59 1558.76 Q1288.35 1557.07 1290.05 1554.2 Q1291.75 1551.33 1292.86 1547.64 Q1293.21 1546.35 1294.38 1546.35 Q1295.85 1546.35 1295.85 1547.52 Q1295.85 1548.52 1295.03 1550.62 Q1294.26 1552.67 1292.57 1555.37 Q1290.93 1558 1288.76 1560.4 Q1286.59 1562.75 1283.37 1564.39 Q1280.15 1566.02 1276.64 1566.02 Q1271.6 1566.02 1268.27 1563.33 Q1264.93 1560.64 1263.7 1556.89 Q1263.41 1557.42 1263 1558.12 Q1262.59 1558.82 1261.36 1560.4 Q1260.19 1561.93 1258.84 1563.1 Q1257.49 1564.21 1255.38 1565.09 Q1253.33 1566.02 1251.11 1566.02 Q1248.3 1566.02 1245.78 1565.2 Q1243.32 1564.39 1241.56 1562.51 Q1239.81 1560.64 1239.81 1558.06 Q1239.81 1555.19 1241.74 1553.2 Q1243.73 1551.15 1246.42 1551.15 Q1248.12 1551.15 1249.47 1552.15 Q1250.87 1553.14 1250.87 1555.31 Q1250.87 1557.71 1249.24 1559.53 Q1247.6 1561.34 1245.25 1561.81 Q1247.65 1563.33 1251.23 1563.33 Q1255.09 1563.33 1258.14 1559.93 Q1261.18 1556.54 1262.64 1550.86 Q1266.27 1537.22 1267.68 1531.13 Q1269.09 1524.98 1269.09 1522.34 Q1269.09 1519.88 1268.44 1518.18 Q1267.8 1516.49 1266.68 1515.73 Q1265.63 1514.91 1264.64 1514.61 Q1263.7 1514.32 1262.64 1514.32 Q1260.89 1514.32 1258.9 1515.02 Q1256.96 1515.73 1254.62 1517.36 Q1252.34 1518.95 1250.17 1522.22 Q1248.01 1525.5 1246.54 1530.01 Q1246.25 1531.36 1244.96 1531.36 Q1243.56 1531.3 1243.56 1530.13 Q1243.56 1529.13 1244.32 1527.08 Q1245.14 1524.98 1246.78 1522.34 Q1248.47 1519.71 1250.64 1517.36 Q1252.87 1514.96 1256.09 1513.32 Q1259.37 1511.68 1262.88 1511.68 Q1264.46 1511.68 1265.98 1512.04 Q1267.56 1512.33 1269.44 1513.21 Q1271.37 1514.09 1273.07 1516.02 Q1274.77 1517.95 1275.82 1520.76 Q1276.52 1519.41 1277.46 1518.13 Q1278.45 1516.84 1279.98 1515.26 Q1281.56 1513.62 1283.72 1512.68 Q1285.95 1511.68 1288.41 1511.68 Q1290.81 1511.68 1293.15 1512.33 Q1295.49 1512.91 1297.49 1514.85 Q1299.53 1516.72 1299.53 1519.59 Z" fill="#000000" fill-rule="evenodd" fill-opacity="1" /><polyline clip-path="url(#clip552)" style="stroke:#000000; stroke-linecap:round; stroke-linejoin:round; stroke-width:2; stroke-opacity:0.1; fill:none" points="
  194.776,1274.59 2352.76,1274.59 
  "/>
<polyline clip-path="url(#clip550)" style="stroke:#000000; stroke-linecap:round; stroke-linejoin:round; stroke-width:4; stroke-opacity:1; fill:none" points="
  194.776,1354.06 194.776,47.2441 
  "/>
<polyline clip-path="url(#clip550)" style="stroke:#000000; stroke-linecap:round; stroke-linejoin:round; stroke-width:4; stroke-opacity:1; fill:none" points="
  194.776,1274.59 213.673,1274.59 
  "/>
<path clip-path="url(#clip550)" d="M136.38 1247.97 Q129.609 1247.97 126.18 1254.65 Q122.795 1261.29 122.795 1274.66 Q122.795 1287.98 126.18 1294.67 Q129.609 1301.31 136.38 1301.31 Q143.194 1301.31 146.58 1294.67 Q150.008 1287.98 150.008 1274.66 Q150.008 1261.29 146.58 1254.65 Q143.194 1247.97 136.38 1247.97 M136.38 1241.02 Q147.274 1241.02 153.003 1249.66 Q158.776 1258.25 158.776 1274.66 Q158.776 1291.02 153.003 1299.66 Q147.274 1308.25 136.38 1308.25 Q125.486 1308.25 119.713 1299.66 Q113.984 1291.02 113.984 1274.66 Q113.984 1258.25 119.713 1249.66 Q125.486 1241.02 136.38 1241.02 Z" fill="#000000" fill-rule="evenodd" fill-opacity="1" /><circle clip-path="url(#clip552)" cx="459.434" cy="99.7551" r="21.6" fill="#008000" fill-rule="evenodd" fill-opacity="1" stroke="#000000" stroke-opacity="1" stroke-width="3.2"/>
<circle clip-path="url(#clip552)" cx="540.867" cy="676.168" r="21.6" fill="#008000" fill-rule="evenodd" fill-opacity="1" stroke="#000000" stroke-opacity="1" stroke-width="3.2"/>
<circle clip-path="url(#clip552)" cx="1273.77" cy="1254.08" r="21.6" fill="#008000" fill-rule="evenodd" fill-opacity="1" stroke="#000000" stroke-opacity="1" stroke-width="3.2"/>
<circle clip-path="url(#clip552)" cx="1477.35" cy="969.06" r="21.6" fill="#008000" fill-rule="evenodd" fill-opacity="1" stroke="#000000" stroke-opacity="1" stroke-width="3.2"/>
<circle clip-path="url(#clip552)" cx="1680.93" cy="738.468" r="21.6" fill="#008000" fill-rule="evenodd" fill-opacity="1" stroke="#000000" stroke-opacity="1" stroke-width="3.2"/>
<circle clip-path="url(#clip552)" cx="1782.72" cy="504.007" r="21.6" fill="#008000" fill-rule="evenodd" fill-opacity="1" stroke="#000000" stroke-opacity="1" stroke-width="3.2"/>
<circle clip-path="url(#clip552)" cx="2088.1" cy="845.04" r="21.6" fill="#008000" fill-rule="evenodd" fill-opacity="1" stroke="#000000" stroke-opacity="1" stroke-width="3.2"/>
<polyline clip-path="url(#clip552)" style="stroke:#0000ff; stroke-linecap:round; stroke-linejoin:round; stroke-width:12; stroke-opacity:1; fill:none" stroke-dasharray="48, 24, 6, 24, 6, 24" points="
  255.851,1256.51 266.081,1260.62 276.311,1263.85 286.542,1269.9 296.772,1277.49 307.002,1280.96 317.232,1277.27 327.463,1269.64 337.693,1266.66 347.923,1272.66 
  358.154,1284.02 368.384,1291.49 378.614,1292.36 388.845,1287.25 399.075,1270.81 409.305,1212.78 419.535,1063.56 429.766,800.585 439.996,467.32 450.226,180.419 
  460.457,84.2294 470.687,229.698 480.917,526.109 491.148,818.826 501.378,981.304 511.608,975.175 521.838,855.145 532.069,727.658 542.299,678.855 552.529,745.474 
  562.76,900.861 572.99,1070.7 583.22,1194.13 593.451,1257.52 603.681,1280.48 613.911,1286.45 624.142,1284.53 634.372,1278.53 644.602,1272.15 654.832,1268.07 
  665.063,1267.8 675.293,1269.68 685.523,1267.48 695.754,1261.24 705.984,1255.92 716.214,1254.03 726.445,1255.85 736.675,1261.18 746.905,1269.47 757.135,1275.31 
  767.366,1276.58 777.596,1273.03 787.826,1267.09 798.057,1263.32 808.287,1264.45 818.517,1269.22 828.748,1272.37 838.978,1271.88 849.208,1268.37 859.438,1263.49 
  869.669,1260.07 879.899,1260.68 890.129,1265.38 900.36,1270.06 910.59,1274.32 920.82,1277.46 931.051,1276.5 941.281,1271.13 951.511,1265.37 961.742,1262.46 
  971.972,1264.91 982.202,1273.33 992.432,1278.42 1002.66,1275.28 1012.89,1269.8 1023.12,1269.91 1033.35,1276.3 1043.58,1284.09 1053.81,1286.58 1064.04,1281.57 
  1074.27,1273.54 1084.51,1267.21 1094.74,1264.34 1104.97,1263.5 1115.2,1265.93 1125.43,1271.23 1135.66,1277.75 1145.89,1281.95 1156.12,1281.73 1166.35,1280.74 
  1176.58,1280.6 1186.81,1280.57 1197.04,1278.94 1207.27,1275.11 1217.5,1270.53 1227.73,1268.11 1237.96,1269.44 1248.19,1269.18 1258.42,1266.4 1268.65,1265 
  1278.88,1264.21 1289.11,1264.92 1299.34,1267.83 1309.57,1271.49 1319.8,1274.81 1330.03,1275.72 1340.26,1277.21 1350.49,1280.32 1360.72,1284.08 1370.95,1285.72 
  1381.18,1283.82 1391.41,1280.28 1401.64,1277.24 1411.87,1281 1422.11,1280.62 1432.34,1257.03 1442.57,1200.09 1452.8,1117.61 1463.03,1030.83 1473.26,972.571 
  1483.49,976.495 1493.72,1044.78 1503.95,1143.63 1514.18,1228.83 1524.41,1278.26 1534.64,1295.33 1544.87,1294.24 1555.1,1287.35 1565.33,1282.59 1575.56,1284.64 
  1585.79,1294.36 1596.02,1303.78 1606.25,1305.94 1616.48,1297.38 1626.71,1273.09 1636.94,1218.99 1647.17,1117.86 1657.4,975.337 1667.63,835.522 1677.86,755.998 
  1688.09,770.267 1698.32,872.29 1708.55,1017.42 1718.78,1147.55 1729.01,1208.98 1739.24,1172.47 1749.47,1035.74 1759.71,827.102 1769.94,617.952 1780.17,506.925 
  1790.4,549.039 1800.63,714.791 1810.86,924.648 1821.09,1099.74 1831.32,1203.49 1841.55,1246.16 1851.78,1261.73 1862.01,1272.53 1872.24,1281.27 1882.47,1282.38 
  1892.7,1278.13 1902.93,1270.83 1913.16,1262.8 1923.39,1256.54 1933.62,1253.36 1943.85,1255.26 1954.08,1259.79 1964.31,1263.77 1974.54,1269.47 1984.77,1275.04 
  1995,1278.88 2005.23,1280.25 2015.46,1277.94 2025.69,1269.17 2035.92,1247.48 2046.15,1199.15 2056.38,1110.59 2066.61,992.728 2076.84,884.687 2087.07,841.563 
  2097.31,889.743 2107.54,998.476 2117.77,1113.98 2128,1202.48 2138.23,1253.81 2148.46,1277.24 2158.69,1291.64 2168.92,1303.27 2179.15,1309.19 2189.38,1307.09 
  2199.61,1299.74 2209.84,1292.5 2220.07,1287.26 2230.3,1281.65 2240.53,1274.11 2250.76,1268.38 2260.99,1267.19 2271.22,1270.36 2281.45,1276.29 2291.68,1284.95 
  
  "/>
<polyline clip-path="url(#clip552)" style="stroke:#0000ff; stroke-linecap:round; stroke-linejoin:round; stroke-width:12; stroke-opacity:1; fill:none" stroke-dasharray="48, 30" points="
  255.851,1317.07 266.081,1294.8 276.311,1270.28 286.542,1252.66 296.772,1248.67 307.002,1260.41 317.232,1274.23 327.463,1279.63 337.693,1273.35 347.923,1266.29 
  358.154,1264.97 368.384,1266.71 378.614,1265.52 388.845,1270.52 399.075,1282.44 409.305,1296.33 419.535,1291.84 429.766,1250.53 439.996,1010.88 450.226,424.68 
  460.457,123.659 470.687,568.423 480.917,1095.68 491.148,1241.19 501.378,1249.73 511.608,1259.64 521.838,1155.84 532.069,861.579 542.299,676.045 552.529,943.731 
  562.76,1198.05 572.99,1280.42 583.22,1289.14 593.451,1279.31 603.681,1287.34 613.911,1280.3 624.142,1250.07 634.372,1248.14 644.602,1262.06 654.832,1275.25 
  665.063,1286.89 675.293,1287.97 685.523,1286.84 695.754,1274.03 705.984,1256.76 716.214,1260.45 726.445,1262.19 736.675,1253.3 746.905,1255.8 757.135,1262.09 
  767.366,1264.41 777.596,1277.53 787.826,1272.92 798.057,1269.86 808.287,1292.61 818.517,1304.93 828.748,1290.18 838.978,1283.18 849.208,1287.09 859.438,1293.89 
  869.669,1288.13 879.899,1268.7 890.129,1267.36 900.36,1257.88 910.59,1252.58 920.82,1275.96 931.051,1284.22 941.281,1268.78 951.511,1267.11 961.742,1265.42 
  971.972,1269.79 982.202,1282.58 992.432,1280.37 1002.66,1275.68 1012.89,1282.3 1023.12,1282.44 1033.35,1272.49 1043.58,1276.81 1053.81,1277.49 1064.04,1284 
  1074.27,1296.73 1084.51,1292.82 1094.74,1287.04 1104.97,1280.03 1115.2,1277.7 1125.43,1280.53 1135.66,1282.8 1145.89,1284.97 1156.12,1274.79 1166.35,1264.21 
  1176.58,1270.03 1186.81,1292.51 1197.04,1303.88 1207.27,1287.36 1217.5,1279.16 1227.73,1280.31 1237.96,1274.99 1248.19,1272.32 1258.42,1253.28 1268.65,1234.7 
  1278.88,1241.74 1289.11,1256.47 1299.34,1253.5 1309.57,1244.82 1319.8,1250.85 1330.03,1265.42 1340.26,1273.82 1350.49,1264.96 1360.72,1263.2 1370.95,1271.14 
  1381.18,1259.86 1391.41,1251.52 1401.64,1266.3 1411.87,1279.98 1422.11,1294.61 1432.34,1306.16 1442.57,1292.62 1452.8,1262.11 1463.03,1153.89 1473.26,984.593 
  1483.49,1005.75 1493.72,1179.19 1503.95,1272.39 1514.18,1267.69 1524.41,1251.9 1534.64,1257.36 1544.87,1266.25 1555.1,1273.1 1565.33,1278.39 1575.56,1285.78 
  1585.79,1298.8 1596.02,1304.99 1606.25,1294.95 1616.48,1288.85 1626.71,1289.45 1636.94,1277.3 1647.17,1262.99 1657.4,1217.47 1667.63,1007.95 1677.86,750.065 
  1688.09,838.969 1698.32,1124.48 1708.55,1247.51 1718.78,1261.23 1729.01,1275.21 1739.24,1272.99 1749.47,1259.91 1759.71,1196.46 1769.94,883.879 1780.17,524.019 
  1790.4,653.623 1800.63,1051.63 1810.86,1260.71 1821.09,1276.57 1831.32,1261.55 1841.55,1253.47 1851.78,1260.72 1862.01,1268.11 1872.24,1261.81 1882.47,1261.17 
  1892.7,1273.53 1902.93,1280.02 1913.16,1281.52 1923.39,1277.93 1933.62,1273.81 1943.85,1270.37 1954.08,1274.81 1964.31,1276.44 1974.54,1271.72 1984.77,1277.12 
  1995,1283.54 2005.23,1278.14 2015.46,1272.59 2025.69,1271.26 2035.92,1265.1 2046.15,1250.88 2056.38,1255.72 2066.61,1218.51 2076.84,1031.31 2087.07,860.954 
  2097.31,992.348 2107.54,1190.67 2117.77,1262.62 2128,1272.08 2138.23,1271.66 2148.46,1262.11 2158.69,1264.15 2168.92,1271.67 2179.15,1271.19 2189.38,1261.87 
  2199.61,1261.63 2209.84,1276.1 2220.07,1281.45 2230.3,1280.06 2240.53,1291.65 2250.76,1283.43 2260.99,1266.28 2271.22,1273.09 2281.45,1279.35 2291.68,1283.79 
  
  "/>
<polyline clip-path="url(#clip552)" style="stroke:#0000ff; stroke-linecap:round; stroke-linejoin:round; stroke-width:12; stroke-opacity:1; fill:none" points="
  255.851,1281.07 266.081,1275.39 276.311,1292.27 286.542,1277.35 296.772,1243.18 307.002,1267.26 317.232,1263.22 327.463,1263.77 337.693,1267.95 347.923,1273.51 
  358.154,1274.91 368.384,1273.61 378.614,1277.76 388.845,1280.21 399.075,1316.98 409.305,1274.42 419.535,1285.25 429.766,1267.95 439.996,1268.99 450.226,982.792 
  460.457,122.832 470.687,1146.02 480.917,1284.52 491.148,1274.82 501.378,1296.4 511.608,1287.63 521.838,1267.5 532.069,1096.78 542.299,699.958 552.529,1215.65 
  562.76,1303.28 572.99,1275.48 583.22,1255.25 593.451,1276.36 603.681,1278.49 613.911,1271.84 624.142,1278.53 634.372,1275.64 644.602,1299.7 654.832,1275.99 
  665.063,1263.94 675.293,1275.16 685.523,1270.68 695.754,1273.25 705.984,1249.36 716.214,1267.56 726.445,1248.87 736.675,1279.11 746.905,1251.11 757.135,1273.41 
  767.366,1253.07 777.596,1280.56 787.826,1274.48 798.057,1275.19 808.287,1280 818.517,1280.53 828.748,1288.61 838.978,1261.84 849.208,1266.33 859.438,1271.53 
  869.669,1275.56 879.899,1269.87 890.129,1277.85 900.36,1274.26 910.59,1288.94 920.82,1282.92 931.051,1275.88 941.281,1274.03 951.511,1271.75 961.742,1281.47 
  971.972,1291.2 982.202,1286.67 992.432,1290.38 1002.66,1274.36 1012.89,1259.49 1023.12,1273.55 1033.35,1274.49 1043.58,1252.55 1053.81,1270.06 1064.04,1271.5 
  1074.27,1277.31 1084.51,1270.36 1094.74,1277.82 1104.97,1273.1 1115.2,1273.9 1125.43,1272.14 1135.66,1267.34 1145.89,1249.6 1156.12,1267.9 1166.35,1258.58 
  1176.58,1271.77 1186.81,1271.76 1197.04,1264.23 1207.27,1279.94 1217.5,1286.7 1227.73,1269.89 1237.96,1266.34 1248.19,1275.24 1258.42,1280.86 1268.65,1245.32 
  1278.88,1266.95 1289.11,1261.36 1299.34,1285.9 1309.57,1272.06 1319.8,1266.75 1330.03,1280.56 1340.26,1268.07 1350.49,1281.05 1360.72,1263.17 1370.95,1283.25 
  1381.18,1281.34 1391.41,1278.28 1401.64,1272.97 1411.87,1268.62 1422.11,1276.44 1432.34,1247.26 1442.57,1280.79 1452.8,1284.83 1463.03,1284.21 1473.26,1036.87 
  1483.49,1125.36 1493.72,1274.07 1503.95,1285.12 1514.18,1282.58 1524.41,1280.11 1534.64,1272.69 1544.87,1261.59 1555.1,1304.54 1565.33,1286.86 1575.56,1259.51 
  1585.79,1265.17 1596.02,1273.63 1606.25,1286.29 1616.48,1259.02 1626.71,1269.89 1636.94,1279.14 1647.17,1280.92 1657.4,1282.26 1667.63,1254.24 1677.86,822.746 
  1688.09,1035.73 1698.32,1274.29 1708.55,1269.36 1718.78,1282.1 1729.01,1269.61 1739.24,1238.97 1749.47,1264.5 1759.71,1297.24 1769.94,1243.14 1780.17,591.839 
  1790.4,980.268 1800.63,1293.68 1810.86,1271.44 1821.09,1256.29 1831.32,1261.64 1841.55,1277.8 1851.78,1268.66 1862.01,1304.72 1872.24,1272.5 1882.47,1295.44 
  1892.7,1278.8 1902.93,1234.47 1913.16,1274.76 1923.39,1291.87 1933.62,1265.18 1943.85,1255.19 1954.08,1269.86 1964.31,1271.94 1974.54,1268.05 1984.77,1270.09 
  1995,1278.01 2005.23,1269.64 2015.46,1286.79 2025.69,1290.42 2035.92,1280.01 2046.15,1260.58 2056.38,1278.29 2066.61,1262.68 2076.84,1223.36 2087.07,849.447 
  2097.31,1166.33 2107.54,1276.91 2117.77,1276.79 2128,1295.02 2138.23,1275.2 2148.46,1255.58 2158.69,1267.61 2168.92,1256.41 2179.15,1269.59 2189.38,1255.58 
  2199.61,1269 2209.84,1303.9 2220.07,1278.52 2230.3,1263.19 2240.53,1275.47 2250.76,1262 2260.99,1271.6 2271.22,1297.03 2281.45,1269.24 2291.68,1235.97 
  
  "/>
</svg>
