<?xml version="1.0" encoding="utf-8"?>
<svg xmlns="http://www.w3.org/2000/svg" xmlns:xlink="http://www.w3.org/1999/xlink" width="600" height="400" viewBox="0 0 2400 1600">
<defs>
  <clipPath id="clip320">
    <rect x="0" y="0" width="2400" height="1600"/>
  </clipPath>
</defs>
<path clip-path="url(#clip320)" d="
M0 1600 L2400 1600 L2400 0 L0 0  Z
  " fill="#ffffff" fill-rule="evenodd" fill-opacity="1"/>
<defs>
  <clipPath id="clip321">
    <rect x="480" y="0" width="1681" height="1600"/>
  </clipPath>
</defs>
<defs>
  <clipPath id="clip322">
    <rect x="368" y="47" width="1985" height="1308"/>
  </clipPath>
</defs>
<path clip-path="url(#clip320)" d="
M368.88 1354.06 L2352.76 1354.06 L2352.76 47.2441 L368.88 47.2441  Z
  " fill="#ffffff" fill-rule="evenodd" fill-opacity="1"/>
<polyline clip-path="url(#clip322)" style="stroke:#000000; stroke-linecap:round; stroke-linejoin:round; stroke-width:2; stroke-opacity:0.1; fill:none" points="
  425.028,1354.06 425.028,47.2441 
  "/>
<polyline clip-path="url(#clip322)" style="stroke:#000000; stroke-linecap:round; stroke-linejoin:round; stroke-width:2; stroke-opacity:0.1; fill:none" points="
  612.186,1354.06 612.186,47.2441 
  "/>
<polyline clip-path="url(#clip322)" style="stroke:#000000; stroke-linecap:round; stroke-linejoin:round; stroke-width:2; stroke-opacity:0.1; fill:none" points="
  799.344,1354.06 799.344,47.2441 
  "/>
<polyline clip-path="url(#clip322)" style="stroke:#000000; stroke-linecap:round; stroke-linejoin:round; stroke-width:2; stroke-opacity:0.1; fill:none" points="
  986.502,1354.06 986.502,47.2441 
  "/>
<polyline clip-path="url(#clip322)" style="stroke:#000000; stroke-linecap:round; stroke-linejoin:round; stroke-width:2; stroke-opacity:0.1; fill:none" points="
  1173.66,1354.06 1173.66,47.2441 
  "/>
<polyline clip-path="url(#clip322)" style="stroke:#000000; stroke-linecap:round; stroke-linejoin:round; stroke-width:2; stroke-opacity:0.1; fill:none" points="
  1360.82,1354.06 1360.82,47.2441 
  "/>
<polyline clip-path="url(#clip322)" style="stroke:#000000; stroke-linecap:round; stroke-linejoin:round; stroke-width:2; stroke-opacity:0.1; fill:none" points="
  1547.98,1354.06 1547.98,47.2441 
  "/>
<polyline clip-path="url(#clip322)" style="stroke:#000000; stroke-linecap:round; stroke-linejoin:round; stroke-width:2; stroke-opacity:0.1; fill:none" points="
  1735.13,1354.06 1735.13,47.2441 
  "/>
<polyline clip-path="url(#clip322)" style="stroke:#000000; stroke-linecap:round; stroke-linejoin:round; stroke-width:2; stroke-opacity:0.1; fill:none" points="
  1922.29,1354.06 1922.29,47.2441 
  "/>
<polyline clip-path="url(#clip322)" style="stroke:#000000; stroke-linecap:round; stroke-linejoin:round; stroke-width:2; stroke-opacity:0.1; fill:none" points="
  2109.45,1354.06 2109.45,47.2441 
  "/>
<polyline clip-path="url(#clip322)" style="stroke:#000000; stroke-linecap:round; stroke-linejoin:round; stroke-width:2; stroke-opacity:0.1; fill:none" points="
  2296.61,1354.06 2296.61,47.2441 
  "/>
<polyline clip-path="url(#clip320)" style="stroke:#000000; stroke-linecap:round; stroke-linejoin:round; stroke-width:4; stroke-opacity:1; fill:none" points="
  368.88,1354.06 2352.76,1354.06 
  "/>
<polyline clip-path="url(#clip320)" style="stroke:#000000; stroke-linecap:round; stroke-linejoin:round; stroke-width:4; stroke-opacity:1; fill:none" points="
  425.028,1354.06 425.028,1335.16 
  "/>
<polyline clip-path="url(#clip320)" style="stroke:#000000; stroke-linecap:round; stroke-linejoin:round; stroke-width:4; stroke-opacity:1; fill:none" points="
  612.186,1354.06 612.186,1335.16 
  "/>
<polyline clip-path="url(#clip320)" style="stroke:#000000; stroke-linecap:round; stroke-linejoin:round; stroke-width:4; stroke-opacity:1; fill:none" points="
  799.344,1354.06 799.344,1335.16 
  "/>
<polyline clip-path="url(#clip320)" style="stroke:#000000; stroke-linecap:round; stroke-linejoin:round; stroke-width:4; stroke-opacity:1; fill:none" points="
  986.502,1354.06 986.502,1335.16 
  "/>
<polyline clip-path="url(#clip320)" style="stroke:#000000; stroke-linecap:round; stroke-linejoin:round; stroke-width:4; stroke-opacity:1; fill:none" points="
  1173.66,1354.06 1173.66,1335.16 
  "/>
<polyline clip-path="url(#clip320)" style="stroke:#000000; stroke-linecap:round; stroke-linejoin:round; stroke-width:4; stroke-opacity:1; fill:none" points="
  1360.82,1354.06 1360.82,1335.16 
  "/>
<polyline clip-path="url(#clip320)" style="stroke:#000000; stroke-linecap:round; stroke-linejoin:round; stroke-width:4; stroke-opacity:1; fill:none" points="
  1547.98,1354.06 1547.98,1335.16 
  "/>
<polyline clip-path="url(#clip320)" style="stroke:#000000; stroke-linecap:round; stroke-linejoin:round; stroke-width:4; stroke-opacity:1; fill:none" points="
  1735.13,1354.06 1735.13,1335.16 
  "/>
<polyline clip-path="url(#clip320)" style="stroke:#000000; stroke-linecap:round; stroke-linejoin:round; stroke-width:4; stroke-opacity:1; fill:none" points="
  1922.29,1354.06 1922.29,1335.16 
  "/>
<polyline clip-path="url(#clip320)" style="stroke:#000000; stroke-linecap:round; stroke-linejoin:round; stroke-width:4; stroke-opacity:1; fill:none" points="
  2109.45,1354.06 2109.45,1335.16 
  "/>
<polyline clip-path="url(#clip320)" style="stroke:#000000; stroke-linecap:round; stroke-linejoin:round; stroke-width:4; stroke-opacity:1; fill:none" points="
  2296.61,1354.06 2296.61,1335.16 
  "/>
<path clip-path="url(#clip320)" d="M425.028 1395.23 Q418.257 1395.23 414.828 1401.92 Q411.443 1408.56 411.443 1421.92 Q411.443 1435.25 414.828 1441.93 Q418.257 1448.57 425.028 1448.57 Q431.842 1448.57 435.227 1441.93 Q438.656 1435.25 438.656 1421.92 Q438.656 1408.56 435.227 1401.92 Q431.842 1395.23 425.028 1395.23 M425.028 1388.29 Q435.922 1388.29 441.651 1396.93 Q447.424 1405.52 447.424 1421.92 Q447.424 1438.29 441.651 1446.92 Q435.922 1455.52 425.028 1455.52 Q414.134 1455.52 408.361 1446.92 Q402.632 1438.29 402.632 1421.92 Q402.632 1405.52 408.361 1396.93 Q414.134 1388.29 425.028 1388.29 Z" fill="#000000" fill-rule="evenodd" fill-opacity="1" /><path clip-path="url(#clip320)" d="M758.437 1395.23 Q751.666 1395.23 748.238 1401.92 Q744.852 1408.56 744.852 1421.92 Q744.852 1435.25 748.238 1441.93 Q751.666 1448.57 758.437 1448.57 Q765.251 1448.57 768.637 1441.93 Q772.066 1435.25 772.066 1421.92 Q772.066 1408.56 768.637 1401.92 Q765.251 1395.23 758.437 1395.23 M758.437 1388.29 Q769.331 1388.29 775.06 1396.93 Q780.833 1405.52 780.833 1421.92 Q780.833 1438.29 775.06 1446.92 Q769.331 1455.52 758.437 1455.52 Q747.543 1455.52 741.771 1446.92 Q736.041 1438.29 736.041 1421.92 Q736.041 1405.52 741.771 1396.93 Q747.543 1388.29 758.437 1388.29 Z" fill="#000000" fill-rule="evenodd" fill-opacity="1" /><path clip-path="url(#clip320)" d="M796.241 1443.24 L805.399 1443.24 L805.399 1454.26 L796.241 1454.26 L796.241 1443.24 Z" fill="#000000" fill-rule="evenodd" fill-opacity="1" /><path clip-path="url(#clip320)" d="M832.048 1446.88 L862.647 1446.88 L862.647 1454.26 L821.501 1454.26 L821.501 1446.88 Q826.492 1441.72 835.086 1433.04 Q843.723 1424.31 845.937 1421.79 Q850.147 1417.06 851.796 1413.81 Q853.489 1410.51 853.489 1407.34 Q853.489 1402.18 849.843 1398.92 Q846.24 1395.67 840.425 1395.67 Q836.301 1395.67 831.701 1397.1 Q827.143 1398.53 821.935 1401.44 L821.935 1392.58 Q827.23 1390.46 831.831 1389.37 Q836.431 1388.29 840.251 1388.29 Q850.32 1388.29 856.31 1393.32 Q862.299 1398.36 862.299 1406.78 Q862.299 1410.77 860.78 1414.37 Q859.305 1417.93 855.355 1422.79 Q854.27 1424.05 848.454 1430.08 Q842.638 1436.07 832.048 1446.88 Z" fill="#000000" fill-rule="evenodd" fill-opacity="1" /><path clip-path="url(#clip320)" d="M1130.8 1395.23 Q1124.03 1395.23 1120.6 1401.92 Q1117.22 1408.56 1117.22 1421.92 Q1117.22 1435.25 1120.6 1441.93 Q1124.03 1448.57 1130.8 1448.57 Q1137.61 1448.57 1141 1441.93 Q1144.43 1435.25 1144.43 1421.92 Q1144.43 1408.56 1141 1401.92 Q1137.61 1395.23 1130.8 1395.23 M1130.8 1388.29 Q1141.69 1388.29 1147.42 1396.93 Q1153.2 1405.52 1153.2 1421.92 Q1153.2 1438.29 1147.42 1446.92 Q1141.69 1455.52 1130.8 1455.52 Q1119.91 1455.52 1114.13 1446.92 Q1108.4 1438.29 1108.4 1421.92 Q1108.4 1405.52 1114.13 1396.93 Q1119.91 1388.29 1130.8 1388.29 Z" fill="#000000" fill-rule="evenodd" fill-opacity="1" /><path clip-path="url(#clip320)" d="M1168.6 1443.24 L1177.76 1443.24 L1177.76 1454.26 L1168.6 1454.26 L1168.6 1443.24 Z" fill="#000000" fill-rule="evenodd" fill-opacity="1" /><path clip-path="url(#clip320)" d="M1220.95 1397.1 L1198.81 1431.69 L1220.95 1431.69 L1220.95 1397.1 M1218.65 1389.46 L1229.67 1389.46 L1229.67 1431.69 L1238.92 1431.69 L1238.92 1438.98 L1229.67 1438.98 L1229.67 1454.26 L1220.95 1454.26 L1220.95 1438.98 L1191.69 1438.98 L1191.69 1430.52 L1218.65 1389.46 Z" fill="#000000" fill-rule="evenodd" fill-opacity="1" /><path clip-path="url(#clip320)" d="M1505.42 1395.23 Q1498.65 1395.23 1495.22 1401.92 Q1491.84 1408.56 1491.84 1421.92 Q1491.84 1435.25 1495.22 1441.93 Q1498.65 1448.57 1505.42 1448.57 Q1512.23 1448.57 1515.62 1441.93 Q1519.05 1435.25 1519.05 1421.92 Q1519.05 1408.56 1515.62 1401.92 Q1512.23 1395.23 1505.42 1395.23 M1505.42 1388.29 Q1516.31 1388.29 1522.04 1396.93 Q1527.82 1405.52 1527.82 1421.92 Q1527.82 1438.29 1522.04 1446.92 Q1516.31 1455.52 1505.42 1455.52 Q1494.53 1455.52 1488.75 1446.92 Q1483.02 1438.29 1483.02 1421.92 Q1483.02 1405.52 1488.75 1396.93 Q1494.53 1388.29 1505.42 1388.29 Z" fill="#000000" fill-rule="evenodd" fill-opacity="1" /><path clip-path="url(#clip320)" d="M1543.22 1443.24 L1552.38 1443.24 L1552.38 1454.26 L1543.22 1454.26 L1543.22 1443.24 Z" fill="#000000" fill-rule="evenodd" fill-opacity="1" /><path clip-path="url(#clip320)" d="M1591.31 1418.37 Q1585.41 1418.37 1581.94 1422.4 Q1578.51 1426.44 1578.51 1433.47 Q1578.51 1440.46 1581.94 1444.54 Q1585.41 1448.57 1591.31 1448.57 Q1597.22 1448.57 1600.65 1444.54 Q1604.12 1440.46 1604.12 1433.47 Q1604.12 1426.44 1600.65 1422.4 Q1597.22 1418.37 1591.31 1418.37 M1608.72 1390.89 L1608.72 1398.88 Q1605.42 1397.32 1602.03 1396.49 Q1598.69 1395.67 1595.39 1395.67 Q1586.71 1395.67 1582.11 1401.53 Q1577.56 1407.39 1576.9 1419.23 Q1579.46 1415.46 1583.33 1413.46 Q1587.19 1411.42 1591.83 1411.42 Q1601.6 1411.42 1607.24 1417.37 Q1612.93 1423.27 1612.93 1433.47 Q1612.93 1443.45 1607.03 1449.49 Q1601.12 1455.52 1591.31 1455.52 Q1580.07 1455.52 1574.13 1446.92 Q1568.18 1438.29 1568.18 1421.92 Q1568.18 1406.56 1575.47 1397.45 Q1582.76 1388.29 1595.05 1388.29 Q1598.34 1388.29 1601.69 1388.94 Q1605.07 1389.59 1608.72 1390.89 Z" fill="#000000" fill-rule="evenodd" fill-opacity="1" /><path clip-path="url(#clip320)" d="M1879.97 1395.23 Q1873.2 1395.23 1869.78 1401.92 Q1866.39 1408.56 1866.39 1421.92 Q1866.39 1435.25 1869.78 1441.93 Q1873.2 1448.57 1879.97 1448.57 Q1886.79 1448.57 1890.17 1441.93 Q1893.6 1435.25 1893.6 1421.92 Q1893.6 1408.56 1890.17 1401.92 Q1886.79 1395.23 1879.97 1395.23 M1879.97 1388.29 Q1890.87 1388.29 1896.6 1396.93 Q1902.37 1405.52 1902.37 1421.92 Q1902.37 1438.29 1896.6 1446.92 Q1890.87 1455.52 1879.97 1455.52 Q1869.08 1455.52 1863.31 1446.92 Q1857.58 1438.29 1857.58 1421.92 Q1857.58 1405.52 1863.31 1396.93 Q1869.08 1388.29 1879.97 1388.29 Z" fill="#000000" fill-rule="evenodd" fill-opacity="1" /><path clip-path="url(#clip320)" d="M1917.78 1443.24 L1926.94 1443.24 L1926.94 1454.26 L1917.78 1454.26 L1917.78 1443.24 Z" fill="#000000" fill-rule="evenodd" fill-opacity="1" /><path clip-path="url(#clip320)" d="M1964.78 1423.49 Q1958.53 1423.49 1954.93 1426.83 Q1951.37 1430.17 1951.37 1436.03 Q1951.37 1441.89 1954.93 1445.23 Q1958.53 1448.57 1964.78 1448.57 Q1971.03 1448.57 1974.64 1445.23 Q1978.24 1441.85 1978.24 1436.03 Q1978.24 1430.17 1974.64 1426.83 Q1971.08 1423.49 1964.78 1423.49 M1956.02 1419.75 Q1950.37 1418.37 1947.21 1414.5 Q1944.08 1410.64 1944.08 1405.08 Q1944.08 1397.32 1949.59 1392.8 Q1955.15 1388.29 1964.78 1388.29 Q1974.46 1388.29 1979.97 1392.8 Q1985.49 1397.32 1985.49 1405.08 Q1985.49 1410.64 1982.32 1414.5 Q1979.19 1418.37 1973.59 1419.75 Q1979.93 1421.23 1983.45 1425.53 Q1987.01 1429.82 1987.01 1436.03 Q1987.01 1445.45 1981.23 1450.48 Q1975.5 1455.52 1964.78 1455.52 Q1954.06 1455.52 1948.29 1450.48 Q1942.56 1445.45 1942.56 1436.03 Q1942.56 1429.82 1946.12 1425.53 Q1949.68 1421.23 1956.02 1419.75 M1952.8 1405.91 Q1952.8 1410.94 1955.93 1413.77 Q1959.1 1416.59 1964.78 1416.59 Q1970.43 1416.59 1973.59 1413.77 Q1976.81 1410.94 1976.81 1405.91 Q1976.81 1400.87 1973.59 1398.05 Q1970.43 1395.23 1964.78 1395.23 Q1959.1 1395.23 1955.93 1398.05 Q1952.8 1400.87 1952.8 1405.91 Z" fill="#000000" fill-rule="evenodd" fill-opacity="1" /><path clip-path="url(#clip320)" d="M2278.57 1446.88 L2292.9 1446.88 L2292.9 1397.45 L2277.32 1400.57 L2277.32 1392.58 L2292.81 1389.46 L2301.58 1389.46 L2301.58 1446.88 L2315.9 1446.88 L2315.9 1454.26 L2278.57 1454.26 L2278.57 1446.88 Z" fill="#000000" fill-rule="evenodd" fill-opacity="1" /><path clip-path="url(#clip320)" d="M1386.59 1519.59 Q1386.59 1522.87 1384.54 1524.74 Q1382.49 1526.56 1380.15 1526.56 Q1377.92 1526.56 1376.75 1525.27 Q1375.58 1523.98 1375.58 1522.34 Q1375.58 1520.12 1377.22 1518.18 Q1378.86 1516.25 1381.32 1515.84 Q1378.92 1514.32 1375.34 1514.32 Q1373 1514.32 1370.95 1515.55 Q1368.96 1516.78 1367.73 1518.36 Q1366.56 1519.94 1365.51 1522.22 Q1364.51 1524.45 1364.1 1525.8 Q1363.75 1527.08 1363.46 1528.49 L1359.36 1544.89 Q1357.37 1552.67 1357.37 1555.43 Q1357.37 1558.82 1359.01 1561.11 Q1360.65 1563.33 1363.93 1563.33 Q1365.21 1563.33 1366.68 1562.98 Q1368.14 1562.57 1370.02 1561.52 Q1371.95 1560.4 1373.65 1558.76 Q1375.4 1557.07 1377.1 1554.2 Q1378.8 1551.33 1379.91 1547.64 Q1380.26 1546.35 1381.43 1546.35 Q1382.9 1546.35 1382.9 1547.52 Q1382.9 1548.52 1382.08 1550.62 Q1381.32 1552.67 1379.62 1555.37 Q1377.98 1558 1375.81 1560.4 Q1373.65 1562.75 1370.43 1564.39 Q1367.21 1566.02 1363.69 1566.02 Q1358.66 1566.02 1355.32 1563.33 Q1351.98 1560.64 1350.75 1556.89 Q1350.46 1557.42 1350.05 1558.12 Q1349.64 1558.82 1348.41 1560.4 Q1347.24 1561.93 1345.89 1563.1 Q1344.54 1564.21 1342.44 1565.09 Q1340.39 1566.02 1338.16 1566.02 Q1335.35 1566.02 1332.83 1565.2 Q1330.37 1564.39 1328.62 1562.51 Q1326.86 1560.64 1326.86 1558.06 Q1326.86 1555.19 1328.79 1553.2 Q1330.78 1551.15 1333.48 1551.15 Q1335.17 1551.15 1336.52 1552.15 Q1337.93 1553.14 1337.93 1555.31 Q1337.93 1557.71 1336.29 1559.53 Q1334.65 1561.34 1332.31 1561.81 Q1334.71 1563.33 1338.28 1563.33 Q1342.14 1563.33 1345.19 1559.93 Q1348.23 1556.54 1349.7 1550.86 Q1353.33 1537.22 1354.73 1531.13 Q1356.14 1524.98 1356.14 1522.34 Q1356.14 1519.88 1355.49 1518.18 Q1354.85 1516.49 1353.74 1515.73 Q1352.68 1514.91 1351.69 1514.61 Q1350.75 1514.32 1349.7 1514.32 Q1347.94 1514.32 1345.95 1515.02 Q1344.02 1515.73 1341.67 1517.36 Q1339.39 1518.95 1337.22 1522.22 Q1335.06 1525.5 1333.59 1530.01 Q1333.3 1531.36 1332.01 1531.36 Q1330.61 1531.3 1330.61 1530.13 Q1330.61 1529.13 1331.37 1527.08 Q1332.19 1524.98 1333.83 1522.34 Q1335.53 1519.71 1337.69 1517.36 Q1339.92 1514.96 1343.14 1513.32 Q1346.42 1511.68 1349.93 1511.68 Q1351.51 1511.68 1353.03 1512.04 Q1354.62 1512.33 1356.49 1513.21 Q1358.42 1514.09 1360.12 1516.02 Q1361.82 1517.95 1362.87 1520.76 Q1363.57 1519.41 1364.51 1518.13 Q1365.51 1516.84 1367.03 1515.26 Q1368.61 1513.62 1370.78 1512.68 Q1373 1511.68 1375.46 1511.68 Q1377.86 1511.68 1380.2 1512.33 Q1382.55 1512.91 1384.54 1514.85 Q1386.59 1516.72 1386.59 1519.59 Z" fill="#000000" fill-rule="evenodd" fill-opacity="1" /><polyline clip-path="url(#clip322)" style="stroke:#000000; stroke-linecap:round; stroke-linejoin:round; stroke-width:2; stroke-opacity:0.1; fill:none" points="
  368.88,1309.33 2352.76,1309.33 
  "/>
<polyline clip-path="url(#clip322)" style="stroke:#000000; stroke-linecap:round; stroke-linejoin:round; stroke-width:2; stroke-opacity:0.1; fill:none" points="
  368.88,1124.96 2352.76,1124.96 
  "/>
<polyline clip-path="url(#clip322)" style="stroke:#000000; stroke-linecap:round; stroke-linejoin:round; stroke-width:2; stroke-opacity:0.1; fill:none" points="
  368.88,940.596 2352.76,940.596 
  "/>
<polyline clip-path="url(#clip322)" style="stroke:#000000; stroke-linecap:round; stroke-linejoin:round; stroke-width:2; stroke-opacity:0.1; fill:none" points="
  368.88,756.231 2352.76,756.231 
  "/>
<polyline clip-path="url(#clip322)" style="stroke:#000000; stroke-linecap:round; stroke-linejoin:round; stroke-width:2; stroke-opacity:0.1; fill:none" points="
  368.88,571.865 2352.76,571.865 
  "/>
<polyline clip-path="url(#clip322)" style="stroke:#000000; stroke-linecap:round; stroke-linejoin:round; stroke-width:2; stroke-opacity:0.1; fill:none" points="
  368.88,387.5 2352.76,387.5 
  "/>
<polyline clip-path="url(#clip322)" style="stroke:#000000; stroke-linecap:round; stroke-linejoin:round; stroke-width:2; stroke-opacity:0.1; fill:none" points="
  368.88,203.134 2352.76,203.134 
  "/>
<polyline clip-path="url(#clip320)" style="stroke:#000000; stroke-linecap:round; stroke-linejoin:round; stroke-width:4; stroke-opacity:1; fill:none" points="
  368.88,1354.06 368.88,47.2441 
  "/>
<polyline clip-path="url(#clip320)" style="stroke:#000000; stroke-linecap:round; stroke-linejoin:round; stroke-width:4; stroke-opacity:1; fill:none" points="
  368.88,1309.33 387.778,1309.33 
  "/>
<polyline clip-path="url(#clip320)" style="stroke:#000000; stroke-linecap:round; stroke-linejoin:round; stroke-width:4; stroke-opacity:1; fill:none" points="
  368.88,1124.96 387.778,1124.96 
  "/>
<polyline clip-path="url(#clip320)" style="stroke:#000000; stroke-linecap:round; stroke-linejoin:round; stroke-width:4; stroke-opacity:1; fill:none" points="
  368.88,940.596 387.778,940.596 
  "/>
<polyline clip-path="url(#clip320)" style="stroke:#000000; stroke-linecap:round; stroke-linejoin:round; stroke-width:4; stroke-opacity:1; fill:none" points="
  368.88,756.231 387.778,756.231 
  "/>
<polyline clip-path="url(#clip320)" style="stroke:#000000; stroke-linecap:round; stroke-linejoin:round; stroke-width:4; stroke-opacity:1; fill:none" points="
  368.88,571.865 387.778,571.865 
  "/>
<polyline clip-path="url(#clip320)" style="stroke:#000000; stroke-linecap:round; stroke-linejoin:round; stroke-width:4; stroke-opacity:1; fill:none" points="
  368.88,387.5 387.778,387.5 
  "/>
<polyline clip-path="url(#clip320)" style="stroke:#000000; stroke-linecap:round; stroke-linejoin:round; stroke-width:4; stroke-opacity:1; fill:none" points="
  368.88,203.134 387.778,203.134 
  "/>
<path clip-path="url(#clip320)" d="M310.485 1282.7 Q303.714 1282.7 300.285 1289.38 Q296.9 1296.02 296.9 1309.39 Q296.9 1322.72 300.285 1329.4 Q303.714 1336.04 310.485 1336.04 Q317.299 1336.04 320.684 1329.4 Q324.113 1322.72 324.113 1309.39 Q324.113 1296.02 320.684 1289.38 Q317.299 1282.7 310.485 1282.7 M310.485 1275.76 Q321.379 1275.76 327.108 1284.39 Q332.88 1292.99 332.88 1309.39 Q332.88 1325.76 327.108 1334.39 Q321.379 1342.99 310.485 1342.99 Q299.591 1342.99 293.818 1334.39 Q288.089 1325.76 288.089 1309.39 Q288.089 1292.99 293.818 1284.39 Q299.591 1275.76 310.485 1275.76 Z" fill="#000000" fill-rule="evenodd" fill-opacity="1" /><path clip-path="url(#clip320)" d="M302.282 1149.98 L332.88 1149.98 L332.88 1157.36 L291.735 1157.36 L291.735 1149.98 Q296.726 1144.82 305.32 1136.14 Q313.957 1127.41 316.17 1124.9 Q320.381 1120.17 322.03 1116.91 Q323.723 1113.61 323.723 1110.44 Q323.723 1105.28 320.077 1102.02 Q316.474 1098.77 310.658 1098.77 Q306.535 1098.77 301.934 1100.2 Q297.377 1101.63 292.169 1104.54 L292.169 1095.69 Q297.464 1093.56 302.065 1092.48 Q306.665 1091.39 310.485 1091.39 Q320.554 1091.39 326.544 1096.42 Q332.533 1101.46 332.533 1109.88 Q332.533 1113.87 331.014 1117.48 Q329.538 1121.03 325.589 1125.9 Q324.504 1127.15 318.688 1133.19 Q312.872 1139.18 302.282 1149.98 Z" fill="#000000" fill-rule="evenodd" fill-opacity="1" /><path clip-path="url(#clip320)" d="M314.912 915.835 L292.777 950.427 L314.912 950.427 L314.912 915.835 M312.611 908.196 L323.636 908.196 L323.636 950.427 L332.88 950.427 L332.88 957.719 L323.636 957.719 L323.636 972.996 L314.912 972.996 L314.912 957.719 L285.659 957.719 L285.659 949.255 L312.611 908.196 Z" fill="#000000" fill-rule="evenodd" fill-opacity="1" /><path clip-path="url(#clip320)" d="M311.266 752.737 Q305.363 752.737 301.891 756.773 Q298.462 760.81 298.462 767.841 Q298.462 774.829 301.891 778.909 Q305.363 782.945 311.266 782.945 Q317.169 782.945 320.598 778.909 Q324.07 774.829 324.07 767.841 Q324.07 760.81 320.598 756.773 Q317.169 752.737 311.266 752.737 M328.67 725.263 L328.67 733.249 Q325.372 731.687 321.986 730.862 Q318.644 730.037 315.346 730.037 Q306.665 730.037 302.065 735.897 Q297.507 741.756 296.856 753.605 Q299.417 749.829 303.28 747.832 Q307.143 745.793 311.787 745.793 Q321.552 745.793 327.195 751.739 Q332.88 757.641 332.88 767.841 Q332.88 777.824 326.978 783.857 Q321.075 789.89 311.266 789.89 Q300.025 789.89 294.079 781.296 Q288.132 772.659 288.132 756.296 Q288.132 740.931 295.424 731.817 Q302.716 722.659 314.999 722.659 Q318.297 722.659 321.639 723.31 Q325.025 723.961 328.67 725.263 Z" fill="#000000" fill-rule="evenodd" fill-opacity="1" /><path clip-path="url(#clip320)" d="M310.658 573.493 Q304.408 573.493 300.806 576.835 Q297.247 580.177 297.247 586.036 Q297.247 591.896 300.806 595.238 Q304.408 598.58 310.658 598.58 Q316.908 598.58 320.511 595.238 Q324.113 591.852 324.113 586.036 Q324.113 580.177 320.511 576.835 Q316.952 573.493 310.658 573.493 M301.891 569.76 Q296.249 568.371 293.08 564.509 Q289.955 560.646 289.955 555.09 Q289.955 547.321 295.467 542.807 Q301.023 538.293 310.658 538.293 Q320.337 538.293 325.849 542.807 Q331.361 547.321 331.361 555.09 Q331.361 560.646 328.193 564.509 Q325.068 568.371 319.469 569.76 Q325.806 571.236 329.321 575.533 Q332.88 579.83 332.88 586.036 Q332.88 595.455 327.108 600.489 Q321.379 605.524 310.658 605.524 Q299.938 605.524 294.165 600.489 Q288.436 595.455 288.436 586.036 Q288.436 579.83 291.995 575.533 Q295.554 571.236 301.891 569.76 M298.679 555.915 Q298.679 560.95 301.804 563.771 Q304.973 566.592 310.658 566.592 Q316.301 566.592 319.469 563.771 Q322.681 560.95 322.681 555.915 Q322.681 550.88 319.469 548.059 Q316.301 545.238 310.658 545.238 Q304.973 545.238 301.804 548.059 Q298.679 550.88 298.679 555.915 Z" fill="#000000" fill-rule="evenodd" fill-opacity="1" /><path clip-path="url(#clip320)" d="M236.7 412.521 L251.023 412.521 L251.023 363.086 L235.442 366.211 L235.442 358.225 L250.936 355.1 L259.704 355.1 L259.704 412.521 L274.027 412.521 L274.027 419.9 L236.7 419.9 L236.7 412.521 Z" fill="#000000" fill-rule="evenodd" fill-opacity="1" /><path clip-path="url(#clip320)" d="M310.485 360.872 Q303.714 360.872 300.285 367.556 Q296.9 374.197 296.9 387.565 Q296.9 400.889 300.285 407.573 Q303.714 414.214 310.485 414.214 Q317.299 414.214 320.684 407.573 Q324.113 400.889 324.113 387.565 Q324.113 374.197 320.684 367.556 Q317.299 360.872 310.485 360.872 M310.485 353.928 Q321.379 353.928 327.108 362.565 Q332.88 371.159 332.88 387.565 Q332.88 403.928 327.108 412.565 Q321.379 421.158 310.485 421.158 Q299.591 421.158 293.818 412.565 Q288.089 403.928 288.089 387.565 Q288.089 371.159 293.818 362.565 Q299.591 353.928 310.485 353.928 Z" fill="#000000" fill-rule="evenodd" fill-opacity="1" /><path clip-path="url(#clip320)" d="M239.695 228.156 L254.018 228.156 L254.018 178.72 L238.437 181.845 L238.437 173.859 L253.931 170.734 L262.699 170.734 L262.699 228.156 L277.021 228.156 L277.021 235.534 L239.695 235.534 L239.695 228.156 Z" fill="#000000" fill-rule="evenodd" fill-opacity="1" /><path clip-path="url(#clip320)" d="M302.282 228.156 L332.88 228.156 L332.88 235.534 L291.735 235.534 L291.735 228.156 Q296.726 222.991 305.32 214.31 Q313.957 205.586 316.17 203.069 Q320.381 198.338 322.03 195.083 Q323.723 191.784 323.723 188.616 Q323.723 183.451 320.077 180.196 Q316.474 176.941 310.658 176.941 Q306.535 176.941 301.934 178.373 Q297.377 179.805 292.169 182.713 L292.169 173.859 Q297.464 171.732 302.065 170.647 Q306.665 169.562 310.485 169.562 Q320.554 169.562 326.544 174.597 Q332.533 179.632 332.533 188.052 Q332.533 192.045 331.014 195.647 Q329.538 199.206 325.589 204.067 Q324.504 205.326 318.688 211.359 Q312.872 217.348 302.282 228.156 Z" fill="#000000" fill-rule="evenodd" fill-opacity="1" /><path clip-path="url(#clip320)" d="M213.175 1086.79 Q214.17 1086.79 214.873 1087.5 Q215.576 1088.2 215.576 1089.19 Q215.576 1090.89 213.995 1091.48 L156.434 1113.79 Q156.2 1113.91 155.614 1113.91 Q155.029 1113.91 154.795 1113.79 L97.2339 1091.48 Q95.6529 1090.89 95.6529 1089.19 Q95.6529 1088.2 96.3555 1087.5 Q97.0582 1086.79 98.0537 1086.79 Q98.6392 1086.79 98.8735 1086.91 L155.614 1108.99 L212.355 1086.91 Q212.589 1086.79 213.175 1086.79 Z" fill="#000000" fill-rule="evenodd" fill-opacity="1" /><path clip-path="url(#clip320)" d="M184.424 1067.74 Q183.955 1067.74 180.911 1066.16 Q177.807 1064.58 166.74 1059.01 Q155.614 1053.45 143.962 1047.71 L102.387 1027.04 Q99.7518 1025.58 99.7518 1023.7 Q99.7518 1022.01 100.806 1021.24 Q101.86 1020.48 108.945 1016.97 Q112.4 1015.15 114.625 1014.1 L182.492 980.197 Q183.955 979.611 184.424 979.553 Q185.595 979.553 185.595 981.602 L185.595 1064.58 Q185.595 1067.74 184.424 1067.74 M176.46 1059.83 L176.46 995.304 L111.697 1027.57 L176.46 1059.83 Z" fill="#000000" fill-rule="evenodd" fill-opacity="1" /><path clip-path="url(#clip320)" d="M67.9367 919.801 Q72.8144 919.801 77.6512 922.055 Q82.4879 924.31 86.1769 927.999 Q89.825 931.647 92.1204 936.648 Q94.4158 941.607 94.4158 946.69 Q94.4158 947.592 94.2108 949.436 Q109.336 952.306 109.582 952.388 Q110.443 952.756 110.975 953.494 Q111.508 954.191 111.631 954.683 Q111.754 955.175 111.754 955.503 Q111.754 956.323 111.18 957.142 Q110.648 957.921 109.418 957.921 Q109.131 957.921 107.737 957.511 L93.637 953.043 Q92.0794 959.807 87.7755 963.701 Q83.4307 967.595 77.5282 967.595 Q73.7572 967.595 68.8385 965.873 Q63.9198 964.151 60.5996 962.061 Q57.2795 959.971 57.2795 958.782 Q57.2795 957.757 58.1403 957.757 Q58.4682 957.757 59.206 958.413 Q63.018 961.733 68.5106 963.578 Q73.9621 965.381 76.5854 965.381 Q81.1762 965.381 84.4964 961.856 Q87.7755 958.29 89.0052 951.609 Q76.1346 947.633 70.724 945.255 Q59.9848 940.46 57.3615 934.229 Q56.3777 931.934 56.3777 929.393 Q56.3777 924.802 59.6159 922.301 Q62.813 919.801 67.9367 919.801 M69.7812 922.178 Q67.6088 922.178 65.7643 922.957 Q63.9198 923.695 62.6081 925.581 Q61.2555 927.466 61.2555 930.212 Q61.2555 935.705 66.5431 940.296 Q71.8307 944.887 80.0285 946.854 L89.1282 948.535 Q89.4561 948.535 89.4561 947.428 Q89.5381 946.772 89.5381 945.911 Q89.5381 941.238 87.7755 936.812 Q86.013 932.344 83.2257 929.188 Q80.4384 926.031 76.8724 924.105 Q73.3063 922.178 69.7812 922.178 Z" fill="#000000" fill-rule="evenodd" fill-opacity="1" /><path clip-path="url(#clip320)" d="M155.614 900.432 Q135.354 900.432 119.017 892.879 Q112.166 889.658 106.427 885.149 Q100.689 880.64 98.1708 877.654 Q95.6529 874.668 95.6529 873.848 Q95.6529 872.677 96.824 872.618 Q97.4096 872.618 98.8735 874.199 Q118.548 893.523 155.614 893.464 Q192.797 893.464 211.711 874.668 Q213.761 872.618 214.405 872.618 Q215.576 872.618 215.576 873.848 Q215.576 874.668 213.175 877.537 Q210.774 880.406 205.27 884.857 Q199.766 889.307 193.032 892.527 Q176.695 900.432 155.614 900.432 Z" fill="#000000" fill-rule="evenodd" fill-opacity="1" /><path clip-path="url(#clip320)" d="M140.507 803.774 Q143.786 803.774 145.66 805.824 Q147.475 807.873 147.475 810.215 Q147.475 812.441 146.187 813.612 Q144.899 814.783 143.259 814.783 Q141.034 814.783 139.102 813.143 Q137.169 811.504 136.759 809.044 Q135.237 811.445 135.237 815.017 Q135.237 817.359 136.466 819.409 Q137.696 821.4 139.277 822.629 Q140.858 823.8 143.142 824.854 Q145.367 825.85 146.714 826.26 Q148.002 826.611 149.407 826.904 L165.803 831.003 Q173.591 832.994 176.343 832.994 Q179.739 832.994 182.023 831.354 Q184.248 829.715 184.248 826.435 Q184.248 825.147 183.897 823.683 Q183.487 822.219 182.433 820.346 Q181.32 818.413 179.681 816.715 Q177.983 814.958 175.114 813.26 Q172.244 811.562 168.555 810.45 Q167.267 810.098 167.267 808.927 Q167.267 807.463 168.438 807.463 Q169.434 807.463 171.542 808.283 Q173.591 809.044 176.285 810.742 Q178.92 812.382 181.32 814.549 Q183.663 816.715 185.302 819.936 Q186.942 823.156 186.942 826.67 Q186.942 831.706 184.248 835.043 Q181.555 838.381 177.807 839.611 Q178.334 839.903 179.037 840.313 Q179.739 840.723 181.32 841.953 Q182.843 843.124 184.014 844.471 Q185.127 845.818 186.005 847.926 Q186.942 849.975 186.942 852.2 Q186.942 855.011 186.122 857.529 Q185.302 859.988 183.428 861.745 Q181.555 863.502 178.978 863.502 Q176.109 863.502 174.118 861.569 Q172.069 859.578 172.069 856.885 Q172.069 855.187 173.064 853.84 Q174.06 852.434 176.226 852.434 Q178.627 852.434 180.442 854.074 Q182.257 855.714 182.726 858.056 Q184.248 855.655 184.248 852.083 Q184.248 848.218 180.852 845.173 Q177.456 842.129 171.776 840.665 Q158.132 837.034 152.042 835.629 Q145.894 834.223 143.259 834.223 Q140.8 834.223 139.102 834.868 Q137.403 835.512 136.642 836.624 Q135.822 837.678 135.53 838.674 Q135.237 839.611 135.237 840.665 Q135.237 842.421 135.939 844.412 Q136.642 846.345 138.282 848.687 Q139.863 850.97 143.142 853.137 Q146.421 855.304 150.93 856.768 Q152.277 857.06 152.277 858.349 Q152.218 859.754 151.047 859.754 Q150.051 859.754 148.002 858.993 Q145.894 858.173 143.259 856.533 Q140.624 854.835 138.282 852.669 Q135.881 850.443 134.241 847.223 Q132.602 843.944 132.602 840.43 Q132.602 838.849 132.953 837.327 Q133.246 835.746 134.124 833.872 Q135.003 831.94 136.935 830.242 Q138.867 828.544 141.678 827.489 Q140.331 826.787 139.043 825.85 Q137.755 824.854 136.174 823.332 Q134.534 821.751 133.597 819.584 Q132.602 817.359 132.602 814.9 Q132.602 812.499 133.246 810.157 Q133.831 807.815 135.764 805.824 Q137.638 803.774 140.507 803.774 Z" fill="#000000" fill-rule="evenodd" fill-opacity="1" /><path clip-path="url(#clip320)" d="M214.405 792.225 Q213.819 792.225 212.355 790.703 Q192.68 771.379 155.614 771.379 Q118.431 771.379 99.6347 789.941 Q97.4681 792.225 96.824 792.225 Q95.6529 792.225 95.6529 791.054 Q95.6529 790.234 98.0537 787.365 Q100.454 784.437 105.959 780.045 Q111.463 775.595 118.197 772.316 Q134.534 764.411 155.614 764.411 Q175.875 764.411 192.212 771.965 Q199.063 775.185 204.801 779.694 Q210.54 784.203 213.058 787.189 Q215.576 790.176 215.576 791.054 Q215.576 792.225 214.405 792.225 Z" fill="#000000" fill-rule="evenodd" fill-opacity="1" /><path clip-path="url(#clip320)" d="M183.663 744.476 Q181.73 746.174 179.212 746.174 Q176.695 746.174 174.821 744.535 Q172.888 742.836 172.888 739.792 Q172.888 736.22 176.343 734.17 Q179.739 732.121 185.478 732.121 Q191.685 732.121 197.423 734.639 Q203.22 737.157 205.973 739.616 Q208.725 742.075 208.725 743.071 Q208.725 744.242 207.436 744.242 Q206.968 744.242 206.09 743.422 Q196.838 734.814 185.478 734.756 Q183.663 734.756 183.663 734.99 L183.897 735.283 Q185.595 737.332 185.595 739.792 Q185.595 742.778 183.663 744.476 Z" fill="#000000" fill-rule="evenodd" fill-opacity="1" /><path clip-path="url(#clip320)" d="M184.424 694.277 Q183.955 694.277 180.911 692.696 Q177.807 691.115 166.74 685.552 Q155.614 679.989 143.962 674.251 L102.387 653.58 Q99.7518 652.117 99.7518 650.243 Q99.7518 648.545 100.806 647.783 Q101.86 647.022 108.945 643.509 Q112.4 641.694 114.625 640.64 L182.492 606.736 Q183.955 606.15 184.424 606.091 Q185.595 606.091 185.595 608.141 L185.595 691.115 Q185.595 694.277 184.424 694.277 M176.46 686.372 L176.46 621.843 L111.697 654.107 L176.46 686.372 Z" fill="#000000" fill-rule="evenodd" fill-opacity="1" /><path clip-path="url(#clip320)" d="M67.9367 546.34 Q72.8144 546.34 77.6512 548.594 Q82.4879 550.849 86.1769 554.538 Q89.825 558.186 92.1204 563.186 Q94.4158 568.146 94.4158 573.229 Q94.4158 574.13 94.2108 575.975 Q109.336 578.844 109.582 578.926 Q110.443 579.295 110.975 580.033 Q111.508 580.73 111.631 581.222 Q111.754 581.713 111.754 582.041 Q111.754 582.861 111.18 583.681 Q110.648 584.46 109.418 584.46 Q109.131 584.46 107.737 584.05 L93.637 579.582 Q92.0794 586.345 87.7755 590.239 Q83.4307 594.133 77.5282 594.133 Q73.7572 594.133 68.8385 592.412 Q63.9198 590.69 60.5996 588.6 Q57.2795 586.509 57.2795 585.321 Q57.2795 584.296 58.1403 584.296 Q58.4682 584.296 59.206 584.952 Q63.018 588.272 68.5106 590.116 Q73.9621 591.92 76.5854 591.92 Q81.1762 591.92 84.4964 588.395 Q87.7755 584.829 89.0052 578.147 Q76.1346 574.171 70.724 571.794 Q59.9848 566.998 57.3615 560.768 Q56.3777 558.473 56.3777 555.931 Q56.3777 551.34 59.6159 548.84 Q62.813 546.34 67.9367 546.34 M69.7812 548.717 Q67.6088 548.717 65.7643 549.496 Q63.9198 550.234 62.6081 552.119 Q61.2555 554.005 61.2555 556.751 Q61.2555 562.244 66.5431 566.834 Q71.8307 571.425 80.0285 573.393 L89.1282 575.073 Q89.4561 575.073 89.4561 573.967 Q89.5381 573.311 89.5381 572.45 Q89.5381 567.777 87.7755 563.35 Q86.013 558.882 83.2257 555.726 Q80.4384 552.57 76.8724 550.644 Q73.3063 548.717 69.7812 548.717 Z" fill="#000000" fill-rule="evenodd" fill-opacity="1" /><path clip-path="url(#clip320)" d="M155.614 526.971 Q135.354 526.971 119.017 519.417 Q112.166 516.197 106.427 511.688 Q100.689 507.179 98.1708 504.193 Q95.6529 501.206 95.6529 500.387 Q95.6529 499.215 96.824 499.157 Q97.4096 499.157 98.8735 500.738 Q118.548 520.061 155.614 520.003 Q192.797 520.003 211.711 501.206 Q213.761 499.157 214.405 499.157 Q215.576 499.157 215.576 500.387 Q215.576 501.206 213.175 504.076 Q210.774 506.945 205.27 511.395 Q199.766 515.845 193.032 519.066 Q176.695 526.971 155.614 526.971 Z" fill="#000000" fill-rule="evenodd" fill-opacity="1" /><path clip-path="url(#clip320)" d="M140.507 430.313 Q143.786 430.313 145.66 432.362 Q147.475 434.412 147.475 436.754 Q147.475 438.979 146.187 440.15 Q144.899 441.321 143.259 441.321 Q141.034 441.321 139.102 439.682 Q137.169 438.042 136.759 435.583 Q135.237 437.984 135.237 441.556 Q135.237 443.898 136.466 445.947 Q137.696 447.938 139.277 449.168 Q140.858 450.339 143.142 451.393 Q145.367 452.389 146.714 452.798 Q148.002 453.15 149.407 453.443 L165.803 457.542 Q173.591 459.532 176.343 459.532 Q179.739 459.532 182.023 457.893 Q184.248 456.253 184.248 452.974 Q184.248 451.686 183.897 450.222 Q183.487 448.758 182.433 446.884 Q181.32 444.952 179.681 443.254 Q177.983 441.497 175.114 439.799 Q172.244 438.101 168.555 436.988 Q167.267 436.637 167.267 435.466 Q167.267 434.002 168.438 434.002 Q169.434 434.002 171.542 434.822 Q173.591 435.583 176.285 437.281 Q178.92 438.921 181.32 441.087 Q183.663 443.254 185.302 446.474 Q186.942 449.695 186.942 453.208 Q186.942 458.244 184.248 461.582 Q181.555 464.92 177.807 466.149 Q178.334 466.442 179.037 466.852 Q179.739 467.262 181.32 468.492 Q182.843 469.663 184.014 471.009 Q185.127 472.356 186.005 474.464 Q186.942 476.514 186.942 478.739 Q186.942 481.55 186.122 484.067 Q185.302 486.527 183.428 488.283 Q181.555 490.04 178.978 490.04 Q176.109 490.04 174.118 488.108 Q172.069 486.117 172.069 483.423 Q172.069 481.725 173.064 480.378 Q174.06 478.973 176.226 478.973 Q178.627 478.973 180.442 480.613 Q182.257 482.252 182.726 484.594 Q184.248 482.194 184.248 478.622 Q184.248 474.757 180.852 471.712 Q177.456 468.667 171.776 467.203 Q158.132 463.573 152.042 462.167 Q145.894 460.762 143.259 460.762 Q140.8 460.762 139.102 461.406 Q137.403 462.05 136.642 463.163 Q135.822 464.217 135.53 465.212 Q135.237 466.149 135.237 467.203 Q135.237 468.96 135.939 470.951 Q136.642 472.883 138.282 475.225 Q139.863 477.509 143.142 479.676 Q146.421 481.842 150.93 483.306 Q152.277 483.599 152.277 484.887 Q152.218 486.293 151.047 486.293 Q150.051 486.293 148.002 485.531 Q145.894 484.712 143.259 483.072 Q140.624 481.374 138.282 479.207 Q135.881 476.982 134.241 473.762 Q132.602 470.482 132.602 466.969 Q132.602 465.388 132.953 463.866 Q133.246 462.285 134.124 460.411 Q135.003 458.478 136.935 456.78 Q138.867 455.082 141.678 454.028 Q140.331 453.325 139.043 452.389 Q137.755 451.393 136.174 449.871 Q134.534 448.29 133.597 446.123 Q132.602 443.898 132.602 441.439 Q132.602 439.038 133.246 436.696 Q133.831 434.353 135.764 432.362 Q137.638 430.313 140.507 430.313 Z" fill="#000000" fill-rule="evenodd" fill-opacity="1" /><path clip-path="url(#clip320)" d="M105.959 412.618 Q102.972 412.618 101.743 410.803 Q100.454 408.987 100.454 407.055 Q100.454 404.654 101.918 403.132 Q103.324 401.551 105.959 401.551 Q107.13 401.551 107.774 401.668 L143.962 405.65 L143.962 408.402 L107.774 412.501 Q107.13 412.618 105.959 412.618 Z" fill="#000000" fill-rule="evenodd" fill-opacity="1" /><path clip-path="url(#clip320)" d="M214.405 379.617 Q213.819 379.617 212.355 378.094 Q192.68 358.771 155.614 358.771 Q118.431 358.771 99.6347 377.333 Q97.4681 379.617 96.824 379.617 Q95.6529 379.617 95.6529 378.445 Q95.6529 377.626 98.0537 374.756 Q100.454 371.829 105.959 367.437 Q111.463 362.987 118.197 359.707 Q134.534 351.802 155.614 351.802 Q175.875 351.802 192.212 359.356 Q199.063 362.577 204.801 367.086 Q210.54 371.594 213.058 374.581 Q215.576 377.567 215.576 378.445 Q215.576 379.617 214.405 379.617 Z" fill="#000000" fill-rule="evenodd" fill-opacity="1" /><path clip-path="url(#clip320)" d="M154.795 306.63 Q155.029 306.513 155.614 306.513 Q156.2 306.513 156.434 306.63 L213.995 328.94 Q215.576 329.525 215.576 331.165 Q215.576 332.16 214.873 332.863 Q214.17 333.566 213.175 333.566 Q212.589 333.566 212.355 333.448 L155.614 311.431 L98.8735 333.448 Q98.6392 333.566 98.0537 333.566 Q97.0582 333.566 96.3555 332.863 Q95.6529 332.16 95.6529 331.165 Q95.6529 329.525 97.2339 328.94 L154.795 306.63 Z" fill="#000000" fill-rule="evenodd" fill-opacity="1" /><polyline clip-path="url(#clip322)" style="stroke:#009af9; stroke-linecap:round; stroke-linejoin:round; stroke-width:12; stroke-opacity:1; fill:none" points="
  425.028,98.4017 434.433,154.404 443.838,208.895 453.243,261.874 462.648,313.364 472.053,363.394 481.457,412.014 490.862,459.29 500.267,505.243 509.672,549.881 
  519.077,593.214 528.482,635.254 537.887,676.007 547.292,715.496 556.697,753.741 566.102,790.753 575.507,826.505 584.912,860.977 594.317,894.154 603.722,926.032 
  613.126,956.612 622.531,985.884 631.936,1013.83 641.341,1040.43 650.746,1065.67 660.151,1089.54 669.556,1112.07 678.961,1133.25 688.366,1153.09 697.771,1171.59 
  707.176,1188.78 716.581,1204.68 725.986,1219.32 735.391,1232.69 744.795,1244.84 754.2,1255.81 763.605,1265.62 773.01,1274.32 782.415,1281.95 791.82,1288.59 
  801.225,1294.3 810.63,1299.16 820.035,1303.25 829.44,1306.63 838.845,1309.36 848.25,1311.52 857.655,1313.16 867.059,1314.35 876.464,1315.17 885.869,1315.66 
  895.274,1315.87 904.679,1315.86 914.084,1315.65 923.489,1315.3 932.894,1314.84 942.299,1314.29 951.704,1313.67 961.109,1313 970.514,1312.29 979.919,1311.56 
  989.324,1310.8 998.728,1310.04 1008.13,1309.28 1017.54,1308.52 1026.94,1307.78 1036.35,1307.07 1045.75,1306.38 1055.16,1305.74 1064.56,1305.14 1073.97,1304.59 
  1083.37,1304.09 1092.78,1303.65 1102.18,1303.28 1111.59,1302.96 1120.99,1302.71 1130.4,1302.52 1139.8,1302.41 1149.21,1302.38 1158.61,1302.44 1168.02,1302.6 
  1177.42,1302.83 1186.83,1303.13 1196.23,1303.49 1205.64,1303.89 1215.04,1304.32 1224.45,1304.76 1233.85,1305.21 1243.26,1305.65 1252.66,1306.07 1262.07,1306.49 
  1271.47,1306.89 1280.88,1307.26 1290.28,1307.61 1299.69,1307.94 1309.09,1308.23 1318.5,1308.48 1327.9,1308.69 1337.31,1308.85 1346.71,1308.98 1356.12,1309.07 
  1365.52,1309.12 1374.93,1309.13 1384.33,1309.08 1393.74,1308.99 1403.14,1308.85 1412.55,1308.67 1421.95,1308.45 1431.36,1308.2 1440.76,1307.92 1450.17,1307.64 
  1459.57,1307.35 1468.97,1307.08 1478.38,1306.81 1487.78,1306.55 1497.19,1306.31 1506.59,1306.09 1516,1305.89 1525.4,1305.72 1534.81,1305.57 1544.21,1305.44 
  1553.62,1305.34 1563.02,1305.27 1572.43,1305.23 1581.83,1305.22 1591.24,1305.24 1600.64,1305.29 1610.05,1305.36 1619.45,1305.47 1628.86,1305.59 1638.26,1305.74 
  1647.67,1305.91 1657.07,1306.1 1666.48,1306.31 1675.88,1306.55 1685.29,1306.8 1694.69,1307.09 1704.1,1307.38 1713.5,1307.68 1722.91,1307.96 1732.31,1308.22 
  1741.72,1308.46 1751.12,1308.69 1760.53,1308.92 1769.93,1309.15 1779.34,1309.4 1788.74,1309.65 1798.15,1309.88 1807.55,1310.09 1816.96,1310.27 1826.36,1310.41 
  1835.77,1310.51 1845.17,1310.57 1854.58,1310.58 1863.98,1310.55 1873.39,1310.47 1882.79,1310.36 1892.2,1310.22 1901.6,1310.05 1911.01,1309.87 1920.41,1309.66 
  1929.82,1309.41 1939.22,1309.14 1948.63,1308.86 1958.03,1308.6 1967.44,1308.36 1976.84,1308.14 1986.25,1307.96 1995.65,1307.81 2005.06,1307.69 2014.46,1307.58 
  2023.87,1307.49 2033.27,1307.42 2042.68,1307.36 2052.08,1307.31 2061.49,1307.27 2070.89,1307.25 2080.3,1307.24 2089.7,1307.25 2099.11,1307.27 2108.51,1307.3 
  2117.91,1307.35 2127.32,1307.41 2136.72,1307.48 2146.13,1307.57 2155.53,1307.67 2164.94,1307.77 2174.34,1307.89 2183.75,1308.03 2193.15,1308.18 2202.56,1308.33 
  2211.96,1308.49 2221.37,1308.64 2230.77,1308.79 2240.18,1308.92 2249.58,1309.04 2258.99,1309.15 2268.39,1309.25 2277.8,1309.34 2287.2,1309.44 2296.61,1309.56 
  
  "/>
<polyline clip-path="url(#clip322)" style="stroke:#e26f46; stroke-linecap:round; stroke-linejoin:round; stroke-width:12; stroke-opacity:1; fill:none" points="
  425.028,953.595 434.433,941.714 443.838,930.224 453.243,919.143 462.648,908.505 472.053,898.344 481.457,888.704 490.862,879.638 500.267,871.188 509.672,863.4 
  519.077,856.321 528.482,850.001 537.887,844.488 547.292,839.844 556.697,836.129 566.102,833.406 575.507,831.713 584.912,831.091 594.317,831.574 603.722,833.198 
  613.126,835.995 622.531,839.983 631.936,845.169 641.341,851.547 650.746,859.098 660.151,867.796 669.556,877.61 678.961,888.492 688.366,900.385 697.771,913.223 
  707.176,926.942 716.581,941.469 725.986,956.712 735.391,972.577 744.795,988.957 754.2,1005.74 763.605,1022.82 773.01,1040.06 782.415,1057.36 791.82,1074.58 
  801.225,1091.64 810.63,1108.42 820.035,1124.82 829.44,1140.74 838.845,1156.09 848.25,1170.78 857.655,1184.73 867.059,1197.89 876.464,1210.23 885.869,1221.7 
  895.274,1232.26 904.679,1241.92 914.084,1250.67 923.489,1258.55 932.894,1265.59 942.299,1271.81 951.704,1277.26 961.109,1281.99 970.514,1286.04 979.919,1289.47 
  989.324,1292.34 998.728,1294.69 1008.13,1296.59 1017.54,1298.11 1026.94,1299.3 1036.35,1300.22 1045.75,1300.92 1055.16,1301.44 1064.56,1301.83 1073.97,1302.13 
  1083.37,1302.35 1092.78,1302.54 1102.18,1302.72 1111.59,1302.9 1120.99,1303.1 1130.4,1303.32 1139.8,1303.59 1149.21,1303.88 1158.61,1304.22 1168.02,1304.58 
  1177.42,1304.98 1186.83,1305.4 1196.23,1305.85 1205.64,1306.31 1215.04,1306.78 1224.45,1307.26 1233.85,1307.74 1243.26,1308.22 1252.66,1308.68 1262.07,1309.14 
  1271.47,1309.57 1280.88,1309.97 1290.28,1310.35 1299.69,1310.69 1309.09,1311 1318.5,1311.27 1327.9,1311.49 1337.31,1311.66 1346.71,1311.79 1356.12,1311.87 
  1365.52,1311.9 1374.93,1311.89 1384.33,1311.82 1393.74,1311.69 1403.14,1311.52 1412.55,1311.3 1421.95,1311.03 1431.36,1310.73 1440.76,1310.41 1450.17,1310.1 
  1459.57,1309.81 1468.97,1309.55 1478.38,1309.31 1487.78,1309.11 1497.19,1308.96 1506.59,1308.85 1516,1308.78 1525.4,1308.75 1534.81,1308.73 1544.21,1308.74 
  1553.62,1308.76 1563.02,1308.79 1572.43,1308.83 1581.83,1308.86 1591.24,1308.87 1600.64,1308.87 1610.05,1308.85 1619.45,1308.83 1628.86,1308.79 1638.26,1308.75 
  1647.67,1308.7 1657.07,1308.64 1666.48,1308.57 1675.88,1308.49 1685.29,1308.4 1694.69,1308.3 1704.1,1308.2 1713.5,1308.09 1722.91,1307.97 1732.31,1307.85 
  1741.72,1307.73 1751.12,1307.61 1760.53,1307.49 1769.93,1307.38 1779.34,1307.26 1788.74,1307.15 1798.15,1307.05 1807.55,1306.95 1816.96,1306.86 1826.36,1306.77 
  1835.77,1306.7 1845.17,1306.63 1854.58,1306.57 1863.98,1306.52 1873.39,1306.48 1882.79,1306.46 1892.2,1306.45 1901.6,1306.45 1911.01,1306.48 1920.41,1306.51 
  1929.82,1306.56 1939.22,1306.61 1948.63,1306.69 1958.03,1306.8 1967.44,1306.95 1976.84,1307.14 1986.25,1307.36 1995.65,1307.62 2005.06,1307.9 2014.46,1308.19 
  2023.87,1308.46 2033.27,1308.72 2042.68,1308.94 2052.08,1309.14 2061.49,1309.3 2070.89,1309.41 2080.3,1309.48 2089.7,1309.52 2099.11,1309.53 2108.51,1309.53 
  2117.91,1309.52 2127.32,1309.49 2136.72,1309.45 2146.13,1309.41 2155.53,1309.37 2164.94,1309.32 2174.34,1309.28 2183.75,1309.22 2193.15,1309.16 2202.56,1309.1 
  2211.96,1309.03 2221.37,1308.96 2230.77,1308.88 2240.18,1308.8 2249.58,1308.72 2258.99,1308.63 2268.39,1308.54 2277.8,1308.45 2287.2,1308.35 2296.61,1308.25 
  
  "/>
<polyline clip-path="url(#clip322)" style="stroke:#3da44d; stroke-linecap:round; stroke-linejoin:round; stroke-width:12; stroke-opacity:1; fill:none" points="
  425.028,1293.22 434.433,1288.03 443.838,1282.42 453.243,1276.37 462.648,1269.84 472.053,1262.81 481.457,1255.25 490.862,1247.12 500.267,1238.39 509.672,1229.06 
  519.077,1219.1 528.482,1208.52 537.887,1197.3 547.292,1185.46 556.697,1172.98 566.102,1159.89 575.507,1146.23 584.912,1132.04 594.317,1117.35 603.722,1102.21 
  613.126,1086.69 622.531,1070.85 631.936,1054.76 641.341,1038.53 650.746,1022.23 660.151,1005.99 669.556,989.885 678.961,974.044 688.366,958.584 697.771,943.627 
  707.176,929.311 716.581,915.773 725.986,903.146 735.391,891.569 744.795,881.172 754.2,872.07 763.605,864.372 773.01,858.18 782.415,853.577 791.82,850.632 
  801.225,849.399 810.63,849.911 820.035,852.185 829.44,856.204 838.845,861.937 848.25,869.33 857.655,878.307 867.059,888.781 876.464,900.645 885.869,913.771 
  895.274,928.021 904.679,943.248 914.084,959.305 923.489,976.044 932.894,993.318 942.299,1010.97 951.704,1028.83 961.109,1046.78 970.514,1064.68 979.919,1082.39 
  989.324,1099.79 998.728,1116.76 1008.13,1133.22 1017.54,1149.09 1026.94,1164.29 1036.35,1178.78 1045.75,1192.5 1055.16,1205.41 1064.56,1217.48 1073.97,1228.69 
  1083.37,1239.05 1092.78,1248.55 1102.18,1257.22 1111.59,1265.08 1120.99,1272.16 1130.4,1278.51 1139.8,1284.14 1149.21,1289.1 1158.61,1293.44 1168.02,1297.21 
  1177.42,1300.45 1186.83,1303.2 1196.23,1305.51 1205.64,1307.43 1215.04,1308.98 1224.45,1310.23 1233.85,1311.21 1243.26,1311.97 1252.66,1312.55 1262.07,1312.97 
  1271.47,1313.26 1280.88,1313.46 1290.28,1313.57 1299.69,1313.62 1309.09,1313.61 1318.5,1313.57 1327.9,1313.48 1337.31,1313.36 1346.71,1313.22 1356.12,1313.06 
  1365.52,1312.87 1374.93,1312.67 1384.33,1312.45 1393.74,1312.21 1403.14,1311.96 1412.55,1311.71 1421.95,1311.45 1431.36,1311.18 1440.76,1310.92 1450.17,1310.67 
  1459.57,1310.43 1468.97,1310.21 1478.38,1310.01 1487.78,1309.83 1497.19,1309.69 1506.59,1309.57 1516,1309.47 1525.4,1309.4 1534.81,1309.35 1544.21,1309.31 
  1553.62,1309.28 1563.02,1309.26 1572.43,1309.24 1581.83,1309.21 1591.24,1309.15 1600.64,1309.06 1610.05,1308.96 1619.45,1308.85 1628.86,1308.74 1638.26,1308.62 
  1647.67,1308.49 1657.07,1308.35 1666.48,1308.18 1675.88,1308 1685.29,1307.8 1694.69,1307.58 1704.1,1307.36 1713.5,1307.14 1722.91,1306.9 1732.31,1306.68 
  1741.72,1306.46 1751.12,1306.26 1760.53,1306.07 1769.93,1305.9 1779.34,1305.74 1788.74,1305.61 1798.15,1305.5 1807.55,1305.4 1816.96,1305.32 1826.36,1305.25 
  1835.77,1305.2 1845.17,1305.17 1854.58,1305.15 1863.98,1305.16 1873.39,1305.18 1882.79,1305.22 1892.2,1305.27 1901.6,1305.35 1911.01,1305.43 1920.41,1305.54 
  1929.82,1305.66 1939.22,1305.79 1948.63,1305.93 1958.03,1306.09 1967.44,1306.25 1976.84,1306.42 1986.25,1306.59 1995.65,1306.76 2005.06,1306.94 2014.46,1307.11 
  2023.87,1307.27 2033.27,1307.41 2042.68,1307.55 2052.08,1307.66 2061.49,1307.75 2070.89,1307.81 2080.3,1307.86 2089.7,1307.88 2099.11,1307.9 2108.51,1307.91 
  2117.91,1307.91 2127.32,1307.91 2136.72,1307.91 2146.13,1307.93 2155.53,1307.95 2164.94,1307.99 2174.34,1308.04 2183.75,1308.07 2193.15,1308.11 2202.56,1308.16 
  2211.96,1308.21 2221.37,1308.26 2230.77,1308.31 2240.18,1308.37 2249.58,1308.43 2258.99,1308.5 2268.39,1308.55 2277.8,1308.59 2287.2,1308.63 2296.61,1308.65 
  
  "/>
<polyline clip-path="url(#clip322)" style="stroke:#c271d2; stroke-linecap:round; stroke-linejoin:round; stroke-width:12; stroke-opacity:1; fill:none" points="
  425.028,1311.03 434.433,1310.23 443.838,1309.49 453.243,1308.81 462.648,1308.19 472.053,1307.62 481.457,1307.09 490.862,1306.59 500.267,1306.1 509.672,1305.61 
  519.077,1305.09 528.482,1304.51 537.887,1303.86 547.292,1303.09 556.697,1302.18 566.102,1301.07 575.507,1299.73 584.912,1298.13 594.317,1296.22 603.722,1293.94 
  613.126,1291.25 622.531,1288.09 631.936,1284.4 641.341,1280.16 650.746,1275.3 660.151,1269.78 669.556,1263.54 678.961,1256.53 688.366,1248.71 697.771,1240.07 
  707.176,1230.56 716.581,1220.17 725.986,1208.91 735.391,1196.79 744.795,1183.83 754.2,1170.07 763.605,1155.54 773.01,1140.31 782.415,1124.46 791.82,1108.06 
  801.225,1091.2 810.63,1073.99 820.035,1056.54 829.44,1038.97 838.845,1021.43 848.25,1004.06 857.655,987.01 867.059,970.421 876.464,954.445 885.869,939.223 
  895.274,924.897 904.679,911.597 914.084,899.446 923.489,888.56 932.894,879.046 942.299,870.986 951.704,864.452 961.109,859.51 970.514,856.205 979.919,854.568 
  989.324,854.606 998.728,856.307 1008.13,859.645 1017.54,864.579 1026.94,871.05 1036.35,878.99 1045.75,888.313 1055.16,898.926 1064.56,910.732 1073.97,923.614 
  1083.37,937.452 1092.78,952.121 1102.18,967.486 1111.59,983.417 1120.99,999.785 1130.4,1016.47 1139.8,1033.33 1149.21,1050.27 1158.61,1067.17 1168.02,1083.92 
  1177.42,1100.44 1186.83,1116.61 1196.23,1132.36 1205.64,1147.6 1215.04,1162.24 1224.45,1176.24 1233.85,1189.55 1243.26,1202.14 1252.66,1213.97 1262.07,1225.03 
  1271.47,1235.31 1280.88,1244.8 1290.28,1253.5 1299.69,1261.4 1309.09,1268.53 1318.5,1274.9 1327.9,1280.55 1337.31,1285.49 1346.71,1289.78 1356.12,1293.45 
  1365.52,1296.56 1374.93,1299.15 1384.33,1301.27 1393.74,1302.96 1403.14,1304.28 1412.55,1305.27 1421.95,1305.98 1431.36,1306.46 1440.76,1306.75 1450.17,1306.89 
  1459.57,1306.91 1468.97,1306.85 1478.38,1306.73 1487.78,1306.57 1497.19,1306.39 1506.59,1306.21 1516,1306.02 1525.4,1305.85 1534.81,1305.7 1544.21,1305.56 
  1553.62,1305.45 1563.02,1305.36 1572.43,1305.28 1581.83,1305.24 1591.24,1305.21 1600.64,1305.21 1610.05,1305.23 1619.45,1305.28 1628.86,1305.36 1638.26,1305.45 
  1647.67,1305.57 1657.07,1305.7 1666.48,1305.85 1675.88,1306.01 1685.29,1306.18 1694.69,1306.36 1704.1,1306.56 1713.5,1306.75 1722.91,1306.95 1732.31,1307.16 
  1741.72,1307.37 1751.12,1307.59 1760.53,1307.81 1769.93,1308.03 1779.34,1308.25 1788.74,1308.46 1798.15,1308.67 1807.55,1308.85 1816.96,1308.99 1826.36,1309.1 
  1835.77,1309.18 1845.17,1309.22 1854.58,1309.23 1863.98,1309.19 1873.39,1309.13 1882.79,1309.03 1892.2,1308.91 1901.6,1308.77 1911.01,1308.6 1920.41,1308.42 
  1929.82,1308.24 1939.22,1308.05 1948.63,1307.87 1958.03,1307.7 1967.44,1307.54 1976.84,1307.38 1986.25,1307.23 1995.65,1307.09 2005.06,1306.97 2014.46,1306.86 
  2023.87,1306.78 2033.27,1306.71 2042.68,1306.66 2052.08,1306.63 2061.49,1306.62 2070.89,1306.63 2080.3,1306.66 2089.7,1306.71 2099.11,1306.78 2108.51,1306.87 
  2117.91,1306.98 2127.32,1307.1 2136.72,1307.24 2146.13,1307.4 2155.53,1307.57 2164.94,1307.75 2174.34,1307.95 2183.75,1308.15 2193.15,1308.36 2202.56,1308.58 
  2211.96,1308.81 2221.37,1309.05 2230.77,1309.29 2240.18,1309.53 2249.58,1309.78 2258.99,1310.02 2268.39,1310.25 2277.8,1310.48 2287.2,1310.69 2296.61,1310.89 
  
  "/>
<polyline clip-path="url(#clip322)" style="stroke:#ac8d18; stroke-linecap:round; stroke-linejoin:round; stroke-width:12; stroke-opacity:1; fill:none" points="
  425.028,1302.73 434.433,1302.4 443.838,1302.11 453.243,1301.89 462.648,1301.72 472.053,1301.61 481.457,1301.56 490.862,1301.55 500.267,1301.59 509.672,1301.67 
  519.077,1301.78 528.482,1301.94 537.887,1302.14 547.292,1302.37 556.697,1302.64 566.102,1302.94 575.507,1303.28 584.912,1303.64 594.317,1304.02 603.722,1304.43 
  613.126,1304.86 622.531,1305.31 631.936,1305.76 641.341,1306.23 650.746,1306.7 660.151,1307.16 669.556,1307.61 678.961,1308.03 688.366,1308.41 697.771,1308.72 
  707.176,1308.94 716.581,1309.04 725.986,1309 735.391,1308.78 744.795,1308.34 754.2,1307.64 763.605,1306.64 773.01,1305.29 782.415,1303.54 791.82,1301.34 
  801.225,1298.63 810.63,1295.35 820.035,1291.44 829.44,1286.87 838.845,1281.58 848.25,1275.55 857.655,1268.73 867.059,1261.09 876.464,1252.6 885.869,1243.26 
  895.274,1233.06 904.679,1222.01 914.084,1210.11 923.489,1197.37 932.894,1183.82 942.299,1169.5 951.704,1154.47 961.109,1138.8 970.514,1122.55 979.919,1105.81 
  989.324,1088.7 998.728,1071.3 1008.13,1053.74 1017.54,1036.11 1026.94,1018.55 1036.35,1001.17 1045.75,984.115 1055.16,967.516 1064.56,951.516 1073.97,936.249 
  1083.37,921.843 1092.78,908.421 1102.18,896.091 1111.59,884.959 1120.99,875.117 1130.4,866.657 1139.8,859.662 1149.21,854.2 1158.61,850.333 1168.02,848.11 
  1177.42,847.562 1186.83,848.709 1196.23,851.546 1205.64,856.039 1215.04,862.15 1224.45,869.817 1233.85,878.964 1243.26,889.506 1252.66,901.339 1262.07,914.356 
  1271.47,928.44 1280.88,943.458 1290.28,959.276 1299.69,975.752 1309.09,992.749 1318.5,1010.13 1327.9,1027.76 1337.31,1045.49 1346.71,1063.19 1356.12,1080.73 
  1365.52,1098 1374.93,1114.87 1384.33,1131.25 1393.74,1147.04 1403.14,1162.17 1412.55,1176.56 1421.95,1190.16 1431.36,1202.93 1440.76,1214.85 1450.17,1225.91 
  1459.57,1236.08 1468.97,1245.39 1478.38,1253.86 1487.78,1261.5 1497.19,1268.38 1506.59,1274.51 1516,1279.96 1525.4,1284.74 1534.81,1288.91 1544.21,1292.51 
  1553.62,1295.58 1563.02,1298.18 1572.43,1300.35 1581.83,1302.16 1591.24,1303.63 1600.64,1304.83 1610.05,1305.78 1619.45,1306.55 1628.86,1307.15 1638.26,1307.61 
  1647.67,1307.98 1657.07,1308.26 1666.48,1308.49 1675.88,1308.69 1685.29,1308.86 1694.69,1309.01 1704.1,1309.15 1713.5,1309.29 1722.91,1309.42 1732.31,1309.54 
  1741.72,1309.65 1751.12,1309.75 1760.53,1309.85 1769.93,1309.93 1779.34,1309.99 1788.74,1310.05 1798.15,1310.09 1807.55,1310.11 1816.96,1310.12 1826.36,1310.11 
  1835.77,1310.09 1845.17,1310.05 1854.58,1309.99 1863.98,1309.91 1873.39,1309.83 1882.79,1309.73 1892.2,1309.62 1901.6,1309.51 1911.01,1309.39 1920.41,1309.27 
  1929.82,1309.16 1939.22,1309.06 1948.63,1308.98 1958.03,1308.93 1967.44,1308.89 1976.84,1308.86 1986.25,1308.84 1995.65,1308.83 2005.06,1308.85 2014.46,1308.9 
  2023.87,1308.97 2033.27,1309.06 2042.68,1309.19 2052.08,1309.34 2061.49,1309.51 2070.89,1309.69 2080.3,1309.88 2089.7,1310.09 2099.11,1310.31 2108.51,1310.55 
  2117.91,1310.81 2127.32,1311.08 2136.72,1311.36 2146.13,1311.66 2155.53,1311.96 2164.94,1312.27 2174.34,1312.58 2183.75,1312.91 2193.15,1313.24 2202.56,1313.58 
  2211.96,1313.93 2221.37,1314.28 2230.77,1314.63 2240.18,1314.99 2249.58,1315.34 2258.99,1315.7 2268.39,1316.05 2277.8,1316.39 2287.2,1316.74 2296.61,1317.07 
  
  "/>
<polyline clip-path="url(#clip322)" style="stroke:#00a9ad; stroke-linecap:round; stroke-linejoin:round; stroke-width:12; stroke-opacity:1; fill:none" points="
  425.028,1309.1 434.433,1308.94 443.838,1308.82 453.243,1308.75 462.648,1308.72 472.053,1308.75 481.457,1308.81 490.862,1308.91 500.267,1309.02 509.672,1309.15 
  519.077,1309.3 528.482,1309.48 537.887,1309.68 547.292,1309.92 556.697,1310.18 566.102,1310.46 575.507,1310.76 584.912,1311.06 594.317,1311.36 603.722,1311.65 
  613.126,1311.92 622.531,1312.17 631.936,1312.4 641.341,1312.61 650.746,1312.8 660.151,1312.97 669.556,1313.13 678.961,1313.26 688.366,1313.38 697.771,1313.48 
  707.176,1313.55 716.581,1313.61 725.986,1313.63 735.391,1313.64 744.795,1313.61 754.2,1313.56 763.605,1313.48 773.01,1313.38 782.415,1313.25 791.82,1313.1 
  801.225,1312.93 810.63,1312.74 820.035,1312.53 829.44,1312.3 838.845,1312.05 848.25,1311.79 857.655,1311.5 867.059,1311.18 876.464,1310.83 885.869,1310.42 
  895.274,1309.94 904.679,1309.37 914.084,1308.68 923.489,1307.83 932.894,1306.79 942.299,1305.52 951.704,1303.97 961.109,1302.1 970.514,1299.87 979.919,1297.21 
  989.324,1294.09 998.728,1290.46 1008.13,1286.27 1017.54,1281.45 1026.94,1275.97 1036.35,1269.76 1045.75,1262.8 1055.16,1255.06 1064.56,1246.51 1073.97,1237.14 
  1083.37,1226.94 1092.78,1215.9 1102.18,1204.02 1111.59,1191.31 1120.99,1177.78 1130.4,1163.48 1139.8,1148.46 1149.21,1132.77 1158.61,1116.49 1168.02,1099.69 
  1177.42,1082.49 1186.83,1064.98 1196.23,1047.29 1205.64,1029.53 1215.04,1011.85 1224.45,994.359 1233.85,977.201 1243.26,960.509 1252.66,944.417 1262.07,929.065 
  1271.47,914.592 1280.88,901.125 1290.28,888.794 1299.69,877.718 1309.09,868.012 1318.5,859.781 1327.9,853.115 1337.31,848.083 1346.71,844.739 1356.12,843.118 
  1365.52,843.235 1374.93,845.094 1384.33,848.681 1393.74,853.961 1403.14,860.878 1412.55,869.358 1421.95,879.315 1431.36,890.645 1440.76,903.228 1450.17,916.934 
  1459.57,931.633 1468.97,947.196 1478.38,963.491 1487.78,980.378 1497.19,997.72 1506.59,1015.38 1516,1033.22 1525.4,1051.11 1534.81,1068.93 1544.21,1086.53 
  1553.62,1103.82 1563.02,1120.68 1572.43,1137.02 1581.83,1152.75 1591.24,1167.81 1600.64,1182.11 1610.05,1195.63 1619.45,1208.3 1628.86,1220.11 1638.26,1231.02 
  1647.67,1241.03 1657.07,1250.16 1666.48,1258.44 1675.88,1265.9 1685.29,1272.59 1694.69,1278.54 1704.1,1283.79 1713.5,1288.37 1722.91,1292.34 1732.31,1295.74 
  1741.72,1298.6 1751.12,1300.97 1760.53,1302.91 1769.93,1304.45 1779.34,1305.66 1788.74,1306.58 1798.15,1307.25 1807.55,1307.72 1816.96,1308.03 1826.36,1308.21 
  1835.77,1308.29 1845.17,1308.29 1854.58,1308.24 1863.98,1308.14 1873.39,1308.03 1882.79,1307.9 1892.2,1307.76 1901.6,1307.62 1911.01,1307.49 1920.41,1307.36 
  1929.82,1307.24 1939.22,1307.13 1948.63,1307.02 1958.03,1306.93 1967.44,1306.85 1976.84,1306.78 1986.25,1306.72 1995.65,1306.68 2005.06,1306.65 2014.46,1306.64 
  2023.87,1306.64 2033.27,1306.66 2042.68,1306.69 2052.08,1306.75 2061.49,1306.81 2070.89,1306.89 2080.3,1306.97 2089.7,1307.06 2099.11,1307.17 2108.51,1307.29 
  2117.91,1307.43 2127.32,1307.57 2136.72,1307.72 2146.13,1307.88 2155.53,1308.05 2164.94,1308.23 2174.34,1308.41 2183.75,1308.61 2193.15,1308.82 2202.56,1309.04 
  2211.96,1309.29 2221.37,1309.54 2230.77,1309.8 2240.18,1310.06 2249.58,1310.33 2258.99,1310.59 2268.39,1310.85 2277.8,1311.12 2287.2,1311.42 2296.61,1311.79 
  
  "/>
<polyline clip-path="url(#clip322)" style="stroke:#ed5d92; stroke-linecap:round; stroke-linejoin:round; stroke-width:12; stroke-opacity:1; fill:none" points="
  425.028,1305.4 434.433,1305.49 443.838,1305.6 453.243,1305.72 462.648,1305.85 472.053,1306 481.457,1306.16 490.862,1306.32 500.267,1306.49 509.672,1306.66 
  519.077,1306.84 528.482,1307.03 537.887,1307.22 547.292,1307.42 556.697,1307.62 566.102,1307.83 575.507,1308.03 584.912,1308.23 594.317,1308.43 603.722,1308.6 
  613.126,1308.76 622.531,1308.89 631.936,1309.01 641.341,1309.11 650.746,1309.2 660.151,1309.28 669.556,1309.34 678.961,1309.4 688.366,1309.45 697.771,1309.51 
  707.176,1309.56 716.581,1309.6 725.986,1309.63 735.391,1309.64 744.795,1309.63 754.2,1309.61 763.605,1309.57 773.01,1309.52 782.415,1309.45 791.82,1309.37 
  801.225,1309.27 810.63,1309.14 820.035,1308.99 829.44,1308.81 838.845,1308.62 848.25,1308.42 857.655,1308.22 867.059,1308.01 876.464,1307.79 885.869,1307.56 
  895.274,1307.34 904.679,1307.11 914.084,1306.89 923.489,1306.67 932.894,1306.46 942.299,1306.26 951.704,1306.07 961.109,1305.9 970.514,1305.74 979.919,1305.6 
  989.324,1305.48 998.728,1305.39 1008.13,1305.31 1017.54,1305.26 1026.94,1305.22 1036.35,1305.2 1045.75,1305.19 1055.16,1305.18 1064.56,1305.15 1073.97,1305.09 
  1083.37,1304.96 1092.78,1304.76 1102.18,1304.44 1111.59,1303.96 1120.99,1303.29 1130.4,1302.38 1139.8,1301.19 1149.21,1299.67 1158.61,1297.76 1168.02,1295.43 
  1177.42,1292.61 1186.83,1289.25 1196.23,1285.32 1205.64,1280.76 1215.04,1275.53 1224.45,1269.58 1233.85,1262.87 1243.26,1255.36 1252.66,1247.01 1262.07,1237.79 
  1271.47,1227.71 1280.88,1216.76 1290.28,1204.95 1299.69,1192.32 1309.09,1178.89 1318.5,1164.72 1327.9,1149.86 1337.31,1134.38 1346.71,1118.36 1356.12,1101.88 
  1365.52,1085.02 1374.93,1067.91 1384.33,1050.64 1393.74,1033.36 1403.14,1016.17 1412.55,999.218 1421.95,982.625 1431.36,966.523 1440.76,951.036 1450.17,936.285 
  1459.57,922.396 1468.97,909.495 1478.38,897.703 1487.78,887.126 1497.19,877.862 1506.59,870.003 1516,863.63 1525.4,858.813 1534.81,855.612 1544.21,854.063 
  1553.62,854.184 1563.02,855.973 1572.43,859.419 1581.83,864.494 1591.24,871.152 1600.64,879.323 1610.05,888.915 1619.45,899.818 1628.86,911.924 1638.26,925.116 
  1647.67,939.271 1657.07,954.262 1666.48,969.964 1675.88,986.242 1685.29,1002.97 1694.69,1020 1704.1,1037.21 1713.5,1054.47 1722.91,1071.65 1732.31,1088.64 
  1741.72,1105.31 1751.12,1121.56 1760.53,1137.31 1769.93,1152.47 1779.34,1166.97 1788.74,1180.78 1798.15,1193.86 1807.55,1206.17 1816.96,1217.68 1826.36,1228.38 
  1835.77,1238.28 1845.17,1247.36 1854.58,1255.63 1863.98,1263.11 1873.39,1269.8 1882.79,1275.74 1892.2,1280.96 1901.6,1285.51 1911.01,1289.42 1920.41,1292.75 
  1929.82,1295.56 1939.22,1297.92 1948.63,1299.85 1958.03,1301.43 1967.44,1302.69 1976.84,1303.67 1986.25,1304.43 1995.65,1305 2005.06,1305.43 2014.46,1305.75 
  2023.87,1306 2033.27,1306.18 2042.68,1306.33 2052.08,1306.45 2061.49,1306.57 2070.89,1306.7 2080.3,1306.82 2089.7,1306.96 2099.11,1307.11 2108.51,1307.27 
  2117.91,1307.44 2127.32,1307.61 2136.72,1307.79 2146.13,1307.98 2155.53,1308.17 2164.94,1308.36 2174.34,1308.55 2183.75,1308.74 2193.15,1308.93 2202.56,1309.11 
  2211.96,1309.29 2221.37,1309.47 2230.77,1309.63 2240.18,1309.78 2249.58,1309.91 2258.99,1310.03 2268.39,1310.12 2277.8,1310.21 2287.2,1310.29 2296.61,1310.41 
  
  "/>
<polyline clip-path="url(#clip322)" style="stroke:#c68125; stroke-linecap:round; stroke-linejoin:round; stroke-width:12; stroke-opacity:1; fill:none" points="
  425.028,1308.29 434.433,1308.46 443.838,1308.58 453.243,1308.67 462.648,1308.73 472.053,1308.76 481.457,1308.77 490.862,1308.75 500.267,1308.73 509.672,1308.7 
  519.077,1308.65 528.482,1308.6 537.887,1308.54 547.292,1308.48 556.697,1308.4 566.102,1308.32 575.507,1308.22 584.912,1308.13 594.317,1308.02 603.722,1307.92 
  613.126,1307.81 622.531,1307.7 631.936,1307.59 641.341,1307.48 650.746,1307.37 660.151,1307.26 669.556,1307.16 678.961,1307.06 688.366,1306.98 697.771,1306.9 
  707.176,1306.82 716.581,1306.76 725.986,1306.71 735.391,1306.66 744.795,1306.62 754.2,1306.6 763.605,1306.58 773.01,1306.57 782.415,1306.58 791.82,1306.6 
  801.225,1306.62 810.63,1306.64 820.035,1306.65 829.44,1306.67 838.845,1306.7 848.25,1306.73 857.655,1306.78 867.059,1306.83 876.464,1306.89 885.869,1306.94 
  895.274,1306.99 904.679,1307.04 914.084,1307.07 923.489,1307.1 932.894,1307.11 942.299,1307.12 951.704,1307.13 961.109,1307.15 970.514,1307.17 979.919,1307.2 
  989.324,1307.23 998.728,1307.28 1008.13,1307.35 1017.54,1307.43 1026.94,1307.53 1036.35,1307.64 1045.75,1307.76 1055.16,1307.89 1064.56,1308.02 1073.97,1308.15 
  1083.37,1308.29 1092.78,1308.42 1102.18,1308.56 1111.59,1308.7 1120.99,1308.84 1130.4,1308.98 1139.8,1309.11 1149.21,1309.25 1158.61,1309.38 1168.02,1309.5 
  1177.42,1309.62 1186.83,1309.72 1196.23,1309.82 1205.64,1309.9 1215.04,1309.97 1224.45,1310.02 1233.85,1310.03 1243.26,1310.01 1252.66,1309.92 1262.07,1309.77 
  1271.47,1309.52 1280.88,1309.16 1290.28,1308.65 1299.69,1307.96 1309.09,1307.07 1318.5,1305.94 1327.9,1304.52 1337.31,1302.77 1346.71,1300.65 1356.12,1298.1 
  1365.52,1295.07 1374.93,1291.53 1384.33,1287.41 1393.74,1282.69 1403.14,1277.3 1412.55,1271.21 1421.95,1264.37 1431.36,1256.75 1440.76,1248.31 1450.17,1239.02 
  1459.57,1228.87 1468.97,1217.85 1478.38,1205.95 1487.78,1193.19 1497.19,1179.58 1506.59,1165.15 1516,1149.96 1525.4,1134.08 1534.81,1117.59 1544.21,1100.59 
  1553.62,1083.19 1563.02,1065.49 1572.43,1047.61 1581.83,1029.69 1591.24,1011.88 1600.64,994.321 1610.05,977.139 1619.45,960.474 1628.86,944.468 1638.26,929.268 
  1647.67,915.008 1657.07,901.817 1666.48,889.821 1675.88,879.126 1685.29,869.834 1694.69,862.031 1704.1,855.79 1713.5,851.177 1722.91,848.234 1732.31,846.984 
  1741.72,847.435 1751.12,849.576 1760.53,853.381 1769.93,858.809 1779.34,865.796 1788.74,874.277 1798.15,884.181 1807.55,895.42 1816.96,907.898 1826.36,921.493 
  1835.77,936.085 1845.17,951.548 1854.58,967.74 1863.98,984.523 1873.39,1001.75 1882.79,1019.28 1892.2,1036.97 1901.6,1054.69 1911.01,1072.3 1920.41,1089.69 
  1929.82,1106.75 1939.22,1123.39 1948.63,1139.49 1958.03,1154.97 1967.44,1169.76 1976.84,1183.79 1986.25,1197.02 1995.65,1209.42 2005.06,1220.98 2014.46,1231.69 
  2023.87,1241.55 2033.27,1250.55 2042.68,1258.71 2052.08,1266.08 2061.49,1272.68 2070.89,1278.54 2080.3,1283.72 2089.7,1288.25 2099.11,1292.18 2108.51,1295.58 
  2117.91,1298.47 2127.32,1300.92 2136.72,1302.97 2146.13,1304.66 2155.53,1306.04 2164.94,1307.14 2174.34,1308.01 2183.75,1308.67 2193.15,1309.16 2202.56,1309.52 
  2211.96,1309.76 2221.37,1309.91 2230.77,1310 2240.18,1310.03 2249.58,1310.03 2258.99,1310 2268.39,1309.94 2277.8,1309.88 2287.2,1309.79 2296.61,1309.69 
  
  "/>
<polyline clip-path="url(#clip322)" style="stroke:#00a98d; stroke-linecap:round; stroke-linejoin:round; stroke-width:12; stroke-opacity:1; fill:none" points="
  425.028,1309.61 434.433,1309.53 443.838,1309.42 453.243,1309.28 462.648,1309.12 472.053,1308.95 481.457,1308.76 490.862,1308.56 500.267,1308.39 509.672,1308.22 
  519.077,1308.06 528.482,1307.92 537.887,1307.78 547.292,1307.64 556.697,1307.5 566.102,1307.34 575.507,1307.17 584.912,1307 594.317,1306.82 603.722,1306.66 
  613.126,1306.51 622.531,1306.36 631.936,1306.22 641.341,1306.08 650.746,1305.94 660.151,1305.81 669.556,1305.68 678.961,1305.57 688.366,1305.48 697.771,1305.39 
  707.176,1305.33 716.581,1305.28 725.986,1305.24 735.391,1305.23 744.795,1305.23 754.2,1305.24 763.605,1305.28 773.01,1305.33 782.415,1305.4 791.82,1305.48 
  801.225,1305.58 810.63,1305.7 820.035,1305.83 829.44,1305.97 838.845,1306.12 848.25,1306.28 857.655,1306.45 867.059,1306.62 876.464,1306.8 885.869,1306.98 
  895.274,1307.15 904.679,1307.32 914.084,1307.48 923.489,1307.63 932.894,1307.77 942.299,1307.9 951.704,1308.02 961.109,1308.13 970.514,1308.23 979.919,1308.33 
  989.324,1308.41 998.728,1308.5 1008.13,1308.58 1017.54,1308.66 1026.94,1308.74 1036.35,1308.82 1045.75,1308.89 1055.16,1308.95 1064.56,1308.99 1073.97,1309.01 
  1083.37,1309.01 1092.78,1308.99 1102.18,1308.98 1111.59,1308.97 1120.99,1308.98 1130.4,1309 1139.8,1309.05 1149.21,1309.1 1158.61,1309.17 1168.02,1309.22 
  1177.42,1309.27 1186.83,1309.29 1196.23,1309.29 1205.64,1309.26 1215.04,1309.22 1224.45,1309.16 1233.85,1309.08 1243.26,1308.99 1252.66,1308.88 1262.07,1308.77 
  1271.47,1308.65 1280.88,1308.52 1290.28,1308.38 1299.69,1308.24 1309.09,1308.1 1318.5,1307.95 1327.9,1307.81 1337.31,1307.67 1346.71,1307.53 1356.12,1307.4 
  1365.52,1307.27 1374.93,1307.16 1384.33,1307.05 1393.74,1306.95 1403.14,1306.86 1412.55,1306.77 1421.95,1306.67 1431.36,1306.57 1440.76,1306.43 1450.17,1306.25 
  1459.57,1305.99 1468.97,1305.64 1478.38,1305.16 1487.78,1304.5 1497.19,1303.64 1506.59,1302.51 1516,1301.09 1525.4,1299.31 1534.81,1297.14 1544.21,1294.53 
  1553.62,1291.43 1563.02,1287.79 1572.43,1283.56 1581.83,1278.7 1591.24,1273.16 1600.64,1266.92 1610.05,1259.92 1619.45,1252.14 1628.86,1243.56 1638.26,1234.17 
  1647.67,1223.98 1657.07,1212.96 1666.48,1201.13 1675.88,1188.49 1685.29,1175.06 1694.69,1160.89 1704.1,1146.03 1713.5,1130.57 1722.91,1114.57 1732.31,1098.13 
  1741.72,1081.36 1751.12,1064.35 1760.53,1047.24 1769.93,1030.12 1779.34,1013.12 1788.74,996.371 1798.15,979.997 1807.55,964.143 1816.96,948.951 1826.36,934.55 
  1835.77,921.07 1845.17,908.644 1854.58,897.388 1863.98,887.42 1873.39,878.835 1882.79,871.718 1892.2,866.137 1901.6,862.146 1911.01,859.786 1920.41,859.087 
  1929.82,860.05 1939.22,862.647 1948.63,866.827 1958.03,872.533 1967.44,879.699 1976.84,888.245 1986.25,898.078 1995.65,909.088 2005.06,921.168 2014.46,934.205 
  2023.87,948.082 2033.27,962.672 2042.68,977.844 2052.08,993.472 2061.49,1009.44 2070.89,1025.62 2080.3,1041.89 2089.7,1058.14 2099.11,1074.26 2108.51,1090.16 
  2117.91,1105.73 2127.32,1120.92 2136.72,1135.65 2146.13,1149.86 2155.53,1163.49 2164.94,1176.5 2174.34,1188.86 2183.75,1200.54 2193.15,1211.52 2202.56,1221.79 
  2211.96,1231.33 2221.37,1240.17 2230.77,1248.31 2240.18,1255.77 2249.58,1262.57 2258.99,1268.73 2268.39,1274.28 2277.8,1279.22 2287.2,1283.62 2296.61,1287.49 
  
  "/>
<polyline clip-path="url(#clip322)" style="stroke:#8e971d; stroke-linecap:round; stroke-linejoin:round; stroke-width:12; stroke-opacity:1; fill:none" points="
  425.028,1307.3 434.433,1307.46 443.838,1307.61 453.243,1307.76 462.648,1307.9 472.053,1308.05 481.457,1308.19 490.862,1308.33 500.267,1308.46 509.672,1308.6 
  519.077,1308.73 528.482,1308.86 537.887,1308.98 547.292,1309.09 556.697,1309.19 566.102,1309.28 575.507,1309.35 584.912,1309.41 594.317,1309.45 603.722,1309.5 
  613.126,1309.54 622.531,1309.56 631.936,1309.58 641.341,1309.57 650.746,1309.54 660.151,1309.5 669.556,1309.44 678.961,1309.38 688.366,1309.31 697.771,1309.23 
  707.176,1309.15 716.581,1309.05 725.986,1308.95 735.391,1308.84 744.795,1308.72 754.2,1308.59 763.605,1308.45 773.01,1308.31 782.415,1308.17 791.82,1308.02 
  801.225,1307.88 810.63,1307.75 820.035,1307.63 829.44,1307.51 838.845,1307.39 848.25,1307.27 857.655,1307.15 867.059,1307.03 876.464,1306.91 885.869,1306.8 
  895.274,1306.71 904.679,1306.63 914.084,1306.58 923.489,1306.54 932.894,1306.53 942.299,1306.54 951.704,1306.57 961.109,1306.63 970.514,1306.71 979.919,1306.8 
  989.324,1306.92 998.728,1307.06 1008.13,1307.21 1017.54,1307.37 1026.94,1307.55 1036.35,1307.74 1045.75,1307.94 1055.16,1308.14 1064.56,1308.35 1073.97,1308.56 
  1083.37,1308.76 1092.78,1308.96 1102.18,1309.16 1111.59,1309.36 1120.99,1309.57 1130.4,1309.77 1139.8,1309.97 1149.21,1310.17 1158.61,1310.34 1168.02,1310.5 
  1177.42,1310.62 1186.83,1310.71 1196.23,1310.74 1205.64,1310.73 1215.04,1310.69 1224.45,1310.6 1233.85,1310.48 1243.26,1310.33 1252.66,1310.16 1262.07,1309.96 
  1271.47,1309.74 1280.88,1309.51 1290.28,1309.26 1299.69,1309.01 1309.09,1308.75 1318.5,1308.49 1327.9,1308.22 1337.31,1307.95 1346.71,1307.68 1356.12,1307.43 
  1365.52,1307.19 1374.93,1306.97 1384.33,1306.77 1393.74,1306.6 1403.14,1306.46 1412.55,1306.34 1421.95,1306.25 1431.36,1306.19 1440.76,1306.16 1450.17,1306.16 
  1459.57,1306.18 1468.97,1306.23 1478.38,1306.29 1487.78,1306.38 1497.19,1306.48 1506.59,1306.6 1516,1306.73 1525.4,1306.88 1534.81,1307.04 1544.21,1307.21 
  1553.62,1307.39 1563.02,1307.58 1572.43,1307.77 1581.83,1307.97 1591.24,1308.16 1600.64,1308.33 1610.05,1308.49 1619.45,1308.61 1628.86,1308.67 1638.26,1308.66 
  1647.67,1308.56 1657.07,1308.32 1666.48,1307.92 1675.88,1307.31 1685.29,1306.45 1694.69,1305.29 1704.1,1303.8 1713.5,1301.92 1722.91,1299.61 1732.31,1296.82 
  1741.72,1293.52 1751.12,1289.67 1760.53,1285.21 1769.93,1280.12 1779.34,1274.33 1788.74,1267.81 1798.15,1260.51 1807.55,1252.41 1816.96,1243.5 1826.36,1233.75 
  1835.77,1223.16 1845.17,1211.73 1854.58,1199.5 1863.98,1186.49 1873.39,1172.75 1882.79,1158.32 1892.2,1143.27 1901.6,1127.66 1911.01,1111.56 1920.41,1095.06 
  1929.82,1078.24 1939.22,1061.18 1948.63,1043.98 1958.03,1026.75 1967.44,1009.61 1976.84,992.652 1986.25,976.003 1995.65,959.762 2005.06,944.035 2014.46,928.933 
  2023.87,914.569 2033.27,901.043 2042.68,888.44 2052.08,876.835 2061.49,866.31 2070.89,856.927 2080.3,848.734 2089.7,841.755 2099.11,835.992 2108.51,831.452 
  2117.91,828.144 2127.32,826.052 2136.72,825.153 2146.13,825.417 2155.53,826.804 2164.94,829.285 2174.34,832.816 2183.75,837.343 2193.15,842.819 2202.56,849.178 
  2211.96,856.361 2221.37,864.322 2230.77,872.996 2240.18,882.327 2249.58,892.259 2258.99,902.75 2268.39,913.755 2277.8,925.211 2287.2,937.053 2296.61,949.219 
  
  "/>
<polyline clip-path="url(#clip322)" style="stroke:#00a8cb; stroke-linecap:round; stroke-linejoin:round; stroke-width:12; stroke-opacity:1; fill:none" points="
  425.028,1309.56 434.433,1309.59 443.838,1309.58 453.243,1309.55 462.648,1309.49 472.053,1309.43 481.457,1309.36 490.862,1309.28 500.267,1309.19 509.672,1309.08 
  519.077,1308.98 528.482,1308.88 537.887,1308.79 547.292,1308.7 556.697,1308.63 566.102,1308.55 575.507,1308.48 584.912,1308.42 594.317,1308.36 603.722,1308.3 
  613.126,1308.25 622.531,1308.21 631.936,1308.17 641.341,1308.14 650.746,1308.11 660.151,1308.1 669.556,1308.09 678.961,1308.09 688.366,1308.1 697.771,1308.11 
  707.176,1308.14 716.581,1308.17 725.986,1308.21 735.391,1308.26 744.795,1308.3 754.2,1308.35 763.605,1308.41 773.01,1308.47 782.415,1308.53 791.82,1308.6 
  801.225,1308.67 810.63,1308.76 820.035,1308.85 829.44,1308.93 838.845,1309 848.25,1309.04 857.655,1309.05 867.059,1309.02 876.464,1308.97 885.869,1308.91 
  895.274,1308.86 904.679,1308.86 914.084,1308.9 923.489,1308.99 932.894,1309.13 942.299,1309.32 951.704,1309.59 961.109,1309.89 970.514,1310.23 979.919,1310.61 
  989.324,1311.02 998.728,1311.46 1008.13,1311.91 1017.54,1312.37 1026.94,1312.83 1036.35,1313.28 1045.75,1313.72 1055.16,1314.14 1064.56,1314.55 1073.97,1314.94 
  1083.37,1315.29 1092.78,1315.62 1102.18,1315.92 1111.59,1316.19 1120.99,1316.42 1130.4,1316.63 1139.8,1316.79 1149.21,1316.92 1158.61,1317.01 1168.02,1317.06 
  1177.42,1317.07 1186.83,1317.04 1196.23,1316.97 1205.64,1316.87 1215.04,1316.72 1224.45,1316.54 1233.85,1316.32 1243.26,1316.07 1252.66,1315.79 1262.07,1315.49 
  1271.47,1315.16 1280.88,1314.82 1290.28,1314.47 1299.69,1314.11 1309.09,1313.74 1318.5,1313.37 1327.9,1313 1337.31,1312.64 1346.71,1312.28 1356.12,1311.95 
  1365.52,1311.64 1374.93,1311.37 1384.33,1311.13 1393.74,1310.93 1403.14,1310.77 1412.55,1310.64 1421.95,1310.56 1431.36,1310.53 1440.76,1310.53 1450.17,1310.56 
  1459.57,1310.6 1468.97,1310.64 1478.38,1310.67 1487.78,1310.68 1497.19,1310.67 1506.59,1310.63 1516,1310.58 1525.4,1310.52 1534.81,1310.47 1544.21,1310.42 
  1553.62,1310.39 1563.02,1310.37 1572.43,1310.36 1581.83,1310.37 1591.24,1310.39 1600.64,1310.41 1610.05,1310.43 1619.45,1310.44 1628.86,1310.44 1638.26,1310.43 
  1647.67,1310.41 1657.07,1310.38 1666.48,1310.34 1675.88,1310.29 1685.29,1310.22 1694.69,1310.14 1704.1,1310.05 1713.5,1309.95 1722.91,1309.85 1732.31,1309.73 
  1741.72,1309.61 1751.12,1309.48 1760.53,1309.35 1769.93,1309.21 1779.34,1309.06 1788.74,1308.89 1798.15,1308.7 1807.55,1308.46 1816.96,1308.16 1826.36,1307.76 
  1835.77,1307.23 1845.17,1306.53 1854.58,1305.62 1863.98,1304.45 1873.39,1302.96 1882.79,1301.1 1892.2,1298.79 1901.6,1295.96 1911.01,1292.52 1920.41,1288.41 
  1929.82,1283.51 1939.22,1277.73 1948.63,1271 1958.03,1263.24 1967.44,1254.38 1976.84,1244.35 1986.25,1233.08 1995.65,1220.48 2005.06,1206.48 2014.46,1191.04 
  2023.87,1174.11 2033.27,1155.68 2042.68,1135.72 2052.08,1114.2 2061.49,1091.1 2070.89,1066.45 2080.3,1040.24 2089.7,1012.49 2099.11,983.202 2108.51,952.396 
  2117.91,920.116 2127.32,886.392 2136.72,851.256 2146.13,814.755 2155.53,776.939 2164.94,737.871 2174.34,697.604 2183.75,656.178 2193.15,613.655 2202.56,570.074 
  2211.96,525.473 2221.37,479.914 2230.77,433.413 2240.18,386.005 2249.58,337.721 2258.99,288.62 2268.39,238.756 2277.8,188.118 2287.2,136.637 2296.61,84.2294 
  
  "/>
</svg>
