<?xml version="1.0" encoding="utf-8"?>
<svg xmlns="http://www.w3.org/2000/svg" xmlns:xlink="http://www.w3.org/1999/xlink" width="600" height="400" viewBox="0 0 2400 1600">
<defs>
  <clipPath id="clip700">
    <rect x="0" y="0" width="2400" height="1600"/>
  </clipPath>
</defs>
<path clip-path="url(#clip700)" d="
M0 1600 L2400 1600 L2400 0 L0 0  Z
  " fill="#ffffff" fill-rule="evenodd" fill-opacity="1"/>
<defs>
  <clipPath id="clip701">
    <rect x="480" y="0" width="1681" height="1600"/>
  </clipPath>
</defs>
<defs>
  <clipPath id="clip702">
    <rect x="318" y="47" width="2035" height="1308"/>
  </clipPath>
</defs>
<path clip-path="url(#clip700)" d="
M318.664 1354.06 L2352.76 1354.06 L2352.76 47.2441 L318.664 47.2441  Z
  " fill="#ffffff" fill-rule="evenodd" fill-opacity="1"/>
<polyline clip-path="url(#clip702)" style="stroke:#000000; stroke-linecap:round; stroke-linejoin:round; stroke-width:2; stroke-opacity:0.1; fill:none" points="
  376.232,1354.06 376.232,47.2441 
  "/>
<polyline clip-path="url(#clip702)" style="stroke:#000000; stroke-linecap:round; stroke-linejoin:round; stroke-width:2; stroke-opacity:0.1; fill:none" points="
  568.128,1354.06 568.128,47.2441 
  "/>
<polyline clip-path="url(#clip702)" style="stroke:#000000; stroke-linecap:round; stroke-linejoin:round; stroke-width:2; stroke-opacity:0.1; fill:none" points="
  760.023,1354.06 760.023,47.2441 
  "/>
<polyline clip-path="url(#clip702)" style="stroke:#000000; stroke-linecap:round; stroke-linejoin:round; stroke-width:2; stroke-opacity:0.1; fill:none" points="
  951.919,1354.06 951.919,47.2441 
  "/>
<polyline clip-path="url(#clip702)" style="stroke:#000000; stroke-linecap:round; stroke-linejoin:round; stroke-width:2; stroke-opacity:0.1; fill:none" points="
  1143.81,1354.06 1143.81,47.2441 
  "/>
<polyline clip-path="url(#clip702)" style="stroke:#000000; stroke-linecap:round; stroke-linejoin:round; stroke-width:2; stroke-opacity:0.1; fill:none" points="
  1335.71,1354.06 1335.71,47.2441 
  "/>
<polyline clip-path="url(#clip702)" style="stroke:#000000; stroke-linecap:round; stroke-linejoin:round; stroke-width:2; stroke-opacity:0.1; fill:none" points="
  1527.61,1354.06 1527.61,47.2441 
  "/>
<polyline clip-path="url(#clip702)" style="stroke:#000000; stroke-linecap:round; stroke-linejoin:round; stroke-width:2; stroke-opacity:0.1; fill:none" points="
  1719.5,1354.06 1719.5,47.2441 
  "/>
<polyline clip-path="url(#clip702)" style="stroke:#000000; stroke-linecap:round; stroke-linejoin:round; stroke-width:2; stroke-opacity:0.1; fill:none" points="
  1911.4,1354.06 1911.4,47.2441 
  "/>
<polyline clip-path="url(#clip702)" style="stroke:#000000; stroke-linecap:round; stroke-linejoin:round; stroke-width:2; stroke-opacity:0.1; fill:none" points="
  2103.29,1354.06 2103.29,47.2441 
  "/>
<polyline clip-path="url(#clip702)" style="stroke:#000000; stroke-linecap:round; stroke-linejoin:round; stroke-width:2; stroke-opacity:0.1; fill:none" points="
  2295.19,1354.06 2295.19,47.2441 
  "/>
<polyline clip-path="url(#clip700)" style="stroke:#000000; stroke-linecap:round; stroke-linejoin:round; stroke-width:4; stroke-opacity:1; fill:none" points="
  318.664,1354.06 2352.76,1354.06 
  "/>
<polyline clip-path="url(#clip700)" style="stroke:#000000; stroke-linecap:round; stroke-linejoin:round; stroke-width:4; stroke-opacity:1; fill:none" points="
  376.232,1354.06 376.232,1335.16 
  "/>
<polyline clip-path="url(#clip700)" style="stroke:#000000; stroke-linecap:round; stroke-linejoin:round; stroke-width:4; stroke-opacity:1; fill:none" points="
  568.128,1354.06 568.128,1335.16 
  "/>
<polyline clip-path="url(#clip700)" style="stroke:#000000; stroke-linecap:round; stroke-linejoin:round; stroke-width:4; stroke-opacity:1; fill:none" points="
  760.023,1354.06 760.023,1335.16 
  "/>
<polyline clip-path="url(#clip700)" style="stroke:#000000; stroke-linecap:round; stroke-linejoin:round; stroke-width:4; stroke-opacity:1; fill:none" points="
  951.919,1354.06 951.919,1335.16 
  "/>
<polyline clip-path="url(#clip700)" style="stroke:#000000; stroke-linecap:round; stroke-linejoin:round; stroke-width:4; stroke-opacity:1; fill:none" points="
  1143.81,1354.06 1143.81,1335.16 
  "/>
<polyline clip-path="url(#clip700)" style="stroke:#000000; stroke-linecap:round; stroke-linejoin:round; stroke-width:4; stroke-opacity:1; fill:none" points="
  1335.71,1354.06 1335.71,1335.16 
  "/>
<polyline clip-path="url(#clip700)" style="stroke:#000000; stroke-linecap:round; stroke-linejoin:round; stroke-width:4; stroke-opacity:1; fill:none" points="
  1527.61,1354.06 1527.61,1335.16 
  "/>
<polyline clip-path="url(#clip700)" style="stroke:#000000; stroke-linecap:round; stroke-linejoin:round; stroke-width:4; stroke-opacity:1; fill:none" points="
  1719.5,1354.06 1719.5,1335.16 
  "/>
<polyline clip-path="url(#clip700)" style="stroke:#000000; stroke-linecap:round; stroke-linejoin:round; stroke-width:4; stroke-opacity:1; fill:none" points="
  1911.4,1354.06 1911.4,1335.16 
  "/>
<polyline clip-path="url(#clip700)" style="stroke:#000000; stroke-linecap:round; stroke-linejoin:round; stroke-width:4; stroke-opacity:1; fill:none" points="
  2103.29,1354.06 2103.29,1335.16 
  "/>
<polyline clip-path="url(#clip700)" style="stroke:#000000; stroke-linecap:round; stroke-linejoin:round; stroke-width:4; stroke-opacity:1; fill:none" points="
  2295.19,1354.06 2295.19,1335.16 
  "/>
<path clip-path="url(#clip700)" d="M376.232 1395.23 Q369.462 1395.23 366.033 1401.92 Q362.647 1408.56 362.647 1421.92 Q362.647 1435.25 366.033 1441.93 Q369.462 1448.57 376.232 1448.57 Q383.047 1448.57 386.432 1441.93 Q389.861 1435.25 389.861 1421.92 Q389.861 1408.56 386.432 1401.92 Q383.047 1395.23 376.232 1395.23 M376.232 1388.29 Q387.126 1388.29 392.856 1396.93 Q398.628 1405.52 398.628 1421.92 Q398.628 1438.29 392.856 1446.92 Q387.126 1455.52 376.232 1455.52 Q365.338 1455.52 359.566 1446.92 Q353.837 1438.29 353.837 1421.92 Q353.837 1405.52 359.566 1396.93 Q365.338 1388.29 376.232 1388.29 Z" fill="#000000" fill-rule="evenodd" fill-opacity="1" /><path clip-path="url(#clip700)" d="M719.116 1395.23 Q712.346 1395.23 708.917 1401.92 Q705.531 1408.56 705.531 1421.92 Q705.531 1435.25 708.917 1441.93 Q712.346 1448.57 719.116 1448.57 Q725.931 1448.57 729.316 1441.93 Q732.745 1435.25 732.745 1421.92 Q732.745 1408.56 729.316 1401.92 Q725.931 1395.23 719.116 1395.23 M719.116 1388.29 Q730.01 1388.29 735.74 1396.93 Q741.512 1405.52 741.512 1421.92 Q741.512 1438.29 735.74 1446.92 Q730.01 1455.52 719.116 1455.52 Q708.222 1455.52 702.45 1446.92 Q696.721 1438.29 696.721 1421.92 Q696.721 1405.52 702.45 1396.93 Q708.222 1388.29 719.116 1388.29 Z" fill="#000000" fill-rule="evenodd" fill-opacity="1" /><path clip-path="url(#clip700)" d="M756.92 1443.24 L766.078 1443.24 L766.078 1454.26 L756.92 1454.26 L756.92 1443.24 Z" fill="#000000" fill-rule="evenodd" fill-opacity="1" /><path clip-path="url(#clip700)" d="M792.727 1446.88 L823.326 1446.88 L823.326 1454.26 L782.18 1454.26 L782.18 1446.88 Q787.172 1441.72 795.765 1433.04 Q804.402 1424.31 806.616 1421.79 Q810.826 1417.06 812.475 1413.81 Q814.168 1410.51 814.168 1407.34 Q814.168 1402.18 810.522 1398.92 Q806.92 1395.67 801.104 1395.67 Q796.981 1395.67 792.38 1397.1 Q787.823 1398.53 782.614 1401.44 L782.614 1392.58 Q787.909 1390.46 792.51 1389.37 Q797.111 1388.29 800.93 1388.29 Q811 1388.29 816.989 1393.32 Q822.979 1398.36 822.979 1406.78 Q822.979 1410.77 821.46 1414.37 Q819.984 1417.93 816.034 1422.79 Q814.949 1424.05 809.133 1430.08 Q803.317 1436.07 792.727 1446.88 Z" fill="#000000" fill-rule="evenodd" fill-opacity="1" /><path clip-path="url(#clip700)" d="M1100.95 1395.23 Q1094.18 1395.23 1090.75 1401.92 Q1087.37 1408.56 1087.37 1421.92 Q1087.37 1435.25 1090.75 1441.93 Q1094.18 1448.57 1100.95 1448.57 Q1107.77 1448.57 1111.15 1441.93 Q1114.58 1435.25 1114.58 1421.92 Q1114.58 1408.56 1111.15 1401.92 Q1107.77 1395.23 1100.95 1395.23 M1100.95 1388.29 Q1111.85 1388.29 1117.58 1396.93 Q1123.35 1405.52 1123.35 1421.92 Q1123.35 1438.29 1117.58 1446.92 Q1111.85 1455.52 1100.95 1455.52 Q1090.06 1455.52 1084.29 1446.92 Q1078.56 1438.29 1078.56 1421.92 Q1078.56 1405.52 1084.29 1396.93 Q1090.06 1388.29 1100.95 1388.29 Z" fill="#000000" fill-rule="evenodd" fill-opacity="1" /><path clip-path="url(#clip700)" d="M1138.76 1443.24 L1147.92 1443.24 L1147.92 1454.26 L1138.76 1454.26 L1138.76 1443.24 Z" fill="#000000" fill-rule="evenodd" fill-opacity="1" /><path clip-path="url(#clip700)" d="M1191.1 1397.1 L1168.97 1431.69 L1191.1 1431.69 L1191.1 1397.1 M1188.8 1389.46 L1199.83 1389.46 L1199.83 1431.69 L1209.07 1431.69 L1209.07 1438.98 L1199.83 1438.98 L1199.83 1454.26 L1191.1 1454.26 L1191.1 1438.98 L1161.85 1438.98 L1161.85 1430.52 L1188.8 1389.46 Z" fill="#000000" fill-rule="evenodd" fill-opacity="1" /><path clip-path="url(#clip700)" d="M1485.05 1395.23 Q1478.28 1395.23 1474.85 1401.92 Q1471.46 1408.56 1471.46 1421.92 Q1471.46 1435.25 1474.85 1441.93 Q1478.28 1448.57 1485.05 1448.57 Q1491.86 1448.57 1495.25 1441.93 Q1498.68 1435.25 1498.68 1421.92 Q1498.68 1408.56 1495.25 1401.92 Q1491.86 1395.23 1485.05 1395.23 M1485.05 1388.29 Q1495.94 1388.29 1501.67 1396.93 Q1507.44 1405.52 1507.44 1421.92 Q1507.44 1438.29 1501.67 1446.92 Q1495.94 1455.52 1485.05 1455.52 Q1474.16 1455.52 1468.38 1446.92 Q1462.65 1438.29 1462.65 1421.92 Q1462.65 1405.52 1468.38 1396.93 Q1474.16 1388.29 1485.05 1388.29 Z" fill="#000000" fill-rule="evenodd" fill-opacity="1" /><path clip-path="url(#clip700)" d="M1522.85 1443.24 L1532.01 1443.24 L1532.01 1454.26 L1522.85 1454.26 L1522.85 1443.24 Z" fill="#000000" fill-rule="evenodd" fill-opacity="1" /><path clip-path="url(#clip700)" d="M1570.94 1418.37 Q1565.04 1418.37 1561.57 1422.4 Q1558.14 1426.44 1558.14 1433.47 Q1558.14 1440.46 1561.57 1444.54 Q1565.04 1448.57 1570.94 1448.57 Q1576.85 1448.57 1580.27 1444.54 Q1583.75 1440.46 1583.75 1433.47 Q1583.75 1426.44 1580.27 1422.4 Q1576.85 1418.37 1570.94 1418.37 M1588.35 1390.89 L1588.35 1398.88 Q1585.05 1397.32 1581.66 1396.49 Q1578.32 1395.67 1575.02 1395.67 Q1566.34 1395.67 1561.74 1401.53 Q1557.18 1407.39 1556.53 1419.23 Q1559.09 1415.46 1562.96 1413.46 Q1566.82 1411.42 1571.46 1411.42 Q1581.23 1411.42 1586.87 1417.37 Q1592.56 1423.27 1592.56 1433.47 Q1592.56 1443.45 1586.65 1449.49 Q1580.75 1455.52 1570.94 1455.52 Q1559.7 1455.52 1553.76 1446.92 Q1547.81 1438.29 1547.81 1421.92 Q1547.81 1406.56 1555.1 1397.45 Q1562.39 1388.29 1574.68 1388.29 Q1577.97 1388.29 1581.32 1388.94 Q1584.7 1389.59 1588.35 1390.89 Z" fill="#000000" fill-rule="evenodd" fill-opacity="1" /><path clip-path="url(#clip700)" d="M1869.08 1395.23 Q1862.31 1395.23 1858.88 1401.92 Q1855.49 1408.56 1855.49 1421.92 Q1855.49 1435.25 1858.88 1441.93 Q1862.31 1448.57 1869.08 1448.57 Q1875.89 1448.57 1879.28 1441.93 Q1882.71 1435.25 1882.71 1421.92 Q1882.71 1408.56 1879.28 1401.92 Q1875.89 1395.23 1869.08 1395.23 M1869.08 1388.29 Q1879.97 1388.29 1885.7 1396.93 Q1891.47 1405.52 1891.47 1421.92 Q1891.47 1438.29 1885.7 1446.92 Q1879.97 1455.52 1869.08 1455.52 Q1858.18 1455.52 1852.41 1446.92 Q1846.68 1438.29 1846.68 1421.92 Q1846.68 1405.52 1852.41 1396.93 Q1858.18 1388.29 1869.08 1388.29 Z" fill="#000000" fill-rule="evenodd" fill-opacity="1" /><path clip-path="url(#clip700)" d="M1906.88 1443.24 L1916.04 1443.24 L1916.04 1454.26 L1906.88 1454.26 L1906.88 1443.24 Z" fill="#000000" fill-rule="evenodd" fill-opacity="1" /><path clip-path="url(#clip700)" d="M1953.89 1423.49 Q1947.64 1423.49 1944.03 1426.83 Q1940.48 1430.17 1940.48 1436.03 Q1940.48 1441.89 1944.03 1445.23 Q1947.64 1448.57 1953.89 1448.57 Q1960.14 1448.57 1963.74 1445.23 Q1967.34 1441.85 1967.34 1436.03 Q1967.34 1430.17 1963.74 1426.83 Q1960.18 1423.49 1953.89 1423.49 M1945.12 1419.75 Q1939.48 1418.37 1936.31 1414.5 Q1933.18 1410.64 1933.18 1405.08 Q1933.18 1397.32 1938.7 1392.8 Q1944.25 1388.29 1953.89 1388.29 Q1963.57 1388.29 1969.08 1392.8 Q1974.59 1397.32 1974.59 1405.08 Q1974.59 1410.64 1971.42 1414.5 Q1968.3 1418.37 1962.7 1419.75 Q1969.03 1421.23 1972.55 1425.53 Q1976.11 1429.82 1976.11 1436.03 Q1976.11 1445.45 1970.34 1450.48 Q1964.61 1455.52 1953.89 1455.52 Q1943.17 1455.52 1937.39 1450.48 Q1931.67 1445.45 1931.67 1436.03 Q1931.67 1429.82 1935.22 1425.53 Q1938.78 1421.23 1945.12 1419.75 M1941.91 1405.91 Q1941.91 1410.94 1945.03 1413.77 Q1948.2 1416.59 1953.89 1416.59 Q1959.53 1416.59 1962.7 1413.77 Q1965.91 1410.94 1965.91 1405.91 Q1965.91 1400.87 1962.7 1398.05 Q1959.53 1395.23 1953.89 1395.23 Q1948.2 1395.23 1945.03 1398.05 Q1941.91 1400.87 1941.91 1405.91 Z" fill="#000000" fill-rule="evenodd" fill-opacity="1" /><path clip-path="url(#clip700)" d="M2277.15 1446.88 L2291.48 1446.88 L2291.48 1397.45 L2275.89 1400.57 L2275.89 1392.58 L2291.39 1389.46 L2300.16 1389.46 L2300.16 1446.88 L2314.48 1446.88 L2314.48 1454.26 L2277.15 1454.26 L2277.15 1446.88 Z" fill="#000000" fill-rule="evenodd" fill-opacity="1" /><path clip-path="url(#clip700)" d="M1361.48 1519.59 Q1361.48 1522.87 1359.43 1524.74 Q1357.38 1526.56 1355.04 1526.56 Q1352.81 1526.56 1351.64 1525.27 Q1350.47 1523.98 1350.47 1522.34 Q1350.47 1520.12 1352.11 1518.18 Q1353.75 1516.25 1356.21 1515.84 Q1353.81 1514.32 1350.24 1514.32 Q1347.89 1514.32 1345.84 1515.55 Q1343.85 1516.78 1342.62 1518.36 Q1341.45 1519.94 1340.4 1522.22 Q1339.4 1524.45 1338.99 1525.8 Q1338.64 1527.08 1338.35 1528.49 L1334.25 1544.89 Q1332.26 1552.67 1332.26 1555.43 Q1332.26 1558.82 1333.9 1561.11 Q1335.54 1563.33 1338.82 1563.33 Q1340.11 1563.33 1341.57 1562.98 Q1343.03 1562.57 1344.91 1561.52 Q1346.84 1560.4 1348.54 1558.76 Q1350.29 1557.07 1351.99 1554.2 Q1353.69 1551.33 1354.8 1547.64 Q1355.15 1546.35 1356.33 1546.35 Q1357.79 1546.35 1357.79 1547.52 Q1357.79 1548.52 1356.97 1550.62 Q1356.21 1552.67 1354.51 1555.37 Q1352.87 1558 1350.7 1560.4 Q1348.54 1562.75 1345.32 1564.39 Q1342.1 1566.02 1338.58 1566.02 Q1333.55 1566.02 1330.21 1563.33 Q1326.87 1560.64 1325.64 1556.89 Q1325.35 1557.42 1324.94 1558.12 Q1324.53 1558.82 1323.3 1560.4 Q1322.13 1561.93 1320.78 1563.1 Q1319.44 1564.21 1317.33 1565.09 Q1315.28 1566.02 1313.05 1566.02 Q1310.24 1566.02 1307.72 1565.2 Q1305.26 1564.39 1303.51 1562.51 Q1301.75 1560.64 1301.75 1558.06 Q1301.75 1555.19 1303.68 1553.2 Q1305.67 1551.15 1308.37 1551.15 Q1310.07 1551.15 1311.41 1552.15 Q1312.82 1553.14 1312.82 1555.31 Q1312.82 1557.71 1311.18 1559.53 Q1309.54 1561.34 1307.2 1561.81 Q1309.6 1563.33 1313.17 1563.33 Q1317.03 1563.33 1320.08 1559.93 Q1323.12 1556.54 1324.59 1550.86 Q1328.22 1537.22 1329.62 1531.13 Q1331.03 1524.98 1331.03 1522.34 Q1331.03 1519.88 1330.39 1518.18 Q1329.74 1516.49 1328.63 1515.73 Q1327.57 1514.91 1326.58 1514.61 Q1325.64 1514.32 1324.59 1514.32 Q1322.83 1514.32 1320.84 1515.02 Q1318.91 1515.73 1316.57 1517.36 Q1314.28 1518.95 1312.12 1522.22 Q1309.95 1525.5 1308.49 1530.01 Q1308.19 1531.36 1306.9 1531.36 Q1305.5 1531.3 1305.5 1530.13 Q1305.5 1529.13 1306.26 1527.08 Q1307.08 1524.98 1308.72 1522.34 Q1310.42 1519.71 1312.58 1517.36 Q1314.81 1514.96 1318.03 1513.32 Q1321.31 1511.68 1324.82 1511.68 Q1326.4 1511.68 1327.93 1512.04 Q1329.51 1512.33 1331.38 1513.21 Q1333.31 1514.09 1335.01 1516.02 Q1336.71 1517.95 1337.76 1520.76 Q1338.47 1519.41 1339.4 1518.13 Q1340.4 1516.84 1341.92 1515.26 Q1343.5 1513.62 1345.67 1512.68 Q1347.89 1511.68 1350.35 1511.68 Q1352.75 1511.68 1355.1 1512.33 Q1357.44 1512.91 1359.43 1514.85 Q1361.48 1516.72 1361.48 1519.59 Z" fill="#000000" fill-rule="evenodd" fill-opacity="1" /><polyline clip-path="url(#clip702)" style="stroke:#000000; stroke-linecap:round; stroke-linejoin:round; stroke-width:2; stroke-opacity:0.1; fill:none" points="
  318.664,1309.29 2352.76,1309.29 
  "/>
<polyline clip-path="url(#clip702)" style="stroke:#000000; stroke-linecap:round; stroke-linejoin:round; stroke-width:2; stroke-opacity:0.1; fill:none" points="
  318.664,1029.17 2352.76,1029.17 
  "/>
<polyline clip-path="url(#clip702)" style="stroke:#000000; stroke-linecap:round; stroke-linejoin:round; stroke-width:2; stroke-opacity:0.1; fill:none" points="
  318.664,749.054 2352.76,749.054 
  "/>
<polyline clip-path="url(#clip702)" style="stroke:#000000; stroke-linecap:round; stroke-linejoin:round; stroke-width:2; stroke-opacity:0.1; fill:none" points="
  318.664,468.935 2352.76,468.935 
  "/>
<polyline clip-path="url(#clip702)" style="stroke:#000000; stroke-linecap:round; stroke-linejoin:round; stroke-width:2; stroke-opacity:0.1; fill:none" points="
  318.664,188.817 2352.76,188.817 
  "/>
<polyline clip-path="url(#clip700)" style="stroke:#000000; stroke-linecap:round; stroke-linejoin:round; stroke-width:4; stroke-opacity:1; fill:none" points="
  318.664,1354.06 318.664,47.2441 
  "/>
<polyline clip-path="url(#clip700)" style="stroke:#000000; stroke-linecap:round; stroke-linejoin:round; stroke-width:4; stroke-opacity:1; fill:none" points="
  318.664,1309.29 337.561,1309.29 
  "/>
<polyline clip-path="url(#clip700)" style="stroke:#000000; stroke-linecap:round; stroke-linejoin:round; stroke-width:4; stroke-opacity:1; fill:none" points="
  318.664,1029.17 337.561,1029.17 
  "/>
<polyline clip-path="url(#clip700)" style="stroke:#000000; stroke-linecap:round; stroke-linejoin:round; stroke-width:4; stroke-opacity:1; fill:none" points="
  318.664,749.054 337.561,749.054 
  "/>
<polyline clip-path="url(#clip700)" style="stroke:#000000; stroke-linecap:round; stroke-linejoin:round; stroke-width:4; stroke-opacity:1; fill:none" points="
  318.664,468.935 337.561,468.935 
  "/>
<polyline clip-path="url(#clip700)" style="stroke:#000000; stroke-linecap:round; stroke-linejoin:round; stroke-width:4; stroke-opacity:1; fill:none" points="
  318.664,188.817 337.561,188.817 
  "/>
<path clip-path="url(#clip700)" d="M260.268 1282.66 Q253.497 1282.66 250.068 1289.35 Q246.683 1295.99 246.683 1309.36 Q246.683 1322.68 250.068 1329.37 Q253.497 1336.01 260.268 1336.01 Q267.082 1336.01 270.468 1329.37 Q273.896 1322.68 273.896 1309.36 Q273.896 1295.99 270.468 1289.35 Q267.082 1282.66 260.268 1282.66 M260.268 1275.72 Q271.162 1275.72 276.891 1284.36 Q282.664 1292.95 282.664 1309.36 Q282.664 1325.72 276.891 1334.36 Q271.162 1342.95 260.268 1342.95 Q249.374 1342.95 243.601 1334.36 Q237.872 1325.72 237.872 1309.36 Q237.872 1292.95 243.601 1284.36 Q249.374 1275.72 260.268 1275.72 Z" fill="#000000" fill-rule="evenodd" fill-opacity="1" /><path clip-path="url(#clip700)" d="M252.065 1054.19 L282.664 1054.19 L282.664 1061.57 L241.518 1061.57 L241.518 1054.19 Q246.509 1049.03 255.103 1040.35 Q263.74 1031.62 265.954 1029.11 Q270.164 1024.38 271.813 1021.12 Q273.506 1017.82 273.506 1014.65 Q273.506 1009.49 269.86 1006.23 Q266.258 1002.98 260.442 1002.98 Q256.318 1002.98 251.718 1004.41 Q247.16 1005.84 241.952 1008.75 L241.952 999.898 Q247.247 997.771 251.848 996.686 Q256.449 995.601 260.268 995.601 Q270.337 995.601 276.327 1000.64 Q282.317 1005.67 282.317 1014.09 Q282.317 1018.08 280.797 1021.69 Q279.322 1025.24 275.372 1030.11 Q274.287 1031.36 268.471 1037.4 Q262.655 1043.39 252.065 1054.19 Z" fill="#000000" fill-rule="evenodd" fill-opacity="1" /><path clip-path="url(#clip700)" d="M264.695 724.293 L242.56 758.885 L264.695 758.885 L264.695 724.293 M262.395 716.654 L273.419 716.654 L273.419 758.885 L282.664 758.885 L282.664 766.176 L273.419 766.176 L273.419 781.454 L264.695 781.454 L264.695 766.176 L235.442 766.176 L235.442 757.713 L262.395 716.654 Z" fill="#000000" fill-rule="evenodd" fill-opacity="1" /><path clip-path="url(#clip700)" d="M261.049 465.441 Q255.147 465.441 251.674 469.478 Q248.246 473.514 248.246 480.545 Q248.246 487.533 251.674 491.613 Q255.147 495.65 261.049 495.65 Q266.952 495.65 270.381 491.613 Q273.853 487.533 273.853 480.545 Q273.853 473.514 270.381 469.478 Q266.952 465.441 261.049 465.441 M278.454 437.968 L278.454 445.954 Q275.155 444.391 271.77 443.566 Q268.428 442.742 265.129 442.742 Q256.449 442.742 251.848 448.601 Q247.291 454.46 246.64 466.309 Q249.2 462.533 253.063 460.537 Q256.926 458.497 261.57 458.497 Q271.336 458.497 276.978 464.443 Q282.664 470.346 282.664 480.545 Q282.664 490.528 276.761 496.561 Q270.858 502.594 261.049 502.594 Q249.808 502.594 243.862 494 Q237.916 485.363 237.916 469 Q237.916 453.636 245.207 444.521 Q252.499 435.363 264.782 435.363 Q268.08 435.363 271.422 436.014 Q274.808 436.665 278.454 437.968 Z" fill="#000000" fill-rule="evenodd" fill-opacity="1" /><path clip-path="url(#clip700)" d="M260.442 190.444 Q254.192 190.444 250.589 193.786 Q247.03 197.128 247.03 202.987 Q247.03 208.847 250.589 212.189 Q254.192 215.531 260.442 215.531 Q266.692 215.531 270.294 212.189 Q273.896 208.803 273.896 202.987 Q273.896 197.128 270.294 193.786 Q266.735 190.444 260.442 190.444 M251.674 186.712 Q246.032 185.323 242.864 181.46 Q239.739 177.597 239.739 172.041 Q239.739 164.272 245.251 159.759 Q250.806 155.245 260.442 155.245 Q270.12 155.245 275.633 159.759 Q281.145 164.272 281.145 172.041 Q281.145 177.597 277.976 181.46 Q274.851 185.323 269.252 186.712 Q275.589 188.187 279.105 192.484 Q282.664 196.781 282.664 202.987 Q282.664 212.406 276.891 217.441 Q271.162 222.475 260.442 222.475 Q249.721 222.475 243.949 217.441 Q238.22 212.406 238.22 202.987 Q238.22 196.781 241.779 192.484 Q245.338 188.187 251.674 186.712 M248.463 172.866 Q248.463 177.901 251.588 180.722 Q254.756 183.543 260.442 183.543 Q266.084 183.543 269.252 180.722 Q272.464 177.901 272.464 172.866 Q272.464 167.831 269.252 165.01 Q266.084 162.189 260.442 162.189 Q254.756 162.189 251.588 165.01 Q248.463 167.831 248.463 172.866 Z" fill="#000000" fill-rule="evenodd" fill-opacity="1" /><path clip-path="url(#clip700)" d="M213.175 1086.79 Q214.17 1086.79 214.873 1087.5 Q215.576 1088.2 215.576 1089.19 Q215.576 1090.89 213.995 1091.48 L156.434 1113.79 Q156.2 1113.91 155.614 1113.91 Q155.029 1113.91 154.795 1113.79 L97.2339 1091.48 Q95.6529 1090.89 95.6529 1089.19 Q95.6529 1088.2 96.3555 1087.5 Q97.0582 1086.79 98.0537 1086.79 Q98.6392 1086.79 98.8735 1086.91 L155.614 1108.99 L212.355 1086.91 Q212.589 1086.79 213.175 1086.79 Z" fill="#000000" fill-rule="evenodd" fill-opacity="1" /><path clip-path="url(#clip700)" d="M184.424 1067.74 Q183.955 1067.74 180.911 1066.16 Q177.807 1064.58 166.74 1059.01 Q155.614 1053.45 143.962 1047.71 L102.387 1027.04 Q99.7518 1025.58 99.7518 1023.7 Q99.7518 1022.01 100.806 1021.24 Q101.86 1020.48 108.945 1016.97 Q112.4 1015.15 114.625 1014.1 L182.492 980.197 Q183.955 979.611 184.424 979.553 Q185.595 979.553 185.595 981.602 L185.595 1064.58 Q185.595 1067.74 184.424 1067.74 M176.46 1059.83 L176.46 995.304 L111.697 1027.57 L176.46 1059.83 Z" fill="#000000" fill-rule="evenodd" fill-opacity="1" /><path clip-path="url(#clip700)" d="M67.9367 919.801 Q72.8144 919.801 77.6512 922.055 Q82.4879 924.31 86.1769 927.999 Q89.825 931.647 92.1204 936.648 Q94.4158 941.607 94.4158 946.69 Q94.4158 947.592 94.2108 949.436 Q109.336 952.306 109.582 952.388 Q110.443 952.756 110.975 953.494 Q111.508 954.191 111.631 954.683 Q111.754 955.175 111.754 955.503 Q111.754 956.323 111.18 957.142 Q110.648 957.921 109.418 957.921 Q109.131 957.921 107.737 957.511 L93.637 953.043 Q92.0794 959.807 87.7755 963.701 Q83.4307 967.595 77.5282 967.595 Q73.7572 967.595 68.8385 965.873 Q63.9198 964.151 60.5996 962.061 Q57.2795 959.971 57.2795 958.782 Q57.2795 957.757 58.1403 957.757 Q58.4682 957.757 59.206 958.413 Q63.018 961.733 68.5106 963.578 Q73.9621 965.381 76.5854 965.381 Q81.1762 965.381 84.4964 961.856 Q87.7755 958.29 89.0052 951.609 Q76.1346 947.633 70.724 945.255 Q59.9848 940.46 57.3615 934.229 Q56.3777 931.934 56.3777 929.393 Q56.3777 924.802 59.6159 922.301 Q62.813 919.801 67.9367 919.801 M69.7812 922.178 Q67.6088 922.178 65.7643 922.957 Q63.9198 923.695 62.6081 925.581 Q61.2555 927.466 61.2555 930.212 Q61.2555 935.705 66.5431 940.296 Q71.8307 944.887 80.0285 946.854 L89.1282 948.535 Q89.4561 948.535 89.4561 947.428 Q89.5381 946.772 89.5381 945.911 Q89.5381 941.238 87.7755 936.812 Q86.013 932.344 83.2257 929.188 Q80.4384 926.031 76.8724 924.105 Q73.3063 922.178 69.7812 922.178 Z" fill="#000000" fill-rule="evenodd" fill-opacity="1" /><path clip-path="url(#clip700)" d="M155.614 900.432 Q135.354 900.432 119.017 892.879 Q112.166 889.658 106.427 885.149 Q100.689 880.64 98.1708 877.654 Q95.6529 874.668 95.6529 873.848 Q95.6529 872.677 96.824 872.618 Q97.4096 872.618 98.8735 874.199 Q118.548 893.523 155.614 893.464 Q192.797 893.464 211.711 874.668 Q213.761 872.618 214.405 872.618 Q215.576 872.618 215.576 873.848 Q215.576 874.668 213.175 877.537 Q210.774 880.406 205.27 884.857 Q199.766 889.307 193.032 892.527 Q176.695 900.432 155.614 900.432 Z" fill="#000000" fill-rule="evenodd" fill-opacity="1" /><path clip-path="url(#clip700)" d="M140.507 803.774 Q143.786 803.774 145.66 805.824 Q147.475 807.873 147.475 810.215 Q147.475 812.441 146.187 813.612 Q144.899 814.783 143.259 814.783 Q141.034 814.783 139.102 813.143 Q137.169 811.504 136.759 809.044 Q135.237 811.445 135.237 815.017 Q135.237 817.359 136.466 819.409 Q137.696 821.4 139.277 822.629 Q140.858 823.8 143.142 824.854 Q145.367 825.85 146.714 826.26 Q148.002 826.611 149.407 826.904 L165.803 831.003 Q173.591 832.994 176.343 832.994 Q179.739 832.994 182.023 831.354 Q184.248 829.715 184.248 826.435 Q184.248 825.147 183.897 823.683 Q183.487 822.219 182.433 820.346 Q181.32 818.413 179.681 816.715 Q177.983 814.958 175.114 813.26 Q172.244 811.562 168.555 810.45 Q167.267 810.098 167.267 808.927 Q167.267 807.463 168.438 807.463 Q169.434 807.463 171.542 808.283 Q173.591 809.044 176.285 810.742 Q178.92 812.382 181.32 814.549 Q183.663 816.715 185.302 819.936 Q186.942 823.156 186.942 826.67 Q186.942 831.706 184.248 835.043 Q181.555 838.381 177.807 839.611 Q178.334 839.903 179.037 840.313 Q179.739 840.723 181.32 841.953 Q182.843 843.124 184.014 844.471 Q185.127 845.818 186.005 847.926 Q186.942 849.975 186.942 852.2 Q186.942 855.011 186.122 857.529 Q185.302 859.988 183.428 861.745 Q181.555 863.502 178.978 863.502 Q176.109 863.502 174.118 861.569 Q172.069 859.578 172.069 856.885 Q172.069 855.187 173.064 853.84 Q174.06 852.434 176.226 852.434 Q178.627 852.434 180.442 854.074 Q182.257 855.714 182.726 858.056 Q184.248 855.655 184.248 852.083 Q184.248 848.218 180.852 845.173 Q177.456 842.129 171.776 840.665 Q158.132 837.034 152.042 835.629 Q145.894 834.223 143.259 834.223 Q140.8 834.223 139.102 834.868 Q137.403 835.512 136.642 836.624 Q135.822 837.678 135.53 838.674 Q135.237 839.611 135.237 840.665 Q135.237 842.421 135.939 844.412 Q136.642 846.345 138.282 848.687 Q139.863 850.97 143.142 853.137 Q146.421 855.304 150.93 856.768 Q152.277 857.06 152.277 858.349 Q152.218 859.754 151.047 859.754 Q150.051 859.754 148.002 858.993 Q145.894 858.173 143.259 856.533 Q140.624 854.835 138.282 852.669 Q135.881 850.443 134.241 847.223 Q132.602 843.944 132.602 840.43 Q132.602 838.849 132.953 837.327 Q133.246 835.746 134.124 833.872 Q135.003 831.94 136.935 830.242 Q138.867 828.544 141.678 827.489 Q140.331 826.787 139.043 825.85 Q137.755 824.854 136.174 823.332 Q134.534 821.751 133.597 819.584 Q132.602 817.359 132.602 814.9 Q132.602 812.499 133.246 810.157 Q133.831 807.815 135.764 805.824 Q137.638 803.774 140.507 803.774 Z" fill="#000000" fill-rule="evenodd" fill-opacity="1" /><path clip-path="url(#clip700)" d="M214.405 792.225 Q213.819 792.225 212.355 790.703 Q192.68 771.379 155.614 771.379 Q118.431 771.379 99.6347 789.941 Q97.4681 792.225 96.824 792.225 Q95.6529 792.225 95.6529 791.054 Q95.6529 790.234 98.0537 787.365 Q100.454 784.437 105.959 780.045 Q111.463 775.595 118.197 772.316 Q134.534 764.411 155.614 764.411 Q175.875 764.411 192.212 771.965 Q199.063 775.185 204.801 779.694 Q210.54 784.203 213.058 787.189 Q215.576 790.176 215.576 791.054 Q215.576 792.225 214.405 792.225 Z" fill="#000000" fill-rule="evenodd" fill-opacity="1" /><path clip-path="url(#clip700)" d="M183.663 744.476 Q181.73 746.174 179.212 746.174 Q176.695 746.174 174.821 744.535 Q172.888 742.836 172.888 739.792 Q172.888 736.22 176.343 734.17 Q179.739 732.121 185.478 732.121 Q191.685 732.121 197.423 734.639 Q203.22 737.157 205.973 739.616 Q208.725 742.075 208.725 743.071 Q208.725 744.242 207.436 744.242 Q206.968 744.242 206.09 743.422 Q196.838 734.814 185.478 734.756 Q183.663 734.756 183.663 734.99 L183.897 735.283 Q185.595 737.332 185.595 739.792 Q185.595 742.778 183.663 744.476 Z" fill="#000000" fill-rule="evenodd" fill-opacity="1" /><path clip-path="url(#clip700)" d="M184.424 694.277 Q183.955 694.277 180.911 692.696 Q177.807 691.115 166.74 685.552 Q155.614 679.989 143.962 674.251 L102.387 653.58 Q99.7518 652.117 99.7518 650.243 Q99.7518 648.545 100.806 647.783 Q101.86 647.022 108.945 643.509 Q112.4 641.694 114.625 640.64 L182.492 606.736 Q183.955 606.15 184.424 606.091 Q185.595 606.091 185.595 608.141 L185.595 691.115 Q185.595 694.277 184.424 694.277 M176.46 686.372 L176.46 621.843 L111.697 654.107 L176.46 686.372 Z" fill="#000000" fill-rule="evenodd" fill-opacity="1" /><path clip-path="url(#clip700)" d="M67.9367 546.34 Q72.8144 546.34 77.6512 548.594 Q82.4879 550.849 86.1769 554.538 Q89.825 558.186 92.1204 563.186 Q94.4158 568.146 94.4158 573.229 Q94.4158 574.13 94.2108 575.975 Q109.336 578.844 109.582 578.926 Q110.443 579.295 110.975 580.033 Q111.508 580.73 111.631 581.222 Q111.754 581.713 111.754 582.041 Q111.754 582.861 111.18 583.681 Q110.648 584.46 109.418 584.46 Q109.131 584.46 107.737 584.05 L93.637 579.582 Q92.0794 586.345 87.7755 590.239 Q83.4307 594.133 77.5282 594.133 Q73.7572 594.133 68.8385 592.412 Q63.9198 590.69 60.5996 588.6 Q57.2795 586.509 57.2795 585.321 Q57.2795 584.296 58.1403 584.296 Q58.4682 584.296 59.206 584.952 Q63.018 588.272 68.5106 590.116 Q73.9621 591.92 76.5854 591.92 Q81.1762 591.92 84.4964 588.395 Q87.7755 584.829 89.0052 578.147 Q76.1346 574.171 70.724 571.794 Q59.9848 566.998 57.3615 560.768 Q56.3777 558.473 56.3777 555.931 Q56.3777 551.34 59.6159 548.84 Q62.813 546.34 67.9367 546.34 M69.7812 548.717 Q67.6088 548.717 65.7643 549.496 Q63.9198 550.234 62.6081 552.119 Q61.2555 554.005 61.2555 556.751 Q61.2555 562.244 66.5431 566.834 Q71.8307 571.425 80.0285 573.393 L89.1282 575.073 Q89.4561 575.073 89.4561 573.967 Q89.5381 573.311 89.5381 572.45 Q89.5381 567.777 87.7755 563.35 Q86.013 558.882 83.2257 555.726 Q80.4384 552.57 76.8724 550.644 Q73.3063 548.717 69.7812 548.717 Z" fill="#000000" fill-rule="evenodd" fill-opacity="1" /><path clip-path="url(#clip700)" d="M155.614 526.971 Q135.354 526.971 119.017 519.417 Q112.166 516.197 106.427 511.688 Q100.689 507.179 98.1708 504.193 Q95.6529 501.206 95.6529 500.387 Q95.6529 499.215 96.824 499.157 Q97.4096 499.157 98.8735 500.738 Q118.548 520.061 155.614 520.003 Q192.797 520.003 211.711 501.206 Q213.761 499.157 214.405 499.157 Q215.576 499.157 215.576 500.387 Q215.576 501.206 213.175 504.076 Q210.774 506.945 205.27 511.395 Q199.766 515.845 193.032 519.066 Q176.695 526.971 155.614 526.971 Z" fill="#000000" fill-rule="evenodd" fill-opacity="1" /><path clip-path="url(#clip700)" d="M140.507 430.313 Q143.786 430.313 145.66 432.362 Q147.475 434.412 147.475 436.754 Q147.475 438.979 146.187 440.15 Q144.899 441.321 143.259 441.321 Q141.034 441.321 139.102 439.682 Q137.169 438.042 136.759 435.583 Q135.237 437.984 135.237 441.556 Q135.237 443.898 136.466 445.947 Q137.696 447.938 139.277 449.168 Q140.858 450.339 143.142 451.393 Q145.367 452.389 146.714 452.798 Q148.002 453.15 149.407 453.443 L165.803 457.542 Q173.591 459.532 176.343 459.532 Q179.739 459.532 182.023 457.893 Q184.248 456.253 184.248 452.974 Q184.248 451.686 183.897 450.222 Q183.487 448.758 182.433 446.884 Q181.32 444.952 179.681 443.254 Q177.983 441.497 175.114 439.799 Q172.244 438.101 168.555 436.988 Q167.267 436.637 167.267 435.466 Q167.267 434.002 168.438 434.002 Q169.434 434.002 171.542 434.822 Q173.591 435.583 176.285 437.281 Q178.92 438.921 181.32 441.087 Q183.663 443.254 185.302 446.474 Q186.942 449.695 186.942 453.208 Q186.942 458.244 184.248 461.582 Q181.555 464.92 177.807 466.149 Q178.334 466.442 179.037 466.852 Q179.739 467.262 181.32 468.492 Q182.843 469.663 184.014 471.009 Q185.127 472.356 186.005 474.464 Q186.942 476.514 186.942 478.739 Q186.942 481.55 186.122 484.067 Q185.302 486.527 183.428 488.283 Q181.555 490.04 178.978 490.04 Q176.109 490.04 174.118 488.108 Q172.069 486.117 172.069 483.423 Q172.069 481.725 173.064 480.378 Q174.06 478.973 176.226 478.973 Q178.627 478.973 180.442 480.613 Q182.257 482.252 182.726 484.594 Q184.248 482.194 184.248 478.622 Q184.248 474.757 180.852 471.712 Q177.456 468.667 171.776 467.203 Q158.132 463.573 152.042 462.167 Q145.894 460.762 143.259 460.762 Q140.8 460.762 139.102 461.406 Q137.403 462.05 136.642 463.163 Q135.822 464.217 135.53 465.212 Q135.237 466.149 135.237 467.203 Q135.237 468.96 135.939 470.951 Q136.642 472.883 138.282 475.225 Q139.863 477.509 143.142 479.676 Q146.421 481.842 150.93 483.306 Q152.277 483.599 152.277 484.887 Q152.218 486.293 151.047 486.293 Q150.051 486.293 148.002 485.531 Q145.894 484.712 143.259 483.072 Q140.624 481.374 138.282 479.207 Q135.881 476.982 134.241 473.762 Q132.602 470.482 132.602 466.969 Q132.602 465.388 132.953 463.866 Q133.246 462.285 134.124 460.411 Q135.003 458.478 136.935 456.78 Q138.867 455.082 141.678 454.028 Q140.331 453.325 139.043 452.389 Q137.755 451.393 136.174 449.871 Q134.534 448.29 133.597 446.123 Q132.602 443.898 132.602 441.439 Q132.602 439.038 133.246 436.696 Q133.831 434.353 135.764 432.362 Q137.638 430.313 140.507 430.313 Z" fill="#000000" fill-rule="evenodd" fill-opacity="1" /><path clip-path="url(#clip700)" d="M105.959 412.618 Q102.972 412.618 101.743 410.803 Q100.454 408.987 100.454 407.055 Q100.454 404.654 101.918 403.132 Q103.324 401.551 105.959 401.551 Q107.13 401.551 107.774 401.668 L143.962 405.65 L143.962 408.402 L107.774 412.501 Q107.13 412.618 105.959 412.618 Z" fill="#000000" fill-rule="evenodd" fill-opacity="1" /><path clip-path="url(#clip700)" d="M214.405 379.617 Q213.819 379.617 212.355 378.094 Q192.68 358.771 155.614 358.771 Q118.431 358.771 99.6347 377.333 Q97.4681 379.617 96.824 379.617 Q95.6529 379.617 95.6529 378.445 Q95.6529 377.626 98.0537 374.756 Q100.454 371.829 105.959 367.437 Q111.463 362.987 118.197 359.707 Q134.534 351.802 155.614 351.802 Q175.875 351.802 192.212 359.356 Q199.063 362.577 204.801 367.086 Q210.54 371.594 213.058 374.581 Q215.576 377.567 215.576 378.445 Q215.576 379.617 214.405 379.617 Z" fill="#000000" fill-rule="evenodd" fill-opacity="1" /><path clip-path="url(#clip700)" d="M154.795 306.63 Q155.029 306.513 155.614 306.513 Q156.2 306.513 156.434 306.63 L213.995 328.94 Q215.576 329.525 215.576 331.165 Q215.576 332.16 214.873 332.863 Q214.17 333.566 213.175 333.566 Q212.589 333.566 212.355 333.448 L155.614 311.431 L98.8735 333.448 Q98.6392 333.566 98.0537 333.566 Q97.0582 333.566 96.3555 332.863 Q95.6529 332.16 95.6529 331.165 Q95.6529 329.525 97.2339 328.94 L154.795 306.63 Z" fill="#000000" fill-rule="evenodd" fill-opacity="1" /><polyline clip-path="url(#clip702)" style="stroke:#009af9; stroke-linecap:round; stroke-linejoin:round; stroke-width:12; stroke-opacity:1; fill:none" points="
  376.232,154.188 385.875,204.382 395.518,247.491 405.161,285.575 414.804,325.305 424.447,357.778 434.09,398.55 443.733,431.605 453.376,461.191 463.019,491.943 
  472.662,519.765 482.305,549.544 491.948,572.416 501.591,597.401 511.234,621.404 520.877,645.378 530.52,668.861 540.163,688.204 549.806,707.73 559.449,728.568 
  569.092,746.535 578.735,767.199 588.378,787.419 598.021,805.472 607.664,822.33 617.307,841.324 626.95,858.242 636.593,875.492 646.236,891.038 655.879,905.763 
  665.522,921.297 675.165,936.597 684.808,949.982 694.451,964.038 704.094,976.877 713.737,991.696 723.38,1003.01 733.023,1016.84 742.666,1029.71 752.309,1043.35 
  761.952,1055.32 771.595,1068.28 781.238,1082.54 790.881,1094.95 800.524,1106.93 810.167,1118.44 819.81,1130.83 829.453,1145.09 839.096,1156.42 848.739,1167.76 
  858.382,1179.33 868.025,1190.82 877.668,1204.64 887.311,1216.82 896.954,1227.76 906.597,1241.1 916.24,1253.98 925.883,1266.53 935.526,1279.75 945.169,1292.46 
  954.812,1301.34 964.455,1301.4 974.098,1300.95 983.741,1300.56 993.384,1300.9 1003.03,1302.04 1012.67,1303.48 1022.31,1303.25 1031.96,1301.21 1041.6,1302.07 
  1051.24,1300.25 1060.88,1299.38 1070.53,1298.7 1080.17,1300.11 1089.81,1300.25 1099.46,1300.92 1109.1,1301.44 1118.74,1301.44 1128.39,1301.36 1138.03,1301.64 
  1147.67,1303.31 1157.31,1300.54 1166.96,1300.38 1176.6,1302.35 1186.24,1303.58 1195.89,1303.66 1205.53,1306.21 1215.17,1306.43 1224.82,1306.58 1234.46,1304.6 
  1244.1,1305.7 1253.74,1307.09 1263.39,1306.79 1273.03,1307.75 1282.67,1307.75 1292.32,1307.23 1301.96,1309.66 1311.6,1310.03 1321.25,1309.14 1330.89,1310.03 
  1340.53,1310.62 1350.17,1311.37 1359.82,1311.22 1369.46,1311.66 1379.1,1311.14 1388.75,1311.14 1398.39,1310.85 1408.03,1309.22 1417.68,1310.33 1427.32,1310.48 
  1436.96,1311.29 1446.6,1311.59 1456.25,1311.07 1465.89,1312.86 1475.53,1313.08 1485.18,1313.98 1494.82,1312.71 1504.46,1311.07 1514.11,1310.48 1523.75,1310.33 
  1533.39,1311.14 1543.03,1311.66 1552.68,1312.18 1562.32,1311.87 1571.96,1312.46 1581.61,1310.47 1591.25,1308.7 1600.89,1309.07 1610.54,1308.92 1620.18,1309.07 
  1629.82,1310.25 1639.46,1309.81 1649.11,1310.1 1658.75,1309.73 1668.39,1309.07 1678.04,1309.22 1687.68,1307.38 1697.32,1306.07 1706.96,1305.56 1716.61,1305.65 
  1726.25,1306.81 1735.89,1307.76 1745.54,1307.04 1755.18,1306.9 1764.82,1306.97 1774.47,1304.95 1784.11,1303.88 1793.75,1302.6 1803.39,1302.46 1813.04,1302.82 
  1822.68,1301.86 1832.32,1301.58 1841.97,1300.8 1851.61,1299.7 1861.25,1301.06 1870.9,1300.92 1880.54,1300.24 1890.18,1301.17 1899.82,1302.4 1909.47,1301.52 
  1919.11,1300.41 1928.75,1299.15 1938.4,1299.38 1948.04,1297.22 1957.68,1298.54 1967.33,1301.07 1976.97,1300.8 1986.61,1301.33 1996.25,1300.31 2005.9,1299.43 
  2015.54,1299.28 2025.18,1300.53 2034.83,1300.39 2044.47,1298.06 2054.11,1298.28 2063.76,1297.21 2073.4,1297.17 2083.04,1296.63 2092.68,1296.67 2102.33,1296.61 
  2111.97,1295.96 2121.61,1295.23 2131.26,1296.65 2140.9,1297.41 2150.54,1295.79 2160.19,1297.55 2169.83,1298.78 2179.47,1299.83 2189.11,1300.96 2198.76,1299.99 
  2208.4,1300.5 2218.04,1301.78 2227.69,1301.44 2237.33,1300.15 2246.97,1299.04 2256.62,1299.21 2266.26,1299.73 2275.9,1300.06 2285.54,1299.37 2295.19,1298.7 
  
  "/>
<polyline clip-path="url(#clip702)" style="stroke:#e26f46; stroke-linecap:round; stroke-linejoin:round; stroke-width:12; stroke-opacity:1; fill:none" points="
  376.232,745.257 385.875,748.781 395.518,749.706 405.161,748.654 414.804,748.885 424.447,747.467 434.09,747.544 443.733,745.487 453.376,743.049 463.019,741.593 
  472.662,738.432 482.305,734.974 491.948,729.406 501.591,726.601 511.234,723.331 520.877,720.518 530.52,716.763 540.163,712.143 549.806,707.537 559.449,704.001 
  569.092,701.602 578.735,718.965 588.378,735.934 598.021,750.937 607.664,764.956 617.307,780.868 626.95,794.832 636.593,809.178 646.236,821.649 655.879,833.155 
  665.522,845.717 675.165,857.972 684.808,868.868 694.451,879.935 704.094,890.132 713.737,901.933 723.38,910.752 733.023,921.308 742.666,931.071 752.309,941.417 
  761.952,950.344 771.595,960.513 781.238,971.872 790.881,981.385 800.524,990.413 810.167,998.907 819.81,1008.28 829.453,1019.06 839.096,1027.56 848.739,1036.13 
  858.382,1044.27 868.025,1052.94 877.668,1063.63 887.311,1072.82 896.954,1080.57 906.597,1090.23 916.24,1099.95 925.883,1108.55 935.526,1117.81 945.169,1126.85 
  954.812,1135.92 964.455,1143.8 974.098,1150.9 983.741,1158.68 993.384,1167.98 1003.03,1177.55 1012.67,1186.06 1022.31,1194.22 1031.96,1202.63 1041.6,1212.31 
  1051.24,1220.65 1060.88,1229.91 1070.53,1239.05 1080.17,1248.34 1089.81,1258.05 1099.46,1266.24 1109.1,1275.83 1118.74,1283.75 1128.39,1292.77 1138.03,1301.83 
  1147.67,1307.49 1157.31,1305.48 1166.96,1305.37 1176.6,1306.8 1186.24,1307.7 1195.89,1307.75 1205.53,1309.61 1215.17,1309.77 1224.82,1309.88 1234.46,1308.44 
  1244.1,1309.24 1253.74,1310.25 1263.39,1310.04 1273.03,1310.73 1282.67,1310.73 1292.32,1310.36 1301.96,1312.13 1311.6,1312.4 1321.25,1311.76 1330.89,1312.41 
  1340.53,1312.84 1350.17,1313.39 1359.82,1313.27 1369.46,1313.6 1379.1,1313.22 1388.75,1313.22 1398.39,1313 1408.03,1311.81 1417.68,1312.62 1427.32,1312.73 
  1436.96,1313.32 1446.6,1313.54 1456.25,1313.16 1465.89,1314.47 1475.53,1314.63 1485.18,1315.29 1494.82,1314.36 1504.46,1313.16 1514.11,1312.73 1523.75,1312.62 
  1533.39,1313 1543.03,1312.84 1552.68,1312.35 1562.32,1311.59 1571.96,1311.27 1581.61,1311.86 1591.25,1312.4 1600.89,1312.02 1610.54,1311.37 1620.18,1312.01 
  1629.82,1312.98 1639.46,1312.87 1649.11,1312.87 1658.75,1312.7 1668.39,1313.93 1678.04,1316.09 1687.68,1315.26 1697.32,1314.93 1706.96,1314.76 1716.61,1314.16 
  1726.25,1315.65 1735.89,1316.32 1745.54,1315.76 1755.18,1315.67 1764.82,1315.71 1774.47,1314.23 1784.11,1313.43 1793.75,1312.48 1803.39,1312.37 1813.04,1312.63 
  1822.68,1311.96 1832.32,1311.75 1841.97,1311.17 1851.61,1310.39 1861.25,1311.39 1870.9,1311.28 1880.54,1310.82 1890.18,1311.5 1899.82,1312.4 1909.47,1311.77 
  1919.11,1310.98 1928.75,1310.09 1938.4,1310.3 1948.04,1308.76 1957.68,1309.78 1967.33,1311.68 1976.97,1311.53 1986.61,1311.99 1996.25,1311.28 2005.9,1310.68 
  2015.54,1310.63 2025.18,1311.6 2034.83,1311.56 2044.47,1309.92 2054.11,1310.15 2063.76,1309.47 2073.4,1309.53 2083.04,1309.23 2092.68,1309.35 2102.33,1309.41 
  2111.97,1310.03 2121.61,1310.91 2131.26,1310.42 2140.9,1311.27 2150.54,1309.68 2160.19,1307.79 2169.83,1307.58 2179.47,1307.62 2189.11,1308 2198.76,1307.91 
  2208.4,1307.68 2218.04,1307.43 2227.69,1307.39 2237.33,1307.28 2246.97,1305.19 2256.62,1305.87 2266.26,1305.7 2275.9,1305.7 2285.54,1305.94 2295.19,1306.44 
  
  "/>
<polyline clip-path="url(#clip702)" style="stroke:#3da44d; stroke-linecap:round; stroke-linejoin:round; stroke-width:12; stroke-opacity:1; fill:none" points="
  376.232,1053.27 385.875,1049.57 395.518,1044.91 405.161,1039.47 414.804,1034.74 424.447,1029.74 434.09,1024.77 443.733,1019.24 453.376,1013.87 463.019,1009.06 
  472.662,1003.39 482.305,997.282 491.948,990.531 501.591,985.47 511.234,980.203 520.877,975.261 530.52,969.716 540.163,964.068 549.806,958.409 559.449,953.344 
  569.092,948.661 578.735,944.039 588.378,939.443 598.021,934.805 607.664,930.505 617.307,926.087 626.95,921.397 636.593,917.001 646.236,911.386 655.879,904.965 
  665.522,899.721 675.165,894.132 684.808,889.872 694.451,884.044 704.094,879.038 713.737,873.379 723.38,868.364 733.023,861.428 742.666,854.766 752.309,847.674 
  761.952,843.446 771.595,853.017 781.238,863.84 790.881,872.612 800.524,880.806 810.167,888.366 819.81,896.897 829.453,906.723 839.096,914.398 848.739,922.201 
  858.382,929.109 868.025,936.983 877.668,946.933 887.311,955.284 896.954,961.896 906.597,970.346 916.24,979.172 925.883,986.273 935.526,994.093 945.169,1001.84 
  954.812,1009.72 964.455,1016.37 974.098,1022.31 983.741,1028.61 993.384,1036.35 1003.03,1044.5 1012.67,1051.55 1022.31,1058.41 1031.96,1065.71 1041.6,1073.93 
  1051.24,1081.3 1060.88,1089.49 1070.53,1097.23 1080.17,1105.67 1089.81,1114.1 1099.46,1121.59 1109.1,1130.11 1118.74,1137.09 1128.39,1144.91 1138.03,1152.58 
  1147.67,1159.88 1157.31,1166.74 1166.96,1174.94 1176.6,1181.63 1186.24,1188.55 1195.89,1196.44 1205.53,1204.22 1215.17,1211.73 1224.82,1219.55 1234.46,1227.42 
  1244.1,1235.29 1253.74,1242.46 1263.39,1249.65 1273.03,1257.81 1282.67,1265.08 1292.32,1273.19 1301.96,1280.72 1311.6,1289.69 1321.25,1298.82 1330.89,1307.17 
  1340.53,1312.73 1350.17,1313.21 1359.82,1313.11 1369.46,1313.39 1379.1,1313.06 1388.75,1313.06 1398.39,1312.87 1408.03,1311.83 1417.68,1312.54 1427.32,1312.63 
  1436.96,1313.15 1446.6,1313.35 1456.25,1313.01 1465.89,1314.16 1475.53,1314.3 1485.18,1314.87 1494.82,1314.06 1504.46,1313.01 1514.11,1312.63 1523.75,1312.54 
  1533.39,1312.87 1543.03,1312.73 1552.68,1312.3 1562.32,1311.64 1571.96,1311.35 1581.61,1311.87 1591.25,1312.34 1600.89,1312.01 1610.54,1311.44 1620.18,1312 
  1629.82,1312.85 1639.46,1312.76 1649.11,1312.75 1658.75,1312.61 1668.39,1313.69 1678.04,1315.57 1687.68,1314.85 1697.32,1314.56 1706.96,1314.41 1716.61,1313.88 
  1726.25,1314.91 1735.89,1314.29 1745.54,1313.26 1755.18,1314.65 1764.82,1314.59 1774.47,1314.49 1784.11,1313.79 1793.75,1313.23 1803.39,1313.04 1813.04,1312.72 
  1822.68,1313.97 1832.32,1313.6 1841.97,1312.45 1851.61,1313.05 1861.25,1312.37 1870.9,1311.54 1880.54,1311.96 1890.18,1310.9 1899.82,1309.66 1909.47,1308.92 
  1919.11,1308.13 1928.75,1307.34 1938.4,1307.52 1948.04,1306.15 1957.68,1307.03 1967.33,1308.67 1976.97,1308.53 1986.61,1308.91 1996.25,1308.28 2005.9,1307.74 
  2015.54,1307.68 2025.18,1308.5 2034.83,1308.45 2044.47,1306.99 2054.11,1307.17 2063.76,1306.54 2073.4,1306.57 2083.04,1306.28 2092.68,1306.35 2102.33,1306.37 
  2111.97,1306.88 2121.61,1307.6 2131.26,1307.14 2140.9,1307.84 2150.54,1306.41 2160.19,1304.73 2169.83,1304.51 2179.47,1304.5 2189.11,1304.77 2198.76,1304.64 
  2208.4,1304.38 2218.04,1304.07 2227.69,1303.98 2237.33,1303.8 2246.97,1301.91 2256.62,1302.4 2266.26,1302.17 2275.9,1302.06 2285.54,1302.17 2295.19,1302.48 
  
  "/>
<polyline clip-path="url(#clip702)" style="stroke:#c271d2; stroke-linecap:round; stroke-linejoin:round; stroke-width:12; stroke-opacity:1; fill:none" points="
  376.232,1301.27 385.875,1290.78 395.518,1280.68 405.161,1270.8 414.804,1261.18 424.447,1252.48 434.09,1242.52 443.733,1233.35 453.376,1224.84 463.019,1216.54 
  472.662,1208.09 482.305,1199 491.948,1190.51 501.591,1182.94 511.234,1175.36 520.877,1168.03 530.52,1160.33 540.163,1153.2 549.806,1146.03 559.449,1139.1 
  569.092,1132.89 578.735,1126.3 588.378,1119.8 598.021,1113.61 607.664,1107.85 617.307,1101.67 626.95,1095.62 636.593,1089.73 646.236,1083.21 655.879,1076.23 
  665.522,1069.99 675.165,1063.53 684.808,1058.34 694.451,1051.89 704.094,1046.24 713.737,1039.81 723.38,1034.38 733.023,1027.17 742.666,1020.3 752.309,1012.99 
  761.952,1006.2 771.595,1000.18 781.238,993.988 790.881,987.628 800.524,981.061 810.167,974.283 819.81,967.586 829.453,959.879 839.096,953.572 848.739,947.428 
  858.382,939.581 868.025,933.3 877.668,926.495 887.311,919.852 896.954,912.534 906.597,904.222 916.24,897.184 925.883,888.078 935.526,878.988 945.169,870.594 
  954.812,867.285 964.455,873.504 974.098,879.018 983.741,884.633 993.384,891.759 1003.03,899.485 1012.67,905.944 1022.31,912.34 1031.96,919.382 1041.6,927.153 
  1051.24,934.384 1060.88,942.458 1070.53,949.74 1080.17,958.278 1089.81,966.42 1099.46,974.036 1109.1,982.475 1118.74,989.32 1128.39,996.854 1138.03,1004.07 
  1147.67,1011.11 1157.31,1017.7 1166.96,1025.52 1176.6,1031.99 1186.24,1038.28 1195.89,1046.12 1205.53,1053.56 1215.17,1060.62 1224.82,1068.37 1234.46,1076.18 
  1244.1,1083.84 1253.74,1090.71 1263.39,1097.5 1273.03,1105.13 1282.67,1112.15 1292.32,1120.06 1301.96,1126.89 1311.6,1135.54 1321.25,1144.59 1330.89,1152.38 
  1340.53,1160.85 1350.17,1167.69 1359.82,1175.02 1369.46,1181.95 1379.1,1189.39 1388.75,1196.61 1398.39,1204.26 1408.03,1211.78 1417.68,1218.46 1427.32,1226.31 
  1436.96,1233.63 1446.6,1240.94 1456.25,1248.02 1465.89,1255.85 1475.53,1263.34 1485.18,1271.23 1494.82,1278.34 1504.46,1286.4 1514.11,1294.24 1523.75,1301.77 
  1533.39,1305.11 1543.03,1304.98 1552.68,1304.57 1562.32,1303.94 1571.96,1303.67 1581.61,1304.16 1591.25,1304.62 1600.89,1304.31 1610.54,1303.78 1620.18,1304.32 
  1629.82,1305.13 1639.46,1305.05 1649.11,1305.05 1658.75,1304.92 1668.39,1305.96 1678.04,1307.78 1687.68,1307.1 1697.32,1306.84 1706.96,1306.71 1716.61,1306.22 
  1726.25,1307.21 1735.89,1306.63 1745.54,1305.65 1755.18,1307 1764.82,1306.95 1774.47,1306.87 1784.11,1306.2 1793.75,1305.68 1803.39,1305.5 1813.04,1305.19 
  1822.68,1306.38 1832.32,1306.03 1841.97,1304.92 1851.61,1305.49 1861.25,1304.81 1870.9,1304.01 1880.54,1304.4 1890.18,1303.36 1899.82,1302.13 1909.47,1301.41 
  1919.11,1301.35 1928.75,1301.37 1938.4,1302.42 1948.04,1302.99 1957.68,1303.27 1967.33,1303.17 1976.97,1303.19 1986.61,1304.45 1996.25,1304.29 2005.9,1304.12 
  2015.54,1304.61 2025.18,1304.14 2034.83,1303.87 2044.47,1304.28 2054.11,1304.33 2063.76,1305.37 2073.4,1305.58 2083.04,1306 2092.68,1305.86 2102.33,1306.19 
  2111.97,1306.67 2121.61,1307.38 2131.26,1306.93 2140.9,1307.6 2150.54,1306.21 2160.19,1304.56 2169.83,1304.34 2179.47,1304.33 2189.11,1304.59 2198.76,1304.46 
  2208.4,1304.2 2218.04,1303.9 2227.69,1303.8 2237.33,1303.62 2246.97,1301.76 2256.62,1302.24 2266.26,1302 2275.9,1301.89 2285.54,1301.99 2295.19,1302.28 
  
  "/>
<polyline clip-path="url(#clip702)" style="stroke:#ac8d18; stroke-linecap:round; stroke-linejoin:round; stroke-width:12; stroke-opacity:1; fill:none" points="
  376.232,1302.59 385.875,1302.64 395.518,1303.28 405.161,1304.14 414.804,1305.12 424.447,1305.52 434.09,1304.53 443.733,1303.92 453.376,1304.81 463.019,1305.31 
  472.662,1306.32 482.305,1306.02 491.948,1307.79 501.591,1307.92 511.234,1308.16 520.877,1306.79 530.52,1306.1 540.163,1306.68 549.806,1307.03 559.449,1307.1 
  569.092,1306.49 578.735,1297.7 588.378,1289.06 598.021,1281.07 607.664,1273.64 617.307,1265.47 626.95,1257.82 636.593,1250.21 646.236,1242.53 655.879,1234.7 
  665.522,1227.21 675.165,1219.62 684.808,1213.3 694.451,1205.98 704.094,1199.45 713.737,1191.98 723.38,1185.93 733.023,1178.13 742.666,1170.77 752.309,1162.95 
  761.952,1155.83 771.595,1149.02 781.238,1141.83 790.881,1134.91 800.524,1127.94 810.167,1120.93 819.81,1113.78 829.453,1105.56 839.096,1098.9 848.739,1092.35 
  858.382,1084.6 868.025,1077.92 877.668,1070.41 887.311,1063.34 896.954,1056.08 906.597,1047.64 916.24,1040.15 925.883,1031.34 935.526,1022.39 945.169,1014.02 
  954.812,1005.93 964.455,998.295 974.098,991.269 983.741,982.921 993.384,973.571 1003.03,964.558 1012.67,955.921 1022.31,947.93 1031.96,940.408 1041.6,931.236 
  1051.24,924.139 1060.88,916.35 1070.53,907.597 1080.17,900.446 1089.81,891.773 1099.46,885.616 1109.1,877.665 1118.74,870.895 1128.39,862.804 1138.03,854.107 
  1147.67,852.282 1157.31,858.883 1166.96,866.658 1176.6,873.185 1186.24,879.117 1195.89,887.244 1205.53,894.67 1215.17,901.577 1224.82,909.591 1234.46,917.667 
  1244.1,925.448 1253.74,932.312 1263.39,939.003 1273.03,946.441 1282.67,953.501 1292.32,961.555 1301.96,967.978 1311.6,976.678 1321.25,986.033 1330.89,993.601 
  1340.53,1002.13 1350.17,1008.75 1359.82,1016.37 1369.46,1023.46 1379.1,1031.21 1388.75,1038.5 1398.39,1046.18 1408.03,1054.24 1417.68,1060.79 1427.32,1068.84 
  1436.96,1076.15 1446.6,1083.48 1456.25,1090.82 1465.89,1098.31 1475.53,1105.86 1485.18,1113.71 1494.82,1121.2 1504.46,1129.77 1514.11,1137.98 1523.75,1145.69 
  1533.39,1153.08 1543.03,1160.03 1552.68,1167.23 1562.32,1176.04 1571.96,1184.22 1581.61,1193.25 1591.25,1201.83 1600.89,1209.78 1610.54,1217.7 1620.18,1225.54 
  1629.82,1233.68 1639.46,1242.01 1649.11,1249.86 1658.75,1257.49 1668.39,1266.3 1678.04,1273.8 1687.68,1281.11 1697.32,1288.96 1706.96,1296.7 1716.61,1305.15 
  1726.25,1307.82 1735.89,1307.22 1745.54,1306.23 1755.18,1307.6 1764.82,1307.55 1774.47,1307.47 1784.11,1306.79 1793.75,1306.25 1803.39,1306.07 1813.04,1305.75 
  1822.68,1306.97 1832.32,1306.61 1841.97,1305.48 1851.61,1306.06 1861.25,1305.37 1870.9,1304.55 1880.54,1304.95 1890.18,1303.9 1899.82,1302.65 1909.47,1301.91 
  1919.11,1301.85 1928.75,1301.88 1938.4,1302.95 1948.04,1303.53 1957.68,1303.82 1967.33,1303.73 1976.97,1303.75 1986.61,1305.04 1996.25,1304.88 2005.9,1304.71 
  2015.54,1305.21 2025.18,1304.74 2034.83,1304.47 2044.47,1304.88 2054.11,1304.94 2063.76,1306.01 2073.4,1306.23 2083.04,1306.66 2092.68,1306.53 2102.33,1306.87 
  2111.97,1306.42 2121.61,1307.99 2131.26,1307.32 2140.9,1308.35 2150.54,1307.27 2160.19,1306.07 2169.83,1304.94 2179.47,1304.94 2189.11,1305.81 2198.76,1304.86 
  2208.4,1304.35 2218.04,1304.55 2227.69,1304.08 2237.33,1304.3 2246.97,1303.88 2256.62,1303.2 2266.26,1304.09 2275.9,1303.18 2285.54,1301.43 2295.19,1300.51 
  
  "/>
<polyline clip-path="url(#clip702)" style="stroke:#00a9ad; stroke-linecap:round; stroke-linejoin:round; stroke-width:12; stroke-opacity:1; fill:none" points="
  376.232,1310.11 385.875,1309.94 395.518,1310.41 405.161,1311.15 414.804,1311.98 424.447,1312.27 434.09,1311.1 443.733,1310.37 453.376,1311.16 463.019,1311.56 
  472.662,1312.49 482.305,1312.08 491.948,1313.82 501.591,1313.88 511.234,1314.05 520.877,1312.57 530.52,1311.8 540.163,1312.33 549.806,1312.64 559.449,1312.65 
  569.092,1312.41 578.735,1312.42 588.378,1312.7 598.021,1312.67 607.664,1311.81 617.307,1310.61 626.95,1310.1 636.593,1309.34 646.236,1308.89 655.879,1310.43 
  665.522,1309.44 675.165,1309 684.808,1308.76 694.451,1309.24 704.094,1308.81 713.737,1309.15 723.38,1309.24 733.023,1309.77 742.666,1310.85 752.309,1311.88 
  761.952,1311.13 771.595,1303.53 781.238,1295.31 790.881,1287.83 800.524,1280.45 810.167,1273.19 819.81,1265.6 829.453,1256.85 839.096,1249.85 848.739,1242.89 
  858.382,1235.24 868.025,1228.17 877.668,1219.93 887.311,1212.44 896.954,1205.24 906.597,1196.68 916.24,1188.75 925.883,1180.24 935.526,1171.46 945.169,1163.13 
  954.812,1154.98 964.455,1147.49 974.098,1140.64 983.741,1132.7 993.384,1123.63 1003.03,1114.71 1012.67,1106.36 1022.31,1098.54 1031.96,1090.97 1041.6,1081.91 
  1051.24,1074.65 1060.88,1066.65 1070.53,1058.03 1080.17,1050.45 1089.81,1041.72 1099.46,1035.14 1109.1,1026.93 1118.74,1020.02 1128.39,1011.88 1138.03,1003.33 
  1147.67,995.752 1157.31,988.532 1166.96,979.739 1176.6,972.834 1186.24,964.438 1195.89,956.936 1205.53,948.677 1215.17,940.277 1224.82,932.777 1234.46,925.269 
  1244.1,917.3 1253.74,909.701 1263.39,901.789 1273.03,892.581 1282.67,885.004 1292.32,876.861 1301.96,867.683 1311.6,858.364 1321.25,849.608 1330.89,840.105 
  1340.53,838.162 1350.17,844.531 1359.82,852.436 1369.46,859.68 1379.1,867.735 1388.75,875.094 1398.39,882.791 1408.03,891.399 1417.68,897.79 1427.32,906.05 
  1436.96,913.33 1446.6,920.682 1456.25,928.273 1465.89,935.401 1475.53,942.987 1485.18,950.803 1494.82,958.661 1504.46,967.745 1514.11,976.333 1523.75,984.21 
  1533.39,991.5 1543.03,998.645 1552.68,1006.12 1562.32,1015.46 1571.96,1023.88 1581.61,1032.88 1591.25,1041.59 1600.89,1049.94 1610.54,1058.35 1620.18,1066.25 
  1629.82,1074.24 1639.46,1082.84 1649.11,1090.95 1658.75,1098.91 1668.39,1107.72 1678.04,1114.88 1687.68,1122.88 1697.32,1131.28 1706.96,1139.49 1716.61,1148.54 
  1726.25,1155.56 1735.89,1163.83 1745.54,1171.95 1755.18,1179.65 1764.82,1188.68 1774.47,1195.82 1784.11,1203.02 1793.75,1211.02 1803.39,1218.35 1813.04,1225.78 
  1822.68,1234.4 1832.32,1241.08 1841.97,1249.28 1851.61,1256.9 1861.25,1265.1 1870.9,1272.32 1880.54,1280.44 1890.18,1288.8 1899.82,1297.19 1909.47,1304.92 
  1919.11,1306.91 1928.75,1306.95 1938.4,1308.07 1948.04,1308.68 1957.68,1309.01 1967.33,1308.96 1976.97,1309 1986.61,1310.36 1996.25,1310.22 2005.9,1310.08 
  2015.54,1310.62 2025.18,1310.19 2034.83,1309.94 2044.47,1310.4 2054.11,1310.51 2063.76,1311.65 2073.4,1311.93 2083.04,1312.43 2092.68,1312.36 2102.33,1312.77 
  2111.97,1312.37 2121.61,1314.07 2131.26,1313.45 2140.9,1314.6 2150.54,1313.56 2160.19,1312.39 2169.83,1311.33 2179.47,1311.41 2189.11,1312.41 2198.76,1311.54 
  2208.4,1311.15 2218.04,1311.51 2227.69,1311.16 2237.33,1311.53 2246.97,1311.24 2256.62,1310.73 2266.26,1311.83 2275.9,1311.1 2285.54,1309.51 2295.19,1308.83 
  
  "/>
<polyline clip-path="url(#clip702)" style="stroke:#ed5d92; stroke-linecap:round; stroke-linejoin:round; stroke-width:12; stroke-opacity:1; fill:none" points="
  376.232,1311.29 385.875,1311.09 395.518,1311.54 405.161,1312.25 414.804,1313.06 424.447,1313.32 434.09,1312.13 443.733,1311.38 453.376,1312.16 463.019,1312.54 
  472.662,1313.46 482.305,1313.03 491.948,1314.76 501.591,1314.8 511.234,1314.96 520.877,1313.47 530.52,1312.69 540.163,1313.22 549.806,1313.51 559.449,1313.52 
  569.092,1313.26 578.735,1313.27 588.378,1313.54 598.021,1313.5 607.664,1312.63 617.307,1311.43 626.95,1310.9 636.593,1310.14 646.236,1309.69 655.879,1311.22 
  665.522,1310.22 675.165,1309.78 684.808,1309.53 694.451,1310.01 704.094,1309.58 713.737,1309.91 723.38,1310 733.023,1310.52 742.666,1311.61 752.309,1312.64 
  761.952,1313.29 771.595,1311.96 781.238,1311.15 790.881,1309.94 800.524,1309.85 810.167,1310.45 819.81,1310.63 829.453,1310.54 839.096,1309.98 848.739,1309.15 
  858.382,1309.52 868.025,1309.29 877.668,1308.42 887.311,1307.42 896.954,1307.83 906.597,1306.87 916.24,1305.55 925.883,1306.09 935.526,1306.27 945.169,1305.62 
  954.812,1302.96 964.455,1295.73 974.098,1289.16 983.741,1281.74 993.384,1273.09 1003.03,1264.39 1012.67,1256.45 1022.31,1248.93 1031.96,1241.44 1041.6,1232.63 
  1051.24,1225.32 1060.88,1217.24 1070.53,1208.89 1080.17,1201.01 1089.81,1192.36 1099.46,1185.47 1109.1,1177.15 1118.74,1170.19 1128.39,1162.15 1138.03,1153.86 
  1147.67,1146.36 1157.31,1139.24 1166.96,1130.63 1176.6,1123.78 1186.24,1115.85 1195.89,1108.2 1205.53,1100.08 1215.17,1091.96 1224.82,1084.33 1234.46,1076.7 
  1244.1,1068.74 1253.74,1061.27 1263.39,1053.58 1273.03,1044.69 1282.67,1037.2 1292.32,1029.05 1301.96,1020.39 1311.6,1011.17 1321.25,1002.27 1330.89,993.123 
  1340.53,984.14 1350.17,975.995 1359.82,968.937 1369.46,961.9 1379.1,954.751 1388.75,947.14 1398.39,938.926 1408.03,932.418 1417.68,924.737 1427.32,916.86 
  1436.96,908.866 1446.6,901.016 1456.25,894.103 1465.89,884.562 1475.53,876.599 1485.18,867.945 1494.82,861.371 1504.46,854.158 1514.11,846.801 1523.75,839.172 
  1533.39,838.761 1543.03,845.984 1552.68,853.61 1562.32,863.315 1571.96,871.828 1581.61,880.656 1591.25,889.377 1600.89,897.982 1610.54,906.735 1620.18,914.552 
  1629.82,922.293 1639.46,931.016 1649.11,939.249 1658.75,947.399 1668.39,956.077 1678.04,962.787 1687.68,971.331 1697.32,980.145 1706.96,988.682 1716.61,998.169 
  1726.25,1005.02 1735.89,1013.65 1745.54,1022.39 1755.18,1029.85 1764.82,1039.06 1774.47,1046.55 1784.11,1054.14 1793.75,1062.49 1803.39,1069.88 1813.04,1077.31 
  1822.68,1085.55 1832.32,1092.27 1841.97,1100.76 1851.61,1108.13 1861.25,1116.08 1870.9,1123.32 1880.54,1131.05 1890.18,1139.21 1899.82,1147.35 1909.47,1155 
  1919.11,1162.48 1928.75,1170.91 1938.4,1176.94 1948.04,1184.24 1957.68,1191.68 1967.33,1198.76 1976.97,1207.06 1986.61,1213.74 1996.25,1221.21 2005.9,1228.88 
  2015.54,1235.96 2025.18,1243.89 2034.83,1251.43 2044.47,1260.1 2054.11,1268.88 2063.76,1277.2 2073.4,1286.35 2083.04,1295.37 2092.68,1304.22 2102.33,1313.51 
  2111.97,1314.75 2121.61,1316.49 2131.26,1315.89 2140.9,1317.07 2150.54,1316.06 2160.19,1314.92 2169.83,1313.88 2179.47,1314 2189.11,1315.05 2198.76,1314.22 
  2208.4,1313.87 2218.04,1314.29 2227.69,1314 2237.33,1314.43 2246.97,1314.18 2256.62,1313.76 2266.26,1314.92 2275.9,1314.27 2285.54,1312.76 2295.19,1312.19 
  
  "/>
<polyline clip-path="url(#clip702)" style="stroke:#c68125; stroke-linecap:round; stroke-linejoin:round; stroke-width:12; stroke-opacity:1; fill:none" points="
  376.232,1305.35 385.875,1304.19 395.518,1303.69 405.161,1304.82 414.804,1304.19 424.447,1305.12 434.09,1306.43 443.733,1308.04 453.376,1308.49 463.019,1308.33 
  472.662,1308.46 482.305,1309.76 491.948,1310.68 501.591,1310.78 511.234,1311.1 520.877,1312.35 530.52,1313.36 540.163,1313.98 549.806,1314.58 559.449,1314.47 
  569.092,1314.53 578.735,1314.52 588.378,1314.77 598.021,1314.71 607.664,1313.85 617.307,1312.65 626.95,1312.12 636.593,1311.36 646.236,1310.9 655.879,1312.4 
  665.522,1311.42 675.165,1310.97 684.808,1310.72 694.451,1311.19 704.094,1310.76 713.737,1311.08 723.38,1311.16 733.023,1311.67 742.666,1312.74 752.309,1313.75 
  761.952,1314.39 771.595,1313.08 781.238,1312.27 790.881,1311.08 800.524,1310.98 810.167,1311.57 819.81,1311.75 829.453,1311.65 839.096,1311.11 848.739,1310.29 
  858.382,1310.65 868.025,1310.42 877.668,1309.56 887.311,1308.57 896.954,1308.98 906.597,1308.03 916.24,1306.73 925.883,1307.26 935.526,1307.44 945.169,1306.81 
  954.812,1306.35 964.455,1306.57 974.098,1306.66 983.741,1307.52 993.384,1307.92 1003.03,1307.55 1012.67,1308.1 1022.31,1308.69 1031.96,1308.79 1041.6,1308.97 
  1051.24,1308.83 1060.88,1308.56 1070.53,1309.06 1080.17,1307.82 1089.81,1308 1099.46,1306.86 1109.1,1306.35 1118.74,1306.17 1128.39,1306.4 1138.03,1307.04 
  1147.67,1304.32 1157.31,1297.41 1166.96,1289.1 1176.6,1282.41 1186.24,1275.07 1195.89,1267.39 1205.53,1259.53 1215.17,1251.8 1224.82,1244.17 1234.46,1236.5 
  1244.1,1228.68 1253.74,1221.44 1263.39,1214.08 1273.03,1205.66 1282.67,1198.36 1292.32,1190.32 1301.96,1182.32 1311.6,1173.33 1321.25,1164.42 1330.89,1155.77 
  1340.53,1147 1350.17,1139.33 1359.82,1132.21 1369.46,1125.23 1379.1,1118.01 1388.75,1110.56 1398.39,1102.57 1408.03,1095.75 1417.68,1088.44 1427.32,1080.6 
  1436.96,1072.87 1446.6,1065.23 1456.25,1058.29 1465.89,1049.37 1475.53,1041.6 1485.18,1033.24 1494.82,1026.51 1504.46,1019.03 1514.11,1011.54 1523.75,1003.98 
  1533.39,995.936 1543.03,989.235 1552.68,982.513 1562.32,974.83 1571.96,966.954 1581.61,957.396 1591.25,948.842 1600.89,941.697 1610.54,934.831 1620.18,926.76 
  1629.82,917.845 1639.46,909.909 1649.11,902.447 1658.75,895.418 1668.39,886.194 1678.04,877.32 1687.68,871.691 1697.32,865.126 1706.96,858.387 1716.61,851.294 
  1726.25,853.816 1735.89,862.71 1745.54,871.951 1755.18,879.066 1764.82,888.32 1774.47,896.059 1784.11,903.961 1793.75,912.551 1803.39,919.886 1813.04,927.222 
  1822.68,934.954 1832.32,941.611 1841.97,950.278 1851.61,957.286 1861.25,964.872 1870.9,972.013 1880.54,979.241 1890.18,987.061 1899.82,994.835 1909.47,1002.29 
  1919.11,1009.36 1928.75,1017.23 1938.4,1022.23 1948.04,1028.98 1957.68,1035.2 1967.33,1040.94 1976.97,1048.24 1986.61,1053.45 1996.25,1060.16 2005.9,1066.97 
  2015.54,1072.79 2025.18,1079.32 2034.83,1085.73 2044.47,1093.27 2054.11,1100.37 2063.76,1106.95 2073.4,1114.19 2083.04,1121.31 2092.68,1128.3 2102.33,1135.4 
  2111.97,1142.48 2121.61,1148.53 2131.26,1156.06 2140.9,1162.88 2150.54,1172.05 2160.19,1181.33 2169.83,1188.79 2179.47,1195.46 2189.11,1202.81 2198.76,1211.28 
  2208.4,1220.56 2218.04,1230.83 2227.69,1239.92 2237.33,1249.3 2246.97,1260.03 2256.62,1270.72 2266.26,1280.24 2275.9,1291.39 2285.54,1303.32 2295.19,1316.72 
  
  "/>
<polyline clip-path="url(#clip702)" style="stroke:#00a98d; stroke-linecap:round; stroke-linejoin:round; stroke-width:12; stroke-opacity:1; fill:none" points="
  376.232,1301.08 385.875,1300.04 395.518,1299.64 405.161,1300.85 414.804,1300.31 424.447,1301.31 434.09,1302.7 443.733,1304.38 453.376,1304.88 463.019,1304.78 
  472.662,1304.97 482.305,1306.32 491.948,1307.27 501.591,1307.41 511.234,1307.77 520.877,1309.07 530.52,1310.11 540.163,1310.76 549.806,1311.39 559.449,1311.31 
  569.092,1311.61 578.735,1310.91 588.378,1309.86 598.021,1309.44 607.664,1309.64 617.307,1309.59 626.95,1309.49 636.593,1309.14 646.236,1309.88 655.879,1309.44 
  665.522,1310.11 675.165,1310.44 684.808,1309.91 694.451,1309.62 704.094,1309.86 713.737,1308.96 723.38,1308.96 733.023,1309.11 742.666,1308.6 752.309,1308.04 
  761.952,1308.69 771.595,1307.41 781.238,1306.64 790.881,1305.46 800.524,1305.38 810.167,1305.97 819.81,1306.16 829.453,1306.08 839.096,1305.54 848.739,1304.74 
  858.382,1305.09 868.025,1304.87 877.668,1304.04 887.311,1303.06 896.954,1303.46 906.597,1302.52 916.24,1301.23 925.883,1301.75 935.526,1301.91 945.169,1301.27 
  954.812,1300.82 964.455,1301.03 974.098,1301.1 983.741,1301.94 993.384,1302.33 1003.03,1301.95 1012.67,1302.48 1022.31,1303.06 1031.96,1303.15 1041.6,1303.33 
  1051.24,1303.19 1060.88,1302.92 1070.53,1303.41 1080.17,1302.19 1089.81,1302.37 1099.46,1301.24 1109.1,1300.74 1118.74,1300.56 1128.39,1300.78 1138.03,1301.41 
  1147.67,1301.18 1157.31,1302.18 1166.96,1302.72 1176.6,1302.31 1186.24,1303.25 1195.89,1302.85 1205.53,1302.42 1215.17,1303.2 1224.82,1302.83 1234.46,1303.25 
  1244.1,1302.93 1253.74,1302.79 1263.39,1303.7 1273.03,1304.38 1282.67,1304.75 1292.32,1305.08 1301.96,1305.67 1311.6,1305.9 1321.25,1305.99 1330.89,1306.82 
  1340.53,1303.1 1350.17,1295.8 1359.82,1288.54 1369.46,1281.55 1379.1,1274.18 1388.75,1266.8 1398.39,1258.94 1408.03,1251.73 1417.68,1244.7 1427.32,1236.81 
  1436.96,1229.25 1446.6,1221.74 1456.25,1214.69 1465.89,1206.27 1475.53,1198.6 1485.18,1190.44 1494.82,1183.48 1504.46,1175.66 1514.11,1167.96 1523.75,1160.37 
  1533.39,1152.57 1543.03,1145.81 1552.68,1138.95 1562.32,1130.92 1571.96,1122.97 1581.61,1113.62 1591.25,1105.08 1600.89,1097.7 1610.54,1090.5 1620.18,1082.53 
  1629.82,1073.91 1639.46,1065.87 1649.11,1058.3 1658.75,1051.1 1668.39,1042.04 1678.04,1033.65 1687.68,1027.48 1697.32,1020.51 1706.96,1013.46 1716.61,1005.94 
  1726.25,998.533 1735.89,991.567 1745.54,985.482 1755.18,977.219 1764.82,968.904 1774.47,962.963 1784.11,957.137 1793.75,950.363 1803.39,943.358 1813.04,936.096 
  1822.68,926.489 1832.32,920.064 1841.97,912.904 1851.61,904.68 1861.25,895.895 1870.9,888.851 1880.54,879.723 1890.18,870.873 1899.82,861.903 1909.47,854.104 
  1919.11,857.554 1928.75,864.981 1938.4,869.032 1948.04,875.31 1957.68,880.428 1967.33,884.93 1976.97,891.353 1986.61,895.171 1996.25,901.229 2005.9,907.272 
  2015.54,911.942 2025.18,917.185 2034.83,922.566 2044.47,929.111 2054.11,934.652 2063.76,939.619 2073.4,945.096 2083.04,950.454 2092.68,955.711 2102.33,960.762 
  2111.97,965.833 2121.61,968.978 2131.26,974.756 2140.9,978.496 2150.54,985.981 2160.19,993.448 2169.83,998.816 2179.47,1002.89 2189.11,1006.65 2198.76,1012.28 
  2208.4,1017.94 2218.04,1023.55 2227.69,1028.76 2237.33,1033.72 2246.97,1040.47 2256.62,1045.67 2266.26,1049.63 2275.9,1055.05 2285.54,1061.07 2295.19,1066.86 
  
  "/>
<polyline clip-path="url(#clip702)" style="stroke:#8e971d; stroke-linecap:round; stroke-linejoin:round; stroke-width:12; stroke-opacity:1; fill:none" points="
  376.232,1296.01 385.875,1294.93 395.518,1294.55 405.161,1296.01 414.804,1295.47 424.447,1296.68 434.09,1298.37 443.733,1300.35 453.376,1300.99 463.019,1300.92 
  472.662,1301.18 482.305,1302.79 491.948,1303.91 501.591,1304.12 511.234,1304.57 520.877,1306.1 530.52,1307.34 540.163,1308.11 549.806,1308.86 559.449,1308.8 
  569.092,1309.17 578.735,1308.39 588.378,1307.22 598.021,1306.77 607.664,1307.03 617.307,1307 626.95,1306.9 636.593,1306.53 646.236,1307.39 655.879,1306.89 
  665.522,1307.69 675.165,1308.08 684.808,1307.49 694.451,1307.17 704.094,1307.45 713.737,1306.44 723.38,1306.45 733.023,1306.62 742.666,1306.04 752.309,1305.41 
  761.952,1305.63 771.595,1306.49 781.238,1305.61 790.881,1306.98 800.524,1307.2 810.167,1306.94 819.81,1306.21 829.453,1305.6 839.096,1306.02 848.739,1306.44 
  858.382,1307.47 868.025,1306.49 877.668,1304.7 887.311,1304.6 896.954,1304.44 906.597,1305.73 916.24,1305.38 925.883,1305.88 935.526,1305.77 945.169,1306.49 
  954.812,1305.56 964.455,1305.81 974.098,1305.91 983.741,1306.89 993.384,1307.36 1003.03,1306.93 1012.67,1307.56 1022.31,1308.24 1031.96,1308.34 1041.6,1308.55 
  1051.24,1308.39 1060.88,1308.08 1070.53,1308.66 1080.17,1307.24 1089.81,1307.45 1099.46,1306.13 1109.1,1305.56 1118.74,1305.35 1128.39,1305.61 1138.03,1306.34 
  1147.67,1306.08 1157.31,1307.23 1166.96,1307.87 1176.6,1307.39 1186.24,1308.5 1195.89,1308.02 1205.53,1307.54 1215.17,1308.44 1224.82,1308.02 1234.46,1308.5 
  1244.1,1308.13 1253.74,1307.97 1263.39,1309.03 1273.03,1309.82 1282.67,1310.25 1292.32,1310.62 1301.96,1311.32 1311.6,1311.59 1321.25,1311.69 1330.89,1312.66 
  1340.53,1312.67 1350.17,1313.75 1359.82,1313.21 1369.46,1312.78 1379.1,1312.5 1388.75,1312.83 1398.39,1313.69 1408.03,1313.25 1417.68,1313.52 1427.32,1313.09 
  1436.96,1313.04 1446.6,1313.36 1456.25,1313.31 1465.89,1313.96 1475.53,1314.24 1485.18,1314.13 1494.82,1314.5 1504.46,1314.7 1514.11,1314.16 1523.75,1314.27 
  1533.39,1310.26 1543.03,1302.39 1552.68,1294.32 1562.32,1284.65 1571.96,1275.39 1581.61,1264.83 1591.25,1255.02 1600.89,1246.21 1610.54,1237.53 1620.18,1228.46 
  1629.82,1218.84 1639.46,1209.44 1649.11,1200.59 1658.75,1192.08 1668.39,1181.82 1678.04,1172.7 1687.68,1164.96 1697.32,1156.46 1706.96,1147.96 1716.61,1138.79 
  1726.25,1130.48 1735.89,1122.02 1745.54,1114.3 1755.18,1105.07 1764.82,1095.3 1774.47,1088.06 1784.11,1080.88 1793.75,1072.68 1803.39,1064.55 1813.04,1056.19 
  1822.68,1045.59 1832.32,1038.16 1841.97,1029.58 1851.61,1020.42 1861.25,1010.6 1870.9,1002.49 1880.54,992.443 1890.18,982.515 1899.82,972.488 1909.47,963.607 
  1919.11,954.137 1928.75,943.182 1938.4,933.214 1948.04,923.451 1957.68,911.362 1967.33,899.233 1976.97,886.941 1986.61,874.736 1996.25,864.151 2005.9,852.969 
  2015.54,841.125 2025.18,827.879 2034.83,815.927 2044.47,802.836 2054.11,787.703 2063.76,772.872 2073.4,756.621 2083.04,740.503 2092.68,724.719 2102.33,707.327 
  2111.97,708.068 2121.61,708.323 2131.26,712.955 2140.9,713.698 2150.54,720.376 2160.19,726.89 2169.83,730.653 2179.47,732.343 2189.11,732.517 2198.76,735.702 
  2208.4,738.035 2218.04,739.116 2227.69,740.625 2237.33,741.201 2246.97,744.371 2256.62,744.002 2266.26,742.119 2275.9,741.72 2285.54,741.814 2295.19,739.656 
  
  "/>
<polyline clip-path="url(#clip702)" style="stroke:#00a8cb; stroke-linecap:round; stroke-linejoin:round; stroke-width:12; stroke-opacity:1; fill:none" points="
  376.232,1298.7 385.875,1298.77 395.518,1300.26 405.161,1299.23 414.804,1299.34 424.447,1299.2 434.09,1296.43 443.733,1297.17 453.376,1296.86 463.019,1296.19 
  472.662,1297.16 482.305,1297.93 491.948,1298.42 501.591,1300.25 511.234,1300.55 520.877,1301.48 530.52,1302.92 540.163,1303.34 549.806,1304.27 559.449,1305.63 
  569.092,1306.7 578.735,1305.63 588.378,1303.98 598.021,1303.37 607.664,1303.75 617.307,1303.73 626.95,1303.62 636.593,1303.11 646.236,1304.35 655.879,1303.66 
  665.522,1304.8 675.165,1305.38 684.808,1304.55 694.451,1304.1 704.094,1304.51 713.737,1303.09 723.38,1303.11 733.023,1303.35 742.666,1302.53 752.309,1301.64 
  761.952,1301.95 771.595,1303.19 781.238,1301.95 790.881,1303.92 800.524,1304.22 810.167,1303.86 819.81,1302.83 829.453,1301.96 839.096,1302.56 848.739,1303.16 
  858.382,1304.63 868.025,1303.24 877.668,1300.69 887.311,1300.56 896.954,1300.33 906.597,1302.17 916.24,1301.67 925.883,1302.38 935.526,1302.22 945.169,1303.24 
  954.812,1302.36 964.455,1301.83 974.098,1302.55 983.741,1303.05 993.384,1303.7 1003.03,1305.49 1012.67,1305.77 1022.31,1305.24 1031.96,1305.24 1041.6,1305.53 
  1051.24,1305.46 1060.88,1304.86 1070.53,1305.98 1080.17,1305.31 1089.81,1303.51 1099.46,1303.3 1109.1,1302.63 1118.74,1302.78 1128.39,1301.65 1138.03,1301.79 
  1147.67,1299.91 1157.31,1301.55 1166.96,1302.45 1176.6,1301.77 1186.24,1303.33 1195.89,1302.66 1205.53,1301.97 1215.17,1303.24 1224.82,1302.65 1234.46,1303.33 
  1244.1,1302.8 1253.74,1302.57 1263.39,1304.07 1273.03,1305.2 1282.67,1305.8 1292.32,1306.33 1301.96,1307.31 1311.6,1307.69 1321.25,1307.85 1330.89,1309.22 
  1340.53,1309.22 1350.17,1310.74 1359.82,1309.98 1369.46,1309.37 1379.1,1308.99 1388.75,1309.44 1398.39,1310.67 1408.03,1310.05 1417.68,1310.44 1427.32,1309.82 
  1436.96,1309.75 1446.6,1310.21 1456.25,1310.13 1465.89,1311.05 1475.53,1311.43 1485.18,1311.28 1494.82,1311.82 1504.46,1312.11 1514.11,1311.35 1523.75,1311.5 
  1533.39,1312.8 1543.03,1312.72 1552.68,1313.1 1562.32,1312.03 1571.96,1312.63 1581.61,1314.38 1591.25,1313.93 1600.89,1312.48 1610.54,1311.41 1620.18,1310.96 
  1629.82,1311.57 1639.46,1312.78 1649.11,1312.47 1658.75,1313 1668.39,1313.53 1678.04,1313.54 1687.68,1313.6 1697.32,1314.35 1706.96,1315.16 1716.61,1316.72 
  1726.25,1308.46 1735.89,1295.8 1745.54,1283.76 1755.18,1271.01 1764.82,1256.79 1774.47,1245.89 1784.11,1234.99 1793.75,1222.71 1803.39,1211.04 1813.04,1199.12 
  1822.68,1184.66 1832.32,1174 1841.97,1161.29 1851.61,1148.65 1861.25,1135.08 1870.9,1123.5 1880.54,1109.84 1890.18,1096.05 1899.82,1082.17 1909.47,1069.65 
  1919.11,1056.66 1928.75,1041.76 1938.4,1029.1 1948.04,1015.93 1957.68,1000.51 1967.33,985.253 1976.97,969.168 1986.61,954.049 1996.25,940.022 2005.9,925.324 
  2015.54,910.331 2025.18,893.557 2034.83,878.205 2044.47,861.172 2054.11,842.158 2063.76,823.678 2073.4,803.415 2083.04,783.344 2092.68,763.685 2102.33,742.271 
  2111.97,721.068 2121.61,697.182 2131.26,676.514 2140.9,650.565 2150.54,627.562 2160.19,603.798 2169.83,581.578 2179.47,558.225 2189.11,528.939 2198.76,501.417 
  2208.4,468.881 2218.04,429.713 2227.69,396.195 2237.33,359.526 2246.97,322.899 2256.62,278.996 2266.26,236.619 2275.9,190.799 2285.54,142.843 2295.19,84.2294 
  
  "/>
</svg>
