<?xml version="1.0" encoding="utf-8"?>
<svg xmlns="http://www.w3.org/2000/svg" xmlns:xlink="http://www.w3.org/1999/xlink" width="600" height="400" viewBox="0 0 2400 1600">
<defs>
  <clipPath id="clip500">
    <rect x="0" y="0" width="2400" height="1600"/>
  </clipPath>
</defs>
<path clip-path="url(#clip500)" d="
M0 1600 L2400 1600 L2400 0 L0 0  Z
  " fill="#ffffff" fill-rule="evenodd" fill-opacity="1"/>
<defs>
  <clipPath id="clip501">
    <rect x="480" y="0" width="1681" height="1600"/>
  </clipPath>
</defs>
<defs>
  <clipPath id="clip502">
    <rect x="378" y="47" width="1975" height="1308"/>
  </clipPath>
</defs>
<path clip-path="url(#clip500)" d="
M378.398 1354.06 L2352.76 1354.06 L2352.76 47.2441 L378.398 47.2441  Z
  " fill="#ffffff" fill-rule="evenodd" fill-opacity="1"/>
<polyline clip-path="url(#clip502)" style="stroke:#000000; stroke-linecap:round; stroke-linejoin:round; stroke-width:2; stroke-opacity:0.1; fill:none" points="
  434.276,1354.06 434.276,47.2441 
  "/>
<polyline clip-path="url(#clip502)" style="stroke:#000000; stroke-linecap:round; stroke-linejoin:round; stroke-width:2; stroke-opacity:0.1; fill:none" points="
  620.536,1354.06 620.536,47.2441 
  "/>
<polyline clip-path="url(#clip502)" style="stroke:#000000; stroke-linecap:round; stroke-linejoin:round; stroke-width:2; stroke-opacity:0.1; fill:none" points="
  806.796,1354.06 806.796,47.2441 
  "/>
<polyline clip-path="url(#clip502)" style="stroke:#000000; stroke-linecap:round; stroke-linejoin:round; stroke-width:2; stroke-opacity:0.1; fill:none" points="
  993.056,1354.06 993.056,47.2441 
  "/>
<polyline clip-path="url(#clip502)" style="stroke:#000000; stroke-linecap:round; stroke-linejoin:round; stroke-width:2; stroke-opacity:0.1; fill:none" points="
  1179.32,1354.06 1179.32,47.2441 
  "/>
<polyline clip-path="url(#clip502)" style="stroke:#000000; stroke-linecap:round; stroke-linejoin:round; stroke-width:2; stroke-opacity:0.1; fill:none" points="
  1365.58,1354.06 1365.58,47.2441 
  "/>
<polyline clip-path="url(#clip502)" style="stroke:#000000; stroke-linecap:round; stroke-linejoin:round; stroke-width:2; stroke-opacity:0.1; fill:none" points="
  1551.84,1354.06 1551.84,47.2441 
  "/>
<polyline clip-path="url(#clip502)" style="stroke:#000000; stroke-linecap:round; stroke-linejoin:round; stroke-width:2; stroke-opacity:0.1; fill:none" points="
  1738.1,1354.06 1738.1,47.2441 
  "/>
<polyline clip-path="url(#clip502)" style="stroke:#000000; stroke-linecap:round; stroke-linejoin:round; stroke-width:2; stroke-opacity:0.1; fill:none" points="
  1924.36,1354.06 1924.36,47.2441 
  "/>
<polyline clip-path="url(#clip502)" style="stroke:#000000; stroke-linecap:round; stroke-linejoin:round; stroke-width:2; stroke-opacity:0.1; fill:none" points="
  2110.62,1354.06 2110.62,47.2441 
  "/>
<polyline clip-path="url(#clip502)" style="stroke:#000000; stroke-linecap:round; stroke-linejoin:round; stroke-width:2; stroke-opacity:0.1; fill:none" points="
  2296.88,1354.06 2296.88,47.2441 
  "/>
<polyline clip-path="url(#clip500)" style="stroke:#000000; stroke-linecap:round; stroke-linejoin:round; stroke-width:4; stroke-opacity:1; fill:none" points="
  378.398,1354.06 2352.76,1354.06 
  "/>
<polyline clip-path="url(#clip500)" style="stroke:#000000; stroke-linecap:round; stroke-linejoin:round; stroke-width:4; stroke-opacity:1; fill:none" points="
  434.276,1354.06 434.276,1335.16 
  "/>
<polyline clip-path="url(#clip500)" style="stroke:#000000; stroke-linecap:round; stroke-linejoin:round; stroke-width:4; stroke-opacity:1; fill:none" points="
  620.536,1354.06 620.536,1335.16 
  "/>
<polyline clip-path="url(#clip500)" style="stroke:#000000; stroke-linecap:round; stroke-linejoin:round; stroke-width:4; stroke-opacity:1; fill:none" points="
  806.796,1354.06 806.796,1335.16 
  "/>
<polyline clip-path="url(#clip500)" style="stroke:#000000; stroke-linecap:round; stroke-linejoin:round; stroke-width:4; stroke-opacity:1; fill:none" points="
  993.056,1354.06 993.056,1335.16 
  "/>
<polyline clip-path="url(#clip500)" style="stroke:#000000; stroke-linecap:round; stroke-linejoin:round; stroke-width:4; stroke-opacity:1; fill:none" points="
  1179.32,1354.06 1179.32,1335.16 
  "/>
<polyline clip-path="url(#clip500)" style="stroke:#000000; stroke-linecap:round; stroke-linejoin:round; stroke-width:4; stroke-opacity:1; fill:none" points="
  1365.58,1354.06 1365.58,1335.16 
  "/>
<polyline clip-path="url(#clip500)" style="stroke:#000000; stroke-linecap:round; stroke-linejoin:round; stroke-width:4; stroke-opacity:1; fill:none" points="
  1551.84,1354.06 1551.84,1335.16 
  "/>
<polyline clip-path="url(#clip500)" style="stroke:#000000; stroke-linecap:round; stroke-linejoin:round; stroke-width:4; stroke-opacity:1; fill:none" points="
  1738.1,1354.06 1738.1,1335.16 
  "/>
<polyline clip-path="url(#clip500)" style="stroke:#000000; stroke-linecap:round; stroke-linejoin:round; stroke-width:4; stroke-opacity:1; fill:none" points="
  1924.36,1354.06 1924.36,1335.16 
  "/>
<polyline clip-path="url(#clip500)" style="stroke:#000000; stroke-linecap:round; stroke-linejoin:round; stroke-width:4; stroke-opacity:1; fill:none" points="
  2110.62,1354.06 2110.62,1335.16 
  "/>
<polyline clip-path="url(#clip500)" style="stroke:#000000; stroke-linecap:round; stroke-linejoin:round; stroke-width:4; stroke-opacity:1; fill:none" points="
  2296.88,1354.06 2296.88,1335.16 
  "/>
<path clip-path="url(#clip500)" d="M434.276 1395.23 Q427.505 1395.23 424.076 1401.92 Q420.691 1408.56 420.691 1421.92 Q420.691 1435.25 424.076 1441.93 Q427.505 1448.57 434.276 1448.57 Q441.09 1448.57 444.475 1441.93 Q447.904 1435.25 447.904 1421.92 Q447.904 1408.56 444.475 1401.92 Q441.09 1395.23 434.276 1395.23 M434.276 1388.29 Q445.17 1388.29 450.899 1396.93 Q456.671 1405.52 456.671 1421.92 Q456.671 1438.29 450.899 1446.92 Q445.17 1455.52 434.276 1455.52 Q423.382 1455.52 417.609 1446.92 Q411.88 1438.29 411.88 1421.92 Q411.88 1405.52 417.609 1396.93 Q423.382 1388.29 434.276 1388.29 Z" fill="#000000" fill-rule="evenodd" fill-opacity="1" /><path clip-path="url(#clip500)" d="M765.889 1395.23 Q759.118 1395.23 755.69 1401.92 Q752.304 1408.56 752.304 1421.92 Q752.304 1435.25 755.69 1441.93 Q759.118 1448.57 765.889 1448.57 Q772.703 1448.57 776.089 1441.93 Q779.518 1435.25 779.518 1421.92 Q779.518 1408.56 776.089 1401.92 Q772.703 1395.23 765.889 1395.23 M765.889 1388.29 Q776.783 1388.29 782.512 1396.93 Q788.285 1405.52 788.285 1421.92 Q788.285 1438.29 782.512 1446.92 Q776.783 1455.52 765.889 1455.52 Q754.995 1455.52 749.223 1446.92 Q743.493 1438.29 743.493 1421.92 Q743.493 1405.52 749.223 1396.93 Q754.995 1388.29 765.889 1388.29 Z" fill="#000000" fill-rule="evenodd" fill-opacity="1" /><path clip-path="url(#clip500)" d="M803.693 1443.24 L812.851 1443.24 L812.851 1454.26 L803.693 1454.26 L803.693 1443.24 Z" fill="#000000" fill-rule="evenodd" fill-opacity="1" /><path clip-path="url(#clip500)" d="M839.5 1446.88 L870.099 1446.88 L870.099 1454.26 L828.953 1454.26 L828.953 1446.88 Q833.944 1441.72 842.538 1433.04 Q851.175 1424.31 853.389 1421.79 Q857.599 1417.06 859.248 1413.81 Q860.941 1410.51 860.941 1407.34 Q860.941 1402.18 857.295 1398.92 Q853.692 1395.67 847.877 1395.67 Q843.753 1395.67 839.153 1397.1 Q834.595 1398.53 829.387 1401.44 L829.387 1392.58 Q834.682 1390.46 839.283 1389.37 Q843.884 1388.29 847.703 1388.29 Q857.772 1388.29 863.762 1393.32 Q869.751 1398.36 869.751 1406.78 Q869.751 1410.77 868.232 1414.37 Q866.757 1417.93 862.807 1422.79 Q861.722 1424.05 855.906 1430.08 Q850.09 1436.07 839.5 1446.88 Z" fill="#000000" fill-rule="evenodd" fill-opacity="1" /><path clip-path="url(#clip500)" d="M1136.46 1395.23 Q1129.69 1395.23 1126.26 1401.92 Q1122.87 1408.56 1122.87 1421.92 Q1122.87 1435.25 1126.26 1441.93 Q1129.69 1448.57 1136.46 1448.57 Q1143.27 1448.57 1146.66 1441.93 Q1150.08 1435.25 1150.08 1421.92 Q1150.08 1408.56 1146.66 1401.92 Q1143.27 1395.23 1136.46 1395.23 M1136.46 1388.29 Q1147.35 1388.29 1153.08 1396.93 Q1158.85 1405.52 1158.85 1421.92 Q1158.85 1438.29 1153.08 1446.92 Q1147.35 1455.52 1136.46 1455.52 Q1125.56 1455.52 1119.79 1446.92 Q1114.06 1438.29 1114.06 1421.92 Q1114.06 1405.52 1119.79 1396.93 Q1125.56 1388.29 1136.46 1388.29 Z" fill="#000000" fill-rule="evenodd" fill-opacity="1" /><path clip-path="url(#clip500)" d="M1174.26 1443.24 L1183.42 1443.24 L1183.42 1454.26 L1174.26 1454.26 L1174.26 1443.24 Z" fill="#000000" fill-rule="evenodd" fill-opacity="1" /><path clip-path="url(#clip500)" d="M1226.6 1397.1 L1204.47 1431.69 L1226.6 1431.69 L1226.6 1397.1 M1224.3 1389.46 L1235.33 1389.46 L1235.33 1431.69 L1244.57 1431.69 L1244.57 1438.98 L1235.33 1438.98 L1235.33 1454.26 L1226.6 1454.26 L1226.6 1438.98 L1197.35 1438.98 L1197.35 1430.52 L1224.3 1389.46 Z" fill="#000000" fill-rule="evenodd" fill-opacity="1" /><path clip-path="url(#clip500)" d="M1509.28 1395.23 Q1502.51 1395.23 1499.08 1401.92 Q1495.7 1408.56 1495.7 1421.92 Q1495.7 1435.25 1499.08 1441.93 Q1502.51 1448.57 1509.28 1448.57 Q1516.09 1448.57 1519.48 1441.93 Q1522.91 1435.25 1522.91 1421.92 Q1522.91 1408.56 1519.48 1401.92 Q1516.09 1395.23 1509.28 1395.23 M1509.28 1388.29 Q1520.17 1388.29 1525.9 1396.93 Q1531.68 1405.52 1531.68 1421.92 Q1531.68 1438.29 1525.9 1446.92 Q1520.17 1455.52 1509.28 1455.52 Q1498.39 1455.52 1492.61 1446.92 Q1486.89 1438.29 1486.89 1421.92 Q1486.89 1405.52 1492.61 1396.93 Q1498.39 1388.29 1509.28 1388.29 Z" fill="#000000" fill-rule="evenodd" fill-opacity="1" /><path clip-path="url(#clip500)" d="M1547.08 1443.24 L1556.24 1443.24 L1556.24 1454.26 L1547.08 1454.26 L1547.08 1443.24 Z" fill="#000000" fill-rule="evenodd" fill-opacity="1" /><path clip-path="url(#clip500)" d="M1595.17 1418.37 Q1589.27 1418.37 1585.8 1422.4 Q1582.37 1426.44 1582.37 1433.47 Q1582.37 1440.46 1585.8 1444.54 Q1589.27 1448.57 1595.17 1448.57 Q1601.08 1448.57 1604.51 1444.54 Q1607.98 1440.46 1607.98 1433.47 Q1607.98 1426.44 1604.51 1422.4 Q1601.08 1418.37 1595.17 1418.37 M1612.58 1390.89 L1612.58 1398.88 Q1609.28 1397.32 1605.89 1396.49 Q1602.55 1395.67 1599.25 1395.67 Q1590.57 1395.67 1585.97 1401.53 Q1581.42 1407.39 1580.76 1419.23 Q1583.33 1415.46 1587.19 1413.46 Q1591.05 1411.42 1595.7 1411.42 Q1605.46 1411.42 1611.1 1417.37 Q1616.79 1423.27 1616.79 1433.47 Q1616.79 1443.45 1610.89 1449.49 Q1604.98 1455.52 1595.17 1455.52 Q1583.93 1455.52 1577.99 1446.92 Q1572.04 1438.29 1572.04 1421.92 Q1572.04 1406.56 1579.33 1397.45 Q1586.62 1388.29 1598.91 1388.29 Q1602.21 1388.29 1605.55 1388.94 Q1608.93 1389.59 1612.58 1390.89 Z" fill="#000000" fill-rule="evenodd" fill-opacity="1" /><path clip-path="url(#clip500)" d="M1882.04 1395.23 Q1875.27 1395.23 1871.84 1401.92 Q1868.45 1408.56 1868.45 1421.92 Q1868.45 1435.25 1871.84 1441.93 Q1875.27 1448.57 1882.04 1448.57 Q1888.85 1448.57 1892.24 1441.93 Q1895.67 1435.25 1895.67 1421.92 Q1895.67 1408.56 1892.24 1401.92 Q1888.85 1395.23 1882.04 1395.23 M1882.04 1388.29 Q1892.93 1388.29 1898.66 1396.93 Q1904.44 1405.52 1904.44 1421.92 Q1904.44 1438.29 1898.66 1446.92 Q1892.93 1455.52 1882.04 1455.52 Q1871.15 1455.52 1865.37 1446.92 Q1859.64 1438.29 1859.64 1421.92 Q1859.64 1405.52 1865.37 1396.93 Q1871.15 1388.29 1882.04 1388.29 Z" fill="#000000" fill-rule="evenodd" fill-opacity="1" /><path clip-path="url(#clip500)" d="M1919.84 1443.24 L1929 1443.24 L1929 1454.26 L1919.84 1454.26 L1919.84 1443.24 Z" fill="#000000" fill-rule="evenodd" fill-opacity="1" /><path clip-path="url(#clip500)" d="M1966.85 1423.49 Q1960.6 1423.49 1957 1426.83 Q1953.44 1430.17 1953.44 1436.03 Q1953.44 1441.89 1957 1445.23 Q1960.6 1448.57 1966.85 1448.57 Q1973.1 1448.57 1976.7 1445.23 Q1980.3 1441.85 1980.3 1436.03 Q1980.3 1430.17 1976.7 1426.83 Q1973.14 1423.49 1966.85 1423.49 M1958.08 1419.75 Q1952.44 1418.37 1949.27 1414.5 Q1946.15 1410.64 1946.15 1405.08 Q1946.15 1397.32 1951.66 1392.8 Q1957.21 1388.29 1966.85 1388.29 Q1976.53 1388.29 1982.04 1392.8 Q1987.55 1397.32 1987.55 1405.08 Q1987.55 1410.64 1984.38 1414.5 Q1981.26 1418.37 1975.66 1419.75 Q1982 1421.23 1985.51 1425.53 Q1989.07 1429.82 1989.07 1436.03 Q1989.07 1445.45 1983.3 1450.48 Q1977.57 1455.52 1966.85 1455.52 Q1956.13 1455.52 1950.36 1450.48 Q1944.63 1445.45 1944.63 1436.03 Q1944.63 1429.82 1948.19 1425.53 Q1951.74 1421.23 1958.08 1419.75 M1954.87 1405.91 Q1954.87 1410.94 1957.99 1413.77 Q1961.16 1416.59 1966.85 1416.59 Q1972.49 1416.59 1975.66 1413.77 Q1978.87 1410.94 1978.87 1405.91 Q1978.87 1400.87 1975.66 1398.05 Q1972.49 1395.23 1966.85 1395.23 Q1961.16 1395.23 1957.99 1398.05 Q1954.87 1400.87 1954.87 1405.91 Z" fill="#000000" fill-rule="evenodd" fill-opacity="1" /><path clip-path="url(#clip500)" d="M2278.84 1446.88 L2293.17 1446.88 L2293.17 1397.45 L2277.59 1400.57 L2277.59 1392.58 L2293.08 1389.46 L2301.85 1389.46 L2301.85 1446.88 L2316.17 1446.88 L2316.17 1454.26 L2278.84 1454.26 L2278.84 1446.88 Z" fill="#000000" fill-rule="evenodd" fill-opacity="1" /><path clip-path="url(#clip500)" d="M1391.35 1519.59 Q1391.35 1522.87 1389.3 1524.74 Q1387.25 1526.56 1384.9 1526.56 Q1382.68 1526.56 1381.51 1525.27 Q1380.34 1523.98 1380.34 1522.34 Q1380.34 1520.12 1381.98 1518.18 Q1383.62 1516.25 1386.08 1515.84 Q1383.67 1514.32 1380.1 1514.32 Q1377.76 1514.32 1375.71 1515.55 Q1373.72 1516.78 1372.49 1518.36 Q1371.32 1519.94 1370.27 1522.22 Q1369.27 1524.45 1368.86 1525.8 Q1368.51 1527.08 1368.22 1528.49 L1364.12 1544.89 Q1362.13 1552.67 1362.13 1555.43 Q1362.13 1558.82 1363.77 1561.11 Q1365.41 1563.33 1368.68 1563.33 Q1369.97 1563.33 1371.44 1562.98 Q1372.9 1562.57 1374.77 1561.52 Q1376.71 1560.4 1378.4 1558.76 Q1380.16 1557.07 1381.86 1554.2 Q1383.56 1551.33 1384.67 1547.64 Q1385.02 1546.35 1386.19 1546.35 Q1387.66 1546.35 1387.66 1547.52 Q1387.66 1548.52 1386.84 1550.62 Q1386.08 1552.67 1384.38 1555.37 Q1382.74 1558 1380.57 1560.4 Q1378.4 1562.75 1375.18 1564.39 Q1371.96 1566.02 1368.45 1566.02 Q1363.41 1566.02 1360.08 1563.33 Q1356.74 1560.64 1355.51 1556.89 Q1355.22 1557.42 1354.81 1558.12 Q1354.4 1558.82 1353.17 1560.4 Q1352 1561.93 1350.65 1563.1 Q1349.3 1564.21 1347.19 1565.09 Q1345.14 1566.02 1342.92 1566.02 Q1340.11 1566.02 1337.59 1565.2 Q1335.13 1564.39 1333.38 1562.51 Q1331.62 1560.64 1331.62 1558.06 Q1331.62 1555.19 1333.55 1553.2 Q1335.54 1551.15 1338.24 1551.15 Q1339.93 1551.15 1341.28 1552.15 Q1342.69 1553.14 1342.69 1555.31 Q1342.69 1557.71 1341.05 1559.53 Q1339.41 1561.34 1337.06 1561.81 Q1339.47 1563.33 1343.04 1563.33 Q1346.9 1563.33 1349.95 1559.93 Q1352.99 1556.54 1354.46 1550.86 Q1358.09 1537.22 1359.49 1531.13 Q1360.9 1524.98 1360.9 1522.34 Q1360.9 1519.88 1360.25 1518.18 Q1359.61 1516.49 1358.5 1515.73 Q1357.44 1514.91 1356.45 1514.61 Q1355.51 1514.32 1354.46 1514.32 Q1352.7 1514.32 1350.71 1515.02 Q1348.78 1515.73 1346.43 1517.36 Q1344.15 1518.95 1341.98 1522.22 Q1339.82 1525.5 1338.35 1530.01 Q1338.06 1531.36 1336.77 1531.36 Q1335.37 1531.3 1335.37 1530.13 Q1335.37 1529.13 1336.13 1527.08 Q1336.95 1524.98 1338.59 1522.34 Q1340.28 1519.71 1342.45 1517.36 Q1344.68 1514.96 1347.9 1513.32 Q1351.18 1511.68 1354.69 1511.68 Q1356.27 1511.68 1357.79 1512.04 Q1359.37 1512.33 1361.25 1513.21 Q1363.18 1514.09 1364.88 1516.02 Q1366.58 1517.95 1367.63 1520.76 Q1368.33 1519.41 1369.27 1518.13 Q1370.27 1516.84 1371.79 1515.26 Q1373.37 1513.62 1375.54 1512.68 Q1377.76 1511.68 1380.22 1511.68 Q1382.62 1511.68 1384.96 1512.33 Q1387.31 1512.91 1389.3 1514.85 Q1391.35 1516.72 1391.35 1519.59 Z" fill="#000000" fill-rule="evenodd" fill-opacity="1" /><polyline clip-path="url(#clip502)" style="stroke:#000000; stroke-linecap:round; stroke-linejoin:round; stroke-width:2; stroke-opacity:0.1; fill:none" points="
  378.398,1317.07 2352.76,1317.07 
  "/>
<polyline clip-path="url(#clip502)" style="stroke:#000000; stroke-linecap:round; stroke-linejoin:round; stroke-width:2; stroke-opacity:0.1; fill:none" points="
  378.398,700.652 2352.76,700.652 
  "/>
<polyline clip-path="url(#clip502)" style="stroke:#000000; stroke-linecap:round; stroke-linejoin:round; stroke-width:2; stroke-opacity:0.1; fill:none" points="
  378.398,84.2294 2352.76,84.2294 
  "/>
<polyline clip-path="url(#clip500)" style="stroke:#000000; stroke-linecap:round; stroke-linejoin:round; stroke-width:4; stroke-opacity:1; fill:none" points="
  378.398,1354.06 378.398,47.2441 
  "/>
<polyline clip-path="url(#clip500)" style="stroke:#000000; stroke-linecap:round; stroke-linejoin:round; stroke-width:4; stroke-opacity:1; fill:none" points="
  378.398,1317.07 397.295,1317.07 
  "/>
<polyline clip-path="url(#clip500)" style="stroke:#000000; stroke-linecap:round; stroke-linejoin:round; stroke-width:4; stroke-opacity:1; fill:none" points="
  378.398,700.652 397.295,700.652 
  "/>
<polyline clip-path="url(#clip500)" style="stroke:#000000; stroke-linecap:round; stroke-linejoin:round; stroke-width:4; stroke-opacity:1; fill:none" points="
  378.398,84.2294 397.295,84.2294 
  "/>
<path clip-path="url(#clip500)" d="M228.987 1317.92 L284.629 1317.92 L284.629 1325.3 L228.987 1325.3 L228.987 1317.92 Z" fill="#000000" fill-rule="evenodd" fill-opacity="1" /><path clip-path="url(#clip500)" d="M305.071 1342.1 L319.394 1342.1 L319.394 1292.66 L303.813 1295.79 L303.813 1287.8 L319.307 1284.67 L328.075 1284.67 L328.075 1342.1 L342.398 1342.1 L342.398 1349.47 L305.071 1349.47 L305.071 1342.1 Z" fill="#000000" fill-rule="evenodd" fill-opacity="1" /><path clip-path="url(#clip500)" d="M320.002 674.025 Q313.231 674.025 309.802 680.708 Q306.417 687.349 306.417 700.717 Q306.417 714.042 309.802 720.726 Q313.231 727.366 320.002 727.366 Q326.816 727.366 330.201 720.726 Q333.63 714.042 333.63 700.717 Q333.63 687.349 330.201 680.708 Q326.816 674.025 320.002 674.025 M320.002 667.08 Q330.896 667.08 336.625 675.717 Q342.398 684.311 342.398 700.717 Q342.398 717.08 336.625 725.717 Q330.896 734.311 320.002 734.311 Q309.108 734.311 303.335 725.717 Q297.606 717.08 297.606 700.717 Q297.606 684.311 303.335 675.717 Q309.108 667.08 320.002 667.08 Z" fill="#000000" fill-rule="evenodd" fill-opacity="1" /><path clip-path="url(#clip500)" d="M305.071 109.251 L319.394 109.251 L319.394 59.8155 L303.813 62.9405 L303.813 54.9544 L319.307 51.8294 L328.075 51.8294 L328.075 109.251 L342.398 109.251 L342.398 116.629 L305.071 116.629 L305.071 109.251 Z" fill="#000000" fill-rule="evenodd" fill-opacity="1" /><path clip-path="url(#clip500)" d="M111.607 767.098 Q118.575 767.098 125.484 770.319 Q132.394 773.54 137.664 778.81 Q142.876 784.021 146.155 791.165 Q149.434 798.25 149.434 805.511 Q149.434 806.799 149.141 809.435 Q170.748 813.533 171.1 813.651 Q172.329 814.178 173.09 815.232 Q173.852 816.227 174.027 816.93 Q174.203 817.632 174.203 818.101 Q174.203 819.272 173.383 820.443 Q172.622 821.556 170.865 821.556 Q170.455 821.556 168.465 820.97 L148.321 814.587 Q146.096 824.249 139.948 829.812 Q133.741 835.375 125.309 835.375 Q119.922 835.375 112.895 832.916 Q105.868 830.456 101.125 827.47 Q96.382 824.483 96.382 822.785 Q96.382 821.321 97.6116 821.321 Q98.0801 821.321 99.1341 822.258 Q104.58 827.001 112.426 829.636 Q120.214 832.213 123.962 832.213 Q130.52 832.213 135.263 827.177 Q139.948 822.083 141.704 812.538 Q123.318 806.858 115.588 803.462 Q100.247 796.611 96.4991 787.71 Q95.0937 784.431 95.0937 780.801 Q95.0937 774.242 99.7197 770.67 Q104.287 767.098 111.607 767.098 M114.242 770.495 Q111.138 770.495 108.503 771.607 Q105.868 772.661 103.994 775.355 Q102.062 778.048 102.062 781.972 Q102.062 789.818 109.616 796.376 Q117.169 802.935 128.881 805.745 L141.88 808.146 Q142.349 808.146 142.349 806.565 Q142.466 805.628 142.466 804.399 Q142.466 797.723 139.948 791.399 Q137.43 785.017 133.448 780.508 Q129.466 775.999 124.372 773.247 Q119.277 770.495 114.242 770.495 Z" fill="#000000" fill-rule="evenodd" fill-opacity="1" /><path clip-path="url(#clip500)" d="M154.479 733.512 Q156.282 733.512 157.635 734.988 Q158.947 736.423 158.947 737.98 Q158.947 739.415 158.086 740.317 Q157.184 741.177 155.913 741.177 Q154.233 741.177 152.839 739.743 Q151.446 738.308 151.446 736.628 Q151.446 735.234 152.306 734.373 Q153.167 733.512 154.479 733.512 M194.935 732.775 Q195.263 732.775 196.575 733.144 Q197.846 733.512 199.813 734.414 Q201.739 735.275 203.543 736.464 Q205.347 737.652 206.617 739.62 Q207.888 741.546 207.888 743.76 Q207.888 746.752 205.92 748.719 Q203.953 750.646 201.002 750.646 Q199.403 750.646 194.279 748.719 Q179.359 743.145 178.745 742.94 Q176.408 741.997 174.359 741.997 Q173.416 741.997 172.842 742.202 Q172.227 742.407 172.022 742.817 Q171.776 743.227 171.735 743.473 Q171.694 743.678 171.694 744.088 Q171.694 746.506 174.154 748.76 Q176.613 751.015 182.106 752.572 Q183.13 752.9 183.376 753.105 Q183.622 753.31 183.622 753.925 Q183.581 754.95 182.761 754.95 Q182.516 754.95 181.573 754.663 Q180.589 754.376 179.113 753.843 Q177.597 753.31 176.039 752.368 Q174.441 751.425 173.047 750.277 Q171.653 749.088 170.752 747.408 Q169.85 745.727 169.85 743.842 Q169.85 740.768 171.858 738.882 Q173.826 736.956 176.736 736.956 Q178.335 736.956 181.163 738.062 Q184.852 739.415 186.041 739.907 L194.853 743.186 Q198.05 744.375 199.034 744.744 Q199.977 745.071 201.125 745.358 Q202.231 745.604 203.256 745.604 Q204.691 745.604 205.347 745.153 Q206.002 744.662 206.002 743.596 Q206.002 740.645 203.092 738.472 Q200.141 736.3 195.632 735.029 Q195.509 734.988 195.304 734.947 Q194.279 734.619 194.156 734.291 Q194.115 734.127 194.115 733.799 Q194.115 732.775 194.935 732.775 Z" fill="#000000" fill-rule="evenodd" fill-opacity="1" /><path clip-path="url(#clip500)" d="M118.106 720.187 Q97.8459 720.187 81.5087 712.634 Q74.6576 709.413 68.9191 704.904 Q63.1806 700.395 60.6627 697.409 Q58.1448 694.423 58.1448 693.603 Q58.1448 692.432 59.3159 692.373 Q59.9015 692.373 61.3654 693.954 Q81.0403 713.278 118.106 713.219 Q155.289 713.219 174.203 694.423 Q176.252 692.373 176.897 692.373 Q178.068 692.373 178.068 693.603 Q178.068 694.423 175.667 697.292 Q173.266 700.161 167.762 704.611 Q162.258 709.062 155.524 712.282 Q139.186 720.187 118.106 720.187 Z" fill="#000000" fill-rule="evenodd" fill-opacity="1" /><path clip-path="url(#clip500)" d="M102.999 623.529 Q106.278 623.529 108.152 625.579 Q109.967 627.628 109.967 629.97 Q109.967 632.196 108.679 633.367 Q107.391 634.538 105.751 634.538 Q103.526 634.538 101.593 632.898 Q99.6611 631.259 99.2512 628.799 Q97.7287 631.2 97.7287 634.772 Q97.7287 637.114 98.9584 639.164 Q100.188 641.155 101.769 642.384 Q103.35 643.555 105.634 644.609 Q107.859 645.605 109.206 646.015 Q110.494 646.366 111.899 646.659 L128.295 650.758 Q136.083 652.749 138.835 652.749 Q142.231 652.749 144.515 651.109 Q146.74 649.47 146.74 646.19 Q146.74 644.902 146.389 643.438 Q145.979 641.974 144.925 640.101 Q143.812 638.168 142.173 636.47 Q140.475 634.713 137.605 633.015 Q134.736 631.317 131.047 630.205 Q129.759 629.853 129.759 628.682 Q129.759 627.218 130.93 627.218 Q131.926 627.218 134.034 628.038 Q136.083 628.799 138.777 630.497 Q141.412 632.137 143.812 634.304 Q146.155 636.47 147.794 639.691 Q149.434 642.911 149.434 646.425 Q149.434 651.46 146.74 654.798 Q144.047 658.136 140.299 659.366 Q140.826 659.658 141.529 660.068 Q142.231 660.478 143.812 661.708 Q145.335 662.879 146.506 664.226 Q147.619 665.572 148.497 667.681 Q149.434 669.73 149.434 671.955 Q149.434 674.766 148.614 677.284 Q147.794 679.743 145.92 681.5 Q144.047 683.256 141.47 683.256 Q138.601 683.256 136.61 681.324 Q134.561 679.333 134.561 676.64 Q134.561 674.941 135.556 673.595 Q136.551 672.189 138.718 672.189 Q141.119 672.189 142.934 673.829 Q144.749 675.468 145.218 677.811 Q146.74 675.41 146.74 671.838 Q146.74 667.973 143.344 664.928 Q139.948 661.883 134.268 660.42 Q120.624 656.789 114.534 655.384 Q108.386 653.978 105.751 653.978 Q103.292 653.978 101.593 654.622 Q99.8953 655.267 99.1341 656.379 Q98.3143 657.433 98.0215 658.429 Q97.7287 659.366 97.7287 660.42 Q97.7287 662.176 98.4314 664.167 Q99.1341 666.099 100.774 668.442 Q102.355 670.725 105.634 672.892 Q108.913 675.059 113.422 676.522 Q114.769 676.815 114.769 678.103 Q114.71 679.509 113.539 679.509 Q112.543 679.509 110.494 678.748 Q108.386 677.928 105.751 676.288 Q103.116 674.59 100.774 672.424 Q98.3729 670.198 96.7333 666.978 Q95.0937 663.699 95.0937 660.185 Q95.0937 658.604 95.4451 657.082 Q95.7378 655.501 96.6162 653.627 Q97.4945 651.695 99.4269 649.997 Q101.359 648.298 104.17 647.244 Q102.823 646.542 101.535 645.605 Q100.247 644.609 98.6656 643.087 Q97.0261 641.506 96.0892 639.339 Q95.0937 637.114 95.0937 634.655 Q95.0937 632.254 95.7378 629.912 Q96.3234 627.57 98.2558 625.579 Q100.13 623.529 102.999 623.529 Z" fill="#000000" fill-rule="evenodd" fill-opacity="1" /><path clip-path="url(#clip500)" d="M176.897 611.98 Q176.311 611.98 174.847 610.458 Q155.172 591.134 118.106 591.134 Q80.9231 591.134 62.1266 609.696 Q59.9601 611.98 59.3159 611.98 Q58.1448 611.98 58.1448 610.809 Q58.1448 609.989 60.5456 607.12 Q62.9464 604.192 68.4507 599.8 Q73.955 595.35 80.6889 592.071 Q97.0261 584.166 118.106 584.166 Q138.367 584.166 154.704 591.72 Q161.555 594.94 167.293 599.449 Q173.032 603.958 175.55 606.944 Q178.068 609.931 178.068 610.809 Q178.068 611.98 176.897 611.98 Z" fill="#000000" fill-rule="evenodd" fill-opacity="1" /><polyline clip-path="url(#clip502)" style="stroke:#009af9; stroke-linecap:round; stroke-linejoin:round; stroke-width:12; stroke-opacity:1; fill:none" points="
  434.276,1317.07 443.635,1317.07 452.995,1317.07 462.355,1317.07 471.715,1317.07 481.075,1317.07 490.434,1317.07 499.794,1317.07 509.154,1317.07 518.514,1317.07 
  527.874,1317.07 537.233,1317.07 546.593,1317.07 555.953,1317.07 565.313,1317.07 574.673,1317.07 584.033,1317.07 593.392,1317.07 602.752,1317.07 612.112,1317.07 
  621.472,1317.07 630.832,1317.07 640.191,1317.07 649.551,1317.07 658.911,1317.07 668.271,1317.07 677.631,1317.07 686.99,1317.07 696.35,1317.07 705.71,1317.07 
  715.07,1317.07 724.43,1317.07 733.79,1317.07 743.149,1317.07 752.509,1317.07 761.869,1317.07 771.229,1317.07 780.589,1317.07 789.948,1317.07 799.308,1317.07 
  808.668,1317.07 818.028,1317.07 827.388,1317.07 836.747,1317.07 846.107,1317.07 855.467,1317.07 864.827,1317.07 874.187,1317.07 883.546,1317.07 892.906,1317.07 
  902.266,1317.07 911.626,1317.07 920.986,1317.07 930.346,1317.07 939.705,1317.07 949.065,1317.07 958.425,1317.07 967.785,1317.07 977.145,1317.07 986.504,1317.07 
  995.864,1317.07 1005.22,1317.07 1014.58,1317.07 1023.94,1317.07 1033.3,1317.07 1042.66,1317.07 1052.02,1317.07 1061.38,1317.07 1070.74,1317.07 1080.1,1317.07 
  1089.46,1317.07 1098.82,1317.07 1108.18,1317.07 1117.54,1317.07 1126.9,1317.07 1136.26,1317.07 1145.62,1317.07 1154.98,1317.07 1164.34,1317.07 1173.7,1317.07 
  1183.06,1317.07 1192.42,1317.07 1201.78,1317.07 1211.14,1317.07 1220.5,1317.07 1229.86,1317.07 1239.22,1317.07 1248.58,1317.07 1257.94,1317.07 1267.3,1317.07 
  1276.66,1317.07 1286.02,1317.07 1295.38,1317.07 1304.74,1317.07 1314.1,1317.07 1323.46,1317.07 1332.82,1317.07 1342.18,1317.07 1351.54,1317.07 1360.9,1317.07 
  1370.26,1317.07 1379.62,84.2294 1388.98,84.2294 1398.34,84.2294 1407.7,84.2294 1417.06,84.2294 1426.42,84.2294 1435.78,84.2294 1445.14,84.2294 1454.49,84.2294 
  1463.85,84.2294 1473.21,84.2294 1482.57,84.2294 1491.93,84.2294 1501.29,84.2294 1510.65,84.2294 1520.01,84.2294 1529.37,84.2294 1538.73,84.2294 1548.09,84.2294 
  1557.45,84.2294 1566.81,84.2294 1576.17,84.2294 1585.53,84.2294 1594.89,84.2294 1604.25,84.2294 1613.61,84.2294 1622.97,84.2294 1632.33,84.2294 1641.69,84.2294 
  1651.05,84.2294 1660.41,84.2294 1669.77,84.2294 1679.13,84.2294 1688.49,84.2294 1697.85,84.2294 1707.21,84.2294 1716.57,84.2294 1725.93,84.2294 1735.29,84.2294 
  1744.65,84.2294 1754.01,84.2294 1763.37,84.2294 1772.73,84.2294 1782.09,84.2294 1791.45,84.2294 1800.81,84.2294 1810.17,84.2294 1819.53,84.2294 1828.89,84.2294 
  1838.25,84.2294 1847.61,84.2294 1856.97,84.2294 1866.33,84.2294 1875.69,84.2294 1885.05,84.2294 1894.41,84.2294 1903.77,84.2294 1913.13,84.2294 1922.49,84.2294 
  1931.85,84.2294 1941.21,84.2294 1950.56,84.2294 1959.92,84.2294 1969.28,84.2294 1978.64,84.2294 1988,84.2294 1997.36,84.2294 2006.72,84.2294 2016.08,84.2294 
  2025.44,84.2294 2034.8,84.2294 2044.16,84.2294 2053.52,84.2294 2062.88,84.2294 2072.24,84.2294 2081.6,84.2294 2090.96,84.2294 2100.32,84.2294 2109.68,84.2294 
  2119.04,84.2294 2128.4,84.2294 2137.76,84.2294 2147.12,84.2294 2156.48,84.2294 2165.84,84.2294 2175.2,84.2294 2184.56,84.2294 2193.92,84.2294 2203.28,84.2294 
  2212.64,84.2294 2222,84.2294 2231.36,84.2294 2240.72,84.2294 2250.08,84.2294 2259.44,84.2294 2268.8,84.2294 2278.16,84.2294 2287.52,84.2294 2296.88,84.2294 
  
  "/>
<polyline clip-path="url(#clip502)" style="stroke:#e26f46; stroke-linecap:round; stroke-linejoin:round; stroke-width:12; stroke-opacity:1; fill:none" points="
  434.276,84.2294 443.635,84.2294 452.995,84.2294 462.355,84.2294 471.715,84.2294 481.075,84.2294 490.434,84.2294 499.794,84.2294 509.154,84.2294 518.514,84.2294 
  527.874,84.2294 537.233,1317.07 546.593,1317.07 555.953,1317.07 565.313,1317.07 574.673,1317.07 584.033,1317.07 593.392,1317.07 602.752,1317.07 612.112,1317.07 
  621.472,1317.07 630.832,1317.07 640.191,1317.07 649.551,1317.07 658.911,1317.07 668.271,1317.07 677.631,1317.07 686.99,1317.07 696.35,1317.07 705.71,1317.07 
  715.07,1317.07 724.43,1317.07 733.79,1317.07 743.149,1317.07 752.509,1317.07 761.869,1317.07 771.229,1317.07 780.589,1317.07 789.948,1317.07 799.308,1317.07 
  808.668,1317.07 818.028,1317.07 827.388,1317.07 836.747,1317.07 846.107,1317.07 855.467,1317.07 864.827,1317.07 874.187,1317.07 883.546,1317.07 892.906,1317.07 
  902.266,1317.07 911.626,1317.07 920.986,1317.07 930.346,1317.07 939.705,1317.07 949.065,1317.07 958.425,1317.07 967.785,1317.07 977.145,1317.07 986.504,1317.07 
  995.864,1317.07 1005.22,1317.07 1014.58,1317.07 1023.94,1317.07 1033.3,1317.07 1042.66,1317.07 1052.02,1317.07 1061.38,1317.07 1070.74,1317.07 1080.1,1317.07 
  1089.46,84.2294 1098.82,84.2294 1108.18,84.2294 1117.54,84.2294 1126.9,84.2294 1136.26,84.2294 1145.62,84.2294 1154.98,84.2294 1164.34,84.2294 1173.7,84.2294 
  1183.06,84.2294 1192.42,84.2294 1201.78,84.2294 1211.14,84.2294 1220.5,84.2294 1229.86,84.2294 1239.22,84.2294 1248.58,84.2294 1257.94,84.2294 1267.3,84.2294 
  1276.66,84.2294 1286.02,84.2294 1295.38,84.2294 1304.74,84.2294 1314.1,84.2294 1323.46,84.2294 1332.82,84.2294 1342.18,84.2294 1351.54,84.2294 1360.9,84.2294 
  1370.26,84.2294 1379.62,84.2294 1388.98,84.2294 1398.34,84.2294 1407.7,84.2294 1417.06,84.2294 1426.42,84.2294 1435.78,84.2294 1445.14,84.2294 1454.49,84.2294 
  1463.85,84.2294 1473.21,84.2294 1482.57,84.2294 1491.93,84.2294 1501.29,84.2294 1510.65,84.2294 1520.01,84.2294 1529.37,84.2294 1538.73,84.2294 1548.09,84.2294 
  1557.45,84.2294 1566.81,84.2294 1576.17,84.2294 1585.53,84.2294 1594.89,84.2294 1604.25,84.2294 1613.61,84.2294 1622.97,84.2294 1632.33,84.2294 1641.69,84.2294 
  1651.05,1317.07 1660.41,1317.07 1669.77,1317.07 1679.13,1317.07 1688.49,1317.07 1697.85,1317.07 1707.21,1317.07 1716.57,1317.07 1725.93,1317.07 1735.29,1317.07 
  1744.65,1317.07 1754.01,1317.07 1763.37,1317.07 1772.73,1317.07 1782.09,1317.07 1791.45,1317.07 1800.81,1317.07 1810.17,1317.07 1819.53,1317.07 1828.89,1317.07 
  1838.25,1317.07 1847.61,1317.07 1856.97,1317.07 1866.33,1317.07 1875.69,1317.07 1885.05,1317.07 1894.41,1317.07 1903.77,1317.07 1913.13,1317.07 1922.49,1317.07 
  1931.85,1317.07 1941.21,1317.07 1950.56,1317.07 1959.92,1317.07 1969.28,1317.07 1978.64,1317.07 1988,1317.07 1997.36,1317.07 2006.72,1317.07 2016.08,1317.07 
  2025.44,1317.07 2034.8,1317.07 2044.16,1317.07 2053.52,1317.07 2062.88,1317.07 2072.24,1317.07 2081.6,1317.07 2090.96,1317.07 2100.32,1317.07 2109.68,1317.07 
  2119.04,1317.07 2128.4,1317.07 2137.76,1317.07 2147.12,1317.07 2156.48,1317.07 2165.84,1317.07 2175.2,1317.07 2184.56,1317.07 2193.92,1317.07 2203.28,1317.07 
  2212.64,84.2294 2222,84.2294 2231.36,84.2294 2240.72,84.2294 2250.08,84.2294 2259.44,84.2294 2268.8,84.2294 2278.16,84.2294 2287.52,84.2294 2296.88,84.2294 
  
  "/>
<polyline clip-path="url(#clip502)" style="stroke:#3da44d; stroke-linecap:round; stroke-linejoin:round; stroke-width:12; stroke-opacity:1; fill:none" points="
  434.276,84.2294 443.635,84.2294 452.995,84.2294 462.355,84.2294 471.715,84.2294 481.075,84.2294 490.434,84.2294 499.794,84.2294 509.154,84.2294 518.514,84.2294 
  527.874,84.2294 537.233,84.2294 546.593,84.2294 555.953,84.2294 565.313,84.2294 574.673,84.2294 584.033,84.2294 593.392,84.2294 602.752,84.2294 612.112,84.2294 
  621.472,84.2294 630.832,84.2294 640.191,84.2294 649.551,84.2294 658.911,84.2294 668.271,84.2294 677.631,84.2294 686.99,84.2294 696.35,84.2294 705.71,84.2294 
  715.07,84.2294 724.43,84.2294 733.79,84.2294 743.149,84.2294 752.509,84.2294 761.869,84.2294 771.229,84.2294 780.589,84.2294 789.948,84.2294 799.308,84.2294 
  808.668,84.2294 818.028,84.2294 827.388,84.2294 836.747,84.2294 846.107,84.2294 855.467,84.2294 864.827,84.2294 874.187,84.2294 883.546,84.2294 892.906,84.2294 
  902.266,84.2294 911.626,84.2294 920.986,84.2294 930.346,84.2294 939.705,84.2294 949.065,84.2294 958.425,84.2294 967.785,84.2294 977.145,84.2294 986.504,84.2294 
  995.864,84.2294 1005.22,84.2294 1014.58,84.2294 1023.94,84.2294 1033.3,84.2294 1042.66,84.2294 1052.02,84.2294 1061.38,84.2294 1070.74,84.2294 1080.1,84.2294 
  1089.46,84.2294 1098.82,84.2294 1108.18,84.2294 1117.54,84.2294 1126.9,84.2294 1136.26,84.2294 1145.62,84.2294 1154.98,84.2294 1164.34,84.2294 1173.7,84.2294 
  1183.06,84.2294 1192.42,84.2294 1201.78,84.2294 1211.14,84.2294 1220.5,84.2294 1229.86,84.2294 1239.22,84.2294 1248.58,84.2294 1257.94,84.2294 1267.3,84.2294 
  1276.66,84.2294 1286.02,84.2294 1295.38,84.2294 1304.74,84.2294 1314.1,84.2294 1323.46,84.2294 1332.82,84.2294 1342.18,84.2294 1351.54,84.2294 1360.9,84.2294 
  1370.26,84.2294 1379.62,84.2294 1388.98,84.2294 1398.34,84.2294 1407.7,84.2294 1417.06,84.2294 1426.42,84.2294 1435.78,84.2294 1445.14,84.2294 1454.49,84.2294 
  1463.85,84.2294 1473.21,84.2294 1482.57,84.2294 1491.93,84.2294 1501.29,84.2294 1510.65,1317.07 1520.01,1317.07 1529.37,1317.07 1538.73,1317.07 1548.09,1317.07 
  1557.45,1317.07 1566.81,1317.07 1576.17,1317.07 1585.53,1317.07 1594.89,1317.07 1604.25,1317.07 1613.61,1317.07 1622.97,1317.07 1632.33,1317.07 1641.69,1317.07 
  1651.05,1317.07 1660.41,1317.07 1669.77,1317.07 1679.13,1317.07 1688.49,1317.07 1697.85,1317.07 1707.21,1317.07 1716.57,1317.07 1725.93,1317.07 1735.29,1317.07 
  1744.65,1317.07 1754.01,1317.07 1763.37,1317.07 1772.73,1317.07 1782.09,1317.07 1791.45,1317.07 1800.81,1317.07 1810.17,1317.07 1819.53,1317.07 1828.89,1317.07 
  1838.25,1317.07 1847.61,1317.07 1856.97,1317.07 1866.33,1317.07 1875.69,1317.07 1885.05,1317.07 1894.41,1317.07 1903.77,1317.07 1913.13,1317.07 1922.49,1317.07 
  1931.85,1317.07 1941.21,1317.07 1950.56,1317.07 1959.92,1317.07 1969.28,1317.07 1978.64,1317.07 1988,1317.07 1997.36,1317.07 2006.72,1317.07 2016.08,1317.07 
  2025.44,1317.07 2034.8,1317.07 2044.16,1317.07 2053.52,1317.07 2062.88,1317.07 2072.24,84.2294 2081.6,84.2294 2090.96,84.2294 2100.32,84.2294 2109.68,84.2294 
  2119.04,84.2294 2128.4,84.2294 2137.76,84.2294 2147.12,84.2294 2156.48,84.2294 2165.84,84.2294 2175.2,84.2294 2184.56,84.2294 2193.92,84.2294 2203.28,84.2294 
  2212.64,84.2294 2222,84.2294 2231.36,84.2294 2240.72,84.2294 2250.08,84.2294 2259.44,84.2294 2268.8,84.2294 2278.16,84.2294 2287.52,84.2294 2296.88,84.2294 
  
  "/>
<polyline clip-path="url(#clip502)" style="stroke:#c271d2; stroke-linecap:round; stroke-linejoin:round; stroke-width:12; stroke-opacity:1; fill:none" points="
  434.276,1317.07 443.635,1317.07 452.995,1317.07 462.355,1317.07 471.715,1317.07 481.075,1317.07 490.434,1317.07 499.794,1317.07 509.154,1317.07 518.514,1317.07 
  527.874,1317.07 537.233,1317.07 546.593,1317.07 555.953,1317.07 565.313,1317.07 574.673,1317.07 584.033,1317.07 593.392,1317.07 602.752,1317.07 612.112,1317.07 
  621.472,1317.07 630.832,1317.07 640.191,1317.07 649.551,1317.07 658.911,1317.07 668.271,1317.07 677.631,1317.07 686.99,1317.07 696.35,1317.07 705.71,1317.07 
  715.07,1317.07 724.43,1317.07 733.79,1317.07 743.149,1317.07 752.509,1317.07 761.869,1317.07 771.229,1317.07 780.589,1317.07 789.948,1317.07 799.308,1317.07 
  808.668,1317.07 818.028,1317.07 827.388,1317.07 836.747,1317.07 846.107,1317.07 855.467,1317.07 864.827,1317.07 874.187,1317.07 883.546,1317.07 892.906,1317.07 
  902.266,1317.07 911.626,1317.07 920.986,1317.07 930.346,1317.07 939.705,1317.07 949.065,1317.07 958.425,1317.07 967.785,1317.07 977.145,1317.07 986.504,1317.07 
  995.864,1317.07 1005.22,1317.07 1014.58,1317.07 1023.94,1317.07 1033.3,1317.07 1042.66,1317.07 1052.02,1317.07 1061.38,1317.07 1070.74,1317.07 1080.1,1317.07 
  1089.46,1317.07 1098.82,1317.07 1108.18,1317.07 1117.54,1317.07 1126.9,1317.07 1136.26,1317.07 1145.62,1317.07 1154.98,1317.07 1164.34,1317.07 1173.7,1317.07 
  1183.06,1317.07 1192.42,1317.07 1201.78,1317.07 1211.14,1317.07 1220.5,1317.07 1229.86,1317.07 1239.22,1317.07 1248.58,1317.07 1257.94,1317.07 1267.3,1317.07 
  1276.66,1317.07 1286.02,1317.07 1295.38,1317.07 1304.74,1317.07 1314.1,1317.07 1323.46,1317.07 1332.82,1317.07 1342.18,1317.07 1351.54,1317.07 1360.9,1317.07 
  1370.26,1317.07 1379.62,1317.07 1388.98,1317.07 1398.34,84.2294 1407.7,84.2294 1417.06,84.2294 1426.42,84.2294 1435.78,84.2294 1445.14,84.2294 1454.49,84.2294 
  1463.85,84.2294 1473.21,84.2294 1482.57,84.2294 1491.93,84.2294 1501.29,84.2294 1510.65,84.2294 1520.01,84.2294 1529.37,84.2294 1538.73,84.2294 1548.09,84.2294 
  1557.45,84.2294 1566.81,84.2294 1576.17,84.2294 1585.53,84.2294 1594.89,84.2294 1604.25,84.2294 1613.61,84.2294 1622.97,84.2294 1632.33,84.2294 1641.69,84.2294 
  1651.05,84.2294 1660.41,84.2294 1669.77,84.2294 1679.13,84.2294 1688.49,84.2294 1697.85,84.2294 1707.21,84.2294 1716.57,84.2294 1725.93,84.2294 1735.29,84.2294 
  1744.65,84.2294 1754.01,84.2294 1763.37,84.2294 1772.73,84.2294 1782.09,84.2294 1791.45,84.2294 1800.81,84.2294 1810.17,84.2294 1819.53,84.2294 1828.89,84.2294 
  1838.25,84.2294 1847.61,84.2294 1856.97,84.2294 1866.33,84.2294 1875.69,84.2294 1885.05,84.2294 1894.41,84.2294 1903.77,84.2294 1913.13,84.2294 1922.49,84.2294 
  1931.85,84.2294 1941.21,84.2294 1950.56,1317.07 1959.92,1317.07 1969.28,1317.07 1978.64,1317.07 1988,1317.07 1997.36,1317.07 2006.72,1317.07 2016.08,1317.07 
  2025.44,1317.07 2034.8,1317.07 2044.16,1317.07 2053.52,1317.07 2062.88,1317.07 2072.24,1317.07 2081.6,1317.07 2090.96,1317.07 2100.32,1317.07 2109.68,1317.07 
  2119.04,1317.07 2128.4,1317.07 2137.76,1317.07 2147.12,1317.07 2156.48,1317.07 2165.84,1317.07 2175.2,1317.07 2184.56,1317.07 2193.92,1317.07 2203.28,1317.07 
  2212.64,1317.07 2222,1317.07 2231.36,1317.07 2240.72,1317.07 2250.08,1317.07 2259.44,1317.07 2268.8,1317.07 2278.16,1317.07 2287.52,1317.07 2296.88,1317.07 
  
  "/>
<polyline clip-path="url(#clip502)" style="stroke:#ac8d18; stroke-linecap:round; stroke-linejoin:round; stroke-width:12; stroke-opacity:1; fill:none" points="
  434.276,1317.07 443.635,1317.07 452.995,1317.07 462.355,1317.07 471.715,1317.07 481.075,1317.07 490.434,1317.07 499.794,1317.07 509.154,1317.07 518.514,1317.07 
  527.874,1317.07 537.233,1317.07 546.593,1317.07 555.953,1317.07 565.313,1317.07 574.673,1317.07 584.033,1317.07 593.392,1317.07 602.752,1317.07 612.112,1317.07 
  621.472,1317.07 630.832,1317.07 640.191,1317.07 649.551,1317.07 658.911,1317.07 668.271,1317.07 677.631,1317.07 686.99,84.2294 696.35,84.2294 705.71,84.2294 
  715.07,84.2294 724.43,84.2294 733.79,84.2294 743.149,84.2294 752.509,84.2294 761.869,84.2294 771.229,84.2294 780.589,84.2294 789.948,84.2294 799.308,84.2294 
  808.668,84.2294 818.028,84.2294 827.388,84.2294 836.747,84.2294 846.107,84.2294 855.467,84.2294 864.827,84.2294 874.187,84.2294 883.546,84.2294 892.906,84.2294 
  902.266,84.2294 911.626,84.2294 920.986,84.2294 930.346,84.2294 939.705,84.2294 949.065,84.2294 958.425,84.2294 967.785,84.2294 977.145,84.2294 986.504,84.2294 
  995.864,84.2294 1005.22,84.2294 1014.58,84.2294 1023.94,84.2294 1033.3,84.2294 1042.66,84.2294 1052.02,84.2294 1061.38,84.2294 1070.74,84.2294 1080.1,84.2294 
  1089.46,84.2294 1098.82,84.2294 1108.18,84.2294 1117.54,84.2294 1126.9,84.2294 1136.26,84.2294 1145.62,84.2294 1154.98,84.2294 1164.34,84.2294 1173.7,84.2294 
  1183.06,84.2294 1192.42,84.2294 1201.78,84.2294 1211.14,84.2294 1220.5,84.2294 1229.86,84.2294 1239.22,84.2294 1248.58,84.2294 1257.94,84.2294 1267.3,84.2294 
  1276.66,84.2294 1286.02,84.2294 1295.38,84.2294 1304.74,84.2294 1314.1,84.2294 1323.46,84.2294 1332.82,84.2294 1342.18,84.2294 1351.54,84.2294 1360.9,84.2294 
  1370.26,84.2294 1379.62,84.2294 1388.98,84.2294 1398.34,84.2294 1407.7,84.2294 1417.06,84.2294 1426.42,84.2294 1435.78,84.2294 1445.14,84.2294 1454.49,84.2294 
  1463.85,84.2294 1473.21,84.2294 1482.57,84.2294 1491.93,84.2294 1501.29,84.2294 1510.65,84.2294 1520.01,84.2294 1529.37,84.2294 1538.73,84.2294 1548.09,84.2294 
  1557.45,84.2294 1566.81,84.2294 1576.17,84.2294 1585.53,84.2294 1594.89,84.2294 1604.25,84.2294 1613.61,84.2294 1622.97,84.2294 1632.33,84.2294 1641.69,84.2294 
  1651.05,84.2294 1660.41,84.2294 1669.77,84.2294 1679.13,84.2294 1688.49,84.2294 1697.85,84.2294 1707.21,84.2294 1716.57,84.2294 1725.93,84.2294 1735.29,84.2294 
  1744.65,84.2294 1754.01,84.2294 1763.37,84.2294 1772.73,84.2294 1782.09,84.2294 1791.45,84.2294 1800.81,84.2294 1810.17,1317.07 1819.53,1317.07 1828.89,1317.07 
  1838.25,1317.07 1847.61,1317.07 1856.97,1317.07 1866.33,1317.07 1875.69,1317.07 1885.05,1317.07 1894.41,1317.07 1903.77,1317.07 1913.13,1317.07 1922.49,1317.07 
  1931.85,1317.07 1941.21,1317.07 1950.56,1317.07 1959.92,1317.07 1969.28,1317.07 1978.64,1317.07 1988,1317.07 1997.36,1317.07 2006.72,1317.07 2016.08,1317.07 
  2025.44,1317.07 2034.8,1317.07 2044.16,1317.07 2053.52,1317.07 2062.88,1317.07 2072.24,1317.07 2081.6,1317.07 2090.96,1317.07 2100.32,1317.07 2109.68,1317.07 
  2119.04,1317.07 2128.4,1317.07 2137.76,1317.07 2147.12,1317.07 2156.48,1317.07 2165.84,1317.07 2175.2,1317.07 2184.56,1317.07 2193.92,1317.07 2203.28,1317.07 
  2212.64,1317.07 2222,1317.07 2231.36,1317.07 2240.72,1317.07 2250.08,1317.07 2259.44,1317.07 2268.8,1317.07 2278.16,1317.07 2287.52,1317.07 2296.88,1317.07 
  
  "/>
</svg>
