<?xml version="1.0" encoding="utf-8"?>
<svg xmlns="http://www.w3.org/2000/svg" xmlns:xlink="http://www.w3.org/1999/xlink" width="600" height="400" viewBox="0 0 2400 1600">
<defs>
  <clipPath id="clip120">
    <rect x="0" y="0" width="2400" height="1600"/>
  </clipPath>
</defs>
<path clip-path="url(#clip120)" d="
M0 1600 L2400 1600 L2400 0 L0 0  Z
  " fill="#ffffff" fill-rule="evenodd" fill-opacity="1"/>
<defs>
  <clipPath id="clip121">
    <rect x="480" y="0" width="1681" height="1600"/>
  </clipPath>
</defs>
<defs>
  <clipPath id="clip122">
    <rect x="378" y="47" width="1975" height="1308"/>
  </clipPath>
</defs>
<path clip-path="url(#clip120)" d="
M378.398 1354.06 L2352.76 1354.06 L2352.76 47.2441 L378.398 47.2441  Z
  " fill="#ffffff" fill-rule="evenodd" fill-opacity="1"/>
<polyline clip-path="url(#clip122)" style="stroke:#000000; stroke-linecap:round; stroke-linejoin:round; stroke-width:2; stroke-opacity:0.1; fill:none" points="
  434.276,1354.06 434.276,47.2441 
  "/>
<polyline clip-path="url(#clip122)" style="stroke:#000000; stroke-linecap:round; stroke-linejoin:round; stroke-width:2; stroke-opacity:0.1; fill:none" points="
  620.536,1354.06 620.536,47.2441 
  "/>
<polyline clip-path="url(#clip122)" style="stroke:#000000; stroke-linecap:round; stroke-linejoin:round; stroke-width:2; stroke-opacity:0.1; fill:none" points="
  806.796,1354.06 806.796,47.2441 
  "/>
<polyline clip-path="url(#clip122)" style="stroke:#000000; stroke-linecap:round; stroke-linejoin:round; stroke-width:2; stroke-opacity:0.1; fill:none" points="
  993.056,1354.06 993.056,47.2441 
  "/>
<polyline clip-path="url(#clip122)" style="stroke:#000000; stroke-linecap:round; stroke-linejoin:round; stroke-width:2; stroke-opacity:0.1; fill:none" points="
  1179.32,1354.06 1179.32,47.2441 
  "/>
<polyline clip-path="url(#clip122)" style="stroke:#000000; stroke-linecap:round; stroke-linejoin:round; stroke-width:2; stroke-opacity:0.1; fill:none" points="
  1365.58,1354.06 1365.58,47.2441 
  "/>
<polyline clip-path="url(#clip122)" style="stroke:#000000; stroke-linecap:round; stroke-linejoin:round; stroke-width:2; stroke-opacity:0.1; fill:none" points="
  1551.84,1354.06 1551.84,47.2441 
  "/>
<polyline clip-path="url(#clip122)" style="stroke:#000000; stroke-linecap:round; stroke-linejoin:round; stroke-width:2; stroke-opacity:0.1; fill:none" points="
  1738.1,1354.06 1738.1,47.2441 
  "/>
<polyline clip-path="url(#clip122)" style="stroke:#000000; stroke-linecap:round; stroke-linejoin:round; stroke-width:2; stroke-opacity:0.1; fill:none" points="
  1924.36,1354.06 1924.36,47.2441 
  "/>
<polyline clip-path="url(#clip122)" style="stroke:#000000; stroke-linecap:round; stroke-linejoin:round; stroke-width:2; stroke-opacity:0.1; fill:none" points="
  2110.62,1354.06 2110.62,47.2441 
  "/>
<polyline clip-path="url(#clip122)" style="stroke:#000000; stroke-linecap:round; stroke-linejoin:round; stroke-width:2; stroke-opacity:0.1; fill:none" points="
  2296.88,1354.06 2296.88,47.2441 
  "/>
<polyline clip-path="url(#clip120)" style="stroke:#000000; stroke-linecap:round; stroke-linejoin:round; stroke-width:4; stroke-opacity:1; fill:none" points="
  378.398,1354.06 2352.76,1354.06 
  "/>
<polyline clip-path="url(#clip120)" style="stroke:#000000; stroke-linecap:round; stroke-linejoin:round; stroke-width:4; stroke-opacity:1; fill:none" points="
  434.276,1354.06 434.276,1335.16 
  "/>
<polyline clip-path="url(#clip120)" style="stroke:#000000; stroke-linecap:round; stroke-linejoin:round; stroke-width:4; stroke-opacity:1; fill:none" points="
  620.536,1354.06 620.536,1335.16 
  "/>
<polyline clip-path="url(#clip120)" style="stroke:#000000; stroke-linecap:round; stroke-linejoin:round; stroke-width:4; stroke-opacity:1; fill:none" points="
  806.796,1354.06 806.796,1335.16 
  "/>
<polyline clip-path="url(#clip120)" style="stroke:#000000; stroke-linecap:round; stroke-linejoin:round; stroke-width:4; stroke-opacity:1; fill:none" points="
  993.056,1354.06 993.056,1335.16 
  "/>
<polyline clip-path="url(#clip120)" style="stroke:#000000; stroke-linecap:round; stroke-linejoin:round; stroke-width:4; stroke-opacity:1; fill:none" points="
  1179.32,1354.06 1179.32,1335.16 
  "/>
<polyline clip-path="url(#clip120)" style="stroke:#000000; stroke-linecap:round; stroke-linejoin:round; stroke-width:4; stroke-opacity:1; fill:none" points="
  1365.58,1354.06 1365.58,1335.16 
  "/>
<polyline clip-path="url(#clip120)" style="stroke:#000000; stroke-linecap:round; stroke-linejoin:round; stroke-width:4; stroke-opacity:1; fill:none" points="
  1551.84,1354.06 1551.84,1335.16 
  "/>
<polyline clip-path="url(#clip120)" style="stroke:#000000; stroke-linecap:round; stroke-linejoin:round; stroke-width:4; stroke-opacity:1; fill:none" points="
  1738.1,1354.06 1738.1,1335.16 
  "/>
<polyline clip-path="url(#clip120)" style="stroke:#000000; stroke-linecap:round; stroke-linejoin:round; stroke-width:4; stroke-opacity:1; fill:none" points="
  1924.36,1354.06 1924.36,1335.16 
  "/>
<polyline clip-path="url(#clip120)" style="stroke:#000000; stroke-linecap:round; stroke-linejoin:round; stroke-width:4; stroke-opacity:1; fill:none" points="
  2110.62,1354.06 2110.62,1335.16 
  "/>
<polyline clip-path="url(#clip120)" style="stroke:#000000; stroke-linecap:round; stroke-linejoin:round; stroke-width:4; stroke-opacity:1; fill:none" points="
  2296.88,1354.06 2296.88,1335.16 
  "/>
<path clip-path="url(#clip120)" d="M434.276 1395.23 Q427.505 1395.23 424.076 1401.92 Q420.691 1408.56 420.691 1421.92 Q420.691 1435.25 424.076 1441.93 Q427.505 1448.57 434.276 1448.57 Q441.09 1448.57 444.475 1441.93 Q447.904 1435.25 447.904 1421.92 Q447.904 1408.56 444.475 1401.92 Q441.09 1395.23 434.276 1395.23 M434.276 1388.29 Q445.17 1388.29 450.899 1396.93 Q456.671 1405.52 456.671 1421.92 Q456.671 1438.29 450.899 1446.92 Q445.17 1455.52 434.276 1455.52 Q423.382 1455.52 417.609 1446.92 Q411.88 1438.29 411.88 1421.92 Q411.88 1405.52 417.609 1396.93 Q423.382 1388.29 434.276 1388.29 Z" fill="#000000" fill-rule="evenodd" fill-opacity="1" /><path clip-path="url(#clip120)" d="M765.889 1395.23 Q759.118 1395.23 755.69 1401.92 Q752.304 1408.56 752.304 1421.92 Q752.304 1435.25 755.69 1441.93 Q759.118 1448.57 765.889 1448.57 Q772.703 1448.57 776.089 1441.93 Q779.518 1435.25 779.518 1421.92 Q779.518 1408.56 776.089 1401.92 Q772.703 1395.23 765.889 1395.23 M765.889 1388.29 Q776.783 1388.29 782.512 1396.93 Q788.285 1405.52 788.285 1421.92 Q788.285 1438.29 782.512 1446.92 Q776.783 1455.52 765.889 1455.52 Q754.995 1455.52 749.223 1446.92 Q743.493 1438.29 743.493 1421.92 Q743.493 1405.52 749.223 1396.93 Q754.995 1388.29 765.889 1388.29 Z" fill="#000000" fill-rule="evenodd" fill-opacity="1" /><path clip-path="url(#clip120)" d="M803.693 1443.24 L812.851 1443.24 L812.851 1454.26 L803.693 1454.26 L803.693 1443.24 Z" fill="#000000" fill-rule="evenodd" fill-opacity="1" /><path clip-path="url(#clip120)" d="M839.5 1446.88 L870.099 1446.88 L870.099 1454.26 L828.953 1454.26 L828.953 1446.88 Q833.944 1441.72 842.538 1433.04 Q851.175 1424.31 853.389 1421.79 Q857.599 1417.06 859.248 1413.81 Q860.941 1410.51 860.941 1407.34 Q860.941 1402.18 857.295 1398.92 Q853.692 1395.67 847.877 1395.67 Q843.753 1395.67 839.153 1397.1 Q834.595 1398.53 829.387 1401.44 L829.387 1392.58 Q834.682 1390.46 839.283 1389.37 Q843.884 1388.29 847.703 1388.29 Q857.772 1388.29 863.762 1393.32 Q869.751 1398.36 869.751 1406.78 Q869.751 1410.77 868.232 1414.37 Q866.757 1417.93 862.807 1422.79 Q861.722 1424.05 855.906 1430.08 Q850.09 1436.07 839.5 1446.88 Z" fill="#000000" fill-rule="evenodd" fill-opacity="1" /><path clip-path="url(#clip120)" d="M1136.46 1395.23 Q1129.69 1395.23 1126.26 1401.92 Q1122.87 1408.56 1122.87 1421.92 Q1122.87 1435.25 1126.26 1441.93 Q1129.69 1448.57 1136.46 1448.57 Q1143.27 1448.57 1146.66 1441.93 Q1150.08 1435.25 1150.08 1421.92 Q1150.08 1408.56 1146.66 1401.92 Q1143.27 1395.23 1136.46 1395.23 M1136.46 1388.29 Q1147.35 1388.29 1153.08 1396.93 Q1158.85 1405.52 1158.85 1421.92 Q1158.85 1438.29 1153.08 1446.92 Q1147.35 1455.52 1136.46 1455.52 Q1125.56 1455.52 1119.79 1446.92 Q1114.06 1438.29 1114.06 1421.92 Q1114.06 1405.52 1119.79 1396.93 Q1125.56 1388.29 1136.46 1388.29 Z" fill="#000000" fill-rule="evenodd" fill-opacity="1" /><path clip-path="url(#clip120)" d="M1174.26 1443.24 L1183.42 1443.24 L1183.42 1454.26 L1174.26 1454.26 L1174.26 1443.24 Z" fill="#000000" fill-rule="evenodd" fill-opacity="1" /><path clip-path="url(#clip120)" d="M1226.6 1397.1 L1204.47 1431.69 L1226.6 1431.69 L1226.6 1397.1 M1224.3 1389.46 L1235.33 1389.46 L1235.33 1431.69 L1244.57 1431.69 L1244.57 1438.98 L1235.33 1438.98 L1235.33 1454.26 L1226.6 1454.26 L1226.6 1438.98 L1197.35 1438.98 L1197.35 1430.52 L1224.3 1389.46 Z" fill="#000000" fill-rule="evenodd" fill-opacity="1" /><path clip-path="url(#clip120)" d="M1509.28 1395.23 Q1502.51 1395.23 1499.08 1401.92 Q1495.7 1408.56 1495.7 1421.92 Q1495.7 1435.25 1499.08 1441.93 Q1502.51 1448.57 1509.28 1448.57 Q1516.09 1448.57 1519.48 1441.93 Q1522.91 1435.25 1522.91 1421.92 Q1522.91 1408.56 1519.48 1401.92 Q1516.09 1395.23 1509.28 1395.23 M1509.28 1388.29 Q1520.17 1388.29 1525.9 1396.93 Q1531.68 1405.52 1531.68 1421.92 Q1531.68 1438.29 1525.9 1446.92 Q1520.17 1455.52 1509.28 1455.52 Q1498.39 1455.52 1492.61 1446.92 Q1486.89 1438.29 1486.89 1421.92 Q1486.89 1405.52 1492.61 1396.93 Q1498.39 1388.29 1509.28 1388.29 Z" fill="#000000" fill-rule="evenodd" fill-opacity="1" /><path clip-path="url(#clip120)" d="M1547.08 1443.24 L1556.24 1443.24 L1556.24 1454.26 L1547.08 1454.26 L1547.08 1443.24 Z" fill="#000000" fill-rule="evenodd" fill-opacity="1" /><path clip-path="url(#clip120)" d="M1595.17 1418.37 Q1589.27 1418.37 1585.8 1422.4 Q1582.37 1426.44 1582.37 1433.47 Q1582.37 1440.46 1585.8 1444.54 Q1589.27 1448.57 1595.17 1448.57 Q1601.08 1448.57 1604.51 1444.54 Q1607.98 1440.46 1607.98 1433.47 Q1607.98 1426.44 1604.51 1422.4 Q1601.08 1418.37 1595.17 1418.37 M1612.58 1390.89 L1612.58 1398.88 Q1609.28 1397.32 1605.89 1396.49 Q1602.55 1395.67 1599.25 1395.67 Q1590.57 1395.67 1585.97 1401.53 Q1581.42 1407.39 1580.76 1419.23 Q1583.33 1415.46 1587.19 1413.46 Q1591.05 1411.42 1595.7 1411.42 Q1605.46 1411.42 1611.1 1417.37 Q1616.79 1423.27 1616.79 1433.47 Q1616.79 1443.45 1610.89 1449.49 Q1604.98 1455.52 1595.17 1455.52 Q1583.93 1455.52 1577.99 1446.92 Q1572.04 1438.29 1572.04 1421.92 Q1572.04 1406.56 1579.33 1397.45 Q1586.62 1388.29 1598.91 1388.29 Q1602.21 1388.29 1605.55 1388.94 Q1608.93 1389.59 1612.58 1390.89 Z" fill="#000000" fill-rule="evenodd" fill-opacity="1" /><path clip-path="url(#clip120)" d="M1882.04 1395.23 Q1875.27 1395.23 1871.84 1401.92 Q1868.45 1408.56 1868.45 1421.92 Q1868.45 1435.25 1871.84 1441.93 Q1875.27 1448.57 1882.04 1448.57 Q1888.85 1448.57 1892.24 1441.93 Q1895.67 1435.25 1895.67 1421.92 Q1895.67 1408.56 1892.24 1401.92 Q1888.85 1395.23 1882.04 1395.23 M1882.04 1388.29 Q1892.93 1388.29 1898.66 1396.93 Q1904.44 1405.52 1904.44 1421.92 Q1904.44 1438.29 1898.66 1446.92 Q1892.93 1455.52 1882.04 1455.52 Q1871.15 1455.52 1865.37 1446.92 Q1859.64 1438.29 1859.64 1421.92 Q1859.64 1405.52 1865.37 1396.93 Q1871.15 1388.29 1882.04 1388.29 Z" fill="#000000" fill-rule="evenodd" fill-opacity="1" /><path clip-path="url(#clip120)" d="M1919.84 1443.24 L1929 1443.24 L1929 1454.26 L1919.84 1454.26 L1919.84 1443.24 Z" fill="#000000" fill-rule="evenodd" fill-opacity="1" /><path clip-path="url(#clip120)" d="M1966.85 1423.49 Q1960.6 1423.49 1957 1426.83 Q1953.44 1430.17 1953.44 1436.03 Q1953.44 1441.89 1957 1445.23 Q1960.6 1448.57 1966.85 1448.57 Q1973.1 1448.57 1976.7 1445.23 Q1980.3 1441.85 1980.3 1436.03 Q1980.3 1430.17 1976.7 1426.83 Q1973.14 1423.49 1966.85 1423.49 M1958.08 1419.75 Q1952.44 1418.37 1949.27 1414.5 Q1946.15 1410.64 1946.15 1405.08 Q1946.15 1397.32 1951.66 1392.8 Q1957.21 1388.29 1966.85 1388.29 Q1976.53 1388.29 1982.04 1392.8 Q1987.55 1397.32 1987.55 1405.08 Q1987.55 1410.64 1984.38 1414.5 Q1981.26 1418.37 1975.66 1419.75 Q1982 1421.23 1985.51 1425.53 Q1989.07 1429.82 1989.07 1436.03 Q1989.07 1445.45 1983.3 1450.48 Q1977.57 1455.52 1966.85 1455.52 Q1956.13 1455.52 1950.36 1450.48 Q1944.63 1445.45 1944.63 1436.03 Q1944.63 1429.82 1948.19 1425.53 Q1951.74 1421.23 1958.08 1419.75 M1954.87 1405.91 Q1954.87 1410.94 1957.99 1413.77 Q1961.16 1416.59 1966.85 1416.59 Q1972.49 1416.59 1975.66 1413.77 Q1978.87 1410.94 1978.87 1405.91 Q1978.87 1400.87 1975.66 1398.05 Q1972.49 1395.23 1966.85 1395.23 Q1961.16 1395.23 1957.99 1398.05 Q1954.87 1400.87 1954.87 1405.91 Z" fill="#000000" fill-rule="evenodd" fill-opacity="1" /><path clip-path="url(#clip120)" d="M2278.84 1446.88 L2293.17 1446.88 L2293.17 1397.45 L2277.59 1400.57 L2277.59 1392.58 L2293.08 1389.46 L2301.85 1389.46 L2301.85 1446.88 L2316.17 1446.88 L2316.17 1454.26 L2278.84 1454.26 L2278.84 1446.88 Z" fill="#000000" fill-rule="evenodd" fill-opacity="1" /><path clip-path="url(#clip120)" d="M1391.35 1519.59 Q1391.35 1522.87 1389.3 1524.74 Q1387.25 1526.56 1384.9 1526.56 Q1382.68 1526.56 1381.51 1525.27 Q1380.34 1523.98 1380.34 1522.34 Q1380.34 1520.12 1381.98 1518.18 Q1383.62 1516.25 1386.08 1515.84 Q1383.67 1514.32 1380.1 1514.32 Q1377.76 1514.32 1375.71 1515.55 Q1373.72 1516.78 1372.49 1518.36 Q1371.32 1519.94 1370.27 1522.22 Q1369.27 1524.45 1368.86 1525.8 Q1368.51 1527.08 1368.22 1528.49 L1364.12 1544.89 Q1362.13 1552.67 1362.13 1555.43 Q1362.13 1558.82 1363.77 1561.11 Q1365.41 1563.33 1368.68 1563.33 Q1369.97 1563.33 1371.44 1562.98 Q1372.9 1562.57 1374.77 1561.52 Q1376.71 1560.4 1378.4 1558.76 Q1380.16 1557.07 1381.86 1554.2 Q1383.56 1551.33 1384.67 1547.64 Q1385.02 1546.35 1386.19 1546.35 Q1387.66 1546.35 1387.66 1547.52 Q1387.66 1548.52 1386.84 1550.62 Q1386.08 1552.67 1384.38 1555.37 Q1382.74 1558 1380.57 1560.4 Q1378.4 1562.75 1375.18 1564.39 Q1371.96 1566.02 1368.45 1566.02 Q1363.41 1566.02 1360.08 1563.33 Q1356.74 1560.64 1355.51 1556.89 Q1355.22 1557.42 1354.81 1558.12 Q1354.4 1558.82 1353.17 1560.4 Q1352 1561.93 1350.65 1563.1 Q1349.3 1564.21 1347.19 1565.09 Q1345.14 1566.02 1342.92 1566.02 Q1340.11 1566.02 1337.59 1565.2 Q1335.13 1564.39 1333.38 1562.51 Q1331.62 1560.64 1331.62 1558.06 Q1331.62 1555.19 1333.55 1553.2 Q1335.54 1551.15 1338.24 1551.15 Q1339.93 1551.15 1341.28 1552.15 Q1342.69 1553.14 1342.69 1555.31 Q1342.69 1557.71 1341.05 1559.53 Q1339.41 1561.34 1337.06 1561.81 Q1339.47 1563.33 1343.04 1563.33 Q1346.9 1563.33 1349.95 1559.93 Q1352.99 1556.54 1354.46 1550.86 Q1358.09 1537.22 1359.49 1531.13 Q1360.9 1524.98 1360.9 1522.34 Q1360.9 1519.88 1360.25 1518.18 Q1359.61 1516.49 1358.5 1515.73 Q1357.44 1514.91 1356.45 1514.61 Q1355.51 1514.32 1354.46 1514.32 Q1352.7 1514.32 1350.71 1515.02 Q1348.78 1515.73 1346.43 1517.36 Q1344.15 1518.95 1341.98 1522.22 Q1339.82 1525.5 1338.35 1530.01 Q1338.06 1531.36 1336.77 1531.36 Q1335.37 1531.3 1335.37 1530.13 Q1335.37 1529.13 1336.13 1527.08 Q1336.95 1524.98 1338.59 1522.34 Q1340.28 1519.71 1342.45 1517.36 Q1344.68 1514.96 1347.9 1513.32 Q1351.18 1511.68 1354.69 1511.68 Q1356.27 1511.68 1357.79 1512.04 Q1359.37 1512.33 1361.25 1513.21 Q1363.18 1514.09 1364.88 1516.02 Q1366.58 1517.95 1367.63 1520.76 Q1368.33 1519.41 1369.27 1518.13 Q1370.27 1516.84 1371.79 1515.26 Q1373.37 1513.62 1375.54 1512.68 Q1377.76 1511.68 1380.22 1511.68 Q1382.62 1511.68 1384.96 1512.33 Q1387.31 1512.91 1389.3 1514.85 Q1391.35 1516.72 1391.35 1519.59 Z" fill="#000000" fill-rule="evenodd" fill-opacity="1" /><polyline clip-path="url(#clip122)" style="stroke:#000000; stroke-linecap:round; stroke-linejoin:round; stroke-width:2; stroke-opacity:0.1; fill:none" points="
  378.398,1317.1 2352.76,1317.1 
  "/>
<polyline clip-path="url(#clip122)" style="stroke:#000000; stroke-linecap:round; stroke-linejoin:round; stroke-width:2; stroke-opacity:0.1; fill:none" points="
  378.398,700.665 2352.76,700.665 
  "/>
<polyline clip-path="url(#clip122)" style="stroke:#000000; stroke-linecap:round; stroke-linejoin:round; stroke-width:2; stroke-opacity:0.1; fill:none" points="
  378.398,84.2294 2352.76,84.2294 
  "/>
<polyline clip-path="url(#clip120)" style="stroke:#000000; stroke-linecap:round; stroke-linejoin:round; stroke-width:4; stroke-opacity:1; fill:none" points="
  378.398,1354.06 378.398,47.2441 
  "/>
<polyline clip-path="url(#clip120)" style="stroke:#000000; stroke-linecap:round; stroke-linejoin:round; stroke-width:4; stroke-opacity:1; fill:none" points="
  378.398,1317.1 397.295,1317.1 
  "/>
<polyline clip-path="url(#clip120)" style="stroke:#000000; stroke-linecap:round; stroke-linejoin:round; stroke-width:4; stroke-opacity:1; fill:none" points="
  378.398,700.665 397.295,700.665 
  "/>
<polyline clip-path="url(#clip120)" style="stroke:#000000; stroke-linecap:round; stroke-linejoin:round; stroke-width:4; stroke-opacity:1; fill:none" points="
  378.398,84.2294 397.295,84.2294 
  "/>
<path clip-path="url(#clip120)" d="M228.987 1317.95 L284.629 1317.95 L284.629 1325.33 L228.987 1325.33 L228.987 1317.95 Z" fill="#000000" fill-rule="evenodd" fill-opacity="1" /><path clip-path="url(#clip120)" d="M305.071 1342.12 L319.394 1342.12 L319.394 1292.69 L303.813 1295.81 L303.813 1287.83 L319.307 1284.7 L328.075 1284.7 L328.075 1342.12 L342.398 1342.12 L342.398 1349.5 L305.071 1349.5 L305.071 1342.12 Z" fill="#000000" fill-rule="evenodd" fill-opacity="1" /><path clip-path="url(#clip120)" d="M320.002 674.037 Q313.231 674.037 309.802 680.721 Q306.417 687.362 306.417 700.73 Q306.417 714.055 309.802 720.739 Q313.231 727.379 320.002 727.379 Q326.816 727.379 330.201 720.739 Q333.63 714.055 333.63 700.73 Q333.63 687.362 330.201 680.721 Q326.816 674.037 320.002 674.037 M320.002 667.093 Q330.896 667.093 336.625 675.73 Q342.398 684.324 342.398 700.73 Q342.398 717.093 336.625 725.73 Q330.896 734.324 320.002 734.324 Q309.108 734.324 303.335 725.73 Q297.606 717.093 297.606 700.73 Q297.606 684.324 303.335 675.73 Q309.108 667.093 320.002 667.093 Z" fill="#000000" fill-rule="evenodd" fill-opacity="1" /><path clip-path="url(#clip120)" d="M305.071 109.251 L319.394 109.251 L319.394 59.8155 L303.813 62.9404 L303.813 54.9544 L319.307 51.8294 L328.075 51.8294 L328.075 109.251 L342.398 109.251 L342.398 116.629 L305.071 116.629 L305.071 109.251 Z" fill="#000000" fill-rule="evenodd" fill-opacity="1" /><path clip-path="url(#clip120)" d="M111.607 767.098 Q118.575 767.098 125.484 770.319 Q132.394 773.54 137.664 778.81 Q142.876 784.021 146.155 791.165 Q149.434 798.25 149.434 805.511 Q149.434 806.799 149.141 809.435 Q170.748 813.533 171.1 813.651 Q172.329 814.178 173.09 815.232 Q173.852 816.227 174.027 816.93 Q174.203 817.632 174.203 818.101 Q174.203 819.272 173.383 820.443 Q172.622 821.556 170.865 821.556 Q170.455 821.556 168.465 820.97 L148.321 814.587 Q146.096 824.249 139.948 829.812 Q133.741 835.375 125.309 835.375 Q119.922 835.375 112.895 832.916 Q105.868 830.456 101.125 827.47 Q96.382 824.483 96.382 822.785 Q96.382 821.321 97.6116 821.321 Q98.0801 821.321 99.1341 822.258 Q104.58 827.001 112.426 829.636 Q120.214 832.213 123.962 832.213 Q130.52 832.213 135.263 827.177 Q139.948 822.083 141.704 812.538 Q123.318 806.858 115.588 803.462 Q100.247 796.611 96.4991 787.71 Q95.0937 784.431 95.0937 780.801 Q95.0937 774.242 99.7197 770.67 Q104.287 767.098 111.607 767.098 M114.242 770.495 Q111.138 770.495 108.503 771.607 Q105.868 772.661 103.994 775.355 Q102.062 778.048 102.062 781.972 Q102.062 789.818 109.616 796.376 Q117.169 802.935 128.881 805.745 L141.88 808.146 Q142.349 808.146 142.349 806.565 Q142.466 805.628 142.466 804.399 Q142.466 797.723 139.948 791.399 Q137.43 785.017 133.448 780.508 Q129.466 775.999 124.372 773.247 Q119.277 770.495 114.242 770.495 Z" fill="#000000" fill-rule="evenodd" fill-opacity="1" /><path clip-path="url(#clip120)" d="M154.479 733.512 Q156.282 733.512 157.635 734.988 Q158.947 736.423 158.947 737.98 Q158.947 739.415 158.086 740.317 Q157.184 741.177 155.913 741.177 Q154.233 741.177 152.839 739.743 Q151.446 738.308 151.446 736.628 Q151.446 735.234 152.306 734.373 Q153.167 733.512 154.479 733.512 M194.935 732.775 Q195.263 732.775 196.575 733.144 Q197.846 733.512 199.813 734.414 Q201.739 735.275 203.543 736.464 Q205.347 737.652 206.617 739.62 Q207.888 741.546 207.888 743.76 Q207.888 746.752 205.92 748.719 Q203.953 750.646 201.002 750.646 Q199.403 750.646 194.279 748.719 Q179.359 743.145 178.745 742.94 Q176.408 741.997 174.359 741.997 Q173.416 741.997 172.842 742.202 Q172.227 742.407 172.022 742.817 Q171.776 743.227 171.735 743.473 Q171.694 743.678 171.694 744.088 Q171.694 746.506 174.154 748.76 Q176.613 751.015 182.106 752.572 Q183.13 752.9 183.376 753.105 Q183.622 753.31 183.622 753.925 Q183.581 754.95 182.761 754.95 Q182.516 754.95 181.573 754.663 Q180.589 754.376 179.113 753.843 Q177.597 753.31 176.039 752.368 Q174.441 751.425 173.047 750.277 Q171.653 749.088 170.752 747.408 Q169.85 745.727 169.85 743.842 Q169.85 740.768 171.858 738.882 Q173.826 736.956 176.736 736.956 Q178.335 736.956 181.163 738.062 Q184.852 739.415 186.041 739.907 L194.853 743.186 Q198.05 744.375 199.034 744.744 Q199.977 745.071 201.125 745.358 Q202.231 745.604 203.256 745.604 Q204.691 745.604 205.347 745.153 Q206.002 744.662 206.002 743.596 Q206.002 740.645 203.092 738.472 Q200.141 736.3 195.632 735.029 Q195.509 734.988 195.304 734.947 Q194.279 734.619 194.156 734.291 Q194.115 734.127 194.115 733.799 Q194.115 732.775 194.935 732.775 Z" fill="#000000" fill-rule="evenodd" fill-opacity="1" /><path clip-path="url(#clip120)" d="M118.106 720.187 Q97.8459 720.187 81.5087 712.634 Q74.6576 709.413 68.9191 704.904 Q63.1806 700.395 60.6627 697.409 Q58.1448 694.423 58.1448 693.603 Q58.1448 692.432 59.3159 692.373 Q59.9015 692.373 61.3654 693.954 Q81.0403 713.278 118.106 713.219 Q155.289 713.219 174.203 694.423 Q176.252 692.373 176.897 692.373 Q178.068 692.373 178.068 693.603 Q178.068 694.423 175.667 697.292 Q173.266 700.161 167.762 704.611 Q162.258 709.062 155.524 712.282 Q139.186 720.187 118.106 720.187 Z" fill="#000000" fill-rule="evenodd" fill-opacity="1" /><path clip-path="url(#clip120)" d="M102.999 623.529 Q106.278 623.529 108.152 625.579 Q109.967 627.628 109.967 629.97 Q109.967 632.196 108.679 633.367 Q107.391 634.538 105.751 634.538 Q103.526 634.538 101.593 632.898 Q99.6611 631.259 99.2512 628.799 Q97.7287 631.2 97.7287 634.772 Q97.7287 637.114 98.9584 639.164 Q100.188 641.155 101.769 642.384 Q103.35 643.555 105.634 644.609 Q107.859 645.605 109.206 646.015 Q110.494 646.366 111.899 646.659 L128.295 650.758 Q136.083 652.749 138.835 652.749 Q142.231 652.749 144.515 651.109 Q146.74 649.47 146.74 646.19 Q146.74 644.902 146.389 643.438 Q145.979 641.974 144.925 640.101 Q143.812 638.168 142.173 636.47 Q140.475 634.713 137.605 633.015 Q134.736 631.317 131.047 630.205 Q129.759 629.853 129.759 628.682 Q129.759 627.218 130.93 627.218 Q131.926 627.218 134.034 628.038 Q136.083 628.799 138.777 630.497 Q141.412 632.137 143.812 634.304 Q146.155 636.47 147.794 639.691 Q149.434 642.911 149.434 646.425 Q149.434 651.46 146.74 654.798 Q144.047 658.136 140.299 659.366 Q140.826 659.658 141.529 660.068 Q142.231 660.478 143.812 661.708 Q145.335 662.879 146.506 664.226 Q147.619 665.572 148.497 667.681 Q149.434 669.73 149.434 671.955 Q149.434 674.766 148.614 677.284 Q147.794 679.743 145.92 681.5 Q144.047 683.256 141.47 683.256 Q138.601 683.256 136.61 681.324 Q134.561 679.333 134.561 676.64 Q134.561 674.941 135.556 673.595 Q136.551 672.189 138.718 672.189 Q141.119 672.189 142.934 673.829 Q144.749 675.468 145.218 677.811 Q146.74 675.41 146.74 671.838 Q146.74 667.973 143.344 664.928 Q139.948 661.883 134.268 660.42 Q120.624 656.789 114.534 655.384 Q108.386 653.978 105.751 653.978 Q103.292 653.978 101.593 654.622 Q99.8953 655.267 99.1341 656.379 Q98.3143 657.433 98.0215 658.429 Q97.7287 659.366 97.7287 660.42 Q97.7287 662.176 98.4314 664.167 Q99.1341 666.099 100.774 668.442 Q102.355 670.725 105.634 672.892 Q108.913 675.059 113.422 676.522 Q114.769 676.815 114.769 678.103 Q114.71 679.509 113.539 679.509 Q112.543 679.509 110.494 678.748 Q108.386 677.928 105.751 676.288 Q103.116 674.59 100.774 672.424 Q98.3729 670.198 96.7333 666.978 Q95.0937 663.699 95.0937 660.185 Q95.0937 658.604 95.4451 657.082 Q95.7378 655.501 96.6162 653.627 Q97.4945 651.695 99.4269 649.997 Q101.359 648.298 104.17 647.244 Q102.823 646.542 101.535 645.605 Q100.247 644.609 98.6656 643.087 Q97.0261 641.506 96.0892 639.339 Q95.0937 637.114 95.0937 634.655 Q95.0937 632.254 95.7378 629.912 Q96.3234 627.57 98.2558 625.579 Q100.13 623.529 102.999 623.529 Z" fill="#000000" fill-rule="evenodd" fill-opacity="1" /><path clip-path="url(#clip120)" d="M176.897 611.98 Q176.311 611.98 174.847 610.458 Q155.172 591.134 118.106 591.134 Q80.9231 591.134 62.1266 609.696 Q59.9601 611.98 59.3159 611.98 Q58.1448 611.98 58.1448 610.809 Q58.1448 609.989 60.5456 607.12 Q62.9464 604.192 68.4507 599.8 Q73.955 595.35 80.6889 592.071 Q97.0261 584.166 118.106 584.166 Q138.367 584.166 154.704 591.72 Q161.555 594.94 167.293 599.449 Q173.032 603.958 175.55 606.944 Q178.068 609.931 178.068 610.809 Q178.068 611.98 176.897 611.98 Z" fill="#000000" fill-rule="evenodd" fill-opacity="1" /><polyline clip-path="url(#clip122)" style="stroke:#009af9; stroke-linecap:round; stroke-linejoin:round; stroke-width:12; stroke-opacity:1; fill:none" points="
  434.276,226.552 443.635,200.182 452.995,175.939 462.355,154.092 471.715,134.882 481.075,118.523 490.434,105.196 499.794,95.0473 509.154,88.1899 518.514,84.6995 
  527.874,84.6147 537.233,87.9367 546.593,94.6284 555.953,104.616 565.313,117.789 574.673,134.001 584.033,153.074 593.392,174.795 602.752,198.925 612.112,225.197 
  621.472,253.32 630.832,282.982 640.191,313.856 649.551,345.599 658.911,377.861 668.271,410.284 677.631,442.51 686.99,474.182 696.35,504.949 705.71,534.471 
  715.07,562.422 724.43,588.492 733.79,612.392 743.149,633.858 752.509,652.652 761.869,668.567 771.229,681.426 780.589,691.088 789.948,697.444 799.308,700.425 
  808.668,699.998 818.028,696.167 827.388,688.976 836.747,678.502 846.107,664.863 855.467,648.21 864.827,628.726 874.187,606.627 883.546,582.158 892.906,555.589 
  902.266,527.216 911.626,497.35 920.986,466.324 930.346,434.48 939.705,402.171 949.065,369.755 958.425,337.59 967.785,306.031 977.145,275.429 986.504,246.122 
  995.864,218.435 1005.22,192.673 1014.58,169.121 1023.94,148.042 1033.3,129.667 1042.66,114.2 1052.02,101.812 1061.38,92.6404 1070.74,86.7867 1080.1,84.3157 
  1089.46,85.2546 1098.82,89.593 1108.18,97.283 1117.54,108.239 1126.9,122.341 1136.26,139.432 1145.62,159.322 1154.98,181.793 1164.34,206.595 1173.7,233.453 
  1183.06,262.071 1192.42,292.132 1201.78,323.303 1211.14,355.239 1220.5,387.587 1229.86,419.989 1239.22,452.086 1248.58,483.523 1257.94,513.952 1267.3,543.036 
  1276.66,570.454 1286.02,595.902 1295.38,619.098 1304.74,639.787 1314.1,657.738 1323.46,672.753 1332.82,684.666 1342.18,693.345 1351.54,698.695 1360.9,700.655 
  1370.26,699.205 1379.62,694.36 1388.98,686.174 1398.34,674.737 1407.7,660.176 1417.06,642.652 1426.42,622.36 1435.78,599.523 1445.14,574.395 1454.49,547.253 
  1463.85,518.398 1473.21,488.149 1482.57,456.841 1491.93,424.82 1501.29,392.442 1510.65,360.063 1520.01,328.042 1529.37,296.735 1538.73,266.486 1548.09,237.632 
  1557.45,210.49 1566.81,185.363 1576.17,162.527 1585.53,142.235 1594.89,124.713 1604.25,110.153 1613.61,98.7173 1622.97,90.5322 1632.33,85.6883 1641.69,84.239 
  1651.05,86.2006 1660.41,91.5512 1669.77,100.232 1679.13,112.146 1688.49,127.162 1697.85,145.114 1707.21,165.803 1716.57,189.001 1725.93,214.449 1735.29,241.868 
  1744.65,270.953 1754.01,301.382 1763.37,332.82 1772.73,364.917 1782.09,397.318 1791.45,429.666 1800.81,461.602 1810.17,492.773 1819.53,522.833 1828.89,551.451 
  1838.25,578.309 1847.61,603.11 1856.97,625.579 1866.33,645.469 1875.69,662.559 1885.05,676.659 1894.41,687.615 1903.77,695.303 1913.13,699.641 1922.49,700.578 
  1931.85,698.106 1941.21,692.251 1950.56,683.079 1959.92,670.69 1969.28,655.222 1978.64,636.846 1988,615.765 1997.36,592.213 2006.72,566.45 2016.08,538.762 
  2025.44,509.455 2034.8,478.852 2044.16,447.294 2053.52,415.128 2062.88,382.712 2072.24,350.403 2081.6,318.559 2090.96,287.533 2100.32,257.669 2109.68,229.295 
  2119.04,202.728 2128.4,178.259 2137.76,156.161 2147.12,136.678 2156.48,120.026 2165.84,106.388 2175.2,95.9157 2184.56,88.7251 2193.92,84.8956 2203.28,84.4696 
  2212.64,87.4519 2222,93.8094 2231.36,103.472 2240.72,116.332 2250.08,132.248 2259.44,151.044 2268.8,172.51 2278.16,196.411 2287.52,222.482 2296.88,250.433 
  
  "/>
<polyline clip-path="url(#clip122)" style="stroke:#e26f46; stroke-linecap:round; stroke-linejoin:round; stroke-width:12; stroke-opacity:1; fill:none" points="
  434.276,792.832 443.635,817.119 452.995,843.529 462.355,871.769 471.715,901.526 481.075,932.471 490.434,964.262 499.794,996.547 509.154,1028.97 518.514,1061.17 
  527.874,1092.79 537.233,1123.48 546.593,1152.9 555.953,1180.73 565.313,1206.66 574.673,1230.4 584.033,1251.69 593.392,1270.29 602.752,1286 612.112,1298.64 
  621.472,1308.07 630.832,1314.2 640.191,1316.94 649.551,1316.28 658.911,1312.21 668.271,1304.79 677.631,1294.09 686.99,1280.24 696.35,1263.38 705.71,1243.71 
  715.07,1221.44 724.43,1196.81 733.79,1170.11 743.149,1141.62 752.509,1111.66 761.869,1080.57 771.229,1048.68 780.589,1016.36 789.948,983.944 799.308,951.81 
  808.668,920.307 818.028,889.784 827.388,860.579 836.747,833.015 846.107,807.398 855.467,784.01 864.827,763.111 874.187,744.932 883.546,729.674 892.906,717.505 
  902.266,708.561 911.626,702.941 920.986,700.706 930.346,699.448 939.705,694.875 949.065,686.955 958.425,675.776 967.785,661.461 977.145,644.169 986.504,624.092 
  995.864,601.451 1005.22,576.497 1014.58,549.507 1023.94,520.778 1033.3,490.629 1042.66,459.394 1052.02,427.418 1061.38,395.055 1070.74,362.662 1080.1,330.6 
  1089.46,299.222 1098.82,268.875 1108.18,239.897 1117.54,212.606 1126.9,187.306 1136.26,164.275 1145.62,143.77 1154.98,126.017 1164.34,111.212 1173.7,99.5196 
  1183.06,91.0688 1192.42,85.9532 1201.78,84.2294 1211.14,85.9166 1220.5,90.9959 1229.86,99.4112 1239.22,111.069 1248.58,125.842 1257.94,143.564 1267.3,164.041 
  1276.66,187.045 1286.02,212.323 1295.38,239.593 1304.74,268.556 1314.1,298.889 1323.46,330.258 1332.82,362.315 1342.18,394.706 1351.54,427.071 1360.9,459.053 
  1370.26,490.298 1379.62,520.461 1388.98,549.206 1398.34,576.217 1407.7,601.195 1417.06,623.862 1426.42,643.968 1435.78,661.291 1445.14,675.638 1454.49,686.852 
  1463.85,694.807 1473.21,699.417 1482.57,700.701 1491.93,702.899 1501.29,708.483 1510.65,717.391 1520.01,729.526 1529.37,744.752 1538.73,762.901 1548.09,783.772 
  1557.45,807.134 1566.81,832.729 1576.17,860.273 1585.53,889.462 1594.89,919.972 1604.25,951.467 1613.61,983.597 1622.97,1016.01 1632.33,1048.34 1641.69,1080.23 
  1651.05,1111.34 1660.41,1141.31 1669.77,1169.81 1679.13,1196.54 1688.49,1221.18 1697.85,1243.48 1707.21,1263.18 1716.57,1280.07 1725.93,1293.96 1735.29,1304.69 
  1744.65,1312.15 1754.01,1316.25 1763.37,1316.95 1772.73,1314.24 1782.09,1308.16 1791.45,1298.76 1800.81,1286.15 1810.17,1270.47 1819.53,1251.9 1828.89,1230.64 
  1838.25,1206.93 1847.61,1181.02 1856.97,1153.21 1866.33,1123.8 1875.69,1093.12 1885.05,1061.51 1894.41,1029.32 1903.77,996.896 1913.13,964.608 1922.49,932.81 
  1931.85,901.853 1941.21,872.082 1950.56,843.824 1959.92,817.393 1969.28,793.081 1978.64,771.157 1988,751.864 1997.36,735.415 2006.72,721.992 2016.08,711.745 
  2025.44,704.785 2034.8,701.191 2044.16,701.002 2053.52,704.22 2062.88,710.81 2072.24,720.699 2081.6,733.776 2090.96,749.898 2100.32,768.886 2109.68,790.53 
  2119.04,814.59 2128.4,840.801 2137.76,868.872 2147.12,898.492 2156.48,929.333 2165.84,961.055 2175.2,993.306 2184.56,1025.73 2193.92,1057.97 2203.28,1089.66 
  2212.64,1120.46 2222,1150.03 2231.36,1178.03 2240.72,1204.16 2250.08,1228.13 2259.44,1249.68 2268.8,1268.56 2278.16,1284.56 2287.52,1297.52 2296.88,1307.28 
  
  "/>
<polyline clip-path="url(#clip122)" style="stroke:#3da44d; stroke-linecap:round; stroke-linejoin:round; stroke-width:12; stroke-opacity:1; fill:none" points="
  434.276,344.131 443.635,376.377 452.995,408.8 462.355,441.043 471.715,472.748 481.075,503.564 490.434,533.151 499.794,561.181 509.154,587.343 518.514,611.348 
  527.874,632.931 537.233,651.853 546.593,667.904 555.953,680.906 565.313,690.717 574.673,697.226 584.033,700.363 593.392,700.092 602.752,696.417 612.112,689.377 
  621.472,679.052 630.832,665.555 640.191,649.036 649.551,629.677 658.911,607.693 668.271,583.327 677.631,556.848 686.99,528.55 696.35,498.746 705.71,467.766 
  715.07,435.952 724.43,403.657 733.79,371.237 743.149,339.052 752.509,307.459 761.869,276.805 771.229,247.432 780.589,219.663 789.948,193.806 799.308,170.148 
  808.668,148.95 818.028,130.446 827.388,114.842 836.747,102.31 846.107,92.9886 855.467,86.9813 864.827,84.3544 874.187,85.137 883.546,89.3205 892.906,96.8585 
  902.266,107.668 911.626,121.628 920.986,138.586 930.346,158.353 939.705,180.711 949.065,205.411 958.425,232.182 967.785,260.726 977.145,290.728 986.504,321.856 
  995.864,353.765 1005.22,386.101 1014.58,418.509 1023.94,450.627 1033.3,482.102 1042.66,512.585 1052.02,541.738 1061.38,569.239 1070.74,594.783 1080.1,618.089 
  1089.46,638.897 1098.82,656.978 1108.18,672.132 1117.54,684.19 1126.9,693.02 1136.26,698.524 1145.62,700.64 1154.98,699.346 1164.34,694.655 1173.7,686.62 
  1183.06,675.33 1192.42,660.909 1201.78,643.517 1211.14,623.347 1220.5,600.621 1229.86,575.592 1239.22,548.536 1248.58,519.753 1257.94,489.56 1267.3,458.293 
  1276.66,426.298 1286.02,393.928 1295.38,361.541 1304.74,329.496 1314.1,298.148 1323.46,267.844 1332.82,238.918 1342.18,211.692 1351.54,186.466 1360.9,163.519 
  1370.26,143.106 1379.62,125.452 1388.98,110.753 1398.34,99.171 1407.7,90.8347 1417.06,85.8362 1426.42,84.2309 1435.78,86.0364 1445.14,91.2328 1454.49,99.7626 
  1463.85,111.531 1473.21,126.409 1482.57,144.231 1491.93,164.799 1501.29,187.887 1510.65,213.238 1520.01,240.573 1529.37,269.589 1538.73,299.964 1548.09,331.362 
  1557.45,363.437 1566.81,395.833 1576.17,428.191 1585.53,460.153 1594.89,491.367 1604.25,521.485 1613.61,550.176 1622.97,577.121 1632.33,602.022 1641.69,624.605 
  1651.05,644.618 1660.41,661.84 1669.77,676.081 1679.13,687.183 1688.49,695.024 1697.85,699.516 1707.21,700.72 1716.57,703.036 1725.93,708.737 1735.29,717.76 
  1744.65,730.004 1754.01,745.334 1763.37,763.581 1772.73,784.543 1782.09,807.987 1791.45,833.655 1800.81,861.262 1810.17,890.502 1819.53,921.052 1828.89,952.575 
  1838.25,984.72 1847.61,1017.13 1856.97,1049.45 1866.33,1081.33 1875.69,1112.4 1885.05,1142.32 1894.41,1170.77 1903.77,1197.43 1913.13,1222 1922.49,1244.21 
  1931.85,1263.82 1941.21,1280.61 1950.56,1294.39 1959.92,1305.01 1969.28,1312.35 1978.64,1316.33 1988,1316.92 1997.36,1314.09 2006.72,1307.88 2016.08,1298.37 
  2025.44,1285.65 2034.8,1269.88 2044.16,1251.21 2053.52,1229.86 2062.88,1206.06 2072.24,1180.09 2081.6,1152.21 2090.96,1122.76 2100.32,1092.04 2109.68,1060.4 
  2119.04,1028.19 2128.4,995.77 2137.76,963.493 2147.12,931.718 2156.48,900.797 2165.84,871.073 2175.2,842.873 2184.56,816.511 2193.92,792.277 2203.28,770.441 
  2212.64,751.243 2222,734.897 2231.36,721.582 2240.72,711.447 2250.08,704.604 2259.44,701.127 2268.8,701.057 2278.16,704.393 2287.52,711.099 2296.88,721.1 
  
  "/>
<polyline clip-path="url(#clip122)" style="stroke:#c271d2; stroke-linecap:round; stroke-linejoin:round; stroke-width:12; stroke-opacity:1; fill:none" points="
  434.276,389.145 443.635,421.54 452.995,453.613 462.355,485.01 471.715,515.382 481.075,544.393 490.434,571.723 499.794,597.069 509.154,620.151 518.514,640.713 
  527.874,658.527 537.233,673.397 546.593,685.158 555.953,693.679 565.313,698.867 574.673,700.664 584.033,702.28 593.392,707.287 602.752,715.632 612.112,727.222 
  621.472,741.929 630.832,759.59 640.191,780.01 649.551,802.963 658.911,828.195 668.271,855.426 677.631,884.355 686.99,914.663 696.35,946.013 705.71,978.059 
  715.07,1010.45 724.43,1042.82 733.79,1074.81 743.149,1106.07 752.509,1136.26 761.869,1165.04 771.229,1192.09 780.589,1217.12 789.948,1239.84 799.308,1260 
  808.668,1277.39 818.028,1291.8 827.388,1303.08 836.747,1311.11 846.107,1315.79 855.467,1317.07 864.827,1314.95 874.187,1309.44 883.546,1300.6 892.906,1288.53 
  902.266,1273.37 911.626,1255.28 920.986,1234.47 930.346,1211.16 939.705,1185.61 949.065,1158.1 958.425,1128.94 967.785,1098.46 977.145,1066.98 986.504,1034.86 
  995.864,1002.45 1005.22,970.118 1014.58,938.211 1023.94,907.085 1033.3,877.087 1042.66,848.547 1052.02,821.781 1061.38,797.086 1070.74,774.735 1080.1,754.974 
  1089.46,738.024 1098.82,724.071 1108.18,713.271 1117.54,705.741 1126.9,701.566 1136.26,700.792 1145.62,703.428 1154.98,709.444 1164.34,718.773 1173.7,731.314 
  1183.06,746.925 1192.42,765.436 1201.78,786.641 1211.14,810.305 1220.5,836.167 1229.86,863.941 1239.22,893.318 1248.58,923.974 1257.94,955.57 1267.3,987.755 
  1276.66,1020.18 1286.02,1052.47 1295.38,1084.28 1304.74,1115.26 1314.1,1145.06 1323.46,1173.35 1332.82,1199.83 1342.18,1224.19 1351.54,1246.17 1360.9,1265.52 
  1370.26,1282.03 1379.62,1295.52 1388.98,1305.84 1398.34,1312.87 1407.7,1316.53 1417.06,1316.79 1426.42,1313.65 1435.78,1307.13 1445.14,1297.31 1454.49,1284.3 
  1463.85,1268.24 1473.21,1249.31 1482.57,1227.73 1491.93,1203.71 1501.29,1177.55 1510.65,1149.51 1520.01,1119.92 1529.37,1089.1 1538.73,1057.4 1548.09,1025.15 
  1557.45,992.729 1566.81,960.484 1576.17,928.775 1585.53,897.952 1594.89,868.357 1604.25,840.317 1613.61,814.142 1622.97,790.123 1632.33,768.524 1641.69,749.585 
  1651.05,733.516 1660.41,720.494 1669.77,710.664 1679.13,704.133 1688.49,700.976 1697.85,700.104 1707.21,696.45 1716.57,689.431 1725.93,679.126 1735.29,665.648 
  1744.65,649.147 1754.01,629.805 1763.37,607.836 1772.73,583.484 1782.09,557.018 1791.45,528.73 1800.81,498.934 1810.17,467.96 1819.53,436.15 1828.89,403.857 
  1838.25,371.437 1847.61,339.25 1856.97,307.651 1866.33,276.991 1875.69,247.609 1885.05,219.829 1894.41,193.96 1903.77,170.287 1913.13,149.073 1922.49,130.552 
  1931.85,114.929 1941.21,102.378 1950.56,93.0361 1959.92,87.0081 1969.28,84.3602 1978.64,85.1217 1988,89.2843 1997.36,96.8019 2006.72,107.591 2016.08,121.533 
  2025.44,138.473 2034.8,158.223 2044.16,180.565 2053.52,205.252 2062.88,232.011 2072.24,260.545 2081.6,290.539 2090.96,321.661 2100.32,353.566 2109.68,385.901 
  2119.04,418.309 2128.4,450.431 2137.76,481.91 2147.12,512.4 2156.48,541.563 2165.84,569.075 2175.2,594.632 2184.56,617.952 2193.92,638.777 2203.28,656.875 
  2212.64,672.048 2222,684.126 2231.36,692.976 2240.72,698.5 2250.08,700.637 2259.44,701.966 2268.8,706.635 2278.16,714.65 2287.52,725.92 2296.88,740.322 
  
  "/>
<polyline clip-path="url(#clip122)" style="stroke:#ac8d18; stroke-linecap:round; stroke-linejoin:round; stroke-width:12; stroke-opacity:1; fill:none" points="
  434.276,954.059 443.635,922.5 452.995,891.897 462.355,862.588 471.715,834.899 481.075,809.135 490.434,785.581 499.794,764.498 509.154,746.12 518.514,730.65 
  527.874,718.259 537.233,709.084 546.593,703.227 555.953,700.752 565.313,699.643 574.673,695.308 584.033,687.621 593.392,676.668 602.752,662.57 612.112,645.482 
  621.472,625.595 630.832,603.127 640.191,578.327 649.551,551.471 658.911,522.854 668.271,492.795 677.631,461.625 686.99,429.689 696.35,397.342 705.71,364.94 
  715.07,332.843 724.43,301.405 733.79,270.974 743.149,241.888 752.509,214.469 761.869,189.018 771.229,165.819 780.589,145.128 789.948,127.174 799.308,112.156 
  808.668,100.239 818.028,91.5563 827.388,86.2033 836.747,84.2392 846.107,85.686 855.467,90.5275 864.827,98.7102 874.187,110.144 883.546,124.701 892.906,142.222 
  902.266,162.511 911.626,185.345 920.986,210.471 930.346,237.611 939.705,266.465 949.065,296.712 958.425,328.019 967.785,360.039 977.145,392.418 986.504,424.797 
  995.864,456.818 1005.22,488.127 1014.58,518.376 1023.94,547.233 1033.3,574.376 1042.66,599.506 1052.02,622.344 1061.38,642.639 1070.74,660.164 1080.1,674.727 
  1089.46,686.166 1098.82,694.355 1108.18,699.203 1117.54,700.674 1126.9,702.632 1136.26,707.979 1145.62,716.656 1154.98,728.567 1164.34,743.58 1173.7,761.529 
  1183.06,782.215 1192.42,805.41 1201.78,830.857 1211.14,858.273 1220.5,887.357 1229.86,917.785 1239.22,949.221 1248.58,981.318 1257.94,1013.72 1267.3,1046.07 
  1276.66,1078 1286.02,1109.18 1295.38,1139.24 1304.74,1167.86 1314.1,1194.72 1323.46,1219.52 1332.82,1241.99 1342.18,1261.88 1351.54,1278.98 1360.9,1293.08 
  1370.26,1304.04 1379.62,1311.73 1388.98,1316.07 1398.34,1317.01 1407.7,1314.55 1417.06,1308.69 1426.42,1299.53 1435.78,1287.14 1445.14,1271.68 1454.49,1253.3 
  1463.85,1232.22 1473.21,1208.68 1482.57,1182.91 1491.93,1155.23 1501.29,1125.92 1510.65,1095.32 1520.01,1063.76 1529.37,1031.6 1538.73,999.182 1548.09,966.873 
  1557.45,935.028 1566.81,904.002 1576.17,874.135 1585.53,845.76 1594.89,819.19 1604.25,794.72 1613.61,772.619 1622.97,753.133 1632.33,736.477 1641.69,722.836 
  1651.05,712.361 1660.41,705.166 1669.77,701.333 1679.13,700.904 1688.49,703.882 1697.85,710.236 1707.21,719.895 1716.57,732.752 1725.93,748.665 1735.29,767.457 
  1744.65,788.922 1754.01,812.82 1763.37,838.888 1772.73,866.838 1782.09,896.359 1791.45,927.125 1800.81,958.797 1810.17,991.022 1819.53,1023.45 1828.89,1055.71 
  1838.25,1087.45 1847.61,1118.33 1856.97,1147.99 1866.33,1176.11 1875.69,1202.39 1885.05,1226.52 1894.41,1248.24 1903.77,1267.32 1913.13,1283.53 1922.49,1296.71 
  1931.85,1306.7 1941.21,1313.39 1950.56,1316.71 1959.92,1316.63 1969.28,1313.14 1978.64,1306.29 1988,1296.14 1997.36,1282.82 2006.72,1266.46 2016.08,1247.25 
  2025.44,1225.41 2034.8,1201.17 2044.16,1174.8 2053.52,1146.59 2062.88,1116.86 2072.24,1085.94 2081.6,1054.16 2090.96,1021.88 2100.32,989.461 2109.68,957.254 
  2119.04,925.619 2128.4,894.904 2137.76,865.452 2147.12,837.586 2156.48,811.616 2165.84,787.829 2175.2,766.488 2184.56,747.83 2193.92,732.061 2203.28,719.355 
  2212.64,709.854 2222,703.661 2231.36,700.846 2240.72,701.44 2250.08,705.437 2259.44,712.791 2268.8,723.422 2278.16,737.213 2287.52,754.009 2296.88,773.626 
  
  "/>
</svg>
