<?xml version="1.0" encoding="utf-8"?>
<svg xmlns="http://www.w3.org/2000/svg" xmlns:xlink="http://www.w3.org/1999/xlink" width="600" height="400" viewBox="0 0 2400 1600">
<defs>
  <clipPath id="clip220">
    <rect x="0" y="0" width="2400" height="1600"/>
  </clipPath>
</defs>
<path clip-path="url(#clip220)" d="
M0 1600 L2400 1600 L2400 0 L0 0  Z
  " fill="#ffffff" fill-rule="evenodd" fill-opacity="1"/>
<defs>
  <clipPath id="clip221">
    <rect x="480" y="0" width="1681" height="1600"/>
  </clipPath>
</defs>
<defs>
  <clipPath id="clip222">
    <rect x="381" y="47" width="1972" height="1308"/>
  </clipPath>
</defs>
<path clip-path="url(#clip220)" d="
M381.732 1354.06 L2352.76 1354.06 L2352.76 47.2441 L381.732 47.2441  Z
  " fill="#ffffff" fill-rule="evenodd" fill-opacity="1"/>
<polyline clip-path="url(#clip222)" style="stroke:#000000; stroke-linecap:round; stroke-linejoin:round; stroke-width:2; stroke-opacity:0.1; fill:none" points="
  437.516,1354.06 437.516,47.2441 
  "/>
<polyline clip-path="url(#clip222)" style="stroke:#000000; stroke-linecap:round; stroke-linejoin:round; stroke-width:2; stroke-opacity:0.1; fill:none" points="
  623.462,1354.06 623.462,47.2441 
  "/>
<polyline clip-path="url(#clip222)" style="stroke:#000000; stroke-linecap:round; stroke-linejoin:round; stroke-width:2; stroke-opacity:0.1; fill:none" points="
  809.407,1354.06 809.407,47.2441 
  "/>
<polyline clip-path="url(#clip222)" style="stroke:#000000; stroke-linecap:round; stroke-linejoin:round; stroke-width:2; stroke-opacity:0.1; fill:none" points="
  995.353,1354.06 995.353,47.2441 
  "/>
<polyline clip-path="url(#clip222)" style="stroke:#000000; stroke-linecap:round; stroke-linejoin:round; stroke-width:2; stroke-opacity:0.1; fill:none" points="
  1181.3,1354.06 1181.3,47.2441 
  "/>
<polyline clip-path="url(#clip222)" style="stroke:#000000; stroke-linecap:round; stroke-linejoin:round; stroke-width:2; stroke-opacity:0.1; fill:none" points="
  1367.24,1354.06 1367.24,47.2441 
  "/>
<polyline clip-path="url(#clip222)" style="stroke:#000000; stroke-linecap:round; stroke-linejoin:round; stroke-width:2; stroke-opacity:0.1; fill:none" points="
  1553.19,1354.06 1553.19,47.2441 
  "/>
<polyline clip-path="url(#clip222)" style="stroke:#000000; stroke-linecap:round; stroke-linejoin:round; stroke-width:2; stroke-opacity:0.1; fill:none" points="
  1739.14,1354.06 1739.14,47.2441 
  "/>
<polyline clip-path="url(#clip222)" style="stroke:#000000; stroke-linecap:round; stroke-linejoin:round; stroke-width:2; stroke-opacity:0.1; fill:none" points="
  1925.08,1354.06 1925.08,47.2441 
  "/>
<polyline clip-path="url(#clip222)" style="stroke:#000000; stroke-linecap:round; stroke-linejoin:round; stroke-width:2; stroke-opacity:0.1; fill:none" points="
  2111.03,1354.06 2111.03,47.2441 
  "/>
<polyline clip-path="url(#clip222)" style="stroke:#000000; stroke-linecap:round; stroke-linejoin:round; stroke-width:2; stroke-opacity:0.1; fill:none" points="
  2296.97,1354.06 2296.97,47.2441 
  "/>
<polyline clip-path="url(#clip220)" style="stroke:#000000; stroke-linecap:round; stroke-linejoin:round; stroke-width:4; stroke-opacity:1; fill:none" points="
  381.732,1354.06 2352.76,1354.06 
  "/>
<polyline clip-path="url(#clip220)" style="stroke:#000000; stroke-linecap:round; stroke-linejoin:round; stroke-width:4; stroke-opacity:1; fill:none" points="
  437.516,1354.06 437.516,1335.16 
  "/>
<polyline clip-path="url(#clip220)" style="stroke:#000000; stroke-linecap:round; stroke-linejoin:round; stroke-width:4; stroke-opacity:1; fill:none" points="
  623.462,1354.06 623.462,1335.16 
  "/>
<polyline clip-path="url(#clip220)" style="stroke:#000000; stroke-linecap:round; stroke-linejoin:round; stroke-width:4; stroke-opacity:1; fill:none" points="
  809.407,1354.06 809.407,1335.16 
  "/>
<polyline clip-path="url(#clip220)" style="stroke:#000000; stroke-linecap:round; stroke-linejoin:round; stroke-width:4; stroke-opacity:1; fill:none" points="
  995.353,1354.06 995.353,1335.16 
  "/>
<polyline clip-path="url(#clip220)" style="stroke:#000000; stroke-linecap:round; stroke-linejoin:round; stroke-width:4; stroke-opacity:1; fill:none" points="
  1181.3,1354.06 1181.3,1335.16 
  "/>
<polyline clip-path="url(#clip220)" style="stroke:#000000; stroke-linecap:round; stroke-linejoin:round; stroke-width:4; stroke-opacity:1; fill:none" points="
  1367.24,1354.06 1367.24,1335.16 
  "/>
<polyline clip-path="url(#clip220)" style="stroke:#000000; stroke-linecap:round; stroke-linejoin:round; stroke-width:4; stroke-opacity:1; fill:none" points="
  1553.19,1354.06 1553.19,1335.16 
  "/>
<polyline clip-path="url(#clip220)" style="stroke:#000000; stroke-linecap:round; stroke-linejoin:round; stroke-width:4; stroke-opacity:1; fill:none" points="
  1739.14,1354.06 1739.14,1335.16 
  "/>
<polyline clip-path="url(#clip220)" style="stroke:#000000; stroke-linecap:round; stroke-linejoin:round; stroke-width:4; stroke-opacity:1; fill:none" points="
  1925.08,1354.06 1925.08,1335.16 
  "/>
<polyline clip-path="url(#clip220)" style="stroke:#000000; stroke-linecap:round; stroke-linejoin:round; stroke-width:4; stroke-opacity:1; fill:none" points="
  2111.03,1354.06 2111.03,1335.16 
  "/>
<polyline clip-path="url(#clip220)" style="stroke:#000000; stroke-linecap:round; stroke-linejoin:round; stroke-width:4; stroke-opacity:1; fill:none" points="
  2296.97,1354.06 2296.97,1335.16 
  "/>
<path clip-path="url(#clip220)" d="M437.516 1395.23 Q430.745 1395.23 427.316 1401.92 Q423.931 1408.56 423.931 1421.92 Q423.931 1435.25 427.316 1441.93 Q430.745 1448.57 437.516 1448.57 Q444.33 1448.57 447.716 1441.93 Q451.144 1435.25 451.144 1421.92 Q451.144 1408.56 447.716 1401.92 Q444.33 1395.23 437.516 1395.23 M437.516 1388.29 Q448.41 1388.29 454.139 1396.93 Q459.912 1405.52 459.912 1421.92 Q459.912 1438.29 454.139 1446.92 Q448.41 1455.52 437.516 1455.52 Q426.622 1455.52 420.849 1446.92 Q415.12 1438.29 415.12 1421.92 Q415.12 1405.52 420.849 1396.93 Q426.622 1388.29 437.516 1388.29 Z" fill="#000000" fill-rule="evenodd" fill-opacity="1" /><path clip-path="url(#clip220)" d="M768.5 1395.23 Q761.73 1395.23 758.301 1401.92 Q754.915 1408.56 754.915 1421.92 Q754.915 1435.25 758.301 1441.93 Q761.73 1448.57 768.5 1448.57 Q775.315 1448.57 778.7 1441.93 Q782.129 1435.25 782.129 1421.92 Q782.129 1408.56 778.7 1401.92 Q775.315 1395.23 768.5 1395.23 M768.5 1388.29 Q779.394 1388.29 785.123 1396.93 Q790.896 1405.52 790.896 1421.92 Q790.896 1438.29 785.123 1446.92 Q779.394 1455.52 768.5 1455.52 Q757.606 1455.52 751.834 1446.92 Q746.105 1438.29 746.105 1421.92 Q746.105 1405.52 751.834 1396.93 Q757.606 1388.29 768.5 1388.29 Z" fill="#000000" fill-rule="evenodd" fill-opacity="1" /><path clip-path="url(#clip220)" d="M806.304 1443.24 L815.462 1443.24 L815.462 1454.26 L806.304 1454.26 L806.304 1443.24 Z" fill="#000000" fill-rule="evenodd" fill-opacity="1" /><path clip-path="url(#clip220)" d="M842.111 1446.88 L872.71 1446.88 L872.71 1454.26 L831.564 1454.26 L831.564 1446.88 Q836.556 1441.72 845.149 1433.04 Q853.786 1424.31 856 1421.79 Q860.21 1417.06 861.859 1413.81 Q863.552 1410.51 863.552 1407.34 Q863.552 1402.18 859.906 1398.92 Q856.304 1395.67 850.488 1395.67 Q846.364 1395.67 841.764 1397.1 Q837.207 1398.53 831.998 1401.44 L831.998 1392.58 Q837.293 1390.46 841.894 1389.37 Q846.495 1388.29 850.314 1388.29 Q860.384 1388.29 866.373 1393.32 Q872.363 1398.36 872.363 1406.78 Q872.363 1410.77 870.844 1414.37 Q869.368 1417.93 865.418 1422.79 Q864.333 1424.05 858.517 1430.08 Q852.701 1436.07 842.111 1446.88 Z" fill="#000000" fill-rule="evenodd" fill-opacity="1" /><path clip-path="url(#clip220)" d="M1138.44 1395.23 Q1131.67 1395.23 1128.24 1401.92 Q1124.85 1408.56 1124.85 1421.92 Q1124.85 1435.25 1128.24 1441.93 Q1131.67 1448.57 1138.44 1448.57 Q1145.25 1448.57 1148.64 1441.93 Q1152.07 1435.25 1152.07 1421.92 Q1152.07 1408.56 1148.64 1401.92 Q1145.25 1395.23 1138.44 1395.23 M1138.44 1388.29 Q1149.33 1388.29 1155.06 1396.93 Q1160.83 1405.52 1160.83 1421.92 Q1160.83 1438.29 1155.06 1446.92 Q1149.33 1455.52 1138.44 1455.52 Q1127.54 1455.52 1121.77 1446.92 Q1116.04 1438.29 1116.04 1421.92 Q1116.04 1405.52 1121.77 1396.93 Q1127.54 1388.29 1138.44 1388.29 Z" fill="#000000" fill-rule="evenodd" fill-opacity="1" /><path clip-path="url(#clip220)" d="M1176.24 1443.24 L1185.4 1443.24 L1185.4 1454.26 L1176.24 1454.26 L1176.24 1443.24 Z" fill="#000000" fill-rule="evenodd" fill-opacity="1" /><path clip-path="url(#clip220)" d="M1228.59 1397.1 L1206.45 1431.69 L1228.59 1431.69 L1228.59 1397.1 M1226.29 1389.46 L1237.31 1389.46 L1237.31 1431.69 L1246.55 1431.69 L1246.55 1438.98 L1237.31 1438.98 L1237.31 1454.26 L1228.59 1454.26 L1228.59 1438.98 L1199.33 1438.98 L1199.33 1430.52 L1226.29 1389.46 Z" fill="#000000" fill-rule="evenodd" fill-opacity="1" /><path clip-path="url(#clip220)" d="M1510.63 1395.23 Q1503.86 1395.23 1500.43 1401.92 Q1497.05 1408.56 1497.05 1421.92 Q1497.05 1435.25 1500.43 1441.93 Q1503.86 1448.57 1510.63 1448.57 Q1517.45 1448.57 1520.83 1441.93 Q1524.26 1435.25 1524.26 1421.92 Q1524.26 1408.56 1520.83 1401.92 Q1517.45 1395.23 1510.63 1395.23 M1510.63 1388.29 Q1521.53 1388.29 1527.26 1396.93 Q1533.03 1405.52 1533.03 1421.92 Q1533.03 1438.29 1527.26 1446.92 Q1521.53 1455.52 1510.63 1455.52 Q1499.74 1455.52 1493.97 1446.92 Q1488.24 1438.29 1488.24 1421.92 Q1488.24 1405.52 1493.97 1396.93 Q1499.74 1388.29 1510.63 1388.29 Z" fill="#000000" fill-rule="evenodd" fill-opacity="1" /><path clip-path="url(#clip220)" d="M1548.44 1443.24 L1557.6 1443.24 L1557.6 1454.26 L1548.44 1454.26 L1548.44 1443.24 Z" fill="#000000" fill-rule="evenodd" fill-opacity="1" /><path clip-path="url(#clip220)" d="M1596.53 1418.37 Q1590.62 1418.37 1587.15 1422.4 Q1583.72 1426.44 1583.72 1433.47 Q1583.72 1440.46 1587.15 1444.54 Q1590.62 1448.57 1596.53 1448.57 Q1602.43 1448.57 1605.86 1444.54 Q1609.33 1440.46 1609.33 1433.47 Q1609.33 1426.44 1605.86 1422.4 Q1602.43 1418.37 1596.53 1418.37 M1613.93 1390.89 L1613.93 1398.88 Q1610.63 1397.32 1607.25 1396.49 Q1603.91 1395.67 1600.61 1395.67 Q1591.93 1395.67 1587.33 1401.53 Q1582.77 1407.39 1582.12 1419.23 Q1584.68 1415.46 1588.54 1413.46 Q1592.4 1411.42 1597.05 1411.42 Q1606.81 1411.42 1612.46 1417.37 Q1618.14 1423.27 1618.14 1433.47 Q1618.14 1443.45 1612.24 1449.49 Q1606.34 1455.52 1596.53 1455.52 Q1585.29 1455.52 1579.34 1446.92 Q1573.39 1438.29 1573.39 1421.92 Q1573.39 1406.56 1580.69 1397.45 Q1587.98 1388.29 1600.26 1388.29 Q1603.56 1388.29 1606.9 1388.94 Q1610.29 1389.59 1613.93 1390.89 Z" fill="#000000" fill-rule="evenodd" fill-opacity="1" /><path clip-path="url(#clip220)" d="M1882.76 1395.23 Q1875.99 1395.23 1872.56 1401.92 Q1869.18 1408.56 1869.18 1421.92 Q1869.18 1435.25 1872.56 1441.93 Q1875.99 1448.57 1882.76 1448.57 Q1889.58 1448.57 1892.96 1441.93 Q1896.39 1435.25 1896.39 1421.92 Q1896.39 1408.56 1892.96 1401.92 Q1889.58 1395.23 1882.76 1395.23 M1882.76 1388.29 Q1893.66 1388.29 1899.39 1396.93 Q1905.16 1405.52 1905.16 1421.92 Q1905.16 1438.29 1899.39 1446.92 Q1893.66 1455.52 1882.76 1455.52 Q1871.87 1455.52 1866.1 1446.92 Q1860.37 1438.29 1860.37 1421.92 Q1860.37 1405.52 1866.1 1396.93 Q1871.87 1388.29 1882.76 1388.29 Z" fill="#000000" fill-rule="evenodd" fill-opacity="1" /><path clip-path="url(#clip220)" d="M1920.57 1443.24 L1929.73 1443.24 L1929.73 1454.26 L1920.57 1454.26 L1920.57 1443.24 Z" fill="#000000" fill-rule="evenodd" fill-opacity="1" /><path clip-path="url(#clip220)" d="M1967.57 1423.49 Q1961.32 1423.49 1957.72 1426.83 Q1954.16 1430.17 1954.16 1436.03 Q1954.16 1441.89 1957.72 1445.23 Q1961.32 1448.57 1967.57 1448.57 Q1973.82 1448.57 1977.42 1445.23 Q1981.03 1441.85 1981.03 1436.03 Q1981.03 1430.17 1977.42 1426.83 Q1973.87 1423.49 1967.57 1423.49 M1958.8 1419.75 Q1953.16 1418.37 1949.99 1414.5 Q1946.87 1410.64 1946.87 1405.08 Q1946.87 1397.32 1952.38 1392.8 Q1957.94 1388.29 1967.57 1388.29 Q1977.25 1388.29 1982.76 1392.8 Q1988.28 1397.32 1988.28 1405.08 Q1988.28 1410.64 1985.11 1414.5 Q1981.98 1418.37 1976.38 1419.75 Q1982.72 1421.23 1986.24 1425.53 Q1989.79 1429.82 1989.79 1436.03 Q1989.79 1445.45 1984.02 1450.48 Q1978.29 1455.52 1967.57 1455.52 Q1956.85 1455.52 1951.08 1450.48 Q1945.35 1445.45 1945.35 1436.03 Q1945.35 1429.82 1948.91 1425.53 Q1952.47 1421.23 1958.8 1419.75 M1955.59 1405.91 Q1955.59 1410.94 1958.72 1413.77 Q1961.89 1416.59 1967.57 1416.59 Q1973.21 1416.59 1976.38 1413.77 Q1979.59 1410.94 1979.59 1405.91 Q1979.59 1400.87 1976.38 1398.05 Q1973.21 1395.23 1967.57 1395.23 Q1961.89 1395.23 1958.72 1398.05 Q1955.59 1400.87 1955.59 1405.91 Z" fill="#000000" fill-rule="evenodd" fill-opacity="1" /><path clip-path="url(#clip220)" d="M2278.94 1446.88 L2293.26 1446.88 L2293.26 1397.45 L2277.68 1400.57 L2277.68 1392.58 L2293.17 1389.46 L2301.94 1389.46 L2301.94 1446.88 L2316.26 1446.88 L2316.26 1454.26 L2278.94 1454.26 L2278.94 1446.88 Z" fill="#000000" fill-rule="evenodd" fill-opacity="1" /><path clip-path="url(#clip220)" d="M1393.01 1519.59 Q1393.01 1522.87 1390.96 1524.74 Q1388.91 1526.56 1386.57 1526.56 Q1384.35 1526.56 1383.18 1525.27 Q1382 1523.98 1382 1522.34 Q1382 1520.12 1383.64 1518.18 Q1385.28 1516.25 1387.74 1515.84 Q1385.34 1514.32 1381.77 1514.32 Q1379.43 1514.32 1377.38 1515.55 Q1375.39 1516.78 1374.16 1518.36 Q1372.99 1519.94 1371.93 1522.22 Q1370.94 1524.45 1370.53 1525.8 Q1370.18 1527.08 1369.88 1528.49 L1365.78 1544.89 Q1363.79 1552.67 1363.79 1555.43 Q1363.79 1558.82 1365.43 1561.11 Q1367.07 1563.33 1370.35 1563.33 Q1371.64 1563.33 1373.1 1562.98 Q1374.57 1562.57 1376.44 1561.52 Q1378.37 1560.4 1380.07 1558.76 Q1381.83 1557.07 1383.53 1554.2 Q1385.23 1551.33 1386.34 1547.64 Q1386.69 1546.35 1387.86 1546.35 Q1389.32 1546.35 1389.32 1547.52 Q1389.32 1548.52 1388.5 1550.62 Q1387.74 1552.67 1386.04 1555.37 Q1384.41 1558 1382.24 1560.4 Q1380.07 1562.75 1376.85 1564.39 Q1373.63 1566.02 1370.12 1566.02 Q1365.08 1566.02 1361.74 1563.33 Q1358.41 1560.64 1357.18 1556.89 Q1356.88 1557.42 1356.47 1558.12 Q1356.06 1558.82 1354.83 1560.4 Q1353.66 1561.93 1352.32 1563.1 Q1350.97 1564.21 1348.86 1565.09 Q1346.81 1566.02 1344.59 1566.02 Q1341.78 1566.02 1339.26 1565.2 Q1336.8 1564.39 1335.04 1562.51 Q1333.29 1560.64 1333.29 1558.06 Q1333.29 1555.19 1335.22 1553.2 Q1337.21 1551.15 1339.9 1551.15 Q1341.6 1551.15 1342.95 1552.15 Q1344.35 1553.14 1344.35 1555.31 Q1344.35 1557.71 1342.71 1559.53 Q1341.07 1561.34 1338.73 1561.81 Q1341.13 1563.33 1344.7 1563.33 Q1348.57 1563.33 1351.61 1559.93 Q1354.66 1556.54 1356.12 1550.86 Q1359.75 1537.22 1361.16 1531.13 Q1362.56 1524.98 1362.56 1522.34 Q1362.56 1519.88 1361.92 1518.18 Q1361.28 1516.49 1360.16 1515.73 Q1359.11 1514.91 1358.11 1514.61 Q1357.18 1514.32 1356.12 1514.32 Q1354.37 1514.32 1352.38 1515.02 Q1350.44 1515.73 1348.1 1517.36 Q1345.82 1518.95 1343.65 1522.22 Q1341.48 1525.5 1340.02 1530.01 Q1339.73 1531.36 1338.44 1531.36 Q1337.03 1531.3 1337.03 1530.13 Q1337.03 1529.13 1337.79 1527.08 Q1338.61 1524.98 1340.25 1522.34 Q1341.95 1519.71 1344.12 1517.36 Q1346.34 1514.96 1349.56 1513.32 Q1352.84 1511.68 1356.36 1511.68 Q1357.94 1511.68 1359.46 1512.04 Q1361.04 1512.33 1362.92 1513.21 Q1364.85 1514.09 1366.55 1516.02 Q1368.24 1517.95 1369.3 1520.76 Q1370 1519.41 1370.94 1518.13 Q1371.93 1516.84 1373.46 1515.26 Q1375.04 1513.62 1377.2 1512.68 Q1379.43 1511.68 1381.89 1511.68 Q1384.29 1511.68 1386.63 1512.33 Q1388.97 1512.91 1390.96 1514.85 Q1393.01 1516.72 1393.01 1519.59 Z" fill="#000000" fill-rule="evenodd" fill-opacity="1" /><polyline clip-path="url(#clip222)" style="stroke:#000000; stroke-linecap:round; stroke-linejoin:round; stroke-width:2; stroke-opacity:0.1; fill:none" points="
  381.732,1304.51 2352.76,1304.51 
  "/>
<polyline clip-path="url(#clip222)" style="stroke:#000000; stroke-linecap:round; stroke-linejoin:round; stroke-width:2; stroke-opacity:0.1; fill:none" points="
  381.732,985.021 2352.76,985.021 
  "/>
<polyline clip-path="url(#clip222)" style="stroke:#000000; stroke-linecap:round; stroke-linejoin:round; stroke-width:2; stroke-opacity:0.1; fill:none" points="
  381.732,665.536 2352.76,665.536 
  "/>
<polyline clip-path="url(#clip222)" style="stroke:#000000; stroke-linecap:round; stroke-linejoin:round; stroke-width:2; stroke-opacity:0.1; fill:none" points="
  381.732,346.05 2352.76,346.05 
  "/>
<polyline clip-path="url(#clip220)" style="stroke:#000000; stroke-linecap:round; stroke-linejoin:round; stroke-width:4; stroke-opacity:1; fill:none" points="
  381.732,1354.06 381.732,47.2441 
  "/>
<polyline clip-path="url(#clip220)" style="stroke:#000000; stroke-linecap:round; stroke-linejoin:round; stroke-width:4; stroke-opacity:1; fill:none" points="
  381.732,1304.51 400.63,1304.51 
  "/>
<polyline clip-path="url(#clip220)" style="stroke:#000000; stroke-linecap:round; stroke-linejoin:round; stroke-width:4; stroke-opacity:1; fill:none" points="
  381.732,985.021 400.63,985.021 
  "/>
<polyline clip-path="url(#clip220)" style="stroke:#000000; stroke-linecap:round; stroke-linejoin:round; stroke-width:4; stroke-opacity:1; fill:none" points="
  381.732,665.536 400.63,665.536 
  "/>
<polyline clip-path="url(#clip220)" style="stroke:#000000; stroke-linecap:round; stroke-linejoin:round; stroke-width:4; stroke-opacity:1; fill:none" points="
  381.732,346.05 400.63,346.05 
  "/>
<path clip-path="url(#clip220)" d="M238.528 1277.88 Q231.757 1277.88 228.328 1284.56 Q224.943 1291.2 224.943 1304.57 Q224.943 1317.9 228.328 1324.58 Q231.757 1331.22 238.528 1331.22 Q245.342 1331.22 248.728 1324.58 Q252.156 1317.9 252.156 1304.57 Q252.156 1291.2 248.728 1284.56 Q245.342 1277.88 238.528 1277.88 M238.528 1270.93 Q249.422 1270.93 255.151 1279.57 Q260.924 1288.17 260.924 1304.57 Q260.924 1320.93 255.151 1329.57 Q249.422 1338.16 238.528 1338.16 Q227.634 1338.16 221.861 1329.57 Q216.132 1320.93 216.132 1304.57 Q216.132 1288.17 221.861 1279.57 Q227.634 1270.93 238.528 1270.93 Z" fill="#000000" fill-rule="evenodd" fill-opacity="1" /><path clip-path="url(#clip220)" d="M276.332 1325.88 L285.49 1325.88 L285.49 1336.91 L276.332 1336.91 L276.332 1325.88 Z" fill="#000000" fill-rule="evenodd" fill-opacity="1" /><path clip-path="url(#clip220)" d="M323.337 1277.88 Q316.566 1277.88 313.137 1284.56 Q309.752 1291.2 309.752 1304.57 Q309.752 1317.9 313.137 1324.58 Q316.566 1331.22 323.337 1331.22 Q330.151 1331.22 333.536 1324.58 Q336.965 1317.9 336.965 1304.57 Q336.965 1291.2 333.536 1284.56 Q330.151 1277.88 323.337 1277.88 M323.337 1270.93 Q334.231 1270.93 339.96 1279.57 Q345.732 1288.17 345.732 1304.57 Q345.732 1320.93 339.96 1329.57 Q334.231 1338.16 323.337 1338.16 Q312.443 1338.16 306.67 1329.57 Q300.941 1320.93 300.941 1304.57 Q300.941 1288.17 306.67 1279.57 Q312.443 1270.93 323.337 1270.93 Z" fill="#000000" fill-rule="evenodd" fill-opacity="1" /><path clip-path="url(#clip220)" d="M240.828 958.393 Q234.058 958.393 230.629 965.077 Q227.243 971.718 227.243 985.086 Q227.243 998.411 230.629 1005.09 Q234.058 1011.74 240.828 1011.74 Q247.643 1011.74 251.028 1005.09 Q254.457 998.411 254.457 985.086 Q254.457 971.718 251.028 965.077 Q247.643 958.393 240.828 958.393 M240.828 951.449 Q251.722 951.449 257.452 960.086 Q263.224 968.68 263.224 985.086 Q263.224 1001.45 257.452 1010.09 Q251.722 1018.68 240.828 1018.68 Q229.934 1018.68 224.162 1010.09 Q218.433 1001.45 218.433 985.086 Q218.433 968.68 224.162 960.086 Q229.934 951.449 240.828 951.449 Z" fill="#000000" fill-rule="evenodd" fill-opacity="1" /><path clip-path="url(#clip220)" d="M278.632 1006.4 L287.79 1006.4 L287.79 1017.42 L278.632 1017.42 L278.632 1006.4 Z" fill="#000000" fill-rule="evenodd" fill-opacity="1" /><path clip-path="url(#clip220)" d="M308.406 1010.04 L322.729 1010.04 L322.729 960.607 L307.147 963.732 L307.147 955.746 L322.642 952.621 L331.409 952.621 L331.409 1010.04 L345.732 1010.04 L345.732 1017.42 L308.406 1017.42 L308.406 1010.04 Z" fill="#000000" fill-rule="evenodd" fill-opacity="1" /><path clip-path="url(#clip220)" d="M241.523 638.908 Q234.752 638.908 231.323 645.592 Q227.938 652.233 227.938 665.601 Q227.938 678.925 231.323 685.609 Q234.752 692.25 241.523 692.25 Q248.337 692.25 251.722 685.609 Q255.151 678.925 255.151 665.601 Q255.151 652.233 251.722 645.592 Q248.337 638.908 241.523 638.908 M241.523 631.964 Q252.417 631.964 258.146 640.601 Q263.918 649.195 263.918 665.601 Q263.918 681.964 258.146 690.601 Q252.417 699.194 241.523 699.194 Q230.629 699.194 224.856 690.601 Q219.127 681.964 219.127 665.601 Q219.127 649.195 224.856 640.601 Q230.629 631.964 241.523 631.964 Z" fill="#000000" fill-rule="evenodd" fill-opacity="1" /><path clip-path="url(#clip220)" d="M279.326 686.911 L288.484 686.911 L288.484 697.936 L279.326 697.936 L279.326 686.911 Z" fill="#000000" fill-rule="evenodd" fill-opacity="1" /><path clip-path="url(#clip220)" d="M315.133 690.557 L345.732 690.557 L345.732 697.936 L304.587 697.936 L304.587 690.557 Q309.578 685.392 318.172 676.712 Q326.809 667.988 329.022 665.471 Q333.232 660.74 334.882 657.484 Q336.574 654.186 336.574 651.018 Q336.574 645.853 332.929 642.597 Q329.326 639.342 323.51 639.342 Q319.387 639.342 314.786 640.775 Q310.229 642.207 305.021 645.115 L305.021 636.261 Q310.316 634.134 314.916 633.049 Q319.517 631.964 323.337 631.964 Q333.406 631.964 339.396 636.998 Q345.385 642.033 345.385 650.453 Q345.385 654.446 343.866 658.049 Q342.39 661.608 338.441 666.469 Q337.356 667.727 331.54 673.76 Q325.724 679.75 315.133 690.557 Z" fill="#000000" fill-rule="evenodd" fill-opacity="1" /><path clip-path="url(#clip220)" d="M239.743 319.423 Q232.972 319.423 229.544 326.107 Q226.158 332.748 226.158 346.116 Q226.158 359.44 229.544 366.124 Q232.972 372.765 239.743 372.765 Q246.557 372.765 249.943 366.124 Q253.372 359.44 253.372 346.116 Q253.372 332.748 249.943 326.107 Q246.557 319.423 239.743 319.423 M239.743 312.479 Q250.637 312.479 256.366 321.116 Q262.139 329.709 262.139 346.116 Q262.139 362.478 256.366 371.115 Q250.637 379.709 239.743 379.709 Q228.849 379.709 223.077 371.115 Q217.348 362.478 217.348 346.116 Q217.348 329.709 223.077 321.116 Q228.849 312.479 239.743 312.479 Z" fill="#000000" fill-rule="evenodd" fill-opacity="1" /><path clip-path="url(#clip220)" d="M277.547 367.426 L286.705 367.426 L286.705 378.45 L277.547 378.45 L277.547 367.426 Z" fill="#000000" fill-rule="evenodd" fill-opacity="1" /><path clip-path="url(#clip220)" d="M332.364 343.511 Q338.658 344.857 342.173 349.11 Q345.732 353.364 345.732 359.614 Q345.732 369.206 339.135 374.457 Q332.538 379.709 320.385 379.709 Q316.305 379.709 311.965 378.884 Q307.668 378.103 303.068 376.497 L303.068 368.034 Q306.713 370.161 311.054 371.246 Q315.394 372.331 320.125 372.331 Q328.371 372.331 332.668 369.075 Q337.008 365.82 337.008 359.614 Q337.008 353.885 332.972 350.673 Q328.979 347.418 321.817 347.418 L314.265 347.418 L314.265 340.213 L322.165 340.213 Q328.632 340.213 332.06 337.652 Q335.489 335.048 335.489 330.187 Q335.489 325.195 331.93 322.548 Q328.415 319.857 321.817 319.857 Q318.215 319.857 314.092 320.638 Q309.969 321.419 305.021 323.069 L305.021 315.256 Q310.012 313.867 314.352 313.173 Q318.736 312.479 322.599 312.479 Q332.581 312.479 338.397 317.036 Q344.213 321.55 344.213 329.275 Q344.213 334.657 341.132 338.39 Q338.05 342.079 332.364 343.511 Z" fill="#000000" fill-rule="evenodd" fill-opacity="1" /><path clip-path="url(#clip220)" d="M185.568 1001.95 Q186.563 1001.95 187.266 1002.65 Q187.968 1003.35 187.968 1004.35 Q187.968 1006.05 186.387 1006.63 L128.827 1028.94 Q128.592 1029.06 128.007 1029.06 Q127.421 1029.06 127.187 1028.94 L69.6264 1006.63 Q68.0454 1006.05 68.0454 1004.35 Q68.0454 1003.35 68.7481 1002.65 Q69.4508 1001.95 70.4462 1001.95 Q71.0318 1001.95 71.266 1002.07 L128.007 1024.14 L184.748 1002.07 Q184.982 1001.95 185.568 1001.95 Z" fill="#000000" fill-rule="evenodd" fill-opacity="1" /><path clip-path="url(#clip220)" d="M121.507 914.616 Q128.475 914.616 135.385 917.837 Q142.295 921.057 147.565 926.327 Q152.776 931.539 156.055 938.683 Q159.334 945.768 159.334 953.029 Q159.334 954.317 159.042 956.952 Q180.649 961.051 181 961.168 Q182.23 961.695 182.991 962.749 Q183.752 963.745 183.928 964.447 Q184.104 965.15 184.104 965.619 Q184.104 966.79 183.284 967.961 Q182.523 969.073 180.766 969.073 Q180.356 969.073 178.365 968.488 L158.222 962.105 Q155.997 971.767 149.848 977.33 Q143.641 982.893 135.209 982.893 Q129.822 982.893 122.795 980.433 Q115.769 977.974 111.026 974.988 Q106.283 972.001 106.283 970.303 Q106.283 968.839 107.512 968.839 Q107.981 968.839 109.035 969.776 Q114.48 974.519 122.327 977.154 Q130.115 979.731 133.862 979.731 Q140.421 979.731 145.164 974.695 Q149.848 969.6 151.605 960.056 Q133.218 954.376 125.489 950.98 Q110.147 944.128 106.4 935.228 Q104.994 931.949 104.994 928.318 Q104.994 921.76 109.62 918.188 Q114.188 914.616 121.507 914.616 M124.142 918.012 Q121.039 918.012 118.404 919.125 Q115.769 920.179 113.895 922.873 Q111.962 925.566 111.962 929.489 Q111.962 937.336 119.516 943.894 Q127.07 950.453 138.781 953.263 L151.781 955.664 Q152.249 955.664 152.249 954.083 Q152.366 953.146 152.366 951.916 Q152.366 945.241 149.848 938.917 Q147.33 932.534 143.349 928.026 Q139.367 923.517 134.272 920.765 Q129.178 918.012 124.142 918.012 Z" fill="#000000" fill-rule="evenodd" fill-opacity="1" /><path clip-path="url(#clip220)" d="M128.007 900.432 Q107.746 900.432 91.4093 892.879 Q84.5582 889.658 78.8197 885.149 Q73.0812 880.64 70.5633 877.654 Q68.0454 874.668 68.0454 873.848 Q68.0454 872.677 69.2165 872.618 Q69.8021 872.618 71.266 874.199 Q90.9408 893.523 128.007 893.464 Q165.19 893.464 184.104 874.668 Q186.153 872.618 186.797 872.618 Q187.968 872.618 187.968 873.848 Q187.968 874.668 185.568 877.537 Q183.167 880.406 177.662 884.857 Q172.158 889.307 165.424 892.527 Q149.087 900.432 128.007 900.432 Z" fill="#000000" fill-rule="evenodd" fill-opacity="1" /><path clip-path="url(#clip220)" d="M112.899 803.774 Q116.179 803.774 118.052 805.824 Q119.868 807.873 119.868 810.215 Q119.868 812.441 118.579 813.612 Q117.291 814.783 115.652 814.783 Q113.426 814.783 111.494 813.143 Q109.562 811.504 109.152 809.044 Q107.629 811.445 107.629 815.017 Q107.629 817.359 108.859 819.409 Q110.089 821.4 111.67 822.629 Q113.251 823.8 115.534 824.854 Q117.76 825.85 119.106 826.26 Q120.395 826.611 121.8 826.904 L138.196 831.003 Q145.984 832.994 148.736 832.994 Q152.132 832.994 154.416 831.354 Q156.641 829.715 156.641 826.435 Q156.641 825.147 156.289 823.683 Q155.88 822.219 154.826 820.346 Q153.713 818.413 152.073 816.715 Q150.375 814.958 147.506 813.26 Q144.637 811.562 140.948 810.45 Q139.66 810.098 139.66 808.927 Q139.66 807.463 140.831 807.463 Q141.826 807.463 143.934 808.283 Q145.984 809.044 148.677 810.742 Q151.312 812.382 153.713 814.549 Q156.055 816.715 157.695 819.936 Q159.334 823.156 159.334 826.67 Q159.334 831.706 156.641 835.043 Q153.947 838.381 150.2 839.611 Q150.727 839.903 151.429 840.313 Q152.132 840.723 153.713 841.953 Q155.235 843.124 156.407 844.471 Q157.519 845.818 158.397 847.926 Q159.334 849.975 159.334 852.2 Q159.334 855.011 158.515 857.529 Q157.695 859.988 155.821 861.745 Q153.947 863.502 151.371 863.502 Q148.502 863.502 146.511 861.569 Q144.461 859.578 144.461 856.885 Q144.461 855.187 145.457 853.84 Q146.452 852.434 148.619 852.434 Q151.019 852.434 152.835 854.074 Q154.65 855.714 155.118 858.056 Q156.641 855.655 156.641 852.083 Q156.641 848.218 153.245 845.173 Q149.848 842.129 144.168 840.665 Q130.525 837.034 124.435 835.629 Q118.287 834.223 115.652 834.223 Q113.192 834.223 111.494 834.868 Q109.796 835.512 109.035 836.624 Q108.215 837.678 107.922 838.674 Q107.629 839.611 107.629 840.665 Q107.629 842.421 108.332 844.412 Q109.035 846.345 110.674 848.687 Q112.255 850.97 115.534 853.137 Q118.814 855.304 123.322 856.768 Q124.669 857.06 124.669 858.349 Q124.611 859.754 123.439 859.754 Q122.444 859.754 120.395 858.993 Q118.287 858.173 115.652 856.533 Q113.017 854.835 110.674 852.669 Q108.273 850.443 106.634 847.223 Q104.994 843.944 104.994 840.43 Q104.994 838.849 105.346 837.327 Q105.638 835.746 106.517 833.872 Q107.395 831.94 109.327 830.242 Q111.26 828.544 114.071 827.489 Q112.724 826.787 111.435 825.85 Q110.147 824.854 108.566 823.332 Q106.927 821.751 105.99 819.584 Q104.994 817.359 104.994 814.9 Q104.994 812.499 105.638 810.157 Q106.224 807.815 108.156 805.824 Q110.03 803.774 112.899 803.774 Z" fill="#000000" fill-rule="evenodd" fill-opacity="1" /><path clip-path="url(#clip220)" d="M186.797 792.225 Q186.212 792.225 184.748 790.703 Q165.073 771.379 128.007 771.379 Q90.8237 771.379 72.0272 789.941 Q69.8606 792.225 69.2165 792.225 Q68.0454 792.225 68.0454 791.054 Q68.0454 790.234 70.4462 787.365 Q72.847 784.437 78.3513 780.045 Q83.8556 775.595 90.5895 772.316 Q106.927 764.411 128.007 764.411 Q148.267 764.411 164.604 771.965 Q171.456 775.185 177.194 779.694 Q182.932 784.203 185.45 787.189 Q187.968 790.176 187.968 791.054 Q187.968 792.225 186.797 792.225 Z" fill="#000000" fill-rule="evenodd" fill-opacity="1" /><path clip-path="url(#clip220)" d="M156.055 744.476 Q154.123 746.174 151.605 746.174 Q149.087 746.174 147.213 744.535 Q145.281 742.836 145.281 739.792 Q145.281 736.22 148.736 734.17 Q152.132 732.121 157.87 732.121 Q164.077 732.121 169.816 734.639 Q175.613 737.157 178.365 739.616 Q181.117 742.075 181.117 743.071 Q181.117 744.242 179.829 744.242 Q179.361 744.242 178.482 743.422 Q169.23 734.814 157.87 734.756 Q156.055 734.756 156.055 734.99 L156.289 735.283 Q157.988 737.332 157.988 739.792 Q157.988 742.778 156.055 744.476 Z" fill="#000000" fill-rule="evenodd" fill-opacity="1" /><path clip-path="url(#clip220)" d="M121.507 626.001 Q128.475 626.001 135.385 629.221 Q142.295 632.442 147.565 637.712 Q152.776 642.923 156.055 650.067 Q159.334 657.152 159.334 664.413 Q159.334 665.702 159.042 668.337 Q180.649 672.436 181 672.553 Q182.23 673.08 182.991 674.134 Q183.752 675.129 183.928 675.832 Q184.104 676.534 184.104 677.003 Q184.104 678.174 183.284 679.345 Q182.523 680.458 180.766 680.458 Q180.356 680.458 178.365 679.872 L158.222 673.49 Q155.997 683.151 149.848 688.714 Q143.641 694.277 135.209 694.277 Q129.822 694.277 122.795 691.818 Q115.769 689.358 111.026 686.372 Q106.283 683.386 106.283 681.687 Q106.283 680.224 107.512 680.224 Q107.981 680.224 109.035 681.16 Q114.48 685.903 122.327 688.538 Q130.115 691.115 133.862 691.115 Q140.421 691.115 145.164 686.079 Q149.848 680.985 151.605 671.44 Q133.218 665.76 125.489 662.364 Q110.147 655.513 106.4 646.612 Q104.994 643.333 104.994 639.703 Q104.994 633.144 109.62 629.572 Q114.188 626.001 121.507 626.001 M124.142 629.397 Q121.039 629.397 118.404 630.509 Q115.769 631.563 113.895 634.257 Q111.962 636.951 111.962 640.874 Q111.962 648.72 119.516 655.279 Q127.07 661.837 138.781 664.648 L151.781 667.048 Q152.249 667.048 152.249 665.467 Q152.366 664.53 152.366 663.301 Q152.366 656.625 149.848 650.301 Q147.33 643.919 143.349 639.41 Q139.367 634.901 134.272 632.149 Q129.178 629.397 124.142 629.397 Z" fill="#000000" fill-rule="evenodd" fill-opacity="1" /><path clip-path="url(#clip220)" d="M128.007 611.817 Q107.746 611.817 91.4093 604.263 Q84.5582 601.042 78.8197 596.534 Q73.0812 592.025 70.5633 589.038 Q68.0454 586.052 68.0454 585.232 Q68.0454 584.061 69.2165 584.003 Q69.8021 584.003 71.266 585.584 Q90.9408 604.907 128.007 604.849 Q165.19 604.849 184.104 586.052 Q186.153 584.003 186.797 584.003 Q187.968 584.003 187.968 585.232 Q187.968 586.052 185.568 588.921 Q183.167 591.791 177.662 596.241 Q172.158 600.691 165.424 603.912 Q149.087 611.817 128.007 611.817 Z" fill="#000000" fill-rule="evenodd" fill-opacity="1" /><path clip-path="url(#clip220)" d="M112.899 515.159 Q116.179 515.159 118.052 517.208 Q119.868 519.258 119.868 521.6 Q119.868 523.825 118.579 524.996 Q117.291 526.167 115.652 526.167 Q113.426 526.167 111.494 524.528 Q109.562 522.888 109.152 520.429 Q107.629 522.829 107.629 526.401 Q107.629 528.744 108.859 530.793 Q110.089 532.784 111.67 534.014 Q113.251 535.185 115.534 536.239 Q117.76 537.234 119.106 537.644 Q120.395 537.996 121.8 538.288 L138.196 542.387 Q145.984 544.378 148.736 544.378 Q152.132 544.378 154.416 542.739 Q156.641 541.099 156.641 537.82 Q156.641 536.532 156.289 535.068 Q155.88 533.604 154.826 531.73 Q153.713 529.798 152.073 528.1 Q150.375 526.343 147.506 524.645 Q144.637 522.947 140.948 521.834 Q139.66 521.483 139.66 520.312 Q139.66 518.848 140.831 518.848 Q141.826 518.848 143.934 519.667 Q145.984 520.429 148.677 522.127 Q151.312 523.766 153.713 525.933 Q156.055 528.1 157.695 531.32 Q159.334 534.541 159.334 538.054 Q159.334 543.09 156.641 546.428 Q153.947 549.765 150.2 550.995 Q150.727 551.288 151.429 551.698 Q152.132 552.108 153.713 553.337 Q155.235 554.508 156.407 555.855 Q157.519 557.202 158.397 559.31 Q159.334 561.359 159.334 563.585 Q159.334 566.395 158.515 568.913 Q157.695 571.372 155.821 573.129 Q153.947 574.886 151.371 574.886 Q148.502 574.886 146.511 572.954 Q144.461 570.963 144.461 568.269 Q144.461 566.571 145.457 565.224 Q146.452 563.819 148.619 563.819 Q151.019 563.819 152.835 565.458 Q154.65 567.098 155.118 569.44 Q156.641 567.039 156.641 563.467 Q156.641 559.603 153.245 556.558 Q149.848 553.513 144.168 552.049 Q130.525 548.418 124.435 547.013 Q118.287 545.608 115.652 545.608 Q113.192 545.608 111.494 546.252 Q109.796 546.896 109.035 548.009 Q108.215 549.063 107.922 550.058 Q107.629 550.995 107.629 552.049 Q107.629 553.806 108.332 555.797 Q109.035 557.729 110.674 560.071 Q112.255 562.355 115.534 564.521 Q118.814 566.688 123.322 568.152 Q124.669 568.445 124.669 569.733 Q124.611 571.138 123.439 571.138 Q122.444 571.138 120.395 570.377 Q118.287 569.557 115.652 567.918 Q113.017 566.22 110.674 564.053 Q108.273 561.828 106.634 558.607 Q104.994 555.328 104.994 551.815 Q104.994 550.234 105.346 548.711 Q105.638 547.13 106.517 545.256 Q107.395 543.324 109.327 541.626 Q111.26 539.928 114.071 538.874 Q112.724 538.171 111.435 537.234 Q110.147 536.239 108.566 534.716 Q106.927 533.135 105.99 530.969 Q104.994 528.744 104.994 526.284 Q104.994 523.883 105.638 521.541 Q106.224 519.199 108.156 517.208 Q110.03 515.159 112.899 515.159 Z" fill="#000000" fill-rule="evenodd" fill-opacity="1" /><path clip-path="url(#clip220)" d="M78.3513 497.463 Q75.3649 497.463 74.1352 495.648 Q72.847 493.833 72.847 491.901 Q72.847 489.5 74.3109 487.977 Q75.7163 486.396 78.3513 486.396 Q79.5224 486.396 80.1665 486.513 L116.354 490.495 L116.354 493.247 L80.1665 497.346 Q79.5224 497.463 78.3513 497.463 Z" fill="#000000" fill-rule="evenodd" fill-opacity="1" /><path clip-path="url(#clip220)" d="M186.797 464.462 Q186.212 464.462 184.748 462.94 Q165.073 443.616 128.007 443.616 Q90.8237 443.616 72.0272 462.179 Q69.8606 464.462 69.2165 464.462 Q68.0454 464.462 68.0454 463.291 Q68.0454 462.471 70.4462 459.602 Q72.847 456.674 78.3513 452.283 Q83.8556 447.832 90.5895 444.553 Q106.927 436.648 128.007 436.648 Q148.267 436.648 164.604 444.202 Q171.456 447.422 177.194 451.931 Q182.932 456.44 185.45 459.426 Q187.968 462.413 187.968 463.291 Q187.968 464.462 186.797 464.462 Z" fill="#000000" fill-rule="evenodd" fill-opacity="1" /><path clip-path="url(#clip220)" d="M127.187 391.475 Q127.421 391.358 128.007 391.358 Q128.592 391.358 128.827 391.475 L186.387 413.785 Q187.968 414.371 187.968 416.01 Q187.968 417.006 187.266 417.709 Q186.563 418.411 185.568 418.411 Q184.982 418.411 184.748 418.294 L128.007 396.277 L71.266 418.294 Q71.0318 418.411 70.4462 418.411 Q69.4508 418.411 68.7481 417.709 Q68.0454 417.006 68.0454 416.01 Q68.0454 414.371 69.6264 413.785 L127.187 391.475 Z" fill="#000000" fill-rule="evenodd" fill-opacity="1" /><polyline clip-path="url(#clip222)" style="stroke:#009af9; stroke-linecap:round; stroke-linejoin:round; stroke-width:12; stroke-opacity:1; fill:none" points="
  437.516,134.3 446.86,136.14 456.204,142.204 465.548,152.429 474.892,166.706 484.236,184.887 493.58,206.79 502.924,232.198 512.268,260.867 521.612,292.523 
  530.956,326.872 540.3,363.608 549.644,402.405 558.988,442.938 568.332,484.881 577.676,527.901 587.02,571.653 596.364,615.8 605.708,660.028 615.052,704.039 
  624.396,747.559 633.74,790.329 643.084,832.1 652.428,872.633 661.772,911.728 671.116,949.22 680.46,984.997 689.804,1018.95 699.148,1050.97 708.492,1081 
  717.836,1109 727.18,1134.97 736.524,1158.88 745.868,1180.74 755.212,1200.56 764.556,1218.41 773.9,1234.35 783.244,1248.45 792.588,1260.78 801.932,1271.46 
  811.276,1280.61 820.62,1288.37 829.964,1294.88 839.308,1300.24 848.652,1304.56 857.996,1307.95 867.34,1310.53 876.684,1312.4 886.028,1313.68 895.372,1314.44 
  904.716,1314.77 914.06,1314.74 923.404,1314.43 932.748,1313.88 942.092,1313.16 951.436,1312.3 960.78,1311.33 970.124,1310.28 979.468,1309.17 988.812,1308.02 
  998.156,1306.83 1007.5,1305.63 1016.84,1304.43 1026.19,1303.23 1035.53,1302.06 1044.88,1300.92 1054.22,1299.83 1063.56,1298.8 1072.91,1297.84 1082.25,1296.96 
  1091.6,1296.16 1100.94,1295.46 1110.28,1294.85 1119.63,1294.34 1128.97,1293.93 1138.32,1293.63 1147.66,1293.44 1157,1293.39 1166.35,1293.49 1175.69,1293.75 
  1185.04,1294.12 1194.38,1294.6 1203.72,1295.18 1213.07,1295.83 1222.41,1296.52 1231.76,1297.23 1241.1,1297.95 1250.44,1298.65 1259.79,1299.33 1269.13,1299.99 
  1278.48,1300.63 1287.82,1301.22 1297.16,1301.78 1306.51,1302.3 1315.85,1302.77 1325.2,1303.16 1334.54,1303.49 1343.88,1303.75 1353.23,1303.95 1362.57,1304.09 
  1371.92,1304.17 1381.26,1304.19 1390.6,1304.12 1399.95,1303.98 1409.29,1303.76 1418.64,1303.47 1427.98,1303.12 1437.32,1302.72 1446.67,1302.29 1456.01,1301.84 
  1465.36,1301.39 1474.7,1300.96 1484.04,1300.53 1493.39,1300.13 1502.73,1299.75 1512.08,1299.41 1521.42,1299.1 1530.76,1298.82 1540.11,1298.58 1549.45,1298.38 
  1558.8,1298.23 1568.14,1298.11 1577.48,1298.05 1586.83,1298.03 1596.17,1298.06 1605.52,1298.13 1614.86,1298.25 1624.2,1298.4 1633.55,1298.6 1642.89,1298.83 
  1652.24,1299.09 1661.58,1299.39 1670.92,1299.72 1680.27,1300.09 1689.61,1300.5 1698.96,1300.94 1708.3,1301.41 1717.64,1301.88 1726.99,1302.33 1736.33,1302.74 
  1745.68,1303.12 1755.02,1303.49 1764.36,1303.85 1773.71,1304.22 1783.05,1304.62 1792.4,1305.02 1801.74,1305.4 1811.08,1305.73 1820.43,1306.01 1829.77,1306.24 
  1839.12,1306.41 1848.46,1306.5 1857.8,1306.52 1867.15,1306.46 1876.49,1306.34 1885.84,1306.16 1895.18,1305.94 1904.52,1305.67 1913.87,1305.38 1923.21,1305.04 
  1932.56,1304.64 1941.9,1304.2 1951.24,1303.76 1960.59,1303.33 1969.93,1302.95 1979.28,1302.6 1988.62,1302.31 1997.96,1302.07 2007.31,1301.87 2016.65,1301.71 
  2026,1301.57 2035.34,1301.46 2044.68,1301.37 2054.03,1301.3 2063.37,1301.26 2072.72,1301.24 2082.06,1301.24 2091.4,1301.26 2100.75,1301.31 2110.09,1301.39 
  2119.44,1301.48 2128.78,1301.6 2138.12,1301.74 2147.47,1301.9 2156.81,1302.08 2166.16,1302.27 2175.5,1302.47 2184.84,1302.7 2194.19,1302.93 2203.53,1303.17 
  2212.88,1303.4 2222.22,1303.63 2231.56,1303.83 2240.91,1304.02 2250.25,1304.17 2259.6,1304.31 2268.94,1304.42 2278.28,1304.52 2287.63,1304.62 2296.97,1304.73 
  
  "/>
<polyline clip-path="url(#clip222)" style="stroke:#e26f46; stroke-linecap:round; stroke-linejoin:round; stroke-width:12; stroke-opacity:1; fill:none" points="
  437.516,743.237 446.86,697.323 456.204,650.749 465.548,603.827 474.892,556.892 484.236,510.295 493.58,464.385 502.924,419.516 512.268,376.046 521.612,334.346 
  530.956,294.786 540.3,257.715 549.644,223.477 558.988,192.392 568.332,164.757 577.676,140.843 587.02,120.894 596.364,105.115 605.708,93.671 615.052,86.684 
  624.396,84.2294 633.74,86.3341 643.084,92.9751 652.428,104.081 661.772,119.535 671.116,139.176 680.46,162.807 689.804,190.191 699.148,221.059 708.492,255.112 
  717.836,292.031 727.18,331.48 736.524,373.097 745.868,416.507 755.212,461.334 764.556,507.211 773.9,553.754 783.244,600.594 792.588,647.374 801.932,693.761 
  811.276,739.451 820.62,784.17 829.964,827.656 839.308,869.652 848.652,909.93 857.996,948.286 867.34,984.577 876.684,1018.69 886.028,1050.54 895.372,1080.05 
  904.716,1107.18 914.06,1131.92 923.404,1154.33 932.748,1174.47 942.092,1192.45 951.436,1208.34 960.78,1222.25 970.124,1234.31 979.468,1244.66 988.812,1253.43 
  998.156,1260.76 1007.5,1266.77 1016.84,1271.63 1026.19,1275.51 1035.53,1278.56 1044.88,1280.92 1054.22,1282.71 1063.56,1284.05 1072.91,1285.04 1082.25,1285.78 
  1091.6,1286.35 1100.94,1286.83 1110.28,1287.28 1119.63,1287.74 1128.97,1288.25 1138.32,1288.84 1147.66,1289.52 1157,1290.29 1166.35,1291.16 1175.69,1292.12 
  1185.04,1293.16 1194.38,1294.27 1203.72,1295.44 1213.07,1296.64 1222.41,1297.88 1231.76,1299.13 1241.1,1300.39 1250.44,1301.62 1259.79,1302.84 1269.13,1304.01 
  1278.48,1305.12 1287.82,1306.18 1297.16,1307.15 1306.51,1308.04 1315.85,1308.84 1325.2,1309.52 1334.54,1310.08 1343.88,1310.53 1353.23,1310.85 1362.57,1311.06 
  1371.92,1311.14 1381.26,1311.1 1390.6,1310.92 1399.95,1310.59 1409.29,1310.14 1418.64,1309.57 1427.98,1308.89 1437.32,1308.11 1446.67,1307.3 1456.01,1306.5 
  1465.36,1305.76 1474.7,1305.08 1484.04,1304.47 1493.39,1303.96 1502.73,1303.56 1512.08,1303.28 1521.42,1303.1 1530.76,1303.01 1540.11,1302.97 1549.45,1302.98 
  1558.8,1303.04 1568.14,1303.12 1577.48,1303.22 1586.83,1303.29 1596.17,1303.33 1605.52,1303.32 1614.86,1303.27 1624.2,1303.21 1633.55,1303.13 1642.89,1303.02 
  1652.24,1302.89 1661.58,1302.74 1670.92,1302.55 1680.27,1302.34 1689.61,1302.11 1698.96,1301.85 1708.3,1301.57 1717.64,1301.28 1726.99,1300.98 1736.33,1300.67 
  1745.68,1300.35 1755.02,1300.03 1764.36,1299.71 1773.71,1299.4 1783.05,1299.1 1792.4,1298.82 1801.74,1298.54 1811.08,1298.28 1820.43,1298.04 1829.77,1297.82 
  1839.12,1297.61 1848.46,1297.43 1857.8,1297.28 1867.15,1297.14 1876.49,1297.04 1885.84,1296.98 1895.18,1296.95 1904.52,1296.97 1913.87,1297.03 1923.21,1297.12 
  1932.56,1297.23 1941.9,1297.37 1951.24,1297.58 1960.59,1297.87 1969.93,1298.26 1979.28,1298.76 1988.62,1299.35 1997.96,1300.04 2007.31,1300.78 2016.65,1301.53 
  2026,1302.25 2035.34,1302.91 2044.68,1303.51 2054.03,1304.02 2063.37,1304.42 2072.72,1304.71 2082.06,1304.89 2091.4,1304.99 2100.75,1305.03 2110.09,1305.02 
  2119.44,1304.98 2128.78,1304.9 2138.12,1304.8 2147.47,1304.7 2156.81,1304.6 2166.16,1304.49 2175.5,1304.39 2184.84,1304.27 2194.19,1304.14 2203.53,1304 
  2212.88,1303.87 2222.22,1303.73 2231.56,1303.6 2240.91,1303.47 2250.25,1303.34 2259.6,1303.21 2268.94,1303.1 2278.28,1302.98 2287.63,1302.88 2296.97,1302.79 
  
  "/>
<polyline clip-path="url(#clip222)" style="stroke:#3da44d; stroke-linecap:round; stroke-linejoin:round; stroke-width:12; stroke-opacity:1; fill:none" points="
  437.516,1278.89 446.86,1269.05 456.204,1257.74 465.548,1244.84 474.892,1230.26 484.236,1213.89 493.58,1195.62 502.924,1175.34 512.268,1152.97 521.612,1128.45 
  530.956,1101.77 540.3,1072.91 549.644,1041.87 558.988,1008.7 568.332,973.439 577.676,936.173 587.02,897.058 596.364,856.274 605.708,814.007 615.052,770.467 
  624.396,725.884 633.74,680.518 643.084,634.662 652.428,588.639 661.772,542.777 671.116,497.415 680.46,452.881 689.804,409.531 699.148,367.722 708.492,327.814 
  717.836,290.155 727.18,255.079 736.524,222.914 745.868,193.971 755.212,168.531 764.556,146.843 773.9,129.127 783.244,115.567 792.588,106.303 801.932,101.434 
  811.276,101.011 820.62,105.041 829.964,113.478 839.308,126.231 848.652,143.165 857.996,164.104 867.34,188.833 876.684,217.105 886.028,248.645 895.372,283.147 
  904.716,320.283 914.06,359.716 923.404,401.101 932.748,444.087 942.092,488.325 951.436,533.454 960.78,579.118 970.124,624.981 979.468,670.717 988.812,716.015 
  998.156,760.565 1007.5,804.086 1016.84,846.355 1026.19,887.175 1035.53,926.361 1044.88,963.766 1054.22,999.252 1063.56,1032.7 1072.91,1064.04 1082.25,1093.2 
  1091.6,1120.17 1100.94,1144.96 1110.28,1167.62 1119.63,1188.19 1128.97,1206.77 1138.32,1223.42 1147.66,1238.22 1157,1251.27 1166.35,1262.71 1175.69,1272.63 
  1185.04,1281.16 1194.38,1288.4 1203.72,1294.48 1213.07,1299.51 1222.41,1303.6 1231.76,1306.88 1241.1,1309.45 1250.44,1311.44 1259.79,1312.94 1269.13,1314.04 
  1278.48,1314.8 1287.82,1315.31 1297.16,1315.6 1306.51,1315.71 1315.85,1315.69 1325.2,1315.55 1334.54,1315.32 1343.88,1315.01 1353.23,1314.64 1362.57,1314.21 
  1371.92,1313.72 1381.26,1313.18 1390.6,1312.6 1399.95,1311.99 1409.29,1311.35 1418.64,1310.68 1427.98,1310 1437.32,1309.32 1446.67,1308.64 1456.01,1307.99 
  1465.36,1307.37 1474.7,1306.8 1484.04,1306.28 1493.39,1305.82 1502.73,1305.43 1512.08,1305.12 1521.42,1304.88 1530.76,1304.7 1540.11,1304.56 1549.45,1304.45 
  1558.8,1304.38 1568.14,1304.33 1577.48,1304.28 1586.83,1304.19 1596.17,1304.04 1605.52,1303.82 1614.86,1303.55 1624.2,1303.27 1633.55,1302.98 1642.89,1302.67 
  1652.24,1302.32 1661.58,1301.94 1670.92,1301.51 1680.27,1301.03 1689.61,1300.5 1698.96,1299.94 1708.3,1299.36 1717.64,1298.76 1726.99,1298.14 1736.33,1297.55 
  1745.68,1296.97 1755.02,1296.43 1764.36,1295.93 1773.71,1295.46 1783.05,1295.06 1792.4,1294.71 1801.74,1294.41 1811.08,1294.15 1820.43,1293.93 1829.77,1293.75 
  1839.12,1293.62 1848.46,1293.53 1857.8,1293.49 1867.15,1293.49 1876.49,1293.54 1885.84,1293.64 1895.18,1293.79 1904.52,1293.98 1913.87,1294.21 1923.21,1294.49 
  1932.56,1294.8 1941.9,1295.14 1951.24,1295.52 1960.59,1295.93 1969.93,1296.36 1979.28,1296.8 1988.62,1297.26 1997.96,1297.73 2007.31,1298.2 2016.65,1298.66 
  2026,1299.08 2035.34,1299.48 2044.68,1299.84 2054.03,1300.15 2063.37,1300.39 2072.72,1300.58 2082.06,1300.71 2091.4,1300.8 2100.75,1300.86 2110.09,1300.91 
  2119.44,1300.94 2128.78,1300.98 2138.12,1301.02 2147.47,1301.09 2156.81,1301.2 2166.16,1301.34 2175.5,1301.49 2184.84,1301.63 2194.19,1301.77 2203.53,1301.93 
  2212.88,1302.1 2222.22,1302.25 2231.56,1302.42 2240.91,1302.59 2250.25,1302.77 2259.6,1302.94 2268.94,1303.09 2278.28,1303.22 2287.63,1303.33 2296.97,1303.42 
  
  "/>
<polyline clip-path="url(#clip222)" style="stroke:#c271d2; stroke-linecap:round; stroke-linejoin:round; stroke-width:12; stroke-opacity:1; fill:none" points="
  437.516,1307.19 446.86,1305.99 456.204,1304.79 465.548,1303.58 474.892,1302.39 484.236,1301.22 493.58,1300.05 502.924,1298.88 512.268,1297.68 521.612,1296.42 
  530.956,1295.06 540.3,1293.54 549.644,1291.8 558.988,1289.75 568.332,1287.29 577.676,1284.32 587.02,1280.74 596.364,1276.44 605.708,1271.3 615.052,1265.17 
  624.396,1257.93 633.74,1249.41 643.084,1239.5 652.428,1228.08 661.772,1215.02 671.116,1200.21 680.46,1183.5 689.804,1164.8 699.148,1144.03 708.492,1121.14 
  717.836,1096.09 727.18,1068.85 736.524,1039.45 745.868,1007.96 755.212,974.454 764.556,939.021 773.9,901.806 783.244,862.975 792.588,822.715 801.932,781.227 
  811.276,738.727 820.62,695.442 829.964,651.639 839.308,607.619 848.652,563.7 857.996,520.214 867.34,477.487 876.684,435.852 886.028,395.645 895.372,357.209 
  904.716,320.884 914.06,286.993 923.404,255.842 932.748,227.718 942.092,202.888 951.436,181.595 960.78,164.053 970.124,150.443 979.468,140.904 988.812,135.539 
  998.156,134.406 1007.5,137.517 1016.84,144.839 1026.19,156.293 1035.53,171.76 1044.88,191.081 1054.22,214.061 1063.56,240.472 1072.91,270.059 1082.25,302.542 
  1091.6,337.621 1100.94,374.984 1110.28,414.31 1119.63,455.27 1128.97,497.532 1138.32,540.759 1147.66,584.604 1157,628.746 1166.35,672.887 1175.69,716.715 
  1185.04,759.934 1194.38,802.285 1203.72,843.517 1213.07,883.398 1222.41,921.728 1231.76,958.351 1241.1,993.155 1250.44,1026.04 1259.79,1056.94 1269.13,1085.81 
  1278.48,1112.61 1287.82,1137.33 1297.16,1159.97 1306.51,1180.52 1315.85,1199.03 1325.2,1215.57 1334.54,1230.2 1343.88,1243 1353.23,1254.1 1362.57,1263.59 
  1371.92,1271.63 1381.26,1278.31 1390.6,1283.77 1399.95,1288.13 1409.29,1291.53 1418.64,1294.07 1427.98,1295.91 1437.32,1297.14 1446.67,1297.88 1456.01,1298.24 
  1465.36,1298.3 1474.7,1298.14 1484.04,1297.83 1493.39,1297.42 1502.73,1296.96 1512.08,1296.48 1521.42,1296.02 1530.76,1295.58 1540.11,1295.18 1549.45,1294.83 
  1558.8,1294.53 1568.14,1294.29 1577.48,1294.1 1586.83,1293.98 1596.17,1293.91 1605.52,1293.9 1614.86,1293.96 1624.2,1294.08 1633.55,1294.26 1642.89,1294.5 
  1652.24,1294.79 1661.58,1295.13 1670.92,1295.5 1680.27,1295.91 1689.61,1296.35 1698.96,1296.81 1708.3,1297.3 1717.64,1297.8 1726.99,1298.32 1736.33,1298.85 
  1745.68,1299.4 1755.02,1299.97 1764.36,1300.54 1773.71,1301.11 1783.05,1301.68 1792.4,1302.25 1801.74,1302.78 1811.08,1303.25 1820.43,1303.62 1829.77,1303.91 
  1839.12,1304.12 1848.46,1304.22 1857.8,1304.24 1867.15,1304.16 1876.49,1303.98 1885.84,1303.73 1895.18,1303.41 1904.52,1303.03 1913.87,1302.61 1923.21,1302.14 
  1932.56,1301.65 1941.9,1301.16 1951.24,1300.69 1960.59,1300.24 1969.93,1299.81 1979.28,1299.4 1988.62,1299.02 1997.96,1298.66 2007.31,1298.34 2016.65,1298.07 
  2026,1297.85 2035.34,1297.68 2044.68,1297.57 2054.03,1297.52 2063.37,1297.52 2072.72,1297.58 2082.06,1297.69 2091.4,1297.86 2100.75,1298.08 2110.09,1298.34 
  2119.44,1298.66 2128.78,1299.02 2138.12,1299.41 2147.47,1299.85 2156.81,1300.31 2166.16,1300.8 2175.5,1301.31 2184.84,1301.83 2194.19,1302.35 2203.53,1302.88 
  2212.88,1303.41 2222.22,1303.92 2231.56,1304.42 2240.91,1304.91 2250.25,1305.37 2259.6,1305.79 2268.94,1306.17 2278.28,1306.5 2287.63,1306.78 2296.97,1307.01 
  
  "/>
<polyline clip-path="url(#clip222)" style="stroke:#ac8d18; stroke-linecap:round; stroke-linejoin:round; stroke-width:12; stroke-opacity:1; fill:none" points="
  437.516,1293.96 446.86,1292.91 456.204,1291.91 465.548,1290.97 474.892,1290.13 484.236,1289.4 493.58,1288.79 502.924,1288.29 512.268,1287.9 521.612,1287.62 
  530.956,1287.47 540.3,1287.45 549.644,1287.56 558.988,1287.81 568.332,1288.19 577.676,1288.69 587.02,1289.32 596.364,1290.05 605.708,1290.89 615.052,1291.83 
  624.396,1292.84 633.74,1293.93 643.084,1295.08 652.428,1296.27 661.772,1297.49 671.116,1298.72 680.46,1299.91 689.804,1301.03 699.148,1302.03 708.492,1302.87 
  717.836,1303.47 727.18,1303.75 736.524,1303.64 745.868,1303.05 755.212,1301.89 764.556,1300.03 773.9,1297.38 783.244,1293.82 792.588,1289.22 801.932,1283.46 
  811.276,1276.38 820.62,1267.84 829.964,1257.69 839.308,1245.82 848.652,1232.13 857.996,1216.54 867.34,1198.91 876.684,1179.18 886.028,1157.26 895.372,1133.11 
  904.716,1106.72 914.06,1078.09 923.404,1047.21 932.748,1014.11 942.092,978.816 951.436,941.45 960.78,902.146 970.124,861.053 979.468,818.359 988.812,774.277 
  998.156,729.076 1007.5,683.039 1016.84,636.441 1026.19,589.58 1035.53,542.786 1044.88,496.397 1054.22,450.774 1063.56,406.291 1072.91,363.318 1082.25,322.228 
  1091.6,283.382 1100.94,247.13 1110.28,213.806 1119.63,183.725 1128.97,157.179 1138.32,134.431 1147.66,115.713 1157,101.22 1166.35,91.1025 1175.69,85.4696 
  1185.04,84.3822 1194.38,87.8524 1203.72,95.8426 1213.07,108.267 1222.41,124.995 1231.76,145.855 1241.1,170.635 1250.44,199.09 1259.79,230.944 1269.13,265.892 
  1278.48,303.606 1287.82,343.741 1297.16,385.929 1306.51,429.791 1315.85,474.954 1325.2,521.042 1334.54,567.679 1343.88,614.499 1353.23,661.161 1362.57,707.334 
  1371.92,752.714 1381.26,797.007 1390.6,839.948 1399.95,881.294 1409.29,920.849 1418.64,958.441 1427.98,993.947 1437.32,1027.26 1446.67,1058.34 1456.01,1087.15 
  1465.36,1113.67 1474.7,1137.94 1484.04,1159.99 1493.39,1179.92 1502.73,1197.82 1512.08,1213.81 1521.42,1227.99 1530.76,1240.45 1540.11,1251.31 1549.45,1260.68 
  1558.8,1268.67 1568.14,1275.44 1577.48,1281.11 1586.83,1285.81 1596.17,1289.65 1605.52,1292.76 1614.86,1295.25 1624.2,1297.23 1633.55,1298.8 1642.89,1300.02 
  1652.24,1300.97 1661.58,1301.71 1670.92,1302.32 1680.27,1302.82 1689.61,1303.27 1698.96,1303.67 1708.3,1304.05 1717.64,1304.4 1726.99,1304.74 1736.33,1305.06 
  1745.68,1305.36 1755.02,1305.63 1764.36,1305.88 1773.71,1306.09 1783.05,1306.27 1792.4,1306.42 1801.74,1306.53 1811.08,1306.59 1820.43,1306.61 1829.77,1306.59 
  1839.12,1306.52 1848.46,1306.41 1857.8,1306.26 1867.15,1306.06 1876.49,1305.83 1885.84,1305.56 1895.18,1305.28 1904.52,1304.98 1913.87,1304.68 1923.21,1304.36 
  1932.56,1304.06 1941.9,1303.8 1951.24,1303.59 1960.59,1303.44 1969.93,1303.33 1979.28,1303.25 1988.62,1303.2 1997.96,1303.2 2007.31,1303.25 2016.65,1303.37 
  2026,1303.56 2035.34,1303.81 2044.68,1304.14 2054.03,1304.53 2063.37,1304.98 2072.72,1305.45 2082.06,1305.95 2091.4,1306.46 2100.75,1307.02 2110.09,1307.62 
  2119.44,1308.25 2128.78,1308.9 2138.12,1309.55 2147.47,1310.2 2156.81,1310.86 2166.16,1311.51 2175.5,1312.14 2184.84,1312.76 2194.19,1313.36 2203.53,1313.93 
  2212.88,1314.48 2222.22,1314.98 2231.56,1315.45 2240.91,1315.86 2250.25,1316.22 2259.6,1316.52 2268.94,1316.75 2278.28,1316.93 2287.63,1317.03 2296.97,1317.07 
  
  "/>
<polyline clip-path="url(#clip222)" style="stroke:#00a9ad; stroke-linecap:round; stroke-linejoin:round; stroke-width:12; stroke-opacity:1; fill:none" points="
  437.516,1304.14 446.86,1303.87 456.204,1303.63 465.548,1303.46 474.892,1303.38 484.236,1303.38 493.58,1303.48 502.924,1303.64 512.268,1303.85 521.612,1304.12 
  530.956,1304.45 540.3,1304.85 549.644,1305.33 558.988,1305.91 568.332,1306.56 577.676,1307.28 587.02,1308.06 596.364,1308.85 605.708,1309.66 615.052,1310.45 
  624.396,1311.19 633.74,1311.88 643.084,1312.53 652.428,1313.11 661.772,1313.65 671.116,1314.14 680.46,1314.57 689.804,1314.94 699.148,1315.25 708.492,1315.51 
  717.836,1315.71 727.18,1315.83 736.524,1315.89 745.868,1315.88 755.212,1315.79 764.556,1315.64 773.9,1315.41 783.244,1315.12 792.588,1314.76 801.932,1314.34 
  811.276,1313.87 820.62,1313.35 829.964,1312.78 839.308,1312.17 848.652,1311.52 857.996,1310.83 867.34,1310.09 876.684,1309.27 886.028,1308.36 895.372,1307.31 
  904.716,1306.08 914.06,1304.62 923.404,1302.85 932.748,1300.68 942.092,1298.01 951.436,1294.73 960.78,1290.75 970.124,1285.94 979.468,1280.17 988.812,1273.3 
  998.156,1265.23 1007.5,1255.83 1016.84,1244.94 1026.19,1232.42 1035.53,1218.13 1044.88,1201.96 1054.22,1183.79 1063.56,1163.56 1072.91,1141.2 1082.25,1116.67 
  1091.6,1089.93 1100.94,1060.97 1110.28,1029.8 1119.63,996.448 1128.97,960.98 1138.32,923.503 1147.66,884.18 1157,843.179 1166.35,800.671 1175.69,756.901 
  1185.04,712.133 1194.38,666.644 1203.72,620.741 1213.07,574.754 1222.41,529.022 1231.76,483.889 1241.1,439.693 1250.44,396.789 1259.79,355.528 1269.13,316.265 
  1278.48,279.348 1287.82,245.113 1297.16,213.883 1306.51,185.961 1315.85,161.62 1325.2,141.102 1334.54,124.615 1343.88,112.331 1353.23,104.377 1362.57,100.839 
  1371.92,101.754 1381.26,107.112 1390.6,116.856 1399.95,130.88 1409.29,149.036 1418.64,171.138 1427.98,196.962 1437.32,226.252 1446.67,258.724 1456.01,294.076 
  1465.36,331.977 1474.7,372.089 1484.04,414.063 1493.39,457.553 1502.73,502.209 1512.08,547.68 1521.42,593.614 1530.76,639.663 1540.11,685.488 1549.45,730.766 
  1558.8,775.198 1568.14,818.529 1577.48,860.516 1586.83,900.932 1596.17,939.578 1605.52,976.296 1614.86,1010.98 1624.2,1043.53 1633.55,1073.86 1642.89,1101.91 
  1652.24,1127.68 1661.58,1151.2 1670.92,1172.54 1680.27,1191.79 1689.61,1209.07 1698.96,1224.45 1708.3,1238.03 1717.64,1249.92 1726.99,1260.22 1736.33,1269.04 
  1745.68,1276.49 1755.02,1282.68 1764.36,1287.72 1773.71,1291.76 1783.05,1294.9 1792.4,1297.3 1801.74,1299.07 1811.08,1300.3 1820.43,1301.11 1829.77,1301.57 
  1839.12,1301.78 1848.46,1301.78 1857.8,1301.64 1867.15,1301.4 1876.49,1301.1 1885.84,1300.75 1895.18,1300.39 1904.52,1300.03 1913.87,1299.68 1923.21,1299.34 
  1932.56,1299.02 1941.9,1298.72 1951.24,1298.44 1960.59,1298.2 1969.93,1297.99 1979.28,1297.81 1988.62,1297.66 1997.96,1297.55 2007.31,1297.49 2016.65,1297.46 
  2026,1297.48 2035.34,1297.55 2044.68,1297.66 2054.03,1297.81 2063.37,1298 2072.72,1298.22 2082.06,1298.46 2091.4,1298.73 2100.75,1299.04 2110.09,1299.39 
  2119.44,1299.77 2128.78,1300.17 2138.12,1300.58 2147.47,1301.01 2156.81,1301.46 2166.16,1301.92 2175.5,1302.38 2184.84,1302.87 2194.19,1303.37 2203.53,1303.88 
  2212.88,1304.42 2222.22,1304.95 2231.56,1305.46 2240.91,1305.96 2250.25,1306.43 2259.6,1306.86 2268.94,1307.25 2278.28,1307.61 2287.63,1308 2296.97,1308.45 
  
  "/>
<polyline clip-path="url(#clip222)" style="stroke:#ed5d92; stroke-linecap:round; stroke-linejoin:round; stroke-width:12; stroke-opacity:1; fill:none" points="
  437.516,1298.31 446.86,1298.18 456.204,1298.08 465.548,1298.04 474.892,1298.04 484.236,1298.09 493.58,1298.18 502.924,1298.32 512.268,1298.5 521.612,1298.71 
  530.956,1298.97 540.3,1299.27 549.644,1299.61 558.988,1299.99 568.332,1300.4 577.676,1300.84 587.02,1301.3 596.364,1301.76 605.708,1302.22 615.052,1302.65 
  624.396,1303.04 633.74,1303.38 643.084,1303.68 652.428,1303.94 661.772,1304.17 671.116,1304.37 680.46,1304.54 689.804,1304.7 699.148,1304.84 708.492,1304.99 
  717.836,1305.12 727.18,1305.23 736.524,1305.3 745.868,1305.33 755.212,1305.31 764.556,1305.25 773.9,1305.15 783.244,1305.01 792.588,1304.84 801.932,1304.62 
  811.276,1304.36 820.62,1304.03 829.964,1303.63 839.308,1303.18 848.652,1302.7 857.996,1302.19 867.34,1301.66 876.684,1301.12 886.028,1300.56 895.372,1300 
  904.716,1299.42 914.06,1298.85 923.404,1298.28 932.748,1297.72 942.092,1297.17 951.436,1296.65 960.78,1296.16 970.124,1295.71 979.468,1295.3 988.812,1294.93 
  998.156,1294.62 1007.5,1294.36 1016.84,1294.15 1026.19,1294 1035.53,1293.9 1044.88,1293.84 1054.22,1293.8 1063.56,1293.76 1072.91,1293.67 1082.25,1293.49 
  1091.6,1293.17 1100.94,1292.63 1110.28,1291.78 1119.63,1290.53 1128.97,1288.77 1138.32,1286.39 1147.66,1283.28 1157,1279.32 1166.35,1274.36 1175.69,1268.27 
  1185.04,1260.94 1194.38,1252.22 1203.72,1242 1213.07,1230.16 1222.41,1216.6 1231.76,1201.19 1241.1,1183.82 1250.44,1164.38 1259.79,1142.8 1269.13,1119.02 
  1278.48,1093.03 1287.82,1064.81 1297.16,1034.42 1306.51,1001.95 1315.85,967.472 1325.2,931.108 1334.54,893.009 1343.88,853.35 1353.23,812.314 1362.57,770.117 
  1371.92,726.995 1381.26,683.214 1390.6,639.061 1399.95,594.843 1409.29,550.867 1418.64,507.459 1427.98,464.942 1437.32,423.653 1446.67,383.92 1456.01,346.071 
  1465.36,310.437 1474.7,277.334 1484.04,247.063 1493.39,219.903 1502.73,196.114 1512.08,175.928 1521.42,159.55 1530.76,147.148 1540.11,138.853 1549.45,134.754 
  1558.8,134.895 1568.14,139.274 1577.48,147.846 1586.83,160.517 1596.17,177.156 1605.52,197.593 1614.86,221.624 1624.2,249.012 1633.55,279.493 1642.89,312.776 
  1652.24,348.559 1661.58,386.529 1670.92,426.365 1680.27,467.745 1689.61,510.348 1698.96,553.83 1708.3,597.85 1717.64,642.087 1726.99,686.225 1736.33,729.948 
  1745.68,772.959 1755.02,814.978 1764.36,855.759 1773.71,895.092 1783.05,932.797 1792.4,968.749 1801.74,1002.82 1811.08,1034.91 1820.43,1064.95 1829.77,1092.88 
  1839.12,1118.71 1848.46,1142.43 1857.8,1164.04 1867.15,1183.56 1876.49,1201.05 1885.84,1216.58 1895.18,1230.22 1904.52,1242.1 1913.87,1252.33 1923.21,1261.06 
  1932.56,1268.42 1941.9,1274.58 1951.24,1279.66 1960.59,1283.8 1969.93,1287.09 1979.28,1289.68 1988.62,1291.67 1997.96,1293.18 2007.31,1294.32 2016.65,1295.17 
  2026,1295.82 2035.34,1296.32 2044.68,1296.72 2054.03,1297.07 2063.37,1297.41 2072.72,1297.75 2082.06,1298.1 2091.4,1298.49 2100.75,1298.9 2110.09,1299.34 
  2119.44,1299.8 2128.78,1300.27 2138.12,1300.76 2147.47,1301.25 2156.81,1301.74 2166.16,1302.23 2175.5,1302.7 2184.84,1303.17 2194.19,1303.61 2203.53,1304.03 
  2212.88,1304.43 2222.22,1304.79 2231.56,1305.12 2240.91,1305.4 2250.25,1305.63 2259.6,1305.81 2268.94,1305.94 2278.28,1306.03 2287.63,1306.11 2296.97,1306.23 
  
  "/>
<polyline clip-path="url(#clip222)" style="stroke:#c68125; stroke-linecap:round; stroke-linejoin:round; stroke-width:12; stroke-opacity:1; fill:none" points="
  437.516,1302.85 446.86,1303.05 456.204,1303.2 465.548,1303.31 474.892,1303.38 484.236,1303.4 493.58,1303.37 502.924,1303.31 512.268,1303.22 521.612,1303.12 
  530.956,1302.98 540.3,1302.83 549.644,1302.66 558.988,1302.47 568.332,1302.25 577.676,1302 587.02,1301.74 596.364,1301.46 605.708,1301.16 615.052,1300.85 
  624.396,1300.54 633.74,1300.22 643.084,1299.9 652.428,1299.59 661.772,1299.28 671.116,1298.99 680.46,1298.7 689.804,1298.44 699.148,1298.2 708.492,1297.98 
  717.836,1297.8 727.18,1297.63 736.524,1297.5 745.868,1297.39 755.212,1297.3 764.556,1297.25 773.9,1297.22 783.244,1297.22 792.588,1297.26 801.932,1297.31 
  811.276,1297.39 820.62,1297.45 829.964,1297.51 839.308,1297.57 848.652,1297.65 857.996,1297.74 867.34,1297.87 876.684,1298.02 886.028,1298.18 895.372,1298.33 
  904.716,1298.46 914.06,1298.57 923.404,1298.66 932.748,1298.73 942.092,1298.76 951.436,1298.78 960.78,1298.81 970.124,1298.84 979.468,1298.9 988.812,1298.96 
  998.156,1299.05 1007.5,1299.17 1016.84,1299.34 1026.19,1299.54 1035.53,1299.79 1044.88,1300.07 1054.22,1300.39 1063.56,1300.72 1072.91,1301.07 1082.25,1301.42 
  1091.6,1301.77 1100.94,1302.13 1110.28,1302.48 1119.63,1302.85 1128.97,1303.21 1138.32,1303.58 1147.66,1303.94 1157,1304.3 1166.35,1304.64 1175.69,1304.97 
  1185.04,1305.27 1194.38,1305.55 1203.72,1305.8 1213.07,1306.02 1222.41,1306.2 1231.76,1306.32 1241.1,1306.36 1250.44,1306.29 1259.79,1306.08 1269.13,1305.67 
  1278.48,1305.02 1287.82,1304.06 1297.16,1302.72 1306.51,1300.93 1315.85,1298.6 1325.2,1295.63 1334.54,1291.92 1343.88,1287.36 1353.23,1281.83 1362.57,1275.19 
  1371.92,1267.32 1381.26,1258.09 1390.6,1247.38 1399.95,1235.08 1409.29,1221.07 1418.64,1205.22 1427.98,1187.43 1437.32,1167.6 1446.67,1145.63 1456.01,1121.45 
  1465.36,1095.03 1474.7,1066.34 1484.04,1035.38 1493.39,1002.16 1502.73,966.722 1512.08,929.162 1521.42,889.612 1530.76,848.253 1540.11,805.295 1549.45,760.983 
  1558.8,715.583 1568.14,669.364 1577.48,622.63 1586.83,575.712 1596.17,528.962 1605.52,482.735 1614.86,437.385 1624.2,393.282 1633.55,350.804 1642.89,310.327 
  1652.24,272.211 1661.58,236.799 1670.92,204.418 1680.27,175.372 1689.61,149.942 1698.96,128.382 1708.3,110.914 1717.64,97.7194 1726.99,88.9381 1736.33,84.6646 
  1745.68,84.9455 1755.02,89.7778 1764.36,99.1095 1773.71,112.841 1783.05,130.829 1792.4,152.89 1801.74,178.802 1811.08,208.306 1820.43,241.116 1829.77,276.919 
  1839.12,315.386 1848.46,356.166 1857.8,398.886 1867.15,443.171 1876.49,488.644 1885.84,534.931 1895.18,581.661 1904.52,628.483 1913.87,675.06 1923.21,721.082 
  1932.56,766.268 1941.9,810.359 1951.24,853.098 1960.59,894.255 1969.93,933.614 1979.28,971.008 1988.62,1006.31 1997.96,1039.45 2007.31,1070.37 2016.65,1099.04 
  2026,1125.42 2035.34,1149.52 2044.68,1171.38 2054.03,1191.08 2063.37,1208.72 2072.72,1224.37 2082.06,1238.14 2091.4,1250.17 2100.75,1260.6 2110.09,1269.53 
  2119.44,1277.12 2128.78,1283.49 2138.12,1288.77 2147.47,1293.1 2156.81,1296.57 2166.16,1299.3 2175.5,1301.41 2184.84,1302.99 2194.19,1304.14 2203.53,1304.93 
  2212.88,1305.44 2222.22,1305.74 2231.56,1305.88 2240.91,1305.91 2250.25,1305.87 2259.6,1305.77 2268.94,1305.63 2278.28,1305.47 2287.63,1305.29 2296.97,1305.1 
  
  "/>
<polyline clip-path="url(#clip222)" style="stroke:#00a98d; stroke-linecap:round; stroke-linejoin:round; stroke-width:12; stroke-opacity:1; fill:none" points="
  437.516,1304.96 446.86,1304.84 456.204,1304.66 465.548,1304.42 474.892,1304.12 484.236,1303.76 493.58,1303.35 502.924,1302.91 512.268,1302.47 521.612,1302.05 
  530.956,1301.63 540.3,1301.24 549.644,1300.85 558.988,1300.44 568.332,1300.02 577.676,1299.56 587.02,1299.06 596.364,1298.55 605.708,1298.04 615.052,1297.56 
  624.396,1297.1 633.74,1296.66 643.084,1296.23 652.428,1295.82 661.772,1295.42 671.116,1295.04 680.46,1294.69 689.804,1294.38 699.148,1294.11 708.492,1293.89 
  717.836,1293.71 727.18,1293.59 736.524,1293.51 745.868,1293.49 755.212,1293.51 764.556,1293.58 773.9,1293.69 783.244,1293.86 792.588,1294.06 801.932,1294.32 
  811.276,1294.61 820.62,1294.93 829.964,1295.29 839.308,1295.68 848.652,1296.1 857.996,1296.53 867.34,1296.98 876.684,1297.44 886.028,1297.91 895.372,1298.37 
  904.716,1298.82 914.06,1299.26 923.404,1299.68 932.748,1300.08 942.092,1300.43 951.436,1300.77 960.78,1301.08 970.124,1301.37 979.468,1301.64 988.812,1301.88 
  998.156,1302.11 1007.5,1302.32 1016.84,1302.54 1026.19,1302.75 1035.53,1302.96 1044.88,1303.16 1054.22,1303.34 1063.56,1303.5 1072.91,1303.61 1082.25,1303.66 
  1091.6,1303.66 1100.94,1303.62 1110.28,1303.57 1119.63,1303.55 1128.97,1303.57 1138.32,1303.64 1147.66,1303.76 1157,1303.91 1166.35,1304.07 1175.69,1304.22 
  1185.04,1304.34 1194.38,1304.4 1203.72,1304.39 1213.07,1304.33 1222.41,1304.22 1231.76,1304.05 1241.1,1303.85 1250.44,1303.61 1259.79,1303.33 1269.13,1303.03 
  1278.48,1302.71 1287.82,1302.36 1297.16,1302 1306.51,1301.63 1315.85,1301.26 1325.2,1300.88 1334.54,1300.51 1343.88,1300.14 1353.23,1299.78 1362.57,1299.44 
  1371.92,1299.11 1381.26,1298.8 1390.6,1298.52 1399.95,1298.26 1409.29,1298.02 1418.64,1297.79 1427.98,1297.55 1437.32,1297.27 1446.67,1296.92 1456.01,1296.43 
  1465.36,1295.77 1474.7,1294.84 1484.04,1293.58 1493.39,1291.87 1502.73,1289.6 1512.08,1286.65 1521.42,1282.91 1530.76,1278.25 1540.11,1272.56 1549.45,1265.72 
  1558.8,1257.59 1568.14,1248.04 1577.48,1236.93 1586.83,1224.15 1596.17,1209.58 1605.52,1193.13 1614.86,1174.68 1624.2,1154.13 1633.55,1131.45 1642.89,1106.62 
  1652.24,1079.59 1661.58,1050.35 1670.92,1018.9 1680.27,985.246 1689.61,949.442 1698.96,911.612 1708.3,871.919 1717.64,830.539 1726.99,787.683 1736.33,743.613 
  1745.68,698.607 1755.02,652.974 1764.36,607.029 1773.71,561.097 1783.05,515.514 1792.4,470.611 1801.74,426.744 1811.08,384.273 1820.43,343.558 1829.77,304.953 
  1839.12,268.799 1848.46,235.426 1857.8,205.154 1867.15,178.275 1876.49,155.055 1885.84,135.725 1895.18,120.483 1904.52,109.486 1913.87,102.85 1923.21,100.645 
  1932.56,102.897 1941.9,109.579 1951.24,120.619 1960.59,135.901 1969.93,155.262 1979.28,178.503 1988.62,205.392 1997.96,235.664 2007.31,269.032 2016.65,305.18 
  2026,343.772 2035.34,384.457 2044.68,426.887 2054.03,470.712 2063.37,515.574 2072.72,561.118 2082.06,607 2091.4,652.888 2100.75,698.475 2110.09,743.454 
  2119.44,787.537 2128.78,830.469 2138.12,872.021 2147.47,911.971 2156.81,950.117 2166.16,986.294 2175.5,1020.38 2184.84,1052.3 2194.19,1081.97 2203.53,1109.34 
  2212.88,1134.43 2222.22,1157.27 2231.56,1177.91 2240.91,1196.43 2250.25,1212.93 2259.6,1227.5 2268.94,1240.24 2278.28,1251.28 2287.63,1260.78 2296.97,1268.87 
  
  "/>
<polyline clip-path="url(#clip222)" style="stroke:#8e971d; stroke-linecap:round; stroke-linejoin:round; stroke-width:12; stroke-opacity:1; fill:none" points="
  437.516,1301.39 446.86,1301.49 456.204,1301.61 465.548,1301.76 474.892,1301.92 484.236,1302.1 493.58,1302.29 502.924,1302.5 512.268,1302.72 521.612,1302.96 
  530.956,1303.21 540.3,1303.46 549.644,1303.72 558.988,1303.96 568.332,1304.19 577.676,1304.39 587.02,1304.56 596.364,1304.7 605.708,1304.82 615.052,1304.93 
  624.396,1305.03 633.74,1305.1 643.084,1305.14 652.428,1305.13 661.772,1305.06 671.116,1304.95 680.46,1304.81 689.804,1304.64 699.148,1304.45 708.492,1304.26 
  717.836,1304.04 727.18,1303.8 736.524,1303.55 745.868,1303.26 755.212,1302.95 764.556,1302.61 773.9,1302.27 783.244,1301.91 792.588,1301.55 801.932,1301.19 
  811.276,1300.84 820.62,1300.53 829.964,1300.22 839.308,1299.93 848.652,1299.65 857.996,1299.36 867.34,1299.07 876.684,1298.77 886.028,1298.48 895.372,1298.21 
  904.716,1297.97 914.06,1297.78 923.404,1297.64 932.748,1297.55 942.092,1297.52 951.436,1297.54 960.78,1297.62 970.124,1297.75 979.468,1297.94 988.812,1298.18 
  998.156,1298.46 1007.5,1298.8 1016.84,1299.17 1026.19,1299.58 1035.53,1300.03 1044.88,1300.5 1054.22,1301 1063.56,1301.51 1072.91,1302.03 1082.25,1302.55 
  1091.6,1303.07 1100.94,1303.58 1110.28,1304.09 1119.63,1304.6 1128.97,1305.12 1138.32,1305.63 1147.66,1306.14 1157,1306.64 1166.35,1307.09 1175.69,1307.49 
  1185.04,1307.8 1194.38,1308.01 1203.72,1308.09 1213.07,1308.08 1222.41,1307.95 1231.76,1307.73 1241.1,1307.43 1250.44,1307.05 1259.79,1306.62 1269.13,1306.12 
  1278.48,1305.56 1287.82,1304.96 1297.16,1304.34 1306.51,1303.7 1315.85,1303.06 1325.2,1302.39 1334.54,1301.72 1343.88,1301.04 1353.23,1300.37 1362.57,1299.73 
  1371.92,1299.13 1381.26,1298.58 1390.6,1298.09 1399.95,1297.67 1409.29,1297.3 1418.64,1297.01 1427.98,1296.79 1437.32,1296.64 1446.67,1296.57 1456.01,1296.56 
  1465.36,1296.62 1474.7,1296.74 1484.04,1296.9 1493.39,1297.11 1502.73,1297.37 1512.08,1297.66 1521.42,1298 1530.76,1298.37 1540.11,1298.77 1549.45,1299.2 
  1558.8,1299.66 1568.14,1300.13 1577.48,1300.61 1586.83,1301.09 1596.17,1301.57 1605.52,1302.01 1614.86,1302.4 1624.2,1302.69 1633.55,1302.85 1642.89,1302.83 
  1652.24,1302.57 1661.58,1301.97 1670.92,1300.96 1680.27,1299.42 1689.61,1297.23 1698.96,1294.29 1708.3,1290.49 1717.64,1285.71 1726.99,1279.83 1736.33,1272.73 
  1745.68,1264.32 1755.02,1254.49 1764.36,1243.12 1773.71,1230.11 1783.05,1215.33 1792.4,1198.67 1801.74,1180.04 1811.08,1159.36 1820.43,1136.59 1829.77,1111.69 
  1839.12,1084.63 1848.46,1055.42 1857.8,1024.13 1867.15,990.853 1876.49,955.673 1885.84,918.72 1895.18,880.148 1904.52,840.122 1913.87,798.832 1923.21,756.485 
  1932.56,713.299 1941.9,669.52 1951.24,625.435 1960.59,581.348 1969.93,537.587 1979.28,494.481 1988.62,452.357 1997.96,411.543 2007.31,372.365 2016.65,335.158 
  2026,300.25 2035.34,267.963 2044.68,238.592 2054.03,212.411 2063.37,189.674 2072.72,170.608 2082.06,155.405 2091.4,144.223 2100.75,137.18 2110.09,134.35 
  2119.44,135.765 2128.78,141.409 2138.12,151.222 2147.47,165.1 2156.81,182.897 2166.16,204.433 2175.5,229.491 2184.84,257.829 2194.19,289.174 2203.53,323.231 
  2212.88,359.693 2222.22,398.24 2231.56,438.548 2240.91,480.284 2250.25,523.115 2259.6,566.706 2268.94,610.725 2278.28,654.863 2287.63,698.831 2296.97,742.347 
  
  "/>
<polyline clip-path="url(#clip222)" style="stroke:#00a8cb; stroke-linecap:round; stroke-linejoin:round; stroke-width:12; stroke-opacity:1; fill:none" points="
  437.516,1304.73 446.86,1304.77 456.204,1304.78 465.548,1304.75 474.892,1304.7 484.236,1304.63 493.58,1304.55 502.924,1304.44 512.268,1304.32 521.612,1304.17 
  530.956,1304.02 540.3,1303.87 549.644,1303.73 558.988,1303.59 568.332,1303.45 577.676,1303.33 587.02,1303.2 596.364,1303.08 605.708,1302.97 615.052,1302.87 
  624.396,1302.78 633.74,1302.7 643.084,1302.63 652.428,1302.57 661.772,1302.52 671.116,1302.49 680.46,1302.47 689.804,1302.47 699.148,1302.48 708.492,1302.51 
  717.836,1302.55 727.18,1302.61 736.524,1302.67 745.868,1302.75 755.212,1302.83 764.556,1302.91 773.9,1303.01 783.244,1303.11 792.588,1303.21 801.932,1303.32 
  811.276,1303.44 820.62,1303.59 829.964,1303.73 839.308,1303.87 848.652,1303.98 857.996,1304.05 867.34,1304.06 876.684,1304.02 886.028,1303.93 895.372,1303.83 
  904.716,1303.77 914.06,1303.77 923.404,1303.83 932.748,1303.97 942.092,1304.19 951.436,1304.5 960.78,1304.92 970.124,1305.4 979.468,1305.95 988.812,1306.56 
  998.156,1307.22 1007.5,1307.92 1016.84,1308.65 1026.19,1309.39 1035.53,1310.14 1044.88,1310.87 1054.22,1311.58 1063.56,1312.27 1072.91,1312.95 1082.25,1313.58 
  1091.6,1314.16 1100.94,1314.7 1110.28,1315.19 1119.63,1315.63 1128.97,1316.02 1138.32,1316.35 1147.66,1316.62 1157,1316.83 1166.35,1316.98 1175.69,1317.06 
  1185.04,1317.07 1194.38,1317.02 1203.72,1316.9 1213.07,1316.72 1222.41,1316.47 1231.76,1316.17 1241.1,1315.81 1250.44,1315.4 1259.79,1314.95 1269.13,1314.45 
  1278.48,1313.92 1287.82,1313.36 1297.16,1312.79 1306.51,1312.2 1315.85,1311.61 1325.2,1311.01 1334.54,1310.41 1343.88,1309.82 1353.23,1309.25 1362.57,1308.71 
  1371.92,1308.21 1381.26,1307.77 1390.6,1307.39 1399.95,1307.07 1409.29,1306.81 1418.64,1306.61 1427.98,1306.48 1437.32,1306.42 1446.67,1306.42 1456.01,1306.47 
  1465.36,1306.54 1474.7,1306.61 1484.04,1306.66 1493.39,1306.67 1502.73,1306.65 1512.08,1306.59 1521.42,1306.5 1530.76,1306.42 1540.11,1306.33 1549.45,1306.26 
  1558.8,1306.2 1568.14,1306.17 1577.48,1306.16 1586.83,1306.18 1596.17,1306.21 1605.52,1306.25 1614.86,1306.27 1624.2,1306.29 1633.55,1306.29 1642.89,1306.28 
  1652.24,1306.25 1661.58,1306.2 1670.92,1306.14 1680.27,1306.06 1689.61,1305.95 1698.96,1305.82 1708.3,1305.68 1717.64,1305.52 1726.99,1305.34 1736.33,1305.16 
  1745.68,1304.96 1755.02,1304.75 1764.36,1304.53 1773.71,1304.31 1783.05,1304.07 1792.4,1303.8 1801.74,1303.48 1811.08,1303.1 1820.43,1302.6 1829.77,1301.95 
  1839.12,1301.09 1848.46,1299.95 1857.8,1298.47 1867.15,1296.56 1876.49,1294.13 1885.84,1291.09 1895.18,1287.32 1904.52,1282.7 1913.87,1277.09 1923.21,1270.37 
  1932.56,1262.36 1941.9,1252.92 1951.24,1241.93 1960.59,1229.25 1969.93,1214.8 1979.28,1198.47 1988.62,1180.13 1997.96,1159.7 2007.31,1137.06 2016.65,1112.17 
  2026,1085.03 2035.34,1055.63 2044.68,1023.99 2054.03,990.126 2063.37,954.125 2072.72,916.095 2082.06,876.174 2091.4,834.528 2100.75,791.344 2110.09,746.857 
  2119.44,701.335 2128.78,655.059 2138.12,608.336 2147.47,561.503 2156.81,514.921 2166.16,468.957 2175.5,423.978 2184.84,380.351 2194.19,338.454 2203.53,298.658 
  2212.88,261.319 2222.22,226.778 2231.56,195.358 2240.91,167.36 2250.25,143.061 2259.6,122.704 2268.94,106.5 2278.28,94.6164 2287.63,87.1796 2296.97,84.2698 
  
  "/>
</svg>
