<?xml version="1.0" encoding="utf-8"?>
<svg xmlns="http://www.w3.org/2000/svg" xmlns:xlink="http://www.w3.org/1999/xlink" width="600" height="400" viewBox="0 0 2400 1600">
<defs>
  <clipPath id="clip600">
    <rect x="0" y="0" width="2400" height="1600"/>
  </clipPath>
</defs>
<path clip-path="url(#clip600)" d="
M0 1600 L2400 1600 L2400 0 L0 0  Z
  " fill="#ffffff" fill-rule="evenodd" fill-opacity="1"/>
<defs>
  <clipPath id="clip601">
    <rect x="480" y="0" width="1681" height="1600"/>
  </clipPath>
</defs>
<defs>
  <clipPath id="clip602">
    <rect x="438" y="47" width="1915" height="1308"/>
  </clipPath>
</defs>
<path clip-path="url(#clip600)" d="
M438.286 1354.06 L2352.76 1354.06 L2352.76 47.2441 L438.286 47.2441  Z
  " fill="#ffffff" fill-rule="evenodd" fill-opacity="1"/>
<polyline clip-path="url(#clip602)" style="stroke:#000000; stroke-linecap:round; stroke-linejoin:round; stroke-width:2; stroke-opacity:0.1; fill:none" points="
  492.469,1354.06 492.469,47.2441 
  "/>
<polyline clip-path="url(#clip602)" style="stroke:#000000; stroke-linecap:round; stroke-linejoin:round; stroke-width:2; stroke-opacity:0.1; fill:none" points="
  673.079,1354.06 673.079,47.2441 
  "/>
<polyline clip-path="url(#clip602)" style="stroke:#000000; stroke-linecap:round; stroke-linejoin:round; stroke-width:2; stroke-opacity:0.1; fill:none" points="
  853.69,1354.06 853.69,47.2441 
  "/>
<polyline clip-path="url(#clip602)" style="stroke:#000000; stroke-linecap:round; stroke-linejoin:round; stroke-width:2; stroke-opacity:0.1; fill:none" points="
  1034.3,1354.06 1034.3,47.2441 
  "/>
<polyline clip-path="url(#clip602)" style="stroke:#000000; stroke-linecap:round; stroke-linejoin:round; stroke-width:2; stroke-opacity:0.1; fill:none" points="
  1214.91,1354.06 1214.91,47.2441 
  "/>
<polyline clip-path="url(#clip602)" style="stroke:#000000; stroke-linecap:round; stroke-linejoin:round; stroke-width:2; stroke-opacity:0.1; fill:none" points="
  1395.52,1354.06 1395.52,47.2441 
  "/>
<polyline clip-path="url(#clip602)" style="stroke:#000000; stroke-linecap:round; stroke-linejoin:round; stroke-width:2; stroke-opacity:0.1; fill:none" points="
  1576.13,1354.06 1576.13,47.2441 
  "/>
<polyline clip-path="url(#clip602)" style="stroke:#000000; stroke-linecap:round; stroke-linejoin:round; stroke-width:2; stroke-opacity:0.1; fill:none" points="
  1756.74,1354.06 1756.74,47.2441 
  "/>
<polyline clip-path="url(#clip602)" style="stroke:#000000; stroke-linecap:round; stroke-linejoin:round; stroke-width:2; stroke-opacity:0.1; fill:none" points="
  1937.35,1354.06 1937.35,47.2441 
  "/>
<polyline clip-path="url(#clip602)" style="stroke:#000000; stroke-linecap:round; stroke-linejoin:round; stroke-width:2; stroke-opacity:0.1; fill:none" points="
  2117.96,1354.06 2117.96,47.2441 
  "/>
<polyline clip-path="url(#clip602)" style="stroke:#000000; stroke-linecap:round; stroke-linejoin:round; stroke-width:2; stroke-opacity:0.1; fill:none" points="
  2298.57,1354.06 2298.57,47.2441 
  "/>
<polyline clip-path="url(#clip600)" style="stroke:#000000; stroke-linecap:round; stroke-linejoin:round; stroke-width:4; stroke-opacity:1; fill:none" points="
  438.286,1354.06 2352.76,1354.06 
  "/>
<polyline clip-path="url(#clip600)" style="stroke:#000000; stroke-linecap:round; stroke-linejoin:round; stroke-width:4; stroke-opacity:1; fill:none" points="
  492.469,1354.06 492.469,1335.16 
  "/>
<polyline clip-path="url(#clip600)" style="stroke:#000000; stroke-linecap:round; stroke-linejoin:round; stroke-width:4; stroke-opacity:1; fill:none" points="
  673.079,1354.06 673.079,1335.16 
  "/>
<polyline clip-path="url(#clip600)" style="stroke:#000000; stroke-linecap:round; stroke-linejoin:round; stroke-width:4; stroke-opacity:1; fill:none" points="
  853.69,1354.06 853.69,1335.16 
  "/>
<polyline clip-path="url(#clip600)" style="stroke:#000000; stroke-linecap:round; stroke-linejoin:round; stroke-width:4; stroke-opacity:1; fill:none" points="
  1034.3,1354.06 1034.3,1335.16 
  "/>
<polyline clip-path="url(#clip600)" style="stroke:#000000; stroke-linecap:round; stroke-linejoin:round; stroke-width:4; stroke-opacity:1; fill:none" points="
  1214.91,1354.06 1214.91,1335.16 
  "/>
<polyline clip-path="url(#clip600)" style="stroke:#000000; stroke-linecap:round; stroke-linejoin:round; stroke-width:4; stroke-opacity:1; fill:none" points="
  1395.52,1354.06 1395.52,1335.16 
  "/>
<polyline clip-path="url(#clip600)" style="stroke:#000000; stroke-linecap:round; stroke-linejoin:round; stroke-width:4; stroke-opacity:1; fill:none" points="
  1576.13,1354.06 1576.13,1335.16 
  "/>
<polyline clip-path="url(#clip600)" style="stroke:#000000; stroke-linecap:round; stroke-linejoin:round; stroke-width:4; stroke-opacity:1; fill:none" points="
  1756.74,1354.06 1756.74,1335.16 
  "/>
<polyline clip-path="url(#clip600)" style="stroke:#000000; stroke-linecap:round; stroke-linejoin:round; stroke-width:4; stroke-opacity:1; fill:none" points="
  1937.35,1354.06 1937.35,1335.16 
  "/>
<polyline clip-path="url(#clip600)" style="stroke:#000000; stroke-linecap:round; stroke-linejoin:round; stroke-width:4; stroke-opacity:1; fill:none" points="
  2117.96,1354.06 2117.96,1335.16 
  "/>
<polyline clip-path="url(#clip600)" style="stroke:#000000; stroke-linecap:round; stroke-linejoin:round; stroke-width:4; stroke-opacity:1; fill:none" points="
  2298.57,1354.06 2298.57,1335.16 
  "/>
<path clip-path="url(#clip600)" d="M492.469 1395.23 Q485.698 1395.23 482.269 1401.92 Q478.884 1408.56 478.884 1421.92 Q478.884 1435.25 482.269 1441.93 Q485.698 1448.57 492.469 1448.57 Q499.283 1448.57 502.669 1441.93 Q506.097 1435.25 506.097 1421.92 Q506.097 1408.56 502.669 1401.92 Q499.283 1395.23 492.469 1395.23 M492.469 1388.29 Q503.363 1388.29 509.092 1396.93 Q514.865 1405.52 514.865 1421.92 Q514.865 1438.29 509.092 1446.92 Q503.363 1455.52 492.469 1455.52 Q481.575 1455.52 475.802 1446.92 Q470.073 1438.29 470.073 1421.92 Q470.073 1405.52 475.802 1396.93 Q481.575 1388.29 492.469 1388.29 Z" fill="#000000" fill-rule="evenodd" fill-opacity="1" /><path clip-path="url(#clip600)" d="M812.783 1395.23 Q806.012 1395.23 802.583 1401.92 Q799.198 1408.56 799.198 1421.92 Q799.198 1435.25 802.583 1441.93 Q806.012 1448.57 812.783 1448.57 Q819.597 1448.57 822.982 1441.93 Q826.411 1435.25 826.411 1421.92 Q826.411 1408.56 822.982 1401.92 Q819.597 1395.23 812.783 1395.23 M812.783 1388.29 Q823.677 1388.29 829.406 1396.93 Q835.179 1405.52 835.179 1421.92 Q835.179 1438.29 829.406 1446.92 Q823.677 1455.52 812.783 1455.52 Q801.889 1455.52 796.116 1446.92 Q790.387 1438.29 790.387 1421.92 Q790.387 1405.52 796.116 1396.93 Q801.889 1388.29 812.783 1388.29 Z" fill="#000000" fill-rule="evenodd" fill-opacity="1" /><path clip-path="url(#clip600)" d="M850.586 1443.24 L859.744 1443.24 L859.744 1454.26 L850.586 1454.26 L850.586 1443.24 Z" fill="#000000" fill-rule="evenodd" fill-opacity="1" /><path clip-path="url(#clip600)" d="M886.394 1446.88 L916.992 1446.88 L916.992 1454.26 L875.847 1454.26 L875.847 1446.88 Q880.838 1441.72 889.432 1433.04 Q898.069 1424.31 900.282 1421.79 Q904.492 1417.06 906.142 1413.81 Q907.834 1410.51 907.834 1407.34 Q907.834 1402.18 904.189 1398.92 Q900.586 1395.67 894.77 1395.67 Q890.647 1395.67 886.046 1397.1 Q881.489 1398.53 876.281 1401.44 L876.281 1392.58 Q881.576 1390.46 886.176 1389.37 Q890.777 1388.29 894.597 1388.29 Q904.666 1388.29 910.656 1393.32 Q916.645 1398.36 916.645 1406.78 Q916.645 1410.77 915.126 1414.37 Q913.65 1417.93 909.701 1422.79 Q908.616 1424.05 902.8 1430.08 Q896.984 1436.07 886.394 1446.88 Z" fill="#000000" fill-rule="evenodd" fill-opacity="1" /><path clip-path="url(#clip600)" d="M1172.05 1395.23 Q1165.28 1395.23 1161.85 1401.92 Q1158.47 1408.56 1158.47 1421.92 Q1158.47 1435.25 1161.85 1441.93 Q1165.28 1448.57 1172.05 1448.57 Q1178.86 1448.57 1182.25 1441.93 Q1185.68 1435.25 1185.68 1421.92 Q1185.68 1408.56 1182.25 1401.92 Q1178.86 1395.23 1172.05 1395.23 M1172.05 1388.29 Q1182.94 1388.29 1188.67 1396.93 Q1194.45 1405.52 1194.45 1421.92 Q1194.45 1438.29 1188.67 1446.92 Q1182.94 1455.52 1172.05 1455.52 Q1161.16 1455.52 1155.38 1446.92 Q1149.65 1438.29 1149.65 1421.92 Q1149.65 1405.52 1155.38 1396.93 Q1161.16 1388.29 1172.05 1388.29 Z" fill="#000000" fill-rule="evenodd" fill-opacity="1" /><path clip-path="url(#clip600)" d="M1209.85 1443.24 L1219.01 1443.24 L1219.01 1454.26 L1209.85 1454.26 L1209.85 1443.24 Z" fill="#000000" fill-rule="evenodd" fill-opacity="1" /><path clip-path="url(#clip600)" d="M1262.2 1397.1 L1240.06 1431.69 L1262.2 1431.69 L1262.2 1397.1 M1259.9 1389.46 L1270.92 1389.46 L1270.92 1431.69 L1280.17 1431.69 L1280.17 1438.98 L1270.92 1438.98 L1270.92 1454.26 L1262.2 1454.26 L1262.2 1438.98 L1232.94 1438.98 L1232.94 1430.52 L1259.9 1389.46 Z" fill="#000000" fill-rule="evenodd" fill-opacity="1" /><path clip-path="url(#clip600)" d="M1533.58 1395.23 Q1526.8 1395.23 1523.38 1401.92 Q1519.99 1408.56 1519.99 1421.92 Q1519.99 1435.25 1523.38 1441.93 Q1526.8 1448.57 1533.58 1448.57 Q1540.39 1448.57 1543.77 1441.93 Q1547.2 1435.25 1547.2 1421.92 Q1547.2 1408.56 1543.77 1401.92 Q1540.39 1395.23 1533.58 1395.23 M1533.58 1388.29 Q1544.47 1388.29 1550.2 1396.93 Q1555.97 1405.52 1555.97 1421.92 Q1555.97 1438.29 1550.2 1446.92 Q1544.47 1455.52 1533.58 1455.52 Q1522.68 1455.52 1516.91 1446.92 Q1511.18 1438.29 1511.18 1421.92 Q1511.18 1405.52 1516.91 1396.93 Q1522.68 1388.29 1533.58 1388.29 Z" fill="#000000" fill-rule="evenodd" fill-opacity="1" /><path clip-path="url(#clip600)" d="M1571.38 1443.24 L1580.54 1443.24 L1580.54 1454.26 L1571.38 1454.26 L1571.38 1443.24 Z" fill="#000000" fill-rule="evenodd" fill-opacity="1" /><path clip-path="url(#clip600)" d="M1619.47 1418.37 Q1613.57 1418.37 1610.09 1422.4 Q1606.66 1426.44 1606.66 1433.47 Q1606.66 1440.46 1610.09 1444.54 Q1613.57 1448.57 1619.47 1448.57 Q1625.37 1448.57 1628.8 1444.54 Q1632.27 1440.46 1632.27 1433.47 Q1632.27 1426.44 1628.8 1422.4 Q1625.37 1418.37 1619.47 1418.37 M1636.87 1390.89 L1636.87 1398.88 Q1633.57 1397.32 1630.19 1396.49 Q1626.85 1395.67 1623.55 1395.67 Q1614.87 1395.67 1610.27 1401.53 Q1605.71 1407.39 1605.06 1419.23 Q1607.62 1415.46 1611.48 1413.46 Q1615.35 1411.42 1619.99 1411.42 Q1629.76 1411.42 1635.4 1417.37 Q1641.08 1423.27 1641.08 1433.47 Q1641.08 1443.45 1635.18 1449.49 Q1629.28 1455.52 1619.47 1455.52 Q1608.23 1455.52 1602.28 1446.92 Q1596.34 1438.29 1596.34 1421.92 Q1596.34 1406.56 1603.63 1397.45 Q1610.92 1388.29 1623.2 1388.29 Q1626.5 1388.29 1629.84 1388.94 Q1633.23 1389.59 1636.87 1390.89 Z" fill="#000000" fill-rule="evenodd" fill-opacity="1" /><path clip-path="url(#clip600)" d="M1895.03 1395.23 Q1888.26 1395.23 1884.83 1401.92 Q1881.45 1408.56 1881.45 1421.92 Q1881.45 1435.25 1884.83 1441.93 Q1888.26 1448.57 1895.03 1448.57 Q1901.85 1448.57 1905.23 1441.93 Q1908.66 1435.25 1908.66 1421.92 Q1908.66 1408.56 1905.23 1401.92 Q1901.85 1395.23 1895.03 1395.23 M1895.03 1388.29 Q1905.93 1388.29 1911.66 1396.93 Q1917.43 1405.52 1917.43 1421.92 Q1917.43 1438.29 1911.66 1446.92 Q1905.93 1455.52 1895.03 1455.52 Q1884.14 1455.52 1878.37 1446.92 Q1872.64 1438.29 1872.64 1421.92 Q1872.64 1405.52 1878.37 1396.93 Q1884.14 1388.29 1895.03 1388.29 Z" fill="#000000" fill-rule="evenodd" fill-opacity="1" /><path clip-path="url(#clip600)" d="M1932.84 1443.24 L1942 1443.24 L1942 1454.26 L1932.84 1454.26 L1932.84 1443.24 Z" fill="#000000" fill-rule="evenodd" fill-opacity="1" /><path clip-path="url(#clip600)" d="M1979.84 1423.49 Q1973.59 1423.49 1969.99 1426.83 Q1966.43 1430.17 1966.43 1436.03 Q1966.43 1441.89 1969.99 1445.23 Q1973.59 1448.57 1979.84 1448.57 Q1986.09 1448.57 1989.7 1445.23 Q1993.3 1441.85 1993.3 1436.03 Q1993.3 1430.17 1989.7 1426.83 Q1986.14 1423.49 1979.84 1423.49 M1971.08 1419.75 Q1965.43 1418.37 1962.27 1414.5 Q1959.14 1410.64 1959.14 1405.08 Q1959.14 1397.32 1964.65 1392.8 Q1970.21 1388.29 1979.84 1388.29 Q1989.52 1388.29 1995.03 1392.8 Q2000.55 1397.32 2000.55 1405.08 Q2000.55 1410.64 1997.38 1414.5 Q1994.25 1418.37 1988.65 1419.75 Q1994.99 1421.23 1998.51 1425.53 Q2002.07 1429.82 2002.07 1436.03 Q2002.07 1445.45 1996.29 1450.48 Q1990.56 1455.52 1979.84 1455.52 Q1969.12 1455.52 1963.35 1450.48 Q1957.62 1445.45 1957.62 1436.03 Q1957.62 1429.82 1961.18 1425.53 Q1964.74 1421.23 1971.08 1419.75 M1967.86 1405.91 Q1967.86 1410.94 1970.99 1413.77 Q1974.16 1416.59 1979.84 1416.59 Q1985.49 1416.59 1988.65 1413.77 Q1991.87 1410.94 1991.87 1405.91 Q1991.87 1400.87 1988.65 1398.05 Q1985.49 1395.23 1979.84 1395.23 Q1974.16 1395.23 1970.99 1398.05 Q1967.86 1400.87 1967.86 1405.91 Z" fill="#000000" fill-rule="evenodd" fill-opacity="1" /><path clip-path="url(#clip600)" d="M2280.54 1446.88 L2294.86 1446.88 L2294.86 1397.45 L2279.28 1400.57 L2279.28 1392.58 L2294.78 1389.46 L2303.54 1389.46 L2303.54 1446.88 L2317.87 1446.88 L2317.87 1454.26 L2280.54 1454.26 L2280.54 1446.88 Z" fill="#000000" fill-rule="evenodd" fill-opacity="1" /><path clip-path="url(#clip600)" d="M1421.29 1519.59 Q1421.29 1522.87 1419.24 1524.74 Q1417.19 1526.56 1414.85 1526.56 Q1412.62 1526.56 1411.45 1525.27 Q1410.28 1523.98 1410.28 1522.34 Q1410.28 1520.12 1411.92 1518.18 Q1413.56 1516.25 1416.02 1515.84 Q1413.62 1514.32 1410.05 1514.32 Q1407.7 1514.32 1405.66 1515.55 Q1403.66 1516.78 1402.43 1518.36 Q1401.26 1519.94 1400.21 1522.22 Q1399.21 1524.45 1398.8 1525.8 Q1398.45 1527.08 1398.16 1528.49 L1394.06 1544.89 Q1392.07 1552.67 1392.07 1555.43 Q1392.07 1558.82 1393.71 1561.11 Q1395.35 1563.33 1398.63 1563.33 Q1399.92 1563.33 1401.38 1562.98 Q1402.84 1562.57 1404.72 1561.52 Q1406.65 1560.4 1408.35 1558.76 Q1410.11 1557.07 1411.8 1554.2 Q1413.5 1551.33 1414.61 1547.64 Q1414.97 1546.35 1416.14 1546.35 Q1417.6 1546.35 1417.6 1547.52 Q1417.6 1548.52 1416.78 1550.62 Q1416.02 1552.67 1414.32 1555.37 Q1412.68 1558 1410.52 1560.4 Q1408.35 1562.75 1405.13 1564.39 Q1401.91 1566.02 1398.39 1566.02 Q1393.36 1566.02 1390.02 1563.33 Q1386.68 1560.64 1385.45 1556.89 Q1385.16 1557.42 1384.75 1558.12 Q1384.34 1558.82 1383.11 1560.4 Q1381.94 1561.93 1380.59 1563.1 Q1379.25 1564.21 1377.14 1565.09 Q1375.09 1566.02 1372.86 1566.02 Q1370.05 1566.02 1367.54 1565.2 Q1365.08 1564.39 1363.32 1562.51 Q1361.56 1560.64 1361.56 1558.06 Q1361.56 1555.19 1363.49 1553.2 Q1365.49 1551.15 1368.18 1551.15 Q1369.88 1551.15 1371.22 1552.15 Q1372.63 1553.14 1372.63 1555.31 Q1372.63 1557.71 1370.99 1559.53 Q1369.35 1561.34 1367.01 1561.81 Q1369.41 1563.33 1372.98 1563.33 Q1376.85 1563.33 1379.89 1559.93 Q1382.94 1556.54 1384.4 1550.86 Q1388.03 1537.22 1389.44 1531.13 Q1390.84 1524.98 1390.84 1522.34 Q1390.84 1519.88 1390.2 1518.18 Q1389.55 1516.49 1388.44 1515.73 Q1387.39 1514.91 1386.39 1514.61 Q1385.45 1514.32 1384.4 1514.32 Q1382.64 1514.32 1380.65 1515.02 Q1378.72 1515.73 1376.38 1517.36 Q1374.09 1518.95 1371.93 1522.22 Q1369.76 1525.5 1368.3 1530.01 Q1368 1531.36 1366.72 1531.36 Q1365.31 1531.3 1365.31 1530.13 Q1365.31 1529.13 1366.07 1527.08 Q1366.89 1524.98 1368.53 1522.34 Q1370.23 1519.71 1372.4 1517.36 Q1374.62 1514.96 1377.84 1513.32 Q1381.12 1511.68 1384.63 1511.68 Q1386.21 1511.68 1387.74 1512.04 Q1389.32 1512.33 1391.19 1513.21 Q1393.12 1514.09 1394.82 1516.02 Q1396.52 1517.95 1397.57 1520.76 Q1398.28 1519.41 1399.21 1518.13 Q1400.21 1516.84 1401.73 1515.26 Q1403.31 1513.62 1405.48 1512.68 Q1407.7 1511.68 1410.16 1511.68 Q1412.57 1511.68 1414.91 1512.33 Q1417.25 1512.91 1419.24 1514.85 Q1421.29 1516.72 1421.29 1519.59 Z" fill="#000000" fill-rule="evenodd" fill-opacity="1" /><polyline clip-path="url(#clip602)" style="stroke:#000000; stroke-linecap:round; stroke-linejoin:round; stroke-width:2; stroke-opacity:0.1; fill:none" points="
  438.286,1300.29 2352.76,1300.29 
  "/>
<polyline clip-path="url(#clip602)" style="stroke:#000000; stroke-linecap:round; stroke-linejoin:round; stroke-width:2; stroke-opacity:0.1; fill:none" points="
  438.286,996.277 2352.76,996.277 
  "/>
<polyline clip-path="url(#clip602)" style="stroke:#000000; stroke-linecap:round; stroke-linejoin:round; stroke-width:2; stroke-opacity:0.1; fill:none" points="
  438.286,692.261 2352.76,692.261 
  "/>
<polyline clip-path="url(#clip602)" style="stroke:#000000; stroke-linecap:round; stroke-linejoin:round; stroke-width:2; stroke-opacity:0.1; fill:none" points="
  438.286,388.245 2352.76,388.245 
  "/>
<polyline clip-path="url(#clip602)" style="stroke:#000000; stroke-linecap:round; stroke-linejoin:round; stroke-width:2; stroke-opacity:0.1; fill:none" points="
  438.286,84.2294 2352.76,84.2294 
  "/>
<polyline clip-path="url(#clip600)" style="stroke:#000000; stroke-linecap:round; stroke-linejoin:round; stroke-width:4; stroke-opacity:1; fill:none" points="
  438.286,1354.06 438.286,47.2441 
  "/>
<polyline clip-path="url(#clip600)" style="stroke:#000000; stroke-linecap:round; stroke-linejoin:round; stroke-width:4; stroke-opacity:1; fill:none" points="
  438.286,1300.29 457.183,1300.29 
  "/>
<polyline clip-path="url(#clip600)" style="stroke:#000000; stroke-linecap:round; stroke-linejoin:round; stroke-width:4; stroke-opacity:1; fill:none" points="
  438.286,996.277 457.183,996.277 
  "/>
<polyline clip-path="url(#clip600)" style="stroke:#000000; stroke-linecap:round; stroke-linejoin:round; stroke-width:4; stroke-opacity:1; fill:none" points="
  438.286,692.261 457.183,692.261 
  "/>
<polyline clip-path="url(#clip600)" style="stroke:#000000; stroke-linecap:round; stroke-linejoin:round; stroke-width:4; stroke-opacity:1; fill:none" points="
  438.286,388.245 457.183,388.245 
  "/>
<polyline clip-path="url(#clip600)" style="stroke:#000000; stroke-linecap:round; stroke-linejoin:round; stroke-width:4; stroke-opacity:1; fill:none" points="
  438.286,84.2294 457.183,84.2294 
  "/>
<path clip-path="url(#clip600)" d="M238.528 1273.67 Q231.757 1273.67 228.328 1280.35 Q224.943 1286.99 224.943 1300.36 Q224.943 1313.68 228.328 1320.37 Q231.757 1327.01 238.528 1327.01 Q245.342 1327.01 248.728 1320.37 Q252.156 1313.68 252.156 1300.36 Q252.156 1286.99 248.728 1280.35 Q245.342 1273.67 238.528 1273.67 M238.528 1266.72 Q249.422 1266.72 255.151 1275.36 Q260.924 1283.95 260.924 1300.36 Q260.924 1316.72 255.151 1325.36 Q249.422 1333.95 238.528 1333.95 Q227.634 1333.95 221.861 1325.36 Q216.132 1316.72 216.132 1300.36 Q216.132 1283.95 221.861 1275.36 Q227.634 1266.72 238.528 1266.72 Z" fill="#000000" fill-rule="evenodd" fill-opacity="1" /><path clip-path="url(#clip600)" d="M276.332 1321.67 L285.49 1321.67 L285.49 1332.69 L276.332 1332.69 L276.332 1321.67 Z" fill="#000000" fill-rule="evenodd" fill-opacity="1" /><path clip-path="url(#clip600)" d="M323.337 1273.67 Q316.566 1273.67 313.137 1280.35 Q309.752 1286.99 309.752 1300.36 Q309.752 1313.68 313.137 1320.37 Q316.566 1327.01 323.337 1327.01 Q330.151 1327.01 333.536 1320.37 Q336.965 1313.68 336.965 1300.36 Q336.965 1286.99 333.536 1280.35 Q330.151 1273.67 323.337 1273.67 M323.337 1266.72 Q334.231 1266.72 339.96 1275.36 Q345.732 1283.95 345.732 1300.36 Q345.732 1316.72 339.96 1325.36 Q334.231 1333.95 323.337 1333.95 Q312.443 1333.95 306.67 1325.36 Q300.941 1316.72 300.941 1300.36 Q300.941 1283.95 306.67 1275.36 Q312.443 1266.72 323.337 1266.72 Z" fill="#000000" fill-rule="evenodd" fill-opacity="1" /><path clip-path="url(#clip600)" d="M379.89 1273.67 Q373.119 1273.67 369.69 1280.35 Q366.305 1286.99 366.305 1300.36 Q366.305 1313.68 369.69 1320.37 Q373.119 1327.01 379.89 1327.01 Q386.704 1327.01 390.09 1320.37 Q393.518 1313.68 393.518 1300.36 Q393.518 1286.99 390.09 1280.35 Q386.704 1273.67 379.89 1273.67 M379.89 1266.72 Q390.784 1266.72 396.513 1275.36 Q402.286 1283.95 402.286 1300.36 Q402.286 1316.72 396.513 1325.36 Q390.784 1333.95 379.89 1333.95 Q368.996 1333.95 363.224 1325.36 Q357.494 1316.72 357.494 1300.36 Q357.494 1283.95 363.224 1275.36 Q368.996 1266.72 379.89 1266.72 Z" fill="#000000" fill-rule="evenodd" fill-opacity="1" /><path clip-path="url(#clip600)" d="M240.394 969.65 Q233.624 969.65 230.195 976.334 Q226.809 982.974 226.809 996.342 Q226.809 1009.67 230.195 1016.35 Q233.624 1022.99 240.394 1022.99 Q247.209 1022.99 250.594 1016.35 Q254.023 1009.67 254.023 996.342 Q254.023 982.974 250.594 976.334 Q247.209 969.65 240.394 969.65 M240.394 962.705 Q251.288 962.705 257.017 971.342 Q262.79 979.936 262.79 996.342 Q262.79 1012.7 257.017 1021.34 Q251.288 1029.94 240.394 1029.94 Q229.5 1029.94 223.728 1021.34 Q217.999 1012.7 217.999 996.342 Q217.999 979.936 223.728 971.342 Q229.5 962.705 240.394 962.705 Z" fill="#000000" fill-rule="evenodd" fill-opacity="1" /><path clip-path="url(#clip600)" d="M278.198 1017.65 L287.356 1017.65 L287.356 1028.68 L278.198 1028.68 L278.198 1017.65 Z" fill="#000000" fill-rule="evenodd" fill-opacity="1" /><path clip-path="url(#clip600)" d="M314.005 1021.3 L344.604 1021.3 L344.604 1028.68 L303.458 1028.68 L303.458 1021.3 Q308.449 1016.13 317.043 1007.45 Q325.68 998.729 327.894 996.212 Q332.104 991.481 333.753 988.226 Q335.446 984.927 335.446 981.759 Q335.446 976.594 331.8 973.339 Q328.198 970.084 322.382 970.084 Q318.258 970.084 313.658 971.516 Q309.101 972.948 303.892 975.856 L303.892 967.002 Q309.187 964.875 313.788 963.79 Q318.389 962.705 322.208 962.705 Q332.277 962.705 338.267 967.74 Q344.257 972.774 344.257 981.195 Q344.257 985.188 342.738 988.79 Q341.262 992.349 337.312 997.21 Q336.227 998.469 330.411 1004.5 Q324.595 1010.49 314.005 1021.3 Z" fill="#000000" fill-rule="evenodd" fill-opacity="1" /><path clip-path="url(#clip600)" d="M363.093 963.877 L397.512 963.877 L397.512 971.255 L371.123 971.255 L371.123 987.141 Q373.032 986.49 374.942 986.186 Q376.852 985.839 378.762 985.839 Q389.612 985.839 395.949 991.785 Q402.286 997.731 402.286 1007.89 Q402.286 1018.35 395.775 1024.16 Q389.265 1029.94 377.416 1029.94 Q373.336 1029.94 369.083 1029.24 Q364.873 1028.55 360.359 1027.16 L360.359 1018.35 Q364.265 1020.47 368.432 1021.52 Q372.598 1022.56 377.243 1022.56 Q384.751 1022.56 389.135 1018.61 Q393.518 1014.66 393.518 1007.89 Q393.518 1001.12 389.135 997.167 Q384.751 993.217 377.243 993.217 Q373.727 993.217 370.211 993.998 Q366.739 994.78 363.093 996.429 L363.093 963.877 Z" fill="#000000" fill-rule="evenodd" fill-opacity="1" /><path clip-path="url(#clip600)" d="M238.528 665.634 Q231.757 665.634 228.328 672.318 Q224.943 678.958 224.943 692.326 Q224.943 705.651 228.328 712.335 Q231.757 718.975 238.528 718.975 Q245.342 718.975 248.728 712.335 Q252.156 705.651 252.156 692.326 Q252.156 678.958 248.728 672.318 Q245.342 665.634 238.528 665.634 M238.528 658.689 Q249.422 658.689 255.151 667.326 Q260.924 675.92 260.924 692.326 Q260.924 708.689 255.151 717.326 Q249.422 725.92 238.528 725.92 Q227.634 725.92 221.861 717.326 Q216.132 708.689 216.132 692.326 Q216.132 675.92 221.861 667.326 Q227.634 658.689 238.528 658.689 Z" fill="#000000" fill-rule="evenodd" fill-opacity="1" /><path clip-path="url(#clip600)" d="M276.332 713.637 L285.49 713.637 L285.49 724.661 L276.332 724.661 L276.332 713.637 Z" fill="#000000" fill-rule="evenodd" fill-opacity="1" /><path clip-path="url(#clip600)" d="M304.673 659.861 L339.092 659.861 L339.092 667.24 L312.703 667.24 L312.703 683.125 Q314.613 682.474 316.522 682.17 Q318.432 681.823 320.342 681.823 Q331.192 681.823 337.529 687.769 Q343.866 693.715 343.866 703.871 Q343.866 714.331 337.356 720.147 Q330.845 725.92 318.996 725.92 Q314.916 725.92 310.663 725.225 Q306.453 724.531 301.939 723.142 L301.939 714.331 Q305.845 716.458 310.012 717.5 Q314.179 718.541 318.823 718.541 Q326.331 718.541 330.715 714.592 Q335.099 710.642 335.099 703.871 Q335.099 697.101 330.715 693.151 Q326.331 689.201 318.823 689.201 Q315.307 689.201 311.791 689.982 Q308.319 690.764 304.673 692.413 L304.673 659.861 Z" fill="#000000" fill-rule="evenodd" fill-opacity="1" /><path clip-path="url(#clip600)" d="M379.89 665.634 Q373.119 665.634 369.69 672.318 Q366.305 678.958 366.305 692.326 Q366.305 705.651 369.69 712.335 Q373.119 718.975 379.89 718.975 Q386.704 718.975 390.09 712.335 Q393.518 705.651 393.518 692.326 Q393.518 678.958 390.09 672.318 Q386.704 665.634 379.89 665.634 M379.89 658.689 Q390.784 658.689 396.513 667.326 Q402.286 675.92 402.286 692.326 Q402.286 708.689 396.513 717.326 Q390.784 725.92 379.89 725.92 Q368.996 725.92 363.224 717.326 Q357.494 708.689 357.494 692.326 Q357.494 675.92 363.224 667.326 Q368.996 658.689 379.89 658.689 Z" fill="#000000" fill-rule="evenodd" fill-opacity="1" /><path clip-path="url(#clip600)" d="M240.394 361.618 Q233.624 361.618 230.195 368.302 Q226.809 374.942 226.809 388.31 Q226.809 401.635 230.195 408.319 Q233.624 414.96 240.394 414.96 Q247.209 414.96 250.594 408.319 Q254.023 401.635 254.023 388.31 Q254.023 374.942 250.594 368.302 Q247.209 361.618 240.394 361.618 M240.394 354.673 Q251.288 354.673 257.017 363.311 Q262.79 371.904 262.79 388.31 Q262.79 404.673 257.017 413.31 Q251.288 421.904 240.394 421.904 Q229.5 421.904 223.728 413.31 Q217.999 404.673 217.999 388.31 Q217.999 371.904 223.728 363.311 Q229.5 354.673 240.394 354.673 Z" fill="#000000" fill-rule="evenodd" fill-opacity="1" /><path clip-path="url(#clip600)" d="M278.198 409.621 L287.356 409.621 L287.356 420.645 L278.198 420.645 L278.198 409.621 Z" fill="#000000" fill-rule="evenodd" fill-opacity="1" /><path clip-path="url(#clip600)" d="M304.239 355.845 L345.906 355.845 L345.906 359.578 L322.382 420.645 L313.224 420.645 L335.359 363.224 L304.239 363.224 L304.239 355.845 Z" fill="#000000" fill-rule="evenodd" fill-opacity="1" /><path clip-path="url(#clip600)" d="M363.093 355.845 L397.512 355.845 L397.512 363.224 L371.123 363.224 L371.123 379.109 Q373.032 378.458 374.942 378.154 Q376.852 377.807 378.762 377.807 Q389.612 377.807 395.949 383.753 Q402.286 389.699 402.286 399.855 Q402.286 410.315 395.775 416.131 Q389.265 421.904 377.416 421.904 Q373.336 421.904 369.083 421.21 Q364.873 420.515 360.359 419.126 L360.359 410.315 Q364.265 412.442 368.432 413.484 Q372.598 414.526 377.243 414.526 Q384.751 414.526 389.135 410.576 Q393.518 406.626 393.518 399.855 Q393.518 393.085 389.135 389.135 Q384.751 385.185 377.243 385.185 Q373.727 385.185 370.211 385.967 Q366.739 386.748 363.093 388.397 L363.093 355.845 Z" fill="#000000" fill-rule="evenodd" fill-opacity="1" /><path clip-path="url(#clip600)" d="M221.297 109.251 L235.62 109.251 L235.62 59.8155 L220.039 62.9405 L220.039 54.9544 L235.533 51.8294 L244.301 51.8294 L244.301 109.251 L258.623 109.251 L258.623 116.629 L221.297 116.629 L221.297 109.251 Z" fill="#000000" fill-rule="evenodd" fill-opacity="1" /><path clip-path="url(#clip600)" d="M276.332 105.605 L285.49 105.605 L285.49 116.629 L276.332 116.629 L276.332 105.605 Z" fill="#000000" fill-rule="evenodd" fill-opacity="1" /><path clip-path="url(#clip600)" d="M323.337 57.602 Q316.566 57.602 313.137 64.286 Q309.752 70.9266 309.752 84.2945 Q309.752 97.6191 313.137 104.303 Q316.566 110.944 323.337 110.944 Q330.151 110.944 333.536 104.303 Q336.965 97.6191 336.965 84.2945 Q336.965 70.9266 333.536 64.286 Q330.151 57.602 323.337 57.602 M323.337 50.6576 Q334.231 50.6576 339.96 59.2947 Q345.732 67.8884 345.732 84.2945 Q345.732 100.657 339.96 109.294 Q334.231 117.888 323.337 117.888 Q312.443 117.888 306.67 109.294 Q300.941 100.657 300.941 84.2945 Q300.941 67.8884 306.67 59.2947 Q312.443 50.6576 323.337 50.6576 Z" fill="#000000" fill-rule="evenodd" fill-opacity="1" /><path clip-path="url(#clip600)" d="M379.89 57.602 Q373.119 57.602 369.69 64.286 Q366.305 70.9266 366.305 84.2945 Q366.305 97.6191 369.69 104.303 Q373.119 110.944 379.89 110.944 Q386.704 110.944 390.09 104.303 Q393.518 97.6191 393.518 84.2945 Q393.518 70.9266 390.09 64.286 Q386.704 57.602 379.89 57.602 M379.89 50.6576 Q390.784 50.6576 396.513 59.2947 Q402.286 67.8884 402.286 84.2945 Q402.286 100.657 396.513 109.294 Q390.784 117.888 379.89 117.888 Q368.996 117.888 363.224 109.294 Q357.494 100.657 357.494 84.2945 Q357.494 67.8884 363.224 59.2947 Q368.996 50.6576 379.89 50.6576 Z" fill="#000000" fill-rule="evenodd" fill-opacity="1" /><path clip-path="url(#clip600)" d="M185.568 1001.95 Q186.563 1001.95 187.266 1002.65 Q187.968 1003.35 187.968 1004.35 Q187.968 1006.05 186.387 1006.63 L128.827 1028.94 Q128.592 1029.06 128.007 1029.06 Q127.421 1029.06 127.187 1028.94 L69.6264 1006.63 Q68.0454 1006.05 68.0454 1004.35 Q68.0454 1003.35 68.7481 1002.65 Q69.4508 1001.95 70.4462 1001.95 Q71.0318 1001.95 71.266 1002.07 L128.007 1024.14 L184.748 1002.07 Q184.982 1001.95 185.568 1001.95 Z" fill="#000000" fill-rule="evenodd" fill-opacity="1" /><path clip-path="url(#clip600)" d="M121.507 914.616 Q128.475 914.616 135.385 917.837 Q142.295 921.057 147.565 926.327 Q152.776 931.539 156.055 938.683 Q159.334 945.768 159.334 953.029 Q159.334 954.317 159.042 956.952 Q180.649 961.051 181 961.168 Q182.23 961.695 182.991 962.749 Q183.752 963.745 183.928 964.447 Q184.104 965.15 184.104 965.619 Q184.104 966.79 183.284 967.961 Q182.523 969.073 180.766 969.073 Q180.356 969.073 178.365 968.488 L158.222 962.105 Q155.997 971.767 149.848 977.33 Q143.641 982.893 135.209 982.893 Q129.822 982.893 122.795 980.433 Q115.769 977.974 111.026 974.988 Q106.283 972.001 106.283 970.303 Q106.283 968.839 107.512 968.839 Q107.981 968.839 109.035 969.776 Q114.48 974.519 122.327 977.154 Q130.115 979.731 133.862 979.731 Q140.421 979.731 145.164 974.695 Q149.848 969.6 151.605 960.056 Q133.218 954.376 125.489 950.98 Q110.147 944.128 106.4 935.228 Q104.994 931.949 104.994 928.318 Q104.994 921.76 109.62 918.188 Q114.188 914.616 121.507 914.616 M124.142 918.012 Q121.039 918.012 118.404 919.125 Q115.769 920.179 113.895 922.873 Q111.962 925.566 111.962 929.489 Q111.962 937.336 119.516 943.894 Q127.07 950.453 138.781 953.263 L151.781 955.664 Q152.249 955.664 152.249 954.083 Q152.366 953.146 152.366 951.916 Q152.366 945.241 149.848 938.917 Q147.33 932.534 143.349 928.026 Q139.367 923.517 134.272 920.765 Q129.178 918.012 124.142 918.012 Z" fill="#000000" fill-rule="evenodd" fill-opacity="1" /><path clip-path="url(#clip600)" d="M128.007 900.432 Q107.746 900.432 91.4093 892.879 Q84.5582 889.658 78.8197 885.149 Q73.0812 880.64 70.5633 877.654 Q68.0454 874.668 68.0454 873.848 Q68.0454 872.677 69.2165 872.618 Q69.8021 872.618 71.266 874.199 Q90.9408 893.523 128.007 893.464 Q165.19 893.464 184.104 874.668 Q186.153 872.618 186.797 872.618 Q187.968 872.618 187.968 873.848 Q187.968 874.668 185.568 877.537 Q183.167 880.406 177.662 884.857 Q172.158 889.307 165.424 892.527 Q149.087 900.432 128.007 900.432 Z" fill="#000000" fill-rule="evenodd" fill-opacity="1" /><path clip-path="url(#clip600)" d="M112.899 803.774 Q116.179 803.774 118.052 805.824 Q119.868 807.873 119.868 810.215 Q119.868 812.441 118.579 813.612 Q117.291 814.783 115.652 814.783 Q113.426 814.783 111.494 813.143 Q109.562 811.504 109.152 809.044 Q107.629 811.445 107.629 815.017 Q107.629 817.359 108.859 819.409 Q110.089 821.4 111.67 822.629 Q113.251 823.8 115.534 824.854 Q117.76 825.85 119.106 826.26 Q120.395 826.611 121.8 826.904 L138.196 831.003 Q145.984 832.994 148.736 832.994 Q152.132 832.994 154.416 831.354 Q156.641 829.715 156.641 826.435 Q156.641 825.147 156.289 823.683 Q155.88 822.219 154.826 820.346 Q153.713 818.413 152.073 816.715 Q150.375 814.958 147.506 813.26 Q144.637 811.562 140.948 810.45 Q139.66 810.098 139.66 808.927 Q139.66 807.463 140.831 807.463 Q141.826 807.463 143.934 808.283 Q145.984 809.044 148.677 810.742 Q151.312 812.382 153.713 814.549 Q156.055 816.715 157.695 819.936 Q159.334 823.156 159.334 826.67 Q159.334 831.706 156.641 835.043 Q153.947 838.381 150.2 839.611 Q150.727 839.903 151.429 840.313 Q152.132 840.723 153.713 841.953 Q155.235 843.124 156.407 844.471 Q157.519 845.818 158.397 847.926 Q159.334 849.975 159.334 852.2 Q159.334 855.011 158.515 857.529 Q157.695 859.988 155.821 861.745 Q153.947 863.502 151.371 863.502 Q148.502 863.502 146.511 861.569 Q144.461 859.578 144.461 856.885 Q144.461 855.187 145.457 853.84 Q146.452 852.434 148.619 852.434 Q151.019 852.434 152.835 854.074 Q154.65 855.714 155.118 858.056 Q156.641 855.655 156.641 852.083 Q156.641 848.218 153.245 845.173 Q149.848 842.129 144.168 840.665 Q130.525 837.034 124.435 835.629 Q118.287 834.223 115.652 834.223 Q113.192 834.223 111.494 834.868 Q109.796 835.512 109.035 836.624 Q108.215 837.678 107.922 838.674 Q107.629 839.611 107.629 840.665 Q107.629 842.421 108.332 844.412 Q109.035 846.345 110.674 848.687 Q112.255 850.97 115.534 853.137 Q118.814 855.304 123.322 856.768 Q124.669 857.06 124.669 858.349 Q124.611 859.754 123.439 859.754 Q122.444 859.754 120.395 858.993 Q118.287 858.173 115.652 856.533 Q113.017 854.835 110.674 852.669 Q108.273 850.443 106.634 847.223 Q104.994 843.944 104.994 840.43 Q104.994 838.849 105.346 837.327 Q105.638 835.746 106.517 833.872 Q107.395 831.94 109.327 830.242 Q111.26 828.544 114.071 827.489 Q112.724 826.787 111.435 825.85 Q110.147 824.854 108.566 823.332 Q106.927 821.751 105.99 819.584 Q104.994 817.359 104.994 814.9 Q104.994 812.499 105.638 810.157 Q106.224 807.815 108.156 805.824 Q110.03 803.774 112.899 803.774 Z" fill="#000000" fill-rule="evenodd" fill-opacity="1" /><path clip-path="url(#clip600)" d="M186.797 792.225 Q186.212 792.225 184.748 790.703 Q165.073 771.379 128.007 771.379 Q90.8237 771.379 72.0272 789.941 Q69.8606 792.225 69.2165 792.225 Q68.0454 792.225 68.0454 791.054 Q68.0454 790.234 70.4462 787.365 Q72.847 784.437 78.3513 780.045 Q83.8556 775.595 90.5895 772.316 Q106.927 764.411 128.007 764.411 Q148.267 764.411 164.604 771.965 Q171.456 775.185 177.194 779.694 Q182.932 784.203 185.45 787.189 Q187.968 790.176 187.968 791.054 Q187.968 792.225 186.797 792.225 Z" fill="#000000" fill-rule="evenodd" fill-opacity="1" /><path clip-path="url(#clip600)" d="M156.055 744.476 Q154.123 746.174 151.605 746.174 Q149.087 746.174 147.213 744.535 Q145.281 742.836 145.281 739.792 Q145.281 736.22 148.736 734.17 Q152.132 732.121 157.87 732.121 Q164.077 732.121 169.816 734.639 Q175.613 737.157 178.365 739.616 Q181.117 742.075 181.117 743.071 Q181.117 744.242 179.829 744.242 Q179.361 744.242 178.482 743.422 Q169.23 734.814 157.87 734.756 Q156.055 734.756 156.055 734.99 L156.289 735.283 Q157.988 737.332 157.988 739.792 Q157.988 742.778 156.055 744.476 Z" fill="#000000" fill-rule="evenodd" fill-opacity="1" /><path clip-path="url(#clip600)" d="M121.507 626.001 Q128.475 626.001 135.385 629.221 Q142.295 632.442 147.565 637.712 Q152.776 642.923 156.055 650.067 Q159.334 657.152 159.334 664.413 Q159.334 665.702 159.042 668.337 Q180.649 672.436 181 672.553 Q182.23 673.08 182.991 674.134 Q183.752 675.129 183.928 675.832 Q184.104 676.534 184.104 677.003 Q184.104 678.174 183.284 679.345 Q182.523 680.458 180.766 680.458 Q180.356 680.458 178.365 679.872 L158.222 673.49 Q155.997 683.151 149.848 688.714 Q143.641 694.277 135.209 694.277 Q129.822 694.277 122.795 691.818 Q115.769 689.358 111.026 686.372 Q106.283 683.386 106.283 681.687 Q106.283 680.224 107.512 680.224 Q107.981 680.224 109.035 681.16 Q114.48 685.903 122.327 688.538 Q130.115 691.115 133.862 691.115 Q140.421 691.115 145.164 686.079 Q149.848 680.985 151.605 671.44 Q133.218 665.76 125.489 662.364 Q110.147 655.513 106.4 646.612 Q104.994 643.333 104.994 639.703 Q104.994 633.144 109.62 629.572 Q114.188 626.001 121.507 626.001 M124.142 629.397 Q121.039 629.397 118.404 630.509 Q115.769 631.563 113.895 634.257 Q111.962 636.951 111.962 640.874 Q111.962 648.72 119.516 655.279 Q127.07 661.837 138.781 664.648 L151.781 667.048 Q152.249 667.048 152.249 665.467 Q152.366 664.53 152.366 663.301 Q152.366 656.625 149.848 650.301 Q147.33 643.919 143.349 639.41 Q139.367 634.901 134.272 632.149 Q129.178 629.397 124.142 629.397 Z" fill="#000000" fill-rule="evenodd" fill-opacity="1" /><path clip-path="url(#clip600)" d="M128.007 611.817 Q107.746 611.817 91.4093 604.263 Q84.5582 601.042 78.8197 596.534 Q73.0812 592.025 70.5633 589.038 Q68.0454 586.052 68.0454 585.232 Q68.0454 584.061 69.2165 584.003 Q69.8021 584.003 71.266 585.584 Q90.9408 604.907 128.007 604.849 Q165.19 604.849 184.104 586.052 Q186.153 584.003 186.797 584.003 Q187.968 584.003 187.968 585.232 Q187.968 586.052 185.568 588.921 Q183.167 591.791 177.662 596.241 Q172.158 600.691 165.424 603.912 Q149.087 611.817 128.007 611.817 Z" fill="#000000" fill-rule="evenodd" fill-opacity="1" /><path clip-path="url(#clip600)" d="M112.899 515.159 Q116.179 515.159 118.052 517.208 Q119.868 519.258 119.868 521.6 Q119.868 523.825 118.579 524.996 Q117.291 526.167 115.652 526.167 Q113.426 526.167 111.494 524.528 Q109.562 522.888 109.152 520.429 Q107.629 522.829 107.629 526.401 Q107.629 528.744 108.859 530.793 Q110.089 532.784 111.67 534.014 Q113.251 535.185 115.534 536.239 Q117.76 537.234 119.106 537.644 Q120.395 537.996 121.8 538.288 L138.196 542.387 Q145.984 544.378 148.736 544.378 Q152.132 544.378 154.416 542.739 Q156.641 541.099 156.641 537.82 Q156.641 536.532 156.289 535.068 Q155.88 533.604 154.826 531.73 Q153.713 529.798 152.073 528.1 Q150.375 526.343 147.506 524.645 Q144.637 522.947 140.948 521.834 Q139.66 521.483 139.66 520.312 Q139.66 518.848 140.831 518.848 Q141.826 518.848 143.934 519.667 Q145.984 520.429 148.677 522.127 Q151.312 523.766 153.713 525.933 Q156.055 528.1 157.695 531.32 Q159.334 534.541 159.334 538.054 Q159.334 543.09 156.641 546.428 Q153.947 549.765 150.2 550.995 Q150.727 551.288 151.429 551.698 Q152.132 552.108 153.713 553.337 Q155.235 554.508 156.407 555.855 Q157.519 557.202 158.397 559.31 Q159.334 561.359 159.334 563.585 Q159.334 566.395 158.515 568.913 Q157.695 571.372 155.821 573.129 Q153.947 574.886 151.371 574.886 Q148.502 574.886 146.511 572.954 Q144.461 570.963 144.461 568.269 Q144.461 566.571 145.457 565.224 Q146.452 563.819 148.619 563.819 Q151.019 563.819 152.835 565.458 Q154.65 567.098 155.118 569.44 Q156.641 567.039 156.641 563.467 Q156.641 559.603 153.245 556.558 Q149.848 553.513 144.168 552.049 Q130.525 548.418 124.435 547.013 Q118.287 545.608 115.652 545.608 Q113.192 545.608 111.494 546.252 Q109.796 546.896 109.035 548.009 Q108.215 549.063 107.922 550.058 Q107.629 550.995 107.629 552.049 Q107.629 553.806 108.332 555.797 Q109.035 557.729 110.674 560.071 Q112.255 562.355 115.534 564.521 Q118.814 566.688 123.322 568.152 Q124.669 568.445 124.669 569.733 Q124.611 571.138 123.439 571.138 Q122.444 571.138 120.395 570.377 Q118.287 569.557 115.652 567.918 Q113.017 566.22 110.674 564.053 Q108.273 561.828 106.634 558.607 Q104.994 555.328 104.994 551.815 Q104.994 550.234 105.346 548.711 Q105.638 547.13 106.517 545.256 Q107.395 543.324 109.327 541.626 Q111.26 539.928 114.071 538.874 Q112.724 538.171 111.435 537.234 Q110.147 536.239 108.566 534.716 Q106.927 533.135 105.99 530.969 Q104.994 528.744 104.994 526.284 Q104.994 523.883 105.638 521.541 Q106.224 519.199 108.156 517.208 Q110.03 515.159 112.899 515.159 Z" fill="#000000" fill-rule="evenodd" fill-opacity="1" /><path clip-path="url(#clip600)" d="M78.3513 497.463 Q75.3649 497.463 74.1352 495.648 Q72.847 493.833 72.847 491.901 Q72.847 489.5 74.3109 487.977 Q75.7163 486.396 78.3513 486.396 Q79.5224 486.396 80.1665 486.513 L116.354 490.495 L116.354 493.247 L80.1665 497.346 Q79.5224 497.463 78.3513 497.463 Z" fill="#000000" fill-rule="evenodd" fill-opacity="1" /><path clip-path="url(#clip600)" d="M186.797 464.462 Q186.212 464.462 184.748 462.94 Q165.073 443.616 128.007 443.616 Q90.8237 443.616 72.0272 462.179 Q69.8606 464.462 69.2165 464.462 Q68.0454 464.462 68.0454 463.291 Q68.0454 462.471 70.4462 459.602 Q72.847 456.674 78.3513 452.283 Q83.8556 447.832 90.5895 444.553 Q106.927 436.648 128.007 436.648 Q148.267 436.648 164.604 444.202 Q171.456 447.422 177.194 451.931 Q182.932 456.44 185.45 459.426 Q187.968 462.413 187.968 463.291 Q187.968 464.462 186.797 464.462 Z" fill="#000000" fill-rule="evenodd" fill-opacity="1" /><path clip-path="url(#clip600)" d="M127.187 391.475 Q127.421 391.358 128.007 391.358 Q128.592 391.358 128.827 391.475 L186.387 413.785 Q187.968 414.371 187.968 416.01 Q187.968 417.006 187.266 417.709 Q186.563 418.411 185.568 418.411 Q184.982 418.411 184.748 418.294 L128.007 396.277 L71.266 418.294 Q71.0318 418.411 70.4462 418.411 Q69.4508 418.411 68.7481 417.709 Q68.0454 417.006 68.0454 416.01 Q68.0454 414.371 69.6264 413.785 L127.187 391.475 Z" fill="#000000" fill-rule="evenodd" fill-opacity="1" /><polyline clip-path="url(#clip602)" style="stroke:#009af9; stroke-linecap:round; stroke-linejoin:round; stroke-width:12; stroke-opacity:1; fill:none" points="
  492.469,84.2294 501.545,102.957 510.621,121.806 519.697,140.898 528.773,160.477 537.848,178.596 546.924,200.607 556,221.158 565.076,240.737 574.152,260.802 
  583.228,281.232 592.304,303.85 601.38,324.28 610.456,344.224 619.532,364.41 628.607,384.719 637.683,406 646.759,425.214 655.835,444.914 664.911,465.222 
  673.987,483.463 683.063,504.015 692.139,524.688 701.215,544.145 710.29,562.629 719.366,583.423 728.442,603.124 737.518,623.189 746.594,643.254 755.67,663.562 
  764.746,683.749 773.822,704.3 782.898,721.933 791.974,741.877 801.049,759.996 810.125,781.034 819.201,797.815 828.277,819.097 837.353,839.162 846.429,860.564 
  855.505,879.778 864.581,899.478 873.657,921.003 882.733,940.703 891.808,960.16 900.884,979.252 909.96,999.439 919.036,1022.79 928.112,1041.51 937.188,1060.24 
  946.264,1080.19 955.34,1099.28 964.416,1122.02 973.492,1142.45 982.567,1161.3 991.643,1184.04 1000.72,1205.8 1009.8,1227.45 1018.87,1250.07 1027.95,1271.72 
  1037.02,1286.79 1046.1,1286.92 1055.17,1286.19 1064.25,1285.58 1073.33,1286.19 1082.4,1288.13 1091.48,1290.56 1100.55,1290.2 1109.63,1286.79 1118.71,1288.25 
  1127.78,1285.21 1136.86,1283.75 1145.93,1282.66 1155.01,1284.97 1164.09,1285.21 1173.16,1286.31 1182.24,1287.16 1191.31,1287.16 1200.39,1287.04 1209.46,1287.52 
  1218.54,1290.32 1227.62,1285.7 1236.69,1285.46 1245.77,1288.74 1254.84,1290.81 1263.92,1290.93 1273,1295.19 1282.07,1295.55 1291.15,1295.79 1300.22,1292.51 
  1309.3,1294.33 1318.38,1296.64 1327.45,1296.16 1336.53,1297.74 1345.6,1297.74 1354.68,1296.89 1363.76,1300.9 1372.83,1301.51 1381.91,1300.05 1390.98,1301.51 
  1400.06,1302.48 1409.13,1303.7 1418.21,1303.45 1427.29,1304.18 1436.36,1303.33 1445.44,1303.33 1454.51,1302.85 1463.59,1300.17 1472.67,1302 1481.74,1302.24 
  1490.82,1303.58 1499.89,1304.06 1508.97,1303.21 1518.05,1306.13 1527.12,1306.49 1536.2,1307.95 1545.27,1305.89 1554.35,1303.21 1563.42,1302.24 1572.5,1302 
  1581.58,1303.33 1590.65,1304.18 1599.73,1305.04 1608.8,1304.55 1617.88,1305.52 1626.96,1302.24 1636.03,1299.32 1645.11,1299.93 1654.18,1299.68 1663.26,1299.93 
  1672.34,1301.87 1681.41,1301.14 1690.49,1301.63 1699.56,1301.02 1708.64,1299.93 1717.72,1300.17 1726.79,1297.13 1735.87,1294.94 1744.94,1294.09 1754.02,1294.21 
  1763.09,1296.16 1772.17,1297.74 1781.25,1296.52 1790.32,1296.28 1799.4,1296.4 1808.47,1293 1817.55,1291.17 1826.63,1288.98 1835.7,1288.74 1844.78,1289.35 
  1853.85,1287.77 1862.93,1287.28 1872.01,1285.94 1881.08,1284.12 1890.16,1286.43 1899.23,1286.19 1908.31,1285.09 1917.39,1286.67 1926.46,1288.74 1935.54,1287.28 
  1944.61,1285.46 1953.69,1283.39 1962.76,1283.88 1971.84,1280.35 1980.92,1282.66 1989.99,1286.92 1999.07,1286.55 2008.14,1287.52 2017.22,1285.94 2026.3,1284.61 
  2035.37,1284.48 2044.45,1286.55 2053.52,1286.43 2062.6,1282.9 2071.68,1283.39 2080.75,1281.93 2089.83,1282.05 2098.9,1281.44 2107.98,1281.69 2117.05,1281.81 
  2126.13,1281.08 2135.21,1280.35 2144.28,1282.54 2153.36,1283.88 2162.43,1281.81 2171.51,1284.36 2180.59,1286.19 2189.66,1287.77 2198.74,1289.47 2207.81,1288.38 
  2216.89,1289.23 2225.97,1291.05 2235.04,1290.81 2244.12,1289.47 2253.19,1288.38 2262.27,1288.86 2271.35,1289.71 2280.42,1290.32 2289.5,1289.83 2298.57,1289.47 
  
  "/>
<polyline clip-path="url(#clip602)" style="stroke:#e26f46; stroke-linecap:round; stroke-linejoin:round; stroke-width:12; stroke-opacity:1; fill:none" points="
  492.469,482.369 501.545,463.641 510.621,444.792 519.697,425.7 528.773,406.121 537.848,388.002 546.924,365.991 556,345.44 565.076,325.861 574.152,305.796 
  583.228,285.366 592.304,262.748 601.38,242.318 610.456,222.374 619.532,202.188 628.607,181.879 637.683,160.598 646.759,141.384 655.835,121.684 664.911,101.376 
  673.987,85.3239 683.063,105.875 692.139,126.548 701.215,146.005 710.29,164.49 719.366,185.284 728.442,204.985 737.518,225.05 746.594,245.115 755.67,265.423 
  764.746,285.61 773.822,306.161 782.898,323.794 791.974,343.737 801.049,361.857 810.125,382.895 819.201,399.676 828.277,420.957 837.353,441.022 846.429,462.425 
  855.505,481.639 864.581,501.339 873.657,522.864 882.733,542.564 891.808,562.021 900.884,581.113 909.96,601.3 919.036,624.648 928.112,643.375 937.188,662.103 
  946.264,682.046 955.34,701.138 964.416,723.879 973.492,744.309 982.567,763.158 991.643,785.898 1000.72,807.666 1009.8,829.311 1018.87,851.93 1027.95,873.576 
  1037.02,894.979 1046.1,914.071 1055.17,931.339 1064.25,950.675 1073.33,973.172 1082.4,995.791 1091.48,1016.22 1100.55,1035.56 1109.63,1055.01 1118.71,1077.63 
  1127.78,1096.72 1136.86,1117.88 1145.93,1139.16 1155.01,1160.2 1164.09,1182.58 1173.16,1201.18 1182.24,1223.19 1191.31,1241.44 1200.39,1262.23 1209.46,1283.15 
  1218.54,1296.16 1227.62,1291.54 1236.69,1291.29 1245.77,1294.58 1254.84,1296.64 1263.92,1296.77 1273,1301.02 1282.07,1301.39 1291.15,1301.63 1300.22,1298.35 
  1309.3,1300.17 1318.38,1302.48 1327.45,1302 1336.53,1303.58 1345.6,1303.58 1354.68,1302.72 1363.76,1306.74 1372.83,1307.35 1381.91,1305.89 1390.98,1307.35 
  1400.06,1308.32 1409.13,1309.53 1418.21,1309.29 1427.29,1310.02 1436.36,1309.17 1445.44,1309.17 1454.51,1308.68 1463.59,1306.01 1472.67,1307.83 1481.74,1308.08 
  1490.82,1309.41 1499.89,1309.9 1508.97,1309.05 1518.05,1311.97 1527.12,1312.33 1536.2,1313.79 1545.27,1311.72 1554.35,1309.05 1563.42,1308.08 1572.5,1307.83 
  1581.58,1308.68 1590.65,1308.32 1599.73,1307.22 1608.8,1305.52 1617.88,1304.79 1626.96,1306.13 1636.03,1307.35 1645.11,1306.49 1654.18,1305.04 1663.26,1306.49 
  1672.34,1308.68 1681.41,1308.44 1690.49,1308.44 1699.56,1308.08 1708.64,1310.87 1717.72,1315.74 1726.79,1313.91 1735.87,1313.18 1744.94,1312.82 1754.02,1311.48 
  1763.09,1314.89 1772.17,1316.47 1781.25,1315.25 1790.32,1315.01 1799.4,1315.13 1808.47,1311.72 1817.55,1309.9 1826.63,1307.71 1835.7,1307.47 1844.78,1308.08 
  1853.85,1306.49 1862.93,1306.01 1872.01,1304.67 1881.08,1302.85 1890.16,1305.16 1899.23,1304.91 1908.31,1303.82 1917.39,1305.4 1926.46,1307.47 1935.54,1306.01 
  1944.61,1304.18 1953.69,1302.12 1962.76,1302.6 1971.84,1299.08 1980.92,1301.39 1989.99,1305.64 1999.07,1305.28 2008.14,1306.25 2017.22,1304.67 2026.3,1303.33 
  2035.37,1303.21 2044.45,1305.28 2053.52,1305.16 2062.6,1301.63 2071.68,1302.12 2080.75,1300.66 2089.83,1300.78 2098.9,1300.17 2107.98,1300.41 2117.05,1300.54 
  2126.13,1301.75 2135.21,1303.45 2144.28,1302.48 2153.36,1304.06 2162.43,1301.02 2171.51,1297.5 2180.59,1297.13 2189.66,1297.25 2198.74,1297.98 2207.81,1297.86 
  2216.89,1297.5 2225.97,1297.13 2235.04,1297.13 2244.12,1297.01 2253.19,1293.73 2262.27,1294.94 2271.35,1294.82 2280.42,1294.94 2289.5,1295.43 2298.57,1296.28 
  
  "/>
<polyline clip-path="url(#clip602)" style="stroke:#3da44d; stroke-linecap:round; stroke-linejoin:round; stroke-width:12; stroke-opacity:1; fill:none" points="
  492.469,876.495 501.545,857.767 510.621,838.918 519.697,819.826 528.773,800.248 537.848,782.128 546.924,760.117 556,739.566 565.076,719.987 574.152,699.922 
  583.228,679.492 592.304,656.874 601.38,636.444 610.456,616.5 619.532,596.314 628.607,576.005 637.683,554.724 646.759,535.511 655.835,515.81 664.911,495.502 
  673.987,477.261 683.063,456.71 692.139,436.037 701.215,416.58 710.29,398.095 719.366,377.301 728.442,357.6 737.518,337.535 746.594,317.47 755.67,297.162 
  764.746,276.975 773.822,256.424 782.898,238.791 791.974,218.848 801.049,200.728 810.125,179.69 819.201,162.909 828.277,141.628 837.353,121.563 846.429,100.16 
  855.505,87.5128 864.581,107.213 873.657,128.737 882.733,148.438 891.808,167.895 900.884,186.987 909.96,207.173 919.036,230.522 928.112,249.249 937.188,267.977 
  946.264,287.92 955.34,307.012 964.416,329.753 973.492,350.183 982.567,369.031 991.643,391.772 1000.72,413.539 1009.8,435.185 1018.87,457.804 1027.95,479.45 
  1037.02,500.853 1046.1,519.945 1055.17,537.213 1064.25,556.548 1073.33,579.046 1082.4,601.664 1091.48,622.094 1100.55,641.43 1109.63,660.887 1118.71,683.505 
  1127.78,702.598 1136.86,723.757 1145.93,745.038 1155.01,766.076 1164.09,788.452 1173.16,807.058 1182.24,829.068 1191.31,847.309 1200.39,868.104 1209.46,889.02 
  1218.54,908.356 1227.62,926.597 1236.69,948.486 1245.77,966.119 1254.84,985.211 1263.92,1005.52 1273,1026.07 1282.07,1046.14 1291.15,1066.32 1300.22,1086.63 
  1309.3,1107.18 1318.38,1126.03 1327.45,1145 1336.53,1166.53 1345.6,1185.5 1354.68,1206.53 1363.76,1226.36 1372.83,1249.58 1381.91,1273.17 1390.98,1294.82 
  1400.06,1309.17 1409.13,1310.39 1418.21,1310.14 1427.29,1310.87 1436.36,1310.02 1445.44,1310.02 1454.51,1309.53 1463.59,1306.86 1472.67,1308.68 1481.74,1308.93 
  1490.82,1310.26 1499.89,1310.75 1508.97,1309.9 1518.05,1312.82 1527.12,1313.18 1536.2,1314.64 1545.27,1312.58 1554.35,1309.9 1563.42,1308.93 1572.5,1308.68 
  1581.58,1309.53 1590.65,1309.17 1599.73,1308.08 1608.8,1306.37 1617.88,1305.64 1626.96,1306.98 1636.03,1308.2 1645.11,1307.35 1654.18,1305.89 1663.26,1307.35 
  1672.34,1309.53 1681.41,1309.29 1690.49,1309.29 1699.56,1308.93 1708.64,1311.72 1717.72,1316.59 1726.79,1314.76 1735.87,1314.03 1744.94,1313.67 1754.02,1312.33 
  1763.09,1315.01 1772.17,1313.43 1781.25,1310.75 1790.32,1314.4 1799.4,1314.28 1808.47,1314.03 1817.55,1312.21 1826.63,1310.75 1835.7,1310.26 1844.78,1309.41 
  1853.85,1312.7 1862.93,1311.72 1872.01,1308.68 1881.08,1310.26 1890.16,1308.44 1899.23,1306.25 1908.31,1307.35 1917.39,1304.55 1926.46,1301.27 1935.54,1299.32 
  1944.61,1297.25 1953.69,1295.19 1962.76,1295.67 1971.84,1292.15 1980.92,1294.46 1989.99,1298.71 1999.07,1298.35 2008.14,1299.32 2017.22,1297.74 2026.3,1296.4 
  2035.37,1296.28 2044.45,1298.35 2053.52,1298.23 2062.6,1294.7 2071.68,1295.19 2080.75,1293.73 2089.83,1293.85 2098.9,1293.24 2107.98,1293.48 2117.05,1293.6 
  2126.13,1294.82 2135.21,1296.52 2144.28,1295.55 2153.36,1297.13 2162.43,1294.09 2171.51,1290.56 2180.59,1290.2 2189.66,1290.32 2198.74,1291.05 2207.81,1290.93 
  2216.89,1290.56 2225.97,1290.2 2235.04,1290.2 2244.12,1290.08 2253.19,1286.79 2262.27,1288.01 2271.35,1287.89 2280.42,1288.01 2289.5,1288.5 2298.57,1289.35 
  
  "/>
<polyline clip-path="url(#clip602)" style="stroke:#c271d2; stroke-linecap:round; stroke-linejoin:round; stroke-width:12; stroke-opacity:1; fill:none" points="
  492.469,1286.67 501.545,1267.95 510.621,1249.1 519.697,1230 528.773,1210.43 537.848,1192.31 546.924,1170.3 556,1149.74 565.076,1130.17 574.152,1110.1 
  583.228,1089.67 592.304,1067.05 601.38,1046.62 610.456,1026.68 619.532,1006.49 628.607,986.184 637.683,964.903 646.759,945.689 655.835,925.989 664.911,905.68 
  673.987,887.439 683.063,866.888 692.139,846.215 701.215,826.758 710.29,808.274 719.366,787.479 728.442,767.779 737.518,747.714 746.594,727.649 755.67,707.34 
  764.746,687.154 773.822,666.602 782.898,648.969 791.974,629.026 801.049,610.906 810.125,589.869 819.201,573.087 828.277,551.806 837.353,531.741 846.429,510.338 
  855.505,491.124 864.581,471.424 873.657,449.9 882.733,430.199 891.808,410.742 900.884,391.65 909.96,371.464 919.036,348.115 928.112,329.388 937.188,310.66 
  946.264,290.717 955.34,271.625 964.416,248.884 973.492,228.455 982.567,209.606 991.643,186.865 1000.72,165.098 1009.8,143.452 1018.87,120.833 1027.95,99.187 
  1037.02,90.6746 1046.1,109.767 1055.17,127.035 1064.25,146.37 1073.33,168.867 1082.4,191.486 1091.48,211.916 1100.55,231.252 1109.63,250.709 1118.71,273.327 
  1127.78,292.419 1136.86,313.579 1145.93,334.86 1155.01,355.898 1164.09,378.274 1173.16,396.879 1182.24,418.89 1191.31,437.131 1200.39,457.926 1209.46,478.842 
  1218.54,498.177 1227.62,516.418 1236.69,538.308 1245.77,555.94 1254.84,575.033 1263.92,595.341 1273,615.892 1282.07,635.957 1291.15,656.144 1300.22,676.452 
  1309.3,697.004 1318.38,715.853 1327.45,734.823 1336.53,756.348 1345.6,775.318 1354.68,796.356 1363.76,816.178 1372.83,839.405 1381.91,862.996 1390.98,884.642 
  1400.06,907.261 1409.13,926.232 1418.21,945.202 1427.29,963.443 1436.36,982.779 1445.44,1001.99 1454.51,1022.42 1463.59,1041.64 1472.67,1059.76 1481.74,1080.43 
  1490.82,1100.01 1499.89,1119.46 1508.97,1138.07 1518.05,1159.23 1527.12,1179.05 1536.2,1199.97 1545.27,1218.57 1554.35,1239.73 1563.42,1260.41 1572.5,1280.35 
  1581.58,1289.23 1590.65,1288.86 1599.73,1287.77 1608.8,1286.06 1617.88,1285.34 1626.96,1286.67 1636.03,1287.89 1645.11,1287.04 1654.18,1285.58 1663.26,1287.04 
  1672.34,1289.23 1681.41,1288.98 1690.49,1288.98 1699.56,1288.62 1708.64,1291.42 1717.72,1296.28 1726.79,1294.46 1735.87,1293.73 1744.94,1293.36 1754.02,1292.02 
  1763.09,1294.7 1772.17,1293.12 1781.25,1290.44 1790.32,1294.09 1799.4,1293.97 1808.47,1293.73 1817.55,1291.9 1826.63,1290.44 1835.7,1289.96 1844.78,1289.11 
  1853.85,1292.39 1862.93,1291.42 1872.01,1288.38 1881.08,1289.96 1890.16,1288.13 1899.23,1285.94 1908.31,1287.04 1917.39,1284.24 1926.46,1280.96 1935.54,1279.01 
  1944.61,1278.89 1953.69,1279.01 1962.76,1281.93 1971.84,1283.51 1980.92,1284.36 1989.99,1284.24 1999.07,1284.36 2008.14,1287.77 2017.22,1287.4 2026.3,1287.04 
  2035.37,1288.38 2044.45,1287.28 2053.52,1286.67 2062.6,1287.77 2071.68,1288.01 2080.75,1290.69 2089.83,1291.29 2098.9,1292.39 2107.98,1292.15 2117.05,1293 
  2126.13,1294.21 2135.21,1295.91 2144.28,1294.94 2153.36,1296.52 2162.43,1293.48 2171.51,1289.96 2180.59,1289.59 2189.66,1289.71 2198.74,1290.44 2207.81,1290.32 
  2216.89,1289.96 2225.97,1289.59 2235.04,1289.59 2244.12,1289.47 2253.19,1286.19 2262.27,1287.4 2271.35,1287.28 2280.42,1287.4 2289.5,1287.89 2298.57,1288.74 
  
  "/>
<polyline clip-path="url(#clip602)" style="stroke:#ac8d18; stroke-linecap:round; stroke-linejoin:round; stroke-width:12; stroke-opacity:1; fill:none" points="
  492.469,1289.11 501.545,1288.86 510.621,1289.71 519.697,1291.05 528.773,1292.63 537.848,1293.24 546.924,1291.17 556,1289.83 565.076,1291.42 574.152,1292.27 
  583.228,1294.21 592.304,1293.48 601.38,1297.13 610.456,1297.37 619.532,1297.86 628.607,1294.82 637.683,1293.24 646.759,1294.46 655.835,1295.19 664.911,1295.31 
  673.987,1293.85 683.063,1273.3 692.139,1252.62 701.215,1233.17 710.29,1214.68 719.366,1193.89 728.442,1174.19 737.518,1154.12 746.594,1134.06 755.67,1113.75 
  764.746,1093.56 773.822,1073.01 782.898,1055.38 791.974,1035.43 801.049,1017.31 810.125,996.277 819.201,979.495 828.277,958.214 837.353,938.149 846.429,916.746 
  855.505,897.533 864.581,877.832 873.657,856.308 882.733,836.608 891.808,817.151 900.884,798.059 909.96,777.872 919.036,754.524 928.112,735.796 937.188,717.069 
  946.264,697.125 955.34,678.033 964.416,655.293 973.492,634.863 982.567,616.014 991.643,593.274 1000.72,571.506 1009.8,549.86 1018.87,527.241 1027.95,505.595 
  1037.02,484.193 1046.1,465.1 1055.17,447.832 1064.25,428.497 1073.33,406 1082.4,383.381 1091.48,362.951 1100.55,343.616 1109.63,324.159 1118.71,301.54 
  1127.78,282.448 1136.86,261.288 1145.93,240.007 1155.01,218.969 1164.09,196.594 1173.16,177.988 1182.24,155.977 1191.31,137.736 1200.39,116.942 1209.46,96.0253 
  1218.54,91.769 1227.62,110.01 1236.69,131.899 1245.77,149.532 1254.84,168.624 1263.92,188.933 1273,209.484 1282.07,229.549 1291.15,249.736 1300.22,270.044 
  1309.3,290.595 1318.38,309.444 1327.45,328.415 1336.53,349.939 1345.6,368.91 1354.68,389.948 1363.76,409.77 1372.83,432.996 1381.91,456.588 1390.98,478.234 
  1400.06,500.853 1409.13,519.823 1418.21,538.794 1427.29,557.035 1436.36,576.37 1445.44,595.584 1454.51,616.014 1463.59,635.228 1472.67,653.347 1481.74,674.02 
  1490.82,693.599 1499.89,713.056 1508.97,731.662 1518.05,752.821 1527.12,772.643 1536.2,793.559 1545.27,812.165 1554.35,833.324 1563.42,853.998 1572.5,873.941 
  1581.58,893.763 1590.65,911.639 1599.73,930.002 1608.8,952.134 1617.88,973.293 1626.96,997.25 1636.03,1019.63 1645.11,1039.93 1654.18,1060.12 1663.26,1080.79 
  1672.34,1102.44 1681.41,1124.09 1690.49,1144.52 1699.56,1164.34 1708.64,1187.56 1717.72,1207.51 1726.79,1226.36 1735.87,1246.79 1744.94,1267.09 1754.02,1289.35 
  1763.09,1296.4 1772.17,1294.82 1781.25,1292.15 1790.32,1295.79 1799.4,1295.67 1808.47,1295.43 1817.55,1293.6 1826.63,1292.15 1835.7,1291.66 1844.78,1290.81 
  1853.85,1294.09 1862.93,1293.12 1872.01,1290.08 1881.08,1291.66 1890.16,1289.83 1899.23,1287.65 1908.31,1288.74 1917.39,1285.94 1926.46,1282.66 1935.54,1280.71 
  1944.61,1280.59 1953.69,1280.71 1962.76,1283.63 1971.84,1285.21 1980.92,1286.06 1989.99,1285.94 1999.07,1286.06 2008.14,1289.47 2017.22,1289.11 2026.3,1288.74 
  2035.37,1290.08 2044.45,1288.98 2053.52,1288.38 2062.6,1289.47 2071.68,1289.71 2080.75,1292.39 2089.83,1293 2098.9,1294.09 2107.98,1293.85 2117.05,1294.7 
  2126.13,1293.73 2135.21,1297.37 2144.28,1295.91 2153.36,1298.23 2162.43,1295.91 2171.51,1293.36 2180.59,1291.05 2189.66,1291.17 2198.74,1293.12 2207.81,1291.29 
  2216.89,1290.44 2225.97,1291.05 2235.04,1290.32 2244.12,1290.93 2253.19,1290.32 2262.27,1289.35 2271.35,1291.17 2280.42,1289.83 2289.5,1287.16 2298.57,1286.06 
  
  "/>
<polyline clip-path="url(#clip602)" style="stroke:#00a9ad; stroke-linecap:round; stroke-linejoin:round; stroke-width:12; stroke-opacity:1; fill:none" points="
  492.469,1301.63 501.545,1301.39 510.621,1302.24 519.697,1303.58 528.773,1305.16 537.848,1305.77 546.924,1303.7 556,1302.36 565.076,1303.94 574.152,1304.79 
  583.228,1306.74 592.304,1306.01 601.38,1309.66 610.456,1309.9 619.532,1310.39 628.607,1307.35 637.683,1305.77 646.759,1306.98 655.835,1307.71 664.911,1307.83 
  673.987,1307.35 683.063,1307.47 692.139,1308.2 701.215,1308.2 710.29,1306.25 719.366,1303.45 728.442,1302.24 737.518,1300.41 746.594,1299.32 755.67,1303.09 
  764.746,1300.66 773.822,1299.56 782.898,1298.96 791.974,1300.17 801.049,1299.08 810.125,1299.93 819.201,1300.17 828.277,1301.51 837.353,1304.31 846.429,1306.98 
  855.505,1305.04 864.581,1285.34 873.657,1263.81 882.733,1244.11 891.808,1224.65 900.884,1205.56 909.96,1185.37 919.036,1162.03 928.112,1143.3 937.188,1124.57 
  946.264,1104.63 955.34,1085.54 964.416,1062.8 973.492,1042.37 982.567,1023.52 991.643,1000.78 1000.72,979.009 1009.8,957.363 1018.87,934.744 1027.95,913.098 
  1037.02,891.696 1046.1,872.603 1055.17,855.335 1064.25,836 1073.33,813.503 1082.4,790.884 1091.48,770.454 1100.55,751.119 1109.63,731.662 1118.71,709.043 
  1127.78,689.951 1136.86,668.791 1145.93,647.51 1155.01,626.472 1164.09,604.097 1173.16,585.491 1182.24,563.48 1191.31,545.239 1200.39,524.444 1209.46,503.528 
  1218.54,484.193 1227.62,465.952 1236.69,444.063 1245.77,426.43 1254.84,407.337 1263.92,387.029 1273,366.478 1282.07,346.413 1291.15,326.226 1300.22,305.918 
  1309.3,285.366 1318.38,266.517 1327.45,247.547 1336.53,226.022 1345.6,207.052 1354.68,186.014 1363.76,166.192 1372.83,142.965 1381.91,119.374 1390.98,97.7277 
  1400.06,93.3499 1409.13,112.321 1418.21,131.291 1427.29,149.532 1436.36,168.867 1445.44,188.081 1454.51,208.511 1463.59,227.725 1472.67,245.844 1481.74,266.517 
  1490.82,286.096 1499.89,305.553 1508.97,324.159 1518.05,345.318 1527.12,365.14 1536.2,386.056 1545.27,404.662 1554.35,425.822 1563.42,446.495 1572.5,466.438 
  1581.58,486.26 1590.65,504.136 1599.73,522.499 1608.8,544.631 1617.88,565.791 1626.96,589.747 1636.03,612.123 1645.11,632.431 1654.18,652.617 1663.26,673.291 
  1672.34,694.936 1681.41,716.582 1690.49,737.012 1699.56,756.834 1708.64,780.061 1717.72,800.004 1726.79,818.853 1735.87,839.283 1744.94,859.591 1754.02,881.845 
  1763.09,900.573 1772.17,921.124 1781.25,940.824 1790.32,961.498 1799.4,984.724 1808.47,1002.72 1817.55,1020.84 1826.63,1041.27 1835.7,1060.49 1844.78,1080.06 
  1853.85,1103.29 1862.93,1120.8 1872.01,1142.08 1881.08,1162.39 1890.16,1184.16 1899.23,1203.13 1908.31,1224.65 1917.39,1246.66 1926.46,1268.68 1935.54,1288.86 
  1944.61,1294.09 1953.69,1294.21 1962.76,1297.13 1971.84,1298.71 1980.92,1299.56 1989.99,1299.44 1999.07,1299.56 2008.14,1302.97 2017.22,1302.6 2026.3,1302.24 
  2035.37,1303.58 2044.45,1302.48 2053.52,1301.87 2062.6,1302.97 2071.68,1303.21 2080.75,1305.89 2089.83,1306.49 2098.9,1307.59 2107.98,1307.35 2117.05,1308.2 
  2126.13,1307.22 2135.21,1310.87 2144.28,1309.41 2153.36,1311.72 2162.43,1309.41 2171.51,1306.86 2180.59,1304.55 2189.66,1304.67 2198.74,1306.62 2207.81,1304.79 
  2216.89,1303.94 2225.97,1304.55 2235.04,1303.82 2244.12,1304.43 2253.19,1303.82 2262.27,1302.85 2271.35,1304.67 2280.42,1303.33 2289.5,1300.66 2298.57,1299.56 
  
  "/>
<polyline clip-path="url(#clip602)" style="stroke:#ed5d92; stroke-linecap:round; stroke-linejoin:round; stroke-width:12; stroke-opacity:1; fill:none" points="
  492.469,1303.58 501.545,1303.33 510.621,1304.18 519.697,1305.52 528.773,1307.1 537.848,1307.71 546.924,1305.64 556,1304.31 565.076,1305.89 574.152,1306.74 
  583.228,1308.68 592.304,1307.95 601.38,1311.6 610.456,1311.85 619.532,1312.33 628.607,1309.29 637.683,1307.71 646.759,1308.93 655.835,1309.66 664.911,1309.78 
  673.987,1309.29 683.063,1309.41 692.139,1310.14 701.215,1310.14 710.29,1308.2 719.366,1305.4 728.442,1304.18 737.518,1302.36 746.594,1301.27 755.67,1305.04 
  764.746,1302.6 773.822,1301.51 782.898,1300.9 791.974,1302.12 801.049,1301.02 810.125,1301.87 819.201,1302.12 828.277,1303.45 837.353,1306.25 846.429,1308.93 
  855.505,1310.63 864.581,1307.22 873.657,1305.16 882.733,1302 891.808,1301.75 900.884,1303.33 909.96,1303.82 919.036,1303.58 928.112,1302.12 937.188,1299.93 
  946.264,1300.9 955.34,1300.29 964.416,1297.98 973.492,1295.31 982.567,1296.4 991.643,1293.85 1000.72,1290.32 1009.8,1291.78 1018.87,1292.27 1027.95,1290.56 
  1037.02,1283.51 1046.1,1264.42 1055.17,1247.15 1064.25,1227.82 1073.33,1205.32 1082.4,1182.7 1091.48,1162.27 1100.55,1142.93 1109.63,1123.48 1118.71,1100.86 
  1127.78,1081.77 1136.86,1060.61 1145.93,1039.33 1155.01,1018.29 1164.09,995.912 1173.16,977.306 1182.24,955.296 1191.31,937.055 1200.39,916.26 1209.46,895.344 
  1218.54,876.008 1227.62,857.767 1236.69,835.878 1245.77,818.245 1254.84,799.153 1263.92,778.845 1273,758.293 1282.07,738.228 1291.15,718.042 1300.22,697.733 
  1309.3,677.182 1318.38,658.333 1327.45,639.362 1336.53,617.838 1345.6,598.867 1354.68,577.83 1363.76,558.008 1372.83,534.781 1381.91,511.189 1390.98,489.543 
  1400.06,466.925 1409.13,447.954 1418.21,428.983 1427.29,410.742 1436.36,391.407 1445.44,372.193 1454.51,351.763 1463.59,332.55 1472.67,314.43 1481.74,293.757 
  1490.82,274.179 1499.89,254.722 1508.97,236.116 1518.05,214.956 1527.12,195.134 1536.2,174.218 1545.27,155.612 1554.35,134.453 1563.42,113.78 1572.5,93.8363 
  1581.58,94.4444 1590.65,112.321 1599.73,130.683 1608.8,152.815 1617.88,173.975 1626.96,197.931 1636.03,220.307 1645.11,240.615 1654.18,260.802 1663.26,281.475 
  1672.34,303.121 1681.41,324.767 1690.49,345.197 1699.56,365.018 1708.64,388.245 1717.72,408.189 1726.79,427.038 1735.87,447.468 1744.94,467.776 1754.02,490.03 
  1763.09,508.757 1772.17,529.309 1781.25,549.009 1790.32,569.682 1799.4,592.909 1808.47,610.906 1817.55,629.026 1826.63,649.456 1835.7,668.67 1844.78,688.248 
  1853.85,711.475 1862.93,728.986 1872.01,750.267 1881.08,770.576 1890.16,792.343 1899.23,811.314 1908.31,832.838 1917.39,854.849 1926.46,876.86 1935.54,897.046 
  1944.61,917.354 1953.69,940.338 1962.76,958.093 1971.84,977.914 1980.92,999.196 1989.99,1019.5 1999.07,1042 2008.14,1060.97 2017.22,1080.55 2026.3,1100.62 
  2035.37,1119.46 2044.45,1140.26 2053.52,1159.59 2062.6,1181.36 2071.68,1203.49 2080.75,1224.17 2089.83,1246.42 2098.9,1267.95 2107.98,1288.62 2117.05,1309.9 
  2126.13,1312.58 2135.21,1316.22 2144.28,1314.76 2153.36,1317.07 2162.43,1314.76 2171.51,1312.21 2180.59,1309.9 2189.66,1310.02 2198.74,1311.97 2207.81,1310.14 
  2216.89,1309.29 2225.97,1309.9 2235.04,1309.17 2244.12,1309.78 2253.19,1309.17 2262.27,1308.2 2271.35,1310.02 2280.42,1308.68 2289.5,1306.01 2298.57,1304.91 
  
  "/>
<polyline clip-path="url(#clip602)" style="stroke:#c68125; stroke-linecap:round; stroke-linejoin:round; stroke-width:12; stroke-opacity:1; fill:none" points="
  492.469,1293.73 501.545,1291.54 510.621,1290.44 519.697,1292.27 528.773,1290.93 537.848,1292.51 546.924,1294.82 556,1297.86 565.076,1298.71 574.152,1298.35 
  583.228,1298.59 592.304,1301.27 601.38,1303.21 610.456,1303.45 619.532,1304.18 628.607,1306.98 637.683,1309.29 646.759,1310.75 655.835,1312.21 664.911,1312.09 
  673.987,1312.33 683.063,1312.45 692.139,1313.18 701.215,1313.18 710.29,1311.24 719.366,1308.44 728.442,1307.22 737.518,1305.4 746.594,1304.31 755.67,1308.08 
  764.746,1305.64 773.822,1304.55 782.898,1303.94 791.974,1305.16 801.049,1304.06 810.125,1304.91 819.201,1305.16 828.277,1306.49 837.353,1309.29 846.429,1311.97 
  855.505,1313.67 864.581,1310.26 873.657,1308.2 882.733,1305.04 891.808,1304.79 900.884,1306.37 909.96,1306.86 919.036,1306.62 928.112,1305.16 937.188,1302.97 
  946.264,1303.94 955.34,1303.33 964.416,1301.02 973.492,1298.35 982.567,1299.44 991.643,1296.89 1000.72,1293.36 1009.8,1294.82 1018.87,1295.31 1027.95,1293.6 
  1037.02,1292.39 1046.1,1293 1055.17,1293.24 1064.25,1295.55 1073.33,1296.64 1082.4,1295.67 1091.48,1297.13 1100.55,1298.71 1109.63,1298.96 1118.71,1299.44 
  1127.78,1299.08 1136.86,1298.35 1145.93,1299.68 1155.01,1296.4 1164.09,1296.89 1173.16,1293.85 1182.24,1292.51 1191.31,1292.02 1200.39,1292.63 1209.46,1294.33 
  1218.54,1287.16 1227.62,1268.92 1236.69,1247.03 1245.77,1229.4 1254.84,1210.3 1263.92,1190 1273,1169.44 1282.07,1149.38 1291.15,1129.19 1300.22,1108.88 
  1309.3,1088.33 1318.38,1069.48 1327.45,1050.51 1336.53,1028.99 1345.6,1010.02 1354.68,988.981 1363.76,969.159 1372.83,945.932 1381.91,922.34 1390.98,900.694 
  1400.06,878.076 1409.13,859.105 1418.21,840.134 1427.29,821.893 1436.36,802.558 1445.44,783.344 1454.51,762.914 1463.59,743.701 1472.67,725.581 1481.74,704.908 
  1490.82,685.33 1499.89,665.873 1508.97,647.267 1518.05,626.107 1527.12,606.285 1536.2,585.369 1545.27,566.763 1554.35,545.604 1563.42,524.931 1572.5,504.987 
  1581.58,485.166 1590.65,467.289 1599.73,448.927 1608.8,426.794 1617.88,405.635 1626.96,381.679 1636.03,359.303 1645.11,338.995 1654.18,318.808 1663.26,298.135 
  1672.34,276.489 1681.41,254.843 1690.49,234.413 1699.56,214.591 1708.64,191.365 1717.72,171.421 1726.79,152.572 1735.87,132.142 1744.94,111.834 1754.02,89.5801 
  1763.09,97.6061 1772.17,118.158 1781.25,137.858 1790.32,158.531 1799.4,181.758 1808.47,199.755 1817.55,217.875 1826.63,238.305 1835.7,257.518 1844.78,277.097 
  1853.85,300.324 1862.93,317.835 1872.01,339.116 1881.08,359.425 1890.16,381.192 1899.23,400.163 1908.31,421.687 1917.39,443.698 1926.46,465.709 1935.54,485.895 
  1944.61,506.203 1953.69,529.187 1962.76,546.942 1971.84,566.763 1980.92,588.045 1989.99,608.353 1999.07,630.85 2008.14,649.821 2017.22,669.399 2026.3,689.464 
  2035.37,708.313 2044.45,729.108 2053.52,748.443 2062.6,770.211 2071.68,792.343 2080.75,813.016 2089.83,835.27 2098.9,856.795 2107.98,877.468 2117.05,898.749 
  2126.13,919.422 2135.21,939.122 2144.28,959.309 2153.36,979.86 2162.43,1002.6 2171.51,1025.34 2180.59,1044.19 2189.66,1061.58 2198.74,1081.04 2207.81,1101.34 
  2216.89,1123.36 2225.97,1147.31 2235.04,1167.5 2244.12,1187.81 2253.19,1209.57 2262.27,1230.98 2271.35,1249.34 2280.42,1269.65 2289.5,1290.32 2298.57,1312.33 
  
  "/>
<polyline clip-path="url(#clip602)" style="stroke:#00a98d; stroke-linecap:round; stroke-linejoin:round; stroke-width:12; stroke-opacity:1; fill:none" points="
  492.469,1286.55 501.545,1284.36 510.621,1283.27 519.697,1285.09 528.773,1283.75 537.848,1285.34 546.924,1287.65 556,1290.69 565.076,1291.54 574.152,1291.17 
  583.228,1291.42 592.304,1294.09 601.38,1296.04 610.456,1296.28 619.532,1297.01 628.607,1299.81 637.683,1302.12 646.759,1303.58 655.835,1305.04 664.911,1304.91 
  673.987,1305.64 683.063,1304.06 692.139,1301.63 701.215,1300.66 710.29,1301.14 719.366,1301.02 728.442,1300.78 737.518,1299.93 746.594,1301.75 755.67,1300.66 
  764.746,1302.36 773.822,1303.21 782.898,1301.87 791.974,1301.14 801.049,1301.75 810.125,1299.44 819.201,1299.44 828.277,1299.81 837.353,1298.47 846.429,1297.01 
  855.505,1298.71 864.581,1295.31 873.657,1293.24 882.733,1290.08 891.808,1289.83 900.884,1291.42 909.96,1291.9 919.036,1291.66 928.112,1290.2 937.188,1288.01 
  946.264,1288.98 955.34,1288.38 964.416,1286.06 973.492,1283.39 982.567,1284.48 991.643,1281.93 1000.72,1278.4 1009.8,1279.86 1018.87,1280.35 1027.95,1278.65 
  1037.02,1277.43 1046.1,1278.04 1055.17,1278.28 1064.25,1280.59 1073.33,1281.69 1082.4,1280.71 1091.48,1282.17 1100.55,1283.75 1109.63,1284 1118.71,1284.48 
  1127.78,1284.12 1136.86,1283.39 1145.93,1284.73 1155.01,1281.44 1164.09,1281.93 1173.16,1278.89 1182.24,1277.55 1191.31,1277.07 1200.39,1277.67 1209.46,1279.38 
  1218.54,1278.77 1227.62,1281.44 1236.69,1282.9 1245.77,1281.81 1254.84,1284.36 1263.92,1283.27 1273,1282.17 1282.07,1284.24 1291.15,1283.27 1300.22,1284.36 
  1309.3,1283.51 1318.38,1283.15 1327.45,1285.58 1336.53,1287.4 1345.6,1288.38 1354.68,1289.23 1363.76,1290.81 1372.83,1291.42 1381.91,1291.66 1390.98,1293.85 
  1400.06,1284.12 1409.13,1265.15 1418.21,1246.18 1427.29,1227.94 1436.36,1208.6 1445.44,1189.39 1454.51,1168.96 1463.59,1149.74 1472.67,1131.62 1481.74,1110.95 
  1490.82,1091.37 1499.89,1071.92 1508.97,1053.31 1518.05,1032.15 1527.12,1012.33 1536.2,991.413 1545.27,972.807 1554.35,951.647 1563.42,930.974 1572.5,911.031 
  1581.58,891.209 1590.65,873.333 1599.73,854.97 1608.8,832.838 1617.88,811.679 1626.96,787.722 1636.03,765.347 1645.11,745.038 1654.18,724.852 1663.26,704.179 
  1672.34,682.533 1681.41,660.887 1690.49,640.457 1699.56,620.635 1708.64,597.408 1717.72,577.465 1726.79,558.616 1735.87,538.186 1744.94,517.878 1754.02,495.624 
  1763.09,476.896 1772.17,456.345 1781.25,436.645 1790.32,415.972 1799.4,392.745 1808.47,374.747 1817.55,356.628 1826.63,336.198 1835.7,316.984 1844.78,297.405 
  1853.85,274.179 1862.93,256.667 1872.01,235.386 1881.08,215.078 1890.16,193.31 1899.23,174.34 1908.31,152.815 1917.39,130.805 1926.46,108.794 1935.54,88.6073 
  1944.61,100.16 1953.69,123.143 1962.76,140.898 1971.84,160.72 1980.92,182.001 1989.99,202.309 1999.07,224.806 2008.14,243.777 2017.22,263.356 2026.3,283.421 
  2035.37,302.27 2044.45,323.064 2053.52,342.4 2062.6,364.167 2071.68,386.3 2080.75,406.973 2089.83,429.227 2098.9,450.751 2107.98,471.424 2117.05,492.705 
  2126.13,513.378 2135.21,533.078 2144.28,553.265 2153.36,573.817 2162.43,596.557 2171.51,619.297 2180.59,638.146 2189.66,655.536 2198.74,674.993 2207.81,695.301 
  2216.89,717.312 2225.97,741.268 2235.04,761.455 2244.12,781.763 2253.19,803.531 2262.27,824.934 2271.35,843.296 2280.42,863.604 2289.5,884.278 2298.57,906.288 
  
  "/>
<polyline clip-path="url(#clip602)" style="stroke:#8e971d; stroke-linecap:round; stroke-linejoin:round; stroke-width:12; stroke-opacity:1; fill:none" points="
  492.469,1280.96 501.545,1278.77 510.621,1277.67 519.697,1279.5 528.773,1278.16 537.848,1279.74 546.924,1282.05 556,1285.09 565.076,1285.94 574.152,1285.58 
  583.228,1285.82 592.304,1288.5 601.38,1290.44 610.456,1290.69 619.532,1291.42 628.607,1294.21 637.683,1296.52 646.759,1297.98 655.835,1299.44 664.911,1299.32 
  673.987,1300.05 683.063,1298.47 692.139,1296.04 701.215,1295.06 710.29,1295.55 719.366,1295.43 728.442,1295.19 737.518,1294.33 746.594,1296.16 755.67,1295.06 
  764.746,1296.77 773.822,1297.62 782.898,1296.28 791.974,1295.55 801.049,1296.16 810.125,1293.85 819.201,1293.85 828.277,1294.21 837.353,1292.87 846.429,1291.42 
  855.505,1291.9 864.581,1293.85 873.657,1291.78 882.733,1294.94 891.808,1295.43 900.884,1294.82 909.96,1293.12 919.036,1291.66 928.112,1292.63 937.188,1293.6 
  946.264,1296.04 955.34,1293.73 964.416,1289.47 973.492,1289.23 982.567,1288.86 991.643,1291.9 1000.72,1291.05 1009.8,1292.27 1018.87,1292.02 1027.95,1293.73 
  1037.02,1291.54 1046.1,1292.15 1055.17,1292.39 1064.25,1294.7 1073.33,1295.79 1082.4,1294.82 1091.48,1296.28 1100.55,1297.86 1109.63,1298.1 1118.71,1298.59 
  1127.78,1298.23 1136.86,1297.5 1145.93,1298.83 1155.01,1295.55 1164.09,1296.04 1173.16,1293 1182.24,1291.66 1191.31,1291.17 1200.39,1291.78 1209.46,1293.48 
  1218.54,1292.87 1227.62,1295.55 1236.69,1297.01 1245.77,1295.91 1254.84,1298.47 1263.92,1297.37 1273,1296.28 1282.07,1298.35 1291.15,1297.37 1300.22,1298.47 
  1309.3,1297.62 1318.38,1297.25 1327.45,1299.68 1336.53,1301.51 1345.6,1302.48 1354.68,1303.33 1363.76,1304.91 1372.83,1305.52 1381.91,1305.77 1390.98,1307.95 
  1400.06,1307.95 1409.13,1310.39 1418.21,1309.17 1427.29,1308.2 1436.36,1307.59 1445.44,1308.32 1454.51,1310.26 1463.59,1309.29 1472.67,1309.9 1481.74,1308.93 
  1490.82,1308.81 1499.89,1309.53 1508.97,1309.41 1518.05,1310.87 1527.12,1311.48 1536.2,1311.24 1545.27,1312.09 1554.35,1312.58 1563.42,1311.36 1572.5,1311.6 
  1581.58,1302.48 1590.65,1284.61 1599.73,1266.24 1608.8,1244.11 1617.88,1222.95 1626.96,1198.99 1636.03,1176.62 1645.11,1156.31 1654.18,1136.12 1663.26,1115.45 
  1672.34,1093.81 1681.41,1072.16 1690.49,1051.73 1699.56,1031.91 1708.64,1008.68 1717.72,988.737 1726.79,969.888 1735.87,949.459 1744.94,929.15 1754.02,906.896 
  1763.09,888.169 1772.17,867.617 1781.25,847.917 1790.32,827.244 1799.4,804.017 1808.47,786.02 1817.55,767.9 1826.63,747.47 1835.7,728.257 1844.78,708.678 
  1853.85,685.451 1862.93,667.94 1872.01,646.659 1881.08,626.35 1890.16,604.583 1899.23,585.612 1908.31,564.088 1917.39,542.077 1926.46,520.067 1935.54,499.88 
  1944.61,479.572 1953.69,456.588 1962.76,438.834 1971.84,419.012 1980.92,397.731 1989.99,377.422 1999.07,354.925 2008.14,335.955 2017.22,316.376 2026.3,296.311 
  2035.37,277.462 2044.45,256.667 2053.52,237.332 2062.6,215.564 2071.68,193.432 2080.75,172.759 2089.83,150.505 2098.9,128.981 2107.98,108.308 2117.05,87.0264 
  2126.13,102.106 2135.21,121.806 2144.28,141.992 2153.36,162.544 2162.43,185.284 2171.51,208.025 2180.59,226.874 2189.66,244.263 2198.74,263.72 2207.81,284.029 
  2216.89,306.039 2225.97,329.996 2235.04,350.183 2244.12,370.491 2253.19,392.258 2262.27,413.661 2271.35,432.024 2280.42,452.332 2289.5,473.005 2298.57,495.016 
  
  "/>
<polyline clip-path="url(#clip602)" style="stroke:#00a8cb; stroke-linecap:round; stroke-linejoin:round; stroke-width:12; stroke-opacity:1; fill:none" points="
  492.469,1289.47 501.545,1289.23 510.621,1290.56 519.697,1289.23 528.773,1289.11 537.848,1288.74 546.924,1285.21 556,1285.82 565.076,1285.21 574.152,1284.12 
  583.228,1285.09 592.304,1285.82 601.38,1286.31 610.456,1288.5 619.532,1288.74 628.607,1289.83 637.683,1291.66 646.759,1292.15 655.835,1293.36 664.911,1295.19 
  673.987,1296.64 683.063,1295.06 692.139,1292.63 701.215,1291.66 710.29,1292.15 719.366,1292.02 728.442,1291.78 737.518,1290.93 746.594,1292.75 755.67,1291.66 
  764.746,1293.36 773.822,1294.21 782.898,1292.87 791.974,1292.15 801.049,1292.75 810.125,1290.44 819.201,1290.44 828.277,1290.81 837.353,1289.47 846.429,1288.01 
  855.505,1288.5 864.581,1290.44 873.657,1288.38 882.733,1291.54 891.808,1292.02 900.884,1291.42 909.96,1289.71 919.036,1288.25 928.112,1289.23 937.188,1290.2 
  946.264,1292.63 955.34,1290.32 964.416,1286.06 973.492,1285.82 982.567,1285.46 991.643,1288.5 1000.72,1287.65 1009.8,1288.86 1018.87,1288.62 1027.95,1290.32 
  1037.02,1288.86 1046.1,1288.01 1055.17,1289.23 1064.25,1290.08 1073.33,1291.17 1082.4,1294.09 1091.48,1294.58 1100.55,1293.73 1109.63,1293.73 1118.71,1294.21 
  1127.78,1294.09 1136.86,1293.12 1145.93,1294.94 1155.01,1293.85 1164.09,1290.93 1173.16,1290.56 1182.24,1289.47 1191.31,1289.71 1200.39,1287.89 1209.46,1288.13 
  1218.54,1285.09 1227.62,1287.77 1236.69,1289.23 1245.77,1288.13 1254.84,1290.69 1263.92,1289.59 1273,1288.5 1282.07,1290.56 1291.15,1289.59 1300.22,1290.69 
  1309.3,1289.83 1318.38,1289.47 1327.45,1291.9 1336.53,1293.73 1345.6,1294.7 1354.68,1295.55 1363.76,1297.13 1372.83,1297.74 1381.91,1297.98 1390.98,1300.17 
  1400.06,1300.17 1409.13,1302.6 1418.21,1301.39 1427.29,1300.41 1436.36,1299.81 1445.44,1300.54 1454.51,1302.48 1463.59,1301.51 1472.67,1302.12 1481.74,1301.14 
  1490.82,1301.02 1499.89,1301.75 1508.97,1301.63 1518.05,1303.09 1527.12,1303.7 1536.2,1303.45 1545.27,1304.31 1554.35,1304.79 1563.42,1303.58 1572.5,1303.82 
  1581.58,1305.89 1590.65,1305.77 1599.73,1306.37 1608.8,1304.67 1617.88,1305.64 1626.96,1308.44 1636.03,1307.71 1645.11,1305.4 1654.18,1303.7 1663.26,1302.97 
  1672.34,1303.94 1681.41,1305.89 1690.49,1305.4 1699.56,1306.25 1708.64,1307.1 1717.72,1307.1 1726.79,1307.22 1735.87,1308.44 1744.94,1309.78 1754.02,1312.33 
  1763.09,1298.96 1772.17,1278.4 1781.25,1258.7 1790.32,1238.03 1799.4,1214.8 1808.47,1196.81 1817.55,1178.69 1826.63,1158.26 1835.7,1139.04 1844.78,1119.46 
  1853.85,1096.24 1862.93,1078.73 1872.01,1057.44 1881.08,1037.14 1890.16,1015.37 1899.23,996.399 1908.31,974.874 1917.39,952.864 1926.46,930.853 1935.54,910.666 
  1944.61,890.358 1953.69,867.374 1962.76,849.62 1971.84,829.798 1980.92,808.517 1989.99,788.209 1999.07,765.711 2008.14,746.741 2017.22,727.162 2026.3,707.097 
  2035.37,688.248 2044.45,667.453 2053.52,648.118 2062.6,626.35 2071.68,604.218 2080.75,583.545 2089.83,561.291 2098.9,539.767 2107.98,519.094 2117.05,497.813 
  2126.13,477.14 2135.21,457.439 2144.28,437.253 2153.36,416.701 2162.43,393.961 2171.51,371.22 2180.59,352.371 2189.66,334.982 2198.74,315.525 2207.81,295.216 
  2216.89,273.206 2225.97,249.249 2235.04,229.063 2244.12,208.754 2253.19,186.987 2262.27,165.584 2271.35,147.222 2280.42,126.913 2289.5,106.24 2298.57,84.2294 
  
  "/>
</svg>
