<?xml version="1.0" encoding="utf-8"?>
<svg xmlns="http://www.w3.org/2000/svg" xmlns:xlink="http://www.w3.org/1999/xlink" width="600" height="400" viewBox="0 0 2400 1600">
<defs>
  <clipPath id="clip370">
    <rect x="0" y="0" width="2400" height="1600"/>
  </clipPath>
</defs>
<path clip-path="url(#clip370)" d="
M0 1600 L2400 1600 L2400 0 L0 0  Z
  " fill="#ffffff" fill-rule="evenodd" fill-opacity="1"/>
<defs>
  <clipPath id="clip371">
    <rect x="480" y="0" width="1681" height="1600"/>
  </clipPath>
</defs>
<defs>
  <clipPath id="clip372">
    <rect x="194" y="47" width="2159" height="1308"/>
  </clipPath>
</defs>
<path clip-path="url(#clip370)" d="
M194.776 1354.06 L2352.76 1354.06 L2352.76 47.2441 L194.776 47.2441  Z
  " fill="#ffffff" fill-rule="evenodd" fill-opacity="1"/>
<polyline clip-path="url(#clip372)" style="stroke:#000000; stroke-linecap:round; stroke-linejoin:round; stroke-width:2; stroke-opacity:0.1; fill:none" points="
  255.851,1354.06 255.851,47.2441 
  "/>
<polyline clip-path="url(#clip372)" style="stroke:#000000; stroke-linecap:round; stroke-linejoin:round; stroke-width:2; stroke-opacity:0.1; fill:none" points="
  459.434,1354.06 459.434,47.2441 
  "/>
<polyline clip-path="url(#clip372)" style="stroke:#000000; stroke-linecap:round; stroke-linejoin:round; stroke-width:2; stroke-opacity:0.1; fill:none" points="
  663.017,1354.06 663.017,47.2441 
  "/>
<polyline clip-path="url(#clip372)" style="stroke:#000000; stroke-linecap:round; stroke-linejoin:round; stroke-width:2; stroke-opacity:0.1; fill:none" points="
  866.6,1354.06 866.6,47.2441 
  "/>
<polyline clip-path="url(#clip372)" style="stroke:#000000; stroke-linecap:round; stroke-linejoin:round; stroke-width:2; stroke-opacity:0.1; fill:none" points="
  1070.18,1354.06 1070.18,47.2441 
  "/>
<polyline clip-path="url(#clip372)" style="stroke:#000000; stroke-linecap:round; stroke-linejoin:round; stroke-width:2; stroke-opacity:0.1; fill:none" points="
  1273.77,1354.06 1273.77,47.2441 
  "/>
<polyline clip-path="url(#clip372)" style="stroke:#000000; stroke-linecap:round; stroke-linejoin:round; stroke-width:2; stroke-opacity:0.1; fill:none" points="
  1477.35,1354.06 1477.35,47.2441 
  "/>
<polyline clip-path="url(#clip372)" style="stroke:#000000; stroke-linecap:round; stroke-linejoin:round; stroke-width:2; stroke-opacity:0.1; fill:none" points="
  1680.93,1354.06 1680.93,47.2441 
  "/>
<polyline clip-path="url(#clip372)" style="stroke:#000000; stroke-linecap:round; stroke-linejoin:round; stroke-width:2; stroke-opacity:0.1; fill:none" points="
  1884.51,1354.06 1884.51,47.2441 
  "/>
<polyline clip-path="url(#clip372)" style="stroke:#000000; stroke-linecap:round; stroke-linejoin:round; stroke-width:2; stroke-opacity:0.1; fill:none" points="
  2088.1,1354.06 2088.1,47.2441 
  "/>
<polyline clip-path="url(#clip372)" style="stroke:#000000; stroke-linecap:round; stroke-linejoin:round; stroke-width:2; stroke-opacity:0.1; fill:none" points="
  2291.68,1354.06 2291.68,47.2441 
  "/>
<polyline clip-path="url(#clip370)" style="stroke:#000000; stroke-linecap:round; stroke-linejoin:round; stroke-width:4; stroke-opacity:1; fill:none" points="
  194.776,1354.06 2352.76,1354.06 
  "/>
<polyline clip-path="url(#clip370)" style="stroke:#000000; stroke-linecap:round; stroke-linejoin:round; stroke-width:4; stroke-opacity:1; fill:none" points="
  255.851,1354.06 255.851,1335.16 
  "/>
<polyline clip-path="url(#clip370)" style="stroke:#000000; stroke-linecap:round; stroke-linejoin:round; stroke-width:4; stroke-opacity:1; fill:none" points="
  459.434,1354.06 459.434,1335.16 
  "/>
<polyline clip-path="url(#clip370)" style="stroke:#000000; stroke-linecap:round; stroke-linejoin:round; stroke-width:4; stroke-opacity:1; fill:none" points="
  663.017,1354.06 663.017,1335.16 
  "/>
<polyline clip-path="url(#clip370)" style="stroke:#000000; stroke-linecap:round; stroke-linejoin:round; stroke-width:4; stroke-opacity:1; fill:none" points="
  866.6,1354.06 866.6,1335.16 
  "/>
<polyline clip-path="url(#clip370)" style="stroke:#000000; stroke-linecap:round; stroke-linejoin:round; stroke-width:4; stroke-opacity:1; fill:none" points="
  1070.18,1354.06 1070.18,1335.16 
  "/>
<polyline clip-path="url(#clip370)" style="stroke:#000000; stroke-linecap:round; stroke-linejoin:round; stroke-width:4; stroke-opacity:1; fill:none" points="
  1273.77,1354.06 1273.77,1335.16 
  "/>
<polyline clip-path="url(#clip370)" style="stroke:#000000; stroke-linecap:round; stroke-linejoin:round; stroke-width:4; stroke-opacity:1; fill:none" points="
  1477.35,1354.06 1477.35,1335.16 
  "/>
<polyline clip-path="url(#clip370)" style="stroke:#000000; stroke-linecap:round; stroke-linejoin:round; stroke-width:4; stroke-opacity:1; fill:none" points="
  1680.93,1354.06 1680.93,1335.16 
  "/>
<polyline clip-path="url(#clip370)" style="stroke:#000000; stroke-linecap:round; stroke-linejoin:round; stroke-width:4; stroke-opacity:1; fill:none" points="
  1884.51,1354.06 1884.51,1335.16 
  "/>
<polyline clip-path="url(#clip370)" style="stroke:#000000; stroke-linecap:round; stroke-linejoin:round; stroke-width:4; stroke-opacity:1; fill:none" points="
  2088.1,1354.06 2088.1,1335.16 
  "/>
<polyline clip-path="url(#clip370)" style="stroke:#000000; stroke-linecap:round; stroke-linejoin:round; stroke-width:4; stroke-opacity:1; fill:none" points="
  2291.68,1354.06 2291.68,1335.16 
  "/>
<path clip-path="url(#clip370)" d="M255.851 1395.23 Q249.08 1395.23 245.651 1401.92 Q242.266 1408.56 242.266 1421.92 Q242.266 1435.25 245.651 1441.93 Q249.08 1448.57 255.851 1448.57 Q262.665 1448.57 266.05 1441.93 Q269.479 1435.25 269.479 1421.92 Q269.479 1408.56 266.05 1401.92 Q262.665 1395.23 255.851 1395.23 M255.851 1388.29 Q266.745 1388.29 272.474 1396.93 Q278.246 1405.52 278.246 1421.92 Q278.246 1438.29 272.474 1446.92 Q266.745 1455.52 255.851 1455.52 Q244.957 1455.52 239.184 1446.92 Q233.455 1438.29 233.455 1421.92 Q233.455 1405.52 239.184 1396.93 Q244.957 1388.29 255.851 1388.29 Z" fill="#000000" fill-rule="evenodd" fill-opacity="1" /><path clip-path="url(#clip370)" d="M622.11 1395.23 Q615.339 1395.23 611.91 1401.92 Q608.525 1408.56 608.525 1421.92 Q608.525 1435.25 611.91 1441.93 Q615.339 1448.57 622.11 1448.57 Q628.924 1448.57 632.309 1441.93 Q635.738 1435.25 635.738 1421.92 Q635.738 1408.56 632.309 1401.92 Q628.924 1395.23 622.11 1395.23 M622.11 1388.29 Q633.004 1388.29 638.733 1396.93 Q644.505 1405.52 644.505 1421.92 Q644.505 1438.29 638.733 1446.92 Q633.004 1455.52 622.11 1455.52 Q611.216 1455.52 605.443 1446.92 Q599.714 1438.29 599.714 1421.92 Q599.714 1405.52 605.443 1396.93 Q611.216 1388.29 622.11 1388.29 Z" fill="#000000" fill-rule="evenodd" fill-opacity="1" /><path clip-path="url(#clip370)" d="M659.913 1443.24 L669.071 1443.24 L669.071 1454.26 L659.913 1454.26 L659.913 1443.24 Z" fill="#000000" fill-rule="evenodd" fill-opacity="1" /><path clip-path="url(#clip370)" d="M695.72 1446.88 L726.319 1446.88 L726.319 1454.26 L685.174 1454.26 L685.174 1446.88 Q690.165 1441.72 698.759 1433.04 Q707.396 1424.31 709.609 1421.79 Q713.819 1417.06 715.469 1413.81 Q717.161 1410.51 717.161 1407.34 Q717.161 1402.18 713.516 1398.92 Q709.913 1395.67 704.097 1395.67 Q699.974 1395.67 695.373 1397.1 Q690.816 1398.53 685.608 1401.44 L685.608 1392.58 Q690.903 1390.46 695.503 1389.37 Q700.104 1388.29 703.924 1388.29 Q713.993 1388.29 719.983 1393.32 Q725.972 1398.36 725.972 1406.78 Q725.972 1410.77 724.453 1414.37 Q722.977 1417.93 719.028 1422.79 Q717.943 1424.05 712.127 1430.08 Q706.311 1436.07 695.72 1446.88 Z" fill="#000000" fill-rule="evenodd" fill-opacity="1" /><path clip-path="url(#clip370)" d="M1027.32 1395.23 Q1020.55 1395.23 1017.12 1401.92 Q1013.74 1408.56 1013.74 1421.92 Q1013.74 1435.25 1017.12 1441.93 Q1020.55 1448.57 1027.32 1448.57 Q1034.14 1448.57 1037.52 1441.93 Q1040.95 1435.25 1040.95 1421.92 Q1040.95 1408.56 1037.52 1401.92 Q1034.14 1395.23 1027.32 1395.23 M1027.32 1388.29 Q1038.22 1388.29 1043.95 1396.93 Q1049.72 1405.52 1049.72 1421.92 Q1049.72 1438.29 1043.95 1446.92 Q1038.22 1455.52 1027.32 1455.52 Q1016.43 1455.52 1010.66 1446.92 Q1004.93 1438.29 1004.93 1421.92 Q1004.93 1405.52 1010.66 1396.93 Q1016.43 1388.29 1027.32 1388.29 Z" fill="#000000" fill-rule="evenodd" fill-opacity="1" /><path clip-path="url(#clip370)" d="M1065.13 1443.24 L1074.28 1443.24 L1074.28 1454.26 L1065.13 1454.26 L1065.13 1443.24 Z" fill="#000000" fill-rule="evenodd" fill-opacity="1" /><path clip-path="url(#clip370)" d="M1117.47 1397.1 L1095.33 1431.69 L1117.47 1431.69 L1117.47 1397.1 M1115.17 1389.46 L1126.19 1389.46 L1126.19 1431.69 L1135.44 1431.69 L1135.44 1438.98 L1126.19 1438.98 L1126.19 1454.26 L1117.47 1454.26 L1117.47 1438.98 L1088.22 1438.98 L1088.22 1430.52 L1115.17 1389.46 Z" fill="#000000" fill-rule="evenodd" fill-opacity="1" /><path clip-path="url(#clip370)" d="M1434.79 1395.23 Q1428.02 1395.23 1424.59 1401.92 Q1421.21 1408.56 1421.21 1421.92 Q1421.21 1435.25 1424.59 1441.93 Q1428.02 1448.57 1434.79 1448.57 Q1441.61 1448.57 1444.99 1441.93 Q1448.42 1435.25 1448.42 1421.92 Q1448.42 1408.56 1444.99 1401.92 Q1441.61 1395.23 1434.79 1395.23 M1434.79 1388.29 Q1445.69 1388.29 1451.42 1396.93 Q1457.19 1405.52 1457.19 1421.92 Q1457.19 1438.29 1451.42 1446.92 Q1445.69 1455.52 1434.79 1455.52 Q1423.9 1455.52 1418.13 1446.92 Q1412.4 1438.29 1412.4 1421.92 Q1412.4 1405.52 1418.13 1396.93 Q1423.9 1388.29 1434.79 1388.29 Z" fill="#000000" fill-rule="evenodd" fill-opacity="1" /><path clip-path="url(#clip370)" d="M1472.6 1443.24 L1481.75 1443.24 L1481.75 1454.26 L1472.6 1454.26 L1472.6 1443.24 Z" fill="#000000" fill-rule="evenodd" fill-opacity="1" /><path clip-path="url(#clip370)" d="M1520.69 1418.37 Q1514.78 1418.37 1511.31 1422.4 Q1507.88 1426.44 1507.88 1433.47 Q1507.88 1440.46 1511.31 1444.54 Q1514.78 1448.57 1520.69 1448.57 Q1526.59 1448.57 1530.02 1444.54 Q1533.49 1440.46 1533.49 1433.47 Q1533.49 1426.44 1530.02 1422.4 Q1526.59 1418.37 1520.69 1418.37 M1538.09 1390.89 L1538.09 1398.88 Q1534.79 1397.32 1531.41 1396.49 Q1528.06 1395.67 1524.77 1395.67 Q1516.09 1395.67 1511.48 1401.53 Q1506.93 1407.39 1506.28 1419.23 Q1508.84 1415.46 1512.7 1413.46 Q1516.56 1411.42 1521.21 1411.42 Q1530.97 1411.42 1536.62 1417.37 Q1542.3 1423.27 1542.3 1433.47 Q1542.3 1443.45 1536.4 1449.49 Q1530.5 1455.52 1520.69 1455.52 Q1509.45 1455.52 1503.5 1446.92 Q1497.55 1438.29 1497.55 1421.92 Q1497.55 1406.56 1504.84 1397.45 Q1512.14 1388.29 1524.42 1388.29 Q1527.72 1388.29 1531.06 1388.94 Q1534.44 1389.59 1538.09 1390.89 Z" fill="#000000" fill-rule="evenodd" fill-opacity="1" /><path clip-path="url(#clip370)" d="M1842.2 1395.23 Q1835.43 1395.23 1832 1401.92 Q1828.61 1408.56 1828.61 1421.92 Q1828.61 1435.25 1832 1441.93 Q1835.43 1448.57 1842.2 1448.57 Q1849.01 1448.57 1852.4 1441.93 Q1855.83 1435.25 1855.83 1421.92 Q1855.83 1408.56 1852.4 1401.92 Q1849.01 1395.23 1842.2 1395.23 M1842.2 1388.29 Q1853.09 1388.29 1858.82 1396.93 Q1864.59 1405.52 1864.59 1421.92 Q1864.59 1438.29 1858.82 1446.92 Q1853.09 1455.52 1842.2 1455.52 Q1831.3 1455.52 1825.53 1446.92 Q1819.8 1438.29 1819.8 1421.92 Q1819.8 1405.52 1825.53 1396.93 Q1831.3 1388.29 1842.2 1388.29 Z" fill="#000000" fill-rule="evenodd" fill-opacity="1" /><path clip-path="url(#clip370)" d="M1880 1443.24 L1889.16 1443.24 L1889.16 1454.26 L1880 1454.26 L1880 1443.24 Z" fill="#000000" fill-rule="evenodd" fill-opacity="1" /><path clip-path="url(#clip370)" d="M1927.01 1423.49 Q1920.76 1423.49 1917.15 1426.83 Q1913.59 1430.17 1913.59 1436.03 Q1913.59 1441.89 1917.15 1445.23 Q1920.76 1448.57 1927.01 1448.57 Q1933.26 1448.57 1936.86 1445.23 Q1940.46 1441.85 1940.46 1436.03 Q1940.46 1430.17 1936.86 1426.83 Q1933.3 1423.49 1927.01 1423.49 M1918.24 1419.75 Q1912.6 1418.37 1909.43 1414.5 Q1906.3 1410.64 1906.3 1405.08 Q1906.3 1397.32 1911.82 1392.8 Q1917.37 1388.29 1927.01 1388.29 Q1936.68 1388.29 1942.2 1392.8 Q1947.71 1397.32 1947.71 1405.08 Q1947.71 1410.64 1944.54 1414.5 Q1941.42 1418.37 1935.82 1419.75 Q1942.15 1421.23 1945.67 1425.53 Q1949.23 1429.82 1949.23 1436.03 Q1949.23 1445.45 1943.46 1450.48 Q1937.73 1455.52 1927.01 1455.52 Q1916.29 1455.52 1910.51 1450.48 Q1904.78 1445.45 1904.78 1436.03 Q1904.78 1429.82 1908.34 1425.53 Q1911.9 1421.23 1918.24 1419.75 M1915.03 1405.91 Q1915.03 1410.94 1918.15 1413.77 Q1921.32 1416.59 1927.01 1416.59 Q1932.65 1416.59 1935.82 1413.77 Q1939.03 1410.94 1939.03 1405.91 Q1939.03 1400.87 1935.82 1398.05 Q1932.65 1395.23 1927.01 1395.23 Q1921.32 1395.23 1918.15 1398.05 Q1915.03 1400.87 1915.03 1405.91 Z" fill="#000000" fill-rule="evenodd" fill-opacity="1" /><path clip-path="url(#clip370)" d="M2273.65 1446.88 L2287.97 1446.88 L2287.97 1397.45 L2272.39 1400.57 L2272.39 1392.58 L2287.88 1389.46 L2296.65 1389.46 L2296.65 1446.88 L2310.97 1446.88 L2310.97 1454.26 L2273.65 1454.26 L2273.65 1446.88 Z" fill="#000000" fill-rule="evenodd" fill-opacity="1" /><path clip-path="url(#clip370)" d="M1299.53 1519.59 Q1299.53 1522.87 1297.49 1524.74 Q1295.44 1526.56 1293.09 1526.56 Q1290.87 1526.56 1289.7 1525.27 Q1288.53 1523.98 1288.53 1522.34 Q1288.53 1520.12 1290.17 1518.18 Q1291.81 1516.25 1294.26 1515.84 Q1291.86 1514.32 1288.29 1514.32 Q1285.95 1514.32 1283.9 1515.55 Q1281.91 1516.78 1280.68 1518.36 Q1279.51 1519.94 1278.45 1522.22 Q1277.46 1524.45 1277.05 1525.8 Q1276.7 1527.08 1276.41 1528.49 L1272.31 1544.89 Q1270.32 1552.67 1270.32 1555.43 Q1270.32 1558.82 1271.95 1561.11 Q1273.59 1563.33 1276.87 1563.33 Q1278.16 1563.33 1279.63 1562.98 Q1281.09 1562.57 1282.96 1561.52 Q1284.9 1560.4 1286.59 1558.76 Q1288.35 1557.07 1290.05 1554.2 Q1291.75 1551.33 1292.86 1547.64 Q1293.21 1546.35 1294.38 1546.35 Q1295.85 1546.35 1295.85 1547.52 Q1295.85 1548.52 1295.03 1550.62 Q1294.26 1552.67 1292.57 1555.37 Q1290.93 1558 1288.76 1560.4 Q1286.59 1562.75 1283.37 1564.39 Q1280.15 1566.02 1276.64 1566.02 Q1271.6 1566.02 1268.27 1563.33 Q1264.93 1560.64 1263.7 1556.89 Q1263.41 1557.42 1263 1558.12 Q1262.59 1558.82 1261.36 1560.4 Q1260.19 1561.93 1258.84 1563.1 Q1257.49 1564.21 1255.38 1565.09 Q1253.33 1566.02 1251.11 1566.02 Q1248.3 1566.02 1245.78 1565.2 Q1243.32 1564.39 1241.56 1562.51 Q1239.81 1560.64 1239.81 1558.06 Q1239.81 1555.19 1241.74 1553.2 Q1243.73 1551.15 1246.42 1551.15 Q1248.12 1551.15 1249.47 1552.15 Q1250.87 1553.14 1250.87 1555.31 Q1250.87 1557.71 1249.24 1559.53 Q1247.6 1561.34 1245.25 1561.81 Q1247.65 1563.33 1251.23 1563.33 Q1255.09 1563.33 1258.14 1559.93 Q1261.18 1556.54 1262.64 1550.86 Q1266.27 1537.22 1267.68 1531.13 Q1269.09 1524.98 1269.09 1522.34 Q1269.09 1519.88 1268.44 1518.18 Q1267.8 1516.49 1266.68 1515.73 Q1265.63 1514.91 1264.64 1514.61 Q1263.7 1514.32 1262.64 1514.32 Q1260.89 1514.32 1258.9 1515.02 Q1256.96 1515.73 1254.62 1517.36 Q1252.34 1518.95 1250.17 1522.22 Q1248.01 1525.5 1246.54 1530.01 Q1246.25 1531.36 1244.96 1531.36 Q1243.56 1531.3 1243.56 1530.13 Q1243.56 1529.13 1244.32 1527.08 Q1245.14 1524.98 1246.78 1522.34 Q1248.47 1519.71 1250.64 1517.36 Q1252.87 1514.96 1256.09 1513.32 Q1259.37 1511.68 1262.88 1511.68 Q1264.46 1511.68 1265.98 1512.04 Q1267.56 1512.33 1269.44 1513.21 Q1271.37 1514.09 1273.07 1516.02 Q1274.77 1517.95 1275.82 1520.76 Q1276.52 1519.41 1277.46 1518.13 Q1278.45 1516.84 1279.98 1515.26 Q1281.56 1513.62 1283.72 1512.68 Q1285.95 1511.68 1288.41 1511.68 Q1290.81 1511.68 1293.15 1512.33 Q1295.49 1512.91 1297.49 1514.85 Q1299.53 1516.72 1299.53 1519.59 Z" fill="#000000" fill-rule="evenodd" fill-opacity="1" /><polyline clip-path="url(#clip372)" style="stroke:#000000; stroke-linecap:round; stroke-linejoin:round; stroke-width:2; stroke-opacity:0.1; fill:none" points="
  194.776,1281.29 2352.76,1281.29 
  "/>
<polyline clip-path="url(#clip372)" style="stroke:#000000; stroke-linecap:round; stroke-linejoin:round; stroke-width:2; stroke-opacity:0.1; fill:none" points="
  194.776,960.511 2352.76,960.511 
  "/>
<polyline clip-path="url(#clip372)" style="stroke:#000000; stroke-linecap:round; stroke-linejoin:round; stroke-width:2; stroke-opacity:0.1; fill:none" points="
  194.776,639.733 2352.76,639.733 
  "/>
<polyline clip-path="url(#clip372)" style="stroke:#000000; stroke-linecap:round; stroke-linejoin:round; stroke-width:2; stroke-opacity:0.1; fill:none" points="
  194.776,318.955 2352.76,318.955 
  "/>
<polyline clip-path="url(#clip370)" style="stroke:#000000; stroke-linecap:round; stroke-linejoin:round; stroke-width:4; stroke-opacity:1; fill:none" points="
  194.776,1354.06 194.776,47.2441 
  "/>
<polyline clip-path="url(#clip370)" style="stroke:#000000; stroke-linecap:round; stroke-linejoin:round; stroke-width:4; stroke-opacity:1; fill:none" points="
  194.776,1281.29 213.673,1281.29 
  "/>
<polyline clip-path="url(#clip370)" style="stroke:#000000; stroke-linecap:round; stroke-linejoin:round; stroke-width:4; stroke-opacity:1; fill:none" points="
  194.776,960.511 213.673,960.511 
  "/>
<polyline clip-path="url(#clip370)" style="stroke:#000000; stroke-linecap:round; stroke-linejoin:round; stroke-width:4; stroke-opacity:1; fill:none" points="
  194.776,639.733 213.673,639.733 
  "/>
<polyline clip-path="url(#clip370)" style="stroke:#000000; stroke-linecap:round; stroke-linejoin:round; stroke-width:4; stroke-opacity:1; fill:none" points="
  194.776,318.955 213.673,318.955 
  "/>
<path clip-path="url(#clip370)" d="M136.38 1254.66 Q129.609 1254.66 126.18 1261.35 Q122.795 1267.99 122.795 1281.35 Q122.795 1294.68 126.18 1301.36 Q129.609 1308 136.38 1308 Q143.194 1308 146.58 1301.36 Q150.008 1294.68 150.008 1281.35 Q150.008 1267.99 146.58 1261.35 Q143.194 1254.66 136.38 1254.66 M136.38 1247.72 Q147.274 1247.72 153.003 1256.35 Q158.776 1264.95 158.776 1281.35 Q158.776 1297.72 153.003 1306.35 Q147.274 1314.95 136.38 1314.95 Q125.486 1314.95 119.713 1306.35 Q113.984 1297.72 113.984 1281.35 Q113.984 1264.95 119.713 1256.35 Q125.486 1247.72 136.38 1247.72 Z" fill="#000000" fill-rule="evenodd" fill-opacity="1" /><path clip-path="url(#clip370)" d="M121.449 985.533 L135.772 985.533 L135.772 936.097 L120.191 939.222 L120.191 931.236 L135.686 928.111 L144.453 928.111 L144.453 985.533 L158.776 985.533 L158.776 992.911 L121.449 992.911 L121.449 985.533 Z" fill="#000000" fill-rule="evenodd" fill-opacity="1" /><path clip-path="url(#clip370)" d="M128.177 664.755 L158.776 664.755 L158.776 672.133 L117.63 672.133 L117.63 664.755 Q122.621 659.59 131.215 650.909 Q139.852 642.186 142.066 639.668 Q146.276 634.937 147.925 631.682 Q149.618 628.384 149.618 625.215 Q149.618 620.05 145.972 616.795 Q142.37 613.54 136.554 613.54 Q132.43 613.54 127.83 614.972 Q123.272 616.404 118.064 619.312 L118.064 610.458 Q123.359 608.332 127.96 607.247 Q132.561 606.161 136.38 606.161 Q146.449 606.161 152.439 611.196 Q158.428 616.231 158.428 624.651 Q158.428 628.644 156.909 632.246 Q155.434 635.805 151.484 640.666 Q150.399 641.925 144.583 647.958 Q138.767 653.948 128.177 664.755 Z" fill="#000000" fill-rule="evenodd" fill-opacity="1" /><path clip-path="url(#clip370)" d="M145.408 316.416 Q151.701 317.762 155.217 322.015 Q158.776 326.269 158.776 332.519 Q158.776 342.111 152.178 347.362 Q145.581 352.614 133.429 352.614 Q129.349 352.614 125.008 351.789 Q120.712 351.008 116.111 349.402 L116.111 340.939 Q119.757 343.066 124.097 344.151 Q128.437 345.236 133.168 345.236 Q141.415 345.236 145.712 341.98 Q150.052 338.725 150.052 332.519 Q150.052 326.79 146.015 323.578 Q142.022 320.323 134.861 320.323 L127.309 320.323 L127.309 313.118 L135.208 313.118 Q141.675 313.118 145.104 310.557 Q148.533 307.953 148.533 303.092 Q148.533 298.1 144.974 295.453 Q141.458 292.762 134.861 292.762 Q131.258 292.762 127.135 293.543 Q123.012 294.324 118.064 295.974 L118.064 288.161 Q123.055 286.772 127.396 286.078 Q131.779 285.384 135.642 285.384 Q145.625 285.384 151.441 289.941 Q157.257 294.455 157.257 302.18 Q157.257 307.562 154.175 311.295 Q151.093 314.984 145.408 316.416 Z" fill="#000000" fill-rule="evenodd" fill-opacity="1" /><polyline clip-path="url(#clip372)" style="stroke:#0000ff; stroke-linecap:round; stroke-linejoin:round; stroke-width:12; stroke-opacity:1; fill:none" stroke-dasharray="48, 24, 6, 24, 6, 24" points="
  255.851,1160.02 276.415,1179.59 296.978,1188.48 317.542,1173.54 338.106,1169.6 358.67,1186.13 379.234,1188.01 399.798,1194.83 420.362,1194.71 440.926,1195.31 
  461.49,1176.95 482.054,1165.73 502.618,1134.12 523.182,1127.19 543.746,1098.97 564.31,1057.6 584.874,1022.88 605.438,982.199 626.002,944.535 646.566,892.851 
  667.129,845.366 687.693,784.132 708.257,721.259 728.821,647.722 749.385,599.365 769.949,548.99 790.513,492.151 811.077,430.05 831.641,381.946 852.205,331.777 
  872.769,296.9 893.333,273.992 913.897,259.174 934.461,259.146 955.025,235.974 975.589,206.821 996.153,215.139 1016.72,242.277 1037.28,254.583 1057.84,290.057 
  1078.41,321.531 1098.97,361.465 1119.54,414.646 1140.1,459.978 1160.66,510.664 1181.23,581.754 1201.79,639.665 1222.36,704.274 1242.92,764.445 1263.48,812.699 
  1284.05,851.197 1304.61,912.907 1325.18,955.96 1345.74,994.102 1366.3,1028.12 1386.87,1065.31 1407.43,1099.58 1428,1110.7 1448.56,1132.42 1469.12,1143.54 
  1489.69,1157.29 1510.25,1164.83 1530.82,1183.33 1551.38,1194.08 1571.94,1205.25 1592.51,1215.94 1613.07,1204.85 1633.63,1209.34 1654.2,1202.62 1674.76,1214.34 
  1695.33,1208.36 1715.89,1204.52 1736.45,1207.18 1757.02,1221.29 1777.58,1241.07 1798.15,1262.53 1818.71,1275.1 1839.27,1280.25 1859.84,1288.4 1880.4,1281.55 
  1900.97,1290.59 1921.53,1294 1942.09,1294.42 1962.66,1274 1983.22,1251.26 2003.79,1244.5 2024.35,1252.76 2044.91,1262.87 2065.48,1261.66 2086.04,1259.19 
  2106.61,1264.86 2127.17,1257.63 2147.73,1246.48 2168.3,1249.39 2188.86,1238.61 2209.43,1224.15 2229.99,1209.39 2250.55,1207.44 2271.12,1220.91 2291.68,1209.87 
  
  "/>
<polyline clip-path="url(#clip372)" style="stroke:#000000; stroke-linecap:round; stroke-linejoin:round; stroke-width:12; stroke-opacity:1; fill:none" stroke-dasharray="48, 24, 6, 24, 6, 24" points="
  255.851,1276.12 276.415,1274.24 296.978,1271.77 317.542,1268.54 338.106,1264.38 358.67,1259.06 379.234,1252.34 399.798,1243.92 420.362,1233.48 440.926,1220.69 
  461.49,1205.16 482.054,1186.52 502.618,1164.38 523.182,1138.37 543.746,1108.15 564.31,1073.43 584.874,1034 605.438,989.755 626.002,940.693 646.566,886.967 
  667.129,828.887 687.693,766.939 708.257,701.787 728.821,634.276 749.385,565.422 769.949,496.391 790.513,428.471 811.077,363.037 831.641,301.506 852.205,245.286 
  872.769,195.725 893.333,154.055 913.897,121.342 934.461,98.4417 955.025,85.9608 975.589,84.2294 996.153,93.2867 1016.72,112.879 1037.28,142.471 1057.84,181.268 
  1078.41,228.253 1098.97,282.229 1119.54,341.87 1140.1,405.771 1160.66,472.505 1181.23,540.676 1201.79,608.958 1222.36,676.145 1242.92,741.175 1263.48,803.152 
  1284.05,861.364 1304.61,915.282 1325.18,964.558 1345.74,1009.01 1366.3,1048.61 1386.87,1083.46 1407.43,1113.77 1428,1139.83 1448.56,1162 1469.12,1180.65 
  1489.69,1196.21 1510.25,1209.07 1530.82,1219.63 1551.38,1228.25 1571.94,1235.29 1592.51,1241.03 1613.07,1245.74 1633.63,1249.64 1654.2,1252.92 1674.76,1255.73 
  1695.33,1258.17 1715.89,1260.35 1736.45,1262.33 1757.02,1264.15 1777.58,1265.85 1798.15,1267.43 1818.71,1268.93 1839.27,1270.32 1859.84,1271.63 1880.4,1272.84 
  1900.97,1273.96 1921.53,1274.98 1942.09,1275.9 1962.66,1276.73 1983.22,1277.46 2003.79,1278.11 2024.35,1278.66 2044.91,1279.14 2065.48,1279.55 2086.04,1279.89 
  2106.61,1280.18 2127.17,1280.41 2147.73,1280.6 2168.3,1280.76 2188.86,1280.88 2209.43,1280.98 2229.99,1281.06 2250.55,1281.11 2271.12,1281.16 2291.68,1281.19 
  
  "/>
<polyline clip-path="url(#clip372)" style="stroke:#0000ff; stroke-linecap:round; stroke-linejoin:round; stroke-width:12; stroke-opacity:1; fill:none" stroke-dasharray="6, 12" points="
  255.851,1296.47 276.415,1278.24 296.978,1259.68 317.542,1239.81 338.106,1244.8 358.67,1234.32 379.234,1220.9 399.798,1213.72 420.362,1210.56 440.926,1218.55 
  461.49,1215.11 482.054,1214.52 502.618,1193.29 523.182,1184.35 543.746,1174.51 564.31,1166.26 584.874,1159.86 605.438,1148.04 626.002,1137.71 646.566,1099.78 
  667.129,1068.85 687.693,1025.45 708.257,996.408 728.821,967.474 749.385,934.667 769.949,899.744 790.513,872.547 811.077,836.994 831.641,791.64 852.205,770.155 
  872.769,741.16 893.333,742.481 913.897,735.159 934.461,741.141 955.025,722.175 975.589,724.953 996.153,716.072 1016.72,715.504 1037.28,728.866 1057.84,740.015 
  1078.41,760.488 1098.97,751.935 1119.54,762.564 1140.1,768.375 1160.66,797.078 1181.23,787.348 1201.79,795.019 1222.36,805.131 1242.92,788.854 1263.48,799.069 
  1284.05,792.36 1304.61,798.423 1325.18,783.575 1345.74,762.321 1366.3,725.294 1386.87,719.966 1407.43,709.255 1428,694.785 1448.56,703.989 1469.12,681.895 
  1489.69,673.387 1510.25,660.857 1530.82,667.164 1551.38,665.168 1571.94,686.765 1592.51,709.392 1613.07,728.924 1633.63,747.02 1654.2,756.006 1674.76,778.186 
  1695.33,797.741 1715.89,829.457 1736.45,852.668 1757.02,887.26 1777.58,917.243 1798.15,946.344 1818.71,963.724 1839.27,979.518 1859.84,1017.64 1880.4,1053.76 
  1900.97,1082.59 1921.53,1113.33 1942.09,1139.43 1962.66,1132.29 1983.22,1143.93 2003.79,1146.02 2024.35,1165.43 2044.91,1201.35 2065.48,1210.33 2086.04,1208.26 
  2106.61,1223.78 2127.17,1220.66 2147.73,1232.03 2168.3,1246.48 2188.86,1232.12 2209.43,1250.63 2229.99,1256.89 2250.55,1233.89 2271.12,1260.98 2291.68,1262.86 
  
  "/>
<polyline clip-path="url(#clip372)" style="stroke:#000000; stroke-linecap:round; stroke-linejoin:round; stroke-width:12; stroke-opacity:1; fill:none" stroke-dasharray="6, 12" points="
  255.851,1278.66 276.415,1277.7 296.978,1276.44 317.542,1274.8 338.106,1272.68 358.67,1269.97 379.234,1266.55 399.798,1262.26 420.362,1256.95 440.926,1250.43 
  461.49,1242.53 482.054,1233.03 502.618,1221.76 523.182,1208.52 543.746,1193.13 564.31,1175.45 584.874,1155.37 605.438,1132.83 626.002,1107.84 646.566,1080.46 
  667.129,1050.87 687.693,1019.28 708.257,986.055 728.821,951.601 749.385,916.428 769.949,881.118 790.513,846.31 811.077,812.683 831.641,780.929 852.205,751.73 
  872.769,725.726 893.333,703.489 913.897,685.493 934.461,672.092 955.025,663.496 975.589,659.759 996.153,660.771 1016.72,666.253 1037.28,675.769 1057.84,688.737 
  1078.41,704.453 1098.97,722.113 1119.54,740.851 1140.1,759.771 1160.66,777.984 1181.23,794.644 1201.79,808.984 1222.36,820.352 1242.92,828.228 1263.48,832.258 
  1284.05,832.258 1304.61,828.228 1325.18,820.352 1345.74,808.984 1366.3,794.644 1386.87,777.984 1407.43,759.771 1428,740.851 1448.56,722.113 1469.12,704.453 
  1489.69,688.737 1510.25,675.769 1530.82,666.253 1551.38,660.771 1571.94,659.759 1592.51,663.496 1613.07,672.092 1633.63,685.493 1654.2,703.489 1674.76,725.726 
  1695.33,751.73 1715.89,780.929 1736.45,812.683 1757.02,846.31 1777.58,881.118 1798.15,916.428 1818.71,951.601 1839.27,986.055 1859.84,1019.28 1880.4,1050.87 
  1900.97,1080.46 1921.53,1107.84 1942.09,1132.83 1962.66,1155.37 1983.22,1175.45 2003.79,1193.13 2024.35,1208.52 2044.91,1221.76 2065.48,1233.03 2086.04,1242.53 
  2106.61,1250.43 2127.17,1256.95 2147.73,1262.26 2168.3,1266.55 2188.86,1269.97 2209.43,1272.68 2229.99,1274.8 2250.55,1276.44 2271.12,1277.7 2291.68,1278.66 
  
  "/>
<polyline clip-path="url(#clip372)" style="stroke:#0000ff; stroke-linecap:round; stroke-linejoin:round; stroke-width:12; stroke-opacity:1; fill:none" stroke-dasharray="48, 30" points="
  255.851,1317.07 276.415,1315.07 296.978,1280.36 317.542,1282.14 338.106,1274.94 358.67,1262.73 379.234,1246.95 399.798,1221.38 420.362,1234.45 440.926,1239.64 
  461.49,1227.46 482.054,1237.37 502.618,1244.66 523.182,1235.69 543.746,1230.44 564.31,1239.65 584.874,1252.87 605.438,1272.02 626.002,1260.26 646.566,1257 
  667.129,1258.09 687.693,1276.2 708.257,1284.1 728.821,1282.08 749.385,1276.27 769.949,1259.49 790.513,1242.12 811.077,1243.71 831.641,1236.81 852.205,1222.87 
  872.769,1218.43 893.333,1203.67 913.897,1191.85 934.461,1197.42 955.025,1195.84 975.589,1183.84 996.153,1184.09 1016.72,1177.61 1037.28,1180.43 1057.84,1177.47 
  1078.41,1168.64 1098.97,1139.64 1119.54,1133.71 1140.1,1116.48 1160.66,1076.65 1181.23,1033.01 1201.79,997.526 1222.36,959.699 1242.92,895.388 1263.48,833.325 
  1284.05,778.012 1304.61,722.84 1325.18,648.456 1345.74,587.698 1366.3,540.084 1386.87,495.383 1407.43,451.036 1428,387.498 1448.56,359.106 1469.12,312.095 
  1489.69,283.756 1510.25,243.199 1530.82,211.715 1551.38,181.714 1571.94,177.913 1592.51,175.299 1613.07,191.449 1633.63,235.071 1654.2,252.644 1674.76,303.527 
  1695.33,336.865 1715.89,398.637 1736.45,440.963 1757.02,484.305 1777.58,542.086 1798.15,609.916 1818.71,652.82 1839.27,694.478 1859.84,735.072 1880.4,774.465 
  1900.97,838.052 1921.53,884.508 1942.09,937.035 1962.66,991.276 1983.22,1029.01 2003.79,1062.45 2024.35,1104.66 2044.91,1140.94 2065.48,1172.42 2086.04,1198.46 
  2106.61,1222.63 2127.17,1246.05 2147.73,1249.94 2168.3,1247.51 2188.86,1242.17 2209.43,1248.96 2229.99,1253.59 2250.55,1262.67 2271.12,1266.17 2291.68,1265.93 
  
  "/>
<polyline clip-path="url(#clip372)" style="stroke:#000000; stroke-linecap:round; stroke-linejoin:round; stroke-width:12; stroke-opacity:1; fill:none" stroke-dasharray="48, 30" points="
  255.851,1281.19 276.415,1281.16 296.978,1281.11 317.542,1281.06 338.106,1280.98 358.67,1280.88 379.234,1280.76 399.798,1280.6 420.362,1280.41 440.926,1280.18 
  461.49,1279.89 482.054,1279.55 502.618,1279.14 523.182,1278.66 543.746,1278.11 564.31,1277.46 584.874,1276.73 605.438,1275.9 626.002,1274.98 646.566,1273.96 
  667.129,1272.84 687.693,1271.63 708.257,1270.32 728.821,1268.93 749.385,1267.43 769.949,1265.85 790.513,1264.15 811.077,1262.33 831.641,1260.35 852.205,1258.17 
  872.769,1255.73 893.333,1252.92 913.897,1249.64 934.461,1245.74 955.025,1241.03 975.589,1235.29 996.153,1228.25 1016.72,1219.63 1037.28,1209.07 1057.84,1196.21 
  1078.41,1180.65 1098.97,1162 1119.54,1139.83 1140.1,1113.77 1160.66,1083.46 1181.23,1048.61 1201.79,1009.01 1222.36,964.558 1242.92,915.282 1263.48,861.364 
  1284.05,803.152 1304.61,741.175 1325.18,676.145 1345.74,608.958 1366.3,540.676 1386.87,472.505 1407.43,405.771 1428,341.87 1448.56,282.229 1469.12,228.253 
  1489.69,181.268 1510.25,142.471 1530.82,112.879 1551.38,93.2867 1571.94,84.2294 1592.51,85.9608 1613.07,98.4417 1633.63,121.342 1654.2,154.055 1674.76,195.725 
  1695.33,245.286 1715.89,301.506 1736.45,363.037 1757.02,428.471 1777.58,496.391 1798.15,565.422 1818.71,634.276 1839.27,701.787 1859.84,766.939 1880.4,828.887 
  1900.97,886.967 1921.53,940.693 1942.09,989.755 1962.66,1034 1983.22,1073.43 2003.79,1108.15 2024.35,1138.37 2044.91,1164.38 2065.48,1186.52 2086.04,1205.16 
  2106.61,1220.69 2127.17,1233.48 2147.73,1243.92 2168.3,1252.34 2188.86,1259.06 2209.43,1264.38 2229.99,1268.54 2250.55,1271.77 2271.12,1274.24 2291.68,1276.12 
  
  "/>
</svg>
