<?xml version="1.0" encoding="utf-8"?>
<svg xmlns="http://www.w3.org/2000/svg" xmlns:xlink="http://www.w3.org/1999/xlink" width="600" height="400" viewBox="0 0 2400 1600">
<defs>
  <clipPath id="clip170">
    <rect x="0" y="0" width="2400" height="1600"/>
  </clipPath>
</defs>
<path clip-path="url(#clip170)" d="
M0 1600 L2400 1600 L2400 0 L0 0  Z
  " fill="#ffffff" fill-rule="evenodd" fill-opacity="1"/>
<defs>
  <clipPath id="clip171">
    <rect x="480" y="0" width="1681" height="1600"/>
  </clipPath>
</defs>
<defs>
  <clipPath id="clip172">
    <rect x="197" y="47" width="2157" height="1308"/>
  </clipPath>
</defs>
<path clip-path="url(#clip170)" d="
M197.206 1354.06 L2352.76 1354.06 L2352.76 47.2441 L197.206 47.2441  Z
  " fill="#ffffff" fill-rule="evenodd" fill-opacity="1"/>
<polyline clip-path="url(#clip172)" style="stroke:#000000; stroke-linecap:round; stroke-linejoin:round; stroke-width:2; stroke-opacity:0.1; fill:none" points="
  258.212,1354.06 258.212,47.2441 
  "/>
<polyline clip-path="url(#clip172)" style="stroke:#000000; stroke-linecap:round; stroke-linejoin:round; stroke-width:2; stroke-opacity:0.1; fill:none" points="
  461.566,1354.06 461.566,47.2441 
  "/>
<polyline clip-path="url(#clip172)" style="stroke:#000000; stroke-linecap:round; stroke-linejoin:round; stroke-width:2; stroke-opacity:0.1; fill:none" points="
  664.92,1354.06 664.92,47.2441 
  "/>
<polyline clip-path="url(#clip172)" style="stroke:#000000; stroke-linecap:round; stroke-linejoin:round; stroke-width:2; stroke-opacity:0.1; fill:none" points="
  868.274,1354.06 868.274,47.2441 
  "/>
<polyline clip-path="url(#clip172)" style="stroke:#000000; stroke-linecap:round; stroke-linejoin:round; stroke-width:2; stroke-opacity:0.1; fill:none" points="
  1071.63,1354.06 1071.63,47.2441 
  "/>
<polyline clip-path="url(#clip172)" style="stroke:#000000; stroke-linecap:round; stroke-linejoin:round; stroke-width:2; stroke-opacity:0.1; fill:none" points="
  1274.98,1354.06 1274.98,47.2441 
  "/>
<polyline clip-path="url(#clip172)" style="stroke:#000000; stroke-linecap:round; stroke-linejoin:round; stroke-width:2; stroke-opacity:0.1; fill:none" points="
  1478.33,1354.06 1478.33,47.2441 
  "/>
<polyline clip-path="url(#clip172)" style="stroke:#000000; stroke-linecap:round; stroke-linejoin:round; stroke-width:2; stroke-opacity:0.1; fill:none" points="
  1681.69,1354.06 1681.69,47.2441 
  "/>
<polyline clip-path="url(#clip172)" style="stroke:#000000; stroke-linecap:round; stroke-linejoin:round; stroke-width:2; stroke-opacity:0.1; fill:none" points="
  1885.04,1354.06 1885.04,47.2441 
  "/>
<polyline clip-path="url(#clip172)" style="stroke:#000000; stroke-linecap:round; stroke-linejoin:round; stroke-width:2; stroke-opacity:0.1; fill:none" points="
  2088.4,1354.06 2088.4,47.2441 
  "/>
<polyline clip-path="url(#clip172)" style="stroke:#000000; stroke-linecap:round; stroke-linejoin:round; stroke-width:2; stroke-opacity:0.1; fill:none" points="
  2291.75,1354.06 2291.75,47.2441 
  "/>
<polyline clip-path="url(#clip170)" style="stroke:#000000; stroke-linecap:round; stroke-linejoin:round; stroke-width:4; stroke-opacity:1; fill:none" points="
  197.206,1354.06 2352.76,1354.06 
  "/>
<polyline clip-path="url(#clip170)" style="stroke:#000000; stroke-linecap:round; stroke-linejoin:round; stroke-width:4; stroke-opacity:1; fill:none" points="
  258.212,1354.06 258.212,1335.16 
  "/>
<polyline clip-path="url(#clip170)" style="stroke:#000000; stroke-linecap:round; stroke-linejoin:round; stroke-width:4; stroke-opacity:1; fill:none" points="
  461.566,1354.06 461.566,1335.16 
  "/>
<polyline clip-path="url(#clip170)" style="stroke:#000000; stroke-linecap:round; stroke-linejoin:round; stroke-width:4; stroke-opacity:1; fill:none" points="
  664.92,1354.06 664.92,1335.16 
  "/>
<polyline clip-path="url(#clip170)" style="stroke:#000000; stroke-linecap:round; stroke-linejoin:round; stroke-width:4; stroke-opacity:1; fill:none" points="
  868.274,1354.06 868.274,1335.16 
  "/>
<polyline clip-path="url(#clip170)" style="stroke:#000000; stroke-linecap:round; stroke-linejoin:round; stroke-width:4; stroke-opacity:1; fill:none" points="
  1071.63,1354.06 1071.63,1335.16 
  "/>
<polyline clip-path="url(#clip170)" style="stroke:#000000; stroke-linecap:round; stroke-linejoin:round; stroke-width:4; stroke-opacity:1; fill:none" points="
  1274.98,1354.06 1274.98,1335.16 
  "/>
<polyline clip-path="url(#clip170)" style="stroke:#000000; stroke-linecap:round; stroke-linejoin:round; stroke-width:4; stroke-opacity:1; fill:none" points="
  1478.33,1354.06 1478.33,1335.16 
  "/>
<polyline clip-path="url(#clip170)" style="stroke:#000000; stroke-linecap:round; stroke-linejoin:round; stroke-width:4; stroke-opacity:1; fill:none" points="
  1681.69,1354.06 1681.69,1335.16 
  "/>
<polyline clip-path="url(#clip170)" style="stroke:#000000; stroke-linecap:round; stroke-linejoin:round; stroke-width:4; stroke-opacity:1; fill:none" points="
  1885.04,1354.06 1885.04,1335.16 
  "/>
<polyline clip-path="url(#clip170)" style="stroke:#000000; stroke-linecap:round; stroke-linejoin:round; stroke-width:4; stroke-opacity:1; fill:none" points="
  2088.4,1354.06 2088.4,1335.16 
  "/>
<polyline clip-path="url(#clip170)" style="stroke:#000000; stroke-linecap:round; stroke-linejoin:round; stroke-width:4; stroke-opacity:1; fill:none" points="
  2291.75,1354.06 2291.75,1335.16 
  "/>
<path clip-path="url(#clip170)" d="M258.212 1395.23 Q251.442 1395.23 248.013 1401.92 Q244.627 1408.56 244.627 1421.92 Q244.627 1435.25 248.013 1441.93 Q251.442 1448.57 258.212 1448.57 Q265.027 1448.57 268.412 1441.93 Q271.841 1435.25 271.841 1421.92 Q271.841 1408.56 268.412 1401.92 Q265.027 1395.23 258.212 1395.23 M258.212 1388.29 Q269.106 1388.29 274.836 1396.93 Q280.608 1405.52 280.608 1421.92 Q280.608 1438.29 274.836 1446.92 Q269.106 1455.52 258.212 1455.52 Q247.318 1455.52 241.546 1446.92 Q235.817 1438.29 235.817 1421.92 Q235.817 1405.52 241.546 1396.93 Q247.318 1388.29 258.212 1388.29 Z" fill="#000000" fill-rule="evenodd" fill-opacity="1" /><path clip-path="url(#clip170)" d="M624.013 1395.23 Q617.242 1395.23 613.813 1401.92 Q610.428 1408.56 610.428 1421.92 Q610.428 1435.25 613.813 1441.93 Q617.242 1448.57 624.013 1448.57 Q630.827 1448.57 634.213 1441.93 Q637.641 1435.25 637.641 1421.92 Q637.641 1408.56 634.213 1401.92 Q630.827 1395.23 624.013 1395.23 M624.013 1388.29 Q634.907 1388.29 640.636 1396.93 Q646.409 1405.52 646.409 1421.92 Q646.409 1438.29 640.636 1446.92 Q634.907 1455.52 624.013 1455.52 Q613.119 1455.52 607.346 1446.92 Q601.617 1438.29 601.617 1421.92 Q601.617 1405.52 607.346 1396.93 Q613.119 1388.29 624.013 1388.29 Z" fill="#000000" fill-rule="evenodd" fill-opacity="1" /><path clip-path="url(#clip170)" d="M661.817 1443.24 L670.974 1443.24 L670.974 1454.26 L661.817 1454.26 L661.817 1443.24 Z" fill="#000000" fill-rule="evenodd" fill-opacity="1" /><path clip-path="url(#clip170)" d="M697.624 1446.88 L728.222 1446.88 L728.222 1454.26 L687.077 1454.26 L687.077 1446.88 Q692.068 1441.72 700.662 1433.04 Q709.299 1424.31 711.512 1421.79 Q715.723 1417.06 717.372 1413.81 Q719.065 1410.51 719.065 1407.34 Q719.065 1402.18 715.419 1398.92 Q711.816 1395.67 706 1395.67 Q701.877 1395.67 697.276 1397.1 Q692.719 1398.53 687.511 1401.44 L687.511 1392.58 Q692.806 1390.46 697.407 1389.37 Q702.007 1388.29 705.827 1388.29 Q715.896 1388.29 721.886 1393.32 Q727.875 1398.36 727.875 1406.78 Q727.875 1410.77 726.356 1414.37 Q724.88 1417.93 720.931 1422.79 Q719.846 1424.05 714.03 1430.08 Q708.214 1436.07 697.624 1446.88 Z" fill="#000000" fill-rule="evenodd" fill-opacity="1" /><path clip-path="url(#clip170)" d="M1028.77 1395.23 Q1022 1395.23 1018.57 1401.92 Q1015.18 1408.56 1015.18 1421.92 Q1015.18 1435.25 1018.57 1441.93 Q1022 1448.57 1028.77 1448.57 Q1035.58 1448.57 1038.97 1441.93 Q1042.4 1435.25 1042.4 1421.92 Q1042.4 1408.56 1038.97 1401.92 Q1035.58 1395.23 1028.77 1395.23 M1028.77 1388.29 Q1039.66 1388.29 1045.39 1396.93 Q1051.16 1405.52 1051.16 1421.92 Q1051.16 1438.29 1045.39 1446.92 Q1039.66 1455.52 1028.77 1455.52 Q1017.87 1455.52 1012.1 1446.92 Q1006.37 1438.29 1006.37 1421.92 Q1006.37 1405.52 1012.1 1396.93 Q1017.87 1388.29 1028.77 1388.29 Z" fill="#000000" fill-rule="evenodd" fill-opacity="1" /><path clip-path="url(#clip170)" d="M1066.57 1443.24 L1075.73 1443.24 L1075.73 1454.26 L1066.57 1454.26 L1066.57 1443.24 Z" fill="#000000" fill-rule="evenodd" fill-opacity="1" /><path clip-path="url(#clip170)" d="M1118.91 1397.1 L1096.78 1431.69 L1118.91 1431.69 L1118.91 1397.1 M1116.61 1389.46 L1127.64 1389.46 L1127.64 1431.69 L1136.88 1431.69 L1136.88 1438.98 L1127.64 1438.98 L1127.64 1454.26 L1118.91 1454.26 L1118.91 1438.98 L1089.66 1438.98 L1089.66 1430.52 L1116.61 1389.46 Z" fill="#000000" fill-rule="evenodd" fill-opacity="1" /><path clip-path="url(#clip170)" d="M1435.78 1395.23 Q1429.01 1395.23 1425.58 1401.92 Q1422.19 1408.56 1422.19 1421.92 Q1422.19 1435.25 1425.58 1441.93 Q1429.01 1448.57 1435.78 1448.57 Q1442.59 1448.57 1445.98 1441.93 Q1449.41 1435.25 1449.41 1421.92 Q1449.41 1408.56 1445.98 1401.92 Q1442.59 1395.23 1435.78 1395.23 M1435.78 1388.29 Q1446.67 1388.29 1452.4 1396.93 Q1458.17 1405.52 1458.17 1421.92 Q1458.17 1438.29 1452.4 1446.92 Q1446.67 1455.52 1435.78 1455.52 Q1424.88 1455.52 1419.11 1446.92 Q1413.38 1438.29 1413.38 1421.92 Q1413.38 1405.52 1419.11 1396.93 Q1424.88 1388.29 1435.78 1388.29 Z" fill="#000000" fill-rule="evenodd" fill-opacity="1" /><path clip-path="url(#clip170)" d="M1473.58 1443.24 L1482.74 1443.24 L1482.74 1454.26 L1473.58 1454.26 L1473.58 1443.24 Z" fill="#000000" fill-rule="evenodd" fill-opacity="1" /><path clip-path="url(#clip170)" d="M1521.67 1418.37 Q1515.77 1418.37 1512.3 1422.4 Q1508.87 1426.44 1508.87 1433.47 Q1508.87 1440.46 1512.3 1444.54 Q1515.77 1448.57 1521.67 1448.57 Q1527.57 1448.57 1531 1444.54 Q1534.48 1440.46 1534.48 1433.47 Q1534.48 1426.44 1531 1422.4 Q1527.57 1418.37 1521.67 1418.37 M1539.08 1390.89 L1539.08 1398.88 Q1535.78 1397.32 1532.39 1396.49 Q1529.05 1395.67 1525.75 1395.67 Q1517.07 1395.67 1512.47 1401.53 Q1507.91 1407.39 1507.26 1419.23 Q1509.82 1415.46 1513.69 1413.46 Q1517.55 1411.42 1522.19 1411.42 Q1531.96 1411.42 1537.6 1417.37 Q1543.29 1423.27 1543.29 1433.47 Q1543.29 1443.45 1537.38 1449.49 Q1531.48 1455.52 1521.67 1455.52 Q1510.43 1455.52 1504.48 1446.92 Q1498.54 1438.29 1498.54 1421.92 Q1498.54 1406.56 1505.83 1397.45 Q1513.12 1388.29 1525.4 1388.29 Q1528.7 1388.29 1532.05 1388.94 Q1535.43 1389.59 1539.08 1390.89 Z" fill="#000000" fill-rule="evenodd" fill-opacity="1" /><path clip-path="url(#clip170)" d="M1842.72 1395.23 Q1835.95 1395.23 1832.53 1401.92 Q1829.14 1408.56 1829.14 1421.92 Q1829.14 1435.25 1832.53 1441.93 Q1835.95 1448.57 1842.72 1448.57 Q1849.54 1448.57 1852.92 1441.93 Q1856.35 1435.25 1856.35 1421.92 Q1856.35 1408.56 1852.92 1401.92 Q1849.54 1395.23 1842.72 1395.23 M1842.72 1388.29 Q1853.62 1388.29 1859.35 1396.93 Q1865.12 1405.52 1865.12 1421.92 Q1865.12 1438.29 1859.35 1446.92 Q1853.62 1455.52 1842.72 1455.52 Q1831.83 1455.52 1826.06 1446.92 Q1820.33 1438.29 1820.33 1421.92 Q1820.33 1405.52 1826.06 1396.93 Q1831.83 1388.29 1842.72 1388.29 Z" fill="#000000" fill-rule="evenodd" fill-opacity="1" /><path clip-path="url(#clip170)" d="M1880.53 1443.24 L1889.69 1443.24 L1889.69 1454.26 L1880.53 1454.26 L1880.53 1443.24 Z" fill="#000000" fill-rule="evenodd" fill-opacity="1" /><path clip-path="url(#clip170)" d="M1927.53 1423.49 Q1921.28 1423.49 1917.68 1426.83 Q1914.12 1430.17 1914.12 1436.03 Q1914.12 1441.89 1917.68 1445.23 Q1921.28 1448.57 1927.53 1448.57 Q1933.78 1448.57 1937.39 1445.23 Q1940.99 1441.85 1940.99 1436.03 Q1940.99 1430.17 1937.39 1426.83 Q1933.83 1423.49 1927.53 1423.49 M1918.77 1419.75 Q1913.12 1418.37 1909.96 1414.5 Q1906.83 1410.64 1906.83 1405.08 Q1906.83 1397.32 1912.34 1392.8 Q1917.9 1388.29 1927.53 1388.29 Q1937.21 1388.29 1942.72 1392.8 Q1948.24 1397.32 1948.24 1405.08 Q1948.24 1410.64 1945.07 1414.5 Q1941.94 1418.37 1936.34 1419.75 Q1942.68 1421.23 1946.2 1425.53 Q1949.76 1429.82 1949.76 1436.03 Q1949.76 1445.45 1943.98 1450.48 Q1938.25 1455.52 1927.53 1455.52 Q1916.81 1455.52 1911.04 1450.48 Q1905.31 1445.45 1905.31 1436.03 Q1905.31 1429.82 1908.87 1425.53 Q1912.43 1421.23 1918.77 1419.75 M1915.55 1405.91 Q1915.55 1410.94 1918.68 1413.77 Q1921.85 1416.59 1927.53 1416.59 Q1933.18 1416.59 1936.34 1413.77 Q1939.56 1410.94 1939.56 1405.91 Q1939.56 1400.87 1936.34 1398.05 Q1933.18 1395.23 1927.53 1395.23 Q1921.85 1395.23 1918.68 1398.05 Q1915.55 1400.87 1915.55 1405.91 Z" fill="#000000" fill-rule="evenodd" fill-opacity="1" /><path clip-path="url(#clip170)" d="M2273.72 1446.88 L2288.04 1446.88 L2288.04 1397.45 L2272.46 1400.57 L2272.46 1392.58 L2287.95 1389.46 L2296.72 1389.46 L2296.72 1446.88 L2311.04 1446.88 L2311.04 1454.26 L2273.72 1454.26 L2273.72 1446.88 Z" fill="#000000" fill-rule="evenodd" fill-opacity="1" /><path clip-path="url(#clip170)" d="M1300.75 1519.59 Q1300.75 1522.87 1298.7 1524.74 Q1296.65 1526.56 1294.31 1526.56 Q1292.08 1526.56 1290.91 1525.27 Q1289.74 1523.98 1289.74 1522.34 Q1289.74 1520.12 1291.38 1518.18 Q1293.02 1516.25 1295.48 1515.84 Q1293.08 1514.32 1289.51 1514.32 Q1287.17 1514.32 1285.12 1515.55 Q1283.12 1516.78 1281.9 1518.36 Q1280.72 1519.94 1279.67 1522.22 Q1278.67 1524.45 1278.26 1525.8 Q1277.91 1527.08 1277.62 1528.49 L1273.52 1544.89 Q1271.53 1552.67 1271.53 1555.43 Q1271.53 1558.82 1273.17 1561.11 Q1274.81 1563.33 1278.09 1563.33 Q1279.38 1563.33 1280.84 1562.98 Q1282.3 1562.57 1284.18 1561.52 Q1286.11 1560.4 1287.81 1558.76 Q1289.57 1557.07 1291.26 1554.2 Q1292.96 1551.33 1294.07 1547.64 Q1294.43 1546.35 1295.6 1546.35 Q1297.06 1546.35 1297.06 1547.52 Q1297.06 1548.52 1296.24 1550.62 Q1295.48 1552.67 1293.78 1555.37 Q1292.14 1558 1289.98 1560.4 Q1287.81 1562.75 1284.59 1564.39 Q1281.37 1566.02 1277.85 1566.02 Q1272.82 1566.02 1269.48 1563.33 Q1266.14 1560.64 1264.91 1556.89 Q1264.62 1557.42 1264.21 1558.12 Q1263.8 1558.82 1262.57 1560.4 Q1261.4 1561.93 1260.05 1563.1 Q1258.71 1564.21 1256.6 1565.09 Q1254.55 1566.02 1252.32 1566.02 Q1249.51 1566.02 1247 1565.2 Q1244.54 1564.39 1242.78 1562.51 Q1241.02 1560.64 1241.02 1558.06 Q1241.02 1555.19 1242.96 1553.2 Q1244.95 1551.15 1247.64 1551.15 Q1249.34 1551.15 1250.68 1552.15 Q1252.09 1553.14 1252.09 1555.31 Q1252.09 1557.71 1250.45 1559.53 Q1248.81 1561.34 1246.47 1561.81 Q1248.87 1563.33 1252.44 1563.33 Q1256.31 1563.33 1259.35 1559.93 Q1262.4 1556.54 1263.86 1550.86 Q1267.49 1537.22 1268.9 1531.13 Q1270.3 1524.98 1270.3 1522.34 Q1270.3 1519.88 1269.66 1518.18 Q1269.01 1516.49 1267.9 1515.73 Q1266.85 1514.91 1265.85 1514.61 Q1264.91 1514.32 1263.86 1514.32 Q1262.1 1514.32 1260.11 1515.02 Q1258.18 1515.73 1255.84 1517.36 Q1253.55 1518.95 1251.39 1522.22 Q1249.22 1525.5 1247.76 1530.01 Q1247.46 1531.36 1246.18 1531.36 Q1244.77 1531.3 1244.77 1530.13 Q1244.77 1529.13 1245.53 1527.08 Q1246.35 1524.98 1247.99 1522.34 Q1249.69 1519.71 1251.86 1517.36 Q1254.08 1514.96 1257.3 1513.32 Q1260.58 1511.68 1264.09 1511.68 Q1265.67 1511.68 1267.2 1512.04 Q1268.78 1512.33 1270.65 1513.21 Q1272.58 1514.09 1274.28 1516.02 Q1275.98 1517.95 1277.03 1520.76 Q1277.74 1519.41 1278.67 1518.13 Q1279.67 1516.84 1281.19 1515.26 Q1282.77 1513.62 1284.94 1512.68 Q1287.17 1511.68 1289.62 1511.68 Q1292.03 1511.68 1294.37 1512.33 Q1296.71 1512.91 1298.7 1514.85 Q1300.75 1516.72 1300.75 1519.59 Z" fill="#000000" fill-rule="evenodd" fill-opacity="1" /><polyline clip-path="url(#clip172)" style="stroke:#000000; stroke-linecap:round; stroke-linejoin:round; stroke-width:2; stroke-opacity:0.1; fill:none" points="
  197.206,1284.69 2352.76,1284.69 
  "/>
<polyline clip-path="url(#clip172)" style="stroke:#000000; stroke-linecap:round; stroke-linejoin:round; stroke-width:2; stroke-opacity:0.1; fill:none" points="
  197.206,945.207 2352.76,945.207 
  "/>
<polyline clip-path="url(#clip172)" style="stroke:#000000; stroke-linecap:round; stroke-linejoin:round; stroke-width:2; stroke-opacity:0.1; fill:none" points="
  197.206,605.72 2352.76,605.72 
  "/>
<polyline clip-path="url(#clip172)" style="stroke:#000000; stroke-linecap:round; stroke-linejoin:round; stroke-width:2; stroke-opacity:0.1; fill:none" points="
  197.206,266.234 2352.76,266.234 
  "/>
<polyline clip-path="url(#clip170)" style="stroke:#000000; stroke-linecap:round; stroke-linejoin:round; stroke-width:4; stroke-opacity:1; fill:none" points="
  197.206,1354.06 197.206,47.2441 
  "/>
<polyline clip-path="url(#clip170)" style="stroke:#000000; stroke-linecap:round; stroke-linejoin:round; stroke-width:4; stroke-opacity:1; fill:none" points="
  197.206,1284.69 216.104,1284.69 
  "/>
<polyline clip-path="url(#clip170)" style="stroke:#000000; stroke-linecap:round; stroke-linejoin:round; stroke-width:4; stroke-opacity:1; fill:none" points="
  197.206,945.207 216.104,945.207 
  "/>
<polyline clip-path="url(#clip170)" style="stroke:#000000; stroke-linecap:round; stroke-linejoin:round; stroke-width:4; stroke-opacity:1; fill:none" points="
  197.206,605.72 216.104,605.72 
  "/>
<polyline clip-path="url(#clip170)" style="stroke:#000000; stroke-linecap:round; stroke-linejoin:round; stroke-width:4; stroke-opacity:1; fill:none" points="
  197.206,266.234 216.104,266.234 
  "/>
<path clip-path="url(#clip170)" d="M138.811 1258.07 Q132.04 1258.07 128.611 1264.75 Q125.226 1271.39 125.226 1284.76 Q125.226 1298.08 128.611 1304.77 Q132.04 1311.41 138.811 1311.41 Q145.625 1311.41 149.01 1304.77 Q152.439 1298.08 152.439 1284.76 Q152.439 1271.39 149.01 1264.75 Q145.625 1258.07 138.811 1258.07 M138.811 1251.12 Q149.705 1251.12 155.434 1259.76 Q161.206 1268.35 161.206 1284.76 Q161.206 1301.12 155.434 1309.76 Q149.705 1318.35 138.811 1318.35 Q127.916 1318.35 122.144 1309.76 Q116.415 1301.12 116.415 1284.76 Q116.415 1268.35 122.144 1259.76 Q127.916 1251.12 138.811 1251.12 Z" fill="#000000" fill-rule="evenodd" fill-opacity="1" /><path clip-path="url(#clip170)" d="M130.607 970.229 L161.206 970.229 L161.206 977.607 L120.061 977.607 L120.061 970.229 Q125.052 965.064 133.646 956.383 Q142.283 947.659 144.496 945.142 Q148.706 940.411 150.356 937.156 Q152.048 933.857 152.048 930.689 Q152.048 925.524 148.402 922.269 Q144.8 919.014 138.984 919.014 Q134.861 919.014 130.26 920.446 Q125.703 921.878 120.495 924.786 L120.495 915.932 Q125.79 913.805 130.39 912.72 Q134.991 911.635 138.811 911.635 Q148.88 911.635 154.869 916.67 Q160.859 921.704 160.859 930.125 Q160.859 934.118 159.34 937.72 Q157.864 941.279 153.915 946.14 Q152.83 947.399 147.014 953.432 Q141.198 959.421 130.607 970.229 Z" fill="#000000" fill-rule="evenodd" fill-opacity="1" /><path clip-path="url(#clip170)" d="M143.238 580.959 L121.102 615.551 L143.238 615.551 L143.238 580.959 M140.937 573.32 L151.961 573.32 L151.961 615.551 L161.206 615.551 L161.206 622.843 L151.961 622.843 L151.961 638.12 L143.238 638.12 L143.238 622.843 L113.984 622.843 L113.984 614.379 L140.937 573.32 Z" fill="#000000" fill-rule="evenodd" fill-opacity="1" /><path clip-path="url(#clip170)" d="M139.592 262.74 Q133.689 262.74 130.217 266.776 Q126.788 270.812 126.788 277.844 Q126.788 284.831 130.217 288.911 Q133.689 292.948 139.592 292.948 Q145.494 292.948 148.923 288.911 Q152.396 284.831 152.396 277.844 Q152.396 270.812 148.923 266.776 Q145.494 262.74 139.592 262.74 M156.996 235.266 L156.996 243.252 Q153.698 241.689 150.312 240.865 Q146.97 240.04 143.672 240.04 Q134.991 240.04 130.39 245.899 Q125.833 251.759 125.182 263.608 Q127.743 259.832 131.606 257.835 Q135.469 255.795 140.113 255.795 Q149.878 255.795 155.52 261.741 Q161.206 267.644 161.206 277.844 Q161.206 287.826 155.303 293.859 Q149.401 299.892 139.592 299.892 Q128.35 299.892 122.404 291.298 Q116.458 282.661 116.458 266.299 Q116.458 250.934 123.75 241.82 Q131.041 232.662 143.324 232.662 Q146.623 232.662 149.965 233.313 Q153.35 233.964 156.996 235.266 Z" fill="#000000" fill-rule="evenodd" fill-opacity="1" /><polyline clip-path="url(#clip172)" style="stroke:#0000ff; stroke-linecap:round; stroke-linejoin:round; stroke-width:12; stroke-opacity:1; fill:none" stroke-dasharray="48, 24, 6, 24, 6, 24" points="
  258.212,1172.62 278.753,1190.71 299.294,1198.92 319.835,1185.12 340.375,1181.47 360.916,1196.75 381.457,1198.49 401.998,1204.78 422.539,1204.68 443.079,1205.23 
  463.62,1188.26 484.161,1177.89 504.702,1148.68 525.243,1142.27 545.783,1116.2 566.324,1077.96 586.865,1045.87 607.406,1008.28 627.946,973.467 648.487,925.701 
  669.028,881.815 689.569,825.223 710.11,767.117 730.65,699.154 751.191,654.462 771.732,607.906 792.273,555.376 812.813,497.982 833.354,453.525 853.895,407.159 
  874.436,374.926 894.977,353.755 915.517,340.06 936.058,340.034 956.599,318.618 977.14,291.675 997.681,299.363 1018.22,324.443 1038.76,335.817 1059.3,368.602 
  1079.84,397.69 1100.38,434.597 1120.93,483.747 1141.47,525.642 1162.01,572.486 1182.55,638.187 1203.09,691.708 1223.63,751.419 1244.17,807.029 1264.71,851.625 
  1285.25,887.205 1305.79,944.237 1326.33,984.026 1346.87,1019.28 1367.41,1050.71 1387.96,1085.08 1408.5,1116.76 1429.04,1127.03 1449.58,1147.11 1470.12,1157.38 
  1490.66,1170.09 1511.2,1177.06 1531.74,1194.16 1552.28,1204.09 1572.82,1214.42 1593.36,1224.3 1613.9,1214.04 1634.44,1218.2 1654.99,1211.98 1675.53,1222.82 
  1696.07,1217.29 1716.61,1213.75 1737.15,1216.2 1757.69,1229.25 1778.23,1247.53 1798.77,1267.35 1819.31,1278.98 1839.85,1283.74 1860.39,1291.27 1880.93,1284.94 
  1901.47,1293.29 1922.02,1296.44 1942.56,1296.83 1963.1,1277.96 1983.64,1256.94 2004.18,1250.69 2024.72,1258.33 2045.26,1267.67 2065.8,1266.55 2086.34,1264.27 
  2106.88,1269.51 2127.42,1262.83 2147.96,1252.52 2168.51,1255.22 2189.05,1245.25 2209.59,1231.88 2230.13,1218.25 2250.67,1216.44 2271.21,1228.89 2291.75,1218.69 
  
  "/>
<polyline clip-path="url(#clip172)" style="stroke:#000000; stroke-linecap:round; stroke-linejoin:round; stroke-width:12; stroke-opacity:1; fill:none" stroke-dasharray="48, 24, 6, 24, 6, 24" points="
  258.212,1279.51 278.753,1277.62 299.294,1275.14 319.835,1271.91 340.375,1267.74 360.916,1262.4 381.457,1255.66 401.998,1247.21 422.539,1236.75 443.079,1223.92 
  463.62,1208.35 484.161,1189.65 504.702,1167.45 525.243,1141.36 545.783,1111.06 566.324,1076.24 586.865,1036.7 607.406,992.33 627.946,943.129 648.487,889.25 
  669.028,831.005 689.569,768.88 710.11,703.543 730.65,635.841 751.191,566.791 771.732,497.563 792.273,429.45 812.813,363.83 833.354,302.124 853.895,245.744 
  874.436,196.042 894.977,154.253 915.517,121.447 936.058,98.4821 956.599,85.9658 977.14,84.2294 997.681,93.3125 1018.22,112.96 1038.76,142.636 1059.3,181.544 
  1079.84,228.663 1100.38,282.793 1120.93,342.603 1141.47,406.685 1162.01,473.61 1182.55,541.974 1203.09,610.451 1223.63,677.829 1244.17,743.043 1264.71,805.197 
  1285.25,863.574 1305.79,917.646 1326.33,967.062 1346.87,1011.64 1367.41,1051.35 1387.96,1086.3 1408.5,1116.7 1429.04,1142.84 1449.58,1165.06 1470.12,1183.77 
  1490.66,1199.37 1511.2,1212.27 1531.74,1222.86 1552.28,1231.51 1572.82,1238.56 1593.36,1244.32 1613.9,1249.04 1634.44,1252.96 1654.99,1256.25 1675.53,1259.06 
  1696.07,1261.51 1716.61,1263.7 1737.15,1265.68 1757.69,1267.51 1778.23,1269.21 1798.77,1270.8 1819.31,1272.29 1839.85,1273.7 1860.39,1275.01 1880.93,1276.22 
  1901.47,1277.34 1922.02,1278.37 1942.56,1279.29 1963.1,1280.12 1983.64,1280.86 2004.18,1281.5 2024.72,1282.06 2045.26,1282.54 2065.8,1282.95 2086.34,1283.29 
  2106.88,1283.58 2127.42,1283.81 2147.96,1284.01 2168.51,1284.16 2189.05,1284.29 2209.59,1284.38 2230.13,1284.46 2250.67,1284.52 2271.21,1284.56 2291.75,1284.6 
  
  "/>
<polyline clip-path="url(#clip172)" style="stroke:#0000ff; stroke-linecap:round; stroke-linejoin:round; stroke-width:12; stroke-opacity:1; fill:none" stroke-dasharray="6, 12" points="
  258.212,1296.4 278.753,1282.34 299.294,1268.03 319.835,1252.71 340.375,1256.56 360.916,1248.48 381.457,1238.13 401.998,1232.6 422.539,1230.16 443.079,1236.32 
  463.62,1233.67 484.161,1233.21 504.702,1216.84 525.243,1209.95 545.783,1202.36 566.324,1196.01 586.865,1191.07 607.406,1181.96 627.946,1174 648.487,1144.75 
  669.028,1120.9 689.569,1087.44 710.11,1065.05 730.65,1042.74 751.191,1017.44 771.732,990.518 792.273,969.549 812.813,942.137 833.354,907.168 853.895,890.603 
  874.436,868.248 894.977,869.267 915.517,863.621 936.058,868.234 956.599,853.61 977.14,855.752 997.681,848.905 1018.22,848.467 1038.76,858.769 1059.3,867.365 
  1079.84,883.15 1100.38,876.555 1120.93,884.751 1141.47,889.231 1162.01,911.361 1182.55,903.859 1203.09,909.774 1223.63,917.57 1244.17,905.021 1264.71,912.896 
  1285.25,907.723 1305.79,912.398 1326.33,900.95 1346.87,884.563 1367.41,856.015 1387.96,851.907 1408.5,843.648 1429.04,832.492 1449.58,839.588 1470.12,822.554 
  1490.66,815.994 1511.2,806.333 1531.74,811.196 1552.28,809.657 1572.82,826.309 1593.36,843.754 1613.9,858.813 1634.44,872.766 1654.99,879.694 1675.53,896.795 
  1696.07,911.872 1716.61,936.326 1737.15,954.222 1757.69,980.892 1778.23,1004.01 1798.77,1026.45 1819.31,1039.85 1839.85,1052.02 1860.39,1081.42 1880.93,1109.26 
  1901.47,1131.5 1922.02,1155.19 1942.56,1175.32 1963.1,1169.81 1983.64,1178.79 2004.18,1180.4 2024.72,1195.36 2045.26,1223.06 2065.8,1229.99 2086.34,1228.38 
  2106.88,1240.35 2127.42,1237.94 2147.96,1246.71 2168.51,1257.85 2189.05,1246.78 2209.59,1261.06 2230.13,1265.88 2250.67,1248.15 2271.21,1269.03 2291.75,1270.48 
  
  "/>
<polyline clip-path="url(#clip172)" style="stroke:#000000; stroke-linecap:round; stroke-linejoin:round; stroke-width:12; stroke-opacity:1; fill:none" stroke-dasharray="6, 12" points="
  258.212,1282.79 278.753,1282.09 299.294,1281.18 319.835,1279.99 340.375,1278.46 360.916,1276.49 381.457,1274.01 401.998,1270.91 422.539,1267.06 443.079,1262.34 
  463.62,1256.61 484.161,1249.73 504.702,1241.56 525.243,1231.96 545.783,1220.81 566.324,1208 586.865,1193.45 607.406,1177.12 627.946,1159.01 648.487,1139.18 
  669.028,1117.73 689.569,1094.85 710.11,1070.77 730.65,1045.81 751.191,1020.32 771.732,994.738 792.273,969.517 812.813,945.151 833.354,922.143 853.895,900.985 
  874.436,882.143 894.977,866.031 915.517,852.991 936.058,843.281 956.599,837.053 977.14,834.345 997.681,835.078 1018.22,839.05 1038.76,845.945 1059.3,855.342 
  1079.84,866.729 1100.38,879.526 1120.93,893.103 1141.47,906.812 1162.01,920.009 1182.55,932.08 1203.09,942.471 1223.63,950.707 1244.17,956.415 1264.71,959.335 
  1285.25,959.335 1305.79,956.415 1326.33,950.707 1346.87,942.471 1367.41,932.08 1387.96,920.009 1408.5,906.812 1429.04,893.103 1449.58,879.526 1470.12,866.729 
  1490.66,855.342 1511.2,845.945 1531.74,839.05 1552.28,835.078 1572.82,834.345 1593.36,837.053 1613.9,843.281 1634.44,852.991 1654.99,866.031 1675.53,882.143 
  1696.07,900.985 1716.61,922.143 1737.15,945.151 1757.69,969.517 1778.23,994.738 1798.77,1020.32 1819.31,1045.81 1839.85,1070.77 1860.39,1094.85 1880.93,1117.73 
  1901.47,1139.18 1922.02,1159.01 1942.56,1177.12 1963.1,1193.45 1983.64,1208 2004.18,1220.81 2024.72,1231.96 2045.26,1241.56 2065.8,1249.73 2086.34,1256.61 
  2106.88,1262.34 2127.42,1267.06 2147.96,1270.91 2168.51,1274.01 2189.05,1276.49 2209.59,1278.46 2230.13,1279.99 2250.67,1281.18 2271.21,1282.09 2291.75,1282.79 
  
  "/>
<polyline clip-path="url(#clip172)" style="stroke:#0000ff; stroke-linecap:round; stroke-linejoin:round; stroke-width:12; stroke-opacity:1; fill:none" stroke-dasharray="48, 30" points="
  258.212,1317.07 278.753,1315.26 299.294,1283.86 319.835,1285.46 340.375,1278.95 360.916,1267.9 381.457,1253.62 401.998,1230.48 422.539,1242.31 443.079,1247.01 
  463.62,1235.98 484.161,1244.95 504.702,1251.55 525.243,1243.44 545.783,1238.68 566.324,1247.01 586.865,1258.98 607.406,1276.3 627.946,1265.66 648.487,1262.72 
  669.028,1263.71 689.569,1280.09 710.11,1287.24 730.65,1285.41 751.191,1280.15 771.732,1264.97 792.273,1249.25 812.813,1250.69 833.354,1244.44 853.895,1231.83 
  874.436,1227.82 894.977,1214.45 915.517,1203.77 936.058,1208.8 956.599,1207.37 977.14,1196.51 997.681,1196.74 1018.22,1190.88 1038.76,1193.43 1059.3,1190.75 
  1079.84,1182.76 1100.38,1156.52 1120.93,1151.16 1141.47,1135.56 1162.01,1099.52 1182.55,1060.04 1203.09,1027.93 1223.63,993.698 1244.17,935.505 1264.71,879.347 
  1285.25,829.296 1305.79,779.372 1326.33,712.065 1346.87,657.088 1367.41,614.004 1387.96,573.555 1408.5,533.427 1429.04,475.933 1449.58,450.243 1470.12,407.704 
  1490.66,382.061 1511.2,345.363 1531.74,316.874 1552.28,289.727 1572.82,286.288 1593.36,283.922 1613.9,298.536 1634.44,338.008 1654.99,353.909 1675.53,399.951 
  1696.07,430.118 1716.61,486.012 1737.15,524.312 1757.69,563.531 1778.23,615.815 1798.77,677.192 1819.31,716.014 1839.85,753.708 1860.39,790.441 1880.93,826.086 
  1901.47,883.624 1922.02,925.66 1942.56,973.19 1963.1,1022.27 1983.64,1056.41 2004.18,1086.67 2024.72,1124.87 2045.26,1157.69 2065.8,1186.18 2086.34,1209.74 
  2106.88,1231.62 2127.42,1252.81 2147.96,1256.33 2168.51,1254.13 2189.05,1249.29 2209.59,1255.44 2230.13,1259.63 2250.67,1267.84 2271.21,1271.01 2291.75,1270.8 
  
  "/>
<polyline clip-path="url(#clip172)" style="stroke:#000000; stroke-linecap:round; stroke-linejoin:round; stroke-width:12; stroke-opacity:1; fill:none" stroke-dasharray="48, 30" points="
  258.212,1284.6 278.753,1284.56 299.294,1284.52 319.835,1284.46 340.375,1284.38 360.916,1284.29 381.457,1284.16 401.998,1284.01 422.539,1283.81 443.079,1283.58 
  463.62,1283.29 484.161,1282.95 504.702,1282.54 525.243,1282.06 545.783,1281.5 566.324,1280.86 586.865,1280.12 607.406,1279.29 627.946,1278.37 648.487,1277.34 
  669.028,1276.22 689.569,1275.01 710.11,1273.7 730.65,1272.29 751.191,1270.8 771.732,1269.21 792.273,1267.51 812.813,1265.68 833.354,1263.7 853.895,1261.51 
  874.436,1259.06 894.977,1256.25 915.517,1252.96 936.058,1249.04 956.599,1244.32 977.14,1238.56 997.681,1231.51 1018.22,1222.86 1038.76,1212.27 1059.3,1199.37 
  1079.84,1183.77 1100.38,1165.06 1120.93,1142.84 1141.47,1116.7 1162.01,1086.3 1182.55,1051.35 1203.09,1011.64 1223.63,967.062 1244.17,917.646 1264.71,863.574 
  1285.25,805.197 1305.79,743.043 1326.33,677.829 1346.87,610.451 1367.41,541.974 1387.96,473.61 1408.5,406.685 1429.04,342.603 1449.58,282.793 1470.12,228.663 
  1490.66,181.544 1511.2,142.636 1531.74,112.96 1552.28,93.3125 1572.82,84.2294 1593.36,85.9658 1613.9,98.4821 1634.44,121.447 1654.99,154.253 1675.53,196.042 
  1696.07,245.744 1716.61,302.124 1737.15,363.83 1757.69,429.45 1778.23,497.563 1798.77,566.791 1819.31,635.841 1839.85,703.543 1860.39,768.88 1880.93,831.005 
  1901.47,889.25 1922.02,943.129 1942.56,992.33 1963.1,1036.7 1983.64,1076.24 2004.18,1111.06 2024.72,1141.36 2045.26,1167.45 2065.8,1189.65 2086.34,1208.35 
  2106.88,1223.92 2127.42,1236.75 2147.96,1247.21 2168.51,1255.66 2189.05,1262.4 2209.59,1267.74 2230.13,1271.91 2250.67,1275.14 2271.21,1277.62 2291.75,1279.51 
  
  "/>
</svg>
