<?xml version="1.0" encoding="utf-8"?>
<svg xmlns="http://www.w3.org/2000/svg" xmlns:xlink="http://www.w3.org/1999/xlink" width="600" height="400" viewBox="0 0 2400 1600">
<defs>
  <clipPath id="clip270">
    <rect x="0" y="0" width="2400" height="1600"/>
  </clipPath>
</defs>
<path clip-path="url(#clip270)" d="
M0 1600 L2400 1600 L2400 0 L0 0  Z
  " fill="#ffffff" fill-rule="evenodd" fill-opacity="1"/>
<defs>
  <clipPath id="clip271">
    <rect x="480" y="0" width="1681" height="1600"/>
  </clipPath>
</defs>
<defs>
  <clipPath id="clip272">
    <rect x="279" y="47" width="2074" height="1308"/>
  </clipPath>
</defs>
<path clip-path="url(#clip270)" d="
M279.584 1354.06 L2352.76 1354.06 L2352.76 47.2441 L279.584 47.2441  Z
  " fill="#ffffff" fill-rule="evenodd" fill-opacity="1"/>
<polyline clip-path="url(#clip272)" style="stroke:#000000; stroke-linecap:round; stroke-linejoin:round; stroke-width:2; stroke-opacity:0.1; fill:none" points="
  338.259,1354.06 338.259,47.2441 
  "/>
<polyline clip-path="url(#clip272)" style="stroke:#000000; stroke-linecap:round; stroke-linejoin:round; stroke-width:2; stroke-opacity:0.1; fill:none" points="
  533.841,1354.06 533.841,47.2441 
  "/>
<polyline clip-path="url(#clip272)" style="stroke:#000000; stroke-linecap:round; stroke-linejoin:round; stroke-width:2; stroke-opacity:0.1; fill:none" points="
  729.423,1354.06 729.423,47.2441 
  "/>
<polyline clip-path="url(#clip272)" style="stroke:#000000; stroke-linecap:round; stroke-linejoin:round; stroke-width:2; stroke-opacity:0.1; fill:none" points="
  925.006,1354.06 925.006,47.2441 
  "/>
<polyline clip-path="url(#clip272)" style="stroke:#000000; stroke-linecap:round; stroke-linejoin:round; stroke-width:2; stroke-opacity:0.1; fill:none" points="
  1120.59,1354.06 1120.59,47.2441 
  "/>
<polyline clip-path="url(#clip272)" style="stroke:#000000; stroke-linecap:round; stroke-linejoin:round; stroke-width:2; stroke-opacity:0.1; fill:none" points="
  1316.17,1354.06 1316.17,47.2441 
  "/>
<polyline clip-path="url(#clip272)" style="stroke:#000000; stroke-linecap:round; stroke-linejoin:round; stroke-width:2; stroke-opacity:0.1; fill:none" points="
  1511.75,1354.06 1511.75,47.2441 
  "/>
<polyline clip-path="url(#clip272)" style="stroke:#000000; stroke-linecap:round; stroke-linejoin:round; stroke-width:2; stroke-opacity:0.1; fill:none" points="
  1707.33,1354.06 1707.33,47.2441 
  "/>
<polyline clip-path="url(#clip272)" style="stroke:#000000; stroke-linecap:round; stroke-linejoin:round; stroke-width:2; stroke-opacity:0.1; fill:none" points="
  1902.92,1354.06 1902.92,47.2441 
  "/>
<polyline clip-path="url(#clip272)" style="stroke:#000000; stroke-linecap:round; stroke-linejoin:round; stroke-width:2; stroke-opacity:0.1; fill:none" points="
  2098.5,1354.06 2098.5,47.2441 
  "/>
<polyline clip-path="url(#clip272)" style="stroke:#000000; stroke-linecap:round; stroke-linejoin:round; stroke-width:2; stroke-opacity:0.1; fill:none" points="
  2294.08,1354.06 2294.08,47.2441 
  "/>
<polyline clip-path="url(#clip270)" style="stroke:#000000; stroke-linecap:round; stroke-linejoin:round; stroke-width:4; stroke-opacity:1; fill:none" points="
  279.584,1354.06 2352.76,1354.06 
  "/>
<polyline clip-path="url(#clip270)" style="stroke:#000000; stroke-linecap:round; stroke-linejoin:round; stroke-width:4; stroke-opacity:1; fill:none" points="
  338.259,1354.06 338.259,1335.16 
  "/>
<polyline clip-path="url(#clip270)" style="stroke:#000000; stroke-linecap:round; stroke-linejoin:round; stroke-width:4; stroke-opacity:1; fill:none" points="
  533.841,1354.06 533.841,1335.16 
  "/>
<polyline clip-path="url(#clip270)" style="stroke:#000000; stroke-linecap:round; stroke-linejoin:round; stroke-width:4; stroke-opacity:1; fill:none" points="
  729.423,1354.06 729.423,1335.16 
  "/>
<polyline clip-path="url(#clip270)" style="stroke:#000000; stroke-linecap:round; stroke-linejoin:round; stroke-width:4; stroke-opacity:1; fill:none" points="
  925.006,1354.06 925.006,1335.16 
  "/>
<polyline clip-path="url(#clip270)" style="stroke:#000000; stroke-linecap:round; stroke-linejoin:round; stroke-width:4; stroke-opacity:1; fill:none" points="
  1120.59,1354.06 1120.59,1335.16 
  "/>
<polyline clip-path="url(#clip270)" style="stroke:#000000; stroke-linecap:round; stroke-linejoin:round; stroke-width:4; stroke-opacity:1; fill:none" points="
  1316.17,1354.06 1316.17,1335.16 
  "/>
<polyline clip-path="url(#clip270)" style="stroke:#000000; stroke-linecap:round; stroke-linejoin:round; stroke-width:4; stroke-opacity:1; fill:none" points="
  1511.75,1354.06 1511.75,1335.16 
  "/>
<polyline clip-path="url(#clip270)" style="stroke:#000000; stroke-linecap:round; stroke-linejoin:round; stroke-width:4; stroke-opacity:1; fill:none" points="
  1707.33,1354.06 1707.33,1335.16 
  "/>
<polyline clip-path="url(#clip270)" style="stroke:#000000; stroke-linecap:round; stroke-linejoin:round; stroke-width:4; stroke-opacity:1; fill:none" points="
  1902.92,1354.06 1902.92,1335.16 
  "/>
<polyline clip-path="url(#clip270)" style="stroke:#000000; stroke-linecap:round; stroke-linejoin:round; stroke-width:4; stroke-opacity:1; fill:none" points="
  2098.5,1354.06 2098.5,1335.16 
  "/>
<polyline clip-path="url(#clip270)" style="stroke:#000000; stroke-linecap:round; stroke-linejoin:round; stroke-width:4; stroke-opacity:1; fill:none" points="
  2294.08,1354.06 2294.08,1335.16 
  "/>
<path clip-path="url(#clip270)" d="M338.259 1395.23 Q331.488 1395.23 328.059 1401.92 Q324.674 1408.56 324.674 1421.92 Q324.674 1435.25 328.059 1441.93 Q331.488 1448.57 338.259 1448.57 Q345.073 1448.57 348.459 1441.93 Q351.887 1435.25 351.887 1421.92 Q351.887 1408.56 348.459 1401.92 Q345.073 1395.23 338.259 1395.23 M338.259 1388.29 Q349.153 1388.29 354.882 1396.93 Q360.655 1405.52 360.655 1421.92 Q360.655 1438.29 354.882 1446.92 Q349.153 1455.52 338.259 1455.52 Q327.365 1455.52 321.592 1446.92 Q315.863 1438.29 315.863 1421.92 Q315.863 1405.52 321.592 1396.93 Q327.365 1388.29 338.259 1388.29 Z" fill="#000000" fill-rule="evenodd" fill-opacity="1" /><path clip-path="url(#clip270)" d="M688.516 1395.23 Q681.746 1395.23 678.317 1401.92 Q674.931 1408.56 674.931 1421.92 Q674.931 1435.25 678.317 1441.93 Q681.746 1448.57 688.516 1448.57 Q695.331 1448.57 698.716 1441.93 Q702.145 1435.25 702.145 1421.92 Q702.145 1408.56 698.716 1401.92 Q695.331 1395.23 688.516 1395.23 M688.516 1388.29 Q699.411 1388.29 705.14 1396.93 Q710.912 1405.52 710.912 1421.92 Q710.912 1438.29 705.14 1446.92 Q699.411 1455.52 688.516 1455.52 Q677.622 1455.52 671.85 1446.92 Q666.121 1438.29 666.121 1421.92 Q666.121 1405.52 671.85 1396.93 Q677.622 1388.29 688.516 1388.29 Z" fill="#000000" fill-rule="evenodd" fill-opacity="1" /><path clip-path="url(#clip270)" d="M726.32 1443.24 L735.478 1443.24 L735.478 1454.26 L726.32 1454.26 L726.32 1443.24 Z" fill="#000000" fill-rule="evenodd" fill-opacity="1" /><path clip-path="url(#clip270)" d="M762.127 1446.88 L792.726 1446.88 L792.726 1454.26 L751.58 1454.26 L751.58 1446.88 Q756.572 1441.72 765.165 1433.04 Q773.802 1424.31 776.016 1421.79 Q780.226 1417.06 781.875 1413.81 Q783.568 1410.51 783.568 1407.34 Q783.568 1402.18 779.922 1398.92 Q776.32 1395.67 770.504 1395.67 Q766.381 1395.67 761.78 1397.1 Q757.223 1398.53 752.014 1401.44 L752.014 1392.58 Q757.31 1390.46 761.91 1389.37 Q766.511 1388.29 770.33 1388.29 Q780.4 1388.29 786.389 1393.32 Q792.379 1398.36 792.379 1406.78 Q792.379 1410.77 790.86 1414.37 Q789.384 1417.93 785.434 1422.79 Q784.349 1424.05 778.533 1430.08 Q772.717 1436.07 762.127 1446.88 Z" fill="#000000" fill-rule="evenodd" fill-opacity="1" /><path clip-path="url(#clip270)" d="M1077.73 1395.23 Q1070.96 1395.23 1067.53 1401.92 Q1064.14 1408.56 1064.14 1421.92 Q1064.14 1435.25 1067.53 1441.93 Q1070.96 1448.57 1077.73 1448.57 Q1084.54 1448.57 1087.93 1441.93 Q1091.36 1435.25 1091.36 1421.92 Q1091.36 1408.56 1087.93 1401.92 Q1084.54 1395.23 1077.73 1395.23 M1077.73 1388.29 Q1088.62 1388.29 1094.35 1396.93 Q1100.12 1405.52 1100.12 1421.92 Q1100.12 1438.29 1094.35 1446.92 Q1088.62 1455.52 1077.73 1455.52 Q1066.83 1455.52 1061.06 1446.92 Q1055.33 1438.29 1055.33 1421.92 Q1055.33 1405.52 1061.06 1396.93 Q1066.83 1388.29 1077.73 1388.29 Z" fill="#000000" fill-rule="evenodd" fill-opacity="1" /><path clip-path="url(#clip270)" d="M1115.53 1443.24 L1124.69 1443.24 L1124.69 1454.26 L1115.53 1454.26 L1115.53 1443.24 Z" fill="#000000" fill-rule="evenodd" fill-opacity="1" /><path clip-path="url(#clip270)" d="M1167.87 1397.1 L1145.74 1431.69 L1167.87 1431.69 L1167.87 1397.1 M1165.57 1389.46 L1176.6 1389.46 L1176.6 1431.69 L1185.84 1431.69 L1185.84 1438.98 L1176.6 1438.98 L1176.6 1454.26 L1167.87 1454.26 L1167.87 1438.98 L1138.62 1438.98 L1138.62 1430.52 L1165.57 1389.46 Z" fill="#000000" fill-rule="evenodd" fill-opacity="1" /><path clip-path="url(#clip270)" d="M1469.2 1395.23 Q1462.43 1395.23 1459 1401.92 Q1455.61 1408.56 1455.61 1421.92 Q1455.61 1435.25 1459 1441.93 Q1462.43 1448.57 1469.2 1448.57 Q1476.01 1448.57 1479.4 1441.93 Q1482.82 1435.25 1482.82 1421.92 Q1482.82 1408.56 1479.4 1401.92 Q1476.01 1395.23 1469.2 1395.23 M1469.2 1388.29 Q1480.09 1388.29 1485.82 1396.93 Q1491.59 1405.52 1491.59 1421.92 Q1491.59 1438.29 1485.82 1446.92 Q1480.09 1455.52 1469.2 1455.52 Q1458.3 1455.52 1452.53 1446.92 Q1446.8 1438.29 1446.8 1421.92 Q1446.8 1405.52 1452.53 1396.93 Q1458.3 1388.29 1469.2 1388.29 Z" fill="#000000" fill-rule="evenodd" fill-opacity="1" /><path clip-path="url(#clip270)" d="M1507 1443.24 L1516.16 1443.24 L1516.16 1454.26 L1507 1454.26 L1507 1443.24 Z" fill="#000000" fill-rule="evenodd" fill-opacity="1" /><path clip-path="url(#clip270)" d="M1555.09 1418.37 Q1549.19 1418.37 1545.71 1422.4 Q1542.29 1426.44 1542.29 1433.47 Q1542.29 1440.46 1545.71 1444.54 Q1549.19 1448.57 1555.09 1448.57 Q1560.99 1448.57 1564.42 1444.54 Q1567.89 1440.46 1567.89 1433.47 Q1567.89 1426.44 1564.42 1422.4 Q1560.99 1418.37 1555.09 1418.37 M1572.49 1390.89 L1572.49 1398.88 Q1569.2 1397.32 1565.81 1396.49 Q1562.47 1395.67 1559.17 1395.67 Q1550.49 1395.67 1545.89 1401.53 Q1541.33 1407.39 1540.68 1419.23 Q1543.24 1415.46 1547.1 1413.46 Q1550.97 1411.42 1555.61 1411.42 Q1565.38 1411.42 1571.02 1417.37 Q1576.7 1423.27 1576.7 1433.47 Q1576.7 1443.45 1570.8 1449.49 Q1564.9 1455.52 1555.09 1455.52 Q1543.85 1455.52 1537.9 1446.92 Q1531.96 1438.29 1531.96 1421.92 Q1531.96 1406.56 1539.25 1397.45 Q1546.54 1388.29 1558.82 1388.29 Q1562.12 1388.29 1565.46 1388.94 Q1568.85 1389.59 1572.49 1390.89 Z" fill="#000000" fill-rule="evenodd" fill-opacity="1" /><path clip-path="url(#clip270)" d="M1860.6 1395.23 Q1853.83 1395.23 1850.4 1401.92 Q1847.01 1408.56 1847.01 1421.92 Q1847.01 1435.25 1850.4 1441.93 Q1853.83 1448.57 1860.6 1448.57 Q1867.41 1448.57 1870.8 1441.93 Q1874.23 1435.25 1874.23 1421.92 Q1874.23 1408.56 1870.8 1401.92 Q1867.41 1395.23 1860.6 1395.23 M1860.6 1388.29 Q1871.49 1388.29 1877.22 1396.93 Q1883 1405.52 1883 1421.92 Q1883 1438.29 1877.22 1446.92 Q1871.49 1455.52 1860.6 1455.52 Q1849.71 1455.52 1843.93 1446.92 Q1838.2 1438.29 1838.2 1421.92 Q1838.2 1405.52 1843.93 1396.93 Q1849.71 1388.29 1860.6 1388.29 Z" fill="#000000" fill-rule="evenodd" fill-opacity="1" /><path clip-path="url(#clip270)" d="M1898.4 1443.24 L1907.56 1443.24 L1907.56 1454.26 L1898.4 1454.26 L1898.4 1443.24 Z" fill="#000000" fill-rule="evenodd" fill-opacity="1" /><path clip-path="url(#clip270)" d="M1945.41 1423.49 Q1939.16 1423.49 1935.56 1426.83 Q1932 1430.17 1932 1436.03 Q1932 1441.89 1935.56 1445.23 Q1939.16 1448.57 1945.41 1448.57 Q1951.66 1448.57 1955.26 1445.23 Q1958.86 1441.85 1958.86 1436.03 Q1958.86 1430.17 1955.26 1426.83 Q1951.7 1423.49 1945.41 1423.49 M1936.64 1419.75 Q1931 1418.37 1927.83 1414.5 Q1924.7 1410.64 1924.7 1405.08 Q1924.7 1397.32 1930.22 1392.8 Q1935.77 1388.29 1945.41 1388.29 Q1955.09 1388.29 1960.6 1392.8 Q1966.11 1397.32 1966.11 1405.08 Q1966.11 1410.64 1962.94 1414.5 Q1959.82 1418.37 1954.22 1419.75 Q1960.56 1421.23 1964.07 1425.53 Q1967.63 1429.82 1967.63 1436.03 Q1967.63 1445.45 1961.86 1450.48 Q1956.13 1455.52 1945.41 1455.52 Q1934.69 1455.52 1928.91 1450.48 Q1923.19 1445.45 1923.19 1436.03 Q1923.19 1429.82 1926.74 1425.53 Q1930.3 1421.23 1936.64 1419.75 M1933.43 1405.91 Q1933.43 1410.94 1936.55 1413.77 Q1939.72 1416.59 1945.41 1416.59 Q1951.05 1416.59 1954.22 1413.77 Q1957.43 1410.94 1957.43 1405.91 Q1957.43 1400.87 1954.22 1398.05 Q1951.05 1395.23 1945.41 1395.23 Q1939.72 1395.23 1936.55 1398.05 Q1933.43 1400.87 1933.43 1405.91 Z" fill="#000000" fill-rule="evenodd" fill-opacity="1" /><path clip-path="url(#clip270)" d="M2276.05 1446.88 L2290.37 1446.88 L2290.37 1397.45 L2274.79 1400.57 L2274.79 1392.58 L2290.28 1389.46 L2299.05 1389.46 L2299.05 1446.88 L2313.37 1446.88 L2313.37 1454.26 L2276.05 1454.26 L2276.05 1446.88 Z" fill="#000000" fill-rule="evenodd" fill-opacity="1" /><path clip-path="url(#clip270)" d="M1341.94 1519.59 Q1341.94 1522.87 1339.89 1524.74 Q1337.84 1526.56 1335.5 1526.56 Q1333.27 1526.56 1332.1 1525.27 Q1330.93 1523.98 1330.93 1522.34 Q1330.93 1520.12 1332.57 1518.18 Q1334.21 1516.25 1336.67 1515.84 Q1334.27 1514.32 1330.7 1514.32 Q1328.35 1514.32 1326.3 1515.55 Q1324.31 1516.78 1323.08 1518.36 Q1321.91 1519.94 1320.86 1522.22 Q1319.86 1524.45 1319.45 1525.8 Q1319.1 1527.08 1318.81 1528.49 L1314.71 1544.89 Q1312.72 1552.67 1312.72 1555.43 Q1312.72 1558.82 1314.36 1561.11 Q1316 1563.33 1319.28 1563.33 Q1320.57 1563.33 1322.03 1562.98 Q1323.49 1562.57 1325.37 1561.52 Q1327.3 1560.4 1329 1558.76 Q1330.75 1557.07 1332.45 1554.2 Q1334.15 1551.33 1335.26 1547.64 Q1335.62 1546.35 1336.79 1546.35 Q1338.25 1546.35 1338.25 1547.52 Q1338.25 1548.52 1337.43 1550.62 Q1336.67 1552.67 1334.97 1555.37 Q1333.33 1558 1331.16 1560.4 Q1329 1562.75 1325.78 1564.39 Q1322.56 1566.02 1319.04 1566.02 Q1314.01 1566.02 1310.67 1563.33 Q1307.33 1560.64 1306.1 1556.89 Q1305.81 1557.42 1305.4 1558.12 Q1304.99 1558.82 1303.76 1560.4 Q1302.59 1561.93 1301.24 1563.1 Q1299.9 1564.21 1297.79 1565.09 Q1295.74 1566.02 1293.51 1566.02 Q1290.7 1566.02 1288.18 1565.2 Q1285.73 1564.39 1283.97 1562.51 Q1282.21 1560.64 1282.21 1558.06 Q1282.21 1555.19 1284.14 1553.2 Q1286.14 1551.15 1288.83 1551.15 Q1290.53 1551.15 1291.87 1552.15 Q1293.28 1553.14 1293.28 1555.31 Q1293.28 1557.71 1291.64 1559.53 Q1290 1561.34 1287.66 1561.81 Q1290.06 1563.33 1293.63 1563.33 Q1297.5 1563.33 1300.54 1559.93 Q1303.58 1556.54 1305.05 1550.86 Q1308.68 1537.22 1310.08 1531.13 Q1311.49 1524.98 1311.49 1522.34 Q1311.49 1519.88 1310.85 1518.18 Q1310.2 1516.49 1309.09 1515.73 Q1308.04 1514.91 1307.04 1514.61 Q1306.1 1514.32 1305.05 1514.32 Q1303.29 1514.32 1301.3 1515.02 Q1299.37 1515.73 1297.03 1517.36 Q1294.74 1518.95 1292.58 1522.22 Q1290.41 1525.5 1288.95 1530.01 Q1288.65 1531.36 1287.36 1531.36 Q1285.96 1531.3 1285.96 1530.13 Q1285.96 1529.13 1286.72 1527.08 Q1287.54 1524.98 1289.18 1522.34 Q1290.88 1519.71 1293.04 1517.36 Q1295.27 1514.96 1298.49 1513.32 Q1301.77 1511.68 1305.28 1511.68 Q1306.86 1511.68 1308.39 1512.04 Q1309.97 1512.33 1311.84 1513.21 Q1313.77 1514.09 1315.47 1516.02 Q1317.17 1517.95 1318.22 1520.76 Q1318.93 1519.41 1319.86 1518.13 Q1320.86 1516.84 1322.38 1515.26 Q1323.96 1513.62 1326.13 1512.68 Q1328.35 1511.68 1330.81 1511.68 Q1333.21 1511.68 1335.56 1512.33 Q1337.9 1512.91 1339.89 1514.85 Q1341.94 1516.72 1341.94 1519.59 Z" fill="#000000" fill-rule="evenodd" fill-opacity="1" /><polyline clip-path="url(#clip272)" style="stroke:#000000; stroke-linecap:round; stroke-linejoin:round; stroke-width:2; stroke-opacity:0.1; fill:none" points="
  279.584,1283.04 2352.76,1283.04 
  "/>
<polyline clip-path="url(#clip272)" style="stroke:#000000; stroke-linecap:round; stroke-linejoin:round; stroke-width:2; stroke-opacity:0.1; fill:none" points="
  279.584,967.144 2352.76,967.144 
  "/>
<polyline clip-path="url(#clip272)" style="stroke:#000000; stroke-linecap:round; stroke-linejoin:round; stroke-width:2; stroke-opacity:0.1; fill:none" points="
  279.584,651.247 2352.76,651.247 
  "/>
<polyline clip-path="url(#clip272)" style="stroke:#000000; stroke-linecap:round; stroke-linejoin:round; stroke-width:2; stroke-opacity:0.1; fill:none" points="
  279.584,335.35 2352.76,335.35 
  "/>
<polyline clip-path="url(#clip270)" style="stroke:#000000; stroke-linecap:round; stroke-linejoin:round; stroke-width:4; stroke-opacity:1; fill:none" points="
  279.584,1354.06 279.584,47.2441 
  "/>
<polyline clip-path="url(#clip270)" style="stroke:#000000; stroke-linecap:round; stroke-linejoin:round; stroke-width:4; stroke-opacity:1; fill:none" points="
  279.584,1283.04 298.482,1283.04 
  "/>
<polyline clip-path="url(#clip270)" style="stroke:#000000; stroke-linecap:round; stroke-linejoin:round; stroke-width:4; stroke-opacity:1; fill:none" points="
  279.584,967.144 298.482,967.144 
  "/>
<polyline clip-path="url(#clip270)" style="stroke:#000000; stroke-linecap:round; stroke-linejoin:round; stroke-width:4; stroke-opacity:1; fill:none" points="
  279.584,651.247 298.482,651.247 
  "/>
<polyline clip-path="url(#clip270)" style="stroke:#000000; stroke-linecap:round; stroke-linejoin:round; stroke-width:4; stroke-opacity:1; fill:none" points="
  279.584,335.35 298.482,335.35 
  "/>
<path clip-path="url(#clip270)" d="M136.38 1256.41 Q129.609 1256.41 126.18 1263.1 Q122.795 1269.74 122.795 1283.11 Q122.795 1296.43 126.18 1303.11 Q129.609 1309.76 136.38 1309.76 Q143.194 1309.76 146.58 1303.11 Q150.008 1296.43 150.008 1283.11 Q150.008 1269.74 146.58 1263.1 Q143.194 1256.41 136.38 1256.41 M136.38 1249.47 Q147.274 1249.47 153.003 1258.11 Q158.776 1266.7 158.776 1283.11 Q158.776 1299.47 153.003 1308.11 Q147.274 1316.7 136.38 1316.7 Q125.486 1316.7 119.713 1308.11 Q113.984 1299.47 113.984 1283.11 Q113.984 1266.7 119.713 1258.11 Q125.486 1249.47 136.38 1249.47 Z" fill="#000000" fill-rule="evenodd" fill-opacity="1" /><path clip-path="url(#clip270)" d="M174.184 1304.42 L183.342 1304.42 L183.342 1315.44 L174.184 1315.44 L174.184 1304.42 Z" fill="#000000" fill-rule="evenodd" fill-opacity="1" /><path clip-path="url(#clip270)" d="M221.189 1256.41 Q214.418 1256.41 210.989 1263.1 Q207.604 1269.74 207.604 1283.11 Q207.604 1296.43 210.989 1303.11 Q214.418 1309.76 221.189 1309.76 Q228.003 1309.76 231.388 1303.11 Q234.817 1296.43 234.817 1283.11 Q234.817 1269.74 231.388 1263.1 Q228.003 1256.41 221.189 1256.41 M221.189 1249.47 Q232.083 1249.47 237.812 1258.11 Q243.584 1266.7 243.584 1283.11 Q243.584 1299.47 237.812 1308.11 Q232.083 1316.7 221.189 1316.7 Q210.294 1316.7 204.522 1308.11 Q198.793 1299.47 198.793 1283.11 Q198.793 1266.7 204.522 1258.11 Q210.294 1249.47 221.189 1249.47 Z" fill="#000000" fill-rule="evenodd" fill-opacity="1" /><path clip-path="url(#clip270)" d="M138.246 940.517 Q131.475 940.517 128.047 947.201 Q124.661 953.841 124.661 967.209 Q124.661 980.534 128.047 987.218 Q131.475 993.858 138.246 993.858 Q145.06 993.858 148.446 987.218 Q151.875 980.534 151.875 967.209 Q151.875 953.841 148.446 947.201 Q145.06 940.517 138.246 940.517 M138.246 933.572 Q149.14 933.572 154.869 942.209 Q160.642 950.803 160.642 967.209 Q160.642 983.572 154.869 992.209 Q149.14 1000.8 138.246 1000.8 Q127.352 1000.8 121.58 992.209 Q115.851 983.572 115.851 967.209 Q115.851 950.803 121.58 942.209 Q127.352 933.572 138.246 933.572 Z" fill="#000000" fill-rule="evenodd" fill-opacity="1" /><path clip-path="url(#clip270)" d="M176.05 988.52 L185.208 988.52 L185.208 999.544 L176.05 999.544 L176.05 988.52 Z" fill="#000000" fill-rule="evenodd" fill-opacity="1" /><path clip-path="url(#clip270)" d="M204.392 934.744 L238.81 934.744 L238.81 942.123 L212.421 942.123 L212.421 958.008 Q214.331 957.357 216.241 957.053 Q218.15 956.706 220.06 956.706 Q230.911 956.706 237.247 962.652 Q243.584 968.598 243.584 978.754 Q243.584 989.214 237.074 995.03 Q230.563 1000.8 218.715 1000.8 Q214.635 1000.8 210.381 1000.11 Q206.171 999.414 201.657 998.025 L201.657 989.214 Q205.564 991.341 209.73 992.383 Q213.897 993.424 218.541 993.424 Q226.05 993.424 230.433 989.475 Q234.817 985.525 234.817 978.754 Q234.817 971.984 230.433 968.034 Q226.05 964.084 218.541 964.084 Q215.025 964.084 211.51 964.865 Q208.038 965.647 204.392 967.296 L204.392 934.744 Z" fill="#000000" fill-rule="evenodd" fill-opacity="1" /><path clip-path="url(#clip270)" d="M119.149 676.269 L133.472 676.269 L133.472 626.833 L117.89 629.958 L117.89 621.972 L133.385 618.847 L142.153 618.847 L142.153 676.269 L156.475 676.269 L156.475 683.647 L119.149 683.647 L119.149 676.269 Z" fill="#000000" fill-rule="evenodd" fill-opacity="1" /><path clip-path="url(#clip270)" d="M174.184 672.623 L183.342 672.623 L183.342 683.647 L174.184 683.647 L174.184 672.623 Z" fill="#000000" fill-rule="evenodd" fill-opacity="1" /><path clip-path="url(#clip270)" d="M221.189 624.62 Q214.418 624.62 210.989 631.304 Q207.604 637.944 207.604 651.312 Q207.604 664.637 210.989 671.321 Q214.418 677.961 221.189 677.961 Q228.003 677.961 231.388 671.321 Q234.817 664.637 234.817 651.312 Q234.817 637.944 231.388 631.304 Q228.003 624.62 221.189 624.62 M221.189 617.675 Q232.083 617.675 237.812 626.312 Q243.584 634.906 243.584 651.312 Q243.584 667.675 237.812 676.312 Q232.083 684.906 221.189 684.906 Q210.294 684.906 204.522 676.312 Q198.793 667.675 198.793 651.312 Q198.793 634.906 204.522 626.312 Q210.294 617.675 221.189 617.675 Z" fill="#000000" fill-rule="evenodd" fill-opacity="1" /><path clip-path="url(#clip270)" d="M121.015 360.372 L135.338 360.372 L135.338 310.936 L119.757 314.061 L119.757 306.075 L135.251 302.95 L144.019 302.95 L144.019 360.372 L158.342 360.372 L158.342 367.75 L121.015 367.75 L121.015 360.372 Z" fill="#000000" fill-rule="evenodd" fill-opacity="1" /><path clip-path="url(#clip270)" d="M176.05 356.726 L185.208 356.726 L185.208 367.75 L176.05 367.75 L176.05 356.726 Z" fill="#000000" fill-rule="evenodd" fill-opacity="1" /><path clip-path="url(#clip270)" d="M204.392 302.95 L238.81 302.95 L238.81 310.328 L212.421 310.328 L212.421 326.214 Q214.331 325.563 216.241 325.259 Q218.15 324.912 220.06 324.912 Q230.911 324.912 237.247 330.858 Q243.584 336.804 243.584 346.96 Q243.584 357.42 237.074 363.236 Q230.563 369.009 218.715 369.009 Q214.635 369.009 210.381 368.314 Q206.171 367.62 201.657 366.231 L201.657 357.42 Q205.564 359.547 209.73 360.589 Q213.897 361.63 218.541 361.63 Q226.05 361.63 230.433 357.681 Q234.817 353.731 234.817 346.96 Q234.817 340.189 230.433 336.24 Q226.05 332.29 218.541 332.29 Q215.025 332.29 211.51 333.071 Q208.038 333.853 204.392 335.502 L204.392 302.95 Z" fill="#000000" fill-rule="evenodd" fill-opacity="1" /><polyline clip-path="url(#clip272)" style="stroke:#000000; stroke-linecap:round; stroke-linejoin:round; stroke-width:12; stroke-opacity:1; fill:none" points="
  338.259,1277.96 358.015,1276.12 377.77,1273.69 397.526,1270.52 417.282,1266.44 437.038,1261.21 456.794,1254.61 476.549,1246.34 496.305,1236.09 516.061,1223.52 
  535.817,1208.28 555.573,1189.97 575.328,1168.22 595.084,1142.67 614.84,1112.99 634.596,1078.89 654.351,1040.16 674.107,996.691 693.863,948.485 713.619,895.687 
  733.375,838.597 753.13,777.684 772.886,713.592 792.642,647.135 812.398,579.294 832.153,511.188 851.909,444.051 871.665,379.19 891.421,317.943 911.177,261.623 
  930.932,211.466 950.688,168.575 970.444,133.865 990.2,108.016 1009.96,91.4365 1029.71,84.2294 1049.47,86.1803 1069.22,96.7541 1088.98,115.109 1108.73,140.123 
  1128.49,170.435 1148.25,204.498 1168,240.641 1187.76,277.134 1207.51,312.262 1227.27,344.395 1247.02,372.056 1266.78,393.982 1286.54,409.174 1306.29,416.946 
  1326.05,416.946 1345.8,409.174 1365.56,393.982 1385.32,372.056 1405.07,344.395 1424.83,312.262 1444.58,277.134 1464.34,240.641 1484.09,204.498 1503.85,170.435 
  1523.61,140.123 1543.36,115.109 1563.12,96.7541 1582.87,86.1803 1602.63,84.2294 1622.38,91.4365 1642.14,108.016 1661.9,133.865 1681.65,168.575 1701.41,211.466 
  1721.16,261.623 1740.92,317.943 1760.68,379.19 1780.43,444.051 1800.19,511.188 1819.94,579.294 1839.7,647.135 1859.45,713.592 1879.21,777.684 1898.97,838.597 
  1918.72,895.687 1938.48,948.485 1958.23,996.691 1977.99,1040.16 1997.74,1078.89 2017.5,1112.99 2037.26,1142.67 2057.01,1168.22 2076.77,1189.97 2096.52,1208.28 
  2116.28,1223.52 2136.03,1236.09 2155.79,1246.34 2175.55,1254.61 2195.3,1261.21 2215.06,1266.44 2234.81,1270.52 2254.57,1273.69 2274.33,1276.12 2294.08,1277.96 
  
  "/>
<polyline clip-path="url(#clip272)" style="stroke:#0000ff; stroke-linecap:round; stroke-linejoin:round; stroke-width:12; stroke-opacity:1; fill:none" points="
  338.259,1317.07 358.015,1294.87 377.77,1289.85 397.526,1268.63 417.282,1244.32 437.038,1233.36 456.794,1214.45 476.549,1190.29 496.305,1165.92 516.061,1165.45 
  535.817,1151.79 555.573,1127.73 575.328,1102.75 595.084,1066.79 614.84,1022.01 634.596,982.638 654.351,943.139 674.107,915.367 693.863,865.32 713.619,814.83 
  733.375,776.224 753.13,730.146 772.886,691.408 792.642,645.908 812.398,611.23 832.153,573.562 851.909,514.702 871.665,451.479 891.421,408.61 911.177,354.513 
  930.932,287.053 950.688,263.961 970.444,216.935 990.2,212.634 1009.96,188.954 1029.71,168.331 1049.47,169.805 1069.22,180.117 1088.98,188.415 1108.73,215.805 
  1128.49,246.511 1148.25,266.248 1168,278.173 1187.76,285.252 1207.51,302.401 1227.27,312.175 1247.02,320.01 1266.78,359.7 1286.54,367.349 1306.29,379.709 
  1326.05,351.32 1345.8,375.872 1365.56,381.18 1385.32,360.633 1405.07,345.964 1424.83,334.244 1444.58,321.826 1464.34,281.354 1484.09,254.594 1503.85,231.249 
  1523.61,227.856 1543.36,202.252 1563.12,189.75 1582.87,195.239 1602.63,192.851 1622.38,209.389 1642.14,221.041 1661.9,236.419 1681.65,263.859 1701.41,294.907 
  1721.16,314.733 1740.92,372.707 1760.68,406.105 1780.43,467.396 1800.19,531.621 1819.94,599.537 1839.7,646.532 1859.45,724.39 1879.21,790.488 1898.97,841.003 
  1918.72,894.472 1938.48,934.225 1958.23,995.527 1977.99,1024.64 1997.74,1051.43 2017.5,1085.14 2037.26,1152.01 2057.01,1188.12 2076.77,1203.86 2096.52,1214.73 
  2116.28,1234.4 2136.03,1256.9 2155.79,1253.84 2175.55,1252.38 2195.3,1274.93 2215.06,1258.41 2234.81,1240.26 2254.57,1283.1 2274.33,1280.57 2294.08,1301.86 
  
  "/>
</svg>
