<?xml version="1.0" encoding="utf-8"?>
<svg xmlns="http://www.w3.org/2000/svg" xmlns:xlink="http://www.w3.org/1999/xlink" width="600" height="400" viewBox="0 0 2400 1600">
<defs>
  <clipPath id="clip370">
    <rect x="0" y="0" width="2400" height="1600"/>
  </clipPath>
</defs>
<path clip-path="url(#clip370)" d="
M0 1600 L2400 1600 L2400 0 L0 0  Z
  " fill="#ffffff" fill-rule="evenodd" fill-opacity="1"/>
<defs>
  <clipPath id="clip371">
    <rect x="480" y="0" width="1681" height="1600"/>
  </clipPath>
</defs>
<defs>
  <clipPath id="clip372">
    <rect x="280" y="47" width="2073" height="1410"/>
  </clipPath>
</defs>
<path clip-path="url(#clip370)" d="
M280.496 1456.21 L2352.76 1456.21 L2352.76 47.2441 L280.496 47.2441  Z
  " fill="#ffffff" fill-rule="evenodd" fill-opacity="1"/>
<polyline clip-path="url(#clip372)" style="stroke:#000000; stroke-linecap:round; stroke-linejoin:round; stroke-width:2; stroke-opacity:0.1; fill:none" points="
  280.496,1456.21 280.496,47.2441 
  "/>
<polyline clip-path="url(#clip372)" style="stroke:#000000; stroke-linecap:round; stroke-linejoin:round; stroke-width:2; stroke-opacity:0.1; fill:none" points="
  694.948,1456.21 694.948,47.2441 
  "/>
<polyline clip-path="url(#clip372)" style="stroke:#000000; stroke-linecap:round; stroke-linejoin:round; stroke-width:2; stroke-opacity:0.1; fill:none" points="
  1109.4,1456.21 1109.4,47.2441 
  "/>
<polyline clip-path="url(#clip372)" style="stroke:#000000; stroke-linecap:round; stroke-linejoin:round; stroke-width:2; stroke-opacity:0.1; fill:none" points="
  1523.85,1456.21 1523.85,47.2441 
  "/>
<polyline clip-path="url(#clip372)" style="stroke:#000000; stroke-linecap:round; stroke-linejoin:round; stroke-width:2; stroke-opacity:0.1; fill:none" points="
  1938.3,1456.21 1938.3,47.2441 
  "/>
<polyline clip-path="url(#clip372)" style="stroke:#000000; stroke-linecap:round; stroke-linejoin:round; stroke-width:2; stroke-opacity:0.1; fill:none" points="
  2352.76,1456.21 2352.76,47.2441 
  "/>
<polyline clip-path="url(#clip370)" style="stroke:#000000; stroke-linecap:round; stroke-linejoin:round; stroke-width:4; stroke-opacity:1; fill:none" points="
  280.496,1456.21 2352.76,1456.21 
  "/>
<polyline clip-path="url(#clip370)" style="stroke:#000000; stroke-linecap:round; stroke-linejoin:round; stroke-width:4; stroke-opacity:1; fill:none" points="
  280.496,1456.21 280.496,1437.31 
  "/>
<polyline clip-path="url(#clip370)" style="stroke:#000000; stroke-linecap:round; stroke-linejoin:round; stroke-width:4; stroke-opacity:1; fill:none" points="
  694.948,1456.21 694.948,1437.31 
  "/>
<polyline clip-path="url(#clip370)" style="stroke:#000000; stroke-linecap:round; stroke-linejoin:round; stroke-width:4; stroke-opacity:1; fill:none" points="
  1109.4,1456.21 1109.4,1437.31 
  "/>
<polyline clip-path="url(#clip370)" style="stroke:#000000; stroke-linecap:round; stroke-linejoin:round; stroke-width:4; stroke-opacity:1; fill:none" points="
  1523.85,1456.21 1523.85,1437.31 
  "/>
<polyline clip-path="url(#clip370)" style="stroke:#000000; stroke-linecap:round; stroke-linejoin:round; stroke-width:4; stroke-opacity:1; fill:none" points="
  1938.3,1456.21 1938.3,1437.31 
  "/>
<polyline clip-path="url(#clip370)" style="stroke:#000000; stroke-linecap:round; stroke-linejoin:round; stroke-width:4; stroke-opacity:1; fill:none" points="
  2352.76,1456.21 2352.76,1437.31 
  "/>
<path clip-path="url(#clip370)" d="M238.091 1497.38 Q231.321 1497.38 227.892 1504.06 Q224.506 1510.7 224.506 1524.07 Q224.506 1537.4 227.892 1544.08 Q231.321 1550.72 238.091 1550.72 Q244.906 1550.72 248.291 1544.08 Q251.72 1537.4 251.72 1524.07 Q251.72 1510.7 248.291 1504.06 Q244.906 1497.38 238.091 1497.38 M238.091 1490.44 Q248.985 1490.44 254.715 1499.07 Q260.487 1507.67 260.487 1524.07 Q260.487 1540.44 254.715 1549.07 Q248.985 1557.67 238.091 1557.67 Q227.197 1557.67 221.425 1549.07 Q215.696 1540.44 215.696 1524.07 Q215.696 1507.67 221.425 1499.07 Q227.197 1490.44 238.091 1490.44 Z" fill="#000000" fill-rule="evenodd" fill-opacity="1" /><path clip-path="url(#clip370)" d="M275.895 1545.38 L285.053 1545.38 L285.053 1556.41 L275.895 1556.41 L275.895 1545.38 Z" fill="#000000" fill-rule="evenodd" fill-opacity="1" /><path clip-path="url(#clip370)" d="M322.9 1497.38 Q316.129 1497.38 312.7 1504.06 Q309.315 1510.7 309.315 1524.07 Q309.315 1537.4 312.7 1544.08 Q316.129 1550.72 322.9 1550.72 Q329.714 1550.72 333.1 1544.08 Q336.528 1537.4 336.528 1524.07 Q336.528 1510.7 333.1 1504.06 Q329.714 1497.38 322.9 1497.38 M322.9 1490.44 Q333.794 1490.44 339.523 1499.07 Q345.296 1507.67 345.296 1524.07 Q345.296 1540.44 339.523 1549.07 Q333.794 1557.67 322.9 1557.67 Q312.006 1557.67 306.233 1549.07 Q300.504 1540.44 300.504 1524.07 Q300.504 1507.67 306.233 1499.07 Q312.006 1490.44 322.9 1490.44 Z" fill="#000000" fill-rule="evenodd" fill-opacity="1" /><path clip-path="url(#clip370)" d="M654.041 1497.38 Q647.27 1497.38 643.841 1504.06 Q640.456 1510.7 640.456 1524.07 Q640.456 1537.4 643.841 1544.08 Q647.27 1550.72 654.041 1550.72 Q660.855 1550.72 664.24 1544.08 Q667.669 1537.4 667.669 1524.07 Q667.669 1510.7 664.24 1504.06 Q660.855 1497.38 654.041 1497.38 M654.041 1490.44 Q664.935 1490.44 670.664 1499.07 Q676.437 1507.67 676.437 1524.07 Q676.437 1540.44 670.664 1549.07 Q664.935 1557.67 654.041 1557.67 Q643.147 1557.67 637.374 1549.07 Q631.645 1540.44 631.645 1524.07 Q631.645 1507.67 637.374 1499.07 Q643.147 1490.44 654.041 1490.44 Z" fill="#000000" fill-rule="evenodd" fill-opacity="1" /><path clip-path="url(#clip370)" d="M691.844 1545.38 L701.002 1545.38 L701.002 1556.41 L691.844 1556.41 L691.844 1545.38 Z" fill="#000000" fill-rule="evenodd" fill-opacity="1" /><path clip-path="url(#clip370)" d="M727.652 1549.03 L758.25 1549.03 L758.25 1556.41 L717.105 1556.41 L717.105 1549.03 Q722.096 1543.86 730.69 1535.18 Q739.327 1526.46 741.54 1523.94 Q745.75 1519.21 747.4 1515.96 Q749.092 1512.66 749.092 1509.49 Q749.092 1504.32 745.447 1501.07 Q741.844 1497.81 736.028 1497.81 Q731.905 1497.81 727.304 1499.25 Q722.747 1500.68 717.539 1503.59 L717.539 1494.73 Q722.834 1492.61 727.435 1491.52 Q732.035 1490.44 735.855 1490.44 Q745.924 1490.44 751.914 1495.47 Q757.903 1500.51 757.903 1508.93 Q757.903 1512.92 756.384 1516.52 Q754.908 1520.08 750.959 1524.94 Q749.874 1526.2 744.058 1532.23 Q738.242 1538.22 727.652 1549.03 Z" fill="#000000" fill-rule="evenodd" fill-opacity="1" /><path clip-path="url(#clip370)" d="M1066.54 1497.38 Q1059.77 1497.38 1056.34 1504.06 Q1052.95 1510.7 1052.95 1524.07 Q1052.95 1537.4 1056.34 1544.08 Q1059.77 1550.72 1066.54 1550.72 Q1073.35 1550.72 1076.74 1544.08 Q1080.17 1537.4 1080.17 1524.07 Q1080.17 1510.7 1076.74 1504.06 Q1073.35 1497.38 1066.54 1497.38 M1066.54 1490.44 Q1077.43 1490.44 1083.16 1499.07 Q1088.94 1507.67 1088.94 1524.07 Q1088.94 1540.44 1083.16 1549.07 Q1077.43 1557.67 1066.54 1557.67 Q1055.65 1557.67 1049.87 1549.07 Q1044.14 1540.44 1044.14 1524.07 Q1044.14 1507.67 1049.87 1499.07 Q1055.65 1490.44 1066.54 1490.44 Z" fill="#000000" fill-rule="evenodd" fill-opacity="1" /><path clip-path="url(#clip370)" d="M1104.34 1545.38 L1113.5 1545.38 L1113.5 1556.41 L1104.34 1556.41 L1104.34 1545.38 Z" fill="#000000" fill-rule="evenodd" fill-opacity="1" /><path clip-path="url(#clip370)" d="M1156.69 1499.25 L1134.55 1533.84 L1156.69 1533.84 L1156.69 1499.25 M1154.39 1491.61 L1165.41 1491.61 L1165.41 1533.84 L1174.66 1533.84 L1174.66 1541.13 L1165.41 1541.13 L1165.41 1556.41 L1156.69 1556.41 L1156.69 1541.13 L1127.43 1541.13 L1127.43 1532.67 L1154.39 1491.61 Z" fill="#000000" fill-rule="evenodd" fill-opacity="1" /><path clip-path="url(#clip370)" d="M1481.3 1497.38 Q1474.52 1497.38 1471.1 1504.06 Q1467.71 1510.7 1467.71 1524.07 Q1467.71 1537.4 1471.1 1544.08 Q1474.52 1550.72 1481.3 1550.72 Q1488.11 1550.72 1491.5 1544.08 Q1494.92 1537.4 1494.92 1524.07 Q1494.92 1510.7 1491.5 1504.06 Q1488.11 1497.38 1481.3 1497.38 M1481.3 1490.44 Q1492.19 1490.44 1497.92 1499.07 Q1503.69 1507.67 1503.69 1524.07 Q1503.69 1540.44 1497.92 1549.07 Q1492.19 1557.67 1481.3 1557.67 Q1470.4 1557.67 1464.63 1549.07 Q1458.9 1540.44 1458.9 1524.07 Q1458.9 1507.67 1464.63 1499.07 Q1470.4 1490.44 1481.3 1490.44 Z" fill="#000000" fill-rule="evenodd" fill-opacity="1" /><path clip-path="url(#clip370)" d="M1519.1 1545.38 L1528.26 1545.38 L1528.26 1556.41 L1519.1 1556.41 L1519.1 1545.38 Z" fill="#000000" fill-rule="evenodd" fill-opacity="1" /><path clip-path="url(#clip370)" d="M1567.19 1520.51 Q1561.29 1520.51 1557.81 1524.55 Q1554.39 1528.59 1554.39 1535.62 Q1554.39 1542.61 1557.81 1546.69 Q1561.29 1550.72 1567.19 1550.72 Q1573.09 1550.72 1576.52 1546.69 Q1579.99 1542.61 1579.99 1535.62 Q1579.99 1528.59 1576.52 1524.55 Q1573.09 1520.51 1567.19 1520.51 M1584.59 1493.04 L1584.59 1501.03 Q1581.3 1499.46 1577.91 1498.64 Q1574.57 1497.81 1571.27 1497.81 Q1562.59 1497.81 1557.99 1503.67 Q1553.43 1509.53 1552.78 1521.38 Q1555.34 1517.61 1559.2 1515.61 Q1563.07 1513.57 1567.71 1513.57 Q1577.48 1513.57 1583.12 1519.52 Q1588.8 1525.42 1588.8 1535.62 Q1588.8 1545.6 1582.9 1551.63 Q1577 1557.67 1567.19 1557.67 Q1555.95 1557.67 1550 1549.07 Q1544.06 1540.44 1544.06 1524.07 Q1544.06 1508.71 1551.35 1499.59 Q1558.64 1490.44 1570.92 1490.44 Q1574.22 1490.44 1577.56 1491.09 Q1580.95 1491.74 1584.59 1493.04 Z" fill="#000000" fill-rule="evenodd" fill-opacity="1" /><path clip-path="url(#clip370)" d="M1895.99 1497.38 Q1889.22 1497.38 1885.79 1504.06 Q1882.4 1510.7 1882.4 1524.07 Q1882.4 1537.4 1885.79 1544.08 Q1889.22 1550.72 1895.99 1550.72 Q1902.8 1550.72 1906.19 1544.08 Q1909.61 1537.4 1909.61 1524.07 Q1909.61 1510.7 1906.19 1504.06 Q1902.8 1497.38 1895.99 1497.38 M1895.99 1490.44 Q1906.88 1490.44 1912.61 1499.07 Q1918.38 1507.67 1918.38 1524.07 Q1918.38 1540.44 1912.61 1549.07 Q1906.88 1557.67 1895.99 1557.67 Q1885.09 1557.67 1879.32 1549.07 Q1873.59 1540.44 1873.59 1524.07 Q1873.59 1507.67 1879.32 1499.07 Q1885.09 1490.44 1895.99 1490.44 Z" fill="#000000" fill-rule="evenodd" fill-opacity="1" /><path clip-path="url(#clip370)" d="M1933.79 1545.38 L1942.95 1545.38 L1942.95 1556.41 L1933.79 1556.41 L1933.79 1545.38 Z" fill="#000000" fill-rule="evenodd" fill-opacity="1" /><path clip-path="url(#clip370)" d="M1980.79 1525.64 Q1974.54 1525.64 1970.94 1528.98 Q1967.38 1532.32 1967.38 1538.18 Q1967.38 1544.04 1970.94 1547.38 Q1974.54 1550.72 1980.79 1550.72 Q1987.04 1550.72 1990.65 1547.38 Q1994.25 1543.99 1994.25 1538.18 Q1994.25 1532.32 1990.65 1528.98 Q1987.09 1525.64 1980.79 1525.64 M1972.03 1521.9 Q1966.39 1520.51 1963.22 1516.65 Q1960.09 1512.79 1960.09 1507.23 Q1960.09 1499.46 1965.6 1494.95 Q1971.16 1490.44 1980.79 1490.44 Q1990.47 1490.44 1995.99 1494.95 Q2001.5 1499.46 2001.5 1507.23 Q2001.5 1512.79 1998.33 1516.65 Q1995.2 1520.51 1989.61 1521.9 Q1995.94 1523.38 1999.46 1527.68 Q2003.02 1531.97 2003.02 1538.18 Q2003.02 1547.6 1997.24 1552.63 Q1991.52 1557.67 1980.79 1557.67 Q1970.07 1557.67 1964.3 1552.63 Q1958.57 1547.6 1958.57 1538.18 Q1958.57 1531.97 1962.13 1527.68 Q1965.69 1523.38 1972.03 1521.9 M1968.82 1508.06 Q1968.82 1513.09 1971.94 1515.91 Q1975.11 1518.73 1980.79 1518.73 Q1986.44 1518.73 1989.61 1515.91 Q1992.82 1513.09 1992.82 1508.06 Q1992.82 1503.02 1989.61 1500.2 Q1986.44 1497.38 1980.79 1497.38 Q1975.11 1497.38 1971.94 1500.2 Q1968.82 1503.02 1968.82 1508.06 Z" fill="#000000" fill-rule="evenodd" fill-opacity="1" /><path clip-path="url(#clip370)" d="M2291.17 1549.03 L2305.49 1549.03 L2305.49 1499.59 L2289.91 1502.72 L2289.91 1494.73 L2305.4 1491.61 L2314.17 1491.61 L2314.17 1549.03 L2328.49 1549.03 L2328.49 1556.41 L2291.17 1556.41 L2291.17 1549.03 Z" fill="#000000" fill-rule="evenodd" fill-opacity="1" /><path clip-path="url(#clip370)" d="M2346.2 1545.38 L2355.36 1545.38 L2355.36 1556.41 L2346.2 1556.41 L2346.2 1545.38 Z" fill="#000000" fill-rule="evenodd" fill-opacity="1" /><path clip-path="url(#clip370)" d="M2393.21 1497.38 Q2386.44 1497.38 2383.01 1504.06 Q2379.62 1510.7 2379.62 1524.07 Q2379.62 1537.4 2383.01 1544.08 Q2386.44 1550.72 2393.21 1550.72 Q2400.02 1550.72 2403.41 1544.08 Q2406.84 1537.4 2406.84 1524.07 Q2406.84 1510.7 2403.41 1504.06 Q2400.02 1497.38 2393.21 1497.38 M2393.21 1490.44 Q2404.1 1490.44 2409.83 1499.07 Q2415.6 1507.67 2415.6 1524.07 Q2415.6 1540.44 2409.83 1549.07 Q2404.1 1557.67 2393.21 1557.67 Q2382.31 1557.67 2376.54 1549.07 Q2370.81 1540.44 2370.81 1524.07 Q2370.81 1507.67 2376.54 1499.07 Q2382.31 1490.44 2393.21 1490.44 Z" fill="#000000" fill-rule="evenodd" fill-opacity="1" /><polyline clip-path="url(#clip372)" style="stroke:#000000; stroke-linecap:round; stroke-linejoin:round; stroke-width:2; stroke-opacity:0.1; fill:none" points="
  280.496,1456.21 2352.76,1456.21 
  "/>
<polyline clip-path="url(#clip372)" style="stroke:#000000; stroke-linecap:round; stroke-linejoin:round; stroke-width:2; stroke-opacity:0.1; fill:none" points="
  280.496,1174.42 2352.76,1174.42 
  "/>
<polyline clip-path="url(#clip372)" style="stroke:#000000; stroke-linecap:round; stroke-linejoin:round; stroke-width:2; stroke-opacity:0.1; fill:none" points="
  280.496,892.622 2352.76,892.622 
  "/>
<polyline clip-path="url(#clip372)" style="stroke:#000000; stroke-linecap:round; stroke-linejoin:round; stroke-width:2; stroke-opacity:0.1; fill:none" points="
  280.496,610.83 2352.76,610.83 
  "/>
<polyline clip-path="url(#clip372)" style="stroke:#000000; stroke-linecap:round; stroke-linejoin:round; stroke-width:2; stroke-opacity:0.1; fill:none" points="
  280.496,329.037 2352.76,329.037 
  "/>
<polyline clip-path="url(#clip372)" style="stroke:#000000; stroke-linecap:round; stroke-linejoin:round; stroke-width:2; stroke-opacity:0.1; fill:none" points="
  280.496,47.2441 2352.76,47.2441 
  "/>
<polyline clip-path="url(#clip370)" style="stroke:#000000; stroke-linecap:round; stroke-linejoin:round; stroke-width:4; stroke-opacity:1; fill:none" points="
  280.496,1456.21 280.496,47.2441 
  "/>
<polyline clip-path="url(#clip370)" style="stroke:#000000; stroke-linecap:round; stroke-linejoin:round; stroke-width:4; stroke-opacity:1; fill:none" points="
  280.496,1456.21 299.393,1456.21 
  "/>
<polyline clip-path="url(#clip370)" style="stroke:#000000; stroke-linecap:round; stroke-linejoin:round; stroke-width:4; stroke-opacity:1; fill:none" points="
  280.496,1174.42 299.393,1174.42 
  "/>
<polyline clip-path="url(#clip370)" style="stroke:#000000; stroke-linecap:round; stroke-linejoin:round; stroke-width:4; stroke-opacity:1; fill:none" points="
  280.496,892.622 299.393,892.622 
  "/>
<polyline clip-path="url(#clip370)" style="stroke:#000000; stroke-linecap:round; stroke-linejoin:round; stroke-width:4; stroke-opacity:1; fill:none" points="
  280.496,610.83 299.393,610.83 
  "/>
<polyline clip-path="url(#clip370)" style="stroke:#000000; stroke-linecap:round; stroke-linejoin:round; stroke-width:4; stroke-opacity:1; fill:none" points="
  280.496,329.037 299.393,329.037 
  "/>
<polyline clip-path="url(#clip370)" style="stroke:#000000; stroke-linecap:round; stroke-linejoin:round; stroke-width:4; stroke-opacity:1; fill:none" points="
  280.496,47.2441 299.393,47.2441 
  "/>
<path clip-path="url(#clip370)" d="M137.291 1429.58 Q130.521 1429.58 127.092 1436.26 Q123.706 1442.9 123.706 1456.27 Q123.706 1469.6 127.092 1476.28 Q130.521 1482.92 137.291 1482.92 Q144.106 1482.92 147.491 1476.28 Q150.92 1469.6 150.92 1456.27 Q150.92 1442.9 147.491 1436.26 Q144.106 1429.58 137.291 1429.58 M137.291 1422.64 Q148.185 1422.64 153.915 1431.27 Q159.687 1439.87 159.687 1456.27 Q159.687 1472.64 153.915 1481.27 Q148.185 1489.87 137.291 1489.87 Q126.397 1489.87 120.625 1481.27 Q114.896 1472.64 114.896 1456.27 Q114.896 1439.87 120.625 1431.27 Q126.397 1422.64 137.291 1422.64 Z" fill="#000000" fill-rule="evenodd" fill-opacity="1" /><path clip-path="url(#clip370)" d="M175.095 1477.58 L184.253 1477.58 L184.253 1488.61 L175.095 1488.61 L175.095 1477.58 Z" fill="#000000" fill-rule="evenodd" fill-opacity="1" /><path clip-path="url(#clip370)" d="M222.1 1429.58 Q215.329 1429.58 211.9 1436.26 Q208.515 1442.9 208.515 1456.27 Q208.515 1469.6 211.9 1476.28 Q215.329 1482.92 222.1 1482.92 Q228.914 1482.92 232.3 1476.28 Q235.728 1469.6 235.728 1456.27 Q235.728 1442.9 232.3 1436.26 Q228.914 1429.58 222.1 1429.58 M222.1 1422.64 Q232.994 1422.64 238.723 1431.27 Q244.496 1439.87 244.496 1456.27 Q244.496 1472.64 238.723 1481.27 Q232.994 1489.87 222.1 1489.87 Q211.206 1489.87 205.433 1481.27 Q199.704 1472.64 199.704 1456.27 Q199.704 1439.87 205.433 1431.27 Q211.206 1422.64 222.1 1422.64 Z" fill="#000000" fill-rule="evenodd" fill-opacity="1" /><path clip-path="url(#clip370)" d="M140.286 1147.79 Q133.515 1147.79 130.087 1154.47 Q126.701 1161.11 126.701 1174.48 Q126.701 1187.8 130.087 1194.49 Q133.515 1201.13 140.286 1201.13 Q147.1 1201.13 150.486 1194.49 Q153.915 1187.8 153.915 1174.48 Q153.915 1161.11 150.486 1154.47 Q147.1 1147.79 140.286 1147.79 M140.286 1140.84 Q151.18 1140.84 156.909 1149.48 Q162.682 1158.07 162.682 1174.48 Q162.682 1190.84 156.909 1199.48 Q151.18 1208.07 140.286 1208.07 Q129.392 1208.07 123.62 1199.48 Q117.89 1190.84 117.89 1174.48 Q117.89 1158.07 123.62 1149.48 Q129.392 1140.84 140.286 1140.84 Z" fill="#000000" fill-rule="evenodd" fill-opacity="1" /><path clip-path="url(#clip370)" d="M178.09 1195.79 L187.248 1195.79 L187.248 1206.82 L178.09 1206.82 L178.09 1195.79 Z" fill="#000000" fill-rule="evenodd" fill-opacity="1" /><path clip-path="url(#clip370)" d="M213.897 1199.44 L244.496 1199.44 L244.496 1206.82 L203.35 1206.82 L203.35 1199.44 Q208.341 1194.27 216.935 1185.59 Q225.572 1176.87 227.786 1174.35 Q231.996 1169.62 233.645 1166.36 Q235.338 1163.07 235.338 1159.9 Q235.338 1154.73 231.692 1151.48 Q228.09 1148.22 222.274 1148.22 Q218.15 1148.22 213.55 1149.65 Q208.992 1151.09 203.784 1153.99 L203.784 1145.14 Q209.079 1143.01 213.68 1141.93 Q218.281 1140.84 222.1 1140.84 Q232.169 1140.84 238.159 1145.88 Q244.148 1150.91 244.148 1159.33 Q244.148 1163.33 242.629 1166.93 Q241.154 1170.49 237.204 1175.35 Q236.119 1176.61 230.303 1182.64 Q224.487 1188.63 213.897 1199.44 Z" fill="#000000" fill-rule="evenodd" fill-opacity="1" /><path clip-path="url(#clip370)" d="M136.38 865.995 Q129.609 865.995 126.18 872.679 Q122.795 879.319 122.795 892.687 Q122.795 906.012 126.18 912.696 Q129.609 919.337 136.38 919.337 Q143.194 919.337 146.58 912.696 Q150.008 906.012 150.008 892.687 Q150.008 879.319 146.58 872.679 Q143.194 865.995 136.38 865.995 M136.38 859.05 Q147.274 859.05 153.003 867.688 Q158.776 876.281 158.776 892.687 Q158.776 909.05 153.003 917.687 Q147.274 926.281 136.38 926.281 Q125.486 926.281 119.713 917.687 Q113.984 909.05 113.984 892.687 Q113.984 876.281 119.713 867.688 Q125.486 859.05 136.38 859.05 Z" fill="#000000" fill-rule="evenodd" fill-opacity="1" /><path clip-path="url(#clip370)" d="M174.184 913.998 L183.342 913.998 L183.342 925.022 L174.184 925.022 L174.184 913.998 Z" fill="#000000" fill-rule="evenodd" fill-opacity="1" /><path clip-path="url(#clip370)" d="M226.527 867.861 L204.392 902.453 L226.527 902.453 L226.527 867.861 M224.227 860.222 L235.251 860.222 L235.251 902.453 L244.496 902.453 L244.496 909.745 L235.251 909.745 L235.251 925.022 L226.527 925.022 L226.527 909.745 L197.274 909.745 L197.274 901.281 L224.227 860.222 Z" fill="#000000" fill-rule="evenodd" fill-opacity="1" /><path clip-path="url(#clip370)" d="M136.988 584.202 Q130.217 584.202 126.788 590.886 Q123.403 597.527 123.403 610.895 Q123.403 624.219 126.788 630.903 Q130.217 637.544 136.988 637.544 Q143.802 637.544 147.187 630.903 Q150.616 624.219 150.616 610.895 Q150.616 597.527 147.187 590.886 Q143.802 584.202 136.988 584.202 M136.988 577.258 Q147.882 577.258 153.611 585.895 Q159.383 594.489 159.383 610.895 Q159.383 627.257 153.611 635.895 Q147.882 644.488 136.988 644.488 Q126.094 644.488 120.321 635.895 Q114.592 627.257 114.592 610.895 Q114.592 594.489 120.321 585.895 Q126.094 577.258 136.988 577.258 Z" fill="#000000" fill-rule="evenodd" fill-opacity="1" /><path clip-path="url(#clip370)" d="M174.791 632.205 L183.949 632.205 L183.949 643.23 L174.791 643.23 L174.791 632.205 Z" fill="#000000" fill-rule="evenodd" fill-opacity="1" /><path clip-path="url(#clip370)" d="M222.881 607.336 Q216.978 607.336 213.506 611.372 Q210.077 615.409 210.077 622.44 Q210.077 629.428 213.506 633.507 Q216.978 637.544 222.881 637.544 Q228.784 637.544 232.213 633.507 Q235.685 629.428 235.685 622.44 Q235.685 615.409 232.213 611.372 Q228.784 607.336 222.881 607.336 M240.286 579.862 L240.286 587.848 Q236.987 586.285 233.602 585.461 Q230.26 584.636 226.961 584.636 Q218.281 584.636 213.68 590.496 Q209.123 596.355 208.472 608.204 Q211.032 604.428 214.895 602.431 Q218.758 600.391 223.402 600.391 Q233.168 600.391 238.81 606.337 Q244.496 612.24 244.496 622.44 Q244.496 632.422 238.593 638.455 Q232.69 644.488 222.881 644.488 Q211.64 644.488 205.694 635.895 Q199.748 627.257 199.748 610.895 Q199.748 595.53 207.039 586.416 Q214.331 577.258 226.614 577.258 Q229.912 577.258 233.254 577.909 Q236.64 578.56 240.286 579.862 Z" fill="#000000" fill-rule="evenodd" fill-opacity="1" /><path clip-path="url(#clip370)" d="M137.465 302.409 Q130.694 302.409 127.265 309.093 Q123.88 315.734 123.88 329.102 Q123.88 342.427 127.265 349.111 Q130.694 355.751 137.465 355.751 Q144.279 355.751 147.665 349.111 Q151.093 342.427 151.093 329.102 Q151.093 315.734 147.665 309.093 Q144.279 302.409 137.465 302.409 M137.465 295.465 Q148.359 295.465 154.088 304.102 Q159.861 312.696 159.861 329.102 Q159.861 345.465 154.088 354.102 Q148.359 362.696 137.465 362.696 Q126.571 362.696 120.798 354.102 Q115.069 345.465 115.069 329.102 Q115.069 312.696 120.798 304.102 Q126.571 295.465 137.465 295.465 Z" fill="#000000" fill-rule="evenodd" fill-opacity="1" /><path clip-path="url(#clip370)" d="M175.269 350.413 L184.427 350.413 L184.427 361.437 L175.269 361.437 L175.269 350.413 Z" fill="#000000" fill-rule="evenodd" fill-opacity="1" /><path clip-path="url(#clip370)" d="M222.274 330.664 Q216.024 330.664 212.421 334.006 Q208.862 337.348 208.862 343.208 Q208.862 349.067 212.421 352.409 Q216.024 355.751 222.274 355.751 Q228.524 355.751 232.126 352.409 Q235.728 349.024 235.728 343.208 Q235.728 337.348 232.126 334.006 Q228.567 330.664 222.274 330.664 M213.506 326.932 Q207.864 325.543 204.696 321.68 Q201.571 317.817 201.571 312.262 Q201.571 304.493 207.083 299.979 Q212.638 295.465 222.274 295.465 Q231.952 295.465 237.464 299.979 Q242.977 304.493 242.977 312.262 Q242.977 317.817 239.808 321.68 Q236.683 325.543 231.084 326.932 Q237.421 328.408 240.937 332.704 Q244.496 337.001 244.496 343.208 Q244.496 352.626 238.723 357.661 Q232.994 362.696 222.274 362.696 Q211.553 362.696 205.781 357.661 Q200.051 352.626 200.051 343.208 Q200.051 337.001 203.611 332.704 Q207.17 328.408 213.506 326.932 M210.294 313.086 Q210.294 318.121 213.419 320.942 Q216.588 323.763 222.274 323.763 Q227.916 323.763 231.084 320.942 Q234.296 318.121 234.296 313.086 Q234.296 308.052 231.084 305.231 Q227.916 302.409 222.274 302.409 Q216.588 302.409 213.419 305.231 Q210.294 308.052 210.294 313.086 Z" fill="#000000" fill-rule="evenodd" fill-opacity="1" /><path clip-path="url(#clip370)" d="M120.061 72.2657 L134.383 72.2657 L134.383 22.8302 L118.802 25.9551 L118.802 17.9691 L134.297 14.8441 L143.064 14.8441 L143.064 72.2657 L157.387 72.2657 L157.387 79.6441 L120.061 79.6441 L120.061 72.2657 Z" fill="#000000" fill-rule="evenodd" fill-opacity="1" /><path clip-path="url(#clip370)" d="M175.095 68.6198 L184.253 68.6198 L184.253 79.6441 L175.095 79.6441 L175.095 68.6198 Z" fill="#000000" fill-rule="evenodd" fill-opacity="1" /><path clip-path="url(#clip370)" d="M222.1 20.6166 Q215.329 20.6166 211.9 27.3006 Q208.515 33.9412 208.515 47.3092 Q208.515 60.6338 211.9 67.3178 Q215.329 73.9584 222.1 73.9584 Q228.914 73.9584 232.3 67.3178 Q235.728 60.6338 235.728 47.3092 Q235.728 33.9412 232.3 27.3006 Q228.914 20.6166 222.1 20.6166 M222.1 13.6722 Q232.994 13.6722 238.723 22.3093 Q244.496 30.903 244.496 47.3092 Q244.496 63.672 238.723 72.3091 Q232.994 80.9028 222.1 80.9028 Q211.206 80.9028 205.433 72.3091 Q199.704 63.672 199.704 47.3092 Q199.704 30.903 205.433 22.3093 Q211.206 13.6722 222.1 13.6722 Z" fill="#000000" fill-rule="evenodd" fill-opacity="1" /><path clip-path="url(#clip370)" d="
M1104.88 1321.29 L2283.68 1321.29 L2283.68 94.2096 L1104.88 94.2096  Z
  " fill="#ffffff" fill-rule="evenodd" fill-opacity="1"/>
<polyline clip-path="url(#clip370)" style="stroke:#000000; stroke-linecap:round; stroke-linejoin:round; stroke-width:4; stroke-opacity:1; fill:none" points="
  1104.88,1321.29 2283.68,1321.29 2283.68,94.2096 1104.88,94.2096 1104.88,1321.29 
  "/>
<polyline clip-path="url(#clip370)" style="stroke:#000000; stroke-linecap:round; stroke-linejoin:round; stroke-width:7.5; stroke-opacity:1; fill:none" points="
  1127.91,298.723 1266.06,298.723 
  "/>
<path clip-path="url(#clip370)" d="M1333.92 263.772 Q1333.92 266.188 1332.38 267.681 Q1330.89 269.174 1329 269.174 Q1327.64 269.174 1326.63 268.34 Q1325.66 267.505 1325.66 266.056 Q1325.66 264.563 1326.81 262.982 Q1327.95 261.401 1330.54 261.181 Q1328.83 259.556 1326.1 259.556 Q1324.74 259.556 1323.6 260.435 Q1322.5 261.269 1321.89 262.631 Q1321.23 264.036 1319.74 271.985 Q1319.25 274.576 1318.81 277.079 Q1318.37 279.583 1317.85 282.218 L1325.31 282.218 Q1326.28 282.218 1326.67 282.262 Q1327.07 282.305 1327.38 282.525 Q1327.73 282.745 1327.73 283.228 Q1327.73 284.457 1327.16 284.765 Q1326.63 285.028 1325.05 285.028 L1317.32 285.028 L1311.92 313.531 Q1311.79 314.365 1311.22 317 Q1310.69 319.591 1309.41 323.851 Q1308.14 328.155 1306.87 330.702 Q1306.16 332.151 1305.24 333.513 Q1304.36 334.918 1303.09 336.323 Q1301.82 337.729 1300.15 338.563 Q1298.48 339.442 1296.72 339.442 Q1293.74 339.442 1291.41 337.773 Q1289.08 336.104 1289.08 333.249 Q1289.08 330.834 1290.57 329.341 Q1292.11 327.847 1294 327.847 Q1295.36 327.847 1296.33 328.682 Q1297.34 329.516 1297.34 330.966 Q1297.34 331.58 1297.12 332.283 Q1296.9 332.986 1296.42 333.776 Q1295.93 334.611 1294.88 335.182 Q1293.82 335.753 1292.37 335.84 Q1294.09 337.465 1296.72 337.465 Q1297.56 337.465 1298.3 337.114 Q1299.05 336.807 1299.66 336.016 Q1300.32 335.226 1300.81 334.435 Q1301.29 333.688 1301.77 332.239 Q1302.26 330.834 1302.56 329.78 Q1302.87 328.726 1303.27 326.837 Q1303.71 324.949 1303.92 323.807 Q1304.14 322.709 1304.54 320.557 L1311.26 285.028 L1305.33 285.028 Q1304.28 285.028 1303.84 284.984 Q1303.44 284.941 1303.13 284.721 Q1302.83 284.457 1302.83 283.93 Q1302.83 283.096 1303.18 282.745 Q1303.57 282.349 1304.01 282.305 Q1304.45 282.218 1305.51 282.218 L1311.74 282.218 Q1313.85 271.107 1314.68 268.12 Q1315.65 264.958 1317.14 262.762 Q1318.64 260.523 1320.31 259.469 Q1321.97 258.415 1323.34 258.019 Q1324.74 257.58 1326.1 257.58 Q1329.18 257.58 1331.55 259.249 Q1333.92 260.874 1333.92 263.772 Z" fill="#000000" fill-rule="evenodd" fill-opacity="1" /><circle clip-path="url(#clip370)" cx="1196.98" cy="503.236" r="43.2" fill="#008000" fill-rule="evenodd" fill-opacity="1" stroke="#000000" stroke-opacity="1" stroke-width="9.6"/>
<path clip-path="url(#clip370)" d="M1323.63 488.458 L1323.63 496.01 Q1320.24 494.274 1316.6 493.406 Q1312.95 492.538 1309.05 492.538 Q1303.1 492.538 1300.11 494.361 Q1297.15 496.184 1297.15 499.829 Q1297.15 502.607 1299.28 504.213 Q1301.41 505.775 1307.83 507.208 L1310.57 507.815 Q1319.07 509.638 1322.63 512.98 Q1326.23 516.279 1326.23 522.225 Q1326.23 528.996 1320.85 532.945 Q1315.51 536.895 1306.14 536.895 Q1302.23 536.895 1297.98 536.114 Q1293.77 535.376 1289.08 533.857 L1289.08 525.61 Q1293.51 527.911 1297.8 529.083 Q1302.1 530.211 1306.31 530.211 Q1311.95 530.211 1314.99 528.301 Q1318.03 526.348 1318.03 522.833 Q1318.03 519.577 1315.82 517.841 Q1313.65 516.105 1306.22 514.499 L1303.45 513.848 Q1296.03 512.286 1292.73 509.074 Q1289.43 505.819 1289.43 500.177 Q1289.43 493.319 1294.29 489.586 Q1299.15 485.854 1308.09 485.854 Q1312.52 485.854 1316.42 486.505 Q1320.33 487.156 1323.63 488.458 Z" fill="#000000" fill-rule="evenodd" fill-opacity="1" /><path clip-path="url(#clip370)" d="M1361.04 511.201 Q1351.36 511.201 1347.63 513.414 Q1343.9 515.628 1343.9 520.966 Q1343.9 525.22 1346.68 527.737 Q1349.5 530.211 1354.31 530.211 Q1360.96 530.211 1364.95 525.524 Q1368.99 520.793 1368.99 512.98 L1368.99 511.201 L1361.04 511.201 M1376.97 507.902 L1376.97 535.636 L1368.99 535.636 L1368.99 528.258 Q1366.25 532.685 1362.17 534.812 Q1358.09 536.895 1352.19 536.895 Q1344.72 536.895 1340.3 532.728 Q1335.91 528.518 1335.91 521.487 Q1335.91 513.284 1341.38 509.117 Q1346.89 504.951 1357.79 504.951 L1368.99 504.951 L1368.99 504.17 Q1368.99 498.657 1365.34 495.663 Q1361.74 492.625 1355.18 492.625 Q1351.02 492.625 1347.07 493.623 Q1343.12 494.621 1339.47 496.618 L1339.47 489.239 Q1343.85 487.546 1347.98 486.722 Q1352.1 485.854 1356.01 485.854 Q1366.55 485.854 1371.76 491.322 Q1376.97 496.791 1376.97 507.902 Z" fill="#000000" fill-rule="evenodd" fill-opacity="1" /><path clip-path="url(#clip370)" d="M1431.27 496.357 Q1434.26 490.975 1438.43 488.414 Q1442.6 485.854 1448.24 485.854 Q1455.83 485.854 1459.96 491.192 Q1464.08 496.487 1464.08 506.296 L1464.08 535.636 L1456.05 535.636 L1456.05 506.557 Q1456.05 499.569 1453.58 496.184 Q1451.1 492.798 1446.02 492.798 Q1439.82 492.798 1436.22 496.921 Q1432.61 501.045 1432.61 508.163 L1432.61 535.636 L1424.58 535.636 L1424.58 506.557 Q1424.58 499.526 1422.11 496.184 Q1419.64 492.798 1414.47 492.798 Q1408.35 492.798 1404.75 496.965 Q1401.15 501.088 1401.15 508.163 L1401.15 535.636 L1393.12 535.636 L1393.12 487.026 L1401.15 487.026 L1401.15 494.578 Q1403.88 490.107 1407.7 487.98 Q1411.52 485.854 1416.77 485.854 Q1422.07 485.854 1425.76 488.545 Q1429.49 491.236 1431.27 496.357 Z" fill="#000000" fill-rule="evenodd" fill-opacity="1" /><path clip-path="url(#clip370)" d="M1487.73 528.345 L1487.73 554.126 L1479.7 554.126 L1479.7 487.026 L1487.73 487.026 L1487.73 494.404 Q1490.25 490.064 1494.07 487.98 Q1497.93 485.854 1503.27 485.854 Q1512.13 485.854 1517.64 492.885 Q1523.19 499.916 1523.19 511.374 Q1523.19 522.833 1517.64 529.864 Q1512.13 536.895 1503.27 536.895 Q1497.93 536.895 1494.07 534.812 Q1490.25 532.685 1487.73 528.345 M1514.9 511.374 Q1514.9 502.564 1511.26 497.572 Q1507.66 492.538 1501.32 492.538 Q1494.98 492.538 1491.34 497.572 Q1487.73 502.564 1487.73 511.374 Q1487.73 520.185 1491.34 525.22 Q1494.98 530.211 1501.32 530.211 Q1507.66 530.211 1511.26 525.22 Q1514.9 520.185 1514.9 511.374 Z" fill="#000000" fill-rule="evenodd" fill-opacity="1" /><path clip-path="url(#clip370)" d="M1536.43 468.102 L1544.42 468.102 L1544.42 535.636 L1536.43 535.636 L1536.43 468.102 Z" fill="#000000" fill-rule="evenodd" fill-opacity="1" /><path clip-path="url(#clip370)" d="M1602.71 509.334 L1602.71 513.241 L1565.99 513.241 Q1566.51 521.487 1570.94 525.827 Q1575.41 530.124 1583.35 530.124 Q1587.95 530.124 1592.25 528.996 Q1596.59 527.867 1600.84 525.61 L1600.84 533.162 Q1596.54 534.985 1592.03 535.94 Q1587.52 536.895 1582.87 536.895 Q1571.24 536.895 1564.43 530.124 Q1557.66 523.354 1557.66 511.808 Q1557.66 499.873 1564.08 492.885 Q1570.55 485.854 1581.48 485.854 Q1591.29 485.854 1596.98 492.19 Q1602.71 498.484 1602.71 509.334 M1594.72 506.991 Q1594.63 500.437 1591.03 496.531 Q1587.47 492.625 1581.57 492.625 Q1574.89 492.625 1570.85 496.401 Q1566.86 500.177 1566.25 507.034 L1594.72 506.991 Z" fill="#000000" fill-rule="evenodd" fill-opacity="1" /><polyline clip-path="url(#clip370)" style="stroke:#0000ff; stroke-linecap:round; stroke-linejoin:round; stroke-width:7.5; stroke-opacity:1; fill:none" stroke-dasharray="30, 15, 4, 15, 4, 15" points="
  1127.91,707.75 1266.06,707.75 
  "/>
<path clip-path="url(#clip370)" d="M1379.2 677.742 Q1379.2 679.015 1378.63 679.279 Q1378.1 679.542 1376.34 679.542 Q1374.28 679.542 1373.01 679.718 Q1371.73 679.85 1370.94 680.069 Q1370.15 680.245 1369.67 680.86 Q1369.23 681.475 1369.05 682.002 Q1368.88 682.485 1368.57 683.671 L1356.63 731.584 Q1356.19 733.209 1356.19 733.78 Q1356.19 734.351 1356.54 734.702 Q1356.93 735.054 1357.9 735.229 Q1358.87 735.361 1359.61 735.405 Q1360.4 735.405 1362.03 735.405 Q1364.05 735.405 1364.35 735.756 Q1364.53 735.976 1364.53 736.371 Q1364.53 737.206 1364.18 737.645 Q1363.83 738.04 1363.52 738.128 Q1363.26 738.172 1362.82 738.172 Q1360.97 738.172 1357.2 738.04 Q1353.42 737.908 1351.57 737.908 L1340.42 738.172 Q1339.1 738.172 1339.1 737.074 Q1339.1 736.239 1339.45 735.888 Q1339.81 735.493 1340.2 735.449 Q1340.6 735.405 1341.61 735.405 Q1345.21 735.405 1346.74 735.01 Q1348.33 734.614 1348.76 733.912 Q1349.25 733.165 1349.77 731.145 L1362.64 679.63 L1362.55 679.63 L1326.23 736.547 L1325.97 736.942 Q1325.71 737.293 1325.62 737.425 Q1325.53 737.513 1325.27 737.776 Q1325.05 737.996 1324.79 738.084 Q1324.57 738.172 1324.26 738.172 Q1323.73 738.172 1323.42 737.82 Q1323.16 737.469 1323.07 737.206 Q1323.03 736.898 1322.9 736.108 L1315.17 680.333 L1315.08 680.333 L1302.83 729.344 Q1302.48 730.706 1302.48 731.409 Q1302.48 733.209 1303.75 734.307 Q1305.07 735.361 1308.58 735.405 Q1310.21 735.405 1310.21 736.371 Q1310.21 738.172 1308.58 738.172 Q1307.09 738.172 1303.97 738.04 Q1300.85 737.908 1299.31 737.908 Q1297.82 737.908 1294.79 738.04 Q1291.8 738.172 1290.35 738.172 Q1289.08 738.172 1289.08 737.074 Q1289.08 735.405 1290.71 735.405 Q1293.34 735.317 1295.14 734.79 Q1296.94 734.263 1297.95 733.253 Q1299.01 732.243 1299.49 731.233 Q1300.02 730.179 1300.41 728.642 L1311.83 682.836 Q1312.18 681.387 1312.18 681.167 Q1312.18 680.421 1311.74 680.157 Q1311.35 679.85 1310.21 679.718 Q1308.01 679.542 1306.34 679.542 Q1305.24 679.542 1304.8 679.499 Q1304.41 679.455 1304.06 679.235 Q1303.75 678.972 1303.75 678.445 Q1303.75 677.61 1304.1 677.259 Q1304.5 676.863 1304.94 676.82 Q1305.37 676.732 1306.43 676.732 L1318.77 676.732 Q1320.57 676.732 1320.96 677.039 Q1321.36 677.303 1321.54 678.796 L1328.56 729.696 L1361.41 678.445 Q1362.25 677.171 1362.69 676.951 Q1363.13 676.732 1364.88 676.732 L1376.78 676.732 Q1377.75 676.732 1378.14 676.776 Q1378.54 676.82 1378.85 677.039 Q1379.2 677.259 1379.2 677.742 Z" fill="#000000" fill-rule="evenodd" fill-opacity="1" /><polyline clip-path="url(#clip370)" style="stroke:#0000ff; stroke-linecap:round; stroke-linejoin:round; stroke-width:7.5; stroke-opacity:1; fill:none" stroke-dasharray="30, 19" points="
  1127.91,912.263 1266.06,912.263 
  "/>
<path clip-path="url(#clip370)" d="M1379.2 882.255 Q1379.2 883.529 1378.63 883.792 Q1378.1 884.056 1376.34 884.056 Q1374.28 884.056 1373.01 884.232 Q1371.73 884.363 1370.94 884.583 Q1370.15 884.759 1369.67 885.373 Q1369.23 885.988 1369.05 886.515 Q1368.88 886.998 1368.57 888.184 L1356.63 936.098 Q1356.19 937.723 1356.19 938.293 Q1356.19 938.864 1356.54 939.216 Q1356.93 939.567 1357.9 939.743 Q1358.87 939.874 1359.61 939.918 Q1360.4 939.918 1362.03 939.918 Q1364.05 939.918 1364.35 940.27 Q1364.53 940.489 1364.53 940.885 Q1364.53 941.719 1364.18 942.158 Q1363.83 942.553 1363.52 942.641 Q1363.26 942.685 1362.82 942.685 Q1360.97 942.685 1357.2 942.553 Q1353.42 942.422 1351.57 942.422 L1340.42 942.685 Q1339.1 942.685 1339.1 941.587 Q1339.1 940.753 1339.45 940.401 Q1339.81 940.006 1340.2 939.962 Q1340.6 939.918 1341.61 939.918 Q1345.21 939.918 1346.74 939.523 Q1348.33 939.128 1348.76 938.425 Q1349.25 937.679 1349.77 935.658 L1362.64 884.144 L1362.55 884.144 L1326.23 941.06 L1325.97 941.456 Q1325.71 941.807 1325.62 941.939 Q1325.53 942.026 1325.27 942.29 Q1325.05 942.51 1324.79 942.597 Q1324.57 942.685 1324.26 942.685 Q1323.73 942.685 1323.42 942.334 Q1323.16 941.983 1323.07 941.719 Q1323.03 941.412 1322.9 940.621 L1315.17 884.846 L1315.08 884.846 L1302.83 933.858 Q1302.48 935.219 1302.48 935.922 Q1302.48 937.723 1303.75 938.82 Q1305.07 939.874 1308.58 939.918 Q1310.21 939.918 1310.21 940.885 Q1310.21 942.685 1308.58 942.685 Q1307.09 942.685 1303.97 942.553 Q1300.85 942.422 1299.31 942.422 Q1297.82 942.422 1294.79 942.553 Q1291.8 942.685 1290.35 942.685 Q1289.08 942.685 1289.08 941.587 Q1289.08 939.918 1290.71 939.918 Q1293.34 939.831 1295.14 939.304 Q1296.94 938.777 1297.95 937.766 Q1299.01 936.756 1299.49 935.746 Q1300.02 934.692 1300.41 933.155 L1311.83 887.35 Q1312.18 885.9 1312.18 885.681 Q1312.18 884.934 1311.74 884.671 Q1311.35 884.363 1310.21 884.232 Q1308.01 884.056 1306.34 884.056 Q1305.24 884.056 1304.8 884.012 Q1304.41 883.968 1304.06 883.748 Q1303.75 883.485 1303.75 882.958 Q1303.75 882.124 1304.1 881.772 Q1304.5 881.377 1304.94 881.333 Q1305.37 881.245 1306.43 881.245 L1318.77 881.245 Q1320.57 881.245 1320.96 881.553 Q1321.36 881.816 1321.54 883.309 L1328.56 934.209 L1361.41 882.958 Q1362.25 881.684 1362.69 881.465 Q1363.13 881.245 1364.88 881.245 L1376.78 881.245 Q1377.75 881.245 1378.14 881.289 Q1378.54 881.333 1378.85 881.553 Q1379.2 881.772 1379.2 882.255 Z" fill="#000000" fill-rule="evenodd" fill-opacity="1" /><path clip-path="url(#clip370)" d="M1414.13 896.722 L1423.29 896.722 L1423.29 907.746 L1414.13 907.746 L1414.13 896.722 M1414.13 931.661 L1423.29 931.661 L1423.29 939.126 L1416.17 953.015 L1410.58 953.015 L1414.13 939.126 L1414.13 931.661 Z" fill="#000000" fill-rule="evenodd" fill-opacity="1" /><path clip-path="url(#clip370)" d="M1482.25 955.222 Q1482.25 955.968 1481.73 956.495 Q1481.2 957.022 1480.45 957.022 Q1479.18 957.022 1478.74 955.837 L1462.01 912.666 Q1461.92 912.49 1461.92 912.051 Q1461.92 911.612 1462.01 911.436 L1478.74 868.266 Q1479.18 867.08 1480.45 867.08 Q1481.2 867.08 1481.73 867.607 Q1482.25 868.134 1482.25 868.881 Q1482.25 869.32 1482.17 869.496 L1465.61 912.051 L1482.17 954.607 Q1482.25 954.783 1482.25 955.222 Z" fill="#000000" fill-rule="evenodd" fill-opacity="1" /><path clip-path="url(#clip370)" d="M1586.66 874.107 Q1586.66 875.38 1586.09 875.644 Q1585.56 875.907 1583.81 875.907 Q1581.74 875.907 1580.47 876.083 Q1579.19 876.215 1578.4 876.434 Q1577.61 876.61 1577.13 877.225 Q1576.69 877.84 1576.52 878.367 Q1576.34 878.85 1576.03 880.036 L1564.09 927.949 Q1563.65 929.574 1563.65 930.145 Q1563.65 930.716 1564 931.067 Q1564.39 931.419 1565.36 931.594 Q1566.33 931.726 1567.07 931.77 Q1567.86 931.77 1569.49 931.77 Q1571.51 931.77 1571.82 932.121 Q1571.99 932.341 1571.99 932.736 Q1571.99 933.571 1571.64 934.01 Q1571.29 934.405 1570.98 934.493 Q1570.72 934.537 1570.28 934.537 Q1568.43 934.537 1564.66 934.405 Q1560.88 934.273 1559.04 934.273 L1547.88 934.537 Q1546.56 934.537 1546.56 933.439 Q1546.56 932.604 1546.92 932.253 Q1547.27 931.858 1547.66 931.814 Q1548.06 931.77 1549.07 931.77 Q1552.67 931.77 1554.21 931.375 Q1555.79 930.979 1556.23 930.277 Q1556.71 929.53 1557.24 927.51 L1570.1 875.995 L1570.02 875.995 L1533.7 932.912 L1533.43 933.307 Q1533.17 933.658 1533.08 933.79 Q1532.99 933.878 1532.73 934.141 Q1532.51 934.361 1532.25 934.449 Q1532.03 934.537 1531.72 934.537 Q1531.19 934.537 1530.89 934.185 Q1530.62 933.834 1530.53 933.571 Q1530.49 933.263 1530.36 932.473 L1522.63 876.698 L1522.54 876.698 L1510.29 925.709 Q1509.94 927.071 1509.94 927.774 Q1509.94 929.574 1511.21 930.672 Q1512.53 931.726 1516.04 931.77 Q1517.67 931.77 1517.67 932.736 Q1517.67 934.537 1516.04 934.537 Q1514.55 934.537 1511.43 934.405 Q1508.31 934.273 1506.78 934.273 Q1505.28 934.273 1502.25 934.405 Q1499.27 934.537 1497.82 934.537 Q1496.54 934.537 1496.54 933.439 Q1496.54 931.77 1498.17 931.77 Q1500.8 931.682 1502.6 931.155 Q1504.4 930.628 1505.41 929.618 Q1506.47 928.608 1506.95 927.598 Q1507.48 926.544 1507.87 925.007 L1519.29 879.201 Q1519.64 877.752 1519.64 877.532 Q1519.64 876.786 1519.2 876.522 Q1518.81 876.215 1517.67 876.083 Q1515.47 875.907 1513.8 875.907 Q1512.7 875.907 1512.26 875.864 Q1511.87 875.82 1511.52 875.6 Q1511.21 875.337 1511.21 874.81 Q1511.21 873.975 1511.56 873.624 Q1511.96 873.228 1512.4 873.185 Q1512.84 873.097 1513.89 873.097 L1526.23 873.097 Q1528.03 873.097 1528.43 873.404 Q1528.82 873.668 1529 875.161 L1536.02 926.061 L1568.87 874.81 Q1569.71 873.536 1570.15 873.316 Q1570.59 873.097 1572.34 873.097 L1584.24 873.097 Q1585.21 873.097 1585.61 873.141 Q1586 873.185 1586.31 873.404 Q1586.66 873.624 1586.66 874.107 Z" fill="#000000" fill-rule="evenodd" fill-opacity="1" /><path clip-path="url(#clip370)" d="M1584.2 933.087 Q1582.92 931.638 1582.92 929.75 Q1582.92 927.861 1584.15 926.456 Q1585.43 925.007 1587.71 925.007 Q1590.39 925.007 1591.93 927.598 Q1593.46 930.145 1593.46 934.449 Q1593.46 939.104 1591.58 943.408 Q1589.69 947.756 1587.84 949.82 Q1586 951.884 1585.25 951.884 Q1584.37 951.884 1584.37 950.918 Q1584.37 950.566 1584.99 949.908 Q1591.44 942.969 1591.49 934.449 Q1591.49 933.087 1591.31 933.087 L1591.09 933.263 Q1589.56 934.537 1587.71 934.537 Q1585.47 934.537 1584.2 933.087 Z" fill="#000000" fill-rule="evenodd" fill-opacity="1" /><path clip-path="url(#clip370)" d="M1663.05 870.34 Q1663.05 861.776 1669.02 855.847 Q1674.99 849.918 1683.07 849.918 Q1689.92 849.918 1694.4 855.496 L1694.4 836.041 Q1694.4 832.703 1693.22 831.868 Q1692.07 831.034 1687.42 831.034 L1687.42 828.223 L1700.38 827.257 L1700.38 881.846 Q1700.38 885.184 1701.52 886.062 Q1702.7 886.897 1707.36 886.897 L1707.36 889.663 L1694.14 890.673 L1694.14 884.701 Q1689.48 890.629 1682.11 890.673 Q1674.38 890.673 1668.71 884.745 Q1663.05 878.816 1663.05 870.34 M1670.51 870.428 Q1670.51 878.772 1673.1 882.9 Q1676.7 888.653 1682.54 888.653 Q1689.22 888.653 1693.17 882.373 Q1694.18 880.836 1694.14 879.035 L1694.14 860.59 Q1694.14 858.79 1693.17 857.296 Q1689.48 851.895 1683.47 851.895 Q1677.19 851.895 1673.28 857.648 Q1670.51 861.952 1670.51 870.428 Z" fill="#000000" fill-rule="evenodd" fill-opacity="1" /><path clip-path="url(#clip370)" d="
M1641.05 914.663 L1744.42 914.663 L1744.42 909.863 L1641.05 909.863  Z
  " fill="#000000" fill-rule="evenodd" fill-opacity="1"/>
<path clip-path="url(#clip370)" d="M1641.05 976.352 Q1641.05 967.788 1647.02 961.86 Q1652.99 955.931 1661.07 955.931 Q1667.92 955.931 1672.4 961.508 L1672.4 942.053 Q1672.4 938.715 1671.22 937.881 Q1670.07 937.046 1665.42 937.046 L1665.42 934.236 L1678.38 933.27 L1678.38 987.859 Q1678.38 991.196 1679.52 992.075 Q1680.7 992.909 1685.36 992.909 L1685.36 995.676 L1672.14 996.686 L1672.14 990.713 Q1667.48 996.642 1660.11 996.686 Q1652.38 996.686 1646.71 990.757 Q1641.05 984.828 1641.05 976.352 M1648.51 976.44 Q1648.51 984.784 1651.1 988.913 Q1654.7 994.666 1660.54 994.666 Q1667.22 994.666 1671.17 988.386 Q1672.18 986.848 1672.14 985.048 L1672.14 966.603 Q1672.14 964.802 1671.17 963.309 Q1667.48 957.907 1661.47 957.907 Q1655.19 957.907 1651.28 963.66 Q1648.51 967.964 1648.51 976.44 Z" fill="#000000" fill-rule="evenodd" fill-opacity="1" /><path clip-path="url(#clip370)" d="M1735.25 961.86 Q1735.25 964.319 1733.71 965.724 Q1732.18 967.086 1730.42 967.086 Q1728.75 967.086 1727.87 966.12 Q1727 965.153 1727 963.924 Q1727 962.255 1728.22 960.806 Q1729.45 959.356 1731.3 959.049 Q1729.5 957.907 1726.82 957.907 Q1725.06 957.907 1723.53 958.829 Q1722.03 959.752 1721.11 960.937 Q1720.23 962.123 1719.44 963.836 Q1718.69 965.505 1718.39 966.515 Q1718.12 967.481 1717.9 968.535 L1714.83 980.832 Q1713.34 986.673 1713.34 988.737 Q1713.34 991.284 1714.57 992.997 Q1715.8 994.666 1718.26 994.666 Q1719.22 994.666 1720.32 994.402 Q1721.42 994.095 1722.82 993.304 Q1724.27 992.47 1725.55 991.24 Q1726.86 989.967 1728.14 987.815 Q1729.41 985.663 1730.24 982.896 Q1730.51 981.93 1731.39 981.93 Q1732.48 981.93 1732.48 982.808 Q1732.48 983.555 1731.87 985.136 Q1731.3 986.673 1730.03 988.693 Q1728.8 990.669 1727.17 992.47 Q1725.55 994.227 1723.13 995.456 Q1720.71 996.686 1718.08 996.686 Q1714.3 996.686 1711.8 994.666 Q1709.3 992.646 1708.37 989.835 Q1708.15 990.23 1707.85 990.757 Q1707.54 991.284 1706.62 992.47 Q1705.74 993.612 1704.73 994.49 Q1703.72 995.324 1702.14 995.983 Q1700.6 996.686 1698.93 996.686 Q1696.82 996.686 1694.94 996.071 Q1693.09 995.456 1691.77 994.051 Q1690.46 992.646 1690.46 990.713 Q1690.46 988.561 1691.91 987.068 Q1693.4 985.531 1695.42 985.531 Q1696.69 985.531 1697.7 986.278 Q1698.76 987.024 1698.76 988.649 Q1698.76 990.45 1697.53 991.811 Q1696.3 993.173 1694.54 993.524 Q1696.34 994.666 1699.02 994.666 Q1701.92 994.666 1704.2 992.119 Q1706.49 989.571 1707.58 985.311 Q1710.31 975.079 1711.36 970.511 Q1712.41 965.9 1712.41 963.924 Q1712.41 962.079 1711.93 960.806 Q1711.45 959.532 1710.61 958.961 Q1709.82 958.346 1709.08 958.127 Q1708.37 957.907 1707.58 957.907 Q1706.27 957.907 1704.77 958.434 Q1703.32 958.961 1701.57 960.191 Q1699.85 961.377 1698.23 963.836 Q1696.6 966.295 1695.51 969.677 Q1695.29 970.687 1694.32 970.687 Q1693.27 970.643 1693.27 969.765 Q1693.27 969.018 1693.84 967.481 Q1694.45 965.9 1695.68 963.924 Q1696.96 961.947 1698.58 960.191 Q1700.25 958.39 1702.67 957.161 Q1705.12 955.931 1707.76 955.931 Q1708.95 955.931 1710.09 956.194 Q1711.27 956.414 1712.68 957.073 Q1714.13 957.731 1715.4 959.181 Q1716.67 960.63 1717.47 962.738 Q1717.99 961.728 1718.69 960.762 Q1719.44 959.796 1720.58 958.61 Q1721.77 957.38 1723.39 956.677 Q1725.06 955.931 1726.91 955.931 Q1728.71 955.931 1730.46 956.414 Q1732.22 956.853 1733.71 958.302 Q1735.25 959.708 1735.25 961.86 Z" fill="#000000" fill-rule="evenodd" fill-opacity="1" /><path clip-path="url(#clip370)" d="M1754.02 933.658 Q1754.02 933.307 1755.2 931.023 Q1756.39 928.696 1760.56 920.395 Q1764.73 912.051 1769.04 903.312 L1784.54 872.131 Q1785.64 870.154 1787.04 870.154 Q1788.31 870.154 1788.89 870.945 Q1789.46 871.735 1792.09 877.049 Q1793.45 879.64 1794.24 881.309 L1819.67 932.209 Q1820.11 933.307 1820.15 933.658 Q1820.15 934.537 1818.62 934.537 L1756.39 934.537 Q1754.02 934.537 1754.02 933.658 M1759.94 927.686 L1808.34 927.686 L1784.14 879.113 L1759.94 927.686 Z" fill="#000000" fill-rule="evenodd" fill-opacity="1" /><path clip-path="url(#clip370)" d="M1864.96 846.3 Q1864.96 849.958 1863.27 853.586 Q1861.58 857.213 1858.81 859.98 Q1856.08 862.716 1852.33 864.438 Q1848.61 866.159 1844.79 866.159 Q1844.12 866.159 1842.73 866.006 Q1840.58 877.349 1840.52 877.534 Q1840.24 878.179 1839.69 878.579 Q1839.17 878.979 1838.8 879.071 Q1838.43 879.163 1838.18 879.163 Q1837.57 879.163 1836.95 878.733 Q1836.37 878.333 1836.37 877.411 Q1836.37 877.196 1836.68 876.15 L1840.03 865.575 Q1834.96 864.407 1832.04 861.179 Q1829.12 857.92 1829.12 853.494 Q1829.12 850.665 1830.41 846.976 Q1831.7 843.287 1833.27 840.797 Q1834.83 838.307 1835.72 838.307 Q1836.49 838.307 1836.49 838.953 Q1836.49 839.199 1836 839.752 Q1833.51 842.611 1832.13 846.73 Q1830.78 850.819 1830.78 852.787 Q1830.78 856.23 1833.42 858.72 Q1836.09 861.179 1841.1 862.101 Q1844.09 852.448 1845.87 848.39 Q1849.47 840.336 1854.14 838.369 Q1855.86 837.631 1857.77 837.631 Q1861.21 837.631 1863.09 840.059 Q1864.96 842.457 1864.96 846.3 M1863.18 847.683 Q1863.18 846.054 1862.59 844.671 Q1862.04 843.287 1860.63 842.304 Q1859.21 841.289 1857.15 841.289 Q1853.03 841.289 1849.59 845.255 Q1846.15 849.22 1844.67 855.369 L1843.41 862.194 Q1843.41 862.439 1844.24 862.439 Q1844.73 862.501 1845.38 862.501 Q1848.88 862.501 1852.2 861.179 Q1855.55 859.857 1857.92 857.767 Q1860.29 855.676 1861.73 853.002 Q1863.18 850.327 1863.18 847.683 Z" fill="#000000" fill-rule="evenodd" fill-opacity="1" /><path clip-path="url(#clip370)" d="M1879.48 912.051 Q1879.48 896.856 1885.15 884.603 Q1887.56 879.465 1890.95 875.161 Q1894.33 870.857 1896.57 868.969 Q1898.81 867.08 1899.42 867.08 Q1900.3 867.08 1900.34 867.958 Q1900.34 868.398 1899.16 869.496 Q1884.67 884.252 1884.71 912.051 Q1884.71 939.939 1898.81 954.124 Q1900.34 955.661 1900.34 956.144 Q1900.34 957.022 1899.42 957.022 Q1898.81 957.022 1896.66 955.222 Q1894.5 953.421 1891.17 949.293 Q1887.83 945.165 1885.41 940.114 Q1879.48 927.861 1879.48 912.051 Z" fill="#000000" fill-rule="evenodd" fill-opacity="1" /><path clip-path="url(#clip370)" d="M1951.97 900.721 Q1951.97 903.18 1950.44 904.585 Q1948.9 905.947 1947.14 905.947 Q1945.47 905.947 1944.6 904.981 Q1943.72 904.014 1943.72 902.785 Q1943.72 901.116 1944.95 899.667 Q1946.18 898.217 1948.02 897.91 Q1946.22 896.768 1943.54 896.768 Q1941.79 896.768 1940.25 897.69 Q1938.76 898.613 1937.83 899.798 Q1936.95 900.984 1936.16 902.697 Q1935.42 904.366 1935.11 905.376 Q1934.85 906.342 1934.63 907.396 L1931.55 919.693 Q1930.06 925.534 1930.06 927.598 Q1930.06 930.145 1931.29 931.858 Q1932.52 933.527 1934.98 933.527 Q1935.94 933.527 1937.04 933.263 Q1938.14 932.956 1939.55 932.165 Q1940.99 931.331 1942.27 930.101 Q1943.59 928.828 1944.86 926.676 Q1946.13 924.524 1946.97 921.757 Q1947.23 920.791 1948.11 920.791 Q1949.21 920.791 1949.21 921.669 Q1949.21 922.416 1948.59 923.997 Q1948.02 925.534 1946.75 927.554 Q1945.52 929.53 1943.89 931.331 Q1942.27 933.087 1939.85 934.317 Q1937.44 935.547 1934.8 935.547 Q1931.03 935.547 1928.52 933.527 Q1926.02 931.506 1925.1 928.696 Q1924.88 929.091 1924.57 929.618 Q1924.26 930.145 1923.34 931.331 Q1922.46 932.473 1921.45 933.351 Q1920.44 934.185 1918.86 934.844 Q1917.32 935.547 1915.65 935.547 Q1913.55 935.547 1911.66 934.932 Q1909.81 934.317 1908.5 932.912 Q1907.18 931.506 1907.18 929.574 Q1907.18 927.422 1908.63 925.929 Q1910.12 924.392 1912.14 924.392 Q1913.41 924.392 1914.42 925.138 Q1915.48 925.885 1915.48 927.51 Q1915.48 929.311 1914.25 930.672 Q1913.02 932.033 1911.26 932.385 Q1913.06 933.527 1915.74 933.527 Q1918.64 933.527 1920.92 930.979 Q1923.21 928.432 1924.31 924.172 Q1927.03 913.94 1928.08 909.372 Q1929.14 904.761 1929.14 902.785 Q1929.14 900.94 1928.65 899.667 Q1928.17 898.393 1927.34 897.822 Q1926.55 897.207 1925.8 896.988 Q1925.1 896.768 1924.31 896.768 Q1922.99 896.768 1921.5 897.295 Q1920.05 897.822 1918.29 899.052 Q1916.58 900.237 1914.95 902.697 Q1913.33 905.156 1912.23 908.538 Q1912.01 909.548 1911.04 909.548 Q1909.99 909.504 1909.99 908.626 Q1909.99 907.879 1910.56 906.342 Q1911.18 904.761 1912.4 902.785 Q1913.68 900.808 1915.3 899.052 Q1916.97 897.251 1919.39 896.021 Q1921.85 894.792 1924.48 894.792 Q1925.67 894.792 1926.81 895.055 Q1928 895.275 1929.4 895.934 Q1930.85 896.592 1932.12 898.042 Q1933.4 899.491 1934.19 901.599 Q1934.71 900.589 1935.42 899.623 Q1936.16 898.656 1937.31 897.471 Q1938.49 896.241 1940.12 895.538 Q1941.79 894.792 1943.63 894.792 Q1945.43 894.792 1947.19 895.275 Q1948.94 895.714 1950.44 897.163 Q1951.97 898.569 1951.97 900.721 Z" fill="#000000" fill-rule="evenodd" fill-opacity="1" /><path clip-path="url(#clip370)" d="M1960.63 956.144 Q1960.63 955.705 1961.77 954.607 Q1976.27 939.851 1976.27 912.051 Q1976.27 884.164 1962.34 870.066 Q1960.63 868.442 1960.63 867.958 Q1960.63 867.08 1961.51 867.08 Q1962.12 867.08 1964.28 868.881 Q1966.47 870.681 1969.77 874.81 Q1973.1 878.938 1975.56 883.988 Q1981.49 896.241 1981.49 912.051 Q1981.49 927.247 1975.83 939.499 Q1973.41 944.638 1970.03 948.942 Q1966.65 953.245 1964.41 955.134 Q1962.17 957.022 1961.51 957.022 Q1960.63 957.022 1960.63 956.144 Z" fill="#000000" fill-rule="evenodd" fill-opacity="1" /><path clip-path="url(#clip370)" d="M2015.37 911.436 Q2015.46 911.612 2015.46 912.051 Q2015.46 912.49 2015.37 912.666 L1998.64 955.837 Q1998.2 957.022 1996.97 957.022 Q1996.22 957.022 1995.69 956.495 Q1995.17 955.968 1995.17 955.222 Q1995.17 954.783 1995.25 954.607 L2011.77 912.051 L1995.25 869.496 Q1995.17 869.32 1995.17 868.881 Q1995.17 868.134 1995.69 867.607 Q1996.22 867.08 1996.97 867.08 Q1998.2 867.08 1998.64 868.266 L2015.37 911.436 Z" fill="#000000" fill-rule="evenodd" fill-opacity="1" /><path clip-path="url(#clip370)" d="M2054.74 920.879 Q2054.83 919.781 2056.54 919.781 L2111.66 919.781 Q2114.25 919.781 2114.3 920.791 Q2114.3 921.889 2111.84 921.845 L2057.16 921.845 Q2054.74 921.889 2054.74 920.879 M2054.74 903.312 Q2054.74 902.214 2056.63 902.258 L2111.57 902.258 Q2114.25 902.258 2114.3 903.312 Q2114.3 904.322 2112.01 904.322 L2056.54 904.322 Q2054.74 904.322 2054.74 903.312 Z" fill="#000000" fill-rule="evenodd" fill-opacity="1" /><path clip-path="url(#clip370)" d="M2148.99 905.771 Q2148.99 892.552 2152.32 885.35 Q2156.98 874.634 2167.96 874.634 Q2170.29 874.634 2172.7 875.293 Q2175.16 875.907 2178.24 878.323 Q2181.35 880.738 2183.24 884.691 Q2186.84 892.332 2186.84 905.771 Q2186.84 918.902 2183.51 926.061 Q2178.63 936.513 2167.87 936.513 Q2163.83 936.513 2159.7 934.449 Q2155.62 932.385 2153.03 927.422 Q2148.99 920 2148.99 905.771 M2156.45 904.673 Q2156.45 918.244 2157.42 923.645 Q2158.52 929.486 2161.5 932.033 Q2164.53 934.537 2167.87 934.537 Q2171.47 934.537 2174.46 931.858 Q2177.49 929.135 2178.41 923.294 Q2179.42 917.541 2179.38 904.673 Q2179.38 892.157 2178.5 887.15 Q2177.31 881.309 2174.15 878.982 Q2171.03 876.61 2167.87 876.61 Q2166.69 876.61 2165.41 876.961 Q2164.18 877.313 2162.38 878.323 Q2160.58 879.333 2159.18 881.836 Q2157.81 884.34 2157.16 888.116 Q2156.45 892.991 2156.45 904.673 Z" fill="#000000" fill-rule="evenodd" fill-opacity="1" /><polyline clip-path="url(#clip370)" style="stroke:#0000ff; stroke-linecap:round; stroke-linejoin:round; stroke-width:7.5; stroke-opacity:1; fill:none" points="
  1127.91,1116.78 1266.06,1116.78 
  "/>
<path clip-path="url(#clip370)" d="M1379.2 1086.77 Q1379.2 1088.04 1378.63 1088.31 Q1378.1 1088.57 1376.34 1088.57 Q1374.28 1088.57 1373.01 1088.74 Q1371.73 1088.88 1370.94 1089.1 Q1370.15 1089.27 1369.67 1089.89 Q1369.23 1090.5 1369.05 1091.03 Q1368.88 1091.51 1368.57 1092.7 L1356.63 1140.61 Q1356.19 1142.24 1356.19 1142.81 Q1356.19 1143.38 1356.54 1143.73 Q1356.93 1144.08 1357.9 1144.26 Q1358.87 1144.39 1359.61 1144.43 Q1360.4 1144.43 1362.03 1144.43 Q1364.05 1144.43 1364.35 1144.78 Q1364.53 1145 1364.53 1145.4 Q1364.53 1146.23 1364.18 1146.67 Q1363.83 1147.07 1363.52 1147.15 Q1363.26 1147.2 1362.82 1147.2 Q1360.97 1147.2 1357.2 1147.07 Q1353.42 1146.94 1351.57 1146.94 L1340.42 1147.2 Q1339.1 1147.2 1339.1 1146.1 Q1339.1 1145.27 1339.45 1144.91 Q1339.81 1144.52 1340.2 1144.48 Q1340.6 1144.43 1341.61 1144.43 Q1345.21 1144.43 1346.74 1144.04 Q1348.33 1143.64 1348.76 1142.94 Q1349.25 1142.19 1349.77 1140.17 L1362.64 1088.66 L1362.55 1088.66 L1326.23 1145.57 L1325.97 1145.97 Q1325.71 1146.32 1325.62 1146.45 Q1325.53 1146.54 1325.27 1146.8 Q1325.05 1147.02 1324.79 1147.11 Q1324.57 1147.2 1324.26 1147.2 Q1323.73 1147.2 1323.42 1146.85 Q1323.16 1146.5 1323.07 1146.23 Q1323.03 1145.93 1322.9 1145.13 L1315.17 1089.36 L1315.08 1089.36 L1302.83 1138.37 Q1302.48 1139.73 1302.48 1140.44 Q1302.48 1142.24 1303.75 1143.33 Q1305.07 1144.39 1308.58 1144.43 Q1310.21 1144.43 1310.21 1145.4 Q1310.21 1147.2 1308.58 1147.2 Q1307.09 1147.2 1303.97 1147.07 Q1300.85 1146.94 1299.31 1146.94 Q1297.82 1146.94 1294.79 1147.07 Q1291.8 1147.2 1290.35 1147.2 Q1289.08 1147.2 1289.08 1146.1 Q1289.08 1144.43 1290.71 1144.43 Q1293.34 1144.34 1295.14 1143.82 Q1296.94 1143.29 1297.95 1142.28 Q1299.01 1141.27 1299.49 1140.26 Q1300.02 1139.21 1300.41 1137.67 L1311.83 1091.86 Q1312.18 1090.41 1312.18 1090.19 Q1312.18 1089.45 1311.74 1089.18 Q1311.35 1088.88 1310.21 1088.74 Q1308.01 1088.57 1306.34 1088.57 Q1305.24 1088.57 1304.8 1088.53 Q1304.41 1088.48 1304.06 1088.26 Q1303.75 1088 1303.75 1087.47 Q1303.75 1086.64 1304.1 1086.29 Q1304.5 1085.89 1304.94 1085.85 Q1305.37 1085.76 1306.43 1085.76 L1318.77 1085.76 Q1320.57 1085.76 1320.96 1086.07 Q1321.36 1086.33 1321.54 1087.82 L1328.56 1138.72 L1361.41 1087.47 Q1362.25 1086.2 1362.69 1085.98 Q1363.13 1085.76 1364.88 1085.76 L1376.78 1085.76 Q1377.75 1085.76 1378.14 1085.8 Q1378.54 1085.85 1378.85 1086.07 Q1379.2 1086.29 1379.2 1086.77 Z" fill="#000000" fill-rule="evenodd" fill-opacity="1" /><path clip-path="url(#clip370)" d="M1414.13 1101.24 L1423.29 1101.24 L1423.29 1112.26 L1414.13 1112.26 L1414.13 1101.24 M1414.13 1136.17 L1423.29 1136.17 L1423.29 1143.64 L1416.17 1157.53 L1410.58 1157.53 L1414.13 1143.64 L1414.13 1136.17 Z" fill="#000000" fill-rule="evenodd" fill-opacity="1" /><path clip-path="url(#clip370)" d="M1482.25 1170.96 Q1482.25 1171.71 1481.73 1172.24 Q1481.2 1172.76 1480.45 1172.76 Q1479.18 1172.76 1478.74 1171.58 L1462.01 1128.41 Q1461.92 1128.23 1461.92 1127.79 Q1461.92 1127.35 1462.01 1127.18 L1478.74 1084.01 Q1479.18 1082.82 1480.45 1082.82 Q1481.2 1082.82 1481.73 1083.35 Q1482.25 1083.87 1482.25 1084.62 Q1482.25 1085.06 1482.17 1085.24 L1465.61 1127.79 L1482.17 1170.35 Q1482.25 1170.52 1482.25 1170.96 Z" fill="#000000" fill-rule="evenodd" fill-opacity="1" /><path clip-path="url(#clip370)" d="M1586.66 1089.85 Q1586.66 1091.12 1586.09 1091.38 Q1585.56 1091.65 1583.81 1091.65 Q1581.74 1091.65 1580.47 1091.82 Q1579.19 1091.95 1578.4 1092.17 Q1577.61 1092.35 1577.13 1092.96 Q1576.69 1093.58 1576.52 1094.11 Q1576.34 1094.59 1576.03 1095.78 L1564.09 1143.69 Q1563.65 1145.31 1563.65 1145.89 Q1563.65 1146.46 1564 1146.81 Q1564.39 1147.16 1565.36 1147.33 Q1566.33 1147.47 1567.07 1147.51 Q1567.86 1147.51 1569.49 1147.51 Q1571.51 1147.51 1571.82 1147.86 Q1571.99 1148.08 1571.99 1148.48 Q1571.99 1149.31 1571.64 1149.75 Q1571.29 1150.14 1570.98 1150.23 Q1570.72 1150.28 1570.28 1150.28 Q1568.43 1150.28 1564.66 1150.14 Q1560.88 1150.01 1559.04 1150.01 L1547.88 1150.28 Q1546.56 1150.28 1546.56 1149.18 Q1546.56 1148.34 1546.92 1147.99 Q1547.27 1147.6 1547.66 1147.55 Q1548.06 1147.51 1549.07 1147.51 Q1552.67 1147.51 1554.21 1147.11 Q1555.79 1146.72 1556.23 1146.02 Q1556.71 1145.27 1557.24 1143.25 L1570.1 1091.74 L1570.02 1091.74 L1533.7 1148.65 L1533.43 1149.05 Q1533.17 1149.4 1533.08 1149.53 Q1532.99 1149.62 1532.73 1149.88 Q1532.51 1150.1 1532.25 1150.19 Q1532.03 1150.28 1531.72 1150.28 Q1531.19 1150.28 1530.89 1149.93 Q1530.62 1149.57 1530.53 1149.31 Q1530.49 1149 1530.36 1148.21 L1522.63 1092.44 L1522.54 1092.44 L1510.29 1141.45 Q1509.94 1142.81 1509.94 1143.51 Q1509.94 1145.31 1511.21 1146.41 Q1512.53 1147.47 1516.04 1147.51 Q1517.67 1147.51 1517.67 1148.48 Q1517.67 1150.28 1516.04 1150.28 Q1514.55 1150.28 1511.43 1150.14 Q1508.31 1150.01 1506.78 1150.01 Q1505.28 1150.01 1502.25 1150.14 Q1499.27 1150.28 1497.82 1150.28 Q1496.54 1150.28 1496.54 1149.18 Q1496.54 1147.51 1498.17 1147.51 Q1500.8 1147.42 1502.6 1146.9 Q1504.4 1146.37 1505.41 1145.36 Q1506.47 1144.35 1506.95 1143.34 Q1507.48 1142.28 1507.87 1140.75 L1519.29 1094.94 Q1519.64 1093.49 1519.64 1093.27 Q1519.64 1092.53 1519.2 1092.26 Q1518.81 1091.95 1517.67 1091.82 Q1515.47 1091.65 1513.8 1091.65 Q1512.7 1091.65 1512.26 1091.6 Q1511.87 1091.56 1511.52 1091.34 Q1511.21 1091.08 1511.21 1090.55 Q1511.21 1089.72 1511.56 1089.36 Q1511.96 1088.97 1512.4 1088.92 Q1512.84 1088.84 1513.89 1088.84 L1526.23 1088.84 Q1528.03 1088.84 1528.43 1089.14 Q1528.82 1089.41 1529 1090.9 L1536.02 1141.8 L1568.87 1090.55 Q1569.71 1089.28 1570.15 1089.06 Q1570.59 1088.84 1572.34 1088.84 L1584.24 1088.84 Q1585.21 1088.84 1585.61 1088.88 Q1586 1088.92 1586.31 1089.14 Q1586.66 1089.36 1586.66 1089.85 Z" fill="#000000" fill-rule="evenodd" fill-opacity="1" /><path clip-path="url(#clip370)" d="M1584.2 1148.83 Q1582.92 1147.38 1582.92 1145.49 Q1582.92 1143.6 1584.15 1142.2 Q1585.43 1140.75 1587.71 1140.75 Q1590.39 1140.75 1591.93 1143.34 Q1593.46 1145.89 1593.46 1150.19 Q1593.46 1154.84 1591.58 1159.15 Q1589.69 1163.5 1587.84 1165.56 Q1586 1167.62 1585.25 1167.62 Q1584.37 1167.62 1584.37 1166.66 Q1584.37 1166.31 1584.99 1165.65 Q1591.44 1158.71 1591.49 1150.19 Q1591.49 1148.83 1591.31 1148.83 L1591.09 1149 Q1589.56 1150.28 1587.71 1150.28 Q1585.47 1150.28 1584.2 1148.83 Z" fill="#000000" fill-rule="evenodd" fill-opacity="1" /><path clip-path="url(#clip370)" d="M1666.05 1086.08 Q1666.05 1077.52 1672.02 1071.59 Q1677.99 1065.66 1686.07 1065.66 Q1692.92 1065.66 1697.4 1071.24 L1697.4 1051.78 Q1697.4 1048.44 1696.22 1047.61 Q1695.07 1046.77 1690.42 1046.77 L1690.42 1043.96 L1703.38 1043 L1703.38 1097.59 Q1703.38 1100.92 1704.52 1101.8 Q1705.7 1102.64 1710.36 1102.64 L1710.36 1105.4 L1697.14 1106.41 L1697.14 1100.44 Q1692.48 1106.37 1685.11 1106.41 Q1677.38 1106.41 1671.71 1100.48 Q1666.05 1094.56 1666.05 1086.08 M1673.51 1086.17 Q1673.51 1094.51 1676.1 1098.64 Q1679.7 1104.39 1685.54 1104.39 Q1692.22 1104.39 1696.17 1098.11 Q1697.18 1096.58 1697.14 1094.78 L1697.14 1076.33 Q1697.14 1074.53 1696.17 1073.04 Q1692.48 1067.63 1686.47 1067.63 Q1680.19 1067.63 1676.28 1073.39 Q1673.51 1077.69 1673.51 1086.17 Z" fill="#000000" fill-rule="evenodd" fill-opacity="1" /><path clip-path="url(#clip370)" d="M1719.52 1056.05 Q1719.52 1054.91 1719.61 1054.57 Q1719.74 1054.24 1720.23 1053.71 L1732.31 1040.25 Q1738.92 1032.81 1738.92 1026.32 Q1738.92 1022.11 1736.71 1019.1 Q1734.52 1016.09 1730.5 1016.09 Q1727.73 1016.09 1725.39 1017.78 Q1723.06 1019.47 1721.98 1022.48 Q1722.16 1022.42 1722.81 1022.42 Q1724.38 1022.42 1725.24 1023.4 Q1726.13 1024.39 1726.13 1025.71 Q1726.13 1027.4 1725.02 1028.23 Q1723.95 1029.03 1722.87 1029.03 Q1722.44 1029.03 1721.86 1028.94 Q1721.3 1028.84 1720.41 1027.98 Q1719.52 1027.09 1719.52 1025.52 Q1719.52 1021.13 1722.84 1017.62 Q1726.19 1014.12 1731.29 1014.12 Q1737.07 1014.12 1740.86 1017.56 Q1744.67 1020.97 1744.67 1026.32 Q1744.67 1028.2 1744.08 1029.92 Q1743.53 1031.61 1742.76 1032.93 Q1742.02 1034.25 1739.99 1036.37 Q1737.97 1038.5 1736.34 1040 Q1734.71 1041.51 1731.05 1044.71 L1724.38 1051.19 L1735.72 1051.19 Q1741.26 1051.19 1741.69 1050.7 Q1742.3 1049.81 1743.07 1045.11 L1744.67 1045.11 L1742.88 1056.05 L1719.52 1056.05 Z" fill="#000000" fill-rule="evenodd" fill-opacity="1" /><path clip-path="url(#clip370)" d="
M1641.05 1130.4 L1788.52 1130.4 L1788.52 1125.6 L1641.05 1125.6  Z
  " fill="#000000" fill-rule="evenodd" fill-opacity="1"/>
<path clip-path="url(#clip370)" d="M1641.05 1198.71 Q1641.05 1190.15 1647.02 1184.22 Q1652.99 1178.29 1661.07 1178.29 Q1667.92 1178.29 1672.4 1183.87 L1672.4 1164.41 Q1672.4 1161.07 1671.22 1160.24 Q1670.07 1159.4 1665.42 1159.4 L1665.42 1156.59 L1678.38 1155.63 L1678.38 1210.22 Q1678.38 1213.55 1679.52 1214.43 Q1680.7 1215.27 1685.36 1215.27 L1685.36 1218.03 L1672.14 1219.04 L1672.14 1213.07 Q1667.48 1219 1660.11 1219.04 Q1652.38 1219.04 1646.71 1213.11 Q1641.05 1207.19 1641.05 1198.71 M1648.51 1198.8 Q1648.51 1207.14 1651.1 1211.27 Q1654.7 1217.02 1660.54 1217.02 Q1667.22 1217.02 1671.17 1210.74 Q1672.18 1209.21 1672.14 1207.41 L1672.14 1188.96 Q1672.14 1187.16 1671.17 1185.67 Q1667.48 1180.26 1661.47 1180.26 Q1655.19 1180.26 1651.28 1186.02 Q1648.51 1190.32 1648.51 1198.8 Z" fill="#000000" fill-rule="evenodd" fill-opacity="1" /><path clip-path="url(#clip370)" d="M1735.25 1184.22 Q1735.25 1186.68 1733.71 1188.08 Q1732.18 1189.44 1730.42 1189.44 Q1728.75 1189.44 1727.87 1188.48 Q1727 1187.51 1727 1186.28 Q1727 1184.61 1728.22 1183.16 Q1729.45 1181.71 1731.3 1181.41 Q1729.5 1180.26 1726.82 1180.26 Q1725.06 1180.26 1723.53 1181.19 Q1722.03 1182.11 1721.11 1183.3 Q1720.23 1184.48 1719.44 1186.19 Q1718.69 1187.86 1718.39 1188.87 Q1718.12 1189.84 1717.9 1190.89 L1714.83 1203.19 Q1713.34 1209.03 1713.34 1211.09 Q1713.34 1213.64 1714.57 1215.35 Q1715.8 1217.02 1718.26 1217.02 Q1719.22 1217.02 1720.32 1216.76 Q1721.42 1216.45 1722.82 1215.66 Q1724.27 1214.83 1725.55 1213.6 Q1726.86 1212.32 1728.14 1210.17 Q1729.41 1208.02 1730.24 1205.25 Q1730.51 1204.29 1731.39 1204.29 Q1732.48 1204.29 1732.48 1205.17 Q1732.48 1205.91 1731.87 1207.49 Q1731.3 1209.03 1730.03 1211.05 Q1728.8 1213.03 1727.17 1214.83 Q1725.55 1216.58 1723.13 1217.81 Q1720.71 1219.04 1718.08 1219.04 Q1714.3 1219.04 1711.8 1217.02 Q1709.3 1215 1708.37 1212.19 Q1708.15 1212.59 1707.85 1213.11 Q1707.54 1213.64 1706.62 1214.83 Q1705.74 1215.97 1704.73 1216.85 Q1703.72 1217.68 1702.14 1218.34 Q1700.6 1219.04 1698.93 1219.04 Q1696.82 1219.04 1694.94 1218.43 Q1693.09 1217.81 1691.77 1216.41 Q1690.46 1215 1690.46 1213.07 Q1690.46 1210.92 1691.91 1209.43 Q1693.4 1207.89 1695.42 1207.89 Q1696.69 1207.89 1697.7 1208.64 Q1698.76 1209.38 1698.76 1211.01 Q1698.76 1212.81 1697.53 1214.17 Q1696.3 1215.53 1694.54 1215.88 Q1696.34 1217.02 1699.02 1217.02 Q1701.92 1217.02 1704.2 1214.48 Q1706.49 1211.93 1707.58 1207.67 Q1710.31 1197.44 1711.36 1192.87 Q1712.41 1188.26 1712.41 1186.28 Q1712.41 1184.44 1711.93 1183.16 Q1711.45 1181.89 1710.61 1181.32 Q1709.82 1180.7 1709.08 1180.48 Q1708.37 1180.26 1707.58 1180.26 Q1706.27 1180.26 1704.77 1180.79 Q1703.32 1181.32 1701.57 1182.55 Q1699.85 1183.73 1698.23 1186.19 Q1696.6 1188.65 1695.51 1192.03 Q1695.29 1193.04 1694.32 1193.04 Q1693.27 1193 1693.27 1192.12 Q1693.27 1191.38 1693.84 1189.84 Q1694.45 1188.26 1695.68 1186.28 Q1696.96 1184.31 1698.58 1182.55 Q1700.25 1180.75 1702.67 1179.52 Q1705.12 1178.29 1707.76 1178.29 Q1708.95 1178.29 1710.09 1178.55 Q1711.27 1178.77 1712.68 1179.43 Q1714.13 1180.09 1715.4 1181.54 Q1716.67 1182.99 1717.47 1185.1 Q1717.99 1184.09 1718.69 1183.12 Q1719.44 1182.15 1720.58 1180.97 Q1721.77 1179.74 1723.39 1179.04 Q1725.06 1178.29 1726.91 1178.29 Q1728.71 1178.29 1730.46 1178.77 Q1732.22 1179.21 1733.71 1180.66 Q1735.25 1182.07 1735.25 1184.22 Z" fill="#000000" fill-rule="evenodd" fill-opacity="1" /><path clip-path="url(#clip370)" d="M1744.42 1191.13 Q1744.42 1190 1744.51 1189.66 Q1744.63 1189.32 1745.12 1188.8 L1757.2 1175.33 Q1763.81 1167.89 1763.81 1161.41 Q1763.81 1157.19 1761.6 1154.18 Q1759.42 1151.17 1755.39 1151.17 Q1752.62 1151.17 1750.29 1152.86 Q1747.95 1154.55 1746.87 1157.56 Q1747.06 1157.5 1747.7 1157.5 Q1749.27 1157.5 1750.13 1158.49 Q1751.02 1159.47 1751.02 1160.79 Q1751.02 1162.48 1749.92 1163.31 Q1748.84 1164.11 1747.77 1164.11 Q1747.34 1164.11 1746.75 1164.02 Q1746.2 1163.93 1745.31 1163.07 Q1744.42 1162.17 1744.42 1160.61 Q1744.42 1156.21 1747.74 1152.71 Q1751.09 1149.2 1756.19 1149.2 Q1761.97 1149.2 1765.75 1152.64 Q1769.56 1156.06 1769.56 1161.41 Q1769.56 1163.28 1768.98 1165 Q1768.42 1166.69 1767.66 1168.02 Q1766.92 1169.34 1764.89 1171.46 Q1762.86 1173.58 1761.23 1175.09 Q1759.6 1176.59 1755.94 1179.79 L1749.27 1186.28 L1760.62 1186.28 Q1766.15 1186.28 1766.58 1185.78 Q1767.2 1184.89 1767.96 1180.19 L1769.56 1180.19 L1767.78 1191.13 L1744.42 1191.13 Z" fill="#000000" fill-rule="evenodd" fill-opacity="1" /><path clip-path="url(#clip370)" d="M1798.12 1149.4 Q1798.12 1149.05 1799.31 1146.76 Q1800.49 1144.44 1804.66 1136.14 Q1808.84 1127.79 1813.14 1119.05 L1828.64 1087.87 Q1829.74 1085.89 1831.15 1085.89 Q1832.42 1085.89 1832.99 1086.68 Q1833.56 1087.48 1836.2 1092.79 Q1837.56 1095.38 1838.35 1097.05 L1863.78 1147.95 Q1864.22 1149.05 1864.26 1149.4 Q1864.26 1150.28 1862.72 1150.28 L1800.49 1150.28 Q1798.12 1150.28 1798.12 1149.4 M1804.05 1143.43 L1852.45 1143.43 L1828.25 1094.85 L1804.05 1143.43 Z" fill="#000000" fill-rule="evenodd" fill-opacity="1" /><path clip-path="url(#clip370)" d="M1909.07 1062.04 Q1909.07 1065.7 1907.37 1069.33 Q1905.68 1072.95 1902.92 1075.72 Q1900.18 1078.46 1896.43 1080.18 Q1892.71 1081.9 1888.9 1081.9 Q1888.22 1081.9 1886.84 1081.75 Q1884.69 1093.09 1884.63 1093.27 Q1884.35 1093.92 1883.8 1094.32 Q1883.27 1094.72 1882.9 1094.81 Q1882.53 1094.9 1882.29 1094.9 Q1881.67 1094.9 1881.06 1094.47 Q1880.48 1094.07 1880.48 1093.15 Q1880.48 1092.94 1880.78 1091.89 L1884.13 1081.32 Q1879.06 1080.15 1876.14 1076.92 Q1873.22 1073.66 1873.22 1069.23 Q1873.22 1066.41 1874.51 1062.72 Q1875.8 1059.03 1877.37 1056.54 Q1878.94 1054.05 1879.83 1054.05 Q1880.6 1054.05 1880.6 1054.69 Q1880.6 1054.94 1880.11 1055.49 Q1877.62 1058.35 1876.23 1062.47 Q1874.88 1066.56 1874.88 1068.53 Q1874.88 1071.97 1877.52 1074.46 Q1880.2 1076.92 1885.21 1077.84 Q1888.19 1068.19 1889.97 1064.13 Q1893.57 1056.08 1898.24 1054.11 Q1899.97 1053.37 1901.87 1053.37 Q1905.31 1053.37 1907.19 1055.8 Q1909.07 1058.2 1909.07 1062.04 M1907.28 1063.42 Q1907.28 1061.79 1906.7 1060.41 Q1906.14 1059.03 1904.73 1058.04 Q1903.32 1057.03 1901.26 1057.03 Q1897.14 1057.03 1893.69 1060.99 Q1890.25 1064.96 1888.78 1071.11 L1887.52 1077.93 Q1887.52 1078.18 1888.35 1078.18 Q1888.84 1078.24 1889.48 1078.24 Q1892.99 1078.24 1896.31 1076.92 Q1899.66 1075.6 1902.03 1073.51 Q1904.39 1071.42 1905.84 1068.74 Q1907.28 1066.07 1907.28 1063.42 Z" fill="#000000" fill-rule="evenodd" fill-opacity="1" /><path clip-path="url(#clip370)" d="M1923.59 1127.79 Q1923.59 1112.6 1929.25 1100.34 Q1931.67 1095.2 1935.05 1090.9 Q1938.43 1086.6 1940.67 1084.71 Q1942.91 1082.82 1943.53 1082.82 Q1944.4 1082.82 1944.45 1083.7 Q1944.45 1084.14 1943.26 1085.24 Q1928.77 1099.99 1928.81 1127.79 Q1928.81 1155.68 1942.91 1169.86 Q1944.45 1171.4 1944.45 1171.88 Q1944.45 1172.76 1943.53 1172.76 Q1942.91 1172.76 1940.76 1170.96 Q1938.61 1169.16 1935.27 1165.03 Q1931.93 1160.9 1929.52 1155.85 Q1923.59 1143.6 1923.59 1127.79 Z" fill="#000000" fill-rule="evenodd" fill-opacity="1" /><path clip-path="url(#clip370)" d="M1996.08 1116.46 Q1996.08 1118.92 1994.54 1120.33 Q1993 1121.69 1991.25 1121.69 Q1989.58 1121.69 1988.7 1120.72 Q1987.82 1119.75 1987.82 1118.52 Q1987.82 1116.86 1989.05 1115.41 Q1990.28 1113.96 1992.13 1113.65 Q1990.33 1112.51 1987.65 1112.51 Q1985.89 1112.51 1984.35 1113.43 Q1982.86 1114.35 1981.94 1115.54 Q1981.06 1116.72 1980.27 1118.44 Q1979.52 1120.11 1979.21 1121.12 Q1978.95 1122.08 1978.73 1123.14 L1975.66 1135.43 Q1974.16 1141.27 1974.16 1143.34 Q1974.16 1145.89 1975.39 1147.6 Q1976.62 1149.27 1979.08 1149.27 Q1980.05 1149.27 1981.15 1149 Q1982.24 1148.7 1983.65 1147.91 Q1985.1 1147.07 1986.37 1145.84 Q1987.69 1144.57 1988.96 1142.42 Q1990.24 1140.26 1991.07 1137.5 Q1991.34 1136.53 1992.21 1136.53 Q1993.31 1136.53 1993.31 1137.41 Q1993.31 1138.16 1992.7 1139.74 Q1992.13 1141.27 1990.85 1143.29 Q1989.62 1145.27 1988 1147.07 Q1986.37 1148.83 1983.96 1150.06 Q1981.54 1151.29 1978.91 1151.29 Q1975.13 1151.29 1972.63 1149.27 Q1970.12 1147.25 1969.2 1144.44 Q1968.98 1144.83 1968.67 1145.36 Q1968.37 1145.89 1967.44 1147.07 Q1966.57 1148.21 1965.56 1149.09 Q1964.55 1149.93 1962.97 1150.58 Q1961.43 1151.29 1959.76 1151.29 Q1957.65 1151.29 1955.76 1150.67 Q1953.92 1150.06 1952.6 1148.65 Q1951.28 1147.25 1951.28 1145.31 Q1951.28 1143.16 1952.73 1141.67 Q1954.23 1140.13 1956.25 1140.13 Q1957.52 1140.13 1958.53 1140.88 Q1959.58 1141.63 1959.58 1143.25 Q1959.58 1145.05 1958.35 1146.41 Q1957.12 1147.77 1955.37 1148.12 Q1957.17 1149.27 1959.85 1149.27 Q1962.75 1149.27 1965.03 1146.72 Q1967.31 1144.17 1968.41 1139.91 Q1971.13 1129.68 1972.19 1125.11 Q1973.24 1120.5 1973.24 1118.52 Q1973.24 1116.68 1972.76 1115.41 Q1972.28 1114.13 1971.44 1113.56 Q1970.65 1112.95 1969.9 1112.73 Q1969.2 1112.51 1968.41 1112.51 Q1967.09 1112.51 1965.6 1113.04 Q1964.15 1113.56 1962.39 1114.79 Q1960.68 1115.98 1959.06 1118.44 Q1957.43 1120.9 1956.33 1124.28 Q1956.11 1125.29 1955.15 1125.29 Q1954.09 1125.24 1954.09 1124.37 Q1954.09 1123.62 1954.66 1122.08 Q1955.28 1120.5 1956.51 1118.52 Q1957.78 1116.55 1959.41 1114.79 Q1961.08 1112.99 1963.49 1111.76 Q1965.95 1110.53 1968.59 1110.53 Q1969.77 1110.53 1970.91 1110.8 Q1972.1 1111.01 1973.51 1111.67 Q1974.95 1112.33 1976.23 1113.78 Q1977.5 1115.23 1978.29 1117.34 Q1978.82 1116.33 1979.52 1115.36 Q1980.27 1114.4 1981.41 1113.21 Q1982.6 1111.98 1984.22 1111.28 Q1985.89 1110.53 1987.73 1110.53 Q1989.54 1110.53 1991.29 1111.01 Q1993.05 1111.45 1994.54 1112.9 Q1996.08 1114.31 1996.08 1116.46 Z" fill="#000000" fill-rule="evenodd" fill-opacity="1" /><path clip-path="url(#clip370)" d="M2004.74 1171.88 Q2004.74 1171.44 2005.88 1170.35 Q2020.37 1155.59 2020.37 1127.79 Q2020.37 1099.9 2006.45 1085.81 Q2004.74 1084.18 2004.74 1083.7 Q2004.74 1082.82 2005.61 1082.82 Q2006.23 1082.82 2008.38 1084.62 Q2010.58 1086.42 2013.87 1090.55 Q2017.21 1094.68 2019.67 1099.73 Q2025.6 1111.98 2025.6 1127.79 Q2025.6 1142.99 2019.93 1155.24 Q2017.52 1160.38 2014.13 1164.68 Q2010.75 1168.99 2008.51 1170.87 Q2006.27 1172.76 2005.61 1172.76 Q2004.74 1172.76 2004.74 1171.88 Z" fill="#000000" fill-rule="evenodd" fill-opacity="1" /><path clip-path="url(#clip370)" d="M2059.47 1127.18 Q2059.56 1127.35 2059.56 1127.79 Q2059.56 1128.23 2059.47 1128.41 L2042.74 1171.58 Q2042.3 1172.76 2041.07 1172.76 Q2040.33 1172.76 2039.8 1172.24 Q2039.27 1171.71 2039.27 1170.96 Q2039.27 1170.52 2039.36 1170.35 L2055.87 1127.79 L2039.36 1085.24 Q2039.27 1085.06 2039.27 1084.62 Q2039.27 1083.87 2039.8 1083.35 Q2040.33 1082.82 2041.07 1082.82 Q2042.3 1082.82 2042.74 1084.01 L2059.47 1127.18 Z" fill="#000000" fill-rule="evenodd" fill-opacity="1" /><path clip-path="url(#clip370)" d="M2098.85 1136.62 Q2098.94 1135.52 2100.65 1135.52 L2155.77 1135.52 Q2158.36 1135.52 2158.4 1136.53 Q2158.4 1137.63 2155.94 1137.58 L2101.26 1137.58 Q2098.85 1137.63 2098.85 1136.62 M2098.85 1119.05 Q2098.85 1117.95 2100.74 1118 L2155.68 1118 Q2158.36 1118 2158.4 1119.05 Q2158.4 1120.06 2156.12 1120.06 L2100.65 1120.06 Q2098.85 1120.06 2098.85 1119.05 Z" fill="#000000" fill-rule="evenodd" fill-opacity="1" /><path clip-path="url(#clip370)" d="M2193.09 1121.51 Q2193.09 1108.29 2196.43 1101.09 Q2201.08 1090.37 2212.06 1090.37 Q2214.39 1090.37 2216.81 1091.03 Q2219.27 1091.65 2222.34 1094.06 Q2225.46 1096.48 2227.35 1100.43 Q2230.95 1108.07 2230.95 1121.51 Q2230.95 1134.64 2227.61 1141.8 Q2222.74 1152.25 2211.98 1152.25 Q2207.94 1152.25 2203.81 1150.19 Q2199.72 1148.12 2197.13 1143.16 Q2193.09 1135.74 2193.09 1121.51 M2200.56 1120.41 Q2200.56 1133.98 2201.52 1139.39 Q2202.62 1145.23 2205.61 1147.77 Q2208.64 1150.28 2211.98 1150.28 Q2215.58 1150.28 2218.56 1147.6 Q2221.59 1144.87 2222.52 1139.03 Q2223.53 1133.28 2223.48 1120.41 Q2223.48 1107.9 2222.6 1102.89 Q2221.42 1097.05 2218.26 1094.72 Q2215.14 1092.35 2211.98 1092.35 Q2210.79 1092.35 2209.52 1092.7 Q2208.29 1093.05 2206.49 1094.06 Q2204.69 1095.07 2203.28 1097.58 Q2201.92 1100.08 2201.26 1103.86 Q2200.56 1108.73 2200.56 1120.41 Z" fill="#000000" fill-rule="evenodd" fill-opacity="1" /></svg>
