<?xml version="1.0" encoding="utf-8"?>
<svg xmlns="http://www.w3.org/2000/svg" xmlns:xlink="http://www.w3.org/1999/xlink" width="600" height="400" viewBox="0 0 2400 1600">
<defs>
  <clipPath id="clip180">
    <rect x="0" y="0" width="2400" height="1600"/>
  </clipPath>
</defs>
<path clip-path="url(#clip180)" d="
M0 1600 L2400 1600 L2400 0 L0 0  Z
  " fill="#ffffff" fill-rule="evenodd" fill-opacity="1"/>
<defs>
  <clipPath id="clip181">
    <rect x="480" y="0" width="1681" height="1600"/>
  </clipPath>
</defs>
<defs>
  <clipPath id="clip182">
    <rect x="451" y="47" width="1902" height="1308"/>
  </clipPath>
</defs>
<path clip-path="url(#clip180)" d="
M451.437 1354.06 L2352.76 1354.06 L2352.76 47.2441 L451.437 47.2441  Z
  " fill="#ffffff" fill-rule="evenodd" fill-opacity="1"/>
<polyline clip-path="url(#clip182)" style="stroke:#000000; stroke-linecap:round; stroke-linejoin:round; stroke-width:2; stroke-opacity:0.1; fill:none" points="
  505.248,1354.06 505.248,47.2441 
  "/>
<polyline clip-path="url(#clip182)" style="stroke:#000000; stroke-linecap:round; stroke-linejoin:round; stroke-width:2; stroke-opacity:0.1; fill:none" points="
  684.617,1354.06 684.617,47.2441 
  "/>
<polyline clip-path="url(#clip182)" style="stroke:#000000; stroke-linecap:round; stroke-linejoin:round; stroke-width:2; stroke-opacity:0.1; fill:none" points="
  863.987,1354.06 863.987,47.2441 
  "/>
<polyline clip-path="url(#clip182)" style="stroke:#000000; stroke-linecap:round; stroke-linejoin:round; stroke-width:2; stroke-opacity:0.1; fill:none" points="
  1043.36,1354.06 1043.36,47.2441 
  "/>
<polyline clip-path="url(#clip182)" style="stroke:#000000; stroke-linecap:round; stroke-linejoin:round; stroke-width:2; stroke-opacity:0.1; fill:none" points="
  1222.73,1354.06 1222.73,47.2441 
  "/>
<polyline clip-path="url(#clip182)" style="stroke:#000000; stroke-linecap:round; stroke-linejoin:round; stroke-width:2; stroke-opacity:0.1; fill:none" points="
  1402.1,1354.06 1402.1,47.2441 
  "/>
<polyline clip-path="url(#clip182)" style="stroke:#000000; stroke-linecap:round; stroke-linejoin:round; stroke-width:2; stroke-opacity:0.1; fill:none" points="
  1581.47,1354.06 1581.47,47.2441 
  "/>
<polyline clip-path="url(#clip182)" style="stroke:#000000; stroke-linecap:round; stroke-linejoin:round; stroke-width:2; stroke-opacity:0.1; fill:none" points="
  1760.84,1354.06 1760.84,47.2441 
  "/>
<polyline clip-path="url(#clip182)" style="stroke:#000000; stroke-linecap:round; stroke-linejoin:round; stroke-width:2; stroke-opacity:0.1; fill:none" points="
  1940.21,1354.06 1940.21,47.2441 
  "/>
<polyline clip-path="url(#clip182)" style="stroke:#000000; stroke-linecap:round; stroke-linejoin:round; stroke-width:2; stroke-opacity:0.1; fill:none" points="
  2119.58,1354.06 2119.58,47.2441 
  "/>
<polyline clip-path="url(#clip182)" style="stroke:#000000; stroke-linecap:round; stroke-linejoin:round; stroke-width:2; stroke-opacity:0.1; fill:none" points="
  2298.94,1354.06 2298.94,47.2441 
  "/>
<polyline clip-path="url(#clip180)" style="stroke:#000000; stroke-linecap:round; stroke-linejoin:round; stroke-width:4; stroke-opacity:1; fill:none" points="
  451.437,1354.06 2352.76,1354.06 
  "/>
<polyline clip-path="url(#clip180)" style="stroke:#000000; stroke-linecap:round; stroke-linejoin:round; stroke-width:4; stroke-opacity:1; fill:none" points="
  505.248,1354.06 505.248,1335.16 
  "/>
<polyline clip-path="url(#clip180)" style="stroke:#000000; stroke-linecap:round; stroke-linejoin:round; stroke-width:4; stroke-opacity:1; fill:none" points="
  684.617,1354.06 684.617,1335.16 
  "/>
<polyline clip-path="url(#clip180)" style="stroke:#000000; stroke-linecap:round; stroke-linejoin:round; stroke-width:4; stroke-opacity:1; fill:none" points="
  863.987,1354.06 863.987,1335.16 
  "/>
<polyline clip-path="url(#clip180)" style="stroke:#000000; stroke-linecap:round; stroke-linejoin:round; stroke-width:4; stroke-opacity:1; fill:none" points="
  1043.36,1354.06 1043.36,1335.16 
  "/>
<polyline clip-path="url(#clip180)" style="stroke:#000000; stroke-linecap:round; stroke-linejoin:round; stroke-width:4; stroke-opacity:1; fill:none" points="
  1222.73,1354.06 1222.73,1335.16 
  "/>
<polyline clip-path="url(#clip180)" style="stroke:#000000; stroke-linecap:round; stroke-linejoin:round; stroke-width:4; stroke-opacity:1; fill:none" points="
  1402.1,1354.06 1402.1,1335.16 
  "/>
<polyline clip-path="url(#clip180)" style="stroke:#000000; stroke-linecap:round; stroke-linejoin:round; stroke-width:4; stroke-opacity:1; fill:none" points="
  1581.47,1354.06 1581.47,1335.16 
  "/>
<polyline clip-path="url(#clip180)" style="stroke:#000000; stroke-linecap:round; stroke-linejoin:round; stroke-width:4; stroke-opacity:1; fill:none" points="
  1760.84,1354.06 1760.84,1335.16 
  "/>
<polyline clip-path="url(#clip180)" style="stroke:#000000; stroke-linecap:round; stroke-linejoin:round; stroke-width:4; stroke-opacity:1; fill:none" points="
  1940.21,1354.06 1940.21,1335.16 
  "/>
<polyline clip-path="url(#clip180)" style="stroke:#000000; stroke-linecap:round; stroke-linejoin:round; stroke-width:4; stroke-opacity:1; fill:none" points="
  2119.58,1354.06 2119.58,1335.16 
  "/>
<polyline clip-path="url(#clip180)" style="stroke:#000000; stroke-linecap:round; stroke-linejoin:round; stroke-width:4; stroke-opacity:1; fill:none" points="
  2298.94,1354.06 2298.94,1335.16 
  "/>
<path clip-path="url(#clip180)" d="M505.248 1395.23 Q498.477 1395.23 495.048 1401.92 Q491.663 1408.56 491.663 1421.92 Q491.663 1435.25 495.048 1441.93 Q498.477 1448.57 505.248 1448.57 Q512.062 1448.57 515.447 1441.93 Q518.876 1435.25 518.876 1421.92 Q518.876 1408.56 515.447 1401.92 Q512.062 1395.23 505.248 1395.23 M505.248 1388.29 Q516.142 1388.29 521.871 1396.93 Q527.643 1405.52 527.643 1421.92 Q527.643 1438.29 521.871 1446.92 Q516.142 1455.52 505.248 1455.52 Q494.354 1455.52 488.581 1446.92 Q482.852 1438.29 482.852 1421.92 Q482.852 1405.52 488.581 1396.93 Q494.354 1388.29 505.248 1388.29 Z" fill="#000000" fill-rule="evenodd" fill-opacity="1" /><path clip-path="url(#clip180)" d="M823.08 1395.23 Q816.309 1395.23 812.881 1401.92 Q809.495 1408.56 809.495 1421.92 Q809.495 1435.25 812.881 1441.93 Q816.309 1448.57 823.08 1448.57 Q829.894 1448.57 833.28 1441.93 Q836.709 1435.25 836.709 1421.92 Q836.709 1408.56 833.28 1401.92 Q829.894 1395.23 823.08 1395.23 M823.08 1388.29 Q833.974 1388.29 839.703 1396.93 Q845.476 1405.52 845.476 1421.92 Q845.476 1438.29 839.703 1446.92 Q833.974 1455.52 823.08 1455.52 Q812.186 1455.52 806.414 1446.92 Q800.685 1438.29 800.685 1421.92 Q800.685 1405.52 806.414 1396.93 Q812.186 1388.29 823.08 1388.29 Z" fill="#000000" fill-rule="evenodd" fill-opacity="1" /><path clip-path="url(#clip180)" d="M860.884 1443.24 L870.042 1443.24 L870.042 1454.26 L860.884 1454.26 L860.884 1443.24 Z" fill="#000000" fill-rule="evenodd" fill-opacity="1" /><path clip-path="url(#clip180)" d="M896.691 1446.88 L927.29 1446.88 L927.29 1454.26 L886.144 1454.26 L886.144 1446.88 Q891.135 1441.72 899.729 1433.04 Q908.366 1424.31 910.58 1421.79 Q914.79 1417.06 916.439 1413.81 Q918.132 1410.51 918.132 1407.34 Q918.132 1402.18 914.486 1398.92 Q910.884 1395.67 905.068 1395.67 Q900.944 1395.67 896.344 1397.1 Q891.786 1398.53 886.578 1401.44 L886.578 1392.58 Q891.873 1390.46 896.474 1389.37 Q901.075 1388.29 904.894 1388.29 Q914.963 1388.29 920.953 1393.32 Q926.943 1398.36 926.943 1406.78 Q926.943 1410.77 925.423 1414.37 Q923.948 1417.93 919.998 1422.79 Q918.913 1424.05 913.097 1430.08 Q907.281 1436.07 896.691 1446.88 Z" fill="#000000" fill-rule="evenodd" fill-opacity="1" /><path clip-path="url(#clip180)" d="M1179.87 1395.23 Q1173.1 1395.23 1169.67 1401.92 Q1166.28 1408.56 1166.28 1421.92 Q1166.28 1435.25 1169.67 1441.93 Q1173.1 1448.57 1179.87 1448.57 Q1186.68 1448.57 1190.07 1441.93 Q1193.49 1435.25 1193.49 1421.92 Q1193.49 1408.56 1190.07 1401.92 Q1186.68 1395.23 1179.87 1395.23 M1179.87 1388.29 Q1190.76 1388.29 1196.49 1396.93 Q1202.26 1405.52 1202.26 1421.92 Q1202.26 1438.29 1196.49 1446.92 Q1190.76 1455.52 1179.87 1455.52 Q1168.97 1455.52 1163.2 1446.92 Q1157.47 1438.29 1157.47 1421.92 Q1157.47 1405.52 1163.2 1396.93 Q1168.97 1388.29 1179.87 1388.29 Z" fill="#000000" fill-rule="evenodd" fill-opacity="1" /><path clip-path="url(#clip180)" d="M1217.67 1443.24 L1226.83 1443.24 L1226.83 1454.26 L1217.67 1454.26 L1217.67 1443.24 Z" fill="#000000" fill-rule="evenodd" fill-opacity="1" /><path clip-path="url(#clip180)" d="M1270.01 1397.1 L1247.88 1431.69 L1270.01 1431.69 L1270.01 1397.1 M1267.71 1389.46 L1278.74 1389.46 L1278.74 1431.69 L1287.98 1431.69 L1287.98 1438.98 L1278.74 1438.98 L1278.74 1454.26 L1270.01 1454.26 L1270.01 1438.98 L1240.76 1438.98 L1240.76 1430.52 L1267.71 1389.46 Z" fill="#000000" fill-rule="evenodd" fill-opacity="1" /><path clip-path="url(#clip180)" d="M1538.91 1395.23 Q1532.14 1395.23 1528.71 1401.92 Q1525.32 1408.56 1525.32 1421.92 Q1525.32 1435.25 1528.71 1441.93 Q1532.14 1448.57 1538.91 1448.57 Q1545.72 1448.57 1549.11 1441.93 Q1552.54 1435.25 1552.54 1421.92 Q1552.54 1408.56 1549.11 1401.92 Q1545.72 1395.23 1538.91 1395.23 M1538.91 1388.29 Q1549.8 1388.29 1555.53 1396.93 Q1561.31 1405.52 1561.31 1421.92 Q1561.31 1438.29 1555.53 1446.92 Q1549.8 1455.52 1538.91 1455.52 Q1528.02 1455.52 1522.24 1446.92 Q1516.51 1438.29 1516.51 1421.92 Q1516.51 1405.52 1522.24 1396.93 Q1528.02 1388.29 1538.91 1388.29 Z" fill="#000000" fill-rule="evenodd" fill-opacity="1" /><path clip-path="url(#clip180)" d="M1576.71 1443.24 L1585.87 1443.24 L1585.87 1454.26 L1576.71 1454.26 L1576.71 1443.24 Z" fill="#000000" fill-rule="evenodd" fill-opacity="1" /><path clip-path="url(#clip180)" d="M1624.8 1418.37 Q1618.9 1418.37 1615.43 1422.4 Q1612 1426.44 1612 1433.47 Q1612 1440.46 1615.43 1444.54 Q1618.9 1448.57 1624.8 1448.57 Q1630.71 1448.57 1634.14 1444.54 Q1637.61 1440.46 1637.61 1433.47 Q1637.61 1426.44 1634.14 1422.4 Q1630.71 1418.37 1624.8 1418.37 M1642.21 1390.89 L1642.21 1398.88 Q1638.91 1397.32 1635.52 1396.49 Q1632.18 1395.67 1628.88 1395.67 Q1620.2 1395.67 1615.6 1401.53 Q1611.04 1407.39 1610.39 1419.23 Q1612.95 1415.46 1616.82 1413.46 Q1620.68 1411.42 1625.32 1411.42 Q1635.09 1411.42 1640.73 1417.37 Q1646.42 1423.27 1646.42 1433.47 Q1646.42 1443.45 1640.52 1449.49 Q1634.61 1455.52 1624.8 1455.52 Q1613.56 1455.52 1607.62 1446.92 Q1601.67 1438.29 1601.67 1421.92 Q1601.67 1406.56 1608.96 1397.45 Q1616.25 1388.29 1628.54 1388.29 Q1631.83 1388.29 1635.18 1388.94 Q1638.56 1389.59 1642.21 1390.89 Z" fill="#000000" fill-rule="evenodd" fill-opacity="1" /><path clip-path="url(#clip180)" d="M1897.89 1395.23 Q1891.12 1395.23 1887.69 1401.92 Q1884.3 1408.56 1884.3 1421.92 Q1884.3 1435.25 1887.69 1441.93 Q1891.12 1448.57 1897.89 1448.57 Q1904.7 1448.57 1908.09 1441.93 Q1911.52 1435.25 1911.52 1421.92 Q1911.52 1408.56 1908.09 1401.92 Q1904.7 1395.23 1897.89 1395.23 M1897.89 1388.29 Q1908.78 1388.29 1914.51 1396.93 Q1920.28 1405.52 1920.28 1421.92 Q1920.28 1438.29 1914.51 1446.92 Q1908.78 1455.52 1897.89 1455.52 Q1886.99 1455.52 1881.22 1446.92 Q1875.49 1438.29 1875.49 1421.92 Q1875.49 1405.52 1881.22 1396.93 Q1886.99 1388.29 1897.89 1388.29 Z" fill="#000000" fill-rule="evenodd" fill-opacity="1" /><path clip-path="url(#clip180)" d="M1935.69 1443.24 L1944.85 1443.24 L1944.85 1454.26 L1935.69 1454.26 L1935.69 1443.24 Z" fill="#000000" fill-rule="evenodd" fill-opacity="1" /><path clip-path="url(#clip180)" d="M1982.7 1423.49 Q1976.45 1423.49 1972.84 1426.83 Q1969.29 1430.17 1969.29 1436.03 Q1969.29 1441.89 1972.84 1445.23 Q1976.45 1448.57 1982.7 1448.57 Q1988.95 1448.57 1992.55 1445.23 Q1996.15 1441.85 1996.15 1436.03 Q1996.15 1430.17 1992.55 1426.83 Q1988.99 1423.49 1982.7 1423.49 M1973.93 1419.75 Q1968.29 1418.37 1965.12 1414.5 Q1961.99 1410.64 1961.99 1405.08 Q1961.99 1397.32 1967.51 1392.8 Q1973.06 1388.29 1982.7 1388.29 Q1992.38 1388.29 1997.89 1392.8 Q2003.4 1397.32 2003.4 1405.08 Q2003.4 1410.64 2000.23 1414.5 Q1997.11 1418.37 1991.51 1419.75 Q1997.84 1421.23 2001.36 1425.53 Q2004.92 1429.82 2004.92 1436.03 Q2004.92 1445.45 1999.15 1450.48 Q1993.42 1455.52 1982.7 1455.52 Q1971.98 1455.52 1966.2 1450.48 Q1960.47 1445.45 1960.47 1436.03 Q1960.47 1429.82 1964.03 1425.53 Q1967.59 1421.23 1973.93 1419.75 M1970.72 1405.91 Q1970.72 1410.94 1973.84 1413.77 Q1977.01 1416.59 1982.7 1416.59 Q1988.34 1416.59 1991.51 1413.77 Q1994.72 1410.94 1994.72 1405.91 Q1994.72 1400.87 1991.51 1398.05 Q1988.34 1395.23 1982.7 1395.23 Q1977.01 1395.23 1973.84 1398.05 Q1970.72 1400.87 1970.72 1405.91 Z" fill="#000000" fill-rule="evenodd" fill-opacity="1" /><path clip-path="url(#clip180)" d="M2280.91 1446.88 L2295.23 1446.88 L2295.23 1397.45 L2279.65 1400.57 L2279.65 1392.58 L2295.15 1389.46 L2303.91 1389.46 L2303.91 1446.88 L2318.24 1446.88 L2318.24 1454.26 L2280.91 1454.26 L2280.91 1446.88 Z" fill="#000000" fill-rule="evenodd" fill-opacity="1" /><path clip-path="url(#clip180)" d="M1427.87 1519.59 Q1427.87 1522.87 1425.82 1524.74 Q1423.77 1526.56 1421.42 1526.56 Q1419.2 1526.56 1418.03 1525.27 Q1416.86 1523.98 1416.86 1522.34 Q1416.86 1520.12 1418.5 1518.18 Q1420.14 1516.25 1422.6 1515.84 Q1420.19 1514.32 1416.62 1514.32 Q1414.28 1514.32 1412.23 1515.55 Q1410.24 1516.78 1409.01 1518.36 Q1407.84 1519.94 1406.79 1522.22 Q1405.79 1524.45 1405.38 1525.8 Q1405.03 1527.08 1404.74 1528.49 L1400.64 1544.89 Q1398.65 1552.67 1398.65 1555.43 Q1398.65 1558.82 1400.29 1561.11 Q1401.93 1563.33 1405.2 1563.33 Q1406.49 1563.33 1407.96 1562.98 Q1409.42 1562.57 1411.29 1561.52 Q1413.23 1560.4 1414.92 1558.76 Q1416.68 1557.07 1418.38 1554.2 Q1420.08 1551.33 1421.19 1547.64 Q1421.54 1546.35 1422.71 1546.35 Q1424.18 1546.35 1424.18 1547.52 Q1424.18 1548.52 1423.36 1550.62 Q1422.6 1552.67 1420.9 1555.37 Q1419.26 1558 1417.09 1560.4 Q1414.92 1562.75 1411.7 1564.39 Q1408.48 1566.02 1404.97 1566.02 Q1399.93 1566.02 1396.6 1563.33 Q1393.26 1560.64 1392.03 1556.89 Q1391.74 1557.42 1391.33 1558.12 Q1390.92 1558.82 1389.69 1560.4 Q1388.52 1561.93 1387.17 1563.1 Q1385.82 1564.21 1383.71 1565.09 Q1381.66 1566.02 1379.44 1566.02 Q1376.63 1566.02 1374.11 1565.2 Q1371.65 1564.39 1369.89 1562.51 Q1368.14 1560.64 1368.14 1558.06 Q1368.14 1555.19 1370.07 1553.2 Q1372.06 1551.15 1374.75 1551.15 Q1376.45 1551.15 1377.8 1552.15 Q1379.21 1553.14 1379.21 1555.31 Q1379.21 1557.71 1377.57 1559.53 Q1375.93 1561.34 1373.58 1561.81 Q1375.98 1563.33 1379.56 1563.33 Q1383.42 1563.33 1386.47 1559.93 Q1389.51 1556.54 1390.98 1550.86 Q1394.61 1537.22 1396.01 1531.13 Q1397.42 1524.98 1397.42 1522.34 Q1397.42 1519.88 1396.77 1518.18 Q1396.13 1516.49 1395.02 1515.73 Q1393.96 1514.91 1392.97 1514.61 Q1392.03 1514.32 1390.98 1514.32 Q1389.22 1514.32 1387.23 1515.02 Q1385.3 1515.73 1382.95 1517.36 Q1380.67 1518.95 1378.5 1522.22 Q1376.34 1525.5 1374.87 1530.01 Q1374.58 1531.36 1373.29 1531.36 Q1371.89 1531.3 1371.89 1530.13 Q1371.89 1529.13 1372.65 1527.08 Q1373.47 1524.98 1375.11 1522.34 Q1376.8 1519.71 1378.97 1517.36 Q1381.2 1514.96 1384.42 1513.32 Q1387.7 1511.68 1391.21 1511.68 Q1392.79 1511.68 1394.31 1512.04 Q1395.89 1512.33 1397.77 1513.21 Q1399.7 1514.09 1401.4 1516.02 Q1403.1 1517.95 1404.15 1520.76 Q1404.85 1519.41 1405.79 1518.13 Q1406.79 1516.84 1408.31 1515.26 Q1409.89 1513.62 1412.06 1512.68 Q1414.28 1511.68 1416.74 1511.68 Q1419.14 1511.68 1421.48 1512.33 Q1423.82 1512.91 1425.82 1514.85 Q1427.87 1516.72 1427.87 1519.59 Z" fill="#000000" fill-rule="evenodd" fill-opacity="1" /><polyline clip-path="url(#clip182)" style="stroke:#000000; stroke-linecap:round; stroke-linejoin:round; stroke-width:2; stroke-opacity:0.1; fill:none" points="
  451.437,1088.24 2352.76,1088.24 
  "/>
<polyline clip-path="url(#clip182)" style="stroke:#000000; stroke-linecap:round; stroke-linejoin:round; stroke-width:2; stroke-opacity:0.1; fill:none" points="
  451.437,812.316 2352.76,812.316 
  "/>
<polyline clip-path="url(#clip182)" style="stroke:#000000; stroke-linecap:round; stroke-linejoin:round; stroke-width:2; stroke-opacity:0.1; fill:none" points="
  451.437,536.393 2352.76,536.393 
  "/>
<polyline clip-path="url(#clip182)" style="stroke:#000000; stroke-linecap:round; stroke-linejoin:round; stroke-width:2; stroke-opacity:0.1; fill:none" points="
  451.437,260.471 2352.76,260.471 
  "/>
<polyline clip-path="url(#clip180)" style="stroke:#000000; stroke-linecap:round; stroke-linejoin:round; stroke-width:4; stroke-opacity:1; fill:none" points="
  451.437,1354.06 451.437,47.2441 
  "/>
<polyline clip-path="url(#clip180)" style="stroke:#000000; stroke-linecap:round; stroke-linejoin:round; stroke-width:4; stroke-opacity:1; fill:none" points="
  451.437,1088.24 470.334,1088.24 
  "/>
<polyline clip-path="url(#clip180)" style="stroke:#000000; stroke-linecap:round; stroke-linejoin:round; stroke-width:4; stroke-opacity:1; fill:none" points="
  451.437,812.316 470.334,812.316 
  "/>
<polyline clip-path="url(#clip180)" style="stroke:#000000; stroke-linecap:round; stroke-linejoin:round; stroke-width:4; stroke-opacity:1; fill:none" points="
  451.437,536.393 470.334,536.393 
  "/>
<polyline clip-path="url(#clip180)" style="stroke:#000000; stroke-linecap:round; stroke-linejoin:round; stroke-width:4; stroke-opacity:1; fill:none" points="
  451.437,260.471 470.334,260.471 
  "/>
<path clip-path="url(#clip180)" d="M216.132 1089.08 L271.774 1089.08 L271.774 1096.46 L216.132 1096.46 L216.132 1089.08 Z" fill="#000000" fill-rule="evenodd" fill-opacity="1" /><path clip-path="url(#clip180)" d="M309.448 1061.61 Q302.677 1061.61 299.248 1068.29 Q295.863 1074.94 295.863 1088.3 Q295.863 1101.63 299.248 1108.31 Q302.677 1114.95 309.448 1114.95 Q316.262 1114.95 319.647 1108.31 Q323.076 1101.63 323.076 1088.3 Q323.076 1074.94 319.647 1068.29 Q316.262 1061.61 309.448 1061.61 M309.448 1054.67 Q320.342 1054.67 326.071 1063.3 Q331.843 1071.9 331.843 1088.3 Q331.843 1104.67 326.071 1113.3 Q320.342 1121.9 309.448 1121.9 Q298.554 1121.9 292.781 1113.3 Q287.052 1104.67 287.052 1088.3 Q287.052 1071.9 292.781 1063.3 Q298.554 1054.67 309.448 1054.67 Z" fill="#000000" fill-rule="evenodd" fill-opacity="1" /><path clip-path="url(#clip180)" d="M347.251 1109.61 L356.409 1109.61 L356.409 1120.64 L347.251 1120.64 L347.251 1109.61 Z" fill="#000000" fill-rule="evenodd" fill-opacity="1" /><path clip-path="url(#clip180)" d="M402.069 1085.7 Q408.362 1087.04 411.878 1091.3 Q415.437 1095.55 415.437 1101.8 Q415.437 1111.39 408.84 1116.65 Q402.242 1121.9 390.09 1121.9 Q386.01 1121.9 381.67 1121.07 Q377.373 1120.29 372.772 1118.69 L372.772 1110.22 Q376.418 1112.35 380.758 1113.43 Q385.098 1114.52 389.829 1114.52 Q398.076 1114.52 402.373 1111.26 Q406.713 1108.01 406.713 1101.8 Q406.713 1096.07 402.676 1092.86 Q398.683 1089.61 391.522 1089.61 L383.97 1089.61 L383.97 1082.4 L391.869 1082.4 Q398.336 1082.4 401.765 1079.84 Q405.194 1077.24 405.194 1072.37 Q405.194 1067.38 401.635 1064.74 Q398.119 1062.04 391.522 1062.04 Q387.92 1062.04 383.796 1062.83 Q379.673 1063.61 374.725 1065.26 L374.725 1057.44 Q379.716 1056.06 384.057 1055.36 Q388.44 1054.67 392.303 1054.67 Q402.286 1054.67 408.102 1059.22 Q413.918 1063.74 413.918 1071.46 Q413.918 1076.84 410.836 1080.58 Q407.755 1084.27 402.069 1085.7 Z" fill="#000000" fill-rule="evenodd" fill-opacity="1" /><path clip-path="url(#clip180)" d="M308.232 785.688 Q301.462 785.688 298.033 792.372 Q294.647 799.013 294.647 812.381 Q294.647 825.705 298.033 832.389 Q301.462 839.03 308.232 839.03 Q315.047 839.03 318.432 832.389 Q321.861 825.705 321.861 812.381 Q321.861 799.013 318.432 792.372 Q315.047 785.688 308.232 785.688 M308.232 778.744 Q319.127 778.744 324.856 787.381 Q330.628 795.975 330.628 812.381 Q330.628 828.744 324.856 837.381 Q319.127 845.974 308.232 845.974 Q297.338 845.974 291.566 837.381 Q285.837 828.744 285.837 812.381 Q285.837 795.975 291.566 787.381 Q297.338 778.744 308.232 778.744 Z" fill="#000000" fill-rule="evenodd" fill-opacity="1" /><path clip-path="url(#clip180)" d="M346.036 833.691 L355.194 833.691 L355.194 844.716 L346.036 844.716 L346.036 833.691 Z" fill="#000000" fill-rule="evenodd" fill-opacity="1" /><path clip-path="url(#clip180)" d="M393.041 785.688 Q386.27 785.688 382.841 792.372 Q379.456 799.013 379.456 812.381 Q379.456 825.705 382.841 832.389 Q386.27 839.03 393.041 839.03 Q399.855 839.03 403.241 832.389 Q406.669 825.705 406.669 812.381 Q406.669 799.013 403.241 792.372 Q399.855 785.688 393.041 785.688 M393.041 778.744 Q403.935 778.744 409.664 787.381 Q415.437 795.975 415.437 812.381 Q415.437 828.744 409.664 837.381 Q403.935 845.974 393.041 845.974 Q382.147 845.974 376.374 837.381 Q370.645 828.744 370.645 812.381 Q370.645 795.975 376.374 787.381 Q382.147 778.744 393.041 778.744 Z" fill="#000000" fill-rule="evenodd" fill-opacity="1" /><path clip-path="url(#clip180)" d="M309.448 509.766 Q302.677 509.766 299.248 516.45 Q295.863 523.09 295.863 536.458 Q295.863 549.783 299.248 556.467 Q302.677 563.108 309.448 563.108 Q316.262 563.108 319.647 556.467 Q323.076 549.783 323.076 536.458 Q323.076 523.09 319.647 516.45 Q316.262 509.766 309.448 509.766 M309.448 502.821 Q320.342 502.821 326.071 511.459 Q331.843 520.052 331.843 536.458 Q331.843 552.821 326.071 561.458 Q320.342 570.052 309.448 570.052 Q298.554 570.052 292.781 561.458 Q287.052 552.821 287.052 536.458 Q287.052 520.052 292.781 511.459 Q298.554 502.821 309.448 502.821 Z" fill="#000000" fill-rule="evenodd" fill-opacity="1" /><path clip-path="url(#clip180)" d="M347.251 557.769 L356.409 557.769 L356.409 568.793 L347.251 568.793 L347.251 557.769 Z" fill="#000000" fill-rule="evenodd" fill-opacity="1" /><path clip-path="url(#clip180)" d="M402.069 533.854 Q408.362 535.2 411.878 539.453 Q415.437 543.707 415.437 549.957 Q415.437 559.549 408.84 564.8 Q402.242 570.052 390.09 570.052 Q386.01 570.052 381.67 569.227 Q377.373 568.446 372.772 566.84 L372.772 558.377 Q376.418 560.503 380.758 561.589 Q385.098 562.674 389.829 562.674 Q398.076 562.674 402.373 559.418 Q406.713 556.163 406.713 549.957 Q406.713 544.227 402.676 541.016 Q398.683 537.761 391.522 537.761 L383.97 537.761 L383.97 530.556 L391.869 530.556 Q398.336 530.556 401.765 527.995 Q405.194 525.391 405.194 520.53 Q405.194 515.538 401.635 512.891 Q398.119 510.2 391.522 510.2 Q387.92 510.2 383.796 510.981 Q379.673 511.762 374.725 513.412 L374.725 505.599 Q379.716 504.21 384.057 503.516 Q388.44 502.821 392.303 502.821 Q402.286 502.821 408.102 507.379 Q413.918 511.893 413.918 519.618 Q413.918 525 410.836 528.733 Q407.755 532.422 402.069 533.854 Z" fill="#000000" fill-rule="evenodd" fill-opacity="1" /><path clip-path="url(#clip180)" d="M307.929 233.843 Q301.158 233.843 297.729 240.527 Q294.344 247.168 294.344 260.536 Q294.344 273.861 297.729 280.545 Q301.158 287.185 307.929 287.185 Q314.743 287.185 318.128 280.545 Q321.557 273.861 321.557 260.536 Q321.557 247.168 318.128 240.527 Q314.743 233.843 307.929 233.843 M307.929 226.899 Q318.823 226.899 324.552 235.536 Q330.324 244.13 330.324 260.536 Q330.324 276.899 324.552 285.536 Q318.823 294.13 307.929 294.13 Q297.035 294.13 291.262 285.536 Q285.533 276.899 285.533 260.536 Q285.533 244.13 291.262 235.536 Q297.035 226.899 307.929 226.899 Z" fill="#000000" fill-rule="evenodd" fill-opacity="1" /><path clip-path="url(#clip180)" d="M345.732 281.847 L354.89 281.847 L354.89 292.871 L345.732 292.871 L345.732 281.847 Z" fill="#000000" fill-rule="evenodd" fill-opacity="1" /><path clip-path="url(#clip180)" d="M393.822 256.977 Q387.92 256.977 384.447 261.013 Q381.019 265.05 381.019 272.081 Q381.019 279.069 384.447 283.149 Q387.92 287.185 393.822 287.185 Q399.725 287.185 403.154 283.149 Q406.626 279.069 406.626 272.081 Q406.626 265.05 403.154 261.013 Q399.725 256.977 393.822 256.977 M411.227 229.503 L411.227 237.489 Q407.928 235.927 404.543 235.102 Q401.201 234.277 397.902 234.277 Q389.222 234.277 384.621 240.137 Q380.064 245.996 379.413 257.845 Q381.973 254.069 385.836 252.073 Q389.699 250.033 394.343 250.033 Q404.109 250.033 409.751 255.979 Q415.437 261.882 415.437 272.081 Q415.437 282.064 409.534 288.097 Q403.631 294.13 393.822 294.13 Q382.581 294.13 376.635 285.536 Q370.689 276.899 370.689 260.536 Q370.689 245.172 377.98 236.057 Q385.272 226.899 397.555 226.899 Q400.854 226.899 404.196 227.55 Q407.581 228.201 411.227 229.503 Z" fill="#000000" fill-rule="evenodd" fill-opacity="1" /><path clip-path="url(#clip180)" d="M93.9289 674.403 Q94.7487 674.403 96.681 674.93 L142.472 686.407 Q152.661 688.925 159.805 697.123 Q166.948 705.262 166.948 714.514 Q166.948 720.077 163.962 723.648 Q161.034 727.22 156.525 727.22 Q152.544 727.22 150.611 725.112 Q148.737 723.004 148.737 720.486 Q148.737 719.667 148.972 718.788 Q149.206 717.91 150.201 716.973 Q151.197 716.036 152.895 716.036 Q155.647 716.036 157.814 718.437 Q158.809 719.608 159.043 720.721 Q159.277 721.775 159.277 723.59 Q160.917 722.887 162.03 721.599 Q163.142 720.311 163.552 718.847 Q164.021 717.383 164.138 716.446 Q164.313 715.451 164.313 714.514 Q164.313 707.019 156.76 701.28 Q154.476 699.582 152.192 698.352 Q149.967 697.064 147.215 696.127 Q144.521 695.19 143.057 694.78 Q141.594 694.312 138.256 693.492 Q143.702 698.938 143.702 705.613 Q143.702 708.424 142.94 710.942 Q142.179 713.401 140.598 715.568 Q138.959 717.734 136.089 719.023 Q133.22 720.252 129.414 720.252 Q125.374 720.252 119.869 718.671 Q114.365 717.09 104.235 713.284 Q98.5548 711.235 95.8027 711.235 Q94.4559 711.235 93.6361 711.527 Q92.7578 711.82 92.465 712.406 Q92.1136 712.991 92.0551 713.343 Q91.9965 713.635 91.9965 714.221 Q91.9965 717.676 95.5099 720.896 Q99.0233 724.117 106.87 726.342 Q108.334 726.81 108.685 727.103 Q109.036 727.396 109.036 728.274 Q108.978 729.738 107.807 729.738 Q107.338 729.738 105.523 729.211 Q103.649 728.684 100.897 727.455 Q98.0864 726.166 95.5685 724.41 Q92.992 722.653 91.1767 719.901 Q89.3615 717.09 89.3615 713.87 Q89.3615 709.478 92.2308 706.784 Q95.0414 704.032 99.1989 704.032 Q100.897 704.032 102.42 704.501 Q103.883 704.911 107.807 706.433 Q123.617 712.581 131.346 712.581 Q133.22 712.581 134.801 712.289 Q136.324 711.937 137.846 711.176 Q139.31 710.415 140.188 708.892 Q141.008 707.311 141.008 705.145 Q141.008 702.393 139.72 699.816 Q138.373 697.181 136.558 695.542 Q134.742 693.843 133.22 692.848 Q131.639 691.794 130.819 691.56 L109.271 686.173 L99.6674 683.772 Q94.4559 682.659 93.1676 682.132 Q91.938 681.43 91.2939 680.2 Q90.6497 678.97 90.6497 677.916 Q90.6497 676.452 91.5281 675.457 Q92.4064 674.403 93.9289 674.403 Z" fill="#000000" fill-rule="evenodd" fill-opacity="1" /><polyline clip-path="url(#clip182)" style="stroke:#000000; stroke-linecap:round; stroke-linejoin:round; stroke-width:12; stroke-opacity:1; fill:none" points="
  505.248,812.316 514.261,812.084 523.275,811.388 532.288,810.233 541.302,808.625 550.315,806.57 559.329,804.081 568.343,801.169 577.356,797.849 586.37,794.138 
  595.383,790.056 604.397,785.623 613.41,780.862 622.424,775.798 631.437,770.458 640.451,764.869 649.465,759.061 658.478,753.066 667.492,746.915 676.505,740.643 
  685.519,734.283 694.532,727.872 703.546,721.444 712.559,715.038 721.573,708.69 730.587,702.438 739.6,696.32 748.614,690.374 757.627,684.636 766.641,679.146 
  775.654,673.939 784.668,669.052 793.681,664.52 802.695,660.379 811.709,656.662 820.722,653.402 829.736,650.63 838.749,648.376 847.763,646.668 856.776,645.532 
  865.79,644.993 874.803,645.074 883.817,645.796 892.831,647.177 901.844,649.233 910.858,651.978 919.871,655.424 928.885,659.579 937.898,664.45 946.912,670.04 
  955.925,676.351 964.939,683.381 973.953,691.124 982.966,699.575 991.98,708.722 1000.99,718.554 1010.01,729.053 1019.02,740.203 1028.03,751.981 1037.05,764.364 
  1046.06,777.325 1055.07,790.835 1064.09,804.862 1073.1,819.372 1082.12,834.329 1091.13,849.692 1100.14,865.423 1109.16,881.476 1118.17,897.807 1127.18,914.37 
  1136.2,931.114 1145.21,947.991 1154.22,964.948 1163.24,981.932 1172.25,998.889 1181.26,1015.76 1190.28,1032.5 1199.29,1049.04 1208.3,1065.34 1217.32,1081.32 
  1226.33,1096.94 1235.35,1112.14 1244.36,1126.86 1253.37,1141.04 1262.39,1154.63 1271.4,1167.58 1280.41,1179.83 1289.43,1191.32 1298.44,1202.02 1307.45,1211.86 
  1316.47,1220.81 1325.48,1228.81 1334.49,1235.83 1343.51,1241.82 1352.52,1246.74 1361.54,1250.56 1370.55,1253.24 1379.56,1254.76 1388.58,1255.09 1397.59,1254.2 
  1406.6,1252.08 1415.62,1248.7 1424.63,1244.06 1433.64,1238.14 1442.66,1230.94 1451.67,1222.45 1460.68,1212.68 1469.7,1201.63 1478.71,1189.31 1487.73,1175.73 
  1496.74,1160.92 1505.75,1144.89 1514.77,1127.66 1523.78,1109.27 1532.79,1089.75 1541.81,1069.13 1550.82,1047.46 1559.83,1024.78 1568.85,1001.13 1577.86,976.576 
  1586.87,951.16 1595.89,924.945 1604.9,897.99 1613.91,870.359 1622.93,842.121 1631.94,813.343 1640.96,784.099 1649.97,754.462 1658.98,724.509 1668,694.318 
  1677.01,663.97 1686.02,633.547 1695.04,603.132 1704.05,572.808 1713.06,542.662 1722.08,512.779 1731.09,483.244 1740.1,454.144 1749.12,425.566 1758.13,397.595 
  1767.15,370.317 1776.16,343.815 1785.17,318.174 1794.19,293.474 1803.2,269.797 1812.21,247.22 1821.23,225.821 1830.24,205.672 1839.25,186.846 1848.27,169.411 
  1857.28,153.433 1866.29,138.974 1875.31,126.093 1884.32,114.845 1893.34,105.281 1902.35,97.4488 1911.36,91.3913 1920.38,87.147 1929.39,84.7499 1938.4,84.2294 
  1947.42,85.6101 1956.43,88.9114 1965.44,94.1478 1974.46,101.329 1983.47,110.458 1992.48,121.535 2001.5,134.552 2010.51,149.498 2019.52,166.355 2028.54,185.101 
  2037.55,205.707 2046.57,228.14 2055.58,252.36 2064.59,278.324 2073.61,305.981 2082.62,335.277 2091.63,366.153 2100.65,398.543 2109.66,432.378 2118.67,467.585 
  2127.69,504.083 2136.7,541.792 2145.71,580.622 2154.73,620.484 2163.74,661.282 2172.76,702.919 2181.77,745.292 2190.78,788.298 2199.8,831.828 2208.81,875.773 
  2217.82,920.021 2226.84,964.458 2235.85,1008.97 2244.86,1053.43 2253.88,1097.74 2262.89,1141.76 2271.9,1185.39 2280.92,1228.49 2289.93,1270.96 2298.94,1312.67 
  
  "/>
<circle clip-path="url(#clip182)" cx="2080.18" cy="327.193" r="21.6" fill="#008000" fill-rule="evenodd" fill-opacity="1" stroke="#000000" stroke-opacity="1" stroke-width="3.2"/>
<circle clip-path="url(#clip182)" cx="540.569" cy="808.772" r="21.6" fill="#008000" fill-rule="evenodd" fill-opacity="1" stroke="#000000" stroke-opacity="1" stroke-width="3.2"/>
<circle clip-path="url(#clip182)" cx="996.576" cy="713.652" r="21.6" fill="#008000" fill-rule="evenodd" fill-opacity="1" stroke="#000000" stroke-opacity="1" stroke-width="3.2"/>
<circle clip-path="url(#clip182)" cx="669.85" cy="745.285" r="21.6" fill="#008000" fill-rule="evenodd" fill-opacity="1" stroke="#000000" stroke-opacity="1" stroke-width="3.2"/>
<circle clip-path="url(#clip182)" cx="1737.31" cy="463.121" r="21.6" fill="#008000" fill-rule="evenodd" fill-opacity="1" stroke="#000000" stroke-opacity="1" stroke-width="3.2"/>
<circle clip-path="url(#clip182)" cx="1234.63" cy="1110.95" r="21.6" fill="#008000" fill-rule="evenodd" fill-opacity="1" stroke="#000000" stroke-opacity="1" stroke-width="3.2"/>
<circle clip-path="url(#clip182)" cx="1870.05" cy="133.412" r="21.6" fill="#008000" fill-rule="evenodd" fill-opacity="1" stroke="#000000" stroke-opacity="1" stroke-width="3.2"/>
<circle clip-path="url(#clip182)" cx="2087.68" cy="352.431" r="21.6" fill="#008000" fill-rule="evenodd" fill-opacity="1" stroke="#000000" stroke-opacity="1" stroke-width="3.2"/>
<circle clip-path="url(#clip182)" cx="1197.12" cy="1045.09" r="21.6" fill="#008000" fill-rule="evenodd" fill-opacity="1" stroke="#000000" stroke-opacity="1" stroke-width="3.2"/>
<circle clip-path="url(#clip182)" cx="507.87" cy="812.296" r="21.6" fill="#008000" fill-rule="evenodd" fill-opacity="1" stroke="#000000" stroke-opacity="1" stroke-width="3.2"/>
<circle clip-path="url(#clip182)" cx="2274.14" cy="1196.12" r="21.6" fill="#008000" fill-rule="evenodd" fill-opacity="1" stroke="#000000" stroke-opacity="1" stroke-width="3.2"/>
<circle clip-path="url(#clip182)" cx="2107.74" cy="425.049" r="21.6" fill="#008000" fill-rule="evenodd" fill-opacity="1" stroke="#000000" stroke-opacity="1" stroke-width="3.2"/>
<circle clip-path="url(#clip182)" cx="763.92" cy="680.775" r="21.6" fill="#008000" fill-rule="evenodd" fill-opacity="1" stroke="#000000" stroke-opacity="1" stroke-width="3.2"/>
<circle clip-path="url(#clip182)" cx="2220.46" cy="933.032" r="21.6" fill="#008000" fill-rule="evenodd" fill-opacity="1" stroke="#000000" stroke-opacity="1" stroke-width="3.2"/>
<circle clip-path="url(#clip182)" cx="1060.74" cy="799.587" r="21.6" fill="#008000" fill-rule="evenodd" fill-opacity="1" stroke="#000000" stroke-opacity="1" stroke-width="3.2"/>
<circle clip-path="url(#clip182)" cx="1617.08" cy="860.518" r="21.6" fill="#008000" fill-rule="evenodd" fill-opacity="1" stroke="#000000" stroke-opacity="1" stroke-width="3.2"/>
<circle clip-path="url(#clip182)" cx="2020.93" cy="169.158" r="21.6" fill="#008000" fill-rule="evenodd" fill-opacity="1" stroke="#000000" stroke-opacity="1" stroke-width="3.2"/>
<circle clip-path="url(#clip182)" cx="1797.22" cy="285.382" r="21.6" fill="#008000" fill-rule="evenodd" fill-opacity="1" stroke="#000000" stroke-opacity="1" stroke-width="3.2"/>
<circle clip-path="url(#clip182)" cx="946.192" cy="669.567" r="21.6" fill="#008000" fill-rule="evenodd" fill-opacity="1" stroke="#000000" stroke-opacity="1" stroke-width="3.2"/>
<circle clip-path="url(#clip182)" cx="748.922" cy="690.174" r="21.6" fill="#008000" fill-rule="evenodd" fill-opacity="1" stroke="#000000" stroke-opacity="1" stroke-width="3.2"/>
<polyline clip-path="url(#clip182)" style="stroke:#0000ff; stroke-linecap:round; stroke-linejoin:round; stroke-width:12; stroke-opacity:1; fill:none" stroke-dasharray="48, 24, 6, 24, 6, 24" points="
  505.248,814.425 514.261,808.769 523.275,807.093 532.288,807.413 541.302,808.952 550.315,811.468 559.329,813.935 568.343,815.798 577.356,816.131 586.37,814.505 
  595.383,810.675 604.397,804.632 613.41,796.858 622.424,787.754 631.437,777.858 640.451,768.353 649.465,760.081 658.478,752.867 667.492,746.749 676.505,741.411 
  685.519,736.281 694.532,730.727 703.546,724.657 712.559,718.669 721.573,712.317 730.587,705.395 739.6,697.944 748.614,690.414 757.627,683.962 766.641,679.882 
  775.654,679.503 784.668,682.993 793.681,690.719 802.695,702.272 811.709,716.06 820.722,730.502 829.736,744.198 838.749,756.167 847.763,765.345 856.776,770.134 
  865.79,769.705 874.803,763.633 883.817,751.914 892.831,735.754 901.844,717.822 910.858,700.888 919.871,686.865 928.885,676.873 937.898,671.155 946.912,669.622 
  955.925,671.909 964.939,677.508 973.953,685.505 982.966,695.439 991.98,707.168 1000.99,720.093 1010.01,733.331 1019.02,746.276 1028.03,758.5 1037.05,770.664 
  1046.06,782.502 1055.07,793.395 1064.09,802.949 1073.1,810.583 1082.12,816.301 1091.13,820.802 1100.14,824.516 1109.16,828.008 1118.17,832.761 1127.18,840.453 
  1136.2,852.266 1145.21,869.141 1154.22,891.404 1163.24,918.6 1172.25,950.155 1181.26,984.613 1190.28,1019.84 1199.29,1052.66 1208.3,1079.96 1217.32,1099.31 
  1226.33,1109.67 1235.35,1110.69 1244.36,1102.08 1253.37,1085.22 1262.39,1062.36 1271.4,1035.15 1280.41,1005.91 1289.43,976.919 1298.44,949.034 1307.45,922.461 
  1316.47,898.036 1325.48,876.099 1334.49,856.578 1343.51,839.483 1352.52,824.711 1361.54,812.149 1370.55,802.12 1379.56,795.3 1388.58,792.108 1397.59,791.461 
  1406.6,792.565 1415.62,794.974 1424.63,799.288 1433.64,805.561 1442.66,813.395 1451.67,822.291 1460.68,831.656 1469.7,840.095 1478.71,846.265 1487.73,849.209 
  1496.74,848.857 1505.75,845.411 1514.77,839.769 1523.78,832.914 1532.79,825.867 1541.81,820.164 1550.82,817.15 1559.83,816.684 1568.85,818.477 1577.86,822.956 
  1586.87,830.231 1595.89,839.881 1604.9,850.187 1613.91,858.473 1622.93,862.72 1631.94,861.316 1640.96,852.219 1649.97,833.831 1658.98,806.479 1668,771.304 
  1677.01,729.588 1686.02,683.903 1695.04,637.251 1704.05,592.201 1713.06,550.539 1722.08,513.848 1731.09,482.074 1740.1,455.349 1749.12,431.503 1758.13,408.54 
  1767.15,384.94 1776.16,359.515 1785.17,330.914 1794.19,297.711 1803.2,260.947 1812.21,221.023 1821.23,180.459 1830.24,143.018 1839.25,112.798 1848.27,95.6675 
  1857.28,96.1485 1866.29,117.503 1875.31,158.492 1884.32,213.414 1893.34,273.244 1902.35,331.269 1911.36,381.376 1920.38,418.338 1929.39,439.912 1938.4,445.399 
  1947.42,434.9 1956.43,409.753 1965.44,373.057 1974.46,329.027 1983.47,282.236 1992.48,238.851 2001.5,203.02 2010.51,179.167 2019.52,169.318 2028.54,172.994 
  2037.55,188.152 2046.57,211.66 2055.58,240.671 2064.59,272.218 2073.61,304.372 2082.62,335.598 2091.63,366.166 2100.65,397.885 2109.66,432.858 2118.67,470.783 
  2127.69,510.728 2136.7,552.048 2145.71,594.462 2154.73,637.332 2163.74,679.377 2172.76,719.736 2181.77,758.648 2190.78,797.2 2199.8,836.647 2208.81,877.603 
  2217.82,920.168 2226.84,964.2 2235.85,1009.35 2244.86,1055.09 2253.88,1100.81 2262.89,1145.11 2271.9,1186.25 2280.92,1222.7 2289.93,1252.52 2298.94,1274.64 
  
  "/>
<polyline clip-path="url(#clip182)" style="stroke:#0000ff; stroke-linecap:round; stroke-linejoin:round; stroke-width:12; stroke-opacity:1; fill:none" stroke-dasharray="48, 30" points="
  505.248,812.478 514.261,811.941 523.275,811.729 532.288,810.688 541.302,808.496 550.315,805.28 559.329,800.965 568.343,796.55 577.356,792.067 586.37,787.277 
  595.383,782.197 604.397,776.957 613.41,771.993 622.424,767.536 631.437,763.412 640.451,759.665 649.465,755.983 658.478,751.526 667.492,746.626 676.505,741.186 
  685.519,735.194 694.532,728.666 703.546,721.816 712.559,715.364 721.573,709.101 730.587,703.101 739.6,696.892 748.614,690.375 757.627,684.352 766.641,679.673 
  775.654,676.862 784.668,675.423 793.681,675.632 802.695,677.021 811.709,678.105 820.722,678.055 829.736,677.056 838.749,675.895 847.763,674.992 856.776,674.526 
  865.79,674.43 874.803,674.335 883.817,673.641 892.831,672.344 901.844,670.941 910.858,669.667 919.871,668.608 928.885,667.975 937.898,668.036 946.912,670.017 
  955.925,674.386 964.939,680.886 973.953,688.624 982.966,697.476 991.98,707.837 1000.99,719.783 1010.01,732.566 1019.02,745.106 1028.03,756.378 1037.05,766.997 
  1046.06,777.946 1055.07,790.533 1064.09,805.495 1073.1,821.913 1082.12,838.689 1091.13,855.633 1100.14,872.178 1109.16,887.965 1118.17,903.39 1127.18,918.471 
  1136.2,933.349 1145.21,948.662 1154.22,964.393 1163.24,980.097 1172.25,996.254 1181.26,1013.12 1190.28,1030.89 1199.29,1049.85 1208.3,1069.42 1217.32,1087.8 
  1226.33,1102.52 1235.35,1110.87 1244.36,1111.17 1253.37,1105.7 1262.39,1097.94 1271.4,1089.34 1280.41,1080.99 1289.43,1073.73 1298.44,1067.28 1307.45,1060.92 
  1316.47,1054.99 1325.48,1048.96 1334.49,1042.72 1343.51,1036.58 1352.52,1030.72 1361.54,1025.1 1370.55,1019.63 1379.56,1014.21 1388.58,1008.84 1397.59,1002.66 
  1406.6,995.41 1415.62,987.374 1424.63,980.292 1433.64,974.344 1442.66,969.458 1451.67,965.465 1460.68,961.877 1469.7,957.486 1478.71,951.463 1487.73,943.932 
  1496.74,936.474 1505.75,929.811 1514.77,924.039 1523.78,918.775 1532.79,913.308 1541.81,908.007 1550.82,903.372 1559.83,898.347 1568.85,892.607 1577.86,887.162 
  1586.87,882.837 1595.89,879.591 1604.9,875.083 1613.91,865.337 1622.93,847.284 1631.94,821.187 1640.96,789.632 1649.97,755.532 1658.98,722.475 1668,691.582 
  1677.01,661.754 1686.02,632.227 1695.04,602.287 1704.05,571.798 1713.06,541.028 1722.08,511.083 1731.09,482.036 1740.1,455.125 1749.12,429.109 1758.13,402.633 
  1767.15,375.139 1776.16,347.107 1785.17,319.57 1794.19,293.641 1803.2,272.124 1812.21,254.342 1821.23,238.608 1830.24,222.239 1839.25,202.218 1848.27,178.681 
  1857.28,154.874 1866.29,137.196 1875.31,130.116 1884.32,132.747 1893.34,138.624 1902.35,144.615 1911.36,149.737 1920.38,152.892 1929.39,154.726 1938.4,156.269 
  1947.42,157.711 1956.43,159.233 1965.44,160.991 1974.46,162.59 1983.47,162.479 1992.48,161.535 2001.5,159.669 2010.51,160.462 2019.52,167.569 2028.54,183.302 
  2037.55,205.71 2046.57,231.014 2055.58,256.58 2064.59,281.638 2073.61,307.741 2082.62,335.683 2091.63,365.308 2100.65,397.39 2109.66,433.451 2118.67,472.757 
  2127.69,513.484 2136.7,554.562 2145.71,595.973 2154.73,637.708 2163.74,679.218 2172.76,720.119 2181.77,760.676 2190.78,800.91 2199.8,841.074 2208.81,880.793 
  2217.82,920.904 2226.84,962.918 2235.85,1007.54 2244.86,1054.79 2253.88,1103.34 2262.89,1149.45 2271.9,1187.54 2280.92,1210.83 2289.93,1214.76 2298.94,1196.66 
  
  "/>
<polyline clip-path="url(#clip182)" style="stroke:#0000ff; stroke-linecap:round; stroke-linejoin:round; stroke-width:12; stroke-opacity:1; fill:none" points="
  505.248,814.443 514.261,811.002 523.275,810.757 532.288,810.05 541.302,807.818 550.315,804.645 559.329,801.095 568.343,798.086 577.356,795.011 586.37,791.346 
  595.383,787.013 604.397,782.429 613.41,778.101 622.424,773.7 631.437,768.638 640.451,763.231 649.465,757.873 658.478,752.18 667.492,746.478 676.505,740.555 
  685.519,734.503 694.532,728.044 703.546,721.233 712.559,714.903 721.573,708.764 730.587,702.793 739.6,696.72 748.614,690.452 757.627,684.639 766.641,679.396 
  775.654,674.774 784.668,670.031 793.681,665.54 802.695,661.855 811.709,658.61 820.722,655.632 829.736,652.85 838.749,650.611 847.763,649.051 856.776,647.99 
  865.79,647.504 874.803,647.637 883.817,648.06 892.831,648.984 901.844,650.837 910.858,653.699 919.871,657.207 928.885,661.124 937.898,665.212 946.912,670.338 
  955.925,676.644 964.939,683.902 973.953,691.735 982.966,699.912 991.98,708.835 1000.99,718.667 1010.01,729.293 1019.02,740.663 1028.03,752.352 1037.05,764.809 
  1046.06,777.774 1055.07,791.023 1064.09,805.404 1073.1,820.581 1082.12,835.735 1091.13,851.356 1100.14,867.424 1109.16,883.632 1118.17,900.161 1127.18,916.764 
  1136.2,933.27 1145.21,950.254 1154.22,967.417 1163.24,984.265 1172.25,1001.1 1181.26,1017.73 1190.28,1033.88 1199.29,1049.52 1208.3,1065.26 1217.32,1080.86 
  1226.33,1096.35 1235.35,1110.99 1244.36,1122.88 1253.37,1133.58 1262.39,1144.96 1271.4,1155.74 1280.41,1164.98 1289.43,1173.28 1298.44,1180.57 1307.45,1186.76 
  1316.47,1192.79 1325.48,1197.91 1334.49,1201.97 1343.51,1205.17 1352.52,1207.37 1361.54,1208.5 1370.55,1208.71 1379.56,1207.94 1388.58,1206.6 1397.59,1204.55 
  1406.6,1201.29 1415.62,1196.49 1424.63,1191.58 1433.64,1185.73 1442.66,1178.72 1451.67,1170.92 1460.68,1162.66 1469.7,1153.24 1478.71,1142.67 1487.73,1130.42 
  1496.74,1117.65 1505.75,1104.55 1514.77,1090.65 1523.78,1075.62 1532.79,1058.86 1541.81,1041.01 1550.82,1022.92 1559.83,1004.21 1568.85,984.061 1577.86,962.45 
  1586.87,939.714 1595.89,916.59 1604.9,893.097 1613.91,868.571 1622.93,841.948 1631.94,813.865 1640.96,785.623 1649.97,756.638 1658.98,727.23 1668,697.305 
  1677.01,666.531 1686.02,635.807 1695.04,605.334 1704.05,575.053 1713.06,544.492 1722.08,514.193 1731.09,483.842 1740.1,454.603 1749.12,426.149 1758.13,398.1 
  1767.15,370.684 1776.16,344.314 1785.17,318.922 1794.19,293.779 1803.2,270.408 1812.21,247.758 1821.23,225.887 1830.24,205.716 1839.25,187.132 1848.27,170.01 
  1857.28,153.341 1866.29,138.364 1875.31,126.227 1884.32,116.938 1893.34,108.008 1902.35,100.355 1911.36,95.1336 1920.38,91.1113 1929.39,88.6415 1938.4,88.5958 
  1947.42,90.1854 1956.43,93.0657 1965.44,97.7301 1974.46,104.578 1983.47,113.056 1992.48,124.404 2001.5,136.914 2010.51,150.851 2019.52,166.799 2028.54,185.528 
  2037.55,206.352 2046.57,228.682 2055.58,252.638 2064.59,278.196 2073.61,306.082 2082.62,335.694 2091.63,366.38 2100.65,398.398 2109.66,432.672 2118.67,468.526 
  2127.69,505.125 2136.7,542.387 2145.71,581.003 2154.73,621.196 2163.74,662.323 2172.76,703.739 2181.77,745.591 2190.78,788.144 2199.8,831.533 2208.81,875.302 
  2217.82,919.456 2226.84,963.404 2235.85,1007.06 2244.86,1050.91 2253.88,1095.4 2262.89,1140.19 2271.9,1184.64 2280.92,1228.52 2289.93,1272.32 2298.94,1317.07 
  
  "/>
</svg>
