<?xml version="1.0" encoding="utf-8"?>
<svg xmlns="http://www.w3.org/2000/svg" xmlns:xlink="http://www.w3.org/1999/xlink" width="600" height="400" viewBox="0 0 2400 1600">
<defs>
  <clipPath id="clip180">
    <rect x="0" y="0" width="2400" height="1600"/>
  </clipPath>
</defs>
<path clip-path="url(#clip180)" d="
M0 1600 L2400 1600 L2400 0 L0 0  Z
  " fill="#ffffff" fill-rule="evenodd" fill-opacity="1"/>
<defs>
  <clipPath id="clip181">
    <rect x="480" y="0" width="1681" height="1600"/>
  </clipPath>
</defs>
<defs>
  <clipPath id="clip182">
    <rect x="450" y="47" width="1903" height="1308"/>
  </clipPath>
</defs>
<path clip-path="url(#clip180)" d="
M450.786 1354.06 L2352.76 1354.06 L2352.76 47.2441 L450.786 47.2441  Z
  " fill="#ffffff" fill-rule="evenodd" fill-opacity="1"/>
<polyline clip-path="url(#clip182)" style="stroke:#000000; stroke-linecap:round; stroke-linejoin:round; stroke-width:2; stroke-opacity:0.1; fill:none" points="
  504.615,1354.06 504.615,47.2441 
  "/>
<polyline clip-path="url(#clip182)" style="stroke:#000000; stroke-linecap:round; stroke-linejoin:round; stroke-width:2; stroke-opacity:0.1; fill:none" points="
  684.046,1354.06 684.046,47.2441 
  "/>
<polyline clip-path="url(#clip182)" style="stroke:#000000; stroke-linecap:round; stroke-linejoin:round; stroke-width:2; stroke-opacity:0.1; fill:none" points="
  863.477,1354.06 863.477,47.2441 
  "/>
<polyline clip-path="url(#clip182)" style="stroke:#000000; stroke-linecap:round; stroke-linejoin:round; stroke-width:2; stroke-opacity:0.1; fill:none" points="
  1042.91,1354.06 1042.91,47.2441 
  "/>
<polyline clip-path="url(#clip182)" style="stroke:#000000; stroke-linecap:round; stroke-linejoin:round; stroke-width:2; stroke-opacity:0.1; fill:none" points="
  1222.34,1354.06 1222.34,47.2441 
  "/>
<polyline clip-path="url(#clip182)" style="stroke:#000000; stroke-linecap:round; stroke-linejoin:round; stroke-width:2; stroke-opacity:0.1; fill:none" points="
  1401.77,1354.06 1401.77,47.2441 
  "/>
<polyline clip-path="url(#clip182)" style="stroke:#000000; stroke-linecap:round; stroke-linejoin:round; stroke-width:2; stroke-opacity:0.1; fill:none" points="
  1581.2,1354.06 1581.2,47.2441 
  "/>
<polyline clip-path="url(#clip182)" style="stroke:#000000; stroke-linecap:round; stroke-linejoin:round; stroke-width:2; stroke-opacity:0.1; fill:none" points="
  1760.63,1354.06 1760.63,47.2441 
  "/>
<polyline clip-path="url(#clip182)" style="stroke:#000000; stroke-linecap:round; stroke-linejoin:round; stroke-width:2; stroke-opacity:0.1; fill:none" points="
  1940.06,1354.06 1940.06,47.2441 
  "/>
<polyline clip-path="url(#clip182)" style="stroke:#000000; stroke-linecap:round; stroke-linejoin:round; stroke-width:2; stroke-opacity:0.1; fill:none" points="
  2119.5,1354.06 2119.5,47.2441 
  "/>
<polyline clip-path="url(#clip182)" style="stroke:#000000; stroke-linecap:round; stroke-linejoin:round; stroke-width:2; stroke-opacity:0.1; fill:none" points="
  2298.93,1354.06 2298.93,47.2441 
  "/>
<polyline clip-path="url(#clip180)" style="stroke:#000000; stroke-linecap:round; stroke-linejoin:round; stroke-width:4; stroke-opacity:1; fill:none" points="
  450.786,1354.06 2352.76,1354.06 
  "/>
<polyline clip-path="url(#clip180)" style="stroke:#000000; stroke-linecap:round; stroke-linejoin:round; stroke-width:4; stroke-opacity:1; fill:none" points="
  504.615,1354.06 504.615,1335.16 
  "/>
<polyline clip-path="url(#clip180)" style="stroke:#000000; stroke-linecap:round; stroke-linejoin:round; stroke-width:4; stroke-opacity:1; fill:none" points="
  684.046,1354.06 684.046,1335.16 
  "/>
<polyline clip-path="url(#clip180)" style="stroke:#000000; stroke-linecap:round; stroke-linejoin:round; stroke-width:4; stroke-opacity:1; fill:none" points="
  863.477,1354.06 863.477,1335.16 
  "/>
<polyline clip-path="url(#clip180)" style="stroke:#000000; stroke-linecap:round; stroke-linejoin:round; stroke-width:4; stroke-opacity:1; fill:none" points="
  1042.91,1354.06 1042.91,1335.16 
  "/>
<polyline clip-path="url(#clip180)" style="stroke:#000000; stroke-linecap:round; stroke-linejoin:round; stroke-width:4; stroke-opacity:1; fill:none" points="
  1222.34,1354.06 1222.34,1335.16 
  "/>
<polyline clip-path="url(#clip180)" style="stroke:#000000; stroke-linecap:round; stroke-linejoin:round; stroke-width:4; stroke-opacity:1; fill:none" points="
  1401.77,1354.06 1401.77,1335.16 
  "/>
<polyline clip-path="url(#clip180)" style="stroke:#000000; stroke-linecap:round; stroke-linejoin:round; stroke-width:4; stroke-opacity:1; fill:none" points="
  1581.2,1354.06 1581.2,1335.16 
  "/>
<polyline clip-path="url(#clip180)" style="stroke:#000000; stroke-linecap:round; stroke-linejoin:round; stroke-width:4; stroke-opacity:1; fill:none" points="
  1760.63,1354.06 1760.63,1335.16 
  "/>
<polyline clip-path="url(#clip180)" style="stroke:#000000; stroke-linecap:round; stroke-linejoin:round; stroke-width:4; stroke-opacity:1; fill:none" points="
  1940.06,1354.06 1940.06,1335.16 
  "/>
<polyline clip-path="url(#clip180)" style="stroke:#000000; stroke-linecap:round; stroke-linejoin:round; stroke-width:4; stroke-opacity:1; fill:none" points="
  2119.5,1354.06 2119.5,1335.16 
  "/>
<polyline clip-path="url(#clip180)" style="stroke:#000000; stroke-linecap:round; stroke-linejoin:round; stroke-width:4; stroke-opacity:1; fill:none" points="
  2298.93,1354.06 2298.93,1335.16 
  "/>
<path clip-path="url(#clip180)" d="M504.615 1395.23 Q497.844 1395.23 494.415 1401.92 Q491.03 1408.56 491.03 1421.92 Q491.03 1435.25 494.415 1441.93 Q497.844 1448.57 504.615 1448.57 Q511.429 1448.57 514.815 1441.93 Q518.243 1435.25 518.243 1421.92 Q518.243 1408.56 514.815 1401.92 Q511.429 1395.23 504.615 1395.23 M504.615 1388.29 Q515.509 1388.29 521.238 1396.93 Q527.011 1405.52 527.011 1421.92 Q527.011 1438.29 521.238 1446.92 Q515.509 1455.52 504.615 1455.52 Q493.721 1455.52 487.949 1446.92 Q482.219 1438.29 482.219 1421.92 Q482.219 1405.52 487.949 1396.93 Q493.721 1388.29 504.615 1388.29 Z" fill="#000000" fill-rule="evenodd" fill-opacity="1" /><path clip-path="url(#clip180)" d="M822.57 1395.23 Q815.8 1395.23 812.371 1401.92 Q808.985 1408.56 808.985 1421.92 Q808.985 1435.25 812.371 1441.93 Q815.8 1448.57 822.57 1448.57 Q829.385 1448.57 832.77 1441.93 Q836.199 1435.25 836.199 1421.92 Q836.199 1408.56 832.77 1401.92 Q829.385 1395.23 822.57 1395.23 M822.57 1388.29 Q833.465 1388.29 839.194 1396.93 Q844.966 1405.52 844.966 1421.92 Q844.966 1438.29 839.194 1446.92 Q833.465 1455.52 822.57 1455.52 Q811.676 1455.52 805.904 1446.92 Q800.175 1438.29 800.175 1421.92 Q800.175 1405.52 805.904 1396.93 Q811.676 1388.29 822.57 1388.29 Z" fill="#000000" fill-rule="evenodd" fill-opacity="1" /><path clip-path="url(#clip180)" d="M860.374 1443.24 L869.532 1443.24 L869.532 1454.26 L860.374 1454.26 L860.374 1443.24 Z" fill="#000000" fill-rule="evenodd" fill-opacity="1" /><path clip-path="url(#clip180)" d="M896.181 1446.88 L926.78 1446.88 L926.78 1454.26 L885.634 1454.26 L885.634 1446.88 Q890.626 1441.72 899.219 1433.04 Q907.856 1424.31 910.07 1421.79 Q914.28 1417.06 915.929 1413.81 Q917.622 1410.51 917.622 1407.34 Q917.622 1402.18 913.976 1398.92 Q910.374 1395.67 904.558 1395.67 Q900.435 1395.67 895.834 1397.1 Q891.277 1398.53 886.068 1401.44 L886.068 1392.58 Q891.364 1390.46 895.964 1389.37 Q900.565 1388.29 904.384 1388.29 Q914.454 1388.29 920.443 1393.32 Q926.433 1398.36 926.433 1406.78 Q926.433 1410.77 924.914 1414.37 Q923.438 1417.93 919.488 1422.79 Q918.403 1424.05 912.587 1430.08 Q906.771 1436.07 896.181 1446.88 Z" fill="#000000" fill-rule="evenodd" fill-opacity="1" /><path clip-path="url(#clip180)" d="M1179.48 1395.23 Q1172.71 1395.23 1169.28 1401.92 Q1165.89 1408.56 1165.89 1421.92 Q1165.89 1435.25 1169.28 1441.93 Q1172.71 1448.57 1179.48 1448.57 Q1186.29 1448.57 1189.68 1441.93 Q1193.11 1435.25 1193.11 1421.92 Q1193.11 1408.56 1189.68 1401.92 Q1186.29 1395.23 1179.48 1395.23 M1179.48 1388.29 Q1190.37 1388.29 1196.1 1396.93 Q1201.88 1405.52 1201.88 1421.92 Q1201.88 1438.29 1196.1 1446.92 Q1190.37 1455.52 1179.48 1455.52 Q1168.59 1455.52 1162.81 1446.92 Q1157.08 1438.29 1157.08 1421.92 Q1157.08 1405.52 1162.81 1396.93 Q1168.59 1388.29 1179.48 1388.29 Z" fill="#000000" fill-rule="evenodd" fill-opacity="1" /><path clip-path="url(#clip180)" d="M1217.28 1443.24 L1226.44 1443.24 L1226.44 1454.26 L1217.28 1454.26 L1217.28 1443.24 Z" fill="#000000" fill-rule="evenodd" fill-opacity="1" /><path clip-path="url(#clip180)" d="M1269.63 1397.1 L1247.49 1431.69 L1269.63 1431.69 L1269.63 1397.1 M1267.33 1389.46 L1278.35 1389.46 L1278.35 1431.69 L1287.6 1431.69 L1287.6 1438.98 L1278.35 1438.98 L1278.35 1454.26 L1269.63 1454.26 L1269.63 1438.98 L1240.37 1438.98 L1240.37 1430.52 L1267.33 1389.46 Z" fill="#000000" fill-rule="evenodd" fill-opacity="1" /><path clip-path="url(#clip180)" d="M1538.65 1395.23 Q1531.87 1395.23 1528.45 1401.92 Q1525.06 1408.56 1525.06 1421.92 Q1525.06 1435.25 1528.45 1441.93 Q1531.87 1448.57 1538.65 1448.57 Q1545.46 1448.57 1548.85 1441.93 Q1552.27 1435.25 1552.27 1421.92 Q1552.27 1408.56 1548.85 1401.92 Q1545.46 1395.23 1538.65 1395.23 M1538.65 1388.29 Q1549.54 1388.29 1555.27 1396.93 Q1561.04 1405.52 1561.04 1421.92 Q1561.04 1438.29 1555.27 1446.92 Q1549.54 1455.52 1538.65 1455.52 Q1527.75 1455.52 1521.98 1446.92 Q1516.25 1438.29 1516.25 1421.92 Q1516.25 1405.52 1521.98 1396.93 Q1527.75 1388.29 1538.65 1388.29 Z" fill="#000000" fill-rule="evenodd" fill-opacity="1" /><path clip-path="url(#clip180)" d="M1576.45 1443.24 L1585.61 1443.24 L1585.61 1454.26 L1576.45 1454.26 L1576.45 1443.24 Z" fill="#000000" fill-rule="evenodd" fill-opacity="1" /><path clip-path="url(#clip180)" d="M1624.54 1418.37 Q1618.64 1418.37 1615.16 1422.4 Q1611.74 1426.44 1611.74 1433.47 Q1611.74 1440.46 1615.16 1444.54 Q1618.64 1448.57 1624.54 1448.57 Q1630.44 1448.57 1633.87 1444.54 Q1637.34 1440.46 1637.34 1433.47 Q1637.34 1426.44 1633.87 1422.4 Q1630.44 1418.37 1624.54 1418.37 M1641.94 1390.89 L1641.94 1398.88 Q1638.65 1397.32 1635.26 1396.49 Q1631.92 1395.67 1628.62 1395.67 Q1619.94 1395.67 1615.34 1401.53 Q1610.78 1407.39 1610.13 1419.23 Q1612.69 1415.46 1616.55 1413.46 Q1620.42 1411.42 1625.06 1411.42 Q1634.83 1411.42 1640.47 1417.37 Q1646.15 1423.27 1646.15 1433.47 Q1646.15 1443.45 1640.25 1449.49 Q1634.35 1455.52 1624.54 1455.52 Q1613.3 1455.52 1607.35 1446.92 Q1601.41 1438.29 1601.41 1421.92 Q1601.41 1406.56 1608.7 1397.45 Q1615.99 1388.29 1628.27 1388.29 Q1631.57 1388.29 1634.91 1388.94 Q1638.3 1389.59 1641.94 1390.89 Z" fill="#000000" fill-rule="evenodd" fill-opacity="1" /><path clip-path="url(#clip180)" d="M1897.75 1395.23 Q1890.98 1395.23 1887.55 1401.92 Q1884.16 1408.56 1884.16 1421.92 Q1884.16 1435.25 1887.55 1441.93 Q1890.98 1448.57 1897.75 1448.57 Q1904.56 1448.57 1907.95 1441.93 Q1911.38 1435.25 1911.38 1421.92 Q1911.38 1408.56 1907.95 1401.92 Q1904.56 1395.23 1897.75 1395.23 M1897.75 1388.29 Q1908.64 1388.29 1914.37 1396.93 Q1920.14 1405.52 1920.14 1421.92 Q1920.14 1438.29 1914.37 1446.92 Q1908.64 1455.52 1897.75 1455.52 Q1886.85 1455.52 1881.08 1446.92 Q1875.35 1438.29 1875.35 1421.92 Q1875.35 1405.52 1881.08 1396.93 Q1886.85 1388.29 1897.75 1388.29 Z" fill="#000000" fill-rule="evenodd" fill-opacity="1" /><path clip-path="url(#clip180)" d="M1935.55 1443.24 L1944.71 1443.24 L1944.71 1454.26 L1935.55 1454.26 L1935.55 1443.24 Z" fill="#000000" fill-rule="evenodd" fill-opacity="1" /><path clip-path="url(#clip180)" d="M1982.56 1423.49 Q1976.31 1423.49 1972.7 1426.83 Q1969.14 1430.17 1969.14 1436.03 Q1969.14 1441.89 1972.7 1445.23 Q1976.31 1448.57 1982.56 1448.57 Q1988.81 1448.57 1992.41 1445.23 Q1996.01 1441.85 1996.01 1436.03 Q1996.01 1430.17 1992.41 1426.83 Q1988.85 1423.49 1982.56 1423.49 M1973.79 1419.75 Q1968.15 1418.37 1964.98 1414.5 Q1961.85 1410.64 1961.85 1405.08 Q1961.85 1397.32 1967.36 1392.8 Q1972.92 1388.29 1982.56 1388.29 Q1992.23 1388.29 1997.75 1392.8 Q2003.26 1397.32 2003.26 1405.08 Q2003.26 1410.64 2000.09 1414.5 Q1996.97 1418.37 1991.37 1419.75 Q1997.7 1421.23 2001.22 1425.53 Q2004.78 1429.82 2004.78 1436.03 Q2004.78 1445.45 1999 1450.48 Q1993.28 1455.52 1982.56 1455.52 Q1971.83 1455.52 1966.06 1450.48 Q1960.33 1445.45 1960.33 1436.03 Q1960.33 1429.82 1963.89 1425.53 Q1967.45 1421.23 1973.79 1419.75 M1970.58 1405.91 Q1970.58 1410.94 1973.7 1413.77 Q1976.87 1416.59 1982.56 1416.59 Q1988.2 1416.59 1991.37 1413.77 Q1994.58 1410.94 1994.58 1405.91 Q1994.58 1400.87 1991.37 1398.05 Q1988.2 1395.23 1982.56 1395.23 Q1976.87 1395.23 1973.7 1398.05 Q1970.58 1400.87 1970.58 1405.91 Z" fill="#000000" fill-rule="evenodd" fill-opacity="1" /><path clip-path="url(#clip180)" d="M2280.89 1446.88 L2295.22 1446.88 L2295.22 1397.45 L2279.63 1400.57 L2279.63 1392.58 L2295.13 1389.46 L2303.9 1389.46 L2303.9 1446.88 L2318.22 1446.88 L2318.22 1454.26 L2280.89 1454.26 L2280.89 1446.88 Z" fill="#000000" fill-rule="evenodd" fill-opacity="1" /><path clip-path="url(#clip180)" d="M1427.54 1519.59 Q1427.54 1522.87 1425.49 1524.74 Q1423.44 1526.56 1421.1 1526.56 Q1418.87 1526.56 1417.7 1525.27 Q1416.53 1523.98 1416.53 1522.34 Q1416.53 1520.12 1418.17 1518.18 Q1419.81 1516.25 1422.27 1515.84 Q1419.87 1514.32 1416.3 1514.32 Q1413.95 1514.32 1411.91 1515.55 Q1409.91 1516.78 1408.68 1518.36 Q1407.51 1519.94 1406.46 1522.22 Q1405.46 1524.45 1405.05 1525.8 Q1404.7 1527.08 1404.41 1528.49 L1400.31 1544.89 Q1398.32 1552.67 1398.32 1555.43 Q1398.32 1558.82 1399.96 1561.11 Q1401.6 1563.33 1404.88 1563.33 Q1406.17 1563.33 1407.63 1562.98 Q1409.09 1562.57 1410.97 1561.52 Q1412.9 1560.4 1414.6 1558.76 Q1416.36 1557.07 1418.05 1554.2 Q1419.75 1551.33 1420.86 1547.64 Q1421.22 1546.35 1422.39 1546.35 Q1423.85 1546.35 1423.85 1547.52 Q1423.85 1548.52 1423.03 1550.62 Q1422.27 1552.67 1420.57 1555.37 Q1418.93 1558 1416.77 1560.4 Q1414.6 1562.75 1411.38 1564.39 Q1408.16 1566.02 1404.64 1566.02 Q1399.61 1566.02 1396.27 1563.33 Q1392.93 1560.64 1391.7 1556.89 Q1391.41 1557.42 1391 1558.12 Q1390.59 1558.82 1389.36 1560.4 Q1388.19 1561.93 1386.84 1563.1 Q1385.5 1564.21 1383.39 1565.09 Q1381.34 1566.02 1379.11 1566.02 Q1376.3 1566.02 1373.79 1565.2 Q1371.33 1564.39 1369.57 1562.51 Q1367.81 1560.64 1367.81 1558.06 Q1367.81 1555.19 1369.74 1553.2 Q1371.74 1551.15 1374.43 1551.15 Q1376.13 1551.15 1377.47 1552.15 Q1378.88 1553.14 1378.88 1555.31 Q1378.88 1557.71 1377.24 1559.53 Q1375.6 1561.34 1373.26 1561.81 Q1375.66 1563.33 1379.23 1563.33 Q1383.1 1563.33 1386.14 1559.93 Q1389.19 1556.54 1390.65 1550.86 Q1394.28 1537.22 1395.69 1531.13 Q1397.09 1524.98 1397.09 1522.34 Q1397.09 1519.88 1396.45 1518.18 Q1395.8 1516.49 1394.69 1515.73 Q1393.64 1514.91 1392.64 1514.61 Q1391.7 1514.32 1390.65 1514.32 Q1388.89 1514.32 1386.9 1515.02 Q1384.97 1515.73 1382.63 1517.36 Q1380.34 1518.95 1378.18 1522.22 Q1376.01 1525.5 1374.55 1530.01 Q1374.25 1531.36 1372.97 1531.36 Q1371.56 1531.3 1371.56 1530.13 Q1371.56 1529.13 1372.32 1527.08 Q1373.14 1524.98 1374.78 1522.34 Q1376.48 1519.71 1378.65 1517.36 Q1380.87 1514.96 1384.09 1513.32 Q1387.37 1511.68 1390.88 1511.68 Q1392.46 1511.68 1393.99 1512.04 Q1395.57 1512.33 1397.44 1513.21 Q1399.37 1514.09 1401.07 1516.02 Q1402.77 1517.95 1403.82 1520.76 Q1404.53 1519.41 1405.46 1518.13 Q1406.46 1516.84 1407.98 1515.26 Q1409.56 1513.62 1411.73 1512.68 Q1413.95 1511.68 1416.41 1511.68 Q1418.81 1511.68 1421.16 1512.33 Q1423.5 1512.91 1425.49 1514.85 Q1427.54 1516.72 1427.54 1519.59 Z" fill="#000000" fill-rule="evenodd" fill-opacity="1" /><polyline clip-path="url(#clip182)" style="stroke:#000000; stroke-linecap:round; stroke-linejoin:round; stroke-width:2; stroke-opacity:0.1; fill:none" points="
  450.786,1067.4 2352.76,1067.4 
  "/>
<polyline clip-path="url(#clip182)" style="stroke:#000000; stroke-linecap:round; stroke-linejoin:round; stroke-width:2; stroke-opacity:0.1; fill:none" points="
  450.786,757.326 2352.76,757.326 
  "/>
<polyline clip-path="url(#clip182)" style="stroke:#000000; stroke-linecap:round; stroke-linejoin:round; stroke-width:2; stroke-opacity:0.1; fill:none" points="
  450.786,447.257 2352.76,447.257 
  "/>
<polyline clip-path="url(#clip182)" style="stroke:#000000; stroke-linecap:round; stroke-linejoin:round; stroke-width:2; stroke-opacity:0.1; fill:none" points="
  450.786,137.188 2352.76,137.188 
  "/>
<polyline clip-path="url(#clip180)" style="stroke:#000000; stroke-linecap:round; stroke-linejoin:round; stroke-width:4; stroke-opacity:1; fill:none" points="
  450.786,1354.06 450.786,47.2441 
  "/>
<polyline clip-path="url(#clip180)" style="stroke:#000000; stroke-linecap:round; stroke-linejoin:round; stroke-width:4; stroke-opacity:1; fill:none" points="
  450.786,1067.4 469.683,1067.4 
  "/>
<polyline clip-path="url(#clip180)" style="stroke:#000000; stroke-linecap:round; stroke-linejoin:round; stroke-width:4; stroke-opacity:1; fill:none" points="
  450.786,757.326 469.683,757.326 
  "/>
<polyline clip-path="url(#clip180)" style="stroke:#000000; stroke-linecap:round; stroke-linejoin:round; stroke-width:4; stroke-opacity:1; fill:none" points="
  450.786,447.257 469.683,447.257 
  "/>
<polyline clip-path="url(#clip180)" style="stroke:#000000; stroke-linecap:round; stroke-linejoin:round; stroke-width:4; stroke-opacity:1; fill:none" points="
  450.786,137.188 469.683,137.188 
  "/>
<path clip-path="url(#clip180)" d="M216.132 1068.24 L271.774 1068.24 L271.774 1075.62 L216.132 1075.62 L216.132 1068.24 Z" fill="#000000" fill-rule="evenodd" fill-opacity="1" /><path clip-path="url(#clip180)" d="M309.448 1040.77 Q302.677 1040.77 299.248 1047.45 Q295.863 1054.09 295.863 1067.46 Q295.863 1080.79 299.248 1087.47 Q302.677 1094.11 309.448 1094.11 Q316.262 1094.11 319.647 1087.47 Q323.076 1080.79 323.076 1067.46 Q323.076 1054.09 319.647 1047.45 Q316.262 1040.77 309.448 1040.77 M309.448 1033.82 Q320.342 1033.82 326.071 1042.46 Q331.843 1051.05 331.843 1067.46 Q331.843 1083.82 326.071 1092.46 Q320.342 1101.05 309.448 1101.05 Q298.554 1101.05 292.781 1092.46 Q287.052 1083.82 287.052 1067.46 Q287.052 1051.05 292.781 1042.46 Q298.554 1033.82 309.448 1033.82 Z" fill="#000000" fill-rule="evenodd" fill-opacity="1" /><path clip-path="url(#clip180)" d="M347.251 1088.77 L356.409 1088.77 L356.409 1099.8 L347.251 1099.8 L347.251 1088.77 Z" fill="#000000" fill-rule="evenodd" fill-opacity="1" /><path clip-path="url(#clip180)" d="M375.593 1035 L410.011 1035 L410.011 1042.37 L383.623 1042.37 L383.623 1058.26 Q385.532 1057.61 387.442 1057.3 Q389.352 1056.96 391.262 1056.96 Q402.112 1056.96 408.449 1062.9 Q414.786 1068.85 414.786 1079.01 Q414.786 1089.47 408.275 1095.28 Q401.765 1101.05 389.916 1101.05 Q385.836 1101.05 381.583 1100.36 Q377.373 1099.67 372.859 1098.28 L372.859 1089.47 Q376.765 1091.59 380.932 1092.63 Q385.098 1093.68 389.742 1093.68 Q397.251 1093.68 401.635 1089.73 Q406.018 1085.78 406.018 1079.01 Q406.018 1072.23 401.635 1068.29 Q397.251 1064.34 389.742 1064.34 Q386.227 1064.34 382.711 1065.12 Q379.239 1065.9 375.593 1067.55 L375.593 1035 Z" fill="#000000" fill-rule="evenodd" fill-opacity="1" /><path clip-path="url(#clip180)" d="M307.581 730.699 Q300.811 730.699 297.382 737.383 Q293.996 744.023 293.996 757.391 Q293.996 770.716 297.382 777.4 Q300.811 784.041 307.581 784.041 Q314.396 784.041 317.781 777.4 Q321.21 770.716 321.21 757.391 Q321.21 744.023 317.781 737.383 Q314.396 730.699 307.581 730.699 M307.581 723.754 Q318.475 723.754 324.205 732.392 Q329.977 740.985 329.977 757.391 Q329.977 773.754 324.205 782.391 Q318.475 790.985 307.581 790.985 Q296.687 790.985 290.915 782.391 Q285.186 773.754 285.186 757.391 Q285.186 740.985 290.915 732.392 Q296.687 723.754 307.581 723.754 Z" fill="#000000" fill-rule="evenodd" fill-opacity="1" /><path clip-path="url(#clip180)" d="M345.385 778.702 L354.543 778.702 L354.543 789.726 L345.385 789.726 L345.385 778.702 Z" fill="#000000" fill-rule="evenodd" fill-opacity="1" /><path clip-path="url(#clip180)" d="M392.39 730.699 Q385.619 730.699 382.19 737.383 Q378.805 744.023 378.805 757.391 Q378.805 770.716 382.19 777.4 Q385.619 784.041 392.39 784.041 Q399.204 784.041 402.59 777.4 Q406.018 770.716 406.018 757.391 Q406.018 744.023 402.59 737.383 Q399.204 730.699 392.39 730.699 M392.39 723.754 Q403.284 723.754 409.013 732.392 Q414.786 740.985 414.786 757.391 Q414.786 773.754 409.013 782.391 Q403.284 790.985 392.39 790.985 Q381.496 790.985 375.723 782.391 Q369.994 773.754 369.994 757.391 Q369.994 740.985 375.723 732.392 Q381.496 723.754 392.39 723.754 Z" fill="#000000" fill-rule="evenodd" fill-opacity="1" /><path clip-path="url(#clip180)" d="M309.448 420.63 Q302.677 420.63 299.248 427.314 Q295.863 433.954 295.863 447.322 Q295.863 460.647 299.248 467.331 Q302.677 473.972 309.448 473.972 Q316.262 473.972 319.647 467.331 Q323.076 460.647 323.076 447.322 Q323.076 433.954 319.647 427.314 Q316.262 420.63 309.448 420.63 M309.448 413.685 Q320.342 413.685 326.071 422.323 Q331.843 430.916 331.843 447.322 Q331.843 463.685 326.071 472.322 Q320.342 480.916 309.448 480.916 Q298.554 480.916 292.781 472.322 Q287.052 463.685 287.052 447.322 Q287.052 430.916 292.781 422.323 Q298.554 413.685 309.448 413.685 Z" fill="#000000" fill-rule="evenodd" fill-opacity="1" /><path clip-path="url(#clip180)" d="M347.251 468.633 L356.409 468.633 L356.409 479.657 L347.251 479.657 L347.251 468.633 Z" fill="#000000" fill-rule="evenodd" fill-opacity="1" /><path clip-path="url(#clip180)" d="M375.593 414.857 L410.011 414.857 L410.011 422.236 L383.623 422.236 L383.623 438.121 Q385.532 437.47 387.442 437.166 Q389.352 436.819 391.262 436.819 Q402.112 436.819 408.449 442.765 Q414.786 448.711 414.786 458.867 Q414.786 469.327 408.275 475.143 Q401.765 480.916 389.916 480.916 Q385.836 480.916 381.583 480.222 Q377.373 479.527 372.859 478.138 L372.859 469.327 Q376.765 471.454 380.932 472.496 Q385.098 473.538 389.742 473.538 Q397.251 473.538 401.635 469.588 Q406.018 465.638 406.018 458.867 Q406.018 452.097 401.635 448.147 Q397.251 444.197 389.742 444.197 Q386.227 444.197 382.711 444.979 Q379.239 445.76 375.593 447.409 L375.593 414.857 Z" fill="#000000" fill-rule="evenodd" fill-opacity="1" /><path clip-path="url(#clip180)" d="M290.351 162.21 L304.673 162.21 L304.673 112.774 L289.092 115.899 L289.092 107.913 L304.587 104.788 L313.354 104.788 L313.354 162.21 L327.677 162.21 L327.677 169.588 L290.351 169.588 L290.351 162.21 Z" fill="#000000" fill-rule="evenodd" fill-opacity="1" /><path clip-path="url(#clip180)" d="M345.385 158.564 L354.543 158.564 L354.543 169.588 L345.385 169.588 L345.385 158.564 Z" fill="#000000" fill-rule="evenodd" fill-opacity="1" /><path clip-path="url(#clip180)" d="M392.39 110.561 Q385.619 110.561 382.19 117.245 Q378.805 123.885 378.805 137.253 Q378.805 150.578 382.19 157.262 Q385.619 163.903 392.39 163.903 Q399.204 163.903 402.59 157.262 Q406.018 150.578 406.018 137.253 Q406.018 123.885 402.59 117.245 Q399.204 110.561 392.39 110.561 M392.39 103.616 Q403.284 103.616 409.013 112.254 Q414.786 120.847 414.786 137.253 Q414.786 153.616 409.013 162.253 Q403.284 170.847 392.39 170.847 Q381.496 170.847 375.723 162.253 Q369.994 153.616 369.994 137.253 Q369.994 120.847 375.723 112.254 Q381.496 103.616 392.39 103.616 Z" fill="#000000" fill-rule="evenodd" fill-opacity="1" /><path clip-path="url(#clip180)" d="M93.9289 674.403 Q94.7487 674.403 96.681 674.93 L142.472 686.407 Q152.661 688.925 159.805 697.123 Q166.948 705.262 166.948 714.514 Q166.948 720.077 163.962 723.648 Q161.034 727.22 156.525 727.22 Q152.544 727.22 150.611 725.112 Q148.737 723.004 148.737 720.486 Q148.737 719.667 148.972 718.788 Q149.206 717.91 150.201 716.973 Q151.197 716.036 152.895 716.036 Q155.647 716.036 157.814 718.437 Q158.809 719.608 159.043 720.721 Q159.277 721.775 159.277 723.59 Q160.917 722.887 162.03 721.599 Q163.142 720.311 163.552 718.847 Q164.021 717.383 164.138 716.446 Q164.313 715.451 164.313 714.514 Q164.313 707.019 156.76 701.28 Q154.476 699.582 152.192 698.352 Q149.967 697.064 147.215 696.127 Q144.521 695.19 143.057 694.78 Q141.594 694.312 138.256 693.492 Q143.702 698.938 143.702 705.613 Q143.702 708.424 142.94 710.942 Q142.179 713.401 140.598 715.568 Q138.959 717.734 136.089 719.023 Q133.22 720.252 129.414 720.252 Q125.374 720.252 119.869 718.671 Q114.365 717.09 104.235 713.284 Q98.5548 711.235 95.8027 711.235 Q94.4559 711.235 93.6361 711.527 Q92.7578 711.82 92.465 712.406 Q92.1136 712.991 92.0551 713.343 Q91.9965 713.635 91.9965 714.221 Q91.9965 717.676 95.5099 720.896 Q99.0233 724.117 106.87 726.342 Q108.334 726.81 108.685 727.103 Q109.036 727.396 109.036 728.274 Q108.978 729.738 107.807 729.738 Q107.338 729.738 105.523 729.211 Q103.649 728.684 100.897 727.455 Q98.0864 726.166 95.5685 724.41 Q92.992 722.653 91.1767 719.901 Q89.3615 717.09 89.3615 713.87 Q89.3615 709.478 92.2308 706.784 Q95.0414 704.032 99.1989 704.032 Q100.897 704.032 102.42 704.501 Q103.883 704.911 107.807 706.433 Q123.617 712.581 131.346 712.581 Q133.22 712.581 134.801 712.289 Q136.324 711.937 137.846 711.176 Q139.31 710.415 140.188 708.892 Q141.008 707.311 141.008 705.145 Q141.008 702.393 139.72 699.816 Q138.373 697.181 136.558 695.542 Q134.742 693.843 133.22 692.848 Q131.639 691.794 130.819 691.56 L109.271 686.173 L99.6674 683.772 Q94.4559 682.659 93.1676 682.132 Q91.938 681.43 91.2939 680.2 Q90.6497 678.97 90.6497 677.916 Q90.6497 676.452 91.5281 675.457 Q92.4064 674.403 93.9289 674.403 Z" fill="#000000" fill-rule="evenodd" fill-opacity="1" /><polyline clip-path="url(#clip182)" style="stroke:#000000; stroke-linecap:round; stroke-linejoin:round; stroke-width:12; stroke-opacity:1; fill:none" points="
  504.615,757.326 513.632,757.014 522.648,756.082 531.665,754.55 540.682,752.449 549.698,749.822 558.715,746.722 567.732,743.215 576.748,739.373 585.765,735.278 
  594.781,731.02 603.798,726.691 612.815,722.391 621.831,718.221 630.848,714.282 639.865,710.676 648.881,707.501 657.898,704.852 666.915,702.818 675.931,701.482 
  684.948,700.918 693.965,701.188 702.981,702.347 711.998,704.434 721.014,707.477 730.031,711.489 739.048,716.469 748.064,722.402 757.081,729.256 766.098,736.986 
  775.114,745.53 784.131,754.813 793.148,764.747 802.164,775.23 811.181,786.148 820.197,797.376 829.214,808.783 838.231,820.225 847.247,831.557 856.264,842.627 
  865.281,853.281 874.297,863.366 883.314,872.73 892.331,881.224 901.347,888.706 910.364,895.041 919.381,900.104 928.397,903.782 937.414,905.975 946.43,906.598 
  955.447,905.582 964.464,902.878 973.48,898.454 982.497,892.299 991.514,884.42 1000.53,874.85 1009.55,863.638 1018.56,850.857 1027.58,836.6 1036.6,820.982 
  1045.61,804.135 1054.63,786.209 1063.65,767.374 1072.66,747.814 1081.68,727.724 1090.7,707.315 1099.71,686.805 1108.73,666.419 1117.75,646.388 1126.76,626.943 
  1135.78,608.317 1144.8,590.738 1153.81,574.429 1162.83,559.603 1171.85,546.464 1180.86,535.2 1189.88,525.983 1198.9,518.966 1207.91,514.284 1216.93,512.045 
  1225.95,512.335 1234.96,515.213 1243.98,520.712 1253,528.834 1262.01,539.556 1271.03,552.823 1280.05,568.551 1289.06,586.627 1298.08,606.913 1307.1,629.239 
  1316.11,653.413 1325.13,679.216 1334.15,706.409 1343.16,734.731 1352.18,763.904 1361.2,793.637 1370.21,823.623 1379.23,853.55 1388.25,883.099 1397.26,911.948 
  1406.28,939.778 1415.3,966.274 1424.31,991.128 1433.33,1014.05 1442.35,1034.75 1451.36,1052.98 1460.38,1068.49 1469.4,1081.07 1478.41,1090.53 1487.43,1096.72 
  1496.45,1099.51 1505.46,1098.8 1514.48,1094.55 1523.5,1086.74 1532.51,1075.38 1541.53,1060.54 1550.55,1042.3 1559.56,1020.79 1568.58,996.202 1577.6,968.723 
  1586.61,938.597 1595.63,906.095 1604.65,871.517 1613.66,835.189 1622.68,797.464 1631.7,758.712 1640.71,719.32 1649.73,679.69 1658.75,640.229 1667.76,601.353 
  1676.78,563.475 1685.79,527.004 1694.81,492.341 1703.83,459.874 1712.84,429.974 1721.86,402.989 1730.88,379.243 1739.89,359.03 1748.91,342.612 1757.93,330.214 
  1766.94,322.022 1775.96,318.181 1784.98,318.794 1793.99,323.916 1803.01,333.557 1812.03,347.681 1821.04,366.204 1830.06,388.993 1839.08,415.871 1848.09,446.615 
  1857.11,480.96 1866.13,518.599 1875.14,559.185 1884.16,602.339 1893.18,647.649 1902.19,694.675 1911.21,742.953 1920.23,792.001 1929.24,841.322 1938.26,890.413 
  1947.28,938.762 1956.29,985.863 1965.31,1031.21 1974.33,1074.33 1983.34,1114.73 1992.36,1151.97 2001.38,1185.63 2010.39,1215.32 2019.41,1240.68 2028.43,1261.4 
  2037.44,1277.22 2046.46,1287.91 2055.48,1293.31 2064.49,1293.29 2073.51,1287.79 2082.53,1276.82 2091.54,1260.4 2100.56,1238.66 2109.58,1211.76 2118.59,1179.92 
  2127.61,1143.4 2136.63,1102.53 2145.64,1057.68 2154.66,1009.27 2163.68,957.758 2172.69,903.636 2181.71,847.432 2190.73,789.702 2199.74,731.02 2208.76,671.98 
  2217.78,613.182 2226.79,555.232 2235.81,498.733 2244.83,444.28 2253.84,392.453 2262.86,343.81 2271.88,298.881 2280.89,258.166 2289.91,222.125 2298.93,191.174 
  
  "/>
<circle clip-path="url(#clip182)" cx="813.318" cy="788.786" r="25.2" fill="#008000" fill-rule="evenodd" fill-opacity="1" stroke="#000000" stroke-opacity="1" stroke-width="3.2"/>
<circle clip-path="url(#clip182)" cx="605.557" cy="725.847" r="25.2" fill="#008000" fill-rule="evenodd" fill-opacity="1" stroke="#000000" stroke-opacity="1" stroke-width="3.2"/>
<circle clip-path="url(#clip182)" cx="674.296" cy="701.669" r="25.2" fill="#008000" fill-rule="evenodd" fill-opacity="1" stroke="#000000" stroke-opacity="1" stroke-width="3.2"/>
<circle clip-path="url(#clip182)" cx="1229.69" cy="513.214" r="25.2" fill="#008000" fill-rule="evenodd" fill-opacity="1" stroke="#000000" stroke-opacity="1" stroke-width="3.2"/>
<circle clip-path="url(#clip182)" cx="623.309" cy="717.557" r="25.2" fill="#008000" fill-rule="evenodd" fill-opacity="1" stroke="#000000" stroke-opacity="1" stroke-width="3.2"/>
<circle clip-path="url(#clip182)" cx="761.984" cy="733.354" r="25.2" fill="#008000" fill-rule="evenodd" fill-opacity="1" stroke="#000000" stroke-opacity="1" stroke-width="3.2"/>
<circle clip-path="url(#clip182)" cx="2040.4" cy="1281.3" r="25.2" fill="#008000" fill-rule="evenodd" fill-opacity="1" stroke="#000000" stroke-opacity="1" stroke-width="3.2"/>
<circle clip-path="url(#clip182)" cx="1598.14" cy="896.654" r="25.2" fill="#008000" fill-rule="evenodd" fill-opacity="1" stroke="#000000" stroke-opacity="1" stroke-width="3.2"/>
<circle clip-path="url(#clip182)" cx="692.961" cy="701.115" r="25.2" fill="#008000" fill-rule="evenodd" fill-opacity="1" stroke="#000000" stroke-opacity="1" stroke-width="3.2"/>
<circle clip-path="url(#clip182)" cx="1325.82" cy="681.26" r="25.2" fill="#008000" fill-rule="evenodd" fill-opacity="1" stroke="#000000" stroke-opacity="1" stroke-width="3.2"/>
<circle clip-path="url(#clip182)" cx="2249.96" cy="414.39" r="25.2" fill="#008000" fill-rule="evenodd" fill-opacity="1" stroke="#000000" stroke-opacity="1" stroke-width="3.2"/>
<circle clip-path="url(#clip182)" cx="651.658" cy="706.625" r="25.2" fill="#008000" fill-rule="evenodd" fill-opacity="1" stroke="#000000" stroke-opacity="1" stroke-width="3.2"/>
<circle clip-path="url(#clip182)" cx="1602.96" cy="878.123" r="25.2" fill="#008000" fill-rule="evenodd" fill-opacity="1" stroke="#000000" stroke-opacity="1" stroke-width="3.2"/>
<circle clip-path="url(#clip182)" cx="1690.66" cy="508.064" r="25.2" fill="#008000" fill-rule="evenodd" fill-opacity="1" stroke="#000000" stroke-opacity="1" stroke-width="3.2"/>
<circle clip-path="url(#clip182)" cx="2115.97" cy="1189.67" r="25.2" fill="#008000" fill-rule="evenodd" fill-opacity="1" stroke="#000000" stroke-opacity="1" stroke-width="3.2"/>
<circle clip-path="url(#clip182)" cx="1893.23" cy="647.932" r="25.2" fill="#008000" fill-rule="evenodd" fill-opacity="1" stroke="#000000" stroke-opacity="1" stroke-width="3.2"/>
<circle clip-path="url(#clip182)" cx="579.598" cy="738.102" r="25.2" fill="#008000" fill-rule="evenodd" fill-opacity="1" stroke="#000000" stroke-opacity="1" stroke-width="3.2"/>
<circle clip-path="url(#clip182)" cx="1139.19" cy="601.532" r="25.2" fill="#008000" fill-rule="evenodd" fill-opacity="1" stroke="#000000" stroke-opacity="1" stroke-width="3.2"/>
<circle clip-path="url(#clip182)" cx="765.876" cy="736.785" r="25.2" fill="#008000" fill-rule="evenodd" fill-opacity="1" stroke="#000000" stroke-opacity="1" stroke-width="3.2"/>
<circle clip-path="url(#clip182)" cx="1567.73" cy="998.652" r="25.2" fill="#008000" fill-rule="evenodd" fill-opacity="1" stroke="#000000" stroke-opacity="1" stroke-width="3.2"/>
<polyline clip-path="url(#clip182)" style="stroke:#0000ff; stroke-linecap:round; stroke-linejoin:round; stroke-width:12; stroke-opacity:1; fill:none" stroke-dasharray="48, 24, 6, 24, 6, 24" points="
  504.615,777.32 513.632,771.662 522.648,766.443 531.665,761.883 540.682,757.439 549.698,752.734 558.715,748.185 567.732,743.633 576.748,739.389 585.765,735.217 
  594.781,730.942 603.798,726.666 612.815,722.435 621.831,718.205 630.848,714.27 639.865,710.702 648.881,707.499 657.898,704.882 666.915,702.866 675.931,701.464 
  684.948,700.803 693.965,701.251 702.981,703.152 711.998,706.07 721.014,709.525 730.031,713.241 739.048,717.533 748.064,722.861 757.081,729.256 766.098,737.043 
  775.114,746.109 784.131,756.136 793.148,766.538 802.164,776.916 811.181,786.662 820.197,794.887 829.214,800.944 838.231,804.213 847.247,804.224 856.264,801.224 
  865.281,795.841 874.297,788.729 883.314,780.486 892.331,771.757 901.347,763.96 910.364,758.108 919.381,754.181 928.397,751.73 937.414,750.593 946.43,750.556 
  955.447,751.253 964.464,752.4 973.48,753.836 982.497,755.119 991.514,756.168 1000.53,757.264 1009.55,758.437 1018.56,759.293 1027.58,759.552 1036.6,758.337 
  1045.61,754.906 1054.63,748.988 1063.65,740.326 1072.66,729.036 1081.68,715.319 1090.7,699.776 1099.71,683.111 1108.73,665.938 1117.75,648.079 1126.76,629.064 
  1135.78,609.246 1144.8,589.022 1153.81,568.841 1162.83,549.921 1171.85,533.001 1180.86,518.758 1189.88,507.854 1198.9,501.263 1207.91,499.254 1216.93,502.021 
  1225.95,509.122 1234.96,519.84 1243.98,533.958 1253,550.067 1262.01,566.735 1271.03,583.231 1280.05,599.22 1289.06,614.426 1298.08,629.477 1307.1,645.334 
  1316.11,662.162 1325.13,679.861 1334.15,698.203 1343.16,716.421 1352.18,733.589 1361.2,748.911 1370.21,761.763 1379.23,771.308 1388.25,777.209 1397.26,779.959 
  1406.28,779.925 1415.3,777.485 1424.31,773.732 1433.33,771.56 1442.35,773.232 1451.36,779.417 1460.38,791.471 1469.4,810.134 1478.41,835.385 1487.43,866.168 
  1496.45,900.589 1505.46,936.467 1514.48,970.387 1523.5,998.951 1532.51,1019.06 1541.53,1029.03 1550.55,1027.91 1559.56,1016.43 1568.58,996.414 1577.6,970.172 
  1586.61,939.49 1595.63,906.255 1604.65,871.247 1613.66,833.553 1622.68,793.322 1631.7,751.311 1640.71,707.258 1649.73,662.47 1658.75,618.767 1667.76,577.989 
  1676.78,543.453 1685.79,517.712 1694.81,502.023 1703.83,497.016 1712.84,502.454 1721.86,517.225 1730.88,539.442 1739.89,567.07 1748.91,597.766 1757.93,629.547 
  1766.94,659.818 1775.96,686.628 1784.98,708.231 1793.99,723.949 1803.01,733.153 1812.03,735.695 1821.04,731.904 1830.06,722.015 1839.08,707.644 1848.09,691.122 
  1857.11,674.841 1866.13,661.154 1875.14,651.703 1884.16,647.264 1893.18,647.914 1902.19,654.058 1911.21,665.634 1920.23,682.365 1929.24,704.724 1938.26,732.982 
  1947.28,767.587 1956.29,808.03 1965.31,854.216 1974.33,905.719 1983.34,961.519 1992.36,1019.53 2001.38,1078.69 2010.39,1136.11 2019.41,1188.74 2028.43,1234.72 
  2037.44,1271.56 2046.46,1298 2055.48,1313.14 2064.49,1317.07 2073.51,1310.81 2082.53,1296.59 2091.54,1276.28 2100.56,1249.86 2109.58,1216.68 2118.59,1177.61 
  2127.61,1133.3 2136.63,1084.36 2145.64,1030.43 2154.66,972.175 2163.68,910.984 2172.69,848.274 2181.71,785.303 2190.73,723.44 2199.74,663.055 2208.76,605.076 
  2217.78,551.367 2226.79,503.612 2235.81,462.747 2244.83,429.858 2253.84,405.158 2262.86,388.714 2271.88,380.32 2280.89,379.609 2289.91,386.326 2298.93,399.528 
  
  "/>
<polyline clip-path="url(#clip182)" style="stroke:#0000ff; stroke-linecap:round; stroke-linejoin:round; stroke-width:12; stroke-opacity:1; fill:none" stroke-dasharray="48, 30" points="
  504.615,741.041 513.632,741.7 522.648,741.564 531.665,741.231 540.682,740.756 549.698,740.477 558.715,740.558 567.732,740.175 576.748,738.737 585.765,735.678 
  594.781,731.39 603.798,726.805 612.815,722.605 621.831,718.237 630.848,713.587 639.865,710.099 648.881,707.483 657.898,704.961 666.915,703.028 675.931,701.415 
  684.948,700.556 693.965,701.448 702.981,704.406 711.998,708.781 721.014,713.53 730.031,717.391 739.048,720.621 748.064,724.34 757.081,729.511 766.098,737.165 
  775.114,747.328 784.131,759.116 793.148,770.738 802.164,780.908 811.181,787.677 820.197,788.586 829.214,784.633 838.231,778.674 847.247,772.208 856.264,766.578 
  865.281,761.89 874.297,756.927 883.314,750.996 892.331,744.102 901.347,737.445 910.364,732.255 919.381,728.178 928.397,724.333 937.414,720.513 946.43,716.341 
  955.447,711.559 964.464,706.537 973.48,700.867 982.497,693.728 991.514,686.082 1000.53,679.663 1009.55,674.596 1018.56,670.698 1027.58,667.625 1036.6,664.178 
  1045.61,659.235 1054.63,653.034 1063.65,646.426 1072.66,639.852 1081.68,633.369 1090.7,627.277 1099.71,621.955 1108.73,617.755 1117.75,613.912 1126.76,609.34 
  1135.78,603.958 1144.8,597.074 1153.81,588.857 1162.83,580.348 1171.85,571.516 1180.86,561.024 1189.88,548.42 1198.9,534.961 1207.91,522.852 1216.93,514.28 
  1225.95,512.121 1234.96,518.266 1243.98,531.693 1253,549.179 1262.01,567.398 1271.03,584.392 1280.05,599.914 1289.06,614.463 1298.08,629.318 1307.1,645.517 
  1316.11,662.502 1325.13,679.854 1334.15,696.494 1343.16,711.056 1352.18,722.408 1361.2,730.864 1370.21,738.156 1379.23,746.038 1388.25,756.752 1397.26,772.596 
  1406.28,790.822 1415.3,807.196 1424.31,820.155 1433.33,831.332 1442.35,842.094 1451.36,852.038 1460.38,861.51 1469.4,870.562 1478.41,880.424 1487.43,892.606 
  1496.45,907.569 1505.46,924.15 1514.48,939.948 1523.5,954.044 1532.51,967.742 1541.53,982.545 1550.55,996.147 1559.56,1002.74 1568.58,996.349 1577.6,974.966 
  1586.61,943.111 1595.63,907.179 1604.65,870.801 1613.66,833.989 1622.68,796.845 1631.7,759.26 1640.71,719.4 1649.73,676.931 1658.75,631.986 1667.76,586.173 
  1676.78,545.379 1685.79,516.917 1694.81,506.205 1703.83,511.206 1712.84,522.837 1721.86,531.789 1730.88,534.571 1739.89,534.582 1748.91,537.259 1757.93,545.49 
  1766.94,556.396 1775.96,567.3 1784.98,576.506 1793.99,583.719 1803.01,589.628 1812.03,594.33 1821.04,598.16 1830.06,600.333 1839.08,601.763 1848.09,604.224 
  1857.11,608.723 1866.13,615.718 1875.14,623.445 1884.16,632.945 1893.18,648.496 1902.19,674.246 1911.21,708.341 1920.23,746.609 1929.24,786.75 1938.26,828.307 
  1947.28,872.359 1956.29,917.197 1965.31,960.795 1974.33,1002.12 1983.34,1041.36 1992.36,1079.44 2001.38,1119.32 2010.39,1161.57 2019.41,1204.22 2028.43,1243.48 
  2037.44,1273.5 2046.46,1289.5 2055.48,1291.8 2064.49,1283.76 2073.51,1269.18 2082.53,1252 2091.54,1236.84 2100.56,1223.51 2109.58,1206.31 2118.59,1179.74 
  2127.61,1141 2136.63,1091.83 2145.64,1036.21 2154.66,978.55 2163.68,922.097 2172.69,867.738 2181.71,814.558 2190.73,760.847 2199.74,704.259 2208.76,644.4 
  2217.78,583.586 2226.79,525.409 2235.81,473.432 2244.83,432.418 2253.84,407.008 2262.86,397.157 2271.88,396.658 2280.89,398.862 2289.91,401.089 2298.93,403.891 
  
  "/>
<polyline clip-path="url(#clip182)" style="stroke:#0000ff; stroke-linecap:round; stroke-linejoin:round; stroke-width:12; stroke-opacity:1; fill:none" points="
  504.615,772.347 513.632,767.977 522.648,763.952 531.665,759.868 540.682,755.661 549.698,751.182 558.715,746.931 567.732,742.986 576.748,739.188 585.765,734.46 
  594.781,729.612 603.798,725.929 612.815,722.71 621.831,718.315 630.848,713.114 639.865,709.588 648.881,707.492 657.898,705.176 666.915,702.853 675.931,701.685 
  684.948,701.474 693.965,701.935 702.981,703.923 711.998,706.583 721.014,709.782 730.031,714.271 739.048,719.847 748.064,725.375 757.081,730.799 766.098,738.178 
  775.114,747.591 784.131,756.553 793.148,764.762 802.164,774.337 811.181,784.236 820.197,790.473 829.214,793.693 838.231,797.811 847.247,802.704 856.264,805.854 
  865.281,807.75 874.297,808.945 883.314,809.11 892.331,808.834 901.347,808.087 910.364,806.097 919.381,803.139 928.397,800.369 937.414,797.506 946.43,793 
  955.447,786.56 964.464,781.254 973.48,776.788 982.497,770.132 991.514,761.711 1000.53,754.597 1009.55,747.779 1018.56,738.732 1027.58,728.511 1036.6,720.123 
  1045.61,712.076 1054.63,702.116 1063.65,690.627 1072.66,679.809 1081.68,670.125 1090.7,660.111 1099.71,648.721 1108.73,636.466 1117.75,624.636 1126.76,613.978 
  1135.78,603.755 1144.8,591.379 1153.81,577.412 1162.83,564.969 1171.85,554.885 1180.86,544.468 1189.88,534.992 1198.9,528.681 1207.91,524.279 1216.93,519.499 
  1225.95,516.778 1234.96,519.988 1243.98,529.084 1253,539.329 1262.01,549.369 1271.03,561.915 1280.05,578.397 1289.06,596.551 1298.08,615.087 1307.1,634.81 
  1316.11,656.209 1325.13,679.174 1334.15,702.497 1343.16,725.502 1352.18,748.843 1361.2,774.53 1370.21,799.894 1379.23,821.864 1388.25,843.472 1397.26,868.806 
  1406.28,893.954 1415.3,915.423 1424.31,933.821 1433.33,952.852 1442.35,972.339 1451.36,989.648 1460.38,1004.75 1469.4,1018.22 1478.41,1029.25 1487.43,1036.5 
  1496.45,1042.44 1505.46,1048.21 1514.48,1050.93 1523.5,1048.46 1532.51,1041.93 1541.53,1032.57 1550.55,1021.61 1559.56,1009.77 1568.58,991.664 1577.6,964.174 
  1586.61,934.052 1595.63,903.934 1604.65,871.677 1613.66,835.195 1622.68,796.653 1631.7,757.319 1640.71,717.121 1649.73,677.818 1658.75,641.419 1667.76,606.04 
  1676.78,568.306 1685.79,530.394 1694.81,500.772 1703.83,481.066 1712.84,462.562 1721.86,441.853 1730.88,423.521 1739.89,410.172 1748.91,402.237 1757.93,399.105 
  1766.94,396.02 1775.96,394.447 1784.98,397.382 1793.99,404.089 1803.01,412.902 1812.03,424.193 1821.04,439.39 1830.06,457.862 1839.08,477.774 1848.09,498.282 
  1857.11,523.163 1866.13,556.37 1875.14,589.815 1884.16,618.889 1893.18,651.557 1902.19,694.726 1911.21,741.106 1920.23,785.208 1929.24,827.961 1938.26,871.662 
  1947.28,918.601 1956.29,965.417 1965.31,1008.95 1974.33,1050.58 1983.34,1092.03 1992.36,1131.19 2001.38,1166.65 2010.39,1196.5 2019.41,1222.63 2028.43,1249.25 
  2037.44,1271.4 2046.46,1280.66 2055.48,1281.85 2064.49,1282.25 2073.51,1279.73 2082.53,1268.62 2091.54,1251.66 2100.56,1231.77 2109.58,1208.24 2118.59,1179.54 
  2127.61,1145.08 2136.63,1106.72 2145.64,1065.77 2154.66,1021.81 2163.68,974.041 2172.69,923.052 2181.71,869.693 2190.73,815.138 2199.74,758.805 2208.76,699.346 
  2217.78,638.351 2226.79,578.438 2235.81,517.497 2244.83,453.689 2253.84,390.248 2262.86,330.28 2271.88,270.13 2280.89,207.485 2289.91,144.527 2298.93,84.2294 
  
  "/>
</svg>
