<?xml version="1.0" encoding="utf-8"?>
<svg xmlns="http://www.w3.org/2000/svg" xmlns:xlink="http://www.w3.org/1999/xlink" width="600" height="400" viewBox="0 0 2400 1600">
<defs>
  <clipPath id="clip630">
    <rect x="0" y="0" width="2400" height="1600"/>
  </clipPath>
</defs>
<path clip-path="url(#clip630)" d="
M0 1600 L2400 1600 L2400 0 L0 0  Z
  " fill="#ffffff" fill-rule="evenodd" fill-opacity="1"/>
<defs>
  <clipPath id="clip631">
    <rect x="480" y="0" width="1681" height="1600"/>
  </clipPath>
</defs>
<defs>
  <clipPath id="clip632">
    <rect x="156" y="47" width="2197" height="1440"/>
  </clipPath>
</defs>
<path clip-path="url(#clip630)" d="
M156.598 1486.45 L2352.76 1486.45 L2352.76 47.2441 L156.598 47.2441  Z
  " fill="#ffffff" fill-rule="evenodd" fill-opacity="1"/>
<polyline clip-path="url(#clip632)" style="stroke:#000000; stroke-linecap:round; stroke-linejoin:round; stroke-width:2; stroke-opacity:0.1; fill:none" points="
  156.598,1486.45 156.598,47.2441 
  "/>
<polyline clip-path="url(#clip632)" style="stroke:#000000; stroke-linecap:round; stroke-linejoin:round; stroke-width:2; stroke-opacity:0.1; fill:none" points="
  595.83,1486.45 595.83,47.2441 
  "/>
<polyline clip-path="url(#clip632)" style="stroke:#000000; stroke-linecap:round; stroke-linejoin:round; stroke-width:2; stroke-opacity:0.1; fill:none" points="
  1035.06,1486.45 1035.06,47.2441 
  "/>
<polyline clip-path="url(#clip632)" style="stroke:#000000; stroke-linecap:round; stroke-linejoin:round; stroke-width:2; stroke-opacity:0.1; fill:none" points="
  1474.29,1486.45 1474.29,47.2441 
  "/>
<polyline clip-path="url(#clip632)" style="stroke:#000000; stroke-linecap:round; stroke-linejoin:round; stroke-width:2; stroke-opacity:0.1; fill:none" points="
  1913.52,1486.45 1913.52,47.2441 
  "/>
<polyline clip-path="url(#clip632)" style="stroke:#000000; stroke-linecap:round; stroke-linejoin:round; stroke-width:2; stroke-opacity:0.1; fill:none" points="
  2352.76,1486.45 2352.76,47.2441 
  "/>
<polyline clip-path="url(#clip630)" style="stroke:#000000; stroke-linecap:round; stroke-linejoin:round; stroke-width:4; stroke-opacity:1; fill:none" points="
  156.598,1486.45 2352.76,1486.45 
  "/>
<polyline clip-path="url(#clip630)" style="stroke:#000000; stroke-linecap:round; stroke-linejoin:round; stroke-width:4; stroke-opacity:1; fill:none" points="
  156.598,1486.45 156.598,1467.55 
  "/>
<polyline clip-path="url(#clip630)" style="stroke:#000000; stroke-linecap:round; stroke-linejoin:round; stroke-width:4; stroke-opacity:1; fill:none" points="
  595.83,1486.45 595.83,1467.55 
  "/>
<polyline clip-path="url(#clip630)" style="stroke:#000000; stroke-linecap:round; stroke-linejoin:round; stroke-width:4; stroke-opacity:1; fill:none" points="
  1035.06,1486.45 1035.06,1467.55 
  "/>
<polyline clip-path="url(#clip630)" style="stroke:#000000; stroke-linecap:round; stroke-linejoin:round; stroke-width:4; stroke-opacity:1; fill:none" points="
  1474.29,1486.45 1474.29,1467.55 
  "/>
<polyline clip-path="url(#clip630)" style="stroke:#000000; stroke-linecap:round; stroke-linejoin:round; stroke-width:4; stroke-opacity:1; fill:none" points="
  1913.52,1486.45 1913.52,1467.55 
  "/>
<polyline clip-path="url(#clip630)" style="stroke:#000000; stroke-linecap:round; stroke-linejoin:round; stroke-width:4; stroke-opacity:1; fill:none" points="
  2352.76,1486.45 2352.76,1467.55 
  "/>
<path clip-path="url(#clip630)" d="M133.983 1517.37 Q130.372 1517.37 128.543 1520.93 Q126.737 1524.47 126.737 1531.6 Q126.737 1538.71 128.543 1542.27 Q130.372 1545.82 133.983 1545.82 Q137.617 1545.82 139.422 1542.27 Q141.251 1538.71 141.251 1531.6 Q141.251 1524.47 139.422 1520.93 Q137.617 1517.37 133.983 1517.37 M133.983 1513.66 Q139.793 1513.66 142.848 1518.27 Q145.927 1522.85 145.927 1531.6 Q145.927 1540.33 142.848 1544.94 Q139.793 1549.52 133.983 1549.52 Q128.172 1549.52 125.094 1544.94 Q122.038 1540.33 122.038 1531.6 Q122.038 1522.85 125.094 1518.27 Q128.172 1513.66 133.983 1513.66 Z" fill="#000000" fill-rule="evenodd" fill-opacity="1" /><path clip-path="url(#clip630)" d="M154.145 1542.97 L159.029 1542.97 L159.029 1548.85 L154.145 1548.85 L154.145 1542.97 Z" fill="#000000" fill-rule="evenodd" fill-opacity="1" /><path clip-path="url(#clip630)" d="M179.214 1517.37 Q175.603 1517.37 173.774 1520.93 Q171.969 1524.47 171.969 1531.6 Q171.969 1538.71 173.774 1542.27 Q175.603 1545.82 179.214 1545.82 Q182.848 1545.82 184.654 1542.27 Q186.482 1538.71 186.482 1531.6 Q186.482 1524.47 184.654 1520.93 Q182.848 1517.37 179.214 1517.37 M179.214 1513.66 Q185.024 1513.66 188.08 1518.27 Q191.158 1522.85 191.158 1531.6 Q191.158 1540.33 188.08 1544.94 Q185.024 1549.52 179.214 1549.52 Q173.404 1549.52 170.325 1544.94 Q167.269 1540.33 167.269 1531.6 Q167.269 1522.85 170.325 1518.27 Q173.404 1513.66 179.214 1513.66 Z" fill="#000000" fill-rule="evenodd" fill-opacity="1" /><path clip-path="url(#clip630)" d="M574.013 1517.37 Q570.402 1517.37 568.573 1520.93 Q566.767 1524.47 566.767 1531.6 Q566.767 1538.71 568.573 1542.27 Q570.402 1545.82 574.013 1545.82 Q577.647 1545.82 579.453 1542.27 Q581.281 1538.71 581.281 1531.6 Q581.281 1524.47 579.453 1520.93 Q577.647 1517.37 574.013 1517.37 M574.013 1513.66 Q579.823 1513.66 582.878 1518.27 Q585.957 1522.85 585.957 1531.6 Q585.957 1540.33 582.878 1544.94 Q579.823 1549.52 574.013 1549.52 Q568.203 1549.52 565.124 1544.94 Q562.068 1540.33 562.068 1531.6 Q562.068 1522.85 565.124 1518.27 Q568.203 1513.66 574.013 1513.66 Z" fill="#000000" fill-rule="evenodd" fill-opacity="1" /><path clip-path="url(#clip630)" d="M594.175 1542.97 L599.059 1542.97 L599.059 1548.85 L594.175 1548.85 L594.175 1542.97 Z" fill="#000000" fill-rule="evenodd" fill-opacity="1" /><path clip-path="url(#clip630)" d="M613.272 1544.91 L629.591 1544.91 L629.591 1548.85 L607.647 1548.85 L607.647 1544.91 Q610.309 1542.16 614.892 1537.53 Q619.499 1532.88 620.679 1531.53 Q622.925 1529.01 623.804 1527.27 Q624.707 1525.51 624.707 1523.82 Q624.707 1521.07 622.762 1519.33 Q620.841 1517.6 617.739 1517.6 Q615.54 1517.6 613.087 1518.36 Q610.656 1519.13 607.878 1520.68 L607.878 1515.95 Q610.702 1514.82 613.156 1514.24 Q615.61 1513.66 617.647 1513.66 Q623.017 1513.66 626.212 1516.35 Q629.406 1519.03 629.406 1523.52 Q629.406 1525.65 628.596 1527.57 Q627.809 1529.47 625.702 1532.07 Q625.124 1532.74 622.022 1535.95 Q618.92 1539.15 613.272 1544.91 Z" fill="#000000" fill-rule="evenodd" fill-opacity="1" /><path clip-path="url(#clip630)" d="M1012.2 1517.37 Q1008.59 1517.37 1006.76 1520.93 Q1004.96 1524.47 1004.96 1531.6 Q1004.96 1538.71 1006.76 1542.27 Q1008.59 1545.82 1012.2 1545.82 Q1015.84 1545.82 1017.64 1542.27 Q1019.47 1538.71 1019.47 1531.6 Q1019.47 1524.47 1017.64 1520.93 Q1015.84 1517.37 1012.2 1517.37 M1012.2 1513.66 Q1018.01 1513.66 1021.07 1518.27 Q1024.15 1522.85 1024.15 1531.6 Q1024.15 1540.33 1021.07 1544.94 Q1018.01 1549.52 1012.2 1549.52 Q1006.39 1549.52 1003.31 1544.94 Q1000.26 1540.33 1000.26 1531.6 Q1000.26 1522.85 1003.31 1518.27 Q1006.39 1513.66 1012.2 1513.66 Z" fill="#000000" fill-rule="evenodd" fill-opacity="1" /><path clip-path="url(#clip630)" d="M1032.36 1542.97 L1037.25 1542.97 L1037.25 1548.85 L1032.36 1548.85 L1032.36 1542.97 Z" fill="#000000" fill-rule="evenodd" fill-opacity="1" /><path clip-path="url(#clip630)" d="M1060.28 1518.36 L1048.48 1536.81 L1060.28 1536.81 L1060.28 1518.36 M1059.05 1514.29 L1064.93 1514.29 L1064.93 1536.81 L1069.86 1536.81 L1069.86 1540.7 L1064.93 1540.7 L1064.93 1548.85 L1060.28 1548.85 L1060.28 1540.7 L1044.68 1540.7 L1044.68 1536.19 L1059.05 1514.29 Z" fill="#000000" fill-rule="evenodd" fill-opacity="1" /><path clip-path="url(#clip630)" d="M1451.6 1517.37 Q1447.99 1517.37 1446.16 1520.93 Q1444.35 1524.47 1444.35 1531.6 Q1444.35 1538.71 1446.16 1542.27 Q1447.99 1545.82 1451.6 1545.82 Q1455.23 1545.82 1457.04 1542.27 Q1458.86 1538.71 1458.86 1531.6 Q1458.86 1524.47 1457.04 1520.93 Q1455.23 1517.37 1451.6 1517.37 M1451.6 1513.66 Q1457.41 1513.66 1460.46 1518.27 Q1463.54 1522.85 1463.54 1531.6 Q1463.54 1540.33 1460.46 1544.94 Q1457.41 1549.52 1451.6 1549.52 Q1445.79 1549.52 1442.71 1544.94 Q1439.65 1540.33 1439.65 1531.6 Q1439.65 1522.85 1442.71 1518.27 Q1445.79 1513.66 1451.6 1513.66 Z" fill="#000000" fill-rule="evenodd" fill-opacity="1" /><path clip-path="url(#clip630)" d="M1471.76 1542.97 L1476.64 1542.97 L1476.64 1548.85 L1471.76 1548.85 L1471.76 1542.97 Z" fill="#000000" fill-rule="evenodd" fill-opacity="1" /><path clip-path="url(#clip630)" d="M1497.41 1529.7 Q1494.26 1529.7 1492.41 1531.86 Q1490.58 1534.01 1490.58 1537.76 Q1490.58 1541.49 1492.41 1543.66 Q1494.26 1545.82 1497.41 1545.82 Q1500.55 1545.82 1502.38 1543.66 Q1504.23 1541.49 1504.23 1537.76 Q1504.23 1534.01 1502.38 1531.86 Q1500.55 1529.7 1497.41 1529.7 M1506.69 1515.05 L1506.69 1519.31 Q1504.93 1518.48 1503.12 1518.04 Q1501.34 1517.6 1499.58 1517.6 Q1494.95 1517.6 1492.5 1520.72 Q1490.07 1523.85 1489.72 1530.17 Q1491.09 1528.15 1493.15 1527.09 Q1495.21 1526 1497.68 1526 Q1502.89 1526 1505.9 1529.17 Q1508.93 1532.32 1508.93 1537.76 Q1508.93 1543.08 1505.79 1546.3 Q1502.64 1549.52 1497.41 1549.52 Q1491.41 1549.52 1488.24 1544.94 Q1485.07 1540.33 1485.07 1531.6 Q1485.07 1523.41 1488.96 1518.55 Q1492.85 1513.66 1499.4 1513.66 Q1501.16 1513.66 1502.94 1514.01 Q1504.74 1514.36 1506.69 1515.05 Z" fill="#000000" fill-rule="evenodd" fill-opacity="1" /><path clip-path="url(#clip630)" d="M1890.96 1517.37 Q1887.34 1517.37 1885.52 1520.93 Q1883.71 1524.47 1883.71 1531.6 Q1883.71 1538.71 1885.52 1542.27 Q1887.34 1545.82 1890.96 1545.82 Q1894.59 1545.82 1896.39 1542.27 Q1898.22 1538.71 1898.22 1531.6 Q1898.22 1524.47 1896.39 1520.93 Q1894.59 1517.37 1890.96 1517.37 M1890.96 1513.66 Q1896.77 1513.66 1899.82 1518.27 Q1902.9 1522.85 1902.9 1531.6 Q1902.9 1540.33 1899.82 1544.94 Q1896.77 1549.52 1890.96 1549.52 Q1885.14 1549.52 1882.07 1544.94 Q1879.01 1540.33 1879.01 1531.6 Q1879.01 1522.85 1882.07 1518.27 Q1885.14 1513.66 1890.96 1513.66 Z" fill="#000000" fill-rule="evenodd" fill-opacity="1" /><path clip-path="url(#clip630)" d="M1911.12 1542.97 L1916 1542.97 L1916 1548.85 L1911.12 1548.85 L1911.12 1542.97 Z" fill="#000000" fill-rule="evenodd" fill-opacity="1" /><path clip-path="url(#clip630)" d="M1936.19 1532.44 Q1932.85 1532.44 1930.93 1534.22 Q1929.03 1536 1929.03 1539.13 Q1929.03 1542.25 1930.93 1544.03 Q1932.85 1545.82 1936.19 1545.82 Q1939.52 1545.82 1941.44 1544.03 Q1943.36 1542.23 1943.36 1539.13 Q1943.36 1536 1941.44 1534.22 Q1939.54 1532.44 1936.19 1532.44 M1931.51 1530.45 Q1928.5 1529.7 1926.81 1527.64 Q1925.14 1525.58 1925.14 1522.62 Q1925.14 1518.48 1928.08 1516.07 Q1931.05 1513.66 1936.19 1513.66 Q1941.35 1513.66 1944.29 1516.07 Q1947.23 1518.48 1947.23 1522.62 Q1947.23 1525.58 1945.54 1527.64 Q1943.87 1529.7 1940.89 1530.45 Q1944.26 1531.23 1946.14 1533.52 Q1948.04 1535.82 1948.04 1539.13 Q1948.04 1544.15 1944.96 1546.83 Q1941.9 1549.52 1936.19 1549.52 Q1930.47 1549.52 1927.39 1546.83 Q1924.33 1544.15 1924.33 1539.13 Q1924.33 1535.82 1926.23 1533.52 Q1928.13 1531.23 1931.51 1530.45 M1929.8 1523.06 Q1929.8 1525.75 1931.46 1527.25 Q1933.15 1528.76 1936.19 1528.76 Q1939.2 1528.76 1940.89 1527.25 Q1942.6 1525.75 1942.6 1523.06 Q1942.6 1520.38 1940.89 1518.87 Q1939.2 1517.37 1936.19 1517.37 Q1933.15 1517.37 1931.46 1518.87 Q1929.8 1520.38 1929.8 1523.06 Z" fill="#000000" fill-rule="evenodd" fill-opacity="1" /><path clip-path="url(#clip630)" d="M2319.91 1544.91 L2327.55 1544.91 L2327.55 1518.55 L2319.24 1520.21 L2319.24 1515.95 L2327.5 1514.29 L2332.18 1514.29 L2332.18 1544.91 L2339.82 1544.91 L2339.82 1548.85 L2319.91 1548.85 L2319.91 1544.91 Z" fill="#000000" fill-rule="evenodd" fill-opacity="1" /><path clip-path="url(#clip630)" d="M2349.26 1542.97 L2354.14 1542.97 L2354.14 1548.85 L2349.26 1548.85 L2349.26 1542.97 Z" fill="#000000" fill-rule="evenodd" fill-opacity="1" /><path clip-path="url(#clip630)" d="M2374.33 1517.37 Q2370.72 1517.37 2368.89 1520.93 Q2367.08 1524.47 2367.08 1531.6 Q2367.08 1538.71 2368.89 1542.27 Q2370.72 1545.82 2374.33 1545.82 Q2377.96 1545.82 2379.77 1542.27 Q2381.6 1538.71 2381.6 1531.6 Q2381.6 1524.47 2379.77 1520.93 Q2377.96 1517.37 2374.33 1517.37 M2374.33 1513.66 Q2380.14 1513.66 2383.2 1518.27 Q2386.27 1522.85 2386.27 1531.6 Q2386.27 1540.33 2383.2 1544.94 Q2380.14 1549.52 2374.33 1549.52 Q2368.52 1549.52 2365.44 1544.94 Q2362.39 1540.33 2362.39 1531.6 Q2362.39 1522.85 2365.44 1518.27 Q2368.52 1513.66 2374.33 1513.66 Z" fill="#000000" fill-rule="evenodd" fill-opacity="1" /><polyline clip-path="url(#clip632)" style="stroke:#000000; stroke-linecap:round; stroke-linejoin:round; stroke-width:2; stroke-opacity:0.1; fill:none" points="
  156.598,1486.45 2352.76,1486.45 
  "/>
<polyline clip-path="url(#clip632)" style="stroke:#000000; stroke-linecap:round; stroke-linejoin:round; stroke-width:2; stroke-opacity:0.1; fill:none" points="
  156.598,1198.61 2352.76,1198.61 
  "/>
<polyline clip-path="url(#clip632)" style="stroke:#000000; stroke-linecap:round; stroke-linejoin:round; stroke-width:2; stroke-opacity:0.1; fill:none" points="
  156.598,910.766 2352.76,910.766 
  "/>
<polyline clip-path="url(#clip632)" style="stroke:#000000; stroke-linecap:round; stroke-linejoin:round; stroke-width:2; stroke-opacity:0.1; fill:none" points="
  156.598,622.926 2352.76,622.926 
  "/>
<polyline clip-path="url(#clip632)" style="stroke:#000000; stroke-linecap:round; stroke-linejoin:round; stroke-width:2; stroke-opacity:0.1; fill:none" points="
  156.598,335.085 2352.76,335.085 
  "/>
<polyline clip-path="url(#clip632)" style="stroke:#000000; stroke-linecap:round; stroke-linejoin:round; stroke-width:2; stroke-opacity:0.1; fill:none" points="
  156.598,47.2441 2352.76,47.2441 
  "/>
<polyline clip-path="url(#clip630)" style="stroke:#000000; stroke-linecap:round; stroke-linejoin:round; stroke-width:4; stroke-opacity:1; fill:none" points="
  156.598,1486.45 156.598,47.2441 
  "/>
<polyline clip-path="url(#clip630)" style="stroke:#000000; stroke-linecap:round; stroke-linejoin:round; stroke-width:4; stroke-opacity:1; fill:none" points="
  156.598,1486.45 175.496,1486.45 
  "/>
<polyline clip-path="url(#clip630)" style="stroke:#000000; stroke-linecap:round; stroke-linejoin:round; stroke-width:4; stroke-opacity:1; fill:none" points="
  156.598,1198.61 175.496,1198.61 
  "/>
<polyline clip-path="url(#clip630)" style="stroke:#000000; stroke-linecap:round; stroke-linejoin:round; stroke-width:4; stroke-opacity:1; fill:none" points="
  156.598,910.766 175.496,910.766 
  "/>
<polyline clip-path="url(#clip630)" style="stroke:#000000; stroke-linecap:round; stroke-linejoin:round; stroke-width:4; stroke-opacity:1; fill:none" points="
  156.598,622.926 175.496,622.926 
  "/>
<polyline clip-path="url(#clip630)" style="stroke:#000000; stroke-linecap:round; stroke-linejoin:round; stroke-width:4; stroke-opacity:1; fill:none" points="
  156.598,335.085 175.496,335.085 
  "/>
<polyline clip-path="url(#clip630)" style="stroke:#000000; stroke-linecap:round; stroke-linejoin:round; stroke-width:4; stroke-opacity:1; fill:none" points="
  156.598,47.2441 175.496,47.2441 
  "/>
<path clip-path="url(#clip630)" d="M63.4226 1472.25 Q59.8115 1472.25 57.9828 1475.81 Q56.1773 1479.35 56.1773 1486.48 Q56.1773 1493.59 57.9828 1497.15 Q59.8115 1500.7 63.4226 1500.7 Q67.0569 1500.7 68.8624 1497.15 Q70.6911 1493.59 70.6911 1486.48 Q70.6911 1479.35 68.8624 1475.81 Q67.0569 1472.25 63.4226 1472.25 M63.4226 1468.54 Q69.2328 1468.54 72.2883 1473.15 Q75.367 1477.73 75.367 1486.48 Q75.367 1495.21 72.2883 1499.82 Q69.2328 1504.4 63.4226 1504.4 Q57.6125 1504.4 54.5338 1499.82 Q51.4782 1495.21 51.4782 1486.48 Q51.4782 1477.73 54.5338 1473.15 Q57.6125 1468.54 63.4226 1468.54 Z" fill="#000000" fill-rule="evenodd" fill-opacity="1" /><path clip-path="url(#clip630)" d="M83.5845 1497.85 L88.4688 1497.85 L88.4688 1503.73 L83.5845 1503.73 L83.5845 1497.85 Z" fill="#000000" fill-rule="evenodd" fill-opacity="1" /><path clip-path="url(#clip630)" d="M108.654 1472.25 Q105.043 1472.25 103.214 1475.81 Q101.409 1479.35 101.409 1486.48 Q101.409 1493.59 103.214 1497.15 Q105.043 1500.7 108.654 1500.7 Q112.288 1500.7 114.094 1497.15 Q115.922 1493.59 115.922 1486.48 Q115.922 1479.35 114.094 1475.81 Q112.288 1472.25 108.654 1472.25 M108.654 1468.54 Q114.464 1468.54 117.52 1473.15 Q120.598 1477.73 120.598 1486.48 Q120.598 1495.21 117.52 1499.82 Q114.464 1504.4 108.654 1504.4 Q102.844 1504.4 99.765 1499.82 Q96.7095 1495.21 96.7095 1486.48 Q96.7095 1477.73 99.765 1473.15 Q102.844 1468.54 108.654 1468.54 Z" fill="#000000" fill-rule="evenodd" fill-opacity="1" /><path clip-path="url(#clip630)" d="M65.0198 1184.41 Q61.4087 1184.41 59.58 1187.97 Q57.7745 1191.51 57.7745 1198.64 Q57.7745 1205.75 59.58 1209.31 Q61.4087 1212.85 65.0198 1212.85 Q68.6541 1212.85 70.4596 1209.31 Q72.2883 1205.75 72.2883 1198.64 Q72.2883 1191.51 70.4596 1187.97 Q68.6541 1184.41 65.0198 1184.41 M65.0198 1180.7 Q70.83 1180.7 73.8855 1185.31 Q76.9642 1189.89 76.9642 1198.64 Q76.9642 1207.37 73.8855 1211.98 Q70.83 1216.56 65.0198 1216.56 Q59.2097 1216.56 56.131 1211.98 Q53.0754 1207.37 53.0754 1198.64 Q53.0754 1189.89 56.131 1185.31 Q59.2097 1180.7 65.0198 1180.7 Z" fill="#000000" fill-rule="evenodd" fill-opacity="1" /><path clip-path="url(#clip630)" d="M85.1818 1210.01 L90.066 1210.01 L90.066 1215.89 L85.1818 1215.89 L85.1818 1210.01 Z" fill="#000000" fill-rule="evenodd" fill-opacity="1" /><path clip-path="url(#clip630)" d="M104.279 1211.95 L120.598 1211.95 L120.598 1215.89 L98.6539 1215.89 L98.6539 1211.95 Q101.316 1209.2 105.899 1204.57 Q110.506 1199.91 111.686 1198.57 Q113.932 1196.05 114.811 1194.31 Q115.714 1192.55 115.714 1190.86 Q115.714 1188.11 113.77 1186.37 Q111.848 1184.64 108.746 1184.64 Q106.547 1184.64 104.094 1185.4 Q101.663 1186.17 98.8854 1187.72 L98.8854 1182.99 Q101.709 1181.86 104.163 1181.28 Q106.617 1180.7 108.654 1180.7 Q114.024 1180.7 117.219 1183.39 Q120.413 1186.07 120.413 1190.56 Q120.413 1192.69 119.603 1194.61 Q118.816 1196.51 116.709 1199.1 Q116.131 1199.78 113.029 1202.99 Q109.927 1206.19 104.279 1211.95 Z" fill="#000000" fill-rule="evenodd" fill-opacity="1" /><path clip-path="url(#clip630)" d="M62.9365 896.565 Q59.3254 896.565 57.4967 900.13 Q55.6912 903.671 55.6912 910.801 Q55.6912 917.908 57.4967 921.472 Q59.3254 925.014 62.9365 925.014 Q66.5707 925.014 68.3763 921.472 Q70.205 917.908 70.205 910.801 Q70.205 903.671 68.3763 900.13 Q66.5707 896.565 62.9365 896.565 M62.9365 892.861 Q68.7467 892.861 71.8022 897.468 Q74.8809 902.051 74.8809 910.801 Q74.8809 919.528 71.8022 924.134 Q68.7467 928.718 62.9365 928.718 Q57.1264 928.718 54.0477 924.134 Q50.9921 919.528 50.9921 910.801 Q50.9921 902.051 54.0477 897.468 Q57.1264 892.861 62.9365 892.861 Z" fill="#000000" fill-rule="evenodd" fill-opacity="1" /><path clip-path="url(#clip630)" d="M83.0984 922.167 L87.9827 922.167 L87.9827 928.046 L83.0984 928.046 L83.0984 922.167 Z" fill="#000000" fill-rule="evenodd" fill-opacity="1" /><path clip-path="url(#clip630)" d="M111.015 897.56 L99.2095 916.009 L111.015 916.009 L111.015 897.56 M109.788 893.486 L115.668 893.486 L115.668 916.009 L120.598 916.009 L120.598 919.898 L115.668 919.898 L115.668 928.046 L111.015 928.046 L111.015 919.898 L95.4132 919.898 L95.4132 915.384 L109.788 893.486 Z" fill="#000000" fill-rule="evenodd" fill-opacity="1" /><path clip-path="url(#clip630)" d="M63.2606 608.724 Q59.6495 608.724 57.8208 612.289 Q56.0152 615.831 56.0152 622.96 Q56.0152 630.067 57.8208 633.632 Q59.6495 637.173 63.2606 637.173 Q66.8948 637.173 68.7004 633.632 Q70.5291 630.067 70.5291 622.96 Q70.5291 615.831 68.7004 612.289 Q66.8948 608.724 63.2606 608.724 M63.2606 605.021 Q69.0707 605.021 72.1263 609.627 Q75.205 614.21 75.205 622.96 Q75.205 631.687 72.1263 636.294 Q69.0707 640.877 63.2606 640.877 Q57.4504 640.877 54.3717 636.294 Q51.3162 631.687 51.3162 622.96 Q51.3162 614.21 54.3717 609.627 Q57.4504 605.021 63.2606 605.021 Z" fill="#000000" fill-rule="evenodd" fill-opacity="1" /><path clip-path="url(#clip630)" d="M83.4225 634.326 L88.3067 634.326 L88.3067 640.206 L83.4225 640.206 L83.4225 634.326 Z" fill="#000000" fill-rule="evenodd" fill-opacity="1" /><path clip-path="url(#clip630)" d="M109.071 621.062 Q105.922 621.062 104.071 623.215 Q102.242 625.368 102.242 629.118 Q102.242 632.845 104.071 635.02 Q105.922 637.173 109.071 637.173 Q112.219 637.173 114.047 635.02 Q115.899 632.845 115.899 629.118 Q115.899 625.368 114.047 623.215 Q112.219 621.062 109.071 621.062 M118.353 606.409 L118.353 610.669 Q116.594 609.835 114.788 609.396 Q113.006 608.956 111.246 608.956 Q106.617 608.956 104.163 612.081 Q101.733 615.206 101.385 621.525 Q102.751 619.511 104.811 618.446 Q106.871 617.359 109.348 617.359 Q114.557 617.359 117.566 620.53 Q120.598 623.678 120.598 629.118 Q120.598 634.442 117.45 637.659 Q114.302 640.877 109.071 640.877 Q103.075 640.877 99.9039 636.294 Q96.7326 631.687 96.7326 622.96 Q96.7326 614.766 100.621 609.905 Q104.51 605.021 111.061 605.021 Q112.82 605.021 114.603 605.368 Q116.408 605.715 118.353 606.409 Z" fill="#000000" fill-rule="evenodd" fill-opacity="1" /><path clip-path="url(#clip630)" d="M63.5152 320.884 Q59.9041 320.884 58.0754 324.448 Q56.2699 327.99 56.2699 335.12 Q56.2699 342.226 58.0754 345.791 Q59.9041 349.332 63.5152 349.332 Q67.1494 349.332 68.955 345.791 Q70.7837 342.226 70.7837 335.12 Q70.7837 327.99 68.955 324.448 Q67.1494 320.884 63.5152 320.884 M63.5152 317.18 Q69.3254 317.18 72.3809 321.786 Q75.4596 326.37 75.4596 335.12 Q75.4596 343.846 72.3809 348.453 Q69.3254 353.036 63.5152 353.036 Q57.7051 353.036 54.6264 348.453 Q51.5708 343.846 51.5708 335.12 Q51.5708 326.37 54.6264 321.786 Q57.7051 317.18 63.5152 317.18 Z" fill="#000000" fill-rule="evenodd" fill-opacity="1" /><path clip-path="url(#clip630)" d="M83.6771 346.485 L88.5614 346.485 L88.5614 352.365 L83.6771 352.365 L83.6771 346.485 Z" fill="#000000" fill-rule="evenodd" fill-opacity="1" /><path clip-path="url(#clip630)" d="M108.746 335.953 Q105.413 335.953 103.492 337.735 Q101.594 339.518 101.594 342.643 Q101.594 345.768 103.492 347.55 Q105.413 349.332 108.746 349.332 Q112.08 349.332 114.001 347.55 Q115.922 345.745 115.922 342.643 Q115.922 339.518 114.001 337.735 Q112.103 335.953 108.746 335.953 M104.071 333.962 Q101.061 333.221 99.3715 331.161 Q97.7048 329.101 97.7048 326.138 Q97.7048 321.995 100.645 319.587 Q103.608 317.18 108.746 317.18 Q113.908 317.18 116.848 319.587 Q119.788 321.995 119.788 326.138 Q119.788 329.101 118.098 331.161 Q116.432 333.221 113.445 333.962 Q116.825 334.749 118.7 337.041 Q120.598 339.333 120.598 342.643 Q120.598 347.666 117.52 350.351 Q114.464 353.036 108.746 353.036 Q103.029 353.036 99.9502 350.351 Q96.8947 347.666 96.8947 342.643 Q96.8947 339.333 98.7928 337.041 Q100.691 334.749 104.071 333.962 M102.358 326.578 Q102.358 329.263 104.024 330.768 Q105.714 332.272 108.746 332.272 Q111.756 332.272 113.445 330.768 Q115.158 329.263 115.158 326.578 Q115.158 323.893 113.445 322.388 Q111.756 320.884 108.746 320.884 Q105.714 320.884 104.024 322.388 Q102.358 323.893 102.358 326.578 Z" fill="#000000" fill-rule="evenodd" fill-opacity="1" /><path clip-path="url(#clip630)" d="M54.2328 60.5889 L61.8717 60.5889 L61.8717 34.2233 L53.5616 35.89 L53.5616 31.6308 L61.8254 29.9641 L66.5013 29.9641 L66.5013 60.5889 L74.1402 60.5889 L74.1402 64.5241 L54.2328 64.5241 L54.2328 60.5889 Z" fill="#000000" fill-rule="evenodd" fill-opacity="1" /><path clip-path="url(#clip630)" d="M83.5845 58.6445 L88.4688 58.6445 L88.4688 64.5241 L83.5845 64.5241 L83.5845 58.6445 Z" fill="#000000" fill-rule="evenodd" fill-opacity="1" /><path clip-path="url(#clip630)" d="M108.654 33.0428 Q105.043 33.0428 103.214 36.6076 Q101.409 40.1492 101.409 47.2788 Q101.409 54.3853 103.214 57.9501 Q105.043 61.4917 108.654 61.4917 Q112.288 61.4917 114.094 57.9501 Q115.922 54.3853 115.922 47.2788 Q115.922 40.1492 114.094 36.6076 Q112.288 33.0428 108.654 33.0428 M108.654 29.3391 Q114.464 29.3391 117.52 33.9456 Q120.598 38.5289 120.598 47.2788 Q120.598 56.0056 117.52 60.6121 Q114.464 65.1954 108.654 65.1954 Q102.844 65.1954 99.765 60.6121 Q96.7095 56.0056 96.7095 47.2788 Q96.7095 38.5289 99.765 33.9456 Q102.844 29.3391 108.654 29.3391 Z" fill="#000000" fill-rule="evenodd" fill-opacity="1" /><path clip-path="url(#clip630)" d="
M1099.43 743.218 L2279.55 743.218 L2279.55 95.2176 L1099.43 95.2176  Z
  " fill="#ffffff" fill-rule="evenodd" fill-opacity="1"/>
<polyline clip-path="url(#clip630)" style="stroke:#000000; stroke-linecap:round; stroke-linejoin:round; stroke-width:4; stroke-opacity:1; fill:none" points="
  1099.43,743.218 2279.55,743.218 2279.55,95.2176 1099.43,95.2176 1099.43,743.218 
  "/>
<polyline clip-path="url(#clip630)" style="stroke:#000000; stroke-linecap:round; stroke-linejoin:round; stroke-width:10; stroke-opacity:1; fill:none" points="
  1123.83,224.818 1270.24,224.818 
  "/>
<path clip-path="url(#clip630)" d="M1354.43 178.214 Q1354.43 181.435 1352.38 183.426 Q1350.39 185.417 1347.87 185.417 Q1346.05 185.417 1344.71 184.304 Q1343.42 183.192 1343.42 181.259 Q1343.42 179.268 1344.94 177.16 Q1346.46 175.052 1349.92 174.759 Q1347.63 172.593 1344 172.593 Q1342.19 172.593 1340.67 173.764 Q1339.2 174.877 1338.38 176.692 Q1337.5 178.566 1335.51 189.164 Q1334.87 192.619 1334.28 195.957 Q1333.7 199.294 1333 202.808 L1342.95 202.808 Q1344.24 202.808 1344.77 202.866 Q1345.29 202.925 1345.7 203.218 Q1346.17 203.51 1346.17 204.155 Q1346.17 205.794 1345.41 206.204 Q1344.71 206.555 1342.6 206.555 L1332.29 206.555 L1325.09 244.558 Q1324.91 245.671 1324.15 249.184 Q1323.45 252.639 1321.75 258.319 Q1320.05 264.058 1318.36 267.454 Q1317.42 269.386 1316.19 271.201 Q1315.02 273.075 1313.32 274.949 Q1311.62 276.823 1309.4 277.935 Q1307.17 279.106 1304.83 279.106 Q1300.85 279.106 1297.74 276.881 Q1294.64 274.656 1294.64 270.85 Q1294.64 267.629 1296.63 265.639 Q1298.68 263.648 1301.2 263.648 Q1303.01 263.648 1304.3 264.76 Q1305.65 265.873 1305.65 267.805 Q1305.65 268.625 1305.36 269.562 Q1305.06 270.499 1304.42 271.553 Q1303.78 272.665 1302.37 273.426 Q1300.97 274.188 1299.03 274.305 Q1301.32 276.471 1304.83 276.471 Q1305.94 276.471 1306.94 276.003 Q1307.93 275.593 1308.75 274.539 Q1309.63 273.485 1310.28 272.431 Q1310.92 271.436 1311.56 269.503 Q1312.21 267.629 1312.62 266.224 Q1313.03 264.819 1313.55 262.301 Q1314.14 259.783 1314.43 258.26 Q1314.73 256.797 1315.25 253.927 L1324.21 206.555 L1316.31 206.555 Q1314.9 206.555 1314.32 206.497 Q1313.79 206.438 1313.38 206.146 Q1312.97 205.794 1312.97 205.092 Q1312.97 203.979 1313.44 203.51 Q1313.96 202.983 1314.55 202.925 Q1315.14 202.808 1316.54 202.808 L1324.86 202.808 Q1327.67 187.993 1328.78 184.011 Q1330.07 179.795 1332.06 176.867 Q1334.05 173.881 1336.27 172.476 Q1338.5 171.07 1340.31 170.543 Q1342.19 169.958 1344 169.958 Q1348.1 169.958 1351.26 172.183 Q1354.43 174.35 1354.43 178.214 Z" fill="#000000" fill-rule="evenodd" fill-opacity="1" /><path clip-path="url(#clip630)" d="
M1123.83 406.258 L1270.24 406.258 L1270.24 302.578 L1123.83 302.578 L1123.83 406.258  Z
  " fill="#0000ff" fill-rule="evenodd" fill-opacity="0.1"/>
<polyline clip-path="url(#clip630)" style="stroke:#0000ff; stroke-linecap:round; stroke-linejoin:round; stroke-width:0; stroke-opacity:1; fill:none" points="
  1123.83,302.578 1270.24,302.578 
  "/>
<path clip-path="url(#clip630)" d="M1300.2 395.824 L1300.2 385.175 Q1304.59 387.259 1309.11 388.358 Q1313.62 389.458 1317.96 389.458 Q1329.54 389.458 1335.61 381.703 Q1341.75 373.891 1342.62 358.034 Q1339.26 363.011 1334.11 365.673 Q1328.96 368.335 1322.71 368.335 Q1309.75 368.335 1302.16 360.523 Q1294.64 352.653 1294.64 339.053 Q1294.64 325.743 1302.51 317.699 Q1310.38 309.655 1323.46 309.655 Q1338.45 309.655 1346.32 321.171 Q1354.25 332.629 1354.25 354.504 Q1354.25 374.932 1344.53 387.143 Q1334.86 399.296 1318.48 399.296 Q1314.09 399.296 1309.57 398.428 Q1305.06 397.56 1300.2 395.824 M1323.46 359.192 Q1331.33 359.192 1335.9 353.81 Q1340.53 348.428 1340.53 339.053 Q1340.53 329.736 1335.9 324.354 Q1331.33 318.914 1323.46 318.914 Q1315.59 318.914 1310.96 324.354 Q1306.39 329.736 1306.39 339.053 Q1306.39 348.428 1310.96 353.81 Q1315.59 359.192 1323.46 359.192 Z" fill="#000000" fill-rule="evenodd" fill-opacity="1" /><path clip-path="url(#clip630)" d="M1375.37 311.218 L1421.26 311.218 L1421.26 321.055 L1386.08 321.055 L1386.08 342.236 Q1388.62 341.368 1391.17 340.963 Q1393.71 340.5 1396.26 340.5 Q1410.73 340.5 1419.18 348.428 Q1427.63 356.356 1427.63 369.898 Q1427.63 383.844 1418.95 391.599 Q1410.27 399.296 1394.47 399.296 Q1389.03 399.296 1383.36 398.37 Q1377.74 397.444 1371.72 395.592 L1371.72 383.844 Q1376.93 386.68 1382.49 388.069 Q1388.04 389.458 1394.24 389.458 Q1404.25 389.458 1410.09 384.192 Q1415.94 378.926 1415.94 369.898 Q1415.94 360.87 1410.09 355.604 Q1404.25 350.338 1394.24 350.338 Q1389.55 350.338 1384.86 351.379 Q1380.23 352.421 1375.37 354.62 L1375.37 311.218 Z" fill="#000000" fill-rule="evenodd" fill-opacity="1" /><path clip-path="url(#clip630)" d="M1524.15 359.597 Q1519.12 359.597 1516.23 363.879 Q1513.39 368.162 1513.39 375.801 Q1513.39 383.324 1516.23 387.664 Q1519.12 391.946 1524.15 391.946 Q1529.07 391.946 1531.91 387.664 Q1534.8 383.324 1534.8 375.801 Q1534.8 368.22 1531.91 363.937 Q1529.07 359.597 1524.15 359.597 M1524.15 352.247 Q1533.3 352.247 1538.68 358.613 Q1544.06 364.979 1544.06 375.801 Q1544.06 386.622 1538.62 392.988 Q1533.24 399.296 1524.15 399.296 Q1514.89 399.296 1509.51 392.988 Q1504.13 386.622 1504.13 375.801 Q1504.13 364.921 1509.51 358.613 Q1514.95 352.247 1524.15 352.247 M1464.43 317.005 Q1459.45 317.005 1456.56 321.345 Q1453.73 325.627 1453.73 333.15 Q1453.73 340.789 1456.56 345.072 Q1459.4 349.354 1464.43 349.354 Q1469.47 349.354 1472.3 345.072 Q1475.2 340.789 1475.2 333.15 Q1475.2 325.685 1472.3 321.345 Q1469.41 317.005 1464.43 317.005 M1516.69 309.655 L1525.95 309.655 L1471.9 399.296 L1462.64 399.296 L1516.69 309.655 M1464.43 309.655 Q1473.58 309.655 1479.02 316.021 Q1484.45 322.329 1484.45 333.15 Q1484.45 344.088 1479.02 350.396 Q1473.63 356.703 1464.43 356.703 Q1455.23 356.703 1449.85 350.396 Q1444.52 344.03 1444.52 333.15 Q1444.52 322.386 1449.91 316.021 Q1455.29 309.655 1464.43 309.655 Z" fill="#000000" fill-rule="evenodd" fill-opacity="1" /><path clip-path="url(#clip630)" d="M1646.09 335.291 L1646.09 345.245 Q1641.57 342.757 1637 341.541 Q1632.49 340.268 1627.86 340.268 Q1617.5 340.268 1611.77 346.866 Q1606.04 353.405 1606.04 365.268 Q1606.04 377.132 1611.77 383.729 Q1617.5 390.268 1627.86 390.268 Q1632.49 390.268 1637 389.053 Q1641.57 387.78 1646.09 385.291 L1646.09 395.129 Q1641.63 397.212 1636.83 398.254 Q1632.08 399.296 1626.7 399.296 Q1612.06 399.296 1603.44 390.094 Q1594.81 380.893 1594.81 365.268 Q1594.81 349.412 1603.49 340.326 Q1612.23 331.241 1627.39 331.241 Q1632.31 331.241 1637 332.282 Q1641.69 333.266 1646.09 335.291 Z" fill="#000000" fill-rule="evenodd" fill-opacity="1" /><path clip-path="url(#clip630)" d="M1689.72 340.268 Q1681.16 340.268 1676.18 346.981 Q1671.2 353.636 1671.2 365.268 Q1671.2 376.9 1676.12 383.613 Q1681.1 390.268 1689.72 390.268 Q1698.23 390.268 1703.2 383.555 Q1708.18 376.842 1708.18 365.268 Q1708.18 353.752 1703.2 347.039 Q1698.23 340.268 1689.72 340.268 M1689.72 331.241 Q1703.61 331.241 1711.54 340.268 Q1719.47 349.296 1719.47 365.268 Q1719.47 381.182 1711.54 390.268 Q1703.61 399.296 1689.72 399.296 Q1675.77 399.296 1667.85 390.268 Q1659.97 381.182 1659.97 365.268 Q1659.97 349.296 1667.85 340.268 Q1675.77 331.241 1689.72 331.241 Z" fill="#000000" fill-rule="evenodd" fill-opacity="1" /><path clip-path="url(#clip630)" d="M1790.99 358.497 L1790.99 397.618 L1780.34 397.618 L1780.34 358.845 Q1780.34 349.643 1776.76 345.072 Q1773.17 340.5 1765.99 340.5 Q1757.37 340.5 1752.39 345.997 Q1747.42 351.495 1747.42 360.986 L1747.42 397.618 L1736.71 397.618 L1736.71 332.803 L1747.42 332.803 L1747.42 342.872 Q1751.24 337.028 1756.39 334.134 Q1761.59 331.241 1768.37 331.241 Q1779.53 331.241 1785.26 338.185 Q1790.99 345.072 1790.99 358.497 Z" fill="#000000" fill-rule="evenodd" fill-opacity="1" /><path clip-path="url(#clip630)" d="M1845.04 307.572 L1845.04 316.426 L1834.86 316.426 Q1829.13 316.426 1826.87 318.741 Q1824.67 321.055 1824.67 327.074 L1824.67 332.803 L1842.21 332.803 L1842.21 341.079 L1824.67 341.079 L1824.67 397.618 L1813.97 397.618 L1813.97 341.079 L1803.78 341.079 L1803.78 332.803 L1813.97 332.803 L1813.97 328.289 Q1813.97 317.468 1819 312.549 Q1824.04 307.572 1834.97 307.572 L1845.04 307.572 Z" fill="#000000" fill-rule="evenodd" fill-opacity="1" /><path clip-path="url(#clip630)" d="M1853.96 332.803 L1864.6 332.803 L1864.6 397.618 L1853.96 397.618 L1853.96 332.803 M1853.96 307.572 L1864.6 307.572 L1864.6 321.055 L1853.96 321.055 L1853.96 307.572 Z" fill="#000000" fill-rule="evenodd" fill-opacity="1" /><path clip-path="url(#clip630)" d="M1929.53 342.641 L1929.53 307.572 L1940.18 307.572 L1940.18 397.618 L1929.53 397.618 L1929.53 387.895 Q1926.18 393.682 1921.03 396.518 Q1915.93 399.296 1908.76 399.296 Q1897.01 399.296 1889.6 389.921 Q1882.25 380.546 1882.25 365.268 Q1882.25 349.99 1889.6 340.616 Q1897.01 331.241 1908.76 331.241 Q1915.93 331.241 1921.03 334.076 Q1926.18 336.854 1929.53 342.641 M1893.25 365.268 Q1893.25 377.016 1898.05 383.729 Q1902.91 390.384 1911.36 390.384 Q1919.81 390.384 1924.67 383.729 Q1929.53 377.016 1929.53 365.268 Q1929.53 353.521 1924.67 346.866 Q1919.81 340.153 1911.36 340.153 Q1902.91 340.153 1898.05 346.866 Q1893.25 353.521 1893.25 365.268 Z" fill="#000000" fill-rule="evenodd" fill-opacity="1" /><path clip-path="url(#clip630)" d="M2017.55 362.548 L2017.55 367.757 L1968.6 367.757 Q1969.29 378.752 1975.19 384.539 Q1981.15 390.268 1991.74 390.268 Q1997.88 390.268 2003.61 388.763 Q2009.39 387.259 2015.07 384.25 L2015.07 394.319 Q2009.34 396.75 2003.32 398.023 Q1997.3 399.296 1991.11 399.296 Q1975.6 399.296 1966.51 390.268 Q1957.48 381.24 1957.48 365.847 Q1957.48 349.933 1966.05 340.616 Q1974.67 331.241 1989.26 331.241 Q2002.33 331.241 2009.91 339.69 Q2017.55 348.081 2017.55 362.548 M2006.91 359.423 Q2006.79 350.685 2001.99 345.477 Q1997.24 340.268 1989.37 340.268 Q1980.46 340.268 1975.08 345.303 Q1969.75 350.338 1968.94 359.481 L2006.91 359.423 Z" fill="#000000" fill-rule="evenodd" fill-opacity="1" /><path clip-path="url(#clip630)" d="M2088.91 358.497 L2088.91 397.618 L2078.26 397.618 L2078.26 358.845 Q2078.26 349.643 2074.67 345.072 Q2071.08 340.5 2063.91 340.5 Q2055.29 340.5 2050.31 345.997 Q2045.33 351.495 2045.33 360.986 L2045.33 397.618 L2034.63 397.618 L2034.63 332.803 L2045.33 332.803 L2045.33 342.872 Q2049.15 337.028 2054.3 334.134 Q2059.51 331.241 2066.28 331.241 Q2077.45 331.241 2083.18 338.185 Q2088.91 345.072 2088.91 358.497 Z" fill="#000000" fill-rule="evenodd" fill-opacity="1" /><path clip-path="url(#clip630)" d="M2156.79 335.291 L2156.79 345.245 Q2152.28 342.757 2147.7 341.541 Q2143.19 340.268 2138.56 340.268 Q2128.2 340.268 2122.47 346.866 Q2116.74 353.405 2116.74 365.268 Q2116.74 377.132 2122.47 383.729 Q2128.2 390.268 2138.56 390.268 Q2143.19 390.268 2147.7 389.053 Q2152.28 387.78 2156.79 385.291 L2156.79 395.129 Q2152.33 397.212 2147.53 398.254 Q2142.78 399.296 2137.4 399.296 Q2122.76 399.296 2114.14 390.094 Q2105.52 380.893 2105.52 365.268 Q2105.52 349.412 2114.2 340.326 Q2122.94 331.241 2138.1 331.241 Q2143.02 331.241 2147.7 332.282 Q2152.39 333.266 2156.79 335.291 Z" fill="#000000" fill-rule="evenodd" fill-opacity="1" /><path clip-path="url(#clip630)" d="M2230.75 362.548 L2230.75 367.757 L2181.79 367.757 Q2182.48 378.752 2188.39 384.539 Q2194.35 390.268 2204.94 390.268 Q2211.07 390.268 2216.8 388.763 Q2222.59 387.259 2228.26 384.25 L2228.26 394.319 Q2222.53 396.75 2216.51 398.023 Q2210.49 399.296 2204.3 399.296 Q2188.79 399.296 2179.71 390.268 Q2170.68 381.24 2170.68 365.847 Q2170.68 349.933 2179.24 340.616 Q2187.87 331.241 2202.45 331.241 Q2215.53 331.241 2223.11 339.69 Q2230.75 348.081 2230.75 362.548 M2220.1 359.423 Q2219.98 350.685 2215.18 345.477 Q2210.43 340.268 2202.56 340.268 Q2193.65 340.268 2188.27 345.303 Q2182.95 350.338 2182.14 359.481 L2220.1 359.423 Z" fill="#000000" fill-rule="evenodd" fill-opacity="1" /><polyline clip-path="url(#clip630)" style="stroke:#0000ff; stroke-linecap:round; stroke-linejoin:round; stroke-width:10; stroke-opacity:1; fill:none" stroke-dasharray="40, 20, 5, 20, 5, 20" points="
  1123.83,484.018 1270.24,484.018 
  "/>
<path clip-path="url(#clip630)" d="M1294.64 440.818 L1312.06 440.818 L1334.11 499.614 L1356.27 440.818 L1373.69 440.818 L1373.69 527.218 L1362.29 527.218 L1362.29 451.35 L1340.01 510.609 L1328.26 510.609 L1305.98 451.35 L1305.98 527.218 L1294.64 527.218 L1294.64 440.818 Z" fill="#000000" fill-rule="evenodd" fill-opacity="1" /><path clip-path="url(#clip630)" d="M1396.9 440.818 L1408.59 440.818 L1408.59 517.38 L1450.66 517.38 L1450.66 527.218 L1396.9 527.218 L1396.9 440.818 Z" fill="#000000" fill-rule="evenodd" fill-opacity="1" /><path clip-path="url(#clip630)" d="M1462.93 440.818 L1517.56 440.818 L1517.56 450.655 L1474.62 450.655 L1474.62 476.234 L1515.76 476.234 L1515.76 486.072 L1474.62 486.072 L1474.62 517.38 L1518.6 517.38 L1518.6 527.218 L1462.93 527.218 L1462.93 440.818 Z" fill="#000000" fill-rule="evenodd" fill-opacity="1" /><polyline clip-path="url(#clip630)" style="stroke:#0000ff; stroke-linecap:round; stroke-linejoin:round; stroke-width:10; stroke-opacity:1; fill:none" points="
  1123.83,613.618 1270.24,613.618 
  "/>
<path clip-path="url(#clip630)" d="M1294.64 570.418 L1349.27 570.418 L1349.27 580.255 L1306.33 580.255 L1306.33 605.834 L1347.48 605.834 L1347.48 615.672 L1306.33 615.672 L1306.33 646.98 L1350.31 646.98 L1350.31 656.818 L1294.64 656.818 L1294.64 570.418 Z" fill="#000000" fill-rule="evenodd" fill-opacity="1" /><path clip-path="url(#clip630)" d="M1391.8 656.818 L1358.82 570.418 L1371.03 570.418 L1398.4 643.16 L1425.83 570.418 L1437.99 570.418 L1405.06 656.818 L1391.8 656.818 Z" fill="#000000" fill-rule="evenodd" fill-opacity="1" /><path clip-path="url(#clip630)" d="M1450.6 570.418 L1505.23 570.418 L1505.23 580.255 L1462.29 580.255 L1462.29 605.834 L1503.44 605.834 L1503.44 615.672 L1462.29 615.672 L1462.29 646.98 L1506.27 646.98 L1506.27 656.818 L1450.6 656.818 L1450.6 570.418 Z" fill="#000000" fill-rule="evenodd" fill-opacity="1" /></svg>
