<?xml version="1.0" encoding="utf-8"?>
<svg xmlns="http://www.w3.org/2000/svg" xmlns:xlink="http://www.w3.org/1999/xlink" width="600" height="400" viewBox="0 0 2400 1600">
<defs>
  <clipPath id="clip730">
    <rect x="0" y="0" width="2400" height="1600"/>
  </clipPath>
</defs>
<path clip-path="url(#clip730)" d="
M0 1600 L2400 1600 L2400 0 L0 0  Z
  " fill="#ffffff" fill-rule="evenodd" fill-opacity="1"/>
<defs>
  <clipPath id="clip731">
    <rect x="480" y="0" width="1681" height="1600"/>
  </clipPath>
</defs>
<defs>
  <clipPath id="clip732">
    <rect x="156" y="47" width="2197" height="1440"/>
  </clipPath>
</defs>
<path clip-path="url(#clip730)" d="
M156.598 1486.45 L2352.76 1486.45 L2352.76 47.2441 L156.598 47.2441  Z
  " fill="#ffffff" fill-rule="evenodd" fill-opacity="1"/>
<polyline clip-path="url(#clip732)" style="stroke:#000000; stroke-linecap:round; stroke-linejoin:round; stroke-width:2; stroke-opacity:0.1; fill:none" points="
  156.598,1486.45 156.598,47.2441 
  "/>
<polyline clip-path="url(#clip732)" style="stroke:#000000; stroke-linecap:round; stroke-linejoin:round; stroke-width:2; stroke-opacity:0.1; fill:none" points="
  595.83,1486.45 595.83,47.2441 
  "/>
<polyline clip-path="url(#clip732)" style="stroke:#000000; stroke-linecap:round; stroke-linejoin:round; stroke-width:2; stroke-opacity:0.1; fill:none" points="
  1035.06,1486.45 1035.06,47.2441 
  "/>
<polyline clip-path="url(#clip732)" style="stroke:#000000; stroke-linecap:round; stroke-linejoin:round; stroke-width:2; stroke-opacity:0.1; fill:none" points="
  1474.29,1486.45 1474.29,47.2441 
  "/>
<polyline clip-path="url(#clip732)" style="stroke:#000000; stroke-linecap:round; stroke-linejoin:round; stroke-width:2; stroke-opacity:0.1; fill:none" points="
  1913.52,1486.45 1913.52,47.2441 
  "/>
<polyline clip-path="url(#clip732)" style="stroke:#000000; stroke-linecap:round; stroke-linejoin:round; stroke-width:2; stroke-opacity:0.1; fill:none" points="
  2352.76,1486.45 2352.76,47.2441 
  "/>
<polyline clip-path="url(#clip730)" style="stroke:#000000; stroke-linecap:round; stroke-linejoin:round; stroke-width:4; stroke-opacity:1; fill:none" points="
  156.598,1486.45 2352.76,1486.45 
  "/>
<polyline clip-path="url(#clip730)" style="stroke:#000000; stroke-linecap:round; stroke-linejoin:round; stroke-width:4; stroke-opacity:1; fill:none" points="
  156.598,1486.45 156.598,1467.55 
  "/>
<polyline clip-path="url(#clip730)" style="stroke:#000000; stroke-linecap:round; stroke-linejoin:round; stroke-width:4; stroke-opacity:1; fill:none" points="
  595.83,1486.45 595.83,1467.55 
  "/>
<polyline clip-path="url(#clip730)" style="stroke:#000000; stroke-linecap:round; stroke-linejoin:round; stroke-width:4; stroke-opacity:1; fill:none" points="
  1035.06,1486.45 1035.06,1467.55 
  "/>
<polyline clip-path="url(#clip730)" style="stroke:#000000; stroke-linecap:round; stroke-linejoin:round; stroke-width:4; stroke-opacity:1; fill:none" points="
  1474.29,1486.45 1474.29,1467.55 
  "/>
<polyline clip-path="url(#clip730)" style="stroke:#000000; stroke-linecap:round; stroke-linejoin:round; stroke-width:4; stroke-opacity:1; fill:none" points="
  1913.52,1486.45 1913.52,1467.55 
  "/>
<polyline clip-path="url(#clip730)" style="stroke:#000000; stroke-linecap:round; stroke-linejoin:round; stroke-width:4; stroke-opacity:1; fill:none" points="
  2352.76,1486.45 2352.76,1467.55 
  "/>
<path clip-path="url(#clip730)" d="M133.983 1517.37 Q130.372 1517.37 128.543 1520.93 Q126.737 1524.47 126.737 1531.6 Q126.737 1538.71 128.543 1542.27 Q130.372 1545.82 133.983 1545.82 Q137.617 1545.82 139.422 1542.27 Q141.251 1538.71 141.251 1531.6 Q141.251 1524.47 139.422 1520.93 Q137.617 1517.37 133.983 1517.37 M133.983 1513.66 Q139.793 1513.66 142.848 1518.27 Q145.927 1522.85 145.927 1531.6 Q145.927 1540.33 142.848 1544.94 Q139.793 1549.52 133.983 1549.52 Q128.172 1549.52 125.094 1544.94 Q122.038 1540.33 122.038 1531.6 Q122.038 1522.85 125.094 1518.27 Q128.172 1513.66 133.983 1513.66 Z" fill="#000000" fill-rule="evenodd" fill-opacity="1" /><path clip-path="url(#clip730)" d="M154.145 1542.97 L159.029 1542.97 L159.029 1548.85 L154.145 1548.85 L154.145 1542.97 Z" fill="#000000" fill-rule="evenodd" fill-opacity="1" /><path clip-path="url(#clip730)" d="M179.214 1517.37 Q175.603 1517.37 173.774 1520.93 Q171.969 1524.47 171.969 1531.6 Q171.969 1538.71 173.774 1542.27 Q175.603 1545.82 179.214 1545.82 Q182.848 1545.82 184.654 1542.27 Q186.482 1538.71 186.482 1531.6 Q186.482 1524.47 184.654 1520.93 Q182.848 1517.37 179.214 1517.37 M179.214 1513.66 Q185.024 1513.66 188.08 1518.27 Q191.158 1522.85 191.158 1531.6 Q191.158 1540.33 188.08 1544.94 Q185.024 1549.52 179.214 1549.52 Q173.404 1549.52 170.325 1544.94 Q167.269 1540.33 167.269 1531.6 Q167.269 1522.85 170.325 1518.27 Q173.404 1513.66 179.214 1513.66 Z" fill="#000000" fill-rule="evenodd" fill-opacity="1" /><path clip-path="url(#clip730)" d="M574.013 1517.37 Q570.402 1517.37 568.573 1520.93 Q566.767 1524.47 566.767 1531.6 Q566.767 1538.71 568.573 1542.27 Q570.402 1545.82 574.013 1545.82 Q577.647 1545.82 579.453 1542.27 Q581.281 1538.71 581.281 1531.6 Q581.281 1524.47 579.453 1520.93 Q577.647 1517.37 574.013 1517.37 M574.013 1513.66 Q579.823 1513.66 582.878 1518.27 Q585.957 1522.85 585.957 1531.6 Q585.957 1540.33 582.878 1544.94 Q579.823 1549.52 574.013 1549.52 Q568.203 1549.52 565.124 1544.94 Q562.068 1540.33 562.068 1531.6 Q562.068 1522.85 565.124 1518.27 Q568.203 1513.66 574.013 1513.66 Z" fill="#000000" fill-rule="evenodd" fill-opacity="1" /><path clip-path="url(#clip730)" d="M594.175 1542.97 L599.059 1542.97 L599.059 1548.85 L594.175 1548.85 L594.175 1542.97 Z" fill="#000000" fill-rule="evenodd" fill-opacity="1" /><path clip-path="url(#clip730)" d="M613.272 1544.91 L629.591 1544.91 L629.591 1548.85 L607.647 1548.85 L607.647 1544.91 Q610.309 1542.16 614.892 1537.53 Q619.499 1532.88 620.679 1531.53 Q622.925 1529.01 623.804 1527.27 Q624.707 1525.51 624.707 1523.82 Q624.707 1521.07 622.762 1519.33 Q620.841 1517.6 617.739 1517.6 Q615.54 1517.6 613.087 1518.36 Q610.656 1519.13 607.878 1520.68 L607.878 1515.95 Q610.702 1514.82 613.156 1514.24 Q615.61 1513.66 617.647 1513.66 Q623.017 1513.66 626.212 1516.35 Q629.406 1519.03 629.406 1523.52 Q629.406 1525.65 628.596 1527.57 Q627.809 1529.47 625.702 1532.07 Q625.124 1532.74 622.022 1535.95 Q618.92 1539.15 613.272 1544.91 Z" fill="#000000" fill-rule="evenodd" fill-opacity="1" /><path clip-path="url(#clip730)" d="M1012.2 1517.37 Q1008.59 1517.37 1006.76 1520.93 Q1004.96 1524.47 1004.96 1531.6 Q1004.96 1538.71 1006.76 1542.27 Q1008.59 1545.82 1012.2 1545.82 Q1015.84 1545.82 1017.64 1542.27 Q1019.47 1538.71 1019.47 1531.6 Q1019.47 1524.47 1017.64 1520.93 Q1015.84 1517.37 1012.2 1517.37 M1012.2 1513.66 Q1018.01 1513.66 1021.07 1518.27 Q1024.15 1522.85 1024.15 1531.6 Q1024.15 1540.33 1021.07 1544.94 Q1018.01 1549.52 1012.2 1549.52 Q1006.39 1549.52 1003.31 1544.94 Q1000.26 1540.33 1000.26 1531.6 Q1000.26 1522.85 1003.31 1518.27 Q1006.39 1513.66 1012.2 1513.66 Z" fill="#000000" fill-rule="evenodd" fill-opacity="1" /><path clip-path="url(#clip730)" d="M1032.36 1542.97 L1037.25 1542.97 L1037.25 1548.85 L1032.36 1548.85 L1032.36 1542.97 Z" fill="#000000" fill-rule="evenodd" fill-opacity="1" /><path clip-path="url(#clip730)" d="M1060.28 1518.36 L1048.48 1536.81 L1060.28 1536.81 L1060.28 1518.36 M1059.05 1514.29 L1064.93 1514.29 L1064.93 1536.81 L1069.86 1536.81 L1069.86 1540.7 L1064.93 1540.7 L1064.93 1548.85 L1060.28 1548.85 L1060.28 1540.7 L1044.68 1540.7 L1044.68 1536.19 L1059.05 1514.29 Z" fill="#000000" fill-rule="evenodd" fill-opacity="1" /><path clip-path="url(#clip730)" d="M1451.6 1517.37 Q1447.99 1517.37 1446.16 1520.93 Q1444.35 1524.47 1444.35 1531.6 Q1444.35 1538.71 1446.16 1542.27 Q1447.99 1545.82 1451.6 1545.82 Q1455.23 1545.82 1457.04 1542.27 Q1458.86 1538.71 1458.86 1531.6 Q1458.86 1524.47 1457.04 1520.93 Q1455.23 1517.37 1451.6 1517.37 M1451.6 1513.66 Q1457.41 1513.66 1460.46 1518.27 Q1463.54 1522.85 1463.54 1531.6 Q1463.54 1540.33 1460.46 1544.94 Q1457.41 1549.52 1451.6 1549.52 Q1445.79 1549.52 1442.71 1544.94 Q1439.65 1540.33 1439.65 1531.6 Q1439.65 1522.85 1442.71 1518.27 Q1445.79 1513.66 1451.6 1513.66 Z" fill="#000000" fill-rule="evenodd" fill-opacity="1" /><path clip-path="url(#clip730)" d="M1471.76 1542.97 L1476.64 1542.97 L1476.64 1548.85 L1471.76 1548.85 L1471.76 1542.97 Z" fill="#000000" fill-rule="evenodd" fill-opacity="1" /><path clip-path="url(#clip730)" d="M1497.41 1529.7 Q1494.26 1529.7 1492.41 1531.86 Q1490.58 1534.01 1490.58 1537.76 Q1490.58 1541.49 1492.41 1543.66 Q1494.26 1545.82 1497.41 1545.82 Q1500.55 1545.82 1502.38 1543.66 Q1504.23 1541.49 1504.23 1537.76 Q1504.23 1534.01 1502.38 1531.86 Q1500.55 1529.7 1497.41 1529.7 M1506.69 1515.05 L1506.69 1519.31 Q1504.93 1518.48 1503.12 1518.04 Q1501.34 1517.6 1499.58 1517.6 Q1494.95 1517.6 1492.5 1520.72 Q1490.07 1523.85 1489.72 1530.17 Q1491.09 1528.15 1493.15 1527.09 Q1495.21 1526 1497.68 1526 Q1502.89 1526 1505.9 1529.17 Q1508.93 1532.32 1508.93 1537.76 Q1508.93 1543.08 1505.79 1546.3 Q1502.64 1549.52 1497.41 1549.52 Q1491.41 1549.52 1488.24 1544.94 Q1485.07 1540.33 1485.07 1531.6 Q1485.07 1523.41 1488.96 1518.55 Q1492.85 1513.66 1499.4 1513.66 Q1501.16 1513.66 1502.94 1514.01 Q1504.74 1514.36 1506.69 1515.05 Z" fill="#000000" fill-rule="evenodd" fill-opacity="1" /><path clip-path="url(#clip730)" d="M1890.96 1517.37 Q1887.34 1517.37 1885.52 1520.93 Q1883.71 1524.47 1883.71 1531.6 Q1883.71 1538.71 1885.52 1542.27 Q1887.34 1545.82 1890.96 1545.82 Q1894.59 1545.82 1896.39 1542.27 Q1898.22 1538.71 1898.22 1531.6 Q1898.22 1524.47 1896.39 1520.93 Q1894.59 1517.37 1890.96 1517.37 M1890.96 1513.66 Q1896.77 1513.66 1899.82 1518.27 Q1902.9 1522.85 1902.9 1531.6 Q1902.9 1540.33 1899.82 1544.94 Q1896.77 1549.52 1890.96 1549.52 Q1885.14 1549.52 1882.07 1544.94 Q1879.01 1540.33 1879.01 1531.6 Q1879.01 1522.85 1882.07 1518.27 Q1885.14 1513.66 1890.96 1513.66 Z" fill="#000000" fill-rule="evenodd" fill-opacity="1" /><path clip-path="url(#clip730)" d="M1911.12 1542.97 L1916 1542.97 L1916 1548.85 L1911.12 1548.85 L1911.12 1542.97 Z" fill="#000000" fill-rule="evenodd" fill-opacity="1" /><path clip-path="url(#clip730)" d="M1936.19 1532.44 Q1932.85 1532.44 1930.93 1534.22 Q1929.03 1536 1929.03 1539.13 Q1929.03 1542.25 1930.93 1544.03 Q1932.85 1545.82 1936.19 1545.82 Q1939.52 1545.82 1941.44 1544.03 Q1943.36 1542.23 1943.36 1539.13 Q1943.36 1536 1941.44 1534.22 Q1939.54 1532.44 1936.19 1532.44 M1931.51 1530.45 Q1928.5 1529.7 1926.81 1527.64 Q1925.14 1525.58 1925.14 1522.62 Q1925.14 1518.48 1928.08 1516.07 Q1931.05 1513.66 1936.19 1513.66 Q1941.35 1513.66 1944.29 1516.07 Q1947.23 1518.48 1947.23 1522.62 Q1947.23 1525.58 1945.54 1527.64 Q1943.87 1529.7 1940.89 1530.45 Q1944.26 1531.23 1946.14 1533.52 Q1948.04 1535.82 1948.04 1539.13 Q1948.04 1544.15 1944.96 1546.83 Q1941.9 1549.52 1936.19 1549.52 Q1930.47 1549.52 1927.39 1546.83 Q1924.33 1544.15 1924.33 1539.13 Q1924.33 1535.82 1926.23 1533.52 Q1928.13 1531.23 1931.51 1530.45 M1929.8 1523.06 Q1929.8 1525.75 1931.46 1527.25 Q1933.15 1528.76 1936.19 1528.76 Q1939.2 1528.76 1940.89 1527.25 Q1942.6 1525.75 1942.6 1523.06 Q1942.6 1520.38 1940.89 1518.87 Q1939.2 1517.37 1936.19 1517.37 Q1933.15 1517.37 1931.46 1518.87 Q1929.8 1520.38 1929.8 1523.06 Z" fill="#000000" fill-rule="evenodd" fill-opacity="1" /><path clip-path="url(#clip730)" d="M2319.91 1544.91 L2327.55 1544.91 L2327.55 1518.55 L2319.24 1520.21 L2319.24 1515.95 L2327.5 1514.29 L2332.18 1514.29 L2332.18 1544.91 L2339.82 1544.91 L2339.82 1548.85 L2319.91 1548.85 L2319.91 1544.91 Z" fill="#000000" fill-rule="evenodd" fill-opacity="1" /><path clip-path="url(#clip730)" d="M2349.26 1542.97 L2354.14 1542.97 L2354.14 1548.85 L2349.26 1548.85 L2349.26 1542.97 Z" fill="#000000" fill-rule="evenodd" fill-opacity="1" /><path clip-path="url(#clip730)" d="M2374.33 1517.37 Q2370.72 1517.37 2368.89 1520.93 Q2367.08 1524.47 2367.08 1531.6 Q2367.08 1538.71 2368.89 1542.27 Q2370.72 1545.82 2374.33 1545.82 Q2377.96 1545.82 2379.77 1542.27 Q2381.6 1538.71 2381.6 1531.6 Q2381.6 1524.47 2379.77 1520.93 Q2377.96 1517.37 2374.33 1517.37 M2374.33 1513.66 Q2380.14 1513.66 2383.2 1518.27 Q2386.27 1522.85 2386.27 1531.6 Q2386.27 1540.33 2383.2 1544.94 Q2380.14 1549.52 2374.33 1549.52 Q2368.52 1549.52 2365.44 1544.94 Q2362.39 1540.33 2362.39 1531.6 Q2362.39 1522.85 2365.44 1518.27 Q2368.52 1513.66 2374.33 1513.66 Z" fill="#000000" fill-rule="evenodd" fill-opacity="1" /><polyline clip-path="url(#clip732)" style="stroke:#000000; stroke-linecap:round; stroke-linejoin:round; stroke-width:2; stroke-opacity:0.1; fill:none" points="
  156.598,1486.45 2352.76,1486.45 
  "/>
<polyline clip-path="url(#clip732)" style="stroke:#000000; stroke-linecap:round; stroke-linejoin:round; stroke-width:2; stroke-opacity:0.1; fill:none" points="
  156.598,1198.61 2352.76,1198.61 
  "/>
<polyline clip-path="url(#clip732)" style="stroke:#000000; stroke-linecap:round; stroke-linejoin:round; stroke-width:2; stroke-opacity:0.1; fill:none" points="
  156.598,910.766 2352.76,910.766 
  "/>
<polyline clip-path="url(#clip732)" style="stroke:#000000; stroke-linecap:round; stroke-linejoin:round; stroke-width:2; stroke-opacity:0.1; fill:none" points="
  156.598,622.926 2352.76,622.926 
  "/>
<polyline clip-path="url(#clip732)" style="stroke:#000000; stroke-linecap:round; stroke-linejoin:round; stroke-width:2; stroke-opacity:0.1; fill:none" points="
  156.598,335.085 2352.76,335.085 
  "/>
<polyline clip-path="url(#clip732)" style="stroke:#000000; stroke-linecap:round; stroke-linejoin:round; stroke-width:2; stroke-opacity:0.1; fill:none" points="
  156.598,47.2441 2352.76,47.2441 
  "/>
<polyline clip-path="url(#clip730)" style="stroke:#000000; stroke-linecap:round; stroke-linejoin:round; stroke-width:4; stroke-opacity:1; fill:none" points="
  156.598,1486.45 156.598,47.2441 
  "/>
<polyline clip-path="url(#clip730)" style="stroke:#000000; stroke-linecap:round; stroke-linejoin:round; stroke-width:4; stroke-opacity:1; fill:none" points="
  156.598,1486.45 175.496,1486.45 
  "/>
<polyline clip-path="url(#clip730)" style="stroke:#000000; stroke-linecap:round; stroke-linejoin:round; stroke-width:4; stroke-opacity:1; fill:none" points="
  156.598,1198.61 175.496,1198.61 
  "/>
<polyline clip-path="url(#clip730)" style="stroke:#000000; stroke-linecap:round; stroke-linejoin:round; stroke-width:4; stroke-opacity:1; fill:none" points="
  156.598,910.766 175.496,910.766 
  "/>
<polyline clip-path="url(#clip730)" style="stroke:#000000; stroke-linecap:round; stroke-linejoin:round; stroke-width:4; stroke-opacity:1; fill:none" points="
  156.598,622.926 175.496,622.926 
  "/>
<polyline clip-path="url(#clip730)" style="stroke:#000000; stroke-linecap:round; stroke-linejoin:round; stroke-width:4; stroke-opacity:1; fill:none" points="
  156.598,335.085 175.496,335.085 
  "/>
<polyline clip-path="url(#clip730)" style="stroke:#000000; stroke-linecap:round; stroke-linejoin:round; stroke-width:4; stroke-opacity:1; fill:none" points="
  156.598,47.2441 175.496,47.2441 
  "/>
<path clip-path="url(#clip730)" d="M63.4226 1472.25 Q59.8115 1472.25 57.9828 1475.81 Q56.1773 1479.35 56.1773 1486.48 Q56.1773 1493.59 57.9828 1497.15 Q59.8115 1500.7 63.4226 1500.7 Q67.0569 1500.7 68.8624 1497.15 Q70.6911 1493.59 70.6911 1486.48 Q70.6911 1479.35 68.8624 1475.81 Q67.0569 1472.25 63.4226 1472.25 M63.4226 1468.54 Q69.2328 1468.54 72.2883 1473.15 Q75.367 1477.73 75.367 1486.48 Q75.367 1495.21 72.2883 1499.82 Q69.2328 1504.4 63.4226 1504.4 Q57.6125 1504.4 54.5338 1499.82 Q51.4782 1495.21 51.4782 1486.48 Q51.4782 1477.73 54.5338 1473.15 Q57.6125 1468.54 63.4226 1468.54 Z" fill="#000000" fill-rule="evenodd" fill-opacity="1" /><path clip-path="url(#clip730)" d="M83.5845 1497.85 L88.4688 1497.85 L88.4688 1503.73 L83.5845 1503.73 L83.5845 1497.85 Z" fill="#000000" fill-rule="evenodd" fill-opacity="1" /><path clip-path="url(#clip730)" d="M108.654 1472.25 Q105.043 1472.25 103.214 1475.81 Q101.409 1479.35 101.409 1486.48 Q101.409 1493.59 103.214 1497.15 Q105.043 1500.7 108.654 1500.7 Q112.288 1500.7 114.094 1497.15 Q115.922 1493.59 115.922 1486.48 Q115.922 1479.35 114.094 1475.81 Q112.288 1472.25 108.654 1472.25 M108.654 1468.54 Q114.464 1468.54 117.52 1473.15 Q120.598 1477.73 120.598 1486.48 Q120.598 1495.21 117.52 1499.82 Q114.464 1504.4 108.654 1504.4 Q102.844 1504.4 99.765 1499.82 Q96.7095 1495.21 96.7095 1486.48 Q96.7095 1477.73 99.765 1473.15 Q102.844 1468.54 108.654 1468.54 Z" fill="#000000" fill-rule="evenodd" fill-opacity="1" /><path clip-path="url(#clip730)" d="M65.0198 1184.41 Q61.4087 1184.41 59.58 1187.97 Q57.7745 1191.51 57.7745 1198.64 Q57.7745 1205.75 59.58 1209.31 Q61.4087 1212.85 65.0198 1212.85 Q68.6541 1212.85 70.4596 1209.31 Q72.2883 1205.75 72.2883 1198.64 Q72.2883 1191.51 70.4596 1187.97 Q68.6541 1184.41 65.0198 1184.41 M65.0198 1180.7 Q70.83 1180.7 73.8855 1185.31 Q76.9642 1189.89 76.9642 1198.64 Q76.9642 1207.37 73.8855 1211.98 Q70.83 1216.56 65.0198 1216.56 Q59.2097 1216.56 56.131 1211.98 Q53.0754 1207.37 53.0754 1198.64 Q53.0754 1189.89 56.131 1185.31 Q59.2097 1180.7 65.0198 1180.7 Z" fill="#000000" fill-rule="evenodd" fill-opacity="1" /><path clip-path="url(#clip730)" d="M85.1818 1210.01 L90.066 1210.01 L90.066 1215.89 L85.1818 1215.89 L85.1818 1210.01 Z" fill="#000000" fill-rule="evenodd" fill-opacity="1" /><path clip-path="url(#clip730)" d="M104.279 1211.95 L120.598 1211.95 L120.598 1215.89 L98.6539 1215.89 L98.6539 1211.95 Q101.316 1209.2 105.899 1204.57 Q110.506 1199.91 111.686 1198.57 Q113.932 1196.05 114.811 1194.31 Q115.714 1192.55 115.714 1190.86 Q115.714 1188.11 113.77 1186.37 Q111.848 1184.64 108.746 1184.64 Q106.547 1184.64 104.094 1185.4 Q101.663 1186.17 98.8854 1187.72 L98.8854 1182.99 Q101.709 1181.86 104.163 1181.28 Q106.617 1180.7 108.654 1180.7 Q114.024 1180.7 117.219 1183.39 Q120.413 1186.07 120.413 1190.56 Q120.413 1192.69 119.603 1194.61 Q118.816 1196.51 116.709 1199.1 Q116.131 1199.78 113.029 1202.99 Q109.927 1206.19 104.279 1211.95 Z" fill="#000000" fill-rule="evenodd" fill-opacity="1" /><path clip-path="url(#clip730)" d="M62.9365 896.565 Q59.3254 896.565 57.4967 900.13 Q55.6912 903.671 55.6912 910.801 Q55.6912 917.908 57.4967 921.472 Q59.3254 925.014 62.9365 925.014 Q66.5707 925.014 68.3763 921.472 Q70.205 917.908 70.205 910.801 Q70.205 903.671 68.3763 900.13 Q66.5707 896.565 62.9365 896.565 M62.9365 892.861 Q68.7467 892.861 71.8022 897.468 Q74.8809 902.051 74.8809 910.801 Q74.8809 919.528 71.8022 924.134 Q68.7467 928.718 62.9365 928.718 Q57.1264 928.718 54.0477 924.134 Q50.9921 919.528 50.9921 910.801 Q50.9921 902.051 54.0477 897.468 Q57.1264 892.861 62.9365 892.861 Z" fill="#000000" fill-rule="evenodd" fill-opacity="1" /><path clip-path="url(#clip730)" d="M83.0984 922.167 L87.9827 922.167 L87.9827 928.046 L83.0984 928.046 L83.0984 922.167 Z" fill="#000000" fill-rule="evenodd" fill-opacity="1" /><path clip-path="url(#clip730)" d="M111.015 897.56 L99.2095 916.009 L111.015 916.009 L111.015 897.56 M109.788 893.486 L115.668 893.486 L115.668 916.009 L120.598 916.009 L120.598 919.898 L115.668 919.898 L115.668 928.046 L111.015 928.046 L111.015 919.898 L95.4132 919.898 L95.4132 915.384 L109.788 893.486 Z" fill="#000000" fill-rule="evenodd" fill-opacity="1" /><path clip-path="url(#clip730)" d="M63.2606 608.724 Q59.6495 608.724 57.8208 612.289 Q56.0152 615.831 56.0152 622.96 Q56.0152 630.067 57.8208 633.632 Q59.6495 637.173 63.2606 637.173 Q66.8948 637.173 68.7004 633.632 Q70.5291 630.067 70.5291 622.96 Q70.5291 615.831 68.7004 612.289 Q66.8948 608.724 63.2606 608.724 M63.2606 605.021 Q69.0707 605.021 72.1263 609.627 Q75.205 614.21 75.205 622.96 Q75.205 631.687 72.1263 636.294 Q69.0707 640.877 63.2606 640.877 Q57.4504 640.877 54.3717 636.294 Q51.3162 631.687 51.3162 622.96 Q51.3162 614.21 54.3717 609.627 Q57.4504 605.021 63.2606 605.021 Z" fill="#000000" fill-rule="evenodd" fill-opacity="1" /><path clip-path="url(#clip730)" d="M83.4225 634.326 L88.3067 634.326 L88.3067 640.206 L83.4225 640.206 L83.4225 634.326 Z" fill="#000000" fill-rule="evenodd" fill-opacity="1" /><path clip-path="url(#clip730)" d="M109.071 621.062 Q105.922 621.062 104.071 623.215 Q102.242 625.368 102.242 629.118 Q102.242 632.845 104.071 635.02 Q105.922 637.173 109.071 637.173 Q112.219 637.173 114.047 635.02 Q115.899 632.845 115.899 629.118 Q115.899 625.368 114.047 623.215 Q112.219 621.062 109.071 621.062 M118.353 606.409 L118.353 610.669 Q116.594 609.835 114.788 609.396 Q113.006 608.956 111.246 608.956 Q106.617 608.956 104.163 612.081 Q101.733 615.206 101.385 621.525 Q102.751 619.511 104.811 618.446 Q106.871 617.359 109.348 617.359 Q114.557 617.359 117.566 620.53 Q120.598 623.678 120.598 629.118 Q120.598 634.442 117.45 637.659 Q114.302 640.877 109.071 640.877 Q103.075 640.877 99.9039 636.294 Q96.7326 631.687 96.7326 622.96 Q96.7326 614.766 100.621 609.905 Q104.51 605.021 111.061 605.021 Q112.82 605.021 114.603 605.368 Q116.408 605.715 118.353 606.409 Z" fill="#000000" fill-rule="evenodd" fill-opacity="1" /><path clip-path="url(#clip730)" d="M63.5152 320.884 Q59.9041 320.884 58.0754 324.448 Q56.2699 327.99 56.2699 335.12 Q56.2699 342.226 58.0754 345.791 Q59.9041 349.332 63.5152 349.332 Q67.1494 349.332 68.955 345.791 Q70.7837 342.226 70.7837 335.12 Q70.7837 327.99 68.955 324.448 Q67.1494 320.884 63.5152 320.884 M63.5152 317.18 Q69.3254 317.18 72.3809 321.786 Q75.4596 326.37 75.4596 335.12 Q75.4596 343.846 72.3809 348.453 Q69.3254 353.036 63.5152 353.036 Q57.7051 353.036 54.6264 348.453 Q51.5708 343.846 51.5708 335.12 Q51.5708 326.37 54.6264 321.786 Q57.7051 317.18 63.5152 317.18 Z" fill="#000000" fill-rule="evenodd" fill-opacity="1" /><path clip-path="url(#clip730)" d="M83.6771 346.485 L88.5614 346.485 L88.5614 352.365 L83.6771 352.365 L83.6771 346.485 Z" fill="#000000" fill-rule="evenodd" fill-opacity="1" /><path clip-path="url(#clip730)" d="M108.746 335.953 Q105.413 335.953 103.492 337.735 Q101.594 339.518 101.594 342.643 Q101.594 345.768 103.492 347.55 Q105.413 349.332 108.746 349.332 Q112.08 349.332 114.001 347.55 Q115.922 345.745 115.922 342.643 Q115.922 339.518 114.001 337.735 Q112.103 335.953 108.746 335.953 M104.071 333.962 Q101.061 333.221 99.3715 331.161 Q97.7048 329.101 97.7048 326.138 Q97.7048 321.995 100.645 319.587 Q103.608 317.18 108.746 317.18 Q113.908 317.18 116.848 319.587 Q119.788 321.995 119.788 326.138 Q119.788 329.101 118.098 331.161 Q116.432 333.221 113.445 333.962 Q116.825 334.749 118.7 337.041 Q120.598 339.333 120.598 342.643 Q120.598 347.666 117.52 350.351 Q114.464 353.036 108.746 353.036 Q103.029 353.036 99.9502 350.351 Q96.8947 347.666 96.8947 342.643 Q96.8947 339.333 98.7928 337.041 Q100.691 334.749 104.071 333.962 M102.358 326.578 Q102.358 329.263 104.024 330.768 Q105.714 332.272 108.746 332.272 Q111.756 332.272 113.445 330.768 Q115.158 329.263 115.158 326.578 Q115.158 323.893 113.445 322.388 Q111.756 320.884 108.746 320.884 Q105.714 320.884 104.024 322.388 Q102.358 323.893 102.358 326.578 Z" fill="#000000" fill-rule="evenodd" fill-opacity="1" /><path clip-path="url(#clip730)" d="M54.2328 60.5889 L61.8717 60.5889 L61.8717 34.2233 L53.5616 35.89 L53.5616 31.6308 L61.8254 29.9641 L66.5013 29.9641 L66.5013 60.5889 L74.1402 60.5889 L74.1402 64.5241 L54.2328 64.5241 L54.2328 60.5889 Z" fill="#000000" fill-rule="evenodd" fill-opacity="1" /><path clip-path="url(#clip730)" d="M83.5845 58.6445 L88.4688 58.6445 L88.4688 64.5241 L83.5845 64.5241 L83.5845 58.6445 Z" fill="#000000" fill-rule="evenodd" fill-opacity="1" /><path clip-path="url(#clip730)" d="M108.654 33.0428 Q105.043 33.0428 103.214 36.6076 Q101.409 40.1492 101.409 47.2788 Q101.409 54.3853 103.214 57.9501 Q105.043 61.4917 108.654 61.4917 Q112.288 61.4917 114.094 57.9501 Q115.922 54.3853 115.922 47.2788 Q115.922 40.1492 114.094 36.6076 Q112.288 33.0428 108.654 33.0428 M108.654 29.3391 Q114.464 29.3391 117.52 33.9456 Q120.598 38.5289 120.598 47.2788 Q120.598 56.0056 117.52 60.6121 Q114.464 65.1954 108.654 65.1954 Q102.844 65.1954 99.765 60.6121 Q96.7095 56.0056 96.7095 47.2788 Q96.7095 38.5289 99.765 33.9456 Q102.844 29.3391 108.654 29.3391 Z" fill="#000000" fill-rule="evenodd" fill-opacity="1" /><path clip-path="url(#clip730)" d="
M1788.64 587.906 L2279.55 587.906 L2279.55 95.2176 L1788.64 95.2176  Z
  " fill="#ffffff" fill-rule="evenodd" fill-opacity="1"/>
<polyline clip-path="url(#clip730)" style="stroke:#000000; stroke-linecap:round; stroke-linejoin:round; stroke-width:4; stroke-opacity:1; fill:none" points="
  1788.64,587.906 2279.55,587.906 2279.55,95.2176 1788.64,95.2176 1788.64,587.906 
  "/>
<polyline clip-path="url(#clip730)" style="stroke:#000000; stroke-linecap:round; stroke-linejoin:round; stroke-width:10; stroke-opacity:1; fill:none" points="
  1813.04,259.447 1959.45,259.447 
  "/>
<path clip-path="url(#clip730)" d="M2046.51 211.292 Q2046.51 219.841 2042.17 228.098 Q2037.9 236.354 2031.17 241.449 Q2024.43 246.485 2017.58 246.485 Q2013.48 246.485 2010.73 244.259 Q2008.04 241.976 2006.57 238.755 Q2005.46 242.737 2003.06 252.282 Q2000.66 261.826 2000.66 262.763 Q2000.66 263.29 2000.78 263.524 Q2000.89 263.759 2001.42 264.051 Q2001.95 264.403 2003.23 264.52 Q2004.52 264.695 2006.69 264.695 Q2007.8 264.695 2008.21 264.695 Q2008.68 264.754 2009.09 265.047 Q2009.56 265.34 2009.56 265.984 Q2009.56 268.384 2007.39 268.384 Q2005.46 268.384 2001.48 268.209 Q1997.5 268.033 1995.51 268.033 Q1993.81 268.033 1990.41 268.209 Q1987.01 268.384 1985.43 268.384 Q1983.85 268.384 1983.85 266.979 Q1983.85 266.159 1984.09 265.632 Q1984.26 265.164 1984.73 264.93 Q1985.2 264.754 1985.61 264.695 Q1985.96 264.695 1986.66 264.695 Q1989.36 264.695 1990.53 264.227 Q1991.7 263.817 1992.11 262.939 Q1992.58 262.119 1993.1 259.777 L2006.57 206.374 Q2007.39 202.802 2007.39 200.284 Q2007.39 197.122 2006.4 195.951 Q2005.4 194.779 2003.64 194.779 Q2000.6 194.779 1998.61 198.41 Q1996.62 202.04 1994.92 209.067 Q1994.39 210.999 1994.04 211.409 Q1993.75 211.819 1992.87 211.819 Q1991.41 211.761 1991.41 210.59 Q1991.41 210.297 1991.88 208.423 Q1992.34 206.491 1993.22 203.68 Q1994.16 200.811 1995.15 198.995 Q1995.74 197.766 1996.27 196.946 Q1996.79 196.126 1997.85 194.838 Q1998.96 193.55 2000.54 192.847 Q2002.12 192.144 2004.05 192.144 Q2007.8 192.144 2010.91 194.37 Q2014.01 196.595 2014.83 201.104 Q2018.17 197.18 2022.27 194.662 Q2026.36 192.144 2030.52 192.144 Q2037.43 192.144 2041.94 197.532 Q2046.51 202.86 2046.51 211.292 M2037.84 206.022 Q2037.84 200.694 2035.79 197.766 Q2033.8 194.779 2030.17 194.779 Q2025.66 194.779 2020.45 199.347 Q2015.3 203.68 2014.24 207.72 L2008.33 231.201 L2007.98 233.134 Q2007.98 233.485 2008.15 234.539 Q2008.39 235.535 2009.03 237.174 Q2009.73 238.814 2010.67 240.278 Q2011.67 241.683 2013.42 242.737 Q2015.24 243.791 2017.46 243.791 Q2021.04 243.791 2024.9 240.629 Q2028.82 237.467 2031.75 231.494 Q2033.57 227.629 2035.67 219.314 Q2037.84 210.941 2037.84 206.022 Z" fill="#000000" fill-rule="evenodd" fill-opacity="1" /><path clip-path="url(#clip730)" d="M2119.73 249.217 Q2119.73 249.749 2119.61 250.077 Q2119.53 250.405 2119.2 250.569 Q2118.91 250.692 2118.71 250.733 Q2118.54 250.774 2118.05 250.815 Q2116.04 250.979 2114.36 251.512 Q2112.68 252.004 2111.25 252.988 Q2109.85 253.971 2109.08 254.627 Q2108.34 255.283 2107.03 256.595 L2105.88 257.783 L2085.06 281.68 Q2084.32 282.5 2083.87 284.303 L2080.92 296.149 Q2079.77 301.068 2079.77 301.437 Q2079.77 302.175 2080.18 302.421 Q2080.63 302.626 2082.02 302.749 L2085.22 302.954 Q2087.11 302.954 2087.39 303.281 Q2087.56 303.486 2087.56 303.855 Q2087.56 304.634 2087.23 305.044 Q2086.94 305.413 2086.65 305.495 Q2086.41 305.536 2085.96 305.536 L2075.22 305.29 L2064.64 305.536 Q2063.45 305.536 2063.45 304.593 Q2063.45 303.978 2063.54 303.65 Q2063.66 303.281 2064.03 303.158 Q2064.4 302.994 2064.68 302.994 Q2064.97 302.954 2065.75 302.954 Q2067.64 302.913 2068.58 302.913 Q2069.56 302.872 2070.5 302.626 Q2071.45 302.38 2071.78 302.216 Q2072.14 302.011 2072.55 301.314 Q2073 300.576 2073.13 300.002 Q2073.29 299.428 2073.62 297.994 Q2073.95 296.723 2075.67 289.796 Q2077.39 282.869 2077.39 282.705 Q2077.39 282.254 2077.06 281.27 L2066.73 253.643 Q2066.28 252.414 2065.91 251.922 Q2065.54 251.43 2064.32 251.143 Q2063.09 250.815 2060.63 250.815 Q2059.93 250.815 2059.6 250.774 Q2059.27 250.733 2058.99 250.528 Q2058.7 250.323 2058.7 249.872 Q2058.7 249.094 2059.03 248.725 Q2059.36 248.315 2059.6 248.274 Q2059.89 248.192 2060.3 248.192 Q2061.32 248.192 2064.97 248.315 Q2068.62 248.438 2069.68 248.438 L2080.26 248.192 Q2081.53 248.192 2081.53 249.135 Q2081.53 250.282 2081.08 250.569 Q2080.63 250.815 2079.52 250.815 Q2074.56 250.815 2074.56 252.824 Q2074.56 253.07 2075.05 254.258 L2084.28 279.18 L2103.75 256.759 L2104.03 256.431 Q2104.28 256.103 2104.48 255.857 Q2104.69 255.611 2105.02 255.16 Q2105.35 254.709 2105.51 254.34 Q2105.71 253.971 2105.88 253.52 Q2106.04 253.07 2106.04 252.742 Q2106.04 252.127 2105.67 251.717 Q2105.3 251.266 2104.73 251.102 Q2104.16 250.938 2103.75 250.897 Q2103.34 250.815 2103.01 250.815 Q2101.74 250.815 2101.74 249.79 Q2101.74 249.053 2102.07 248.684 Q2102.39 248.274 2102.64 248.233 Q2102.93 248.192 2103.34 248.192 Q2104.69 248.192 2107.52 248.315 Q2110.35 248.438 2111.74 248.438 Q2112.89 248.438 2115.22 248.315 Q2117.56 248.192 2118.63 248.192 Q2119.73 248.192 2119.73 249.217 Z" fill="#000000" fill-rule="evenodd" fill-opacity="1" /><path clip-path="url(#clip730)" d="M2132.84 323.94 L2132.84 245.773 Q2132.84 242.658 2134.52 242.658 Q2136.21 242.658 2136.21 245.159 L2136.21 323.325 Q2136.21 326.44 2134.52 326.44 Q2132.84 326.44 2132.84 323.94 Z" fill="#000000" fill-rule="evenodd" fill-opacity="1" /><path clip-path="url(#clip730)" d="M2189.48 273.974 Q2189.48 276.269 2188.05 277.581 Q2186.61 278.852 2184.97 278.852 Q2183.41 278.852 2182.59 277.95 Q2181.77 277.048 2181.77 275.901 Q2181.77 274.343 2182.92 272.99 Q2184.07 271.638 2185.79 271.351 Q2184.11 270.285 2181.61 270.285 Q2179.97 270.285 2178.54 271.146 Q2177.14 272.007 2176.28 273.113 Q2175.46 274.22 2174.72 275.819 Q2174.03 277.376 2173.74 278.319 Q2173.49 279.221 2173.29 280.204 L2170.42 291.681 Q2169.03 297.133 2169.03 299.06 Q2169.03 301.437 2170.17 303.035 Q2171.32 304.593 2173.62 304.593 Q2174.52 304.593 2175.54 304.347 Q2176.57 304.06 2177.88 303.322 Q2179.23 302.544 2180.42 301.396 Q2181.65 300.207 2182.84 298.199 Q2184.03 296.19 2184.81 293.608 Q2185.05 292.706 2185.87 292.706 Q2186.9 292.706 2186.9 293.526 Q2186.9 294.223 2186.32 295.698 Q2185.79 297.133 2184.6 299.019 Q2183.45 300.863 2181.94 302.544 Q2180.42 304.183 2178.17 305.331 Q2175.91 306.479 2173.45 306.479 Q2169.93 306.479 2167.59 304.593 Q2165.26 302.708 2164.39 300.084 Q2164.19 300.453 2163.9 300.945 Q2163.62 301.437 2162.76 302.544 Q2161.94 303.609 2160.99 304.429 Q2160.05 305.208 2158.57 305.823 Q2157.14 306.479 2155.58 306.479 Q2153.61 306.479 2151.85 305.905 Q2150.13 305.331 2148.9 304.019 Q2147.67 302.708 2147.67 300.904 Q2147.67 298.896 2149.02 297.502 Q2150.42 296.067 2152.3 296.067 Q2153.49 296.067 2154.43 296.764 Q2155.42 297.461 2155.42 298.978 Q2155.42 300.658 2154.27 301.929 Q2153.12 303.199 2151.48 303.527 Q2153.16 304.593 2155.66 304.593 Q2158.37 304.593 2160.5 302.216 Q2162.63 299.838 2163.66 295.862 Q2166.2 286.312 2167.18 282.049 Q2168.17 277.745 2168.17 275.901 Q2168.17 274.179 2167.72 272.99 Q2167.26 271.802 2166.49 271.269 Q2165.75 270.695 2165.05 270.49 Q2164.39 270.285 2163.66 270.285 Q2162.43 270.285 2161.03 270.777 Q2159.68 271.269 2158.04 272.416 Q2156.44 273.523 2154.93 275.819 Q2153.41 278.114 2152.39 281.27 Q2152.18 282.213 2151.28 282.213 Q2150.29 282.172 2150.29 281.352 Q2150.29 280.655 2150.83 279.221 Q2151.4 277.745 2152.55 275.901 Q2153.74 274.056 2155.25 272.416 Q2156.81 270.736 2159.07 269.588 Q2161.36 268.441 2163.82 268.441 Q2164.93 268.441 2165.99 268.686 Q2167.1 268.891 2168.41 269.506 Q2169.76 270.121 2170.95 271.474 Q2172.14 272.826 2172.88 274.794 Q2173.37 273.851 2174.03 272.949 Q2174.72 272.048 2175.79 270.941 Q2176.9 269.793 2178.41 269.137 Q2179.97 268.441 2181.69 268.441 Q2183.37 268.441 2185.01 268.891 Q2186.65 269.301 2188.05 270.654 Q2189.48 271.966 2189.48 273.974 Z" fill="#000000" fill-rule="evenodd" fill-opacity="1" /><polyline clip-path="url(#clip730)" style="stroke:#0000ff; stroke-linecap:round; stroke-linejoin:round; stroke-width:10; stroke-opacity:1; fill:none" points="
  1813.04,423.676 1959.45,423.676 
  "/>
<path clip-path="url(#clip730)" d="M2049.82 351.632 L2048.79 353.313 Q2042.44 350.567 2034.53 346.181 Q2026.62 350.567 2020.26 353.313 L2019.28 351.632 Q2026.21 345.607 2034.53 340.975 Q2042.93 345.648 2049.82 351.632 Z" fill="#000000" fill-rule="evenodd" fill-opacity="1" /><path clip-path="url(#clip730)" d="M2069.46 383.893 Q2069.46 390.452 2064.6 396.483 Q2059.8 402.514 2051.95 406.203 Q2044.17 409.834 2035.79 409.834 L2015.41 409.834 L2007.98 439.814 Q2007.92 439.99 2007.74 440.751 Q2007.57 441.454 2007.57 441.864 Q2007.57 443.328 2009.38 443.679 Q2011.26 444.03 2015.41 444.03 Q2018.11 444.03 2018.52 444.499 Q2018.75 444.792 2018.75 445.319 Q2018.75 446.138 2018.52 446.724 Q2018.28 447.251 2017.82 447.427 Q2017.41 447.602 2017.11 447.661 Q2016.82 447.719 2016.35 447.719 Q2015.12 447.719 2012.49 447.602 Q2009.91 447.485 2008.56 447.485 L2000.89 447.368 L1985.67 447.719 Q1983.85 447.719 1983.85 446.256 Q1983.85 445.143 1984.32 444.675 Q1984.79 444.148 1985.32 444.089 Q1985.84 444.03 1987.19 444.03 Q1990.12 444.03 1991.88 443.855 Q1993.63 443.679 1994.74 443.445 Q1995.92 443.152 1996.5 442.332 Q1997.15 441.512 1997.44 440.81 Q1997.73 440.049 1998.14 438.35 L2014.18 373.939 Q2014.65 372.006 2014.65 371.714 Q2014.65 370.718 2014.07 370.367 Q2013.54 369.957 2012.02 369.781 Q2009.09 369.547 2006.87 369.547 Q2005.4 369.547 2004.82 369.488 Q2004.29 369.43 2003.82 369.137 Q2003.41 368.786 2003.41 368.083 Q2003.41 366.971 2003.88 366.502 Q2004.41 365.975 2004.99 365.917 Q2005.58 365.799 2006.98 365.799 L2045.86 365.799 Q2057.05 365.799 2063.25 371.128 Q2069.46 376.457 2069.46 383.893 M2058.34 381.024 Q2058.34 369.547 2042 369.547 L2030.52 369.547 Q2026.72 369.547 2025.78 370.25 Q2024.84 370.894 2024.02 374.114 L2015.88 406.73 L2032.81 406.73 Q2044.17 406.73 2051.25 400.348 Q2054.47 397.42 2056.4 391.33 Q2058.34 385.24 2058.34 381.024 Z" fill="#000000" fill-rule="evenodd" fill-opacity="1" /><path clip-path="url(#clip730)" d="M2142.47 428.767 Q2142.47 429.3 2142.34 429.628 Q2142.26 429.956 2141.93 430.12 Q2141.65 430.243 2141.44 430.284 Q2141.28 430.325 2140.79 430.366 Q2138.78 430.53 2137.1 431.062 Q2135.42 431.554 2133.98 432.538 Q2132.59 433.522 2131.81 434.178 Q2131.07 434.833 2129.76 436.145 L2128.61 437.334 L2107.79 461.231 Q2107.05 462.05 2106.6 463.854 L2103.65 475.7 Q2102.5 480.618 2102.5 480.987 Q2102.5 481.725 2102.91 481.971 Q2103.36 482.176 2104.76 482.299 L2107.95 482.504 Q2109.84 482.504 2110.13 482.832 Q2110.29 483.037 2110.29 483.406 Q2110.29 484.185 2109.96 484.594 Q2109.68 484.963 2109.39 485.045 Q2109.14 485.086 2108.69 485.086 L2097.95 484.84 L2087.38 485.086 Q2086.19 485.086 2086.19 484.144 Q2086.19 483.529 2086.27 483.201 Q2086.39 482.832 2086.76 482.709 Q2087.13 482.545 2087.42 482.545 Q2087.71 482.504 2088.48 482.504 Q2090.37 482.463 2091.31 482.463 Q2092.3 482.422 2093.24 482.176 Q2094.18 481.93 2094.51 481.766 Q2094.88 481.561 2095.29 480.864 Q2095.74 480.127 2095.86 479.553 Q2096.03 478.979 2096.35 477.544 Q2096.68 476.274 2098.4 469.346 Q2100.13 462.419 2100.13 462.255 Q2100.13 461.804 2099.8 460.821 L2089.47 433.194 Q2089.02 431.964 2088.65 431.472 Q2088.28 430.98 2087.05 430.694 Q2085.82 430.366 2083.36 430.366 Q2082.66 430.366 2082.34 430.325 Q2082.01 430.284 2081.72 430.079 Q2081.43 429.874 2081.43 429.423 Q2081.43 428.644 2081.76 428.275 Q2082.09 427.865 2082.34 427.824 Q2082.62 427.742 2083.03 427.742 Q2084.06 427.742 2087.71 427.865 Q2091.35 427.988 2092.42 427.988 L2102.99 427.742 Q2104.27 427.742 2104.27 428.685 Q2104.27 429.833 2103.81 430.12 Q2103.36 430.366 2102.26 430.366 Q2097.3 430.366 2097.3 432.374 Q2097.3 432.62 2097.79 433.809 L2107.01 458.73 L2126.48 436.309 L2126.77 435.981 Q2127.01 435.653 2127.22 435.407 Q2127.42 435.161 2127.75 434.71 Q2128.08 434.26 2128.24 433.891 Q2128.45 433.522 2128.61 433.071 Q2128.78 432.62 2128.78 432.292 Q2128.78 431.677 2128.41 431.267 Q2128.04 430.816 2127.47 430.653 Q2126.89 430.489 2126.48 430.448 Q2126.07 430.366 2125.74 430.366 Q2124.47 430.366 2124.47 429.341 Q2124.47 428.603 2124.8 428.234 Q2125.13 427.824 2125.37 427.783 Q2125.66 427.742 2126.07 427.742 Q2127.42 427.742 2130.25 427.865 Q2133.08 427.988 2134.47 427.988 Q2135.62 427.988 2137.96 427.865 Q2140.29 427.742 2141.36 427.742 Q2142.47 427.742 2142.47 428.767 Z" fill="#000000" fill-rule="evenodd" fill-opacity="1" /><path clip-path="url(#clip730)" d="M2155.58 503.49 L2155.58 425.324 Q2155.58 422.209 2157.26 422.209 Q2158.94 422.209 2158.94 424.709 L2158.94 502.876 Q2158.94 505.991 2157.26 505.991 Q2155.58 505.991 2155.58 503.49 Z" fill="#000000" fill-rule="evenodd" fill-opacity="1" /><path clip-path="url(#clip730)" d="M2212.21 453.525 Q2212.21 455.82 2210.78 457.132 Q2209.35 458.402 2207.71 458.402 Q2206.15 458.402 2205.33 457.501 Q2204.51 456.599 2204.51 455.451 Q2204.51 453.893 2205.66 452.541 Q2206.8 451.188 2208.53 450.901 Q2206.85 449.836 2204.34 449.836 Q2202.71 449.836 2201.27 450.696 Q2199.88 451.557 2199.02 452.664 Q2198.2 453.77 2197.46 455.369 Q2196.76 456.927 2196.47 457.869 Q2196.23 458.771 2196.02 459.755 L2193.15 471.232 Q2191.76 476.684 2191.76 478.61 Q2191.76 480.987 2192.91 482.586 Q2194.06 484.144 2196.35 484.144 Q2197.25 484.144 2198.28 483.898 Q2199.3 483.611 2200.61 482.873 Q2201.97 482.094 2203.16 480.946 Q2204.39 479.758 2205.57 477.749 Q2206.76 475.741 2207.54 473.158 Q2207.79 472.257 2208.61 472.257 Q2209.63 472.257 2209.63 473.076 Q2209.63 473.773 2209.06 475.249 Q2208.53 476.684 2207.34 478.569 Q2206.19 480.414 2204.67 482.094 Q2203.16 483.734 2200.9 484.881 Q2198.65 486.029 2196.19 486.029 Q2192.66 486.029 2190.33 484.144 Q2187.99 482.258 2187.13 479.635 Q2186.92 480.004 2186.64 480.496 Q2186.35 480.987 2185.49 482.094 Q2184.67 483.16 2183.73 483.98 Q2182.78 484.758 2181.31 485.373 Q2179.87 486.029 2178.32 486.029 Q2176.35 486.029 2174.59 485.455 Q2172.87 484.881 2171.64 483.57 Q2170.41 482.258 2170.41 480.455 Q2170.41 478.446 2171.76 477.052 Q2173.15 475.618 2175.04 475.618 Q2176.23 475.618 2177.17 476.315 Q2178.15 477.011 2178.15 478.528 Q2178.15 480.209 2177 481.479 Q2175.86 482.75 2174.22 483.078 Q2175.9 484.144 2178.4 484.144 Q2181.1 484.144 2183.24 481.766 Q2185.37 479.389 2186.39 475.413 Q2188.93 465.862 2189.92 461.599 Q2190.9 457.296 2190.9 455.451 Q2190.9 453.73 2190.45 452.541 Q2190 451.352 2189.22 450.819 Q2188.48 450.245 2187.79 450.04 Q2187.13 449.836 2186.39 449.836 Q2185.16 449.836 2183.77 450.327 Q2182.42 450.819 2180.78 451.967 Q2179.18 453.074 2177.66 455.369 Q2176.14 457.664 2175.12 460.821 Q2174.91 461.763 2174.01 461.763 Q2173.03 461.722 2173.03 460.903 Q2173.03 460.206 2173.56 458.771 Q2174.14 457.296 2175.28 455.451 Q2176.47 453.607 2177.99 451.967 Q2179.55 450.286 2181.8 449.139 Q2184.1 447.991 2186.56 447.991 Q2187.66 447.991 2188.73 448.237 Q2189.83 448.442 2191.15 449.057 Q2192.5 449.672 2193.69 451.024 Q2194.88 452.377 2195.61 454.344 Q2196.11 453.402 2196.76 452.5 Q2197.46 451.598 2198.52 450.491 Q2199.63 449.344 2201.15 448.688 Q2202.71 447.991 2204.43 447.991 Q2206.11 447.991 2207.75 448.442 Q2209.39 448.852 2210.78 450.204 Q2212.21 451.516 2212.21 453.525 Z" fill="#000000" fill-rule="evenodd" fill-opacity="1" /></svg>
