<?xml version="1.0" encoding="utf-8"?>
<svg xmlns="http://www.w3.org/2000/svg" xmlns:xlink="http://www.w3.org/1999/xlink" width="600" height="400" viewBox="0 0 2400 1600">
<defs>
  <clipPath id="clip800">
    <rect x="0" y="0" width="2400" height="1600"/>
  </clipPath>
</defs>
<path clip-path="url(#clip800)" d="
M0 1600 L2400 1600 L2400 0 L0 0  Z
  " fill="#ffffff" fill-rule="evenodd" fill-opacity="1"/>
<defs>
  <clipPath id="clip801">
    <rect x="480" y="0" width="1681" height="1600"/>
  </clipPath>
</defs>
<defs>
  <clipPath id="clip802">
    <rect x="382" y="47" width="1971" height="1308"/>
  </clipPath>
</defs>
<path clip-path="url(#clip800)" d="
M382.644 1354.06 L2352.76 1354.06 L2352.76 47.2441 L382.644 47.2441  Z
  " fill="#ffffff" fill-rule="evenodd" fill-opacity="1"/>
<polyline clip-path="url(#clip802)" style="stroke:#000000; stroke-linecap:round; stroke-linejoin:round; stroke-width:2; stroke-opacity:0.1; fill:none" points="
  438.402,1354.06 438.402,47.2441 
  "/>
<polyline clip-path="url(#clip802)" style="stroke:#000000; stroke-linecap:round; stroke-linejoin:round; stroke-width:2; stroke-opacity:0.1; fill:none" points="
  624.261,1354.06 624.261,47.2441 
  "/>
<polyline clip-path="url(#clip802)" style="stroke:#000000; stroke-linecap:round; stroke-linejoin:round; stroke-width:2; stroke-opacity:0.1; fill:none" points="
  810.121,1354.06 810.121,47.2441 
  "/>
<polyline clip-path="url(#clip802)" style="stroke:#000000; stroke-linecap:round; stroke-linejoin:round; stroke-width:2; stroke-opacity:0.1; fill:none" points="
  995.981,1354.06 995.981,47.2441 
  "/>
<polyline clip-path="url(#clip802)" style="stroke:#000000; stroke-linecap:round; stroke-linejoin:round; stroke-width:2; stroke-opacity:0.1; fill:none" points="
  1181.84,1354.06 1181.84,47.2441 
  "/>
<polyline clip-path="url(#clip802)" style="stroke:#000000; stroke-linecap:round; stroke-linejoin:round; stroke-width:2; stroke-opacity:0.1; fill:none" points="
  1367.7,1354.06 1367.7,47.2441 
  "/>
<polyline clip-path="url(#clip802)" style="stroke:#000000; stroke-linecap:round; stroke-linejoin:round; stroke-width:2; stroke-opacity:0.1; fill:none" points="
  1553.56,1354.06 1553.56,47.2441 
  "/>
<polyline clip-path="url(#clip802)" style="stroke:#000000; stroke-linecap:round; stroke-linejoin:round; stroke-width:2; stroke-opacity:0.1; fill:none" points="
  1739.42,1354.06 1739.42,47.2441 
  "/>
<polyline clip-path="url(#clip802)" style="stroke:#000000; stroke-linecap:round; stroke-linejoin:round; stroke-width:2; stroke-opacity:0.1; fill:none" points="
  1925.28,1354.06 1925.28,47.2441 
  "/>
<polyline clip-path="url(#clip802)" style="stroke:#000000; stroke-linecap:round; stroke-linejoin:round; stroke-width:2; stroke-opacity:0.1; fill:none" points="
  2111.14,1354.06 2111.14,47.2441 
  "/>
<polyline clip-path="url(#clip802)" style="stroke:#000000; stroke-linecap:round; stroke-linejoin:round; stroke-width:2; stroke-opacity:0.1; fill:none" points="
  2297,1354.06 2297,47.2441 
  "/>
<polyline clip-path="url(#clip800)" style="stroke:#000000; stroke-linecap:round; stroke-linejoin:round; stroke-width:4; stroke-opacity:1; fill:none" points="
  382.644,1354.06 2352.76,1354.06 
  "/>
<polyline clip-path="url(#clip800)" style="stroke:#000000; stroke-linecap:round; stroke-linejoin:round; stroke-width:4; stroke-opacity:1; fill:none" points="
  438.402,1354.06 438.402,1335.16 
  "/>
<polyline clip-path="url(#clip800)" style="stroke:#000000; stroke-linecap:round; stroke-linejoin:round; stroke-width:4; stroke-opacity:1; fill:none" points="
  624.261,1354.06 624.261,1335.16 
  "/>
<polyline clip-path="url(#clip800)" style="stroke:#000000; stroke-linecap:round; stroke-linejoin:round; stroke-width:4; stroke-opacity:1; fill:none" points="
  810.121,1354.06 810.121,1335.16 
  "/>
<polyline clip-path="url(#clip800)" style="stroke:#000000; stroke-linecap:round; stroke-linejoin:round; stroke-width:4; stroke-opacity:1; fill:none" points="
  995.981,1354.06 995.981,1335.16 
  "/>
<polyline clip-path="url(#clip800)" style="stroke:#000000; stroke-linecap:round; stroke-linejoin:round; stroke-width:4; stroke-opacity:1; fill:none" points="
  1181.84,1354.06 1181.84,1335.16 
  "/>
<polyline clip-path="url(#clip800)" style="stroke:#000000; stroke-linecap:round; stroke-linejoin:round; stroke-width:4; stroke-opacity:1; fill:none" points="
  1367.7,1354.06 1367.7,1335.16 
  "/>
<polyline clip-path="url(#clip800)" style="stroke:#000000; stroke-linecap:round; stroke-linejoin:round; stroke-width:4; stroke-opacity:1; fill:none" points="
  1553.56,1354.06 1553.56,1335.16 
  "/>
<polyline clip-path="url(#clip800)" style="stroke:#000000; stroke-linecap:round; stroke-linejoin:round; stroke-width:4; stroke-opacity:1; fill:none" points="
  1739.42,1354.06 1739.42,1335.16 
  "/>
<polyline clip-path="url(#clip800)" style="stroke:#000000; stroke-linecap:round; stroke-linejoin:round; stroke-width:4; stroke-opacity:1; fill:none" points="
  1925.28,1354.06 1925.28,1335.16 
  "/>
<polyline clip-path="url(#clip800)" style="stroke:#000000; stroke-linecap:round; stroke-linejoin:round; stroke-width:4; stroke-opacity:1; fill:none" points="
  2111.14,1354.06 2111.14,1335.16 
  "/>
<polyline clip-path="url(#clip800)" style="stroke:#000000; stroke-linecap:round; stroke-linejoin:round; stroke-width:4; stroke-opacity:1; fill:none" points="
  2297,1354.06 2297,1335.16 
  "/>
<path clip-path="url(#clip800)" d="M438.402 1395.23 Q431.631 1395.23 428.202 1401.92 Q424.817 1408.56 424.817 1421.92 Q424.817 1435.25 428.202 1441.93 Q431.631 1448.57 438.402 1448.57 Q445.216 1448.57 448.601 1441.93 Q452.03 1435.25 452.03 1421.92 Q452.03 1408.56 448.601 1401.92 Q445.216 1395.23 438.402 1395.23 M438.402 1388.29 Q449.296 1388.29 455.025 1396.93 Q460.797 1405.52 460.797 1421.92 Q460.797 1438.29 455.025 1446.92 Q449.296 1455.52 438.402 1455.52 Q427.508 1455.52 421.735 1446.92 Q416.006 1438.29 416.006 1421.92 Q416.006 1405.52 421.735 1396.93 Q427.508 1388.29 438.402 1388.29 Z" fill="#000000" fill-rule="evenodd" fill-opacity="1" /><path clip-path="url(#clip800)" d="M769.214 1395.23 Q762.443 1395.23 759.014 1401.92 Q755.629 1408.56 755.629 1421.92 Q755.629 1435.25 759.014 1441.93 Q762.443 1448.57 769.214 1448.57 Q776.028 1448.57 779.414 1441.93 Q782.842 1435.25 782.842 1421.92 Q782.842 1408.56 779.414 1401.92 Q776.028 1395.23 769.214 1395.23 M769.214 1388.29 Q780.108 1388.29 785.837 1396.93 Q791.61 1405.52 791.61 1421.92 Q791.61 1438.29 785.837 1446.92 Q780.108 1455.52 769.214 1455.52 Q758.32 1455.52 752.547 1446.92 Q746.818 1438.29 746.818 1421.92 Q746.818 1405.52 752.547 1396.93 Q758.32 1388.29 769.214 1388.29 Z" fill="#000000" fill-rule="evenodd" fill-opacity="1" /><path clip-path="url(#clip800)" d="M807.018 1443.24 L816.176 1443.24 L816.176 1454.26 L807.018 1454.26 L807.018 1443.24 Z" fill="#000000" fill-rule="evenodd" fill-opacity="1" /><path clip-path="url(#clip800)" d="M842.825 1446.88 L873.424 1446.88 L873.424 1454.26 L832.278 1454.26 L832.278 1446.88 Q837.269 1441.72 845.863 1433.04 Q854.5 1424.31 856.714 1421.79 Q860.924 1417.06 862.573 1413.81 Q864.266 1410.51 864.266 1407.34 Q864.266 1402.18 860.62 1398.92 Q857.017 1395.67 851.201 1395.67 Q847.078 1395.67 842.478 1397.1 Q837.92 1398.53 832.712 1401.44 L832.712 1392.58 Q838.007 1390.46 842.608 1389.37 Q847.208 1388.29 851.028 1388.29 Q861.097 1388.29 867.087 1393.32 Q873.076 1398.36 873.076 1406.78 Q873.076 1410.77 871.557 1414.37 Q870.082 1417.93 866.132 1422.79 Q865.047 1424.05 859.231 1430.08 Q853.415 1436.07 842.825 1446.88 Z" fill="#000000" fill-rule="evenodd" fill-opacity="1" /><path clip-path="url(#clip800)" d="M1138.98 1395.23 Q1132.21 1395.23 1128.78 1401.92 Q1125.4 1408.56 1125.4 1421.92 Q1125.4 1435.25 1128.78 1441.93 Q1132.21 1448.57 1138.98 1448.57 Q1145.79 1448.57 1149.18 1441.93 Q1152.61 1435.25 1152.61 1421.92 Q1152.61 1408.56 1149.18 1401.92 Q1145.79 1395.23 1138.98 1395.23 M1138.98 1388.29 Q1149.87 1388.29 1155.6 1396.93 Q1161.38 1405.52 1161.38 1421.92 Q1161.38 1438.29 1155.6 1446.92 Q1149.87 1455.52 1138.98 1455.52 Q1128.09 1455.52 1122.31 1446.92 Q1116.58 1438.29 1116.58 1421.92 Q1116.58 1405.52 1122.31 1396.93 Q1128.09 1388.29 1138.98 1388.29 Z" fill="#000000" fill-rule="evenodd" fill-opacity="1" /><path clip-path="url(#clip800)" d="M1176.78 1443.24 L1185.94 1443.24 L1185.94 1454.26 L1176.78 1454.26 L1176.78 1443.24 Z" fill="#000000" fill-rule="evenodd" fill-opacity="1" /><path clip-path="url(#clip800)" d="M1229.13 1397.1 L1206.99 1431.69 L1229.13 1431.69 L1229.13 1397.1 M1226.83 1389.46 L1237.85 1389.46 L1237.85 1431.69 L1247.1 1431.69 L1247.1 1438.98 L1237.85 1438.98 L1237.85 1454.26 L1229.13 1454.26 L1229.13 1438.98 L1199.87 1438.98 L1199.87 1430.52 L1226.83 1389.46 Z" fill="#000000" fill-rule="evenodd" fill-opacity="1" /><path clip-path="url(#clip800)" d="M1511 1395.23 Q1504.23 1395.23 1500.8 1401.92 Q1497.42 1408.56 1497.42 1421.92 Q1497.42 1435.25 1500.8 1441.93 Q1504.23 1448.57 1511 1448.57 Q1517.82 1448.57 1521.2 1441.93 Q1524.63 1435.25 1524.63 1421.92 Q1524.63 1408.56 1521.2 1401.92 Q1517.82 1395.23 1511 1395.23 M1511 1388.29 Q1521.9 1388.29 1527.63 1396.93 Q1533.4 1405.52 1533.4 1421.92 Q1533.4 1438.29 1527.63 1446.92 Q1521.9 1455.52 1511 1455.52 Q1500.11 1455.52 1494.34 1446.92 Q1488.61 1438.29 1488.61 1421.92 Q1488.61 1405.52 1494.34 1396.93 Q1500.11 1388.29 1511 1388.29 Z" fill="#000000" fill-rule="evenodd" fill-opacity="1" /><path clip-path="url(#clip800)" d="M1548.81 1443.24 L1557.96 1443.24 L1557.96 1454.26 L1548.81 1454.26 L1548.81 1443.24 Z" fill="#000000" fill-rule="evenodd" fill-opacity="1" /><path clip-path="url(#clip800)" d="M1596.9 1418.37 Q1590.99 1418.37 1587.52 1422.4 Q1584.09 1426.44 1584.09 1433.47 Q1584.09 1440.46 1587.52 1444.54 Q1590.99 1448.57 1596.9 1448.57 Q1602.8 1448.57 1606.23 1444.54 Q1609.7 1440.46 1609.7 1433.47 Q1609.7 1426.44 1606.23 1422.4 Q1602.8 1418.37 1596.9 1418.37 M1614.3 1390.89 L1614.3 1398.88 Q1611 1397.32 1607.62 1396.49 Q1604.28 1395.67 1600.98 1395.67 Q1592.3 1395.67 1587.7 1401.53 Q1583.14 1407.39 1582.49 1419.23 Q1585.05 1415.46 1588.91 1413.46 Q1592.77 1411.42 1597.42 1411.42 Q1607.18 1411.42 1612.83 1417.37 Q1618.51 1423.27 1618.51 1433.47 Q1618.51 1443.45 1612.61 1449.49 Q1606.71 1455.52 1596.9 1455.52 Q1585.66 1455.52 1579.71 1446.92 Q1573.76 1438.29 1573.76 1421.92 Q1573.76 1406.56 1581.05 1397.45 Q1588.35 1388.29 1600.63 1388.29 Q1603.93 1388.29 1607.27 1388.94 Q1610.66 1389.59 1614.3 1390.89 Z" fill="#000000" fill-rule="evenodd" fill-opacity="1" /><path clip-path="url(#clip800)" d="M1882.96 1395.23 Q1876.19 1395.23 1872.76 1401.92 Q1869.38 1408.56 1869.38 1421.92 Q1869.38 1435.25 1872.76 1441.93 Q1876.19 1448.57 1882.96 1448.57 Q1889.78 1448.57 1893.16 1441.93 Q1896.59 1435.25 1896.59 1421.92 Q1896.59 1408.56 1893.16 1401.92 Q1889.78 1395.23 1882.96 1395.23 M1882.96 1388.29 Q1893.86 1388.29 1899.58 1396.93 Q1905.36 1405.52 1905.36 1421.92 Q1905.36 1438.29 1899.58 1446.92 Q1893.86 1455.52 1882.96 1455.52 Q1872.07 1455.52 1866.29 1446.92 Q1860.57 1438.29 1860.57 1421.92 Q1860.57 1405.52 1866.29 1396.93 Q1872.07 1388.29 1882.96 1388.29 Z" fill="#000000" fill-rule="evenodd" fill-opacity="1" /><path clip-path="url(#clip800)" d="M1920.76 1443.24 L1929.92 1443.24 L1929.92 1454.26 L1920.76 1454.26 L1920.76 1443.24 Z" fill="#000000" fill-rule="evenodd" fill-opacity="1" /><path clip-path="url(#clip800)" d="M1967.77 1423.49 Q1961.52 1423.49 1957.92 1426.83 Q1954.36 1430.17 1954.36 1436.03 Q1954.36 1441.89 1957.92 1445.23 Q1961.52 1448.57 1967.77 1448.57 Q1974.02 1448.57 1977.62 1445.23 Q1981.22 1441.85 1981.22 1436.03 Q1981.22 1430.17 1977.62 1426.83 Q1974.06 1423.49 1967.77 1423.49 M1959 1419.75 Q1953.36 1418.37 1950.19 1414.5 Q1947.07 1410.64 1947.07 1405.08 Q1947.07 1397.32 1952.58 1392.8 Q1958.13 1388.29 1967.77 1388.29 Q1977.45 1388.29 1982.96 1392.8 Q1988.47 1397.32 1988.47 1405.08 Q1988.47 1410.64 1985.3 1414.5 Q1982.18 1418.37 1976.58 1419.75 Q1982.92 1421.23 1986.43 1425.53 Q1989.99 1429.82 1989.99 1436.03 Q1989.99 1445.45 1984.22 1450.48 Q1978.49 1455.52 1967.77 1455.52 Q1957.05 1455.52 1951.28 1450.48 Q1945.55 1445.45 1945.55 1436.03 Q1945.55 1429.82 1949.11 1425.53 Q1952.67 1421.23 1959 1419.75 M1955.79 1405.91 Q1955.79 1410.94 1958.92 1413.77 Q1962.08 1416.59 1967.77 1416.59 Q1973.41 1416.59 1976.58 1413.77 Q1979.79 1410.94 1979.79 1405.91 Q1979.79 1400.87 1976.58 1398.05 Q1973.41 1395.23 1967.77 1395.23 Q1962.08 1395.23 1958.92 1398.05 Q1955.79 1400.87 1955.79 1405.91 Z" fill="#000000" fill-rule="evenodd" fill-opacity="1" /><path clip-path="url(#clip800)" d="M2278.96 1446.88 L2293.29 1446.88 L2293.29 1397.45 L2277.71 1400.57 L2277.71 1392.58 L2293.2 1389.46 L2301.97 1389.46 L2301.97 1446.88 L2316.29 1446.88 L2316.29 1454.26 L2278.96 1454.26 L2278.96 1446.88 Z" fill="#000000" fill-rule="evenodd" fill-opacity="1" /><path clip-path="url(#clip800)" d="M1393.47 1519.59 Q1393.47 1522.87 1391.42 1524.74 Q1389.37 1526.56 1387.03 1526.56 Q1384.8 1526.56 1383.63 1525.27 Q1382.46 1523.98 1382.46 1522.34 Q1382.46 1520.12 1384.1 1518.18 Q1385.74 1516.25 1388.2 1515.84 Q1385.8 1514.32 1382.23 1514.32 Q1379.88 1514.32 1377.83 1515.55 Q1375.84 1516.78 1374.61 1518.36 Q1373.44 1519.94 1372.39 1522.22 Q1371.39 1524.45 1370.98 1525.8 Q1370.63 1527.08 1370.34 1528.49 L1366.24 1544.89 Q1364.25 1552.67 1364.25 1555.43 Q1364.25 1558.82 1365.89 1561.11 Q1367.53 1563.33 1370.81 1563.33 Q1372.1 1563.33 1373.56 1562.98 Q1375.02 1562.57 1376.9 1561.52 Q1378.83 1560.4 1380.53 1558.76 Q1382.28 1557.07 1383.98 1554.2 Q1385.68 1551.33 1386.79 1547.64 Q1387.14 1546.35 1388.32 1546.35 Q1389.78 1546.35 1389.78 1547.52 Q1389.78 1548.52 1388.96 1550.62 Q1388.2 1552.67 1386.5 1555.37 Q1384.86 1558 1382.69 1560.4 Q1380.53 1562.75 1377.31 1564.39 Q1374.09 1566.02 1370.57 1566.02 Q1365.54 1566.02 1362.2 1563.33 Q1358.86 1560.64 1357.63 1556.89 Q1357.34 1557.42 1356.93 1558.12 Q1356.52 1558.82 1355.29 1560.4 Q1354.12 1561.93 1352.77 1563.1 Q1351.43 1564.21 1349.32 1565.09 Q1347.27 1566.02 1345.04 1566.02 Q1342.23 1566.02 1339.71 1565.2 Q1337.25 1564.39 1335.5 1562.51 Q1333.74 1560.64 1333.74 1558.06 Q1333.74 1555.19 1335.67 1553.2 Q1337.66 1551.15 1340.36 1551.15 Q1342.06 1551.15 1343.4 1552.15 Q1344.81 1553.14 1344.81 1555.31 Q1344.81 1557.71 1343.17 1559.53 Q1341.53 1561.34 1339.19 1561.81 Q1341.59 1563.33 1345.16 1563.33 Q1349.02 1563.33 1352.07 1559.93 Q1355.11 1556.54 1356.58 1550.86 Q1360.21 1537.22 1361.61 1531.13 Q1363.02 1524.98 1363.02 1522.34 Q1363.02 1519.88 1362.38 1518.18 Q1361.73 1516.49 1360.62 1515.73 Q1359.56 1514.91 1358.57 1514.61 Q1357.63 1514.32 1356.58 1514.32 Q1354.82 1514.32 1352.83 1515.02 Q1350.9 1515.73 1348.56 1517.36 Q1346.27 1518.95 1344.11 1522.22 Q1341.94 1525.5 1340.48 1530.01 Q1340.18 1531.36 1338.89 1531.36 Q1337.49 1531.3 1337.49 1530.13 Q1337.49 1529.13 1338.25 1527.08 Q1339.07 1524.98 1340.71 1522.34 Q1342.41 1519.71 1344.57 1517.36 Q1346.8 1514.96 1350.02 1513.32 Q1353.3 1511.68 1356.81 1511.68 Q1358.39 1511.68 1359.92 1512.04 Q1361.5 1512.33 1363.37 1513.21 Q1365.3 1514.09 1367 1516.02 Q1368.7 1517.95 1369.75 1520.76 Q1370.46 1519.41 1371.39 1518.13 Q1372.39 1516.84 1373.91 1515.26 Q1375.49 1513.62 1377.66 1512.68 Q1379.88 1511.68 1382.34 1511.68 Q1384.74 1511.68 1387.09 1512.33 Q1389.43 1512.91 1391.42 1514.85 Q1393.47 1516.72 1393.47 1519.59 Z" fill="#000000" fill-rule="evenodd" fill-opacity="1" /><polyline clip-path="url(#clip802)" style="stroke:#000000; stroke-linecap:round; stroke-linejoin:round; stroke-width:2; stroke-opacity:0.1; fill:none" points="
  382.644,1317.07 2352.76,1317.07 
  "/>
<polyline clip-path="url(#clip802)" style="stroke:#000000; stroke-linecap:round; stroke-linejoin:round; stroke-width:2; stroke-opacity:0.1; fill:none" points="
  382.644,1193.79 2352.76,1193.79 
  "/>
<polyline clip-path="url(#clip802)" style="stroke:#000000; stroke-linecap:round; stroke-linejoin:round; stroke-width:2; stroke-opacity:0.1; fill:none" points="
  382.644,1070.51 2352.76,1070.51 
  "/>
<polyline clip-path="url(#clip802)" style="stroke:#000000; stroke-linecap:round; stroke-linejoin:round; stroke-width:2; stroke-opacity:0.1; fill:none" points="
  382.644,947.221 2352.76,947.221 
  "/>
<polyline clip-path="url(#clip802)" style="stroke:#000000; stroke-linecap:round; stroke-linejoin:round; stroke-width:2; stroke-opacity:0.1; fill:none" points="
  382.644,823.936 2352.76,823.936 
  "/>
<polyline clip-path="url(#clip802)" style="stroke:#000000; stroke-linecap:round; stroke-linejoin:round; stroke-width:2; stroke-opacity:0.1; fill:none" points="
  382.644,700.652 2352.76,700.652 
  "/>
<polyline clip-path="url(#clip802)" style="stroke:#000000; stroke-linecap:round; stroke-linejoin:round; stroke-width:2; stroke-opacity:0.1; fill:none" points="
  382.644,577.367 2352.76,577.367 
  "/>
<polyline clip-path="url(#clip802)" style="stroke:#000000; stroke-linecap:round; stroke-linejoin:round; stroke-width:2; stroke-opacity:0.1; fill:none" points="
  382.644,454.083 2352.76,454.083 
  "/>
<polyline clip-path="url(#clip802)" style="stroke:#000000; stroke-linecap:round; stroke-linejoin:round; stroke-width:2; stroke-opacity:0.1; fill:none" points="
  382.644,330.798 2352.76,330.798 
  "/>
<polyline clip-path="url(#clip802)" style="stroke:#000000; stroke-linecap:round; stroke-linejoin:round; stroke-width:2; stroke-opacity:0.1; fill:none" points="
  382.644,207.514 2352.76,207.514 
  "/>
<polyline clip-path="url(#clip802)" style="stroke:#000000; stroke-linecap:round; stroke-linejoin:round; stroke-width:2; stroke-opacity:0.1; fill:none" points="
  382.644,84.2294 2352.76,84.2294 
  "/>
<polyline clip-path="url(#clip800)" style="stroke:#000000; stroke-linecap:round; stroke-linejoin:round; stroke-width:4; stroke-opacity:1; fill:none" points="
  382.644,1354.06 382.644,47.2441 
  "/>
<polyline clip-path="url(#clip800)" style="stroke:#000000; stroke-linecap:round; stroke-linejoin:round; stroke-width:4; stroke-opacity:1; fill:none" points="
  382.644,1317.07 401.541,1317.07 
  "/>
<polyline clip-path="url(#clip800)" style="stroke:#000000; stroke-linecap:round; stroke-linejoin:round; stroke-width:4; stroke-opacity:1; fill:none" points="
  382.644,1193.79 401.541,1193.79 
  "/>
<polyline clip-path="url(#clip800)" style="stroke:#000000; stroke-linecap:round; stroke-linejoin:round; stroke-width:4; stroke-opacity:1; fill:none" points="
  382.644,1070.51 401.541,1070.51 
  "/>
<polyline clip-path="url(#clip800)" style="stroke:#000000; stroke-linecap:round; stroke-linejoin:round; stroke-width:4; stroke-opacity:1; fill:none" points="
  382.644,947.221 401.541,947.221 
  "/>
<polyline clip-path="url(#clip800)" style="stroke:#000000; stroke-linecap:round; stroke-linejoin:round; stroke-width:4; stroke-opacity:1; fill:none" points="
  382.644,823.936 401.541,823.936 
  "/>
<polyline clip-path="url(#clip800)" style="stroke:#000000; stroke-linecap:round; stroke-linejoin:round; stroke-width:4; stroke-opacity:1; fill:none" points="
  382.644,700.652 401.541,700.652 
  "/>
<polyline clip-path="url(#clip800)" style="stroke:#000000; stroke-linecap:round; stroke-linejoin:round; stroke-width:4; stroke-opacity:1; fill:none" points="
  382.644,577.367 401.541,577.367 
  "/>
<polyline clip-path="url(#clip800)" style="stroke:#000000; stroke-linecap:round; stroke-linejoin:round; stroke-width:4; stroke-opacity:1; fill:none" points="
  382.644,454.083 401.541,454.083 
  "/>
<polyline clip-path="url(#clip800)" style="stroke:#000000; stroke-linecap:round; stroke-linejoin:round; stroke-width:4; stroke-opacity:1; fill:none" points="
  382.644,330.798 401.541,330.798 
  "/>
<polyline clip-path="url(#clip800)" style="stroke:#000000; stroke-linecap:round; stroke-linejoin:round; stroke-width:4; stroke-opacity:1; fill:none" points="
  382.644,207.514 401.541,207.514 
  "/>
<polyline clip-path="url(#clip800)" style="stroke:#000000; stroke-linecap:round; stroke-linejoin:round; stroke-width:4; stroke-opacity:1; fill:none" points="
  382.644,84.2294 401.541,84.2294 
  "/>
<path clip-path="url(#clip800)" d="M324.248 1290.45 Q317.477 1290.45 314.048 1297.13 Q310.663 1303.77 310.663 1317.14 Q310.663 1330.46 314.048 1337.15 Q317.477 1343.79 324.248 1343.79 Q331.062 1343.79 334.448 1337.15 Q337.876 1330.46 337.876 1317.14 Q337.876 1303.77 334.448 1297.13 Q331.062 1290.45 324.248 1290.45 M324.248 1283.5 Q335.142 1283.5 340.871 1292.14 Q346.644 1300.73 346.644 1317.14 Q346.644 1333.5 340.871 1342.14 Q335.142 1350.73 324.248 1350.73 Q313.354 1350.73 307.581 1342.14 Q301.852 1333.5 301.852 1317.14 Q301.852 1300.73 307.581 1292.14 Q313.354 1283.5 324.248 1283.5 Z" fill="#000000" fill-rule="evenodd" fill-opacity="1" /><path clip-path="url(#clip800)" d="M242.434 1043.88 Q235.663 1043.88 232.235 1050.56 Q228.849 1057.2 228.849 1070.57 Q228.849 1083.9 232.235 1090.58 Q235.663 1097.22 242.434 1097.22 Q249.248 1097.22 252.634 1090.58 Q256.063 1083.9 256.063 1070.57 Q256.063 1057.2 252.634 1050.56 Q249.248 1043.88 242.434 1043.88 M242.434 1036.93 Q253.328 1036.93 259.057 1045.57 Q264.83 1054.16 264.83 1070.57 Q264.83 1086.93 259.057 1095.57 Q253.328 1104.16 242.434 1104.16 Q231.54 1104.16 225.768 1095.57 Q220.039 1086.93 220.039 1070.57 Q220.039 1054.16 225.768 1045.57 Q231.54 1036.93 242.434 1036.93 Z" fill="#000000" fill-rule="evenodd" fill-opacity="1" /><path clip-path="url(#clip800)" d="M280.238 1091.88 L289.396 1091.88 L289.396 1102.91 L280.238 1102.91 L280.238 1091.88 Z" fill="#000000" fill-rule="evenodd" fill-opacity="1" /><path clip-path="url(#clip800)" d="M316.045 1095.53 L346.644 1095.53 L346.644 1102.91 L305.498 1102.91 L305.498 1095.53 Q310.489 1090.36 319.083 1081.68 Q327.72 1072.96 329.934 1070.44 Q334.144 1065.71 335.793 1062.45 Q337.486 1059.16 337.486 1055.99 Q337.486 1050.82 333.84 1047.57 Q330.238 1044.31 324.422 1044.31 Q320.298 1044.31 315.698 1045.74 Q311.14 1047.18 305.932 1050.08 L305.932 1041.23 Q311.227 1039.1 315.828 1038.02 Q320.429 1036.93 324.248 1036.93 Q334.317 1036.93 340.307 1041.97 Q346.297 1047 346.297 1055.42 Q346.297 1059.42 344.777 1063.02 Q343.302 1066.58 339.352 1071.44 Q338.267 1072.7 332.451 1078.73 Q326.635 1084.72 316.045 1095.53 Z" fill="#000000" fill-rule="evenodd" fill-opacity="1" /><path clip-path="url(#clip800)" d="M238.528 797.309 Q231.757 797.309 228.328 803.993 Q224.943 810.634 224.943 824.002 Q224.943 837.326 228.328 844.01 Q231.757 850.651 238.528 850.651 Q245.342 850.651 248.728 844.01 Q252.156 837.326 252.156 824.002 Q252.156 810.634 248.728 803.993 Q245.342 797.309 238.528 797.309 M238.528 790.365 Q249.422 790.365 255.151 799.002 Q260.924 807.595 260.924 824.002 Q260.924 840.364 255.151 849.001 Q249.422 857.595 238.528 857.595 Q227.634 857.595 221.861 849.001 Q216.132 840.364 216.132 824.002 Q216.132 807.595 221.861 799.002 Q227.634 790.365 238.528 790.365 Z" fill="#000000" fill-rule="evenodd" fill-opacity="1" /><path clip-path="url(#clip800)" d="M276.332 845.312 L285.49 845.312 L285.49 856.336 L276.332 856.336 L276.332 845.312 Z" fill="#000000" fill-rule="evenodd" fill-opacity="1" /><path clip-path="url(#clip800)" d="M328.675 799.175 L306.54 833.767 L328.675 833.767 L328.675 799.175 M326.375 791.536 L337.399 791.536 L337.399 833.767 L346.644 833.767 L346.644 841.059 L337.399 841.059 L337.399 856.336 L328.675 856.336 L328.675 841.059 L299.422 841.059 L299.422 832.595 L326.375 791.536 Z" fill="#000000" fill-rule="evenodd" fill-opacity="1" /><path clip-path="url(#clip800)" d="M239.136 550.74 Q232.365 550.74 228.936 557.424 Q225.551 564.065 225.551 577.433 Q225.551 590.757 228.936 597.441 Q232.365 604.082 239.136 604.082 Q245.95 604.082 249.335 597.441 Q252.764 590.757 252.764 577.433 Q252.764 564.065 249.335 557.424 Q245.95 550.74 239.136 550.74 M239.136 543.796 Q250.03 543.796 255.759 552.433 Q261.531 561.026 261.531 577.433 Q261.531 593.795 255.759 602.432 Q250.03 611.026 239.136 611.026 Q228.242 611.026 222.469 602.432 Q216.74 593.795 216.74 577.433 Q216.74 561.026 222.469 552.433 Q228.242 543.796 239.136 543.796 Z" fill="#000000" fill-rule="evenodd" fill-opacity="1" /><path clip-path="url(#clip800)" d="M276.939 598.743 L286.097 598.743 L286.097 609.767 L276.939 609.767 L276.939 598.743 Z" fill="#000000" fill-rule="evenodd" fill-opacity="1" /><path clip-path="url(#clip800)" d="M325.029 573.874 Q319.127 573.874 315.654 577.91 Q312.226 581.946 312.226 588.978 Q312.226 595.965 315.654 600.045 Q319.127 604.082 325.029 604.082 Q330.932 604.082 334.361 600.045 Q337.833 595.965 337.833 588.978 Q337.833 581.946 334.361 577.91 Q330.932 573.874 325.029 573.874 M342.434 546.4 L342.434 554.386 Q339.135 552.823 335.75 551.999 Q332.408 551.174 329.109 551.174 Q320.429 551.174 315.828 557.033 Q311.271 562.893 310.62 574.742 Q313.18 570.966 317.043 568.969 Q320.906 566.929 325.55 566.929 Q335.316 566.929 340.958 572.875 Q346.644 578.778 346.644 588.978 Q346.644 598.96 340.741 604.993 Q334.838 611.026 325.029 611.026 Q313.788 611.026 307.842 602.432 Q301.896 593.795 301.896 577.433 Q301.896 562.068 309.187 552.954 Q316.479 543.796 328.762 543.796 Q332.06 543.796 335.402 544.447 Q338.788 545.098 342.434 546.4 Z" fill="#000000" fill-rule="evenodd" fill-opacity="1" /><path clip-path="url(#clip800)" d="M239.613 304.171 Q232.842 304.171 229.413 310.855 Q226.028 317.496 226.028 330.864 Q226.028 344.188 229.413 350.872 Q232.842 357.513 239.613 357.513 Q246.427 357.513 249.813 350.872 Q253.241 344.188 253.241 330.864 Q253.241 317.496 249.813 310.855 Q246.427 304.171 239.613 304.171 M239.613 297.227 Q250.507 297.227 256.236 305.864 Q262.009 314.457 262.009 330.864 Q262.009 347.226 256.236 355.863 Q250.507 364.457 239.613 364.457 Q228.719 364.457 222.946 355.863 Q217.217 347.226 217.217 330.864 Q217.217 314.457 222.946 305.864 Q228.719 297.227 239.613 297.227 Z" fill="#000000" fill-rule="evenodd" fill-opacity="1" /><path clip-path="url(#clip800)" d="M277.417 352.174 L286.575 352.174 L286.575 363.198 L277.417 363.198 L277.417 352.174 Z" fill="#000000" fill-rule="evenodd" fill-opacity="1" /><path clip-path="url(#clip800)" d="M324.422 332.426 Q318.172 332.426 314.569 335.768 Q311.01 339.11 311.01 344.969 Q311.01 350.829 314.569 354.171 Q318.172 357.513 324.422 357.513 Q330.672 357.513 334.274 354.171 Q337.876 350.785 337.876 344.969 Q337.876 339.11 334.274 335.768 Q330.715 332.426 324.422 332.426 M315.654 328.693 Q310.012 327.305 306.844 323.442 Q303.719 319.579 303.719 314.023 Q303.719 306.254 309.231 301.74 Q314.786 297.227 324.422 297.227 Q334.1 297.227 339.613 301.74 Q345.125 306.254 345.125 314.023 Q345.125 319.579 341.956 323.442 Q338.831 327.305 333.232 328.693 Q339.569 330.169 343.085 334.466 Q346.644 338.763 346.644 344.969 Q346.644 354.388 340.871 359.422 Q335.142 364.457 324.422 364.457 Q313.701 364.457 307.929 359.422 Q302.2 354.388 302.2 344.969 Q302.2 338.763 305.759 334.466 Q309.318 330.169 315.654 328.693 M312.443 314.848 Q312.443 319.883 315.568 322.704 Q318.736 325.525 324.422 325.525 Q330.064 325.525 333.232 322.704 Q336.444 319.883 336.444 314.848 Q336.444 309.813 333.232 306.992 Q330.064 304.171 324.422 304.171 Q318.736 304.171 315.568 306.992 Q312.443 309.813 312.443 314.848 Z" fill="#000000" fill-rule="evenodd" fill-opacity="1" /><path clip-path="url(#clip800)" d="M309.318 109.251 L323.64 109.251 L323.64 59.8155 L308.059 62.9405 L308.059 54.9544 L323.554 51.8294 L332.321 51.8294 L332.321 109.251 L346.644 109.251 L346.644 116.629 L309.318 116.629 L309.318 109.251 Z" fill="#000000" fill-rule="evenodd" fill-opacity="1" /><path clip-path="url(#clip800)" d="M93.9289 674.403 Q94.7487 674.403 96.681 674.93 L142.472 686.407 Q152.661 688.925 159.805 697.123 Q166.948 705.262 166.948 714.514 Q166.948 720.077 163.962 723.648 Q161.034 727.22 156.525 727.22 Q152.544 727.22 150.611 725.112 Q148.737 723.004 148.737 720.486 Q148.737 719.667 148.972 718.788 Q149.206 717.91 150.201 716.973 Q151.197 716.036 152.895 716.036 Q155.647 716.036 157.814 718.437 Q158.809 719.608 159.043 720.721 Q159.277 721.775 159.277 723.59 Q160.917 722.887 162.03 721.599 Q163.142 720.311 163.552 718.847 Q164.021 717.383 164.138 716.446 Q164.313 715.451 164.313 714.514 Q164.313 707.019 156.76 701.28 Q154.476 699.582 152.192 698.352 Q149.967 697.064 147.215 696.127 Q144.521 695.19 143.057 694.78 Q141.594 694.312 138.256 693.492 Q143.702 698.938 143.702 705.613 Q143.702 708.424 142.94 710.942 Q142.179 713.401 140.598 715.568 Q138.959 717.734 136.089 719.023 Q133.22 720.252 129.414 720.252 Q125.374 720.252 119.869 718.671 Q114.365 717.09 104.235 713.284 Q98.5548 711.235 95.8027 711.235 Q94.4559 711.235 93.6361 711.527 Q92.7578 711.82 92.465 712.406 Q92.1136 712.991 92.0551 713.343 Q91.9965 713.635 91.9965 714.221 Q91.9965 717.676 95.5099 720.896 Q99.0233 724.117 106.87 726.342 Q108.334 726.81 108.685 727.103 Q109.036 727.396 109.036 728.274 Q108.978 729.738 107.807 729.738 Q107.338 729.738 105.523 729.211 Q103.649 728.684 100.897 727.455 Q98.0864 726.166 95.5685 724.41 Q92.992 722.653 91.1767 719.901 Q89.3615 717.09 89.3615 713.87 Q89.3615 709.478 92.2308 706.784 Q95.0414 704.032 99.1989 704.032 Q100.897 704.032 102.42 704.501 Q103.883 704.911 107.807 706.433 Q123.617 712.581 131.346 712.581 Q133.22 712.581 134.801 712.289 Q136.324 711.937 137.846 711.176 Q139.31 710.415 140.188 708.892 Q141.008 707.311 141.008 705.145 Q141.008 702.393 139.72 699.816 Q138.373 697.181 136.558 695.542 Q134.742 693.843 133.22 692.848 Q131.639 691.794 130.819 691.56 L109.271 686.173 L99.6674 683.772 Q94.4559 682.659 93.1676 682.132 Q91.938 681.43 91.2939 680.2 Q90.6497 678.97 90.6497 677.916 Q90.6497 676.452 91.5281 675.457 Q92.4064 674.403 93.9289 674.403 Z" fill="#000000" fill-rule="evenodd" fill-opacity="1" /><path clip-path="url(#clip802)" d="
M438.402 1317.07 L457.175 1317.07 L475.949 1317.07 L494.723 1317.07 L513.496 1317.07 L532.27 1317.07 L551.044 1317.07 L569.818 1317.07 L588.591 1317.07 L607.365 1317.07 
  L626.139 1304.62 L644.912 1292.17 L663.686 1279.72 L682.46 1254.81 L701.233 1242.36 L720.007 1229.9 L738.781 1217.45 L757.555 1217.45 L776.328 1217.45 L795.102 1217.45 
  L813.876 1217.45 L832.649 1205 L851.423 1192.54 L870.197 1130.28 L888.97 1130.28 L907.744 1117.83 L926.518 1105.37 L945.292 1105.37 L964.065 1092.92 L982.839 1080.47 
  L1001.61 1080.47 L1020.39 1068.01 L1039.16 1055.56 L1057.93 1030.66 L1076.71 1005.75 L1095.48 893.673 L1114.25 893.673 L1133.03 893.673 L1151.8 1080.47 L1170.58 1092.92 
  L1189.35 1105.37 L1208.12 1105.37 L1226.9 1105.37 L1245.67 1105.37 L1264.44 1092.92 L1283.22 843.861 L1301.99 856.314 L1320.77 868.767 L1339.54 868.767 L1358.31 881.22 
  L1377.09 893.673 L1395.86 893.673 L1414.63 906.126 L1433.41 906.126 L1452.18 906.126 L1470.96 893.673 L1489.73 893.673 L1508.5 881.22 L1527.28 868.767 L1546.05 856.314 
  L1564.82 843.861 L1583.6 818.955 L1602.37 794.049 L1621.14 794.049 L1639.92 806.502 L1658.69 818.955 L1677.47 806.502 L1696.24 806.502 L1715.01 806.502 L1733.79 794.049 
  L1752.56 794.049 L1771.33 794.049 L1790.11 806.502 L1808.88 818.955 L1827.66 831.408 L1846.43 843.861 L1865.2 843.861 L1883.98 843.861 L1902.75 843.861 L1921.52 843.861 
  L1940.3 831.408 L1959.07 495.178 L1977.85 482.725 L1996.62 470.272 L2015.39 370.648 L2034.17 358.195 L2052.94 345.742 L2071.71 221.212 L2090.49 221.212 L2109.26 221.212 
  L2128.03 221.212 L2146.81 681.972 L2165.58 706.878 L2184.36 706.878 L2203.13 706.878 L2221.9 706.878 L2240.68 706.878 L2259.45 706.878 L2278.22 694.425 L2297 383.101 
  L2297 295.93 L2278.22 295.93 L2259.45 295.93 L2240.68 295.93 L2221.9 109.135 L2203.13 96.6824 L2184.36 96.6824 L2165.58 96.6824 L2146.81 96.6824 L2128.03 96.6824 
  L2109.26 96.6824 L2090.49 96.6824 L2071.71 96.6824 L2052.94 96.6824 L2034.17 96.6824 L2015.39 158.947 L1996.62 171.4 L1977.85 171.4 L1959.07 158.947 L1940.3 146.494 
  L1921.52 134.041 L1902.75 121.588 L1883.98 121.588 L1865.2 121.588 L1846.43 121.588 L1827.66 121.588 L1808.88 121.588 L1790.11 134.041 L1771.33 134.041 L1752.56 146.494 
  L1733.79 196.306 L1715.01 196.306 L1696.24 221.212 L1677.47 706.878 L1658.69 694.425 L1639.92 420.46 L1621.14 420.46 L1602.37 408.007 L1583.6 408.007 L1564.82 408.007 
  L1546.05 408.007 L1527.28 408.007 L1508.5 408.007 L1489.73 420.46 L1470.96 420.46 L1452.18 445.366 L1433.41 557.443 L1414.63 557.443 L1395.86 569.896 L1377.09 569.896 
  L1358.31 569.896 L1339.54 569.896 L1320.77 569.896 L1301.99 569.896 L1283.22 557.443 L1264.44 569.896 L1245.67 569.896 L1226.9 582.349 L1208.12 769.143 L1189.35 769.143 
  L1170.58 769.143 L1151.8 769.143 L1133.03 769.143 L1114.25 769.143 L1095.48 781.596 L1076.71 831.408 L1057.93 955.938 L1039.16 943.485 L1020.39 943.485 L1001.61 943.485 
  L982.839 955.938 L964.065 955.938 L945.292 955.938 L926.518 968.391 L907.744 980.844 L888.97 980.844 L870.197 993.297 L851.423 1005.75 L832.649 1005.75 L813.876 1018.2 
  L795.102 1030.66 L776.328 1030.66 L757.555 1043.11 L738.781 1043.11 L720.007 1055.56 L701.233 1068.01 L682.46 1092.92 L663.686 1117.83 L644.912 1142.73 L626.139 1155.19 
  L607.365 1167.64 L588.591 1180.09 L569.818 1192.54 L551.044 1192.54 L532.27 1205 L513.496 1205 L494.723 1217.45 L475.949 1217.45 L457.175 1229.9 L438.402 1242.36 
   Z
  " fill="#0000ff" fill-rule="evenodd" fill-opacity="0.1"/>
<polyline clip-path="url(#clip802)" style="stroke:#0000ff; stroke-linecap:round; stroke-linejoin:round; stroke-width:0; stroke-opacity:1; fill:none" points="
  438.402,1317.07 457.175,1317.07 475.949,1317.07 494.723,1317.07 513.496,1317.07 532.27,1317.07 551.044,1317.07 569.818,1317.07 588.591,1317.07 607.365,1317.07 
  626.139,1304.62 644.912,1292.17 663.686,1279.72 682.46,1254.81 701.233,1242.36 720.007,1229.9 738.781,1217.45 757.555,1217.45 776.328,1217.45 795.102,1217.45 
  813.876,1217.45 832.649,1205 851.423,1192.54 870.197,1130.28 888.97,1130.28 907.744,1117.83 926.518,1105.37 945.292,1105.37 964.065,1092.92 982.839,1080.47 
  1001.61,1080.47 1020.39,1068.01 1039.16,1055.56 1057.93,1030.66 1076.71,1005.75 1095.48,893.673 1114.25,893.673 1133.03,893.673 1151.8,1080.47 1170.58,1092.92 
  1189.35,1105.37 1208.12,1105.37 1226.9,1105.37 1245.67,1105.37 1264.44,1092.92 1283.22,843.861 1301.99,856.314 1320.77,868.767 1339.54,868.767 1358.31,881.22 
  1377.09,893.673 1395.86,893.673 1414.63,906.126 1433.41,906.126 1452.18,906.126 1470.96,893.673 1489.73,893.673 1508.5,881.22 1527.28,868.767 1546.05,856.314 
  1564.82,843.861 1583.6,818.955 1602.37,794.049 1621.14,794.049 1639.92,806.502 1658.69,818.955 1677.47,806.502 1696.24,806.502 1715.01,806.502 1733.79,794.049 
  1752.56,794.049 1771.33,794.049 1790.11,806.502 1808.88,818.955 1827.66,831.408 1846.43,843.861 1865.2,843.861 1883.98,843.861 1902.75,843.861 1921.52,843.861 
  1940.3,831.408 1959.07,495.178 1977.85,482.725 1996.62,470.272 2015.39,370.648 2034.17,358.195 2052.94,345.742 2071.71,221.212 2090.49,221.212 2109.26,221.212 
  2128.03,221.212 2146.81,681.972 2165.58,706.878 2184.36,706.878 2203.13,706.878 2221.9,706.878 2240.68,706.878 2259.45,706.878 2278.22,694.425 2297,383.101 
  
  "/>
<polyline clip-path="url(#clip802)" style="stroke:#000000; stroke-linecap:round; stroke-linejoin:round; stroke-width:12; stroke-opacity:1; fill:none" points="
  438.402,1317.07 457.175,1305.56 475.949,1294.05 494.723,1282.54 513.496,1271.03 532.27,1259.52 551.044,1248.01 569.818,1236.49 588.591,1224.98 607.365,1213.47 
  626.139,1201.96 644.912,1190.45 663.686,1178.94 682.46,1167.43 701.233,1155.91 720.007,1144.4 738.781,1132.89 757.555,1121.38 776.328,1109.87 795.102,1098.36 
  813.876,1086.84 832.649,1075.33 851.423,1063.82 870.197,1052.31 888.97,1040.8 907.744,1029.29 926.518,1017.78 945.292,1006.26 964.065,994.753 982.839,983.242 
  1001.61,971.73 1020.39,960.219 1039.16,948.707 1057.93,937.196 1076.71,925.684 1095.48,914.173 1114.25,902.661 1133.03,891.15 1151.8,879.638 1170.58,868.127 
  1189.35,856.615 1208.12,845.104 1226.9,833.592 1245.67,822.081 1264.44,810.569 1283.22,799.058 1301.99,787.546 1320.77,776.035 1339.54,764.523 1358.31,753.012 
  1377.09,741.5 1395.86,729.989 1414.63,718.478 1433.41,706.966 1452.18,695.455 1470.96,683.943 1489.73,672.432 1508.5,660.92 1527.28,649.409 1546.05,637.897 
  1564.82,626.386 1583.6,614.874 1602.37,603.363 1621.14,591.851 1639.92,580.34 1658.69,568.828 1677.47,557.317 1696.24,545.805 1715.01,534.294 1733.79,522.782 
  1752.56,511.271 1771.33,499.759 1790.11,488.248 1808.88,476.736 1827.66,465.225 1846.43,453.713 1865.2,442.202 1883.98,430.69 1902.75,419.179 1921.52,407.668 
  1940.3,396.156 1959.07,384.645 1977.85,373.133 1996.62,361.622 2015.39,350.11 2034.17,338.599 2052.94,327.087 2071.71,315.576 2090.49,304.064 2109.26,292.553 
  2128.03,281.041 2146.81,269.53 2165.58,258.018 2184.36,246.507 2203.13,234.995 2221.9,223.484 2240.68,211.972 2259.45,200.461 2278.22,188.949 2297,177.438 
  
  "/>
<circle clip-path="url(#clip802)" cx="659.705" cy="1185.16" r="18" fill="#008000" fill-rule="evenodd" fill-opacity="1" stroke="#000000" stroke-opacity="1" stroke-width="3.2"/>
<circle clip-path="url(#clip802)" cx="2087.9" cy="180.803" r="18" fill="#008000" fill-rule="evenodd" fill-opacity="1" stroke="#000000" stroke-opacity="1" stroke-width="3.2"/>
<circle clip-path="url(#clip802)" cx="1884.12" cy="816.08" r="18" fill="#008000" fill-rule="evenodd" fill-opacity="1" stroke="#000000" stroke-opacity="1" stroke-width="3.2"/>
<circle clip-path="url(#clip802)" cx="803.56" cy="1078.31" r="18" fill="#008000" fill-rule="evenodd" fill-opacity="1" stroke="#000000" stroke-opacity="1" stroke-width="3.2"/>
<circle clip-path="url(#clip802)" cx="732.301" cy="1131.01" r="18" fill="#008000" fill-rule="evenodd" fill-opacity="1" stroke="#000000" stroke-opacity="1" stroke-width="3.2"/>
<circle clip-path="url(#clip802)" cx="880.221" cy="1085.47" r="18" fill="#008000" fill-rule="evenodd" fill-opacity="1" stroke="#000000" stroke-opacity="1" stroke-width="3.2"/>
<circle clip-path="url(#clip802)" cx="498.454" cy="1280.96" r="18" fill="#008000" fill-rule="evenodd" fill-opacity="1" stroke="#000000" stroke-opacity="1" stroke-width="3.2"/>
<circle clip-path="url(#clip802)" cx="1763.53" cy="225.975" r="18" fill="#008000" fill-rule="evenodd" fill-opacity="1" stroke="#000000" stroke-opacity="1" stroke-width="3.2"/>
<circle clip-path="url(#clip802)" cx="1570.43" cy="430.143" r="18" fill="#008000" fill-rule="evenodd" fill-opacity="1" stroke="#000000" stroke-opacity="1" stroke-width="3.2"/>
<circle clip-path="url(#clip802)" cx="1528.09" cy="438.268" r="18" fill="#008000" fill-rule="evenodd" fill-opacity="1" stroke="#000000" stroke-opacity="1" stroke-width="3.2"/>
<circle clip-path="url(#clip802)" cx="1793.88" cy="271.588" r="18" fill="#008000" fill-rule="evenodd" fill-opacity="1" stroke="#000000" stroke-opacity="1" stroke-width="3.2"/>
<circle clip-path="url(#clip802)" cx="946.73" cy="1056.42" r="18" fill="#008000" fill-rule="evenodd" fill-opacity="1" stroke="#000000" stroke-opacity="1" stroke-width="3.2"/>
<circle clip-path="url(#clip802)" cx="1203.54" cy="1067.56" r="18" fill="#008000" fill-rule="evenodd" fill-opacity="1" stroke="#000000" stroke-opacity="1" stroke-width="3.2"/>
<circle clip-path="url(#clip802)" cx="883.096" cy="1021.97" r="18" fill="#008000" fill-rule="evenodd" fill-opacity="1" stroke="#000000" stroke-opacity="1" stroke-width="3.2"/>
<circle clip-path="url(#clip802)" cx="605.104" cy="1244.6" r="18" fill="#008000" fill-rule="evenodd" fill-opacity="1" stroke="#000000" stroke-opacity="1" stroke-width="3.2"/>
<circle clip-path="url(#clip802)" cx="1524.29" cy="746.255" r="18" fill="#008000" fill-rule="evenodd" fill-opacity="1" stroke="#000000" stroke-opacity="1" stroke-width="3.2"/>
<circle clip-path="url(#clip802)" cx="950.058" cy="1015.22" r="18" fill="#008000" fill-rule="evenodd" fill-opacity="1" stroke="#000000" stroke-opacity="1" stroke-width="3.2"/>
<circle clip-path="url(#clip802)" cx="519.604" cy="1259.72" r="18" fill="#008000" fill-rule="evenodd" fill-opacity="1" stroke="#000000" stroke-opacity="1" stroke-width="3.2"/>
<circle clip-path="url(#clip802)" cx="1974.63" cy="320.835" r="18" fill="#008000" fill-rule="evenodd" fill-opacity="1" stroke="#000000" stroke-opacity="1" stroke-width="3.2"/>
<circle clip-path="url(#clip802)" cx="1456.54" cy="586.898" r="18" fill="#008000" fill-rule="evenodd" fill-opacity="1" stroke="#000000" stroke-opacity="1" stroke-width="3.2"/>
<circle clip-path="url(#clip802)" cx="997.471" cy="980.054" r="18" fill="#008000" fill-rule="evenodd" fill-opacity="1" stroke="#000000" stroke-opacity="1" stroke-width="3.2"/>
<circle clip-path="url(#clip802)" cx="570.391" cy="1224.38" r="18" fill="#008000" fill-rule="evenodd" fill-opacity="1" stroke="#000000" stroke-opacity="1" stroke-width="3.2"/>
<circle clip-path="url(#clip802)" cx="1350.27" cy="831.525" r="18" fill="#008000" fill-rule="evenodd" fill-opacity="1" stroke="#000000" stroke-opacity="1" stroke-width="3.2"/>
<circle clip-path="url(#clip802)" cx="1583.26" cy="578.855" r="18" fill="#008000" fill-rule="evenodd" fill-opacity="1" stroke="#000000" stroke-opacity="1" stroke-width="3.2"/>
<circle clip-path="url(#clip802)" cx="1825.94" cy="584.97" r="18" fill="#008000" fill-rule="evenodd" fill-opacity="1" stroke="#000000" stroke-opacity="1" stroke-width="3.2"/>
<circle clip-path="url(#clip802)" cx="2221.65" cy="337.038" r="18" fill="#008000" fill-rule="evenodd" fill-opacity="1" stroke="#000000" stroke-opacity="1" stroke-width="3.2"/>
<circle clip-path="url(#clip802)" cx="1656.66" cy="771.225" r="18" fill="#008000" fill-rule="evenodd" fill-opacity="1" stroke="#000000" stroke-opacity="1" stroke-width="3.2"/>
<circle clip-path="url(#clip802)" cx="1295.28" cy="590.794" r="18" fill="#008000" fill-rule="evenodd" fill-opacity="1" stroke="#000000" stroke-opacity="1" stroke-width="3.2"/>
<circle clip-path="url(#clip802)" cx="1741.09" cy="716.844" r="18" fill="#008000" fill-rule="evenodd" fill-opacity="1" stroke="#000000" stroke-opacity="1" stroke-width="3.2"/>
<circle clip-path="url(#clip802)" cx="1799.14" cy="760.758" r="18" fill="#008000" fill-rule="evenodd" fill-opacity="1" stroke="#000000" stroke-opacity="1" stroke-width="3.2"/>
<circle clip-path="url(#clip802)" cx="1899.41" cy="164.024" r="18" fill="#008000" fill-rule="evenodd" fill-opacity="1" stroke="#000000" stroke-opacity="1" stroke-width="3.2"/>
<circle clip-path="url(#clip802)" cx="1500.83" cy="830.375" r="18" fill="#008000" fill-rule="evenodd" fill-opacity="1" stroke="#000000" stroke-opacity="1" stroke-width="3.2"/>
<circle clip-path="url(#clip802)" cx="1918.6" cy="385.882" r="18" fill="#008000" fill-rule="evenodd" fill-opacity="1" stroke="#000000" stroke-opacity="1" stroke-width="3.2"/>
<circle clip-path="url(#clip802)" cx="2225.78" cy="326.806" r="18" fill="#008000" fill-rule="evenodd" fill-opacity="1" stroke="#000000" stroke-opacity="1" stroke-width="3.2"/>
<circle clip-path="url(#clip802)" cx="796.7" cy="1191.9" r="18" fill="#008000" fill-rule="evenodd" fill-opacity="1" stroke="#000000" stroke-opacity="1" stroke-width="3.2"/>
<circle clip-path="url(#clip802)" cx="2153.4" cy="139.483" r="18" fill="#008000" fill-rule="evenodd" fill-opacity="1" stroke="#000000" stroke-opacity="1" stroke-width="3.2"/>
<circle clip-path="url(#clip802)" cx="2113.45" cy="84.2294" r="18" fill="#008000" fill-rule="evenodd" fill-opacity="1" stroke="#000000" stroke-opacity="1" stroke-width="3.2"/>
<circle clip-path="url(#clip802)" cx="1456.64" cy="868.04" r="18" fill="#008000" fill-rule="evenodd" fill-opacity="1" stroke="#000000" stroke-opacity="1" stroke-width="3.2"/>
<circle clip-path="url(#clip802)" cx="1146.01" cy="858.11" r="18" fill="#008000" fill-rule="evenodd" fill-opacity="1" stroke="#000000" stroke-opacity="1" stroke-width="3.2"/>
<circle clip-path="url(#clip802)" cx="1810.96" cy="152.074" r="18" fill="#008000" fill-rule="evenodd" fill-opacity="1" stroke="#000000" stroke-opacity="1" stroke-width="3.2"/>
<circle clip-path="url(#clip802)" cx="1574.79" cy="480.398" r="18" fill="#008000" fill-rule="evenodd" fill-opacity="1" stroke="#000000" stroke-opacity="1" stroke-width="3.2"/>
<circle clip-path="url(#clip802)" cx="1152.67" cy="803.85" r="18" fill="#008000" fill-rule="evenodd" fill-opacity="1" stroke="#000000" stroke-opacity="1" stroke-width="3.2"/>
<circle clip-path="url(#clip802)" cx="1580.16" cy="682.218" r="18" fill="#008000" fill-rule="evenodd" fill-opacity="1" stroke="#000000" stroke-opacity="1" stroke-width="3.2"/>
<circle clip-path="url(#clip802)" cx="1195.53" cy="795.547" r="18" fill="#008000" fill-rule="evenodd" fill-opacity="1" stroke="#000000" stroke-opacity="1" stroke-width="3.2"/>
<circle clip-path="url(#clip802)" cx="2210.91" cy="678.493" r="18" fill="#008000" fill-rule="evenodd" fill-opacity="1" stroke="#000000" stroke-opacity="1" stroke-width="3.2"/>
<circle clip-path="url(#clip802)" cx="977.489" cy="1000.35" r="18" fill="#008000" fill-rule="evenodd" fill-opacity="1" stroke="#000000" stroke-opacity="1" stroke-width="3.2"/>
<circle clip-path="url(#clip802)" cx="808.647" cy="1078.23" r="18" fill="#008000" fill-rule="evenodd" fill-opacity="1" stroke="#000000" stroke-opacity="1" stroke-width="3.2"/>
<circle clip-path="url(#clip802)" cx="1938.71" cy="448.748" r="18" fill="#008000" fill-rule="evenodd" fill-opacity="1" stroke="#000000" stroke-opacity="1" stroke-width="3.2"/>
<circle clip-path="url(#clip802)" cx="1555.33" cy="509.39" r="18" fill="#008000" fill-rule="evenodd" fill-opacity="1" stroke="#000000" stroke-opacity="1" stroke-width="3.2"/>
<circle clip-path="url(#clip802)" cx="764.912" cy="1063.95" r="18" fill="#008000" fill-rule="evenodd" fill-opacity="1" stroke="#000000" stroke-opacity="1" stroke-width="3.2"/>
<polyline clip-path="url(#clip802)" style="stroke:#0000ff; stroke-linecap:round; stroke-linejoin:round; stroke-width:12; stroke-opacity:1; fill:none" stroke-dasharray="48, 24, 6, 24, 6, 24" points="
  438.402,1279.72 457.175,1279.72 475.949,1279.72 494.723,1267.26 513.496,1267.26 532.27,1254.81 551.044,1254.81 569.818,1242.36 588.591,1242.36 607.365,1229.9 
  626.139,1229.9 644.912,1205 663.686,1192.54 682.46,1180.09 701.233,1167.64 720.007,1142.73 738.781,1080.47 757.555,1080.47 776.328,1080.47 795.102,1080.47 
  813.876,1080.47 832.649,1068.01 851.423,1068.01 870.197,1068.01 888.97,1043.11 907.744,1030.66 926.518,1018.2 945.292,1018.2 964.065,1005.75 982.839,1005.75 
  1001.61,993.297 1020.39,993.297 1039.16,993.297 1057.93,980.844 1076.71,980.844 1095.48,831.408 1114.25,818.955 1133.03,806.502 1151.8,806.502 1170.58,806.502 
  1189.35,806.502 1208.12,794.049 1226.9,794.049 1245.67,794.049 1264.44,594.802 1283.22,594.802 1301.99,594.802 1320.77,831.408 1339.54,831.408 1358.31,831.408 
  1377.09,831.408 1395.86,843.861 1414.63,856.314 1433.41,856.314 1452.18,856.314 1470.96,843.861 1489.73,843.861 1508.5,445.366 1527.28,457.819 1546.05,457.819 
  1564.82,470.272 1583.6,470.272 1602.37,470.272 1621.14,470.272 1639.92,769.143 1658.69,769.143 1677.47,756.69 1696.24,756.69 1715.01,744.237 1733.79,744.237 
  1752.56,246.118 1771.33,246.118 1790.11,246.118 1808.88,246.118 1827.66,158.947 1846.43,158.947 1865.2,158.947 1883.98,158.947 1902.75,171.4 1921.52,395.554 
  1940.3,408.007 1959.07,333.289 1977.85,333.289 1996.62,320.836 2015.39,320.836 2034.17,183.853 2052.94,84.2294 2071.71,84.2294 2090.49,84.2294 2109.26,84.2294 
  2128.03,84.2294 2146.81,84.2294 2165.58,84.2294 2184.36,333.289 2203.13,333.289 2221.9,333.289 2240.68,333.289 2259.45,333.289 2278.22,333.289 2297,333.289 
  
  "/>
<polyline clip-path="url(#clip802)" style="stroke:#0000ff; stroke-linecap:round; stroke-linejoin:round; stroke-width:12; stroke-opacity:1; fill:none" points="
  438.402,1278.35 457.175,1274.21 475.949,1270.08 494.723,1265.78 513.496,1262.52 532.27,1257.07 551.044,1252.64 569.818,1246.25 588.591,1239.59 607.365,1234.16 
  626.139,1223.78 644.912,1211.43 663.686,1193.12 682.46,1169.57 701.233,1146.24 720.007,1129.93 738.781,1119.09 757.555,1112.78 776.328,1106.75 795.102,1102.53 
  813.876,1095.88 832.649,1085.23 851.423,1073.74 870.197,1056.57 888.97,1048 907.744,1039.16 926.518,1029.25 945.292,1021.57 964.065,1014.75 982.839,1008.77 
  1001.61,1003.27 1020.39,997.912 1039.16,992.592 1057.93,987.156 1076.71,912.647 1095.48,830.824 1114.25,824.937 1133.03,821.968 1151.8,846.146 1170.58,859.743 
  1189.35,868.789 1208.12,883.488 1226.9,857.429 1245.67,820.224 1264.44,755.378 1283.22,660.773 1301.99,685.79 1320.77,714.002 1339.54,739.59 1358.31,766.339 
  1377.09,774.749 1395.86,766.455 1414.63,759.141 1433.41,754.035 1452.18,721.641 1470.96,682.769 1489.73,658.511 1508.5,632.338 1527.28,608.584 1546.05,590.178 
  1564.82,578.868 1583.6,573.928 1602.37,579.433 1621.14,598.881 1639.92,632.418 1658.69,753.785 1677.47,754.014 1696.24,642.436 1715.01,548.173 1733.79,497.328 
  1752.56,445.336 1771.33,431.214 1790.11,428.305 1808.88,430.65 1827.66,437.57 1846.43,441.754 1865.2,431.009 1883.98,432.106 1902.75,414.361 1921.52,402.7 
  1940.3,387.075 1959.07,352.682 1977.85,346.801 1996.62,332.371 2015.39,273.319 2034.17,210.575 2052.94,175.503 2071.71,144.635 2090.49,142.855 2109.26,137.595 
  2128.03,139.013 2146.81,186.39 2165.58,268.108 2184.36,324.252 2203.13,365.067 2221.9,401.61 2240.68,429.53 2259.45,414.744 2278.22,386.449 2297,332.652 
  
  "/>
</svg>
