<?xml version="1.0" encoding="utf-8"?>
<svg xmlns="http://www.w3.org/2000/svg" xmlns:xlink="http://www.w3.org/1999/xlink" width="600" height="400" viewBox="0 0 2400 1600">
<defs>
  <clipPath id="clip680">
    <rect x="0" y="0" width="2400" height="1600"/>
  </clipPath>
</defs>
<path clip-path="url(#clip680)" d="
M0 1600 L2400 1600 L2400 0 L0 0  Z
  " fill="#ffffff" fill-rule="evenodd" fill-opacity="1"/>
<defs>
  <clipPath id="clip681">
    <rect x="480" y="0" width="1681" height="1600"/>
  </clipPath>
</defs>
<defs>
  <clipPath id="clip682">
    <rect x="382" y="47" width="1971" height="1308"/>
  </clipPath>
</defs>
<path clip-path="url(#clip680)" d="
M382.644 1354.06 L2352.76 1354.06 L2352.76 47.2441 L382.644 47.2441  Z
  " fill="#ffffff" fill-rule="evenodd" fill-opacity="1"/>
<polyline clip-path="url(#clip682)" style="stroke:#000000; stroke-linecap:round; stroke-linejoin:round; stroke-width:2; stroke-opacity:0.1; fill:none" points="
  438.402,1354.06 438.402,47.2441 
  "/>
<polyline clip-path="url(#clip682)" style="stroke:#000000; stroke-linecap:round; stroke-linejoin:round; stroke-width:2; stroke-opacity:0.1; fill:none" points="
  624.261,1354.06 624.261,47.2441 
  "/>
<polyline clip-path="url(#clip682)" style="stroke:#000000; stroke-linecap:round; stroke-linejoin:round; stroke-width:2; stroke-opacity:0.1; fill:none" points="
  810.121,1354.06 810.121,47.2441 
  "/>
<polyline clip-path="url(#clip682)" style="stroke:#000000; stroke-linecap:round; stroke-linejoin:round; stroke-width:2; stroke-opacity:0.1; fill:none" points="
  995.981,1354.06 995.981,47.2441 
  "/>
<polyline clip-path="url(#clip682)" style="stroke:#000000; stroke-linecap:round; stroke-linejoin:round; stroke-width:2; stroke-opacity:0.1; fill:none" points="
  1181.84,1354.06 1181.84,47.2441 
  "/>
<polyline clip-path="url(#clip682)" style="stroke:#000000; stroke-linecap:round; stroke-linejoin:round; stroke-width:2; stroke-opacity:0.1; fill:none" points="
  1367.7,1354.06 1367.7,47.2441 
  "/>
<polyline clip-path="url(#clip682)" style="stroke:#000000; stroke-linecap:round; stroke-linejoin:round; stroke-width:2; stroke-opacity:0.1; fill:none" points="
  1553.56,1354.06 1553.56,47.2441 
  "/>
<polyline clip-path="url(#clip682)" style="stroke:#000000; stroke-linecap:round; stroke-linejoin:round; stroke-width:2; stroke-opacity:0.1; fill:none" points="
  1739.42,1354.06 1739.42,47.2441 
  "/>
<polyline clip-path="url(#clip682)" style="stroke:#000000; stroke-linecap:round; stroke-linejoin:round; stroke-width:2; stroke-opacity:0.1; fill:none" points="
  1925.28,1354.06 1925.28,47.2441 
  "/>
<polyline clip-path="url(#clip682)" style="stroke:#000000; stroke-linecap:round; stroke-linejoin:round; stroke-width:2; stroke-opacity:0.1; fill:none" points="
  2111.14,1354.06 2111.14,47.2441 
  "/>
<polyline clip-path="url(#clip682)" style="stroke:#000000; stroke-linecap:round; stroke-linejoin:round; stroke-width:2; stroke-opacity:0.1; fill:none" points="
  2297,1354.06 2297,47.2441 
  "/>
<polyline clip-path="url(#clip680)" style="stroke:#000000; stroke-linecap:round; stroke-linejoin:round; stroke-width:4; stroke-opacity:1; fill:none" points="
  382.644,1354.06 2352.76,1354.06 
  "/>
<polyline clip-path="url(#clip680)" style="stroke:#000000; stroke-linecap:round; stroke-linejoin:round; stroke-width:4; stroke-opacity:1; fill:none" points="
  438.402,1354.06 438.402,1335.16 
  "/>
<polyline clip-path="url(#clip680)" style="stroke:#000000; stroke-linecap:round; stroke-linejoin:round; stroke-width:4; stroke-opacity:1; fill:none" points="
  624.261,1354.06 624.261,1335.16 
  "/>
<polyline clip-path="url(#clip680)" style="stroke:#000000; stroke-linecap:round; stroke-linejoin:round; stroke-width:4; stroke-opacity:1; fill:none" points="
  810.121,1354.06 810.121,1335.16 
  "/>
<polyline clip-path="url(#clip680)" style="stroke:#000000; stroke-linecap:round; stroke-linejoin:round; stroke-width:4; stroke-opacity:1; fill:none" points="
  995.981,1354.06 995.981,1335.16 
  "/>
<polyline clip-path="url(#clip680)" style="stroke:#000000; stroke-linecap:round; stroke-linejoin:round; stroke-width:4; stroke-opacity:1; fill:none" points="
  1181.84,1354.06 1181.84,1335.16 
  "/>
<polyline clip-path="url(#clip680)" style="stroke:#000000; stroke-linecap:round; stroke-linejoin:round; stroke-width:4; stroke-opacity:1; fill:none" points="
  1367.7,1354.06 1367.7,1335.16 
  "/>
<polyline clip-path="url(#clip680)" style="stroke:#000000; stroke-linecap:round; stroke-linejoin:round; stroke-width:4; stroke-opacity:1; fill:none" points="
  1553.56,1354.06 1553.56,1335.16 
  "/>
<polyline clip-path="url(#clip680)" style="stroke:#000000; stroke-linecap:round; stroke-linejoin:round; stroke-width:4; stroke-opacity:1; fill:none" points="
  1739.42,1354.06 1739.42,1335.16 
  "/>
<polyline clip-path="url(#clip680)" style="stroke:#000000; stroke-linecap:round; stroke-linejoin:round; stroke-width:4; stroke-opacity:1; fill:none" points="
  1925.28,1354.06 1925.28,1335.16 
  "/>
<polyline clip-path="url(#clip680)" style="stroke:#000000; stroke-linecap:round; stroke-linejoin:round; stroke-width:4; stroke-opacity:1; fill:none" points="
  2111.14,1354.06 2111.14,1335.16 
  "/>
<polyline clip-path="url(#clip680)" style="stroke:#000000; stroke-linecap:round; stroke-linejoin:round; stroke-width:4; stroke-opacity:1; fill:none" points="
  2297,1354.06 2297,1335.16 
  "/>
<path clip-path="url(#clip680)" d="M438.402 1395.23 Q431.631 1395.23 428.202 1401.92 Q424.817 1408.56 424.817 1421.92 Q424.817 1435.25 428.202 1441.93 Q431.631 1448.57 438.402 1448.57 Q445.216 1448.57 448.601 1441.93 Q452.03 1435.25 452.03 1421.92 Q452.03 1408.56 448.601 1401.92 Q445.216 1395.23 438.402 1395.23 M438.402 1388.29 Q449.296 1388.29 455.025 1396.93 Q460.797 1405.52 460.797 1421.92 Q460.797 1438.29 455.025 1446.92 Q449.296 1455.52 438.402 1455.52 Q427.508 1455.52 421.735 1446.92 Q416.006 1438.29 416.006 1421.92 Q416.006 1405.52 421.735 1396.93 Q427.508 1388.29 438.402 1388.29 Z" fill="#000000" fill-rule="evenodd" fill-opacity="1" /><path clip-path="url(#clip680)" d="M769.214 1395.23 Q762.443 1395.23 759.014 1401.92 Q755.629 1408.56 755.629 1421.92 Q755.629 1435.25 759.014 1441.93 Q762.443 1448.57 769.214 1448.57 Q776.028 1448.57 779.414 1441.93 Q782.842 1435.25 782.842 1421.92 Q782.842 1408.56 779.414 1401.92 Q776.028 1395.23 769.214 1395.23 M769.214 1388.29 Q780.108 1388.29 785.837 1396.93 Q791.61 1405.52 791.61 1421.92 Q791.61 1438.29 785.837 1446.92 Q780.108 1455.52 769.214 1455.52 Q758.32 1455.52 752.547 1446.92 Q746.818 1438.29 746.818 1421.92 Q746.818 1405.52 752.547 1396.93 Q758.32 1388.29 769.214 1388.29 Z" fill="#000000" fill-rule="evenodd" fill-opacity="1" /><path clip-path="url(#clip680)" d="M807.018 1443.24 L816.176 1443.24 L816.176 1454.26 L807.018 1454.26 L807.018 1443.24 Z" fill="#000000" fill-rule="evenodd" fill-opacity="1" /><path clip-path="url(#clip680)" d="M842.825 1446.88 L873.424 1446.88 L873.424 1454.26 L832.278 1454.26 L832.278 1446.88 Q837.269 1441.72 845.863 1433.04 Q854.5 1424.31 856.714 1421.79 Q860.924 1417.06 862.573 1413.81 Q864.266 1410.51 864.266 1407.34 Q864.266 1402.18 860.62 1398.92 Q857.017 1395.67 851.201 1395.67 Q847.078 1395.67 842.478 1397.1 Q837.92 1398.53 832.712 1401.44 L832.712 1392.58 Q838.007 1390.46 842.608 1389.37 Q847.208 1388.29 851.028 1388.29 Q861.097 1388.29 867.087 1393.32 Q873.076 1398.36 873.076 1406.78 Q873.076 1410.77 871.557 1414.37 Q870.082 1417.93 866.132 1422.79 Q865.047 1424.05 859.231 1430.08 Q853.415 1436.07 842.825 1446.88 Z" fill="#000000" fill-rule="evenodd" fill-opacity="1" /><path clip-path="url(#clip680)" d="M1138.98 1395.23 Q1132.21 1395.23 1128.78 1401.92 Q1125.4 1408.56 1125.4 1421.92 Q1125.4 1435.25 1128.78 1441.93 Q1132.21 1448.57 1138.98 1448.57 Q1145.79 1448.57 1149.18 1441.93 Q1152.61 1435.25 1152.61 1421.92 Q1152.61 1408.56 1149.18 1401.92 Q1145.79 1395.23 1138.98 1395.23 M1138.98 1388.29 Q1149.87 1388.29 1155.6 1396.93 Q1161.38 1405.52 1161.38 1421.92 Q1161.38 1438.29 1155.6 1446.92 Q1149.87 1455.52 1138.98 1455.52 Q1128.09 1455.52 1122.31 1446.92 Q1116.58 1438.29 1116.58 1421.92 Q1116.58 1405.52 1122.31 1396.93 Q1128.09 1388.29 1138.98 1388.29 Z" fill="#000000" fill-rule="evenodd" fill-opacity="1" /><path clip-path="url(#clip680)" d="M1176.78 1443.24 L1185.94 1443.24 L1185.94 1454.26 L1176.78 1454.26 L1176.78 1443.24 Z" fill="#000000" fill-rule="evenodd" fill-opacity="1" /><path clip-path="url(#clip680)" d="M1229.13 1397.1 L1206.99 1431.69 L1229.13 1431.69 L1229.13 1397.1 M1226.83 1389.46 L1237.85 1389.46 L1237.85 1431.69 L1247.1 1431.69 L1247.1 1438.98 L1237.85 1438.98 L1237.85 1454.26 L1229.13 1454.26 L1229.13 1438.98 L1199.87 1438.98 L1199.87 1430.52 L1226.83 1389.46 Z" fill="#000000" fill-rule="evenodd" fill-opacity="1" /><path clip-path="url(#clip680)" d="M1511 1395.23 Q1504.23 1395.23 1500.8 1401.92 Q1497.42 1408.56 1497.42 1421.92 Q1497.42 1435.25 1500.8 1441.93 Q1504.23 1448.57 1511 1448.57 Q1517.82 1448.57 1521.2 1441.93 Q1524.63 1435.25 1524.63 1421.92 Q1524.63 1408.56 1521.2 1401.92 Q1517.82 1395.23 1511 1395.23 M1511 1388.29 Q1521.9 1388.29 1527.63 1396.93 Q1533.4 1405.52 1533.4 1421.92 Q1533.4 1438.29 1527.63 1446.92 Q1521.9 1455.52 1511 1455.52 Q1500.11 1455.52 1494.34 1446.92 Q1488.61 1438.29 1488.61 1421.92 Q1488.61 1405.52 1494.34 1396.93 Q1500.11 1388.29 1511 1388.29 Z" fill="#000000" fill-rule="evenodd" fill-opacity="1" /><path clip-path="url(#clip680)" d="M1548.81 1443.24 L1557.96 1443.24 L1557.96 1454.26 L1548.81 1454.26 L1548.81 1443.24 Z" fill="#000000" fill-rule="evenodd" fill-opacity="1" /><path clip-path="url(#clip680)" d="M1596.9 1418.37 Q1590.99 1418.37 1587.52 1422.4 Q1584.09 1426.44 1584.09 1433.47 Q1584.09 1440.46 1587.52 1444.54 Q1590.99 1448.57 1596.9 1448.57 Q1602.8 1448.57 1606.23 1444.54 Q1609.7 1440.46 1609.7 1433.47 Q1609.7 1426.44 1606.23 1422.4 Q1602.8 1418.37 1596.9 1418.37 M1614.3 1390.89 L1614.3 1398.88 Q1611 1397.32 1607.62 1396.49 Q1604.28 1395.67 1600.98 1395.67 Q1592.3 1395.67 1587.7 1401.53 Q1583.14 1407.39 1582.49 1419.23 Q1585.05 1415.46 1588.91 1413.46 Q1592.77 1411.42 1597.42 1411.42 Q1607.18 1411.42 1612.83 1417.37 Q1618.51 1423.27 1618.51 1433.47 Q1618.51 1443.45 1612.61 1449.49 Q1606.71 1455.52 1596.9 1455.52 Q1585.66 1455.52 1579.71 1446.92 Q1573.76 1438.29 1573.76 1421.92 Q1573.76 1406.56 1581.05 1397.45 Q1588.35 1388.29 1600.63 1388.29 Q1603.93 1388.29 1607.27 1388.94 Q1610.66 1389.59 1614.3 1390.89 Z" fill="#000000" fill-rule="evenodd" fill-opacity="1" /><path clip-path="url(#clip680)" d="M1882.96 1395.23 Q1876.19 1395.23 1872.76 1401.92 Q1869.38 1408.56 1869.38 1421.92 Q1869.38 1435.25 1872.76 1441.93 Q1876.19 1448.57 1882.96 1448.57 Q1889.78 1448.57 1893.16 1441.93 Q1896.59 1435.25 1896.59 1421.92 Q1896.59 1408.56 1893.16 1401.92 Q1889.78 1395.23 1882.96 1395.23 M1882.96 1388.29 Q1893.86 1388.29 1899.58 1396.93 Q1905.36 1405.52 1905.36 1421.92 Q1905.36 1438.29 1899.58 1446.92 Q1893.86 1455.52 1882.96 1455.52 Q1872.07 1455.52 1866.29 1446.92 Q1860.57 1438.29 1860.57 1421.92 Q1860.57 1405.52 1866.29 1396.93 Q1872.07 1388.29 1882.96 1388.29 Z" fill="#000000" fill-rule="evenodd" fill-opacity="1" /><path clip-path="url(#clip680)" d="M1920.76 1443.24 L1929.92 1443.24 L1929.92 1454.26 L1920.76 1454.26 L1920.76 1443.24 Z" fill="#000000" fill-rule="evenodd" fill-opacity="1" /><path clip-path="url(#clip680)" d="M1967.77 1423.49 Q1961.52 1423.49 1957.92 1426.83 Q1954.36 1430.17 1954.36 1436.03 Q1954.36 1441.89 1957.92 1445.23 Q1961.52 1448.57 1967.77 1448.57 Q1974.02 1448.57 1977.62 1445.23 Q1981.22 1441.85 1981.22 1436.03 Q1981.22 1430.17 1977.62 1426.83 Q1974.06 1423.49 1967.77 1423.49 M1959 1419.75 Q1953.36 1418.37 1950.19 1414.5 Q1947.07 1410.64 1947.07 1405.08 Q1947.07 1397.32 1952.58 1392.8 Q1958.13 1388.29 1967.77 1388.29 Q1977.45 1388.29 1982.96 1392.8 Q1988.47 1397.32 1988.47 1405.08 Q1988.47 1410.64 1985.3 1414.5 Q1982.18 1418.37 1976.58 1419.75 Q1982.92 1421.23 1986.43 1425.53 Q1989.99 1429.82 1989.99 1436.03 Q1989.99 1445.45 1984.22 1450.48 Q1978.49 1455.52 1967.77 1455.52 Q1957.05 1455.52 1951.28 1450.48 Q1945.55 1445.45 1945.55 1436.03 Q1945.55 1429.82 1949.11 1425.53 Q1952.67 1421.23 1959 1419.75 M1955.79 1405.91 Q1955.79 1410.94 1958.92 1413.77 Q1962.08 1416.59 1967.77 1416.59 Q1973.41 1416.59 1976.58 1413.77 Q1979.79 1410.94 1979.79 1405.91 Q1979.79 1400.87 1976.58 1398.05 Q1973.41 1395.23 1967.77 1395.23 Q1962.08 1395.23 1958.92 1398.05 Q1955.79 1400.87 1955.79 1405.91 Z" fill="#000000" fill-rule="evenodd" fill-opacity="1" /><path clip-path="url(#clip680)" d="M2278.96 1446.88 L2293.29 1446.88 L2293.29 1397.45 L2277.71 1400.57 L2277.71 1392.58 L2293.2 1389.46 L2301.97 1389.46 L2301.97 1446.88 L2316.29 1446.88 L2316.29 1454.26 L2278.96 1454.26 L2278.96 1446.88 Z" fill="#000000" fill-rule="evenodd" fill-opacity="1" /><path clip-path="url(#clip680)" d="M1393.47 1519.59 Q1393.47 1522.87 1391.42 1524.74 Q1389.37 1526.56 1387.03 1526.56 Q1384.8 1526.56 1383.63 1525.27 Q1382.46 1523.98 1382.46 1522.34 Q1382.46 1520.12 1384.1 1518.18 Q1385.74 1516.25 1388.2 1515.84 Q1385.8 1514.32 1382.23 1514.32 Q1379.88 1514.32 1377.83 1515.55 Q1375.84 1516.78 1374.61 1518.36 Q1373.44 1519.94 1372.39 1522.22 Q1371.39 1524.45 1370.98 1525.8 Q1370.63 1527.08 1370.34 1528.49 L1366.24 1544.89 Q1364.25 1552.67 1364.25 1555.43 Q1364.25 1558.82 1365.89 1561.11 Q1367.53 1563.33 1370.81 1563.33 Q1372.1 1563.33 1373.56 1562.98 Q1375.02 1562.57 1376.9 1561.52 Q1378.83 1560.4 1380.53 1558.76 Q1382.28 1557.07 1383.98 1554.2 Q1385.68 1551.33 1386.79 1547.64 Q1387.14 1546.35 1388.32 1546.35 Q1389.78 1546.35 1389.78 1547.52 Q1389.78 1548.52 1388.96 1550.62 Q1388.2 1552.67 1386.5 1555.37 Q1384.86 1558 1382.69 1560.4 Q1380.53 1562.75 1377.31 1564.39 Q1374.09 1566.02 1370.57 1566.02 Q1365.54 1566.02 1362.2 1563.33 Q1358.86 1560.64 1357.63 1556.89 Q1357.34 1557.42 1356.93 1558.12 Q1356.52 1558.82 1355.29 1560.4 Q1354.12 1561.93 1352.77 1563.1 Q1351.43 1564.21 1349.32 1565.09 Q1347.27 1566.02 1345.04 1566.02 Q1342.23 1566.02 1339.71 1565.2 Q1337.25 1564.39 1335.5 1562.51 Q1333.74 1560.64 1333.74 1558.06 Q1333.74 1555.19 1335.67 1553.2 Q1337.66 1551.15 1340.36 1551.15 Q1342.06 1551.15 1343.4 1552.15 Q1344.81 1553.14 1344.81 1555.31 Q1344.81 1557.71 1343.17 1559.53 Q1341.53 1561.34 1339.19 1561.81 Q1341.59 1563.33 1345.16 1563.33 Q1349.02 1563.33 1352.07 1559.93 Q1355.11 1556.54 1356.58 1550.86 Q1360.21 1537.22 1361.61 1531.13 Q1363.02 1524.98 1363.02 1522.34 Q1363.02 1519.88 1362.38 1518.18 Q1361.73 1516.49 1360.62 1515.73 Q1359.56 1514.91 1358.57 1514.61 Q1357.63 1514.32 1356.58 1514.32 Q1354.82 1514.32 1352.83 1515.02 Q1350.9 1515.73 1348.56 1517.36 Q1346.27 1518.95 1344.11 1522.22 Q1341.94 1525.5 1340.48 1530.01 Q1340.18 1531.36 1338.89 1531.36 Q1337.49 1531.3 1337.49 1530.13 Q1337.49 1529.13 1338.25 1527.08 Q1339.07 1524.98 1340.71 1522.34 Q1342.41 1519.71 1344.57 1517.36 Q1346.8 1514.96 1350.02 1513.32 Q1353.3 1511.68 1356.81 1511.68 Q1358.39 1511.68 1359.92 1512.04 Q1361.5 1512.33 1363.37 1513.21 Q1365.3 1514.09 1367 1516.02 Q1368.7 1517.95 1369.75 1520.76 Q1370.46 1519.41 1371.39 1518.13 Q1372.39 1516.84 1373.91 1515.26 Q1375.49 1513.62 1377.66 1512.68 Q1379.88 1511.68 1382.34 1511.68 Q1384.74 1511.68 1387.09 1512.33 Q1389.43 1512.91 1391.42 1514.85 Q1393.47 1516.72 1393.47 1519.59 Z" fill="#000000" fill-rule="evenodd" fill-opacity="1" /><polyline clip-path="url(#clip682)" style="stroke:#000000; stroke-linecap:round; stroke-linejoin:round; stroke-width:2; stroke-opacity:0.1; fill:none" points="
  382.644,1317.07 2352.76,1317.07 
  "/>
<polyline clip-path="url(#clip682)" style="stroke:#000000; stroke-linecap:round; stroke-linejoin:round; stroke-width:2; stroke-opacity:0.1; fill:none" points="
  382.644,1188.66 2352.76,1188.66 
  "/>
<polyline clip-path="url(#clip682)" style="stroke:#000000; stroke-linecap:round; stroke-linejoin:round; stroke-width:2; stroke-opacity:0.1; fill:none" points="
  382.644,1060.25 2352.76,1060.25 
  "/>
<polyline clip-path="url(#clip682)" style="stroke:#000000; stroke-linecap:round; stroke-linejoin:round; stroke-width:2; stroke-opacity:0.1; fill:none" points="
  382.644,931.832 2352.76,931.832 
  "/>
<polyline clip-path="url(#clip682)" style="stroke:#000000; stroke-linecap:round; stroke-linejoin:round; stroke-width:2; stroke-opacity:0.1; fill:none" points="
  382.644,803.417 2352.76,803.417 
  "/>
<polyline clip-path="url(#clip682)" style="stroke:#000000; stroke-linecap:round; stroke-linejoin:round; stroke-width:2; stroke-opacity:0.1; fill:none" points="
  382.644,675.003 2352.76,675.003 
  "/>
<polyline clip-path="url(#clip682)" style="stroke:#000000; stroke-linecap:round; stroke-linejoin:round; stroke-width:2; stroke-opacity:0.1; fill:none" points="
  382.644,546.589 2352.76,546.589 
  "/>
<polyline clip-path="url(#clip682)" style="stroke:#000000; stroke-linecap:round; stroke-linejoin:round; stroke-width:2; stroke-opacity:0.1; fill:none" points="
  382.644,418.175 2352.76,418.175 
  "/>
<polyline clip-path="url(#clip682)" style="stroke:#000000; stroke-linecap:round; stroke-linejoin:round; stroke-width:2; stroke-opacity:0.1; fill:none" points="
  382.644,289.76 2352.76,289.76 
  "/>
<polyline clip-path="url(#clip682)" style="stroke:#000000; stroke-linecap:round; stroke-linejoin:round; stroke-width:2; stroke-opacity:0.1; fill:none" points="
  382.644,161.346 2352.76,161.346 
  "/>
<polyline clip-path="url(#clip682)" style="stroke:#000000; stroke-linecap:round; stroke-linejoin:round; stroke-width:2; stroke-opacity:0.1; fill:none" points="
  382.644,32.9317 2352.76,32.9317 
  "/>
<polyline clip-path="url(#clip680)" style="stroke:#000000; stroke-linecap:round; stroke-linejoin:round; stroke-width:4; stroke-opacity:1; fill:none" points="
  382.644,1354.06 382.644,47.2441 
  "/>
<polyline clip-path="url(#clip680)" style="stroke:#000000; stroke-linecap:round; stroke-linejoin:round; stroke-width:4; stroke-opacity:1; fill:none" points="
  382.644,1317.07 401.541,1317.07 
  "/>
<polyline clip-path="url(#clip680)" style="stroke:#000000; stroke-linecap:round; stroke-linejoin:round; stroke-width:4; stroke-opacity:1; fill:none" points="
  382.644,1188.66 401.541,1188.66 
  "/>
<polyline clip-path="url(#clip680)" style="stroke:#000000; stroke-linecap:round; stroke-linejoin:round; stroke-width:4; stroke-opacity:1; fill:none" points="
  382.644,1060.25 401.541,1060.25 
  "/>
<polyline clip-path="url(#clip680)" style="stroke:#000000; stroke-linecap:round; stroke-linejoin:round; stroke-width:4; stroke-opacity:1; fill:none" points="
  382.644,931.832 401.541,931.832 
  "/>
<polyline clip-path="url(#clip680)" style="stroke:#000000; stroke-linecap:round; stroke-linejoin:round; stroke-width:4; stroke-opacity:1; fill:none" points="
  382.644,803.417 401.541,803.417 
  "/>
<polyline clip-path="url(#clip680)" style="stroke:#000000; stroke-linecap:round; stroke-linejoin:round; stroke-width:4; stroke-opacity:1; fill:none" points="
  382.644,675.003 401.541,675.003 
  "/>
<polyline clip-path="url(#clip680)" style="stroke:#000000; stroke-linecap:round; stroke-linejoin:round; stroke-width:4; stroke-opacity:1; fill:none" points="
  382.644,546.589 401.541,546.589 
  "/>
<polyline clip-path="url(#clip680)" style="stroke:#000000; stroke-linecap:round; stroke-linejoin:round; stroke-width:4; stroke-opacity:1; fill:none" points="
  382.644,418.175 401.541,418.175 
  "/>
<polyline clip-path="url(#clip680)" style="stroke:#000000; stroke-linecap:round; stroke-linejoin:round; stroke-width:4; stroke-opacity:1; fill:none" points="
  382.644,289.76 401.541,289.76 
  "/>
<polyline clip-path="url(#clip680)" style="stroke:#000000; stroke-linecap:round; stroke-linejoin:round; stroke-width:4; stroke-opacity:1; fill:none" points="
  382.644,161.346 401.541,161.346 
  "/>
<polyline clip-path="url(#clip680)" style="stroke:#000000; stroke-linecap:round; stroke-linejoin:round; stroke-width:4; stroke-opacity:1; fill:none" points="
  382.644,32.9317 401.541,32.9317 
  "/>
<path clip-path="url(#clip680)" d="M324.248 1290.45 Q317.477 1290.45 314.048 1297.13 Q310.663 1303.77 310.663 1317.14 Q310.663 1330.46 314.048 1337.15 Q317.477 1343.79 324.248 1343.79 Q331.062 1343.79 334.448 1337.15 Q337.876 1330.46 337.876 1317.14 Q337.876 1303.77 334.448 1297.13 Q331.062 1290.45 324.248 1290.45 M324.248 1283.5 Q335.142 1283.5 340.871 1292.14 Q346.644 1300.73 346.644 1317.14 Q346.644 1333.5 340.871 1342.14 Q335.142 1350.73 324.248 1350.73 Q313.354 1350.73 307.581 1342.14 Q301.852 1333.5 301.852 1317.14 Q301.852 1300.73 307.581 1292.14 Q313.354 1283.5 324.248 1283.5 Z" fill="#000000" fill-rule="evenodd" fill-opacity="1" /><path clip-path="url(#clip680)" d="M242.434 1033.62 Q235.663 1033.62 232.235 1040.3 Q228.849 1046.94 228.849 1060.31 Q228.849 1073.64 232.235 1080.32 Q235.663 1086.96 242.434 1086.96 Q249.248 1086.96 252.634 1080.32 Q256.063 1073.64 256.063 1060.31 Q256.063 1046.94 252.634 1040.3 Q249.248 1033.62 242.434 1033.62 M242.434 1026.67 Q253.328 1026.67 259.057 1035.31 Q264.83 1043.9 264.83 1060.31 Q264.83 1076.67 259.057 1085.31 Q253.328 1093.9 242.434 1093.9 Q231.54 1093.9 225.768 1085.31 Q220.039 1076.67 220.039 1060.31 Q220.039 1043.9 225.768 1035.31 Q231.54 1026.67 242.434 1026.67 Z" fill="#000000" fill-rule="evenodd" fill-opacity="1" /><path clip-path="url(#clip680)" d="M280.238 1081.62 L289.396 1081.62 L289.396 1092.65 L280.238 1092.65 L280.238 1081.62 Z" fill="#000000" fill-rule="evenodd" fill-opacity="1" /><path clip-path="url(#clip680)" d="M316.045 1085.27 L346.644 1085.27 L346.644 1092.65 L305.498 1092.65 L305.498 1085.27 Q310.489 1080.1 319.083 1071.42 Q327.72 1062.7 329.934 1060.18 Q334.144 1055.45 335.793 1052.19 Q337.486 1048.9 337.486 1045.73 Q337.486 1040.56 333.84 1037.31 Q330.238 1034.05 324.422 1034.05 Q320.298 1034.05 315.698 1035.48 Q311.14 1036.92 305.932 1039.83 L305.932 1030.97 Q311.227 1028.84 315.828 1027.76 Q320.429 1026.67 324.248 1026.67 Q334.317 1026.67 340.307 1031.71 Q346.297 1036.74 346.297 1045.16 Q346.297 1049.16 344.777 1052.76 Q343.302 1056.32 339.352 1061.18 Q338.267 1062.44 332.451 1068.47 Q326.635 1074.46 316.045 1085.27 Z" fill="#000000" fill-rule="evenodd" fill-opacity="1" /><path clip-path="url(#clip680)" d="M238.528 776.79 Q231.757 776.79 228.328 783.474 Q224.943 790.115 224.943 803.482 Q224.943 816.807 228.328 823.491 Q231.757 830.132 238.528 830.132 Q245.342 830.132 248.728 823.491 Q252.156 816.807 252.156 803.482 Q252.156 790.115 248.728 783.474 Q245.342 776.79 238.528 776.79 M238.528 769.846 Q249.422 769.846 255.151 778.483 Q260.924 787.076 260.924 803.482 Q260.924 819.845 255.151 828.482 Q249.422 837.076 238.528 837.076 Q227.634 837.076 221.861 828.482 Q216.132 819.845 216.132 803.482 Q216.132 787.076 221.861 778.483 Q227.634 769.846 238.528 769.846 Z" fill="#000000" fill-rule="evenodd" fill-opacity="1" /><path clip-path="url(#clip680)" d="M276.332 824.793 L285.49 824.793 L285.49 835.817 L276.332 835.817 L276.332 824.793 Z" fill="#000000" fill-rule="evenodd" fill-opacity="1" /><path clip-path="url(#clip680)" d="M328.675 778.656 L306.54 813.248 L328.675 813.248 L328.675 778.656 M326.375 771.017 L337.399 771.017 L337.399 813.248 L346.644 813.248 L346.644 820.54 L337.399 820.54 L337.399 835.817 L328.675 835.817 L328.675 820.54 L299.422 820.54 L299.422 812.076 L326.375 771.017 Z" fill="#000000" fill-rule="evenodd" fill-opacity="1" /><path clip-path="url(#clip680)" d="M239.136 519.961 Q232.365 519.961 228.936 526.645 Q225.551 533.286 225.551 546.654 Q225.551 559.979 228.936 566.663 Q232.365 573.303 239.136 573.303 Q245.95 573.303 249.335 566.663 Q252.764 559.979 252.764 546.654 Q252.764 533.286 249.335 526.645 Q245.95 519.961 239.136 519.961 M239.136 513.017 Q250.03 513.017 255.759 521.654 Q261.531 530.248 261.531 546.654 Q261.531 563.017 255.759 571.654 Q250.03 580.247 239.136 580.247 Q228.242 580.247 222.469 571.654 Q216.74 563.017 216.74 546.654 Q216.74 530.248 222.469 521.654 Q228.242 513.017 239.136 513.017 Z" fill="#000000" fill-rule="evenodd" fill-opacity="1" /><path clip-path="url(#clip680)" d="M276.939 567.965 L286.097 567.965 L286.097 578.989 L276.939 578.989 L276.939 567.965 Z" fill="#000000" fill-rule="evenodd" fill-opacity="1" /><path clip-path="url(#clip680)" d="M325.029 543.095 Q319.127 543.095 315.654 547.131 Q312.226 551.168 312.226 558.199 Q312.226 565.187 315.654 569.267 Q319.127 573.303 325.029 573.303 Q330.932 573.303 334.361 569.267 Q337.833 565.187 337.833 558.199 Q337.833 551.168 334.361 547.131 Q330.932 543.095 325.029 543.095 M342.434 515.621 L342.434 523.607 Q339.135 522.045 335.75 521.22 Q332.408 520.395 329.109 520.395 Q320.429 520.395 315.828 526.255 Q311.271 532.114 310.62 543.963 Q313.18 540.187 317.043 538.19 Q320.906 536.151 325.55 536.151 Q335.316 536.151 340.958 542.097 Q346.644 547.999 346.644 558.199 Q346.644 568.182 340.741 574.215 Q334.838 580.247 325.029 580.247 Q313.788 580.247 307.842 571.654 Q301.896 563.017 301.896 546.654 Q301.896 531.289 309.187 522.175 Q316.479 513.017 328.762 513.017 Q332.06 513.017 335.402 513.668 Q338.788 514.319 342.434 515.621 Z" fill="#000000" fill-rule="evenodd" fill-opacity="1" /><path clip-path="url(#clip680)" d="M239.613 263.133 Q232.842 263.133 229.413 269.817 Q226.028 276.457 226.028 289.825 Q226.028 303.15 229.413 309.834 Q232.842 316.475 239.613 316.475 Q246.427 316.475 249.813 309.834 Q253.241 303.15 253.241 289.825 Q253.241 276.457 249.813 269.817 Q246.427 263.133 239.613 263.133 M239.613 256.188 Q250.507 256.188 256.236 264.826 Q262.009 273.419 262.009 289.825 Q262.009 306.188 256.236 314.825 Q250.507 323.419 239.613 323.419 Q228.719 323.419 222.946 314.825 Q217.217 306.188 217.217 289.825 Q217.217 273.419 222.946 264.826 Q228.719 256.188 239.613 256.188 Z" fill="#000000" fill-rule="evenodd" fill-opacity="1" /><path clip-path="url(#clip680)" d="M277.417 311.136 L286.575 311.136 L286.575 322.16 L277.417 322.16 L277.417 311.136 Z" fill="#000000" fill-rule="evenodd" fill-opacity="1" /><path clip-path="url(#clip680)" d="M324.422 291.388 Q318.172 291.388 314.569 294.73 Q311.01 298.072 311.01 303.931 Q311.01 309.791 314.569 313.133 Q318.172 316.475 324.422 316.475 Q330.672 316.475 334.274 313.133 Q337.876 309.747 337.876 303.931 Q337.876 298.072 334.274 294.73 Q330.715 291.388 324.422 291.388 M315.654 287.655 Q310.012 286.266 306.844 282.404 Q303.719 278.541 303.719 272.985 Q303.719 265.216 309.231 260.702 Q314.786 256.188 324.422 256.188 Q334.1 256.188 339.613 260.702 Q345.125 265.216 345.125 272.985 Q345.125 278.541 341.956 282.404 Q338.831 286.266 333.232 287.655 Q339.569 289.131 343.085 293.428 Q346.644 297.725 346.644 303.931 Q346.644 313.35 340.871 318.384 Q335.142 323.419 324.422 323.419 Q313.701 323.419 307.929 318.384 Q302.2 313.35 302.2 303.931 Q302.2 297.725 305.759 293.428 Q309.318 289.131 315.654 287.655 M312.443 273.81 Q312.443 278.845 315.568 281.666 Q318.736 284.487 324.422 284.487 Q330.064 284.487 333.232 281.666 Q336.444 278.845 336.444 273.81 Q336.444 268.775 333.232 265.954 Q330.064 263.133 324.422 263.133 Q318.736 263.133 315.568 265.954 Q312.443 268.775 312.443 273.81 Z" fill="#000000" fill-rule="evenodd" fill-opacity="1" /><path clip-path="url(#clip680)" d="M309.318 57.9533 L323.64 57.9533 L323.64 8.51778 L308.059 11.6428 L308.059 3.6567 L323.554 0.531716 L332.321 0.531716 L332.321 57.9533 L346.644 57.9533 L346.644 65.3317 L309.318 65.3317 L309.318 57.9533 Z" fill="#000000" fill-rule="evenodd" fill-opacity="1" /><path clip-path="url(#clip680)" d="M93.9289 674.403 Q94.7487 674.403 96.681 674.93 L142.472 686.407 Q152.661 688.925 159.805 697.123 Q166.948 705.262 166.948 714.514 Q166.948 720.077 163.962 723.648 Q161.034 727.22 156.525 727.22 Q152.544 727.22 150.611 725.112 Q148.737 723.004 148.737 720.486 Q148.737 719.667 148.972 718.788 Q149.206 717.91 150.201 716.973 Q151.197 716.036 152.895 716.036 Q155.647 716.036 157.814 718.437 Q158.809 719.608 159.043 720.721 Q159.277 721.775 159.277 723.59 Q160.917 722.887 162.03 721.599 Q163.142 720.311 163.552 718.847 Q164.021 717.383 164.138 716.446 Q164.313 715.451 164.313 714.514 Q164.313 707.019 156.76 701.28 Q154.476 699.582 152.192 698.352 Q149.967 697.064 147.215 696.127 Q144.521 695.19 143.057 694.78 Q141.594 694.312 138.256 693.492 Q143.702 698.938 143.702 705.613 Q143.702 708.424 142.94 710.942 Q142.179 713.401 140.598 715.568 Q138.959 717.734 136.089 719.023 Q133.22 720.252 129.414 720.252 Q125.374 720.252 119.869 718.671 Q114.365 717.09 104.235 713.284 Q98.5548 711.235 95.8027 711.235 Q94.4559 711.235 93.6361 711.527 Q92.7578 711.82 92.465 712.406 Q92.1136 712.991 92.0551 713.343 Q91.9965 713.635 91.9965 714.221 Q91.9965 717.676 95.5099 720.896 Q99.0233 724.117 106.87 726.342 Q108.334 726.81 108.685 727.103 Q109.036 727.396 109.036 728.274 Q108.978 729.738 107.807 729.738 Q107.338 729.738 105.523 729.211 Q103.649 728.684 100.897 727.455 Q98.0864 726.166 95.5685 724.41 Q92.992 722.653 91.1767 719.901 Q89.3615 717.09 89.3615 713.87 Q89.3615 709.478 92.2308 706.784 Q95.0414 704.032 99.1989 704.032 Q100.897 704.032 102.42 704.501 Q103.883 704.911 107.807 706.433 Q123.617 712.581 131.346 712.581 Q133.22 712.581 134.801 712.289 Q136.324 711.937 137.846 711.176 Q139.31 710.415 140.188 708.892 Q141.008 707.311 141.008 705.145 Q141.008 702.393 139.72 699.816 Q138.373 697.181 136.558 695.542 Q134.742 693.843 133.22 692.848 Q131.639 691.794 130.819 691.56 L109.271 686.173 L99.6674 683.772 Q94.4559 682.659 93.1676 682.132 Q91.938 681.43 91.2939 680.2 Q90.6497 678.97 90.6497 677.916 Q90.6497 676.452 91.5281 675.457 Q92.4064 674.403 93.9289 674.403 Z" fill="#000000" fill-rule="evenodd" fill-opacity="1" /><path clip-path="url(#clip682)" d="
M438.402 1317.07 L457.175 1317.07 L475.949 1317.07 L494.723 1317.07 L513.496 1304.1 L532.27 1304.1 L551.044 1291.13 L569.818 1278.16 L588.591 1278.16 L607.365 1265.19 
  L626.139 1252.22 L644.912 1226.28 L663.686 1135.48 L682.46 1148.45 L701.233 1161.42 L720.007 1161.42 L738.781 1174.39 L757.555 1200.33 L776.328 1317.07 L795.102 1317.07 
  L813.876 1317.07 L832.649 1317.07 L851.423 1317.07 L870.197 1317.07 L888.97 1317.07 L907.744 1317.07 L926.518 1317.07 L945.292 1317.07 L964.065 1304.1 L982.839 1226.28 
  L1001.61 1213.31 L1020.39 1213.31 L1039.16 1200.33 L1057.93 1174.39 L1076.71 1031.71 L1095.48 1018.74 L1114.25 1018.74 L1133.03 1005.77 L1151.8 992.796 L1170.58 811.2 
  L1189.35 850.113 L1208.12 876.056 L1226.9 889.027 L1245.67 1070.62 L1264.44 1109.54 L1283.22 1122.51 L1301.99 1122.51 L1320.77 1161.42 L1339.54 1213.31 L1358.31 1226.28 
  L1377.09 1239.25 L1395.86 1239.25 L1414.63 1239.25 L1433.41 1239.25 L1452.18 1239.25 L1470.96 1239.25 L1489.73 1239.25 L1508.5 1226.28 L1527.28 1226.28 L1546.05 1200.33 
  L1564.82 1161.42 L1583.6 1044.68 L1602.37 1031.71 L1621.14 1018.74 L1639.92 1005.77 L1658.69 979.825 L1677.47 940.911 L1696.24 914.969 L1715.01 603.662 L1733.79 590.691 
  L1752.56 564.748 L1771.33 551.777 L1790.11 564.748 L1808.88 577.72 L1827.66 590.691 L1846.43 603.662 L1865.2 1044.68 L1883.98 1057.65 L1902.75 1148.45 L1921.52 1174.39 
  L1940.3 1200.33 L1959.07 1213.31 L1977.85 1213.31 L1996.62 1226.28 L2015.39 1226.28 L2034.17 1239.25 L2052.94 1239.25 L2071.71 1239.25 L2090.49 1239.25 L2109.26 1239.25 
  L2128.03 1226.28 L2146.81 1161.42 L2165.58 1148.45 L2184.36 1135.48 L2203.13 966.854 L2221.9 940.911 L2240.68 616.633 L2259.45 616.633 L2278.22 603.662 L2297 629.604 
  L2297 616.633 L2278.22 577.72 L2259.45 564.748 L2240.68 551.777 L2221.9 538.806 L2203.13 538.806 L2184.36 538.806 L2165.58 538.806 L2146.81 564.748 L2128.03 577.72 
  L2109.26 889.027 L2090.49 914.969 L2071.71 927.94 L2052.94 1031.71 L2034.17 992.796 L2015.39 979.825 L1996.62 979.825 L1977.85 577.72 L1959.07 538.806 L1940.3 512.864 
  L1921.52 499.893 L1902.75 486.922 L1883.98 473.95 L1865.2 460.979 L1846.43 318.297 L1827.66 318.297 L1808.88 305.326 L1790.11 305.326 L1771.33 305.326 L1752.56 305.326 
  L1733.79 305.326 L1715.01 305.326 L1696.24 305.326 L1677.47 318.297 L1658.69 331.268 L1639.92 383.152 L1621.14 448.008 L1602.37 473.95 L1583.6 512.864 L1564.82 746.344 
  L1546.05 759.316 L1527.28 785.258 L1508.5 889.027 L1489.73 914.969 L1470.96 1096.57 L1452.18 1096.57 L1433.41 1031.71 L1414.63 1005.77 L1395.86 953.883 L1377.09 927.94 
  L1358.31 837.142 L1339.54 811.2 L1320.77 772.287 L1301.99 746.344 L1283.22 733.373 L1264.44 720.402 L1245.67 694.46 L1226.9 694.46 L1208.12 681.489 L1189.35 681.489 
  L1170.58 681.489 L1151.8 681.489 L1133.03 681.489 L1114.25 681.489 L1095.48 707.431 L1076.71 733.373 L1057.93 759.316 L1039.16 837.142 L1020.39 863.085 L1001.61 953.883 
  L982.839 966.854 L964.065 966.854 L945.292 992.796 L926.518 1083.59 L907.744 1096.57 L888.97 1109.54 L870.197 1109.54 L851.423 1109.54 L832.649 1109.54 L813.876 1096.57 
  L795.102 1096.57 L776.328 1018.74 L757.555 992.796 L738.781 979.825 L720.007 979.825 L701.233 979.825 L682.46 966.854 L663.686 966.854 L644.912 953.883 L626.139 953.883 
  L607.365 953.883 L588.591 940.911 L569.818 953.883 L551.044 953.883 L532.27 953.883 L513.496 966.854 L494.723 992.796 L475.949 1083.59 L457.175 1083.59 L438.402 1083.59 
   Z
  " fill="#0000ff" fill-rule="evenodd" fill-opacity="0.1"/>
<polyline clip-path="url(#clip682)" style="stroke:#0000ff; stroke-linecap:round; stroke-linejoin:round; stroke-width:0; stroke-opacity:1; fill:none" points="
  438.402,1317.07 457.175,1317.07 475.949,1317.07 494.723,1317.07 513.496,1304.1 532.27,1304.1 551.044,1291.13 569.818,1278.16 588.591,1278.16 607.365,1265.19 
  626.139,1252.22 644.912,1226.28 663.686,1135.48 682.46,1148.45 701.233,1161.42 720.007,1161.42 738.781,1174.39 757.555,1200.33 776.328,1317.07 795.102,1317.07 
  813.876,1317.07 832.649,1317.07 851.423,1317.07 870.197,1317.07 888.97,1317.07 907.744,1317.07 926.518,1317.07 945.292,1317.07 964.065,1304.1 982.839,1226.28 
  1001.61,1213.31 1020.39,1213.31 1039.16,1200.33 1057.93,1174.39 1076.71,1031.71 1095.48,1018.74 1114.25,1018.74 1133.03,1005.77 1151.8,992.796 1170.58,811.2 
  1189.35,850.113 1208.12,876.056 1226.9,889.027 1245.67,1070.62 1264.44,1109.54 1283.22,1122.51 1301.99,1122.51 1320.77,1161.42 1339.54,1213.31 1358.31,1226.28 
  1377.09,1239.25 1395.86,1239.25 1414.63,1239.25 1433.41,1239.25 1452.18,1239.25 1470.96,1239.25 1489.73,1239.25 1508.5,1226.28 1527.28,1226.28 1546.05,1200.33 
  1564.82,1161.42 1583.6,1044.68 1602.37,1031.71 1621.14,1018.74 1639.92,1005.77 1658.69,979.825 1677.47,940.911 1696.24,914.969 1715.01,603.662 1733.79,590.691 
  1752.56,564.748 1771.33,551.777 1790.11,564.748 1808.88,577.72 1827.66,590.691 1846.43,603.662 1865.2,1044.68 1883.98,1057.65 1902.75,1148.45 1921.52,1174.39 
  1940.3,1200.33 1959.07,1213.31 1977.85,1213.31 1996.62,1226.28 2015.39,1226.28 2034.17,1239.25 2052.94,1239.25 2071.71,1239.25 2090.49,1239.25 2109.26,1239.25 
  2128.03,1226.28 2146.81,1161.42 2165.58,1148.45 2184.36,1135.48 2203.13,966.854 2221.9,940.911 2240.68,616.633 2259.45,616.633 2278.22,603.662 2297,629.604 
  
  "/>
<polyline clip-path="url(#clip682)" style="stroke:#000000; stroke-linecap:round; stroke-linejoin:round; stroke-width:12; stroke-opacity:1; fill:none" points="
  438.402,1211.45 457.175,1204.3 475.949,1194.86 494.723,1183.42 513.496,1170.43 532.27,1156.48 551.044,1142.3 569.818,1128.63 588.591,1116.26 607.365,1105.94 
  626.139,1098.32 644.912,1093.91 663.686,1093.07 682.46,1095.94 701.233,1102.44 720.007,1112.25 738.781,1124.84 757.555,1139.46 776.328,1155.18 795.102,1170.93 
  813.876,1185.57 832.649,1197.9 851.423,1206.78 870.197,1211.15 888.97,1210.13 907.744,1203.02 926.518,1189.42 945.292,1169.18 964.065,1142.52 982.839,1109.95 
  1001.61,1072.3 1020.39,1030.73 1039.16,986.608 1057.93,941.538 1076.71,897.243 1095.48,855.505 1114.25,818.086 1133.03,786.64 1151.8,762.631 1170.58,747.256 
  1189.35,741.378 1208.12,745.474 1226.9,759.59 1245.67,783.326 1264.44,815.832 1283.22,855.831 1301.99,901.656 1320.77,951.314 1339.54,1002.56 1358.31,1052.97 
  1377.09,1100.1 1395.86,1141.52 1414.63,1174.95 1433.41,1198.41 1452.18,1210.25 1470.96,1209.27 1489.73,1194.78 1508.5,1166.67 1527.28,1125.4 1546.05,1072.01 
  1564.82,1008.1 1583.6,935.781 1602.37,857.587 1621.14,776.39 1639.92,695.279 1658.69,617.435 1677.47,545.998 1696.24,483.93 1715.01,433.88 1733.79,398.064 
  1752.56,378.157 1771.33,375.208 1790.11,389.571 1808.88,420.881 1827.66,468.043 1846.43,529.26 1865.2,602.095 1883.98,683.556 1902.75,770.208 1921.52,858.309 
  1940.3,943.962 1959.07,1023.27 1977.85,1092.52 1996.62,1148.32 2015.39,1187.76 2034.17,1208.55 2052.94,1209.14 2071.71,1188.78 2090.49,1147.57 2109.26,1086.52 
  2128.03,1007.46 2146.81,913.038 2165.58,806.586 2184.36,692.022 2203.13,573.686 2221.9,456.169 2240.68,344.122 2259.45,242.069 2278.22,154.207 2297,84.2294 
  
  "/>
<circle clip-path="url(#clip682)" cx="1658.73" cy="494.424" r="18" fill="#008000" fill-rule="evenodd" fill-opacity="1" stroke="#000000" stroke-opacity="1" stroke-width="3.2"/>
<circle clip-path="url(#clip682)" cx="596.678" cy="973.839" r="18" fill="#008000" fill-rule="evenodd" fill-opacity="1" stroke="#000000" stroke-opacity="1" stroke-width="3.2"/>
<circle clip-path="url(#clip682)" cx="1151.39" cy="756.378" r="18" fill="#008000" fill-rule="evenodd" fill-opacity="1" stroke="#000000" stroke-opacity="1" stroke-width="3.2"/>
<circle clip-path="url(#clip682)" cx="1335.92" cy="1093.19" r="18" fill="#008000" fill-rule="evenodd" fill-opacity="1" stroke="#000000" stroke-opacity="1" stroke-width="3.2"/>
<circle clip-path="url(#clip682)" cx="970.064" cy="1106.13" r="18" fill="#008000" fill-rule="evenodd" fill-opacity="1" stroke="#000000" stroke-opacity="1" stroke-width="3.2"/>
<circle clip-path="url(#clip682)" cx="1081.43" cy="972.456" r="18" fill="#008000" fill-rule="evenodd" fill-opacity="1" stroke="#000000" stroke-opacity="1" stroke-width="3.2"/>
<circle clip-path="url(#clip682)" cx="697.793" cy="1013.72" r="18" fill="#008000" fill-rule="evenodd" fill-opacity="1" stroke="#000000" stroke-opacity="1" stroke-width="3.2"/>
<circle clip-path="url(#clip682)" cx="2059.8" cy="1198.83" r="18" fill="#008000" fill-rule="evenodd" fill-opacity="1" stroke="#000000" stroke-opacity="1" stroke-width="3.2"/>
<circle clip-path="url(#clip682)" cx="506.385" cy="1238.44" r="18" fill="#008000" fill-rule="evenodd" fill-opacity="1" stroke="#000000" stroke-opacity="1" stroke-width="3.2"/>
<circle clip-path="url(#clip682)" cx="1806.77" cy="481.573" r="18" fill="#008000" fill-rule="evenodd" fill-opacity="1" stroke="#000000" stroke-opacity="1" stroke-width="3.2"/>
<circle clip-path="url(#clip682)" cx="860.191" cy="1317.07" r="18" fill="#008000" fill-rule="evenodd" fill-opacity="1" stroke="#000000" stroke-opacity="1" stroke-width="3.2"/>
<circle clip-path="url(#clip682)" cx="852.438" cy="1221.22" r="18" fill="#008000" fill-rule="evenodd" fill-opacity="1" stroke="#000000" stroke-opacity="1" stroke-width="3.2"/>
<circle clip-path="url(#clip682)" cx="1711.29" cy="334.485" r="18" fill="#008000" fill-rule="evenodd" fill-opacity="1" stroke="#000000" stroke-opacity="1" stroke-width="3.2"/>
<circle clip-path="url(#clip682)" cx="1859.22" cy="530.029" r="18" fill="#008000" fill-rule="evenodd" fill-opacity="1" stroke="#000000" stroke-opacity="1" stroke-width="3.2"/>
<circle clip-path="url(#clip682)" cx="1790.73" cy="329.157" r="18" fill="#008000" fill-rule="evenodd" fill-opacity="1" stroke="#000000" stroke-opacity="1" stroke-width="3.2"/>
<circle clip-path="url(#clip682)" cx="568.633" cy="988.704" r="18" fill="#008000" fill-rule="evenodd" fill-opacity="1" stroke="#000000" stroke-opacity="1" stroke-width="3.2"/>
<circle clip-path="url(#clip682)" cx="1024.89" cy="983.223" r="18" fill="#008000" fill-rule="evenodd" fill-opacity="1" stroke="#000000" stroke-opacity="1" stroke-width="3.2"/>
<circle clip-path="url(#clip682)" cx="1973.04" cy="1056.38" r="18" fill="#008000" fill-rule="evenodd" fill-opacity="1" stroke="#000000" stroke-opacity="1" stroke-width="3.2"/>
<circle clip-path="url(#clip682)" cx="837.039" cy="1143.91" r="18" fill="#008000" fill-rule="evenodd" fill-opacity="1" stroke="#000000" stroke-opacity="1" stroke-width="3.2"/>
<circle clip-path="url(#clip682)" cx="970.351" cy="1168.59" r="18" fill="#008000" fill-rule="evenodd" fill-opacity="1" stroke="#000000" stroke-opacity="1" stroke-width="3.2"/>
<circle clip-path="url(#clip682)" cx="1079.42" cy="860.981" r="18" fill="#008000" fill-rule="evenodd" fill-opacity="1" stroke="#000000" stroke-opacity="1" stroke-width="3.2"/>
<circle clip-path="url(#clip682)" cx="1321.76" cy="942.323" r="18" fill="#008000" fill-rule="evenodd" fill-opacity="1" stroke="#000000" stroke-opacity="1" stroke-width="3.2"/>
<circle clip-path="url(#clip682)" cx="1576.34" cy="1008.38" r="18" fill="#008000" fill-rule="evenodd" fill-opacity="1" stroke="#000000" stroke-opacity="1" stroke-width="3.2"/>
<circle clip-path="url(#clip682)" cx="970.537" cy="1176.46" r="18" fill="#008000" fill-rule="evenodd" fill-opacity="1" stroke="#000000" stroke-opacity="1" stroke-width="3.2"/>
<circle clip-path="url(#clip682)" cx="1957.86" cy="991.907" r="18" fill="#008000" fill-rule="evenodd" fill-opacity="1" stroke="#000000" stroke-opacity="1" stroke-width="3.2"/>
<circle clip-path="url(#clip682)" cx="1989.05" cy="1064" r="18" fill="#008000" fill-rule="evenodd" fill-opacity="1" stroke="#000000" stroke-opacity="1" stroke-width="3.2"/>
<circle clip-path="url(#clip682)" cx="2191.26" cy="572.944" r="18" fill="#008000" fill-rule="evenodd" fill-opacity="1" stroke="#000000" stroke-opacity="1" stroke-width="3.2"/>
<circle clip-path="url(#clip682)" cx="2116.8" cy="1111.15" r="18" fill="#008000" fill-rule="evenodd" fill-opacity="1" stroke="#000000" stroke-opacity="1" stroke-width="3.2"/>
<circle clip-path="url(#clip682)" cx="1702.22" cy="451.371" r="18" fill="#008000" fill-rule="evenodd" fill-opacity="1" stroke="#000000" stroke-opacity="1" stroke-width="3.2"/>
<circle clip-path="url(#clip682)" cx="1711.31" cy="425.963" r="18" fill="#008000" fill-rule="evenodd" fill-opacity="1" stroke="#000000" stroke-opacity="1" stroke-width="3.2"/>
<circle clip-path="url(#clip682)" cx="1348.88" cy="1024.73" r="18" fill="#008000" fill-rule="evenodd" fill-opacity="1" stroke="#000000" stroke-opacity="1" stroke-width="3.2"/>
<circle clip-path="url(#clip682)" cx="462.029" cy="1113.3" r="18" fill="#008000" fill-rule="evenodd" fill-opacity="1" stroke="#000000" stroke-opacity="1" stroke-width="3.2"/>
<circle clip-path="url(#clip682)" cx="1607.3" cy="760.877" r="18" fill="#008000" fill-rule="evenodd" fill-opacity="1" stroke="#000000" stroke-opacity="1" stroke-width="3.2"/>
<circle clip-path="url(#clip682)" cx="2140.32" cy="925.741" r="18" fill="#008000" fill-rule="evenodd" fill-opacity="1" stroke="#000000" stroke-opacity="1" stroke-width="3.2"/>
<circle clip-path="url(#clip682)" cx="1467.37" cy="1185.72" r="18" fill="#008000" fill-rule="evenodd" fill-opacity="1" stroke="#000000" stroke-opacity="1" stroke-width="3.2"/>
<circle clip-path="url(#clip682)" cx="1889.6" cy="561.443" r="18" fill="#008000" fill-rule="evenodd" fill-opacity="1" stroke="#000000" stroke-opacity="1" stroke-width="3.2"/>
<circle clip-path="url(#clip682)" cx="1613.6" cy="872.784" r="18" fill="#008000" fill-rule="evenodd" fill-opacity="1" stroke="#000000" stroke-opacity="1" stroke-width="3.2"/>
<circle clip-path="url(#clip682)" cx="576.716" cy="1229.22" r="18" fill="#008000" fill-rule="evenodd" fill-opacity="1" stroke="#000000" stroke-opacity="1" stroke-width="3.2"/>
<circle clip-path="url(#clip682)" cx="462.259" cy="1272.24" r="18" fill="#008000" fill-rule="evenodd" fill-opacity="1" stroke="#000000" stroke-opacity="1" stroke-width="3.2"/>
<circle clip-path="url(#clip682)" cx="604.852" cy="1080.66" r="18" fill="#008000" fill-rule="evenodd" fill-opacity="1" stroke="#000000" stroke-opacity="1" stroke-width="3.2"/>
<circle clip-path="url(#clip682)" cx="1567.14" cy="914.121" r="18" fill="#008000" fill-rule="evenodd" fill-opacity="1" stroke="#000000" stroke-opacity="1" stroke-width="3.2"/>
<circle clip-path="url(#clip682)" cx="725.573" cy="1118.79" r="18" fill="#008000" fill-rule="evenodd" fill-opacity="1" stroke="#000000" stroke-opacity="1" stroke-width="3.2"/>
<circle clip-path="url(#clip682)" cx="1403.97" cy="1202.17" r="18" fill="#008000" fill-rule="evenodd" fill-opacity="1" stroke="#000000" stroke-opacity="1" stroke-width="3.2"/>
<circle clip-path="url(#clip682)" cx="1284.08" cy="850.745" r="18" fill="#008000" fill-rule="evenodd" fill-opacity="1" stroke="#000000" stroke-opacity="1" stroke-width="3.2"/>
<circle clip-path="url(#clip682)" cx="1612.83" cy="927.94" r="18" fill="#008000" fill-rule="evenodd" fill-opacity="1" stroke="#000000" stroke-opacity="1" stroke-width="3.2"/>
<circle clip-path="url(#clip682)" cx="1255.95" cy="766.912" r="18" fill="#008000" fill-rule="evenodd" fill-opacity="1" stroke="#000000" stroke-opacity="1" stroke-width="3.2"/>
<circle clip-path="url(#clip682)" cx="1165.34" cy="713.165" r="18" fill="#008000" fill-rule="evenodd" fill-opacity="1" stroke="#000000" stroke-opacity="1" stroke-width="3.2"/>
<circle clip-path="url(#clip682)" cx="1992.57" cy="1166.85" r="18" fill="#008000" fill-rule="evenodd" fill-opacity="1" stroke="#000000" stroke-opacity="1" stroke-width="3.2"/>
<circle clip-path="url(#clip682)" cx="1683.8" cy="579.393" r="18" fill="#008000" fill-rule="evenodd" fill-opacity="1" stroke="#000000" stroke-opacity="1" stroke-width="3.2"/>
<circle clip-path="url(#clip682)" cx="1482.43" cy="1147.59" r="18" fill="#008000" fill-rule="evenodd" fill-opacity="1" stroke="#000000" stroke-opacity="1" stroke-width="3.2"/>
<polyline clip-path="url(#clip682)" style="stroke:#0000ff; stroke-linecap:round; stroke-linejoin:round; stroke-width:12; stroke-opacity:1; fill:none" stroke-dasharray="48, 24, 6, 24, 6, 24" points="
  438.402,1265.19 457.175,1265.19 475.949,1252.22 494.723,1252.22 513.496,1239.25 532.27,1239.25 551.044,1239.25 569.818,979.825 588.591,979.825 607.365,979.825 
  626.139,979.825 644.912,992.796 663.686,1005.77 682.46,1005.77 701.233,1018.74 720.007,1018.74 738.781,1122.51 757.555,1122.51 776.328,1122.51 795.102,1135.48 
  813.876,1317.07 832.649,1317.07 851.423,1317.07 870.197,1317.07 888.97,1317.07 907.744,1317.07 926.518,1161.42 945.292,1161.42 964.065,1161.42 982.839,1161.42 
  1001.61,1161.42 1020.39,979.825 1039.16,979.825 1057.93,979.825 1076.71,979.825 1095.48,979.825 1114.25,733.373 1133.03,733.373 1151.8,733.373 1170.58,733.373 
  1189.35,733.373 1208.12,746.344 1226.9,746.344 1245.67,759.316 1264.44,772.287 1283.22,850.113 1301.99,850.113 1320.77,1070.62 1339.54,1031.71 1358.31,1031.71 
  1377.09,1200.33 1395.86,1187.36 1414.63,1187.36 1433.41,1187.36 1452.18,1174.39 1470.96,1174.39 1489.73,1174.39 1508.5,1174.39 1527.28,1161.42 1546.05,914.969 
  1564.82,914.969 1583.6,901.998 1602.37,901.998 1621.14,901.998 1639.92,901.998 1658.69,460.979 1677.47,448.008 1696.24,448.008 1715.01,448.008 1733.79,448.008 
  1752.56,448.008 1771.33,331.268 1790.11,331.268 1808.88,499.893 1827.66,512.864 1846.43,525.835 1865.2,538.806 1883.98,538.806 1902.75,551.777 1921.52,551.777 
  1940.3,1044.68 1959.07,1057.65 1977.85,1057.65 1996.62,1057.65 2015.39,1057.65 2034.17,1187.36 2052.94,1187.36 2071.71,1187.36 2090.49,1187.36 2109.26,1122.51 
  2128.03,1109.54 2146.81,927.94 2165.58,927.94 2184.36,577.72 2203.13,577.72 2221.9,577.72 2240.68,577.72 2259.45,577.72 2278.22,590.691 2297,616.633 
  
  "/>
<polyline clip-path="url(#clip682)" style="stroke:#0000ff; stroke-linecap:round; stroke-linejoin:round; stroke-width:12; stroke-opacity:1; fill:none" points="
  438.402,1208.33 457.175,1209.65 475.949,1210.87 494.723,1190.8 513.496,1166.84 532.27,1139.45 551.044,1113.47 569.818,1092.79 588.591,1077.99 607.365,1067.33 
  626.139,1054.56 644.912,1041.23 663.686,1035.5 682.46,1046.55 701.233,1053.81 720.007,1065.41 738.781,1074.61 757.555,1097.2 776.328,1150.68 795.102,1190.9 
  813.876,1205.35 832.649,1217.09 851.423,1222.84 870.197,1223.66 888.97,1217.54 907.744,1202.45 926.518,1184.56 945.292,1161.26 964.065,1133.06 982.839,1116.11 
  1001.61,1095.81 1020.39,1053.47 1039.16,1008.57 1057.93,949.307 1076.71,899.87 1095.48,871.28 1114.25,839.69 1133.03,809.598 1151.8,781.79 1170.58,736.533 
  1189.35,744 1208.12,756.93 1226.9,774.513 1245.67,814.661 1264.44,873.253 1283.22,907.759 1301.99,935.452 1320.77,966.802 1339.54,1002.94 1358.31,1037.64 
  1377.09,1086.05 1395.86,1117.91 1414.63,1148.2 1433.41,1163.09 1452.18,1173.62 1470.96,1170.4 1489.73,1132.94 1508.5,1088.03 1527.28,1028.01 1546.05,970.464 
  1564.82,928.1 1583.6,884.14 1602.37,838.388 1621.14,784.79 1639.92,707.436 1658.69,622.125 1677.47,540.938 1696.24,479.789 1715.01,437.546 1733.79,425.902 
  1752.56,416.272 1771.33,415.758 1790.11,424.756 1808.88,443.658 1827.66,472.072 1846.43,498.615 1865.2,566.708 1883.98,625.569 1902.75,729.917 1921.52,846 
  1940.3,940.228 1959.07,1011.25 1977.85,1056.87 1996.62,1092.57 2015.39,1105.73 2034.17,1123.76 2052.94,1142.5 2071.71,1131.85 2090.49,1112.05 2109.26,1077.29 
  2128.03,1002.01 2146.81,917.058 2165.58,840.463 2184.36,786.345 2203.13,702.715 2221.9,647.987 2240.68,576.139 2259.45,581.98 2278.22,584.527 2297,616.368 
  
  "/>
</svg>
