<?xml version="1.0" encoding="utf-8"?>
<svg xmlns="http://www.w3.org/2000/svg" xmlns:xlink="http://www.w3.org/1999/xlink" width="600" height="400" viewBox="0 0 2400 1600">
<defs>
  <clipPath id="clip580">
    <rect x="0" y="0" width="2400" height="1600"/>
  </clipPath>
</defs>
<path clip-path="url(#clip580)" d="
M0 1600 L2400 1600 L2400 0 L0 0  Z
  " fill="#ffffff" fill-rule="evenodd" fill-opacity="1"/>
<defs>
  <clipPath id="clip581">
    <rect x="480" y="0" width="1681" height="1600"/>
  </clipPath>
</defs>
<defs>
  <clipPath id="clip582">
    <rect x="156" y="47" width="2197" height="1440"/>
  </clipPath>
</defs>
<path clip-path="url(#clip580)" d="
M156.598 1486.45 L2352.76 1486.45 L2352.76 47.2441 L156.598 47.2441  Z
  " fill="#ffffff" fill-rule="evenodd" fill-opacity="1"/>
<polyline clip-path="url(#clip582)" style="stroke:#000000; stroke-linecap:round; stroke-linejoin:round; stroke-width:2; stroke-opacity:0.1; fill:none" points="
  156.598,1486.45 156.598,47.2441 
  "/>
<polyline clip-path="url(#clip582)" style="stroke:#000000; stroke-linecap:round; stroke-linejoin:round; stroke-width:2; stroke-opacity:0.1; fill:none" points="
  595.83,1486.45 595.83,47.2441 
  "/>
<polyline clip-path="url(#clip582)" style="stroke:#000000; stroke-linecap:round; stroke-linejoin:round; stroke-width:2; stroke-opacity:0.1; fill:none" points="
  1035.06,1486.45 1035.06,47.2441 
  "/>
<polyline clip-path="url(#clip582)" style="stroke:#000000; stroke-linecap:round; stroke-linejoin:round; stroke-width:2; stroke-opacity:0.1; fill:none" points="
  1474.29,1486.45 1474.29,47.2441 
  "/>
<polyline clip-path="url(#clip582)" style="stroke:#000000; stroke-linecap:round; stroke-linejoin:round; stroke-width:2; stroke-opacity:0.1; fill:none" points="
  1913.52,1486.45 1913.52,47.2441 
  "/>
<polyline clip-path="url(#clip582)" style="stroke:#000000; stroke-linecap:round; stroke-linejoin:round; stroke-width:2; stroke-opacity:0.1; fill:none" points="
  2352.76,1486.45 2352.76,47.2441 
  "/>
<polyline clip-path="url(#clip580)" style="stroke:#000000; stroke-linecap:round; stroke-linejoin:round; stroke-width:4; stroke-opacity:1; fill:none" points="
  156.598,1486.45 2352.76,1486.45 
  "/>
<polyline clip-path="url(#clip580)" style="stroke:#000000; stroke-linecap:round; stroke-linejoin:round; stroke-width:4; stroke-opacity:1; fill:none" points="
  156.598,1486.45 156.598,1467.55 
  "/>
<polyline clip-path="url(#clip580)" style="stroke:#000000; stroke-linecap:round; stroke-linejoin:round; stroke-width:4; stroke-opacity:1; fill:none" points="
  595.83,1486.45 595.83,1467.55 
  "/>
<polyline clip-path="url(#clip580)" style="stroke:#000000; stroke-linecap:round; stroke-linejoin:round; stroke-width:4; stroke-opacity:1; fill:none" points="
  1035.06,1486.45 1035.06,1467.55 
  "/>
<polyline clip-path="url(#clip580)" style="stroke:#000000; stroke-linecap:round; stroke-linejoin:round; stroke-width:4; stroke-opacity:1; fill:none" points="
  1474.29,1486.45 1474.29,1467.55 
  "/>
<polyline clip-path="url(#clip580)" style="stroke:#000000; stroke-linecap:round; stroke-linejoin:round; stroke-width:4; stroke-opacity:1; fill:none" points="
  1913.52,1486.45 1913.52,1467.55 
  "/>
<polyline clip-path="url(#clip580)" style="stroke:#000000; stroke-linecap:round; stroke-linejoin:round; stroke-width:4; stroke-opacity:1; fill:none" points="
  2352.76,1486.45 2352.76,1467.55 
  "/>
<path clip-path="url(#clip580)" d="M133.983 1517.37 Q130.372 1517.37 128.543 1520.93 Q126.737 1524.47 126.737 1531.6 Q126.737 1538.71 128.543 1542.27 Q130.372 1545.82 133.983 1545.82 Q137.617 1545.82 139.422 1542.27 Q141.251 1538.71 141.251 1531.6 Q141.251 1524.47 139.422 1520.93 Q137.617 1517.37 133.983 1517.37 M133.983 1513.66 Q139.793 1513.66 142.848 1518.27 Q145.927 1522.85 145.927 1531.6 Q145.927 1540.33 142.848 1544.94 Q139.793 1549.52 133.983 1549.52 Q128.172 1549.52 125.094 1544.94 Q122.038 1540.33 122.038 1531.6 Q122.038 1522.85 125.094 1518.27 Q128.172 1513.66 133.983 1513.66 Z" fill="#000000" fill-rule="evenodd" fill-opacity="1" /><path clip-path="url(#clip580)" d="M154.145 1542.97 L159.029 1542.97 L159.029 1548.85 L154.145 1548.85 L154.145 1542.97 Z" fill="#000000" fill-rule="evenodd" fill-opacity="1" /><path clip-path="url(#clip580)" d="M179.214 1517.37 Q175.603 1517.37 173.774 1520.93 Q171.969 1524.47 171.969 1531.6 Q171.969 1538.71 173.774 1542.27 Q175.603 1545.82 179.214 1545.82 Q182.848 1545.82 184.654 1542.27 Q186.482 1538.71 186.482 1531.6 Q186.482 1524.47 184.654 1520.93 Q182.848 1517.37 179.214 1517.37 M179.214 1513.66 Q185.024 1513.66 188.08 1518.27 Q191.158 1522.85 191.158 1531.6 Q191.158 1540.33 188.08 1544.94 Q185.024 1549.52 179.214 1549.52 Q173.404 1549.52 170.325 1544.94 Q167.269 1540.33 167.269 1531.6 Q167.269 1522.85 170.325 1518.27 Q173.404 1513.66 179.214 1513.66 Z" fill="#000000" fill-rule="evenodd" fill-opacity="1" /><path clip-path="url(#clip580)" d="M574.013 1517.37 Q570.402 1517.37 568.573 1520.93 Q566.767 1524.47 566.767 1531.6 Q566.767 1538.71 568.573 1542.27 Q570.402 1545.82 574.013 1545.82 Q577.647 1545.82 579.453 1542.27 Q581.281 1538.71 581.281 1531.6 Q581.281 1524.47 579.453 1520.93 Q577.647 1517.37 574.013 1517.37 M574.013 1513.66 Q579.823 1513.66 582.878 1518.27 Q585.957 1522.85 585.957 1531.6 Q585.957 1540.33 582.878 1544.94 Q579.823 1549.52 574.013 1549.52 Q568.203 1549.52 565.124 1544.94 Q562.068 1540.33 562.068 1531.6 Q562.068 1522.85 565.124 1518.27 Q568.203 1513.66 574.013 1513.66 Z" fill="#000000" fill-rule="evenodd" fill-opacity="1" /><path clip-path="url(#clip580)" d="M594.175 1542.97 L599.059 1542.97 L599.059 1548.85 L594.175 1548.85 L594.175 1542.97 Z" fill="#000000" fill-rule="evenodd" fill-opacity="1" /><path clip-path="url(#clip580)" d="M613.272 1544.91 L629.591 1544.91 L629.591 1548.85 L607.647 1548.85 L607.647 1544.91 Q610.309 1542.16 614.892 1537.53 Q619.499 1532.88 620.679 1531.53 Q622.925 1529.01 623.804 1527.27 Q624.707 1525.51 624.707 1523.82 Q624.707 1521.07 622.762 1519.33 Q620.841 1517.6 617.739 1517.6 Q615.54 1517.6 613.087 1518.36 Q610.656 1519.13 607.878 1520.68 L607.878 1515.95 Q610.702 1514.82 613.156 1514.24 Q615.61 1513.66 617.647 1513.66 Q623.017 1513.66 626.212 1516.35 Q629.406 1519.03 629.406 1523.52 Q629.406 1525.65 628.596 1527.57 Q627.809 1529.47 625.702 1532.07 Q625.124 1532.74 622.022 1535.95 Q618.92 1539.15 613.272 1544.91 Z" fill="#000000" fill-rule="evenodd" fill-opacity="1" /><path clip-path="url(#clip580)" d="M1012.2 1517.37 Q1008.59 1517.37 1006.76 1520.93 Q1004.96 1524.47 1004.96 1531.6 Q1004.96 1538.71 1006.76 1542.27 Q1008.59 1545.82 1012.2 1545.82 Q1015.84 1545.82 1017.64 1542.27 Q1019.47 1538.71 1019.47 1531.6 Q1019.47 1524.47 1017.64 1520.93 Q1015.84 1517.37 1012.2 1517.37 M1012.2 1513.66 Q1018.01 1513.66 1021.07 1518.27 Q1024.15 1522.85 1024.15 1531.6 Q1024.15 1540.33 1021.07 1544.94 Q1018.01 1549.52 1012.2 1549.52 Q1006.39 1549.52 1003.31 1544.94 Q1000.26 1540.33 1000.26 1531.6 Q1000.26 1522.85 1003.31 1518.27 Q1006.39 1513.66 1012.2 1513.66 Z" fill="#000000" fill-rule="evenodd" fill-opacity="1" /><path clip-path="url(#clip580)" d="M1032.36 1542.97 L1037.25 1542.97 L1037.25 1548.85 L1032.36 1548.85 L1032.36 1542.97 Z" fill="#000000" fill-rule="evenodd" fill-opacity="1" /><path clip-path="url(#clip580)" d="M1060.28 1518.36 L1048.48 1536.81 L1060.28 1536.81 L1060.28 1518.36 M1059.05 1514.29 L1064.93 1514.29 L1064.93 1536.81 L1069.86 1536.81 L1069.86 1540.7 L1064.93 1540.7 L1064.93 1548.85 L1060.28 1548.85 L1060.28 1540.7 L1044.68 1540.7 L1044.68 1536.19 L1059.05 1514.29 Z" fill="#000000" fill-rule="evenodd" fill-opacity="1" /><path clip-path="url(#clip580)" d="M1451.6 1517.37 Q1447.99 1517.37 1446.16 1520.93 Q1444.35 1524.47 1444.35 1531.6 Q1444.35 1538.71 1446.16 1542.27 Q1447.99 1545.82 1451.6 1545.82 Q1455.23 1545.82 1457.04 1542.27 Q1458.86 1538.71 1458.86 1531.6 Q1458.86 1524.47 1457.04 1520.93 Q1455.23 1517.37 1451.6 1517.37 M1451.6 1513.66 Q1457.41 1513.66 1460.46 1518.27 Q1463.54 1522.85 1463.54 1531.6 Q1463.54 1540.33 1460.46 1544.94 Q1457.41 1549.52 1451.6 1549.52 Q1445.79 1549.52 1442.71 1544.94 Q1439.65 1540.33 1439.65 1531.6 Q1439.65 1522.85 1442.71 1518.27 Q1445.79 1513.66 1451.6 1513.66 Z" fill="#000000" fill-rule="evenodd" fill-opacity="1" /><path clip-path="url(#clip580)" d="M1471.76 1542.97 L1476.64 1542.97 L1476.64 1548.85 L1471.76 1548.85 L1471.76 1542.97 Z" fill="#000000" fill-rule="evenodd" fill-opacity="1" /><path clip-path="url(#clip580)" d="M1497.41 1529.7 Q1494.26 1529.7 1492.41 1531.86 Q1490.58 1534.01 1490.58 1537.76 Q1490.58 1541.49 1492.41 1543.66 Q1494.26 1545.82 1497.41 1545.82 Q1500.55 1545.82 1502.38 1543.66 Q1504.23 1541.49 1504.23 1537.76 Q1504.23 1534.01 1502.38 1531.86 Q1500.55 1529.7 1497.41 1529.7 M1506.69 1515.05 L1506.69 1519.31 Q1504.93 1518.48 1503.12 1518.04 Q1501.34 1517.6 1499.58 1517.6 Q1494.95 1517.6 1492.5 1520.72 Q1490.07 1523.85 1489.72 1530.17 Q1491.09 1528.15 1493.15 1527.09 Q1495.21 1526 1497.68 1526 Q1502.89 1526 1505.9 1529.17 Q1508.93 1532.32 1508.93 1537.76 Q1508.93 1543.08 1505.79 1546.3 Q1502.64 1549.52 1497.41 1549.52 Q1491.41 1549.52 1488.24 1544.94 Q1485.07 1540.33 1485.07 1531.6 Q1485.07 1523.41 1488.96 1518.55 Q1492.85 1513.66 1499.4 1513.66 Q1501.16 1513.66 1502.94 1514.01 Q1504.74 1514.36 1506.69 1515.05 Z" fill="#000000" fill-rule="evenodd" fill-opacity="1" /><path clip-path="url(#clip580)" d="M1890.96 1517.37 Q1887.34 1517.37 1885.52 1520.93 Q1883.71 1524.47 1883.71 1531.6 Q1883.71 1538.71 1885.52 1542.27 Q1887.34 1545.82 1890.96 1545.82 Q1894.59 1545.82 1896.39 1542.27 Q1898.22 1538.71 1898.22 1531.6 Q1898.22 1524.47 1896.39 1520.93 Q1894.59 1517.37 1890.96 1517.37 M1890.96 1513.66 Q1896.77 1513.66 1899.82 1518.27 Q1902.9 1522.85 1902.9 1531.6 Q1902.9 1540.33 1899.82 1544.94 Q1896.77 1549.52 1890.96 1549.52 Q1885.14 1549.52 1882.07 1544.94 Q1879.01 1540.33 1879.01 1531.6 Q1879.01 1522.85 1882.07 1518.27 Q1885.14 1513.66 1890.96 1513.66 Z" fill="#000000" fill-rule="evenodd" fill-opacity="1" /><path clip-path="url(#clip580)" d="M1911.12 1542.97 L1916 1542.97 L1916 1548.85 L1911.12 1548.85 L1911.12 1542.97 Z" fill="#000000" fill-rule="evenodd" fill-opacity="1" /><path clip-path="url(#clip580)" d="M1936.19 1532.44 Q1932.85 1532.44 1930.93 1534.22 Q1929.03 1536 1929.03 1539.13 Q1929.03 1542.25 1930.93 1544.03 Q1932.85 1545.82 1936.19 1545.82 Q1939.52 1545.82 1941.44 1544.03 Q1943.36 1542.23 1943.36 1539.13 Q1943.36 1536 1941.44 1534.22 Q1939.54 1532.44 1936.19 1532.44 M1931.51 1530.45 Q1928.5 1529.7 1926.81 1527.64 Q1925.14 1525.58 1925.14 1522.62 Q1925.14 1518.48 1928.08 1516.07 Q1931.05 1513.66 1936.19 1513.66 Q1941.35 1513.66 1944.29 1516.07 Q1947.23 1518.48 1947.23 1522.62 Q1947.23 1525.58 1945.54 1527.64 Q1943.87 1529.7 1940.89 1530.45 Q1944.26 1531.23 1946.14 1533.52 Q1948.04 1535.82 1948.04 1539.13 Q1948.04 1544.15 1944.96 1546.83 Q1941.9 1549.52 1936.19 1549.52 Q1930.47 1549.52 1927.39 1546.83 Q1924.33 1544.15 1924.33 1539.13 Q1924.33 1535.82 1926.23 1533.52 Q1928.13 1531.23 1931.51 1530.45 M1929.8 1523.06 Q1929.8 1525.75 1931.46 1527.25 Q1933.15 1528.76 1936.19 1528.76 Q1939.2 1528.76 1940.89 1527.25 Q1942.6 1525.75 1942.6 1523.06 Q1942.6 1520.38 1940.89 1518.87 Q1939.2 1517.37 1936.19 1517.37 Q1933.15 1517.37 1931.46 1518.87 Q1929.8 1520.38 1929.8 1523.06 Z" fill="#000000" fill-rule="evenodd" fill-opacity="1" /><path clip-path="url(#clip580)" d="M2319.91 1544.91 L2327.55 1544.91 L2327.55 1518.55 L2319.24 1520.21 L2319.24 1515.95 L2327.5 1514.29 L2332.18 1514.29 L2332.18 1544.91 L2339.82 1544.91 L2339.82 1548.85 L2319.91 1548.85 L2319.91 1544.91 Z" fill="#000000" fill-rule="evenodd" fill-opacity="1" /><path clip-path="url(#clip580)" d="M2349.26 1542.97 L2354.14 1542.97 L2354.14 1548.85 L2349.26 1548.85 L2349.26 1542.97 Z" fill="#000000" fill-rule="evenodd" fill-opacity="1" /><path clip-path="url(#clip580)" d="M2374.33 1517.37 Q2370.72 1517.37 2368.89 1520.93 Q2367.08 1524.47 2367.08 1531.6 Q2367.08 1538.71 2368.89 1542.27 Q2370.72 1545.82 2374.33 1545.82 Q2377.96 1545.82 2379.77 1542.27 Q2381.6 1538.71 2381.6 1531.6 Q2381.6 1524.47 2379.77 1520.93 Q2377.96 1517.37 2374.33 1517.37 M2374.33 1513.66 Q2380.14 1513.66 2383.2 1518.27 Q2386.27 1522.85 2386.27 1531.6 Q2386.27 1540.33 2383.2 1544.94 Q2380.14 1549.52 2374.33 1549.52 Q2368.52 1549.52 2365.44 1544.94 Q2362.39 1540.33 2362.39 1531.6 Q2362.39 1522.85 2365.44 1518.27 Q2368.52 1513.66 2374.33 1513.66 Z" fill="#000000" fill-rule="evenodd" fill-opacity="1" /><polyline clip-path="url(#clip582)" style="stroke:#000000; stroke-linecap:round; stroke-linejoin:round; stroke-width:2; stroke-opacity:0.1; fill:none" points="
  156.598,1486.45 2352.76,1486.45 
  "/>
<polyline clip-path="url(#clip582)" style="stroke:#000000; stroke-linecap:round; stroke-linejoin:round; stroke-width:2; stroke-opacity:0.1; fill:none" points="
  156.598,1198.61 2352.76,1198.61 
  "/>
<polyline clip-path="url(#clip582)" style="stroke:#000000; stroke-linecap:round; stroke-linejoin:round; stroke-width:2; stroke-opacity:0.1; fill:none" points="
  156.598,910.766 2352.76,910.766 
  "/>
<polyline clip-path="url(#clip582)" style="stroke:#000000; stroke-linecap:round; stroke-linejoin:round; stroke-width:2; stroke-opacity:0.1; fill:none" points="
  156.598,622.926 2352.76,622.926 
  "/>
<polyline clip-path="url(#clip582)" style="stroke:#000000; stroke-linecap:round; stroke-linejoin:round; stroke-width:2; stroke-opacity:0.1; fill:none" points="
  156.598,335.085 2352.76,335.085 
  "/>
<polyline clip-path="url(#clip582)" style="stroke:#000000; stroke-linecap:round; stroke-linejoin:round; stroke-width:2; stroke-opacity:0.1; fill:none" points="
  156.598,47.2441 2352.76,47.2441 
  "/>
<polyline clip-path="url(#clip580)" style="stroke:#000000; stroke-linecap:round; stroke-linejoin:round; stroke-width:4; stroke-opacity:1; fill:none" points="
  156.598,1486.45 156.598,47.2441 
  "/>
<polyline clip-path="url(#clip580)" style="stroke:#000000; stroke-linecap:round; stroke-linejoin:round; stroke-width:4; stroke-opacity:1; fill:none" points="
  156.598,1486.45 175.496,1486.45 
  "/>
<polyline clip-path="url(#clip580)" style="stroke:#000000; stroke-linecap:round; stroke-linejoin:round; stroke-width:4; stroke-opacity:1; fill:none" points="
  156.598,1198.61 175.496,1198.61 
  "/>
<polyline clip-path="url(#clip580)" style="stroke:#000000; stroke-linecap:round; stroke-linejoin:round; stroke-width:4; stroke-opacity:1; fill:none" points="
  156.598,910.766 175.496,910.766 
  "/>
<polyline clip-path="url(#clip580)" style="stroke:#000000; stroke-linecap:round; stroke-linejoin:round; stroke-width:4; stroke-opacity:1; fill:none" points="
  156.598,622.926 175.496,622.926 
  "/>
<polyline clip-path="url(#clip580)" style="stroke:#000000; stroke-linecap:round; stroke-linejoin:round; stroke-width:4; stroke-opacity:1; fill:none" points="
  156.598,335.085 175.496,335.085 
  "/>
<polyline clip-path="url(#clip580)" style="stroke:#000000; stroke-linecap:round; stroke-linejoin:round; stroke-width:4; stroke-opacity:1; fill:none" points="
  156.598,47.2441 175.496,47.2441 
  "/>
<path clip-path="url(#clip580)" d="M63.4226 1472.25 Q59.8115 1472.25 57.9828 1475.81 Q56.1773 1479.35 56.1773 1486.48 Q56.1773 1493.59 57.9828 1497.15 Q59.8115 1500.7 63.4226 1500.7 Q67.0569 1500.7 68.8624 1497.15 Q70.6911 1493.59 70.6911 1486.48 Q70.6911 1479.35 68.8624 1475.81 Q67.0569 1472.25 63.4226 1472.25 M63.4226 1468.54 Q69.2328 1468.54 72.2883 1473.15 Q75.367 1477.73 75.367 1486.48 Q75.367 1495.21 72.2883 1499.82 Q69.2328 1504.4 63.4226 1504.4 Q57.6125 1504.4 54.5338 1499.82 Q51.4782 1495.21 51.4782 1486.48 Q51.4782 1477.73 54.5338 1473.15 Q57.6125 1468.54 63.4226 1468.54 Z" fill="#000000" fill-rule="evenodd" fill-opacity="1" /><path clip-path="url(#clip580)" d="M83.5845 1497.85 L88.4688 1497.85 L88.4688 1503.73 L83.5845 1503.73 L83.5845 1497.85 Z" fill="#000000" fill-rule="evenodd" fill-opacity="1" /><path clip-path="url(#clip580)" d="M108.654 1472.25 Q105.043 1472.25 103.214 1475.81 Q101.409 1479.35 101.409 1486.48 Q101.409 1493.59 103.214 1497.15 Q105.043 1500.7 108.654 1500.7 Q112.288 1500.7 114.094 1497.15 Q115.922 1493.59 115.922 1486.48 Q115.922 1479.35 114.094 1475.81 Q112.288 1472.25 108.654 1472.25 M108.654 1468.54 Q114.464 1468.54 117.52 1473.15 Q120.598 1477.73 120.598 1486.48 Q120.598 1495.21 117.52 1499.82 Q114.464 1504.4 108.654 1504.4 Q102.844 1504.4 99.765 1499.82 Q96.7095 1495.21 96.7095 1486.48 Q96.7095 1477.73 99.765 1473.15 Q102.844 1468.54 108.654 1468.54 Z" fill="#000000" fill-rule="evenodd" fill-opacity="1" /><path clip-path="url(#clip580)" d="M65.0198 1184.41 Q61.4087 1184.41 59.58 1187.97 Q57.7745 1191.51 57.7745 1198.64 Q57.7745 1205.75 59.58 1209.31 Q61.4087 1212.85 65.0198 1212.85 Q68.6541 1212.85 70.4596 1209.31 Q72.2883 1205.75 72.2883 1198.64 Q72.2883 1191.51 70.4596 1187.97 Q68.6541 1184.41 65.0198 1184.41 M65.0198 1180.7 Q70.83 1180.7 73.8855 1185.31 Q76.9642 1189.89 76.9642 1198.64 Q76.9642 1207.37 73.8855 1211.98 Q70.83 1216.56 65.0198 1216.56 Q59.2097 1216.56 56.131 1211.98 Q53.0754 1207.37 53.0754 1198.64 Q53.0754 1189.89 56.131 1185.31 Q59.2097 1180.7 65.0198 1180.7 Z" fill="#000000" fill-rule="evenodd" fill-opacity="1" /><path clip-path="url(#clip580)" d="M85.1818 1210.01 L90.066 1210.01 L90.066 1215.89 L85.1818 1215.89 L85.1818 1210.01 Z" fill="#000000" fill-rule="evenodd" fill-opacity="1" /><path clip-path="url(#clip580)" d="M104.279 1211.95 L120.598 1211.95 L120.598 1215.89 L98.6539 1215.89 L98.6539 1211.95 Q101.316 1209.2 105.899 1204.57 Q110.506 1199.91 111.686 1198.57 Q113.932 1196.05 114.811 1194.31 Q115.714 1192.55 115.714 1190.86 Q115.714 1188.11 113.77 1186.37 Q111.848 1184.64 108.746 1184.64 Q106.547 1184.64 104.094 1185.4 Q101.663 1186.17 98.8854 1187.72 L98.8854 1182.99 Q101.709 1181.86 104.163 1181.28 Q106.617 1180.7 108.654 1180.7 Q114.024 1180.7 117.219 1183.39 Q120.413 1186.07 120.413 1190.56 Q120.413 1192.69 119.603 1194.61 Q118.816 1196.51 116.709 1199.1 Q116.131 1199.78 113.029 1202.99 Q109.927 1206.19 104.279 1211.95 Z" fill="#000000" fill-rule="evenodd" fill-opacity="1" /><path clip-path="url(#clip580)" d="M62.9365 896.565 Q59.3254 896.565 57.4967 900.13 Q55.6912 903.671 55.6912 910.801 Q55.6912 917.908 57.4967 921.472 Q59.3254 925.014 62.9365 925.014 Q66.5707 925.014 68.3763 921.472 Q70.205 917.908 70.205 910.801 Q70.205 903.671 68.3763 900.13 Q66.5707 896.565 62.9365 896.565 M62.9365 892.861 Q68.7467 892.861 71.8022 897.468 Q74.8809 902.051 74.8809 910.801 Q74.8809 919.528 71.8022 924.134 Q68.7467 928.718 62.9365 928.718 Q57.1264 928.718 54.0477 924.134 Q50.9921 919.528 50.9921 910.801 Q50.9921 902.051 54.0477 897.468 Q57.1264 892.861 62.9365 892.861 Z" fill="#000000" fill-rule="evenodd" fill-opacity="1" /><path clip-path="url(#clip580)" d="M83.0984 922.167 L87.9827 922.167 L87.9827 928.046 L83.0984 928.046 L83.0984 922.167 Z" fill="#000000" fill-rule="evenodd" fill-opacity="1" /><path clip-path="url(#clip580)" d="M111.015 897.56 L99.2095 916.009 L111.015 916.009 L111.015 897.56 M109.788 893.486 L115.668 893.486 L115.668 916.009 L120.598 916.009 L120.598 919.898 L115.668 919.898 L115.668 928.046 L111.015 928.046 L111.015 919.898 L95.4132 919.898 L95.4132 915.384 L109.788 893.486 Z" fill="#000000" fill-rule="evenodd" fill-opacity="1" /><path clip-path="url(#clip580)" d="M63.2606 608.724 Q59.6495 608.724 57.8208 612.289 Q56.0152 615.831 56.0152 622.96 Q56.0152 630.067 57.8208 633.632 Q59.6495 637.173 63.2606 637.173 Q66.8948 637.173 68.7004 633.632 Q70.5291 630.067 70.5291 622.96 Q70.5291 615.831 68.7004 612.289 Q66.8948 608.724 63.2606 608.724 M63.2606 605.021 Q69.0707 605.021 72.1263 609.627 Q75.205 614.21 75.205 622.96 Q75.205 631.687 72.1263 636.294 Q69.0707 640.877 63.2606 640.877 Q57.4504 640.877 54.3717 636.294 Q51.3162 631.687 51.3162 622.96 Q51.3162 614.21 54.3717 609.627 Q57.4504 605.021 63.2606 605.021 Z" fill="#000000" fill-rule="evenodd" fill-opacity="1" /><path clip-path="url(#clip580)" d="M83.4225 634.326 L88.3067 634.326 L88.3067 640.206 L83.4225 640.206 L83.4225 634.326 Z" fill="#000000" fill-rule="evenodd" fill-opacity="1" /><path clip-path="url(#clip580)" d="M109.071 621.062 Q105.922 621.062 104.071 623.215 Q102.242 625.368 102.242 629.118 Q102.242 632.845 104.071 635.02 Q105.922 637.173 109.071 637.173 Q112.219 637.173 114.047 635.02 Q115.899 632.845 115.899 629.118 Q115.899 625.368 114.047 623.215 Q112.219 621.062 109.071 621.062 M118.353 606.409 L118.353 610.669 Q116.594 609.835 114.788 609.396 Q113.006 608.956 111.246 608.956 Q106.617 608.956 104.163 612.081 Q101.733 615.206 101.385 621.525 Q102.751 619.511 104.811 618.446 Q106.871 617.359 109.348 617.359 Q114.557 617.359 117.566 620.53 Q120.598 623.678 120.598 629.118 Q120.598 634.442 117.45 637.659 Q114.302 640.877 109.071 640.877 Q103.075 640.877 99.9039 636.294 Q96.7326 631.687 96.7326 622.96 Q96.7326 614.766 100.621 609.905 Q104.51 605.021 111.061 605.021 Q112.82 605.021 114.603 605.368 Q116.408 605.715 118.353 606.409 Z" fill="#000000" fill-rule="evenodd" fill-opacity="1" /><path clip-path="url(#clip580)" d="M63.5152 320.884 Q59.9041 320.884 58.0754 324.448 Q56.2699 327.99 56.2699 335.12 Q56.2699 342.226 58.0754 345.791 Q59.9041 349.332 63.5152 349.332 Q67.1494 349.332 68.955 345.791 Q70.7837 342.226 70.7837 335.12 Q70.7837 327.99 68.955 324.448 Q67.1494 320.884 63.5152 320.884 M63.5152 317.18 Q69.3254 317.18 72.3809 321.786 Q75.4596 326.37 75.4596 335.12 Q75.4596 343.846 72.3809 348.453 Q69.3254 353.036 63.5152 353.036 Q57.7051 353.036 54.6264 348.453 Q51.5708 343.846 51.5708 335.12 Q51.5708 326.37 54.6264 321.786 Q57.7051 317.18 63.5152 317.18 Z" fill="#000000" fill-rule="evenodd" fill-opacity="1" /><path clip-path="url(#clip580)" d="M83.6771 346.485 L88.5614 346.485 L88.5614 352.365 L83.6771 352.365 L83.6771 346.485 Z" fill="#000000" fill-rule="evenodd" fill-opacity="1" /><path clip-path="url(#clip580)" d="M108.746 335.953 Q105.413 335.953 103.492 337.735 Q101.594 339.518 101.594 342.643 Q101.594 345.768 103.492 347.55 Q105.413 349.332 108.746 349.332 Q112.08 349.332 114.001 347.55 Q115.922 345.745 115.922 342.643 Q115.922 339.518 114.001 337.735 Q112.103 335.953 108.746 335.953 M104.071 333.962 Q101.061 333.221 99.3715 331.161 Q97.7048 329.101 97.7048 326.138 Q97.7048 321.995 100.645 319.587 Q103.608 317.18 108.746 317.18 Q113.908 317.18 116.848 319.587 Q119.788 321.995 119.788 326.138 Q119.788 329.101 118.098 331.161 Q116.432 333.221 113.445 333.962 Q116.825 334.749 118.7 337.041 Q120.598 339.333 120.598 342.643 Q120.598 347.666 117.52 350.351 Q114.464 353.036 108.746 353.036 Q103.029 353.036 99.9502 350.351 Q96.8947 347.666 96.8947 342.643 Q96.8947 339.333 98.7928 337.041 Q100.691 334.749 104.071 333.962 M102.358 326.578 Q102.358 329.263 104.024 330.768 Q105.714 332.272 108.746 332.272 Q111.756 332.272 113.445 330.768 Q115.158 329.263 115.158 326.578 Q115.158 323.893 113.445 322.388 Q111.756 320.884 108.746 320.884 Q105.714 320.884 104.024 322.388 Q102.358 323.893 102.358 326.578 Z" fill="#000000" fill-rule="evenodd" fill-opacity="1" /><path clip-path="url(#clip580)" d="M54.2328 60.5889 L61.8717 60.5889 L61.8717 34.2233 L53.5616 35.89 L53.5616 31.6308 L61.8254 29.9641 L66.5013 29.9641 L66.5013 60.5889 L74.1402 60.5889 L74.1402 64.5241 L54.2328 64.5241 L54.2328 60.5889 Z" fill="#000000" fill-rule="evenodd" fill-opacity="1" /><path clip-path="url(#clip580)" d="M83.5845 58.6445 L88.4688 58.6445 L88.4688 64.5241 L83.5845 64.5241 L83.5845 58.6445 Z" fill="#000000" fill-rule="evenodd" fill-opacity="1" /><path clip-path="url(#clip580)" d="M108.654 33.0428 Q105.043 33.0428 103.214 36.6076 Q101.409 40.1492 101.409 47.2788 Q101.409 54.3853 103.214 57.9501 Q105.043 61.4917 108.654 61.4917 Q112.288 61.4917 114.094 57.9501 Q115.922 54.3853 115.922 47.2788 Q115.922 40.1492 114.094 36.6076 Q112.288 33.0428 108.654 33.0428 M108.654 29.3391 Q114.464 29.3391 117.52 33.9456 Q120.598 38.5289 120.598 47.2788 Q120.598 56.0056 117.52 60.6121 Q114.464 65.1954 108.654 65.1954 Q102.844 65.1954 99.765 60.6121 Q96.7095 56.0056 96.7095 47.2788 Q96.7095 38.5289 99.765 33.9456 Q102.844 29.3391 108.654 29.3391 Z" fill="#000000" fill-rule="evenodd" fill-opacity="1" /><polyline clip-path="url(#clip582)" style="stroke:#0000ff; stroke-linecap:round; stroke-linejoin:round; stroke-width:12; stroke-opacity:1; fill:none" stroke-dasharray="48, 24, 6, 24, 6, 24" points="
  4548.91,-1391.96 4548.91,-1391.96 
  "/>
<polyline clip-path="url(#clip582)" style="stroke:#0000ff; stroke-linecap:round; stroke-linejoin:round; stroke-width:12; stroke-opacity:1; fill:none" stroke-dasharray="48, 30" points="
  4548.91,-1391.96 4548.91,-1391.96 
  "/>
<polyline clip-path="url(#clip582)" style="stroke:#0000ff; stroke-linecap:round; stroke-linejoin:round; stroke-width:12; stroke-opacity:1; fill:none" points="
  4548.91,-1391.96 4548.91,-1391.96 
  "/>
<path clip-path="url(#clip580)" d="
M1428.47 743.218 L2279.55 743.218 L2279.55 95.2176 L1428.47 95.2176  Z
  " fill="#ffffff" fill-rule="evenodd" fill-opacity="1"/>
<polyline clip-path="url(#clip580)" style="stroke:#000000; stroke-linecap:round; stroke-linejoin:round; stroke-width:4; stroke-opacity:1; fill:none" points="
  1428.47,743.218 2279.55,743.218 2279.55,95.2176 1428.47,95.2176 1428.47,743.218 
  "/>
<polyline clip-path="url(#clip580)" style="stroke:#000000; stroke-linecap:round; stroke-linejoin:round; stroke-width:10; stroke-opacity:1; fill:none" points="
  1452.87,224.818 1599.28,224.818 
  "/>
<path clip-path="url(#clip580)" d="M1683.47 178.214 Q1683.47 181.435 1681.42 183.426 Q1679.43 185.417 1676.91 185.417 Q1675.1 185.417 1673.75 184.304 Q1672.46 183.192 1672.46 181.259 Q1672.46 179.268 1673.99 177.16 Q1675.51 175.052 1678.96 174.759 Q1676.68 172.593 1673.05 172.593 Q1671.23 172.593 1669.71 173.764 Q1668.25 174.877 1667.43 176.692 Q1666.55 178.566 1664.56 189.164 Q1663.91 192.619 1663.33 195.957 Q1662.74 199.294 1662.04 202.808 L1671.99 202.808 Q1673.28 202.808 1673.81 202.866 Q1674.34 202.925 1674.75 203.218 Q1675.22 203.51 1675.22 204.155 Q1675.22 205.794 1674.45 206.204 Q1673.75 206.555 1671.64 206.555 L1661.34 206.555 L1654.14 244.558 Q1653.96 245.671 1653.2 249.184 Q1652.5 252.639 1650.8 258.319 Q1649.1 264.058 1647.4 267.454 Q1646.46 269.386 1645.23 271.201 Q1644.06 273.075 1642.37 274.949 Q1640.67 276.823 1638.44 277.935 Q1636.22 279.106 1633.87 279.106 Q1629.89 279.106 1626.79 276.881 Q1623.69 274.656 1623.69 270.85 Q1623.69 267.629 1625.68 265.639 Q1627.73 263.648 1630.24 263.648 Q1632.06 263.648 1633.35 264.76 Q1634.69 265.873 1634.69 267.805 Q1634.69 268.625 1634.4 269.562 Q1634.11 270.499 1633.46 271.553 Q1632.82 272.665 1631.42 273.426 Q1630.01 274.188 1628.08 274.305 Q1630.36 276.471 1633.87 276.471 Q1634.99 276.471 1635.98 276.003 Q1636.98 275.593 1637.8 274.539 Q1638.68 273.485 1639.32 272.431 Q1639.96 271.436 1640.61 269.503 Q1641.25 267.629 1641.66 266.224 Q1642.07 264.819 1642.6 262.301 Q1643.19 259.783 1643.48 258.26 Q1643.77 256.797 1644.3 253.927 L1653.26 206.555 L1645.35 206.555 Q1643.95 206.555 1643.36 206.497 Q1642.83 206.438 1642.42 206.146 Q1642.01 205.794 1642.01 205.092 Q1642.01 203.979 1642.48 203.51 Q1643.01 202.983 1643.6 202.925 Q1644.18 202.808 1645.59 202.808 L1653.9 202.808 Q1656.71 187.993 1657.82 184.011 Q1659.11 179.795 1661.1 176.867 Q1663.09 173.881 1665.32 172.476 Q1667.54 171.07 1669.36 170.543 Q1671.23 169.958 1673.05 169.958 Q1677.15 169.958 1680.31 172.183 Q1683.47 174.35 1683.47 178.214 Z" fill="#000000" fill-rule="evenodd" fill-opacity="1" /><polyline clip-path="url(#clip580)" style="stroke:#0000ff; stroke-linecap:round; stroke-linejoin:round; stroke-width:10; stroke-opacity:1; fill:none" stroke-dasharray="40, 20, 5, 20, 5, 20" points="
  1452.87,354.418 1599.28,354.418 
  "/>
<path clip-path="url(#clip580)" d="M1623.69 414.094 L1623.69 294.171 L1641.78 294.171 L1641.78 296.923 L1631.71 296.923 L1631.71 411.341 L1641.78 411.341 L1641.78 414.094 L1623.69 414.094 Z" fill="#000000" fill-rule="evenodd" fill-opacity="1" /><path clip-path="url(#clip580)" d="M1731.75 305.823 L1729.35 326.552 Q1729.17 328.426 1728.88 329.012 Q1728.59 329.539 1727.65 329.539 Q1726.24 329.539 1726.24 328.133 Q1726.24 327.548 1726.48 325.967 Q1726.83 322.746 1726.83 319.467 Q1726.83 315.778 1726.13 313.494 Q1725.48 311.152 1723.61 309.454 Q1721.73 307.756 1718.28 307.053 Q1714.83 306.292 1709.32 306.292 L1693.51 306.292 Q1689.65 306.292 1688.71 306.994 Q1687.83 307.697 1687.01 310.976 L1679.34 341.425 L1690.23 341.425 Q1697.84 341.425 1700.83 339.2 Q1703.82 336.975 1705.69 329.89 Q1705.98 328.777 1706.1 328.367 Q1706.28 327.899 1706.57 327.665 Q1706.92 327.372 1707.51 327.372 Q1708.03 327.372 1708.38 327.723 Q1708.74 328.016 1708.85 328.367 L1708.97 328.719 Q1708.97 329.304 1708.62 330.651 L1702 356.65 Q1701.53 358.407 1701.24 358.817 Q1701.01 359.168 1700.19 359.168 Q1699.6 359.168 1699.19 358.758 Q1698.78 358.348 1698.78 357.704 Q1698.9 357.001 1699.13 356.416 Q1699.95 352.844 1699.95 350.56 Q1699.95 349.096 1699.66 348.218 Q1699.37 347.34 1698.37 346.578 Q1697.38 345.817 1695.33 345.466 Q1693.28 345.114 1690 345.114 L1678.4 345.114 L1670.97 374.978 L1670.44 377.73 Q1670.44 378.96 1671.08 379.428 Q1671.79 379.897 1674.3 380.131 Q1678.05 380.424 1680.51 380.424 Q1683.56 380.424 1683.91 380.541 Q1684.61 380.892 1684.61 381.829 Q1684.61 382.883 1684.14 383.469 Q1683.67 383.996 1683.26 384.054 Q1682.85 384.113 1682.09 384.113 L1664.23 383.762 L1648.42 384.113 Q1646.61 384.113 1646.61 382.649 Q1646.61 381.536 1647.08 381.068 Q1647.54 380.541 1648.07 380.482 Q1648.6 380.424 1649.94 380.424 Q1652.87 380.424 1654.63 380.248 Q1656.39 380.072 1657.5 379.838 Q1658.67 379.545 1659.26 378.726 Q1659.9 377.906 1660.19 377.203 Q1660.49 376.442 1660.89 374.744 L1676.71 311.328 Q1677.29 309.161 1677.29 308.458 Q1677.29 307.697 1676.76 307.229 Q1676.3 306.76 1675.01 306.585 Q1673.72 306.35 1672.66 306.35 Q1671.67 306.292 1669.5 306.292 Q1668.1 306.292 1667.51 306.233 Q1666.98 306.175 1666.57 305.882 Q1666.17 305.589 1666.17 304.945 Q1666.17 303.305 1666.87 302.954 Q1667.63 302.544 1669.74 302.544 L1728.53 302.544 Q1730.87 302.544 1731.4 303.071 Q1731.98 303.54 1731.75 305.823 Z" fill="#000000" fill-rule="evenodd" fill-opacity="1" /><path clip-path="url(#clip580)" d="M1736.37 411.341 L1746.45 411.341 L1746.45 296.923 L1736.37 296.923 L1736.37 294.171 L1754.47 294.171 L1754.47 414.094 L1736.37 414.094 L1736.37 411.341 Z" fill="#000000" fill-rule="evenodd" fill-opacity="1" /><path clip-path="url(#clip580)" d="M1820.94 322.828 L1833.15 322.828 L1833.15 337.527 L1820.94 337.527 L1820.94 322.828 M1820.94 369.414 L1833.15 369.414 L1833.15 379.368 L1823.66 397.886 L1816.19 397.886 L1820.94 379.368 L1820.94 369.414 Z" fill="#000000" fill-rule="evenodd" fill-opacity="1" /><path clip-path="url(#clip580)" d="M1910.3 312.404 L1893.03 381.734 Q1892.32 384.486 1892.32 387.473 Q1892.32 392.977 1895.95 392.977 Q1897.65 392.977 1899.06 391.864 Q1900.46 390.693 1901.52 388.41 Q1902.63 386.067 1903.33 383.842 Q1904.09 381.617 1905.03 378.162 Q1905.32 376.816 1905.61 376.406 Q1905.91 375.996 1906.73 375.996 Q1908.19 375.996 1908.19 377.167 Q1906.73 384.369 1904.56 388.937 Q1901.4 395.671 1895.54 395.671 Q1891.15 395.671 1887.87 392.626 Q1884.65 389.522 1884.65 384.603 Q1884.65 382.73 1885.24 380.505 L1900.34 320.543 L1900.75 318.201 Q1900.75 317.557 1900.52 317.205 Q1900.29 316.854 1898.88 316.503 Q1897.53 316.151 1894.84 316.151 Q1893.73 316.151 1893.2 316.093 Q1892.73 316.034 1892.26 315.742 Q1891.85 315.449 1891.85 314.805 Q1891.85 313.751 1892.26 313.165 Q1892.73 312.579 1893.08 312.462 Q1893.44 312.345 1894.14 312.287 Q1895.13 312.228 1898.47 311.935 Q1901.81 311.584 1904.68 311.35 Q1907.55 311.116 1908.78 311.116 Q1909.48 311.116 1909.83 311.467 Q1910.24 311.76 1910.3 312.111 L1910.3 312.404 Z" fill="#000000" fill-rule="evenodd" fill-opacity="1" /><path clip-path="url(#clip580)" d="M1953.3 376.113 Q1953.42 374.649 1955.7 374.649 L2029.19 374.649 Q2032.65 374.649 2032.7 375.996 Q2032.7 377.46 2029.42 377.401 L1956.52 377.401 Q1953.3 377.46 1953.3 376.113 M1953.3 352.69 Q1953.3 351.227 1955.82 351.285 L2029.07 351.285 Q2032.65 351.285 2032.7 352.69 Q2032.7 354.037 2029.66 354.037 L1955.7 354.037 Q1953.3 354.037 1953.3 352.69 Z" fill="#000000" fill-rule="evenodd" fill-opacity="1" /><path clip-path="url(#clip580)" d="M2078.96 355.97 Q2078.96 338.344 2083.41 328.741 Q2089.62 314.453 2104.26 314.453 Q2107.36 314.453 2110.58 315.332 Q2113.86 316.151 2117.96 319.372 Q2122.12 322.593 2124.64 327.863 Q2129.44 338.051 2129.44 355.97 Q2129.44 373.478 2124.99 383.022 Q2118.49 396.959 2104.14 396.959 Q2098.76 396.959 2093.25 394.207 Q2087.81 391.455 2084.35 384.838 Q2078.96 374.942 2078.96 355.97 M2088.92 354.506 Q2088.92 372.599 2090.21 379.802 Q2091.67 387.59 2095.65 390.986 Q2099.69 394.324 2104.14 394.324 Q2108.95 394.324 2112.93 390.752 Q2116.97 387.121 2118.2 379.333 Q2119.54 371.663 2119.49 354.506 Q2119.49 337.817 2118.31 331.142 Q2116.73 323.354 2112.52 320.25 Q2108.36 317.088 2104.14 317.088 Q2102.56 317.088 2100.86 317.557 Q2099.23 318.025 2096.82 319.372 Q2094.42 320.719 2092.55 324.056 Q2090.73 327.394 2089.86 332.43 Q2088.92 338.93 2088.92 354.506 Z" fill="#000000" fill-rule="evenodd" fill-opacity="1" /><path clip-path="url(#clip580)" d="M2140.17 392.391 Q2138.36 390.459 2138.36 387.941 Q2138.36 385.423 2140.17 383.608 Q2141.99 381.734 2144.74 381.734 Q2147.37 381.734 2149.13 383.491 Q2150.94 385.189 2150.94 388 Q2150.94 390.752 2149.01 392.567 Q2147.14 394.324 2144.74 394.324 Q2141.99 394.324 2140.17 392.391 Z" fill="#000000" fill-rule="evenodd" fill-opacity="1" /><path clip-path="url(#clip580)" d="M2171.36 374.532 L2171.36 370.843 L2208.19 314.57 Q2209.13 313.106 2210.59 313.165 Q2211.94 313.165 2212.23 313.692 Q2212.52 314.219 2212.52 316.269 L2212.52 370.843 L2224.53 370.843 L2224.53 374.532 L2212.52 374.532 L2212.52 384.955 Q2212.52 388.41 2213.93 389.522 Q2215.39 390.635 2221.6 390.635 L2224.12 390.635 L2224.12 394.324 Q2219.2 393.972 2207.84 393.972 Q2196.54 393.972 2191.62 394.324 L2191.62 390.635 L2194.13 390.635 Q2200.34 390.635 2201.81 389.581 Q2203.27 388.468 2203.27 384.955 L2203.27 374.532 L2171.36 374.532 M2174.75 370.843 L2203.97 370.843 L2203.97 326.106 L2174.75 370.843 Z" fill="#000000" fill-rule="evenodd" fill-opacity="1" /><polyline clip-path="url(#clip580)" style="stroke:#0000ff; stroke-linecap:round; stroke-linejoin:round; stroke-width:10; stroke-opacity:1; fill:none" stroke-dasharray="40, 25" points="
  1452.87,484.018 1599.28,484.018 
  "/>
<path clip-path="url(#clip580)" d="M1623.69 543.694 L1623.69 423.771 L1641.78 423.771 L1641.78 426.523 L1631.71 426.523 L1631.71 540.941 L1641.78 540.941 L1641.78 543.694 L1623.69 543.694 Z" fill="#000000" fill-rule="evenodd" fill-opacity="1" /><path clip-path="url(#clip580)" d="M1731.75 435.423 L1729.35 456.152 Q1729.17 458.026 1728.88 458.612 Q1728.59 459.139 1727.65 459.139 Q1726.24 459.139 1726.24 457.733 Q1726.24 457.148 1726.48 455.567 Q1726.83 452.346 1726.83 449.067 Q1726.83 445.378 1726.13 443.094 Q1725.48 440.752 1723.61 439.054 Q1721.73 437.356 1718.28 436.653 Q1714.83 435.892 1709.32 435.892 L1693.51 435.892 Q1689.65 435.892 1688.71 436.594 Q1687.83 437.297 1687.01 440.576 L1679.34 471.025 L1690.23 471.025 Q1697.84 471.025 1700.83 468.8 Q1703.82 466.575 1705.69 459.49 Q1705.98 458.377 1706.1 457.967 Q1706.28 457.499 1706.57 457.265 Q1706.92 456.972 1707.51 456.972 Q1708.03 456.972 1708.38 457.323 Q1708.74 457.616 1708.85 457.967 L1708.97 458.319 Q1708.97 458.904 1708.62 460.251 L1702 486.25 Q1701.53 488.007 1701.24 488.417 Q1701.01 488.768 1700.19 488.768 Q1699.6 488.768 1699.19 488.358 Q1698.78 487.948 1698.78 487.304 Q1698.9 486.601 1699.13 486.016 Q1699.95 482.444 1699.95 480.16 Q1699.95 478.696 1699.66 477.818 Q1699.37 476.94 1698.37 476.178 Q1697.38 475.417 1695.33 475.066 Q1693.28 474.714 1690 474.714 L1678.4 474.714 L1670.97 504.578 L1670.44 507.33 Q1670.44 508.56 1671.08 509.028 Q1671.79 509.497 1674.3 509.731 Q1678.05 510.024 1680.51 510.024 Q1683.56 510.024 1683.91 510.141 Q1684.61 510.492 1684.61 511.429 Q1684.61 512.483 1684.14 513.069 Q1683.67 513.596 1683.26 513.654 Q1682.85 513.713 1682.09 513.713 L1664.23 513.362 L1648.42 513.713 Q1646.61 513.713 1646.61 512.249 Q1646.61 511.136 1647.08 510.668 Q1647.54 510.141 1648.07 510.082 Q1648.6 510.024 1649.94 510.024 Q1652.87 510.024 1654.63 509.848 Q1656.39 509.672 1657.5 509.438 Q1658.67 509.145 1659.26 508.326 Q1659.9 507.506 1660.19 506.803 Q1660.49 506.042 1660.89 504.344 L1676.71 440.928 Q1677.29 438.761 1677.29 438.058 Q1677.29 437.297 1676.76 436.829 Q1676.3 436.36 1675.01 436.185 Q1673.72 435.95 1672.66 435.95 Q1671.67 435.892 1669.5 435.892 Q1668.1 435.892 1667.51 435.833 Q1666.98 435.775 1666.57 435.482 Q1666.17 435.189 1666.17 434.545 Q1666.17 432.905 1666.87 432.554 Q1667.63 432.144 1669.74 432.144 L1728.53 432.144 Q1730.87 432.144 1731.4 432.671 Q1731.98 433.14 1731.75 435.423 Z" fill="#000000" fill-rule="evenodd" fill-opacity="1" /><path clip-path="url(#clip580)" d="M1736.37 540.941 L1746.45 540.941 L1746.45 426.523 L1736.37 426.523 L1736.37 423.771 L1754.47 423.771 L1754.47 543.694 L1736.37 543.694 L1736.37 540.941 Z" fill="#000000" fill-rule="evenodd" fill-opacity="1" /><path clip-path="url(#clip580)" d="M1820.94 452.428 L1833.15 452.428 L1833.15 467.127 L1820.94 467.127 L1820.94 452.428 M1820.94 499.014 L1833.15 499.014 L1833.15 508.968 L1823.66 527.486 L1816.19 527.486 L1820.94 508.968 L1820.94 499.014 Z" fill="#000000" fill-rule="evenodd" fill-opacity="1" /><path clip-path="url(#clip580)" d="M1910.3 442.004 L1893.03 511.334 Q1892.32 514.086 1892.32 517.073 Q1892.32 522.577 1895.95 522.577 Q1897.65 522.577 1899.06 521.464 Q1900.46 520.293 1901.52 518.01 Q1902.63 515.667 1903.33 513.442 Q1904.09 511.217 1905.03 507.762 Q1905.32 506.416 1905.61 506.006 Q1905.91 505.596 1906.73 505.596 Q1908.19 505.596 1908.19 506.767 Q1906.73 513.969 1904.56 518.537 Q1901.4 525.271 1895.54 525.271 Q1891.15 525.271 1887.87 522.226 Q1884.65 519.122 1884.65 514.203 Q1884.65 512.33 1885.24 510.105 L1900.34 450.143 L1900.75 447.801 Q1900.75 447.157 1900.52 446.805 Q1900.29 446.454 1898.88 446.103 Q1897.53 445.751 1894.84 445.751 Q1893.73 445.751 1893.2 445.693 Q1892.73 445.634 1892.26 445.342 Q1891.85 445.049 1891.85 444.405 Q1891.85 443.351 1892.26 442.765 Q1892.73 442.179 1893.08 442.062 Q1893.44 441.945 1894.14 441.887 Q1895.13 441.828 1898.47 441.535 Q1901.81 441.184 1904.68 440.95 Q1907.55 440.716 1908.78 440.716 Q1909.48 440.716 1909.83 441.067 Q1910.24 441.36 1910.3 441.711 L1910.3 442.004 Z" fill="#000000" fill-rule="evenodd" fill-opacity="1" /><path clip-path="url(#clip580)" d="M1953.3 505.713 Q1953.42 504.249 1955.7 504.249 L2029.19 504.249 Q2032.65 504.249 2032.7 505.596 Q2032.7 507.06 2029.42 507.001 L1956.52 507.001 Q1953.3 507.06 1953.3 505.713 M1953.3 482.29 Q1953.3 480.827 1955.82 480.885 L2029.07 480.885 Q2032.65 480.885 2032.7 482.29 Q2032.7 483.637 2029.66 483.637 L1955.7 483.637 Q1953.3 483.637 1953.3 482.29 Z" fill="#000000" fill-rule="evenodd" fill-opacity="1" /><path clip-path="url(#clip580)" d="M2078.96 485.57 Q2078.96 467.944 2083.41 458.341 Q2089.62 444.053 2104.26 444.053 Q2107.36 444.053 2110.58 444.932 Q2113.86 445.751 2117.96 448.972 Q2122.12 452.193 2124.64 457.463 Q2129.44 467.651 2129.44 485.57 Q2129.44 503.078 2124.99 512.622 Q2118.49 526.559 2104.14 526.559 Q2098.76 526.559 2093.25 523.807 Q2087.81 521.055 2084.35 514.438 Q2078.96 504.542 2078.96 485.57 M2088.92 484.106 Q2088.92 502.199 2090.21 509.402 Q2091.67 517.19 2095.65 520.586 Q2099.69 523.924 2104.14 523.924 Q2108.95 523.924 2112.93 520.352 Q2116.97 516.721 2118.2 508.933 Q2119.54 501.263 2119.49 484.106 Q2119.49 467.417 2118.31 460.742 Q2116.73 452.954 2112.52 449.85 Q2108.36 446.688 2104.14 446.688 Q2102.56 446.688 2100.86 447.157 Q2099.23 447.625 2096.82 448.972 Q2094.42 450.319 2092.55 453.656 Q2090.73 456.994 2089.86 462.03 Q2088.92 468.53 2088.92 484.106 Z" fill="#000000" fill-rule="evenodd" fill-opacity="1" /><path clip-path="url(#clip580)" d="M2140.17 521.991 Q2138.36 520.059 2138.36 517.541 Q2138.36 515.023 2140.17 513.208 Q2141.99 511.334 2144.74 511.334 Q2147.37 511.334 2149.13 513.091 Q2150.94 514.789 2150.94 517.6 Q2150.94 520.352 2149.01 522.167 Q2147.14 523.924 2144.74 523.924 Q2141.99 523.924 2140.17 521.991 Z" fill="#000000" fill-rule="evenodd" fill-opacity="1" /><path clip-path="url(#clip580)" d="M2171.36 523.924 Q2171.36 521.757 2171.53 521.113 Q2171.77 520.469 2172.7 519.474 L2195.72 493.826 Q2208.31 479.655 2208.31 467.3 Q2208.31 459.278 2204.09 453.539 Q2199.93 447.801 2192.26 447.801 Q2186.99 447.801 2182.54 451.021 Q2178.09 454.242 2176.04 459.981 Q2176.39 459.863 2177.62 459.863 Q2180.61 459.863 2182.25 461.737 Q2183.95 463.611 2183.95 466.129 Q2183.95 469.35 2181.84 470.931 Q2179.79 472.453 2177.74 472.453 Q2176.92 472.453 2175.81 472.277 Q2174.75 472.102 2173.05 470.462 Q2171.36 468.764 2171.36 465.778 Q2171.36 457.404 2177.68 450.729 Q2184.06 444.053 2193.78 444.053 Q2204.79 444.053 2211.99 450.612 Q2219.26 457.111 2219.26 467.3 Q2219.26 470.872 2218.14 474.151 Q2217.09 477.372 2215.62 479.89 Q2214.22 482.408 2210.35 486.448 Q2206.49 490.488 2203.39 493.358 Q2200.28 496.227 2193.32 502.317 L2180.61 514.672 L2202.22 514.672 Q2212.76 514.672 2213.58 513.735 Q2214.75 512.037 2216.21 503.078 L2219.26 503.078 L2215.86 523.924 L2171.36 523.924 Z" fill="#000000" fill-rule="evenodd" fill-opacity="1" /><polyline clip-path="url(#clip580)" style="stroke:#0000ff; stroke-linecap:round; stroke-linejoin:round; stroke-width:10; stroke-opacity:1; fill:none" points="
  1452.87,613.618 1599.28,613.618 
  "/>
<path clip-path="url(#clip580)" d="M1623.69 673.294 L1623.69 553.371 L1641.78 553.371 L1641.78 556.123 L1631.71 556.123 L1631.71 670.541 L1641.78 670.541 L1641.78 673.294 L1623.69 673.294 Z" fill="#000000" fill-rule="evenodd" fill-opacity="1" /><path clip-path="url(#clip580)" d="M1731.75 565.023 L1729.35 585.752 Q1729.17 587.626 1728.88 588.212 Q1728.59 588.739 1727.65 588.739 Q1726.24 588.739 1726.24 587.333 Q1726.24 586.748 1726.48 585.167 Q1726.83 581.946 1726.83 578.667 Q1726.83 574.978 1726.13 572.694 Q1725.48 570.352 1723.61 568.654 Q1721.73 566.956 1718.28 566.253 Q1714.83 565.492 1709.32 565.492 L1693.51 565.492 Q1689.65 565.492 1688.71 566.194 Q1687.83 566.897 1687.01 570.176 L1679.34 600.625 L1690.23 600.625 Q1697.84 600.625 1700.83 598.4 Q1703.82 596.175 1705.69 589.09 Q1705.98 587.977 1706.1 587.567 Q1706.28 587.099 1706.57 586.865 Q1706.92 586.572 1707.51 586.572 Q1708.03 586.572 1708.38 586.923 Q1708.74 587.216 1708.85 587.567 L1708.97 587.919 Q1708.97 588.504 1708.62 589.851 L1702 615.85 Q1701.53 617.607 1701.24 618.017 Q1701.01 618.368 1700.19 618.368 Q1699.6 618.368 1699.19 617.958 Q1698.78 617.548 1698.78 616.904 Q1698.9 616.201 1699.13 615.616 Q1699.95 612.044 1699.95 609.76 Q1699.95 608.296 1699.66 607.418 Q1699.37 606.54 1698.37 605.778 Q1697.38 605.017 1695.33 604.666 Q1693.28 604.314 1690 604.314 L1678.4 604.314 L1670.97 634.178 L1670.44 636.93 Q1670.44 638.16 1671.08 638.628 Q1671.79 639.097 1674.3 639.331 Q1678.05 639.624 1680.51 639.624 Q1683.56 639.624 1683.91 639.741 Q1684.61 640.092 1684.61 641.029 Q1684.61 642.083 1684.14 642.669 Q1683.67 643.196 1683.26 643.254 Q1682.85 643.313 1682.09 643.313 L1664.23 642.962 L1648.42 643.313 Q1646.61 643.313 1646.61 641.849 Q1646.61 640.736 1647.08 640.268 Q1647.54 639.741 1648.07 639.682 Q1648.6 639.624 1649.94 639.624 Q1652.87 639.624 1654.63 639.448 Q1656.39 639.272 1657.5 639.038 Q1658.67 638.745 1659.26 637.926 Q1659.9 637.106 1660.19 636.403 Q1660.49 635.642 1660.89 633.944 L1676.71 570.528 Q1677.29 568.361 1677.29 567.658 Q1677.29 566.897 1676.76 566.429 Q1676.3 565.96 1675.01 565.785 Q1673.72 565.55 1672.66 565.55 Q1671.67 565.492 1669.5 565.492 Q1668.1 565.492 1667.51 565.433 Q1666.98 565.375 1666.57 565.082 Q1666.17 564.789 1666.17 564.145 Q1666.17 562.505 1666.87 562.154 Q1667.63 561.744 1669.74 561.744 L1728.53 561.744 Q1730.87 561.744 1731.4 562.271 Q1731.98 562.74 1731.75 565.023 Z" fill="#000000" fill-rule="evenodd" fill-opacity="1" /><path clip-path="url(#clip580)" d="M1736.37 670.541 L1746.45 670.541 L1746.45 556.123 L1736.37 556.123 L1736.37 553.371 L1754.47 553.371 L1754.47 673.294 L1736.37 673.294 L1736.37 670.541 Z" fill="#000000" fill-rule="evenodd" fill-opacity="1" /><path clip-path="url(#clip580)" d="M1820.94 582.028 L1833.15 582.028 L1833.15 596.727 L1820.94 596.727 L1820.94 582.028 M1820.94 628.614 L1833.15 628.614 L1833.15 638.568 L1823.66 657.086 L1816.19 657.086 L1820.94 638.568 L1820.94 628.614 Z" fill="#000000" fill-rule="evenodd" fill-opacity="1" /><path clip-path="url(#clip580)" d="M1910.3 571.604 L1893.03 640.934 Q1892.32 643.686 1892.32 646.673 Q1892.32 652.177 1895.95 652.177 Q1897.65 652.177 1899.06 651.064 Q1900.46 649.893 1901.52 647.61 Q1902.63 645.267 1903.33 643.042 Q1904.09 640.817 1905.03 637.362 Q1905.32 636.016 1905.61 635.606 Q1905.91 635.196 1906.73 635.196 Q1908.19 635.196 1908.19 636.367 Q1906.73 643.569 1904.56 648.137 Q1901.4 654.871 1895.54 654.871 Q1891.15 654.871 1887.87 651.826 Q1884.65 648.722 1884.65 643.803 Q1884.65 641.93 1885.24 639.705 L1900.34 579.743 L1900.75 577.401 Q1900.75 576.757 1900.52 576.405 Q1900.29 576.054 1898.88 575.703 Q1897.53 575.351 1894.84 575.351 Q1893.73 575.351 1893.2 575.293 Q1892.73 575.234 1892.26 574.942 Q1891.85 574.649 1891.85 574.005 Q1891.85 572.951 1892.26 572.365 Q1892.73 571.779 1893.08 571.662 Q1893.44 571.545 1894.14 571.487 Q1895.13 571.428 1898.47 571.135 Q1901.81 570.784 1904.68 570.55 Q1907.55 570.316 1908.78 570.316 Q1909.48 570.316 1909.83 570.667 Q1910.24 570.96 1910.3 571.311 L1910.3 571.604 Z" fill="#000000" fill-rule="evenodd" fill-opacity="1" /><path clip-path="url(#clip580)" d="M1953.3 635.313 Q1953.42 633.849 1955.7 633.849 L2029.19 633.849 Q2032.65 633.849 2032.7 635.196 Q2032.7 636.66 2029.42 636.601 L1956.52 636.601 Q1953.3 636.66 1953.3 635.313 M1953.3 611.89 Q1953.3 610.427 1955.82 610.485 L2029.07 610.485 Q2032.65 610.485 2032.7 611.89 Q2032.7 613.237 2029.66 613.237 L1955.7 613.237 Q1953.3 613.237 1953.3 611.89 Z" fill="#000000" fill-rule="evenodd" fill-opacity="1" /><path clip-path="url(#clip580)" d="M2078.96 615.17 Q2078.96 597.544 2083.41 587.941 Q2089.62 573.653 2104.26 573.653 Q2107.36 573.653 2110.58 574.532 Q2113.86 575.351 2117.96 578.572 Q2122.12 581.793 2124.64 587.063 Q2129.44 597.251 2129.44 615.17 Q2129.44 632.678 2124.99 642.222 Q2118.49 656.159 2104.14 656.159 Q2098.76 656.159 2093.25 653.407 Q2087.81 650.655 2084.35 644.038 Q2078.96 634.142 2078.96 615.17 M2088.92 613.706 Q2088.92 631.799 2090.21 639.002 Q2091.67 646.79 2095.65 650.186 Q2099.69 653.524 2104.14 653.524 Q2108.95 653.524 2112.93 649.952 Q2116.97 646.321 2118.2 638.533 Q2119.54 630.863 2119.49 613.706 Q2119.49 597.017 2118.31 590.342 Q2116.73 582.554 2112.52 579.45 Q2108.36 576.288 2104.14 576.288 Q2102.56 576.288 2100.86 576.757 Q2099.23 577.225 2096.82 578.572 Q2094.42 579.919 2092.55 583.256 Q2090.73 586.594 2089.86 591.63 Q2088.92 598.13 2088.92 613.706 Z" fill="#000000" fill-rule="evenodd" fill-opacity="1" /><path clip-path="url(#clip580)" d="M2140.17 651.591 Q2138.36 649.659 2138.36 647.141 Q2138.36 644.623 2140.17 642.808 Q2141.99 640.934 2144.74 640.934 Q2147.37 640.934 2149.13 642.691 Q2150.94 644.389 2150.94 647.2 Q2150.94 649.952 2149.01 651.767 Q2147.14 653.524 2144.74 653.524 Q2141.99 653.524 2140.17 651.591 Z" fill="#000000" fill-rule="evenodd" fill-opacity="1" /><path clip-path="url(#clip580)" d="M2159.23 585.072 L2159.23 581.324 Q2173.64 581.324 2181.07 573.653 Q2183.12 573.653 2183.47 574.122 Q2183.83 574.59 2183.83 576.757 L2183.83 644.038 Q2183.83 647.61 2185.58 648.722 Q2187.34 649.835 2195.01 649.835 L2198.82 649.835 L2198.82 653.524 Q2194.6 653.172 2179.37 653.172 Q2164.15 653.172 2159.99 653.524 L2159.99 649.835 L2163.8 649.835 Q2171.35 649.835 2173.17 648.781 Q2174.98 647.668 2174.98 644.038 L2174.98 581.91 Q2168.72 585.072 2159.23 585.072 Z" fill="#000000" fill-rule="evenodd" fill-opacity="1" /></svg>
