<?xml version="1.0" encoding="utf-8"?>
<svg xmlns="http://www.w3.org/2000/svg" xmlns:xlink="http://www.w3.org/1999/xlink" width="600" height="400" viewBox="0 0 2400 1600">
<defs>
  <clipPath id="clip480">
    <rect x="0" y="0" width="2400" height="1600"/>
  </clipPath>
</defs>
<path clip-path="url(#clip480)" d="
M0 1600 L2400 1600 L2400 0 L0 0  Z
  " fill="#ffffff" fill-rule="evenodd" fill-opacity="1"/>
<defs>
  <clipPath id="clip481">
    <rect x="480" y="0" width="1681" height="1600"/>
  </clipPath>
</defs>
<defs>
  <clipPath id="clip482">
    <rect x="194" y="47" width="2159" height="1308"/>
  </clipPath>
</defs>
<path clip-path="url(#clip480)" d="
M194.776 1354.06 L2352.76 1354.06 L2352.76 47.2441 L194.776 47.2441  Z
  " fill="#ffffff" fill-rule="evenodd" fill-opacity="1"/>
<polyline clip-path="url(#clip482)" style="stroke:#000000; stroke-linecap:round; stroke-linejoin:round; stroke-width:2; stroke-opacity:0.1; fill:none" points="
  255.851,1354.06 255.851,47.2441 
  "/>
<polyline clip-path="url(#clip482)" style="stroke:#000000; stroke-linecap:round; stroke-linejoin:round; stroke-width:2; stroke-opacity:0.1; fill:none" points="
  459.434,1354.06 459.434,47.2441 
  "/>
<polyline clip-path="url(#clip482)" style="stroke:#000000; stroke-linecap:round; stroke-linejoin:round; stroke-width:2; stroke-opacity:0.1; fill:none" points="
  663.017,1354.06 663.017,47.2441 
  "/>
<polyline clip-path="url(#clip482)" style="stroke:#000000; stroke-linecap:round; stroke-linejoin:round; stroke-width:2; stroke-opacity:0.1; fill:none" points="
  866.6,1354.06 866.6,47.2441 
  "/>
<polyline clip-path="url(#clip482)" style="stroke:#000000; stroke-linecap:round; stroke-linejoin:round; stroke-width:2; stroke-opacity:0.1; fill:none" points="
  1070.18,1354.06 1070.18,47.2441 
  "/>
<polyline clip-path="url(#clip482)" style="stroke:#000000; stroke-linecap:round; stroke-linejoin:round; stroke-width:2; stroke-opacity:0.1; fill:none" points="
  1273.77,1354.06 1273.77,47.2441 
  "/>
<polyline clip-path="url(#clip482)" style="stroke:#000000; stroke-linecap:round; stroke-linejoin:round; stroke-width:2; stroke-opacity:0.1; fill:none" points="
  1477.35,1354.06 1477.35,47.2441 
  "/>
<polyline clip-path="url(#clip482)" style="stroke:#000000; stroke-linecap:round; stroke-linejoin:round; stroke-width:2; stroke-opacity:0.1; fill:none" points="
  1680.93,1354.06 1680.93,47.2441 
  "/>
<polyline clip-path="url(#clip482)" style="stroke:#000000; stroke-linecap:round; stroke-linejoin:round; stroke-width:2; stroke-opacity:0.1; fill:none" points="
  1884.51,1354.06 1884.51,47.2441 
  "/>
<polyline clip-path="url(#clip482)" style="stroke:#000000; stroke-linecap:round; stroke-linejoin:round; stroke-width:2; stroke-opacity:0.1; fill:none" points="
  2088.1,1354.06 2088.1,47.2441 
  "/>
<polyline clip-path="url(#clip482)" style="stroke:#000000; stroke-linecap:round; stroke-linejoin:round; stroke-width:2; stroke-opacity:0.1; fill:none" points="
  2291.68,1354.06 2291.68,47.2441 
  "/>
<polyline clip-path="url(#clip480)" style="stroke:#000000; stroke-linecap:round; stroke-linejoin:round; stroke-width:4; stroke-opacity:1; fill:none" points="
  194.776,1354.06 2352.76,1354.06 
  "/>
<polyline clip-path="url(#clip480)" style="stroke:#000000; stroke-linecap:round; stroke-linejoin:round; stroke-width:4; stroke-opacity:1; fill:none" points="
  255.851,1354.06 255.851,1335.16 
  "/>
<polyline clip-path="url(#clip480)" style="stroke:#000000; stroke-linecap:round; stroke-linejoin:round; stroke-width:4; stroke-opacity:1; fill:none" points="
  459.434,1354.06 459.434,1335.16 
  "/>
<polyline clip-path="url(#clip480)" style="stroke:#000000; stroke-linecap:round; stroke-linejoin:round; stroke-width:4; stroke-opacity:1; fill:none" points="
  663.017,1354.06 663.017,1335.16 
  "/>
<polyline clip-path="url(#clip480)" style="stroke:#000000; stroke-linecap:round; stroke-linejoin:round; stroke-width:4; stroke-opacity:1; fill:none" points="
  866.6,1354.06 866.6,1335.16 
  "/>
<polyline clip-path="url(#clip480)" style="stroke:#000000; stroke-linecap:round; stroke-linejoin:round; stroke-width:4; stroke-opacity:1; fill:none" points="
  1070.18,1354.06 1070.18,1335.16 
  "/>
<polyline clip-path="url(#clip480)" style="stroke:#000000; stroke-linecap:round; stroke-linejoin:round; stroke-width:4; stroke-opacity:1; fill:none" points="
  1273.77,1354.06 1273.77,1335.16 
  "/>
<polyline clip-path="url(#clip480)" style="stroke:#000000; stroke-linecap:round; stroke-linejoin:round; stroke-width:4; stroke-opacity:1; fill:none" points="
  1477.35,1354.06 1477.35,1335.16 
  "/>
<polyline clip-path="url(#clip480)" style="stroke:#000000; stroke-linecap:round; stroke-linejoin:round; stroke-width:4; stroke-opacity:1; fill:none" points="
  1680.93,1354.06 1680.93,1335.16 
  "/>
<polyline clip-path="url(#clip480)" style="stroke:#000000; stroke-linecap:round; stroke-linejoin:round; stroke-width:4; stroke-opacity:1; fill:none" points="
  1884.51,1354.06 1884.51,1335.16 
  "/>
<polyline clip-path="url(#clip480)" style="stroke:#000000; stroke-linecap:round; stroke-linejoin:round; stroke-width:4; stroke-opacity:1; fill:none" points="
  2088.1,1354.06 2088.1,1335.16 
  "/>
<polyline clip-path="url(#clip480)" style="stroke:#000000; stroke-linecap:round; stroke-linejoin:round; stroke-width:4; stroke-opacity:1; fill:none" points="
  2291.68,1354.06 2291.68,1335.16 
  "/>
<path clip-path="url(#clip480)" d="M255.851 1395.23 Q249.08 1395.23 245.651 1401.92 Q242.266 1408.56 242.266 1421.92 Q242.266 1435.25 245.651 1441.93 Q249.08 1448.57 255.851 1448.57 Q262.665 1448.57 266.05 1441.93 Q269.479 1435.25 269.479 1421.92 Q269.479 1408.56 266.05 1401.92 Q262.665 1395.23 255.851 1395.23 M255.851 1388.29 Q266.745 1388.29 272.474 1396.93 Q278.246 1405.52 278.246 1421.92 Q278.246 1438.29 272.474 1446.92 Q266.745 1455.52 255.851 1455.52 Q244.957 1455.52 239.184 1446.92 Q233.455 1438.29 233.455 1421.92 Q233.455 1405.52 239.184 1396.93 Q244.957 1388.29 255.851 1388.29 Z" fill="#000000" fill-rule="evenodd" fill-opacity="1" /><path clip-path="url(#clip480)" d="M622.11 1395.23 Q615.339 1395.23 611.91 1401.92 Q608.525 1408.56 608.525 1421.92 Q608.525 1435.25 611.91 1441.93 Q615.339 1448.57 622.11 1448.57 Q628.924 1448.57 632.309 1441.93 Q635.738 1435.25 635.738 1421.92 Q635.738 1408.56 632.309 1401.92 Q628.924 1395.23 622.11 1395.23 M622.11 1388.29 Q633.004 1388.29 638.733 1396.93 Q644.505 1405.52 644.505 1421.92 Q644.505 1438.29 638.733 1446.92 Q633.004 1455.52 622.11 1455.52 Q611.216 1455.52 605.443 1446.92 Q599.714 1438.29 599.714 1421.92 Q599.714 1405.52 605.443 1396.93 Q611.216 1388.29 622.11 1388.29 Z" fill="#000000" fill-rule="evenodd" fill-opacity="1" /><path clip-path="url(#clip480)" d="M659.913 1443.24 L669.071 1443.24 L669.071 1454.26 L659.913 1454.26 L659.913 1443.24 Z" fill="#000000" fill-rule="evenodd" fill-opacity="1" /><path clip-path="url(#clip480)" d="M695.72 1446.88 L726.319 1446.88 L726.319 1454.26 L685.174 1454.26 L685.174 1446.88 Q690.165 1441.72 698.759 1433.04 Q707.396 1424.31 709.609 1421.79 Q713.819 1417.06 715.469 1413.81 Q717.161 1410.51 717.161 1407.34 Q717.161 1402.18 713.516 1398.92 Q709.913 1395.67 704.097 1395.67 Q699.974 1395.67 695.373 1397.1 Q690.816 1398.53 685.608 1401.44 L685.608 1392.58 Q690.903 1390.46 695.503 1389.37 Q700.104 1388.29 703.924 1388.29 Q713.993 1388.29 719.983 1393.32 Q725.972 1398.36 725.972 1406.78 Q725.972 1410.77 724.453 1414.37 Q722.977 1417.93 719.028 1422.79 Q717.943 1424.05 712.127 1430.08 Q706.311 1436.07 695.72 1446.88 Z" fill="#000000" fill-rule="evenodd" fill-opacity="1" /><path clip-path="url(#clip480)" d="M1027.32 1395.23 Q1020.55 1395.23 1017.12 1401.92 Q1013.74 1408.56 1013.74 1421.92 Q1013.74 1435.25 1017.12 1441.93 Q1020.55 1448.57 1027.32 1448.57 Q1034.14 1448.57 1037.52 1441.93 Q1040.95 1435.25 1040.95 1421.92 Q1040.95 1408.56 1037.52 1401.92 Q1034.14 1395.23 1027.32 1395.23 M1027.32 1388.29 Q1038.22 1388.29 1043.95 1396.93 Q1049.72 1405.52 1049.72 1421.92 Q1049.72 1438.29 1043.95 1446.92 Q1038.22 1455.52 1027.32 1455.52 Q1016.43 1455.52 1010.66 1446.92 Q1004.93 1438.29 1004.93 1421.92 Q1004.93 1405.52 1010.66 1396.93 Q1016.43 1388.29 1027.32 1388.29 Z" fill="#000000" fill-rule="evenodd" fill-opacity="1" /><path clip-path="url(#clip480)" d="M1065.13 1443.24 L1074.28 1443.24 L1074.28 1454.26 L1065.13 1454.26 L1065.13 1443.24 Z" fill="#000000" fill-rule="evenodd" fill-opacity="1" /><path clip-path="url(#clip480)" d="M1117.47 1397.1 L1095.33 1431.69 L1117.47 1431.69 L1117.47 1397.1 M1115.17 1389.46 L1126.19 1389.46 L1126.19 1431.69 L1135.44 1431.69 L1135.44 1438.98 L1126.19 1438.98 L1126.19 1454.26 L1117.47 1454.26 L1117.47 1438.98 L1088.22 1438.98 L1088.22 1430.52 L1115.17 1389.46 Z" fill="#000000" fill-rule="evenodd" fill-opacity="1" /><path clip-path="url(#clip480)" d="M1434.79 1395.23 Q1428.02 1395.23 1424.59 1401.92 Q1421.21 1408.56 1421.21 1421.92 Q1421.21 1435.25 1424.59 1441.93 Q1428.02 1448.57 1434.79 1448.57 Q1441.61 1448.57 1444.99 1441.93 Q1448.42 1435.25 1448.42 1421.92 Q1448.42 1408.56 1444.99 1401.92 Q1441.61 1395.23 1434.79 1395.23 M1434.79 1388.29 Q1445.69 1388.29 1451.42 1396.93 Q1457.19 1405.52 1457.19 1421.92 Q1457.19 1438.29 1451.42 1446.92 Q1445.69 1455.52 1434.79 1455.52 Q1423.9 1455.52 1418.13 1446.92 Q1412.4 1438.29 1412.4 1421.92 Q1412.4 1405.52 1418.13 1396.93 Q1423.9 1388.29 1434.79 1388.29 Z" fill="#000000" fill-rule="evenodd" fill-opacity="1" /><path clip-path="url(#clip480)" d="M1472.6 1443.24 L1481.75 1443.24 L1481.75 1454.26 L1472.6 1454.26 L1472.6 1443.24 Z" fill="#000000" fill-rule="evenodd" fill-opacity="1" /><path clip-path="url(#clip480)" d="M1520.69 1418.37 Q1514.78 1418.37 1511.31 1422.4 Q1507.88 1426.44 1507.88 1433.47 Q1507.88 1440.46 1511.31 1444.54 Q1514.78 1448.57 1520.69 1448.57 Q1526.59 1448.57 1530.02 1444.54 Q1533.49 1440.46 1533.49 1433.47 Q1533.49 1426.44 1530.02 1422.4 Q1526.59 1418.37 1520.69 1418.37 M1538.09 1390.89 L1538.09 1398.88 Q1534.79 1397.32 1531.41 1396.49 Q1528.06 1395.67 1524.77 1395.67 Q1516.09 1395.67 1511.48 1401.53 Q1506.93 1407.39 1506.28 1419.23 Q1508.84 1415.46 1512.7 1413.46 Q1516.56 1411.42 1521.21 1411.42 Q1530.97 1411.42 1536.62 1417.37 Q1542.3 1423.27 1542.3 1433.47 Q1542.3 1443.45 1536.4 1449.49 Q1530.5 1455.52 1520.69 1455.52 Q1509.45 1455.52 1503.5 1446.92 Q1497.55 1438.29 1497.55 1421.92 Q1497.55 1406.56 1504.84 1397.45 Q1512.14 1388.29 1524.42 1388.29 Q1527.72 1388.29 1531.06 1388.94 Q1534.44 1389.59 1538.09 1390.89 Z" fill="#000000" fill-rule="evenodd" fill-opacity="1" /><path clip-path="url(#clip480)" d="M1842.2 1395.23 Q1835.43 1395.23 1832 1401.92 Q1828.61 1408.56 1828.61 1421.92 Q1828.61 1435.25 1832 1441.93 Q1835.43 1448.57 1842.2 1448.57 Q1849.01 1448.57 1852.4 1441.93 Q1855.83 1435.25 1855.83 1421.92 Q1855.83 1408.56 1852.4 1401.92 Q1849.01 1395.23 1842.2 1395.23 M1842.2 1388.29 Q1853.09 1388.29 1858.82 1396.93 Q1864.59 1405.52 1864.59 1421.92 Q1864.59 1438.29 1858.82 1446.92 Q1853.09 1455.52 1842.2 1455.52 Q1831.3 1455.52 1825.53 1446.92 Q1819.8 1438.29 1819.8 1421.92 Q1819.8 1405.52 1825.53 1396.93 Q1831.3 1388.29 1842.2 1388.29 Z" fill="#000000" fill-rule="evenodd" fill-opacity="1" /><path clip-path="url(#clip480)" d="M1880 1443.24 L1889.16 1443.24 L1889.16 1454.26 L1880 1454.26 L1880 1443.24 Z" fill="#000000" fill-rule="evenodd" fill-opacity="1" /><path clip-path="url(#clip480)" d="M1927.01 1423.49 Q1920.76 1423.49 1917.15 1426.83 Q1913.59 1430.17 1913.59 1436.03 Q1913.59 1441.89 1917.15 1445.23 Q1920.76 1448.57 1927.01 1448.57 Q1933.26 1448.57 1936.86 1445.23 Q1940.46 1441.85 1940.46 1436.03 Q1940.46 1430.17 1936.86 1426.83 Q1933.3 1423.49 1927.01 1423.49 M1918.24 1419.75 Q1912.6 1418.37 1909.43 1414.5 Q1906.3 1410.64 1906.3 1405.08 Q1906.3 1397.32 1911.82 1392.8 Q1917.37 1388.29 1927.01 1388.29 Q1936.68 1388.29 1942.2 1392.8 Q1947.71 1397.32 1947.71 1405.08 Q1947.71 1410.64 1944.54 1414.5 Q1941.42 1418.37 1935.82 1419.75 Q1942.15 1421.23 1945.67 1425.53 Q1949.23 1429.82 1949.23 1436.03 Q1949.23 1445.45 1943.46 1450.48 Q1937.73 1455.52 1927.01 1455.52 Q1916.29 1455.52 1910.51 1450.48 Q1904.78 1445.45 1904.78 1436.03 Q1904.78 1429.82 1908.34 1425.53 Q1911.9 1421.23 1918.24 1419.75 M1915.03 1405.91 Q1915.03 1410.94 1918.15 1413.77 Q1921.32 1416.59 1927.01 1416.59 Q1932.65 1416.59 1935.82 1413.77 Q1939.03 1410.94 1939.03 1405.91 Q1939.03 1400.87 1935.82 1398.05 Q1932.65 1395.23 1927.01 1395.23 Q1921.32 1395.23 1918.15 1398.05 Q1915.03 1400.87 1915.03 1405.91 Z" fill="#000000" fill-rule="evenodd" fill-opacity="1" /><path clip-path="url(#clip480)" d="M2273.65 1446.88 L2287.97 1446.88 L2287.97 1397.45 L2272.39 1400.57 L2272.39 1392.58 L2287.88 1389.46 L2296.65 1389.46 L2296.65 1446.88 L2310.97 1446.88 L2310.97 1454.26 L2273.65 1454.26 L2273.65 1446.88 Z" fill="#000000" fill-rule="evenodd" fill-opacity="1" /><path clip-path="url(#clip480)" d="M1299.53 1519.59 Q1299.53 1522.87 1297.49 1524.74 Q1295.44 1526.56 1293.09 1526.56 Q1290.87 1526.56 1289.7 1525.27 Q1288.53 1523.98 1288.53 1522.34 Q1288.53 1520.12 1290.17 1518.18 Q1291.81 1516.25 1294.26 1515.84 Q1291.86 1514.32 1288.29 1514.32 Q1285.95 1514.32 1283.9 1515.55 Q1281.91 1516.78 1280.68 1518.36 Q1279.51 1519.94 1278.45 1522.22 Q1277.46 1524.45 1277.05 1525.8 Q1276.7 1527.08 1276.41 1528.49 L1272.31 1544.89 Q1270.32 1552.67 1270.32 1555.43 Q1270.32 1558.82 1271.95 1561.11 Q1273.59 1563.33 1276.87 1563.33 Q1278.16 1563.33 1279.63 1562.98 Q1281.09 1562.57 1282.96 1561.52 Q1284.9 1560.4 1286.59 1558.76 Q1288.35 1557.07 1290.05 1554.2 Q1291.75 1551.33 1292.86 1547.64 Q1293.21 1546.35 1294.38 1546.35 Q1295.85 1546.35 1295.85 1547.52 Q1295.85 1548.52 1295.03 1550.62 Q1294.26 1552.67 1292.57 1555.37 Q1290.93 1558 1288.76 1560.4 Q1286.59 1562.75 1283.37 1564.39 Q1280.15 1566.02 1276.64 1566.02 Q1271.6 1566.02 1268.27 1563.33 Q1264.93 1560.64 1263.7 1556.89 Q1263.41 1557.42 1263 1558.12 Q1262.59 1558.82 1261.36 1560.4 Q1260.19 1561.93 1258.84 1563.1 Q1257.49 1564.21 1255.38 1565.09 Q1253.33 1566.02 1251.11 1566.02 Q1248.3 1566.02 1245.78 1565.2 Q1243.32 1564.39 1241.56 1562.51 Q1239.81 1560.64 1239.81 1558.06 Q1239.81 1555.19 1241.74 1553.2 Q1243.73 1551.15 1246.42 1551.15 Q1248.12 1551.15 1249.47 1552.15 Q1250.87 1553.14 1250.87 1555.31 Q1250.87 1557.71 1249.24 1559.53 Q1247.6 1561.34 1245.25 1561.81 Q1247.65 1563.33 1251.23 1563.33 Q1255.09 1563.33 1258.14 1559.93 Q1261.18 1556.54 1262.64 1550.86 Q1266.27 1537.22 1267.68 1531.13 Q1269.09 1524.98 1269.09 1522.34 Q1269.09 1519.88 1268.44 1518.18 Q1267.8 1516.49 1266.68 1515.73 Q1265.63 1514.91 1264.64 1514.61 Q1263.7 1514.32 1262.64 1514.32 Q1260.89 1514.32 1258.9 1515.02 Q1256.96 1515.73 1254.62 1517.36 Q1252.34 1518.95 1250.17 1522.22 Q1248.01 1525.5 1246.54 1530.01 Q1246.25 1531.36 1244.96 1531.36 Q1243.56 1531.3 1243.56 1530.13 Q1243.56 1529.13 1244.32 1527.08 Q1245.14 1524.98 1246.78 1522.34 Q1248.47 1519.71 1250.64 1517.36 Q1252.87 1514.96 1256.09 1513.32 Q1259.37 1511.68 1262.88 1511.68 Q1264.46 1511.68 1265.98 1512.04 Q1267.56 1512.33 1269.44 1513.21 Q1271.37 1514.09 1273.07 1516.02 Q1274.77 1517.95 1275.82 1520.76 Q1276.52 1519.41 1277.46 1518.13 Q1278.45 1516.84 1279.98 1515.26 Q1281.56 1513.62 1283.72 1512.68 Q1285.95 1511.68 1288.41 1511.68 Q1290.81 1511.68 1293.15 1512.33 Q1295.49 1512.91 1297.49 1514.85 Q1299.53 1516.72 1299.53 1519.59 Z" fill="#000000" fill-rule="evenodd" fill-opacity="1" /><polyline clip-path="url(#clip482)" style="stroke:#000000; stroke-linecap:round; stroke-linejoin:round; stroke-width:2; stroke-opacity:0.1; fill:none" points="
  194.776,814.924 2352.76,814.924 
  "/>
<polyline clip-path="url(#clip480)" style="stroke:#000000; stroke-linecap:round; stroke-linejoin:round; stroke-width:4; stroke-opacity:1; fill:none" points="
  194.776,1354.06 194.776,47.2441 
  "/>
<polyline clip-path="url(#clip480)" style="stroke:#000000; stroke-linecap:round; stroke-linejoin:round; stroke-width:4; stroke-opacity:1; fill:none" points="
  194.776,814.924 213.673,814.924 
  "/>
<path clip-path="url(#clip480)" d="M136.38 788.296 Q129.609 788.296 126.18 794.98 Q122.795 801.621 122.795 814.989 Q122.795 828.313 126.18 834.997 Q129.609 841.638 136.38 841.638 Q143.194 841.638 146.58 834.997 Q150.008 828.313 150.008 814.989 Q150.008 801.621 146.58 794.98 Q143.194 788.296 136.38 788.296 M136.38 781.352 Q147.274 781.352 153.003 789.989 Q158.776 798.583 158.776 814.989 Q158.776 831.351 153.003 839.989 Q147.274 848.582 136.38 848.582 Q125.486 848.582 119.713 839.989 Q113.984 831.351 113.984 814.989 Q113.984 798.583 119.713 789.989 Q125.486 781.352 136.38 781.352 Z" fill="#000000" fill-rule="evenodd" fill-opacity="1" /><polyline clip-path="url(#clip482)" style="stroke:#000000; stroke-linecap:round; stroke-linejoin:round; stroke-width:12; stroke-opacity:1; fill:none" points="
  255.851,814.924 266.081,814.691 276.311,813.993 286.542,812.834 296.772,811.219 307.002,809.158 317.232,806.659 327.463,803.737 337.693,800.405 347.923,796.681 
  358.154,792.584 368.384,788.135 378.614,783.357 388.845,778.275 399.075,772.915 409.305,767.307 419.535,761.478 429.766,755.462 439.996,749.289 450.226,742.994 
  460.457,736.612 470.687,730.177 480.917,723.727 491.148,717.297 501.378,710.927 511.608,704.653 521.838,698.513 532.069,692.545 542.299,686.787 552.529,681.276 
  562.76,676.051 572.99,671.146 583.22,666.599 593.451,662.443 603.681,658.713 613.911,655.441 624.142,652.659 634.372,650.397 644.602,648.682 654.832,647.542 
  665.063,647.002 675.293,647.083 685.523,647.808 695.754,649.193 705.984,651.257 716.214,654.012 726.445,657.47 736.675,661.64 746.905,666.528 757.135,672.139 
  767.366,678.472 777.596,685.527 787.826,693.298 798.057,701.779 808.287,710.959 818.517,720.826 828.748,731.363 838.978,742.552 849.208,754.373 859.438,766.8 
  869.669,779.807 879.899,793.366 890.129,807.443 900.36,822.005 910.59,837.015 920.82,852.434 931.051,868.221 941.281,884.332 951.511,900.722 961.742,917.343 
  971.972,934.148 982.202,951.085 992.432,968.102 1002.66,985.147 1012.89,1002.16 1023.12,1019.1 1033.35,1035.9 1043.58,1052.5 1053.81,1068.85 1064.04,1084.89 
  1074.27,1100.57 1084.51,1115.82 1094.74,1130.59 1104.97,1144.82 1115.2,1158.47 1125.43,1171.46 1135.66,1183.75 1145.89,1195.29 1156.12,1206.02 1166.35,1215.9 
  1176.58,1224.88 1186.81,1232.91 1197.04,1239.95 1207.27,1245.96 1217.5,1250.9 1227.73,1254.74 1237.96,1257.43 1248.19,1258.96 1258.42,1259.28 1268.65,1258.39 
  1278.88,1256.26 1289.11,1252.87 1299.34,1248.21 1309.57,1242.27 1319.8,1235.04 1330.03,1226.53 1340.26,1216.72 1350.49,1205.63 1360.72,1193.27 1370.95,1179.64 
  1381.18,1164.78 1391.41,1148.69 1401.64,1131.4 1411.87,1112.94 1422.11,1093.35 1432.34,1072.66 1442.57,1050.91 1452.8,1028.15 1463.03,1004.42 1473.26,979.772 
  1483.49,954.266 1493.72,927.956 1503.95,900.904 1514.18,873.175 1524.41,844.835 1534.64,815.955 1544.87,786.605 1555.1,756.862 1565.33,726.802 1575.56,696.503 
  1585.79,666.047 1596.02,635.515 1606.25,604.991 1616.48,574.558 1626.71,544.304 1636.94,514.313 1647.17,484.673 1657.4,455.469 1667.63,426.789 1677.86,398.718 
  1688.09,371.342 1698.32,344.745 1708.55,319.012 1718.78,294.224 1729.01,270.461 1739.24,247.804 1749.47,226.328 1759.71,206.107 1769.94,187.214 1780.17,169.716 
  1790.4,153.681 1800.63,139.17 1810.86,126.243 1821.09,114.954 1831.32,105.356 1841.55,97.4962 1851.78,91.4169 1862.01,87.1574 1872.24,84.7518 1882.47,84.2294 
  1892.7,85.615 1902.93,88.9282 1913.16,94.1833 1923.39,101.39 1933.62,110.552 1943.85,121.668 1954.08,134.732 1964.31,149.732 1974.54,166.65 1984.77,185.463 
  1995,206.142 2005.23,228.655 2015.46,252.962 2025.69,279.019 2035.92,306.775 2046.15,336.176 2056.38,367.162 2066.61,399.669 2076.84,433.625 2087.07,468.958 
  2097.31,505.587 2107.54,543.43 2117.77,582.4 2128,622.405 2138.23,663.349 2148.46,705.135 2158.69,747.66 2168.92,790.82 2179.15,834.506 2189.38,878.608 
  2199.61,923.015 2209.84,967.611 2220.07,1012.28 2230.3,1056.91 2240.53,1101.37 2250.76,1145.55 2260.99,1189.33 2271.22,1232.59 2281.45,1275.21 2291.68,1317.07 
  
  "/>
<polyline clip-path="url(#clip482)" style="stroke:#0000ff; stroke-linecap:round; stroke-linejoin:round; stroke-width:12; stroke-opacity:1; fill:none" stroke-dasharray="48, 24, 6, 24, 6, 24" points="
  255.851,825.042 266.081,826.182 276.311,825.771 286.542,824.888 296.772,821.838 307.002,813.795 317.232,809.159 327.463,809.474 337.693,808.107 347.923,808.389 
  358.154,806.616 368.384,806.814 378.614,806.1 388.845,805.864 399.075,806.688 409.305,806.979 419.535,807.673 429.766,805.906 439.996,806.506 450.226,806.998 
  460.457,807.741 470.687,807.242 480.917,806.5 491.148,805.082 501.378,804.366 511.608,805.078 521.838,804.531 532.069,803.998 542.299,802.341 552.529,802.512 
  562.76,802.003 572.99,802.907 583.22,803.216 593.451,804.389 603.681,804.748 613.911,803.939 624.142,803.648 634.372,804.358 644.602,804.635 654.832,804.757 
  665.063,805.367 675.293,805.273 685.523,804.96 695.754,804.517 705.984,803.864 716.214,803.49 726.445,803.252 736.675,802.746 746.905,800.005 757.135,799.978 
  767.366,800.285 777.596,800.53 787.826,801.503 798.057,801.202 808.287,800.697 818.517,801.527 828.748,801.885 838.978,801.374 849.208,800.931 859.438,801.017 
  869.669,801.432 879.899,801.582 890.129,800.341 900.36,800.551 910.59,801.487 920.82,801.164 931.051,802.426 941.281,801.042 951.511,801.241 961.742,801.043 
  971.972,801.503 982.202,802.094 992.432,802.619 1002.66,802.944 1012.89,804.201 1023.12,804.191 1033.35,804.514 1043.58,804.904 1053.81,804.757 1064.04,804.944 
  1074.27,804.727 1084.51,805.115 1094.74,804.968 1104.97,804.956 1115.2,806.641 1125.43,807.381 1135.66,802.379 1145.89,794.617 1156.12,787.183 1166.35,778.3 
  1176.58,769.665 1186.81,761.62 1197.04,753.82 1207.27,746.019 1217.5,736.707 1227.73,727.948 1237.96,719.132 1248.19,710.137 1258.42,702.578 1268.65,694.259 
  1278.88,685.074 1289.11,677.44 1299.34,669.08 1309.57,660.848 1319.8,652.161 1330.03,643.646 1340.26,635.559 1350.49,626.285 1360.72,618.273 1370.95,610.049 
  1381.18,601.208 1391.41,593.979 1401.64,584.254 1411.87,575.915 1422.11,566.661 1432.34,556.659 1442.57,547.082 1452.8,537.375 1463.03,527.147 1473.26,518.824 
  1483.49,510.949 1493.72,502.307 1503.95,494.866 1514.18,486.575 1524.41,478.902 1534.64,470.782 1544.87,462.718 1555.1,453.911 1565.33,446.335 1575.56,436.584 
  1585.79,428.138 1596.02,419.449 1606.25,409.244 1616.48,401.894 1626.71,394.436 1636.94,385.489 1647.17,375.699 1657.4,366.231 1667.63,357.619 1677.86,348.798 
  1688.09,340.18 1698.32,329.68 1708.55,320.329 1718.78,309.489 1729.01,300.069 1739.24,289.262 1749.47,278.446 1759.71,269.018 1769.94,258.869 1780.17,247.134 
  1790.4,239.367 1800.63,228.892 1810.86,218.448 1821.09,205.651 1831.32,193.039 1841.55,182.402 1851.78,173.044 1862.01,162.65 1872.24,152.338 1882.47,140.962 
  1892.7,129.671 1902.93,117.574 1913.16,107.167 1923.39,93.2676 1933.62,88.2815 1943.85,84.2294 1954.08,86.6378 1964.31,91.1259 1974.54,96.147 1984.77,100.595 
  1995,104.37 2005.23,109.858 2015.46,113.037 2025.69,115.749 2035.92,123.479 2046.15,128.086 2056.38,132.496 2066.61,135.993 2076.84,138.798 2087.07,141.535 
  2097.31,145.487 2107.54,149.334 2117.77,152.143 2128,155.12 2138.23,159.42 2148.46,161.627 2158.69,163.056 2168.92,166.99 2179.15,169.777 2189.38,171.756 
  2199.61,173.278 2209.84,174.817 2220.07,177.573 2230.3,178.457 2240.53,182.042 2250.76,183.68 2260.99,185.316 2271.22,187.751 2281.45,188.764 2291.68,189.487 
  
  "/>
<polyline clip-path="url(#clip482)" style="stroke:#0000ff; stroke-linecap:round; stroke-linejoin:round; stroke-width:12; stroke-opacity:1; fill:none" stroke-dasharray="48, 30" points="
  255.851,800.758 266.081,802.084 276.311,807.496 286.542,802.301 296.772,797.741 307.002,792.506 317.232,783.455 327.463,781.183 337.693,778.028 347.923,775.453 
  358.154,772.819 368.384,772.657 378.614,770.343 388.845,772.345 399.075,771.215 409.305,775.203 419.535,775.901 429.766,775.387 439.996,776.754 450.226,776.885 
  460.457,774.442 470.687,776.379 480.917,777.064 491.148,778.163 501.378,779.593 511.608,780.236 521.838,780.842 532.069,776.804 542.299,776.34 552.529,773.996 
  562.76,771.142 572.99,772.793 583.22,771.002 593.451,768.019 603.681,767.063 613.911,768.645 624.142,768.722 634.372,767.411 644.602,767.763 654.832,767.454 
  665.063,765.739 675.293,766.236 685.523,764.467 695.754,771.828 705.984,777.886 716.214,783.135 726.445,790.452 736.675,792.774 746.905,798.988 757.135,806.108 
  767.366,811.738 777.596,816.748 787.826,817.208 798.057,818.585 808.287,818.855 818.517,818.668 828.748,818.568 838.978,818.397 849.208,817.382 859.438,817.198 
  869.669,820.119 879.899,819.664 890.129,820.028 900.36,818.838 910.59,816.198 920.82,817.2 931.051,819.663 941.281,822.849 951.511,828.313 961.742,835.726 
  971.972,842.993 982.202,849.622 992.432,860.481 1002.66,872.205 1012.89,881.886 1023.12,894.148 1033.35,906.917 1043.58,917.83 1053.81,929.138 1064.04,940.679 
  1074.27,952.744 1084.51,963.806 1094.74,973.785 1104.97,979.862 1115.2,984.395 1125.43,989.286 1135.66,989.146 1145.89,989.962 1156.12,987.409 1166.35,987.79 
  1176.58,988.75 1186.81,987.478 1197.04,987.237 1207.27,986.968 1217.5,988.477 1227.73,988.656 1237.96,987.551 1248.19,987.064 1258.42,991.04 1268.65,990.797 
  1278.88,991.347 1289.11,992.671 1299.34,994.242 1309.57,992.494 1319.8,993.369 1330.03,992.907 1340.26,988.417 1350.49,984.214 1360.72,977.88 1370.95,973.18 
  1381.18,963.362 1391.41,951.14 1401.64,933.088 1411.87,913.85 1422.11,893.576 1432.34,870.072 1442.57,844.648 1452.8,821.195 1463.03,799.42 1473.26,776.39 
  1483.49,752.281 1493.72,727.996 1503.95,707.673 1514.18,686.204 1524.41,665.553 1534.64,643.581 1544.87,622.611 1555.1,600.896 1565.33,578.212 1575.56,558.371 
  1585.79,535.93 1596.02,509.405 1606.25,486.342 1616.48,462.831 1626.71,437.722 1636.94,415.821 1647.17,394.617 1657.4,371.575 1667.63,344.245 1677.86,322.053 
  1688.09,299.191 1698.32,273.964 1708.55,251.691 1718.78,233.973 1729.01,210.478 1739.24,193.026 1749.47,171.772 1759.71,156.321 1769.94,138.655 1780.17,118.47 
  1790.4,105.25 1800.63,97.8916 1810.86,91.7923 1821.09,91.0369 1831.32,84.2294 1841.55,84.698 1851.78,89.8197 1862.01,92.1492 1872.24,90.0137 1882.47,94.2766 
  1892.7,95.2512 1902.93,101.464 1913.16,101.518 1923.39,107.712 1933.62,113.645 1943.85,127.354 1954.08,139.811 1964.31,157.554 1974.54,176.967 1984.77,189.637 
  1995,207.897 2005.23,232.86 2015.46,252.399 2025.69,273.546 2035.92,290.871 2046.15,311.592 2056.38,332.145 2066.61,351.771 2076.84,373.85 2087.07,392.94 
  2097.31,414.417 2107.54,436.006 2117.77,453.639 2128,471.352 2138.23,492.966 2148.46,513.868 2158.69,534.776 2168.92,556.122 2179.15,578.609 2189.38,603.584 
  2199.61,620.965 2209.84,640.993 2220.07,658.849 2230.3,673.537 2240.53,689.006 2250.76,701.293 2260.99,714.304 2271.22,725.67 2281.45,742.065 2291.68,756.669 
  
  "/>
<polyline clip-path="url(#clip482)" style="stroke:#0000ff; stroke-linecap:round; stroke-linejoin:round; stroke-width:12; stroke-opacity:1; fill:none" points="
  255.851,818.339 266.081,821.716 276.311,814.746 286.542,819.82 296.772,814.104 307.002,811.807 317.232,810.549 327.463,805.074 337.693,799.332 347.923,795.351 
  358.154,794.225 368.384,787.014 378.614,781.452 388.845,774.793 399.075,774.576 409.305,766.806 419.535,756.375 429.766,749.473 439.996,747.262 450.226,741.082 
  460.457,735.729 470.687,728.451 480.917,725.448 491.148,715.184 501.378,707.474 511.608,704.932 521.838,700.772 532.069,694.382 542.299,691.942 552.529,683.763 
  562.76,677.214 572.99,673.976 583.22,673.529 593.451,676.048 603.681,675.111 613.911,673.839 624.142,671.768 634.372,668.817 644.602,662.527 654.832,663.532 
  665.063,662.033 675.293,662.297 685.523,668.014 695.754,671.844 705.984,676.604 716.214,680.477 726.445,688.811 736.675,693.411 746.905,699.874 757.135,707.131 
  767.366,720.463 777.596,726.714 787.826,733.877 798.057,738.709 808.287,745.499 818.517,748.447 828.748,753.282 838.978,762.92 849.208,781.142 859.438,790.756 
  869.669,803.792 879.899,816.081 890.129,824.785 900.36,837.695 910.59,854.371 920.82,864.34 931.051,871.033 941.281,886.093 951.511,893.832 961.742,909.652 
  971.972,915.385 982.202,929.415 992.432,944.603 1002.66,960.76 1012.89,979.998 1023.12,999.281 1033.35,1022.44 1043.58,1033.43 1053.81,1052.95 1064.04,1073.06 
  1074.27,1087.17 1084.51,1101.05 1094.74,1114.84 1104.97,1124.3 1115.2,1136.54 1125.43,1148.44 1135.66,1164.01 1145.89,1175.87 1156.12,1190.76 1166.35,1192.39 
  1176.58,1201.01 1186.81,1204.6 1197.04,1208.38 1207.27,1214.25 1217.5,1216.88 1227.73,1216.42 1237.96,1217.08 1248.19,1212.73 1258.42,1205.67 1268.65,1196.3 
  1278.88,1187.38 1289.11,1182.54 1299.34,1176.32 1309.57,1165.6 1319.8,1155.34 1330.03,1147.98 1340.26,1137.28 1350.49,1119.48 1360.72,1103.57 1370.95,1098.43 
  1381.18,1084.55 1391.41,1077.65 1401.64,1061.32 1411.87,1045.36 1422.11,1029.33 1432.34,1006.3 1442.57,984.86 1452.8,972.906 1463.03,949.631 1473.26,930.212 
  1483.49,912.834 1493.72,885.095 1503.95,864.779 1514.18,842.484 1524.41,818.102 1534.64,796.639 1544.87,770.525 1555.1,751.418 1565.33,727.56 1575.56,704.063 
  1585.79,678.535 1596.02,654.779 1606.25,628.172 1616.48,600.385 1626.71,576.277 1636.94,554.745 1647.17,526.505 1657.4,503.408 1667.63,478.021 1677.86,442.661 
  1688.09,419.211 1698.32,401.6 1708.55,371.927 1718.78,351.527 1729.01,322.599 1739.24,297.337 1749.47,278.303 1759.71,253.933 1769.94,241.832 1780.17,217.771 
  1790.4,203.774 1800.63,172.867 1810.86,149.992 1821.09,141.421 1831.32,128.885 1841.55,123.23 1851.78,106.373 1862.01,90.1367 1872.24,84.2294 1882.47,97.8057 
  1892.7,97.2195 1902.93,101.312 1913.16,110.348 1923.39,114.018 1933.62,124.63 1943.85,135.428 1954.08,153.505 1964.31,176.437 1974.54,185.177 1984.77,204.548 
  1995,232.89 2005.23,263.039 2015.46,297.365 2025.69,318.506 2035.92,349.897 2046.15,374.502 2056.38,412.099 2066.61,454.088 2076.84,493.207 2087.07,530.059 
  2097.31,566.173 2107.54,597.553 2117.77,630.269 2128,667.227 2138.23,700.584 2148.46,731.661 2158.69,757.461 2168.92,779.974 2179.15,807.563 2189.38,831.723 
  2199.61,854.23 2209.84,875.873 2220.07,891.776 2230.3,918.946 2240.53,941.698 2250.76,963.221 2260.99,990.433 2271.22,1001.29 2281.45,1013.98 2291.68,1018.78 
  
  "/>
</svg>
