<?xml version="1.0" encoding="utf-8"?>
<svg xmlns="http://www.w3.org/2000/svg" xmlns:xlink="http://www.w3.org/1999/xlink" width="600" height="400" viewBox="0 0 2400 1600">
<defs>
  <clipPath id="clip150">
    <rect x="0" y="0" width="2400" height="1600"/>
  </clipPath>
</defs>
<path clip-path="url(#clip150)" d="
M0 1600 L2400 1600 L2400 0 L0 0  Z
  " fill="#ffffff" fill-rule="evenodd" fill-opacity="1"/>
<defs>
  <clipPath id="clip151">
    <rect x="480" y="0" width="1681" height="1600"/>
  </clipPath>
</defs>
<defs>
  <clipPath id="clip152">
    <rect x="110" y="47" width="2244" height="1308"/>
  </clipPath>
</defs>
<path clip-path="url(#clip150)" d="
M110.236 1354.06 L2352.76 1354.06 L2352.76 47.2441 L110.236 47.2441  Z
  " fill="#ffffff" fill-rule="evenodd" fill-opacity="1"/>
<polyline clip-path="url(#clip152)" style="stroke:#000000; stroke-linecap:round; stroke-linejoin:round; stroke-width:2; stroke-opacity:0.1; fill:none" points="
  173.704,1354.06 173.704,47.2441 
  "/>
<polyline clip-path="url(#clip152)" style="stroke:#000000; stroke-linecap:round; stroke-linejoin:round; stroke-width:2; stroke-opacity:0.1; fill:none" points="
  385.262,1354.06 385.262,47.2441 
  "/>
<polyline clip-path="url(#clip152)" style="stroke:#000000; stroke-linecap:round; stroke-linejoin:round; stroke-width:2; stroke-opacity:0.1; fill:none" points="
  596.821,1354.06 596.821,47.2441 
  "/>
<polyline clip-path="url(#clip152)" style="stroke:#000000; stroke-linecap:round; stroke-linejoin:round; stroke-width:2; stroke-opacity:0.1; fill:none" points="
  808.379,1354.06 808.379,47.2441 
  "/>
<polyline clip-path="url(#clip152)" style="stroke:#000000; stroke-linecap:round; stroke-linejoin:round; stroke-width:2; stroke-opacity:0.1; fill:none" points="
  1019.94,1354.06 1019.94,47.2441 
  "/>
<polyline clip-path="url(#clip152)" style="stroke:#000000; stroke-linecap:round; stroke-linejoin:round; stroke-width:2; stroke-opacity:0.1; fill:none" points="
  1231.5,1354.06 1231.5,47.2441 
  "/>
<polyline clip-path="url(#clip152)" style="stroke:#000000; stroke-linecap:round; stroke-linejoin:round; stroke-width:2; stroke-opacity:0.1; fill:none" points="
  1443.05,1354.06 1443.05,47.2441 
  "/>
<polyline clip-path="url(#clip152)" style="stroke:#000000; stroke-linecap:round; stroke-linejoin:round; stroke-width:2; stroke-opacity:0.1; fill:none" points="
  1654.61,1354.06 1654.61,47.2441 
  "/>
<polyline clip-path="url(#clip152)" style="stroke:#000000; stroke-linecap:round; stroke-linejoin:round; stroke-width:2; stroke-opacity:0.1; fill:none" points="
  1866.17,1354.06 1866.17,47.2441 
  "/>
<polyline clip-path="url(#clip152)" style="stroke:#000000; stroke-linecap:round; stroke-linejoin:round; stroke-width:2; stroke-opacity:0.1; fill:none" points="
  2077.73,1354.06 2077.73,47.2441 
  "/>
<polyline clip-path="url(#clip152)" style="stroke:#000000; stroke-linecap:round; stroke-linejoin:round; stroke-width:2; stroke-opacity:0.1; fill:none" points="
  2289.29,1354.06 2289.29,47.2441 
  "/>
<polyline clip-path="url(#clip150)" style="stroke:#000000; stroke-linecap:round; stroke-linejoin:round; stroke-width:4; stroke-opacity:1; fill:none" points="
  110.236,1354.06 2352.76,1354.06 
  "/>
<polyline clip-path="url(#clip150)" style="stroke:#000000; stroke-linecap:round; stroke-linejoin:round; stroke-width:4; stroke-opacity:1; fill:none" points="
  173.704,1354.06 173.704,1335.16 
  "/>
<polyline clip-path="url(#clip150)" style="stroke:#000000; stroke-linecap:round; stroke-linejoin:round; stroke-width:4; stroke-opacity:1; fill:none" points="
  385.262,1354.06 385.262,1335.16 
  "/>
<polyline clip-path="url(#clip150)" style="stroke:#000000; stroke-linecap:round; stroke-linejoin:round; stroke-width:4; stroke-opacity:1; fill:none" points="
  596.821,1354.06 596.821,1335.16 
  "/>
<polyline clip-path="url(#clip150)" style="stroke:#000000; stroke-linecap:round; stroke-linejoin:round; stroke-width:4; stroke-opacity:1; fill:none" points="
  808.379,1354.06 808.379,1335.16 
  "/>
<polyline clip-path="url(#clip150)" style="stroke:#000000; stroke-linecap:round; stroke-linejoin:round; stroke-width:4; stroke-opacity:1; fill:none" points="
  1019.94,1354.06 1019.94,1335.16 
  "/>
<polyline clip-path="url(#clip150)" style="stroke:#000000; stroke-linecap:round; stroke-linejoin:round; stroke-width:4; stroke-opacity:1; fill:none" points="
  1231.5,1354.06 1231.5,1335.16 
  "/>
<polyline clip-path="url(#clip150)" style="stroke:#000000; stroke-linecap:round; stroke-linejoin:round; stroke-width:4; stroke-opacity:1; fill:none" points="
  1443.05,1354.06 1443.05,1335.16 
  "/>
<polyline clip-path="url(#clip150)" style="stroke:#000000; stroke-linecap:round; stroke-linejoin:round; stroke-width:4; stroke-opacity:1; fill:none" points="
  1654.61,1354.06 1654.61,1335.16 
  "/>
<polyline clip-path="url(#clip150)" style="stroke:#000000; stroke-linecap:round; stroke-linejoin:round; stroke-width:4; stroke-opacity:1; fill:none" points="
  1866.17,1354.06 1866.17,1335.16 
  "/>
<polyline clip-path="url(#clip150)" style="stroke:#000000; stroke-linecap:round; stroke-linejoin:round; stroke-width:4; stroke-opacity:1; fill:none" points="
  2077.73,1354.06 2077.73,1335.16 
  "/>
<polyline clip-path="url(#clip150)" style="stroke:#000000; stroke-linecap:round; stroke-linejoin:round; stroke-width:4; stroke-opacity:1; fill:none" points="
  2289.29,1354.06 2289.29,1335.16 
  "/>
<path clip-path="url(#clip150)" d="M173.704 1395.23 Q166.933 1395.23 163.504 1401.92 Q160.119 1408.56 160.119 1421.92 Q160.119 1435.25 163.504 1441.93 Q166.933 1448.57 173.704 1448.57 Q180.518 1448.57 183.903 1441.93 Q187.332 1435.25 187.332 1421.92 Q187.332 1408.56 183.903 1401.92 Q180.518 1395.23 173.704 1395.23 M173.704 1388.29 Q184.598 1388.29 190.327 1396.93 Q196.099 1405.52 196.099 1421.92 Q196.099 1438.29 190.327 1446.92 Q184.598 1455.52 173.704 1455.52 Q162.81 1455.52 157.037 1446.92 Q151.308 1438.29 151.308 1421.92 Q151.308 1405.52 157.037 1396.93 Q162.81 1388.29 173.704 1388.29 Z" fill="#000000" fill-rule="evenodd" fill-opacity="1" /><path clip-path="url(#clip150)" d="M555.914 1395.23 Q549.143 1395.23 545.714 1401.92 Q542.329 1408.56 542.329 1421.92 Q542.329 1435.25 545.714 1441.93 Q549.143 1448.57 555.914 1448.57 Q562.728 1448.57 566.113 1441.93 Q569.542 1435.25 569.542 1421.92 Q569.542 1408.56 566.113 1401.92 Q562.728 1395.23 555.914 1395.23 M555.914 1388.29 Q566.808 1388.29 572.537 1396.93 Q578.309 1405.52 578.309 1421.92 Q578.309 1438.29 572.537 1446.92 Q566.808 1455.52 555.914 1455.52 Q545.02 1455.52 539.247 1446.92 Q533.518 1438.29 533.518 1421.92 Q533.518 1405.52 539.247 1396.93 Q545.02 1388.29 555.914 1388.29 Z" fill="#000000" fill-rule="evenodd" fill-opacity="1" /><path clip-path="url(#clip150)" d="M593.717 1443.24 L602.875 1443.24 L602.875 1454.26 L593.717 1454.26 L593.717 1443.24 Z" fill="#000000" fill-rule="evenodd" fill-opacity="1" /><path clip-path="url(#clip150)" d="M629.524 1446.88 L660.123 1446.88 L660.123 1454.26 L618.978 1454.26 L618.978 1446.88 Q623.969 1441.72 632.563 1433.04 Q641.2 1424.31 643.413 1421.79 Q647.623 1417.06 649.273 1413.81 Q650.965 1410.51 650.965 1407.34 Q650.965 1402.18 647.32 1398.92 Q643.717 1395.67 637.901 1395.67 Q633.778 1395.67 629.177 1397.1 Q624.62 1398.53 619.412 1401.44 L619.412 1392.58 Q624.707 1390.46 629.307 1389.37 Q633.908 1388.29 637.728 1388.29 Q647.797 1388.29 653.787 1393.32 Q659.776 1398.36 659.776 1406.78 Q659.776 1410.77 658.257 1414.37 Q656.781 1417.93 652.832 1422.79 Q651.747 1424.05 645.931 1430.08 Q640.115 1436.07 629.524 1446.88 Z" fill="#000000" fill-rule="evenodd" fill-opacity="1" /><path clip-path="url(#clip150)" d="M977.078 1395.23 Q970.307 1395.23 966.878 1401.92 Q963.493 1408.56 963.493 1421.92 Q963.493 1435.25 966.878 1441.93 Q970.307 1448.57 977.078 1448.57 Q983.892 1448.57 987.277 1441.93 Q990.706 1435.25 990.706 1421.92 Q990.706 1408.56 987.277 1401.92 Q983.892 1395.23 977.078 1395.23 M977.078 1388.29 Q987.972 1388.29 993.701 1396.93 Q999.473 1405.52 999.473 1421.92 Q999.473 1438.29 993.701 1446.92 Q987.972 1455.52 977.078 1455.52 Q966.184 1455.52 960.411 1446.92 Q954.682 1438.29 954.682 1421.92 Q954.682 1405.52 960.411 1396.93 Q966.184 1388.29 977.078 1388.29 Z" fill="#000000" fill-rule="evenodd" fill-opacity="1" /><path clip-path="url(#clip150)" d="M1014.88 1443.24 L1024.04 1443.24 L1024.04 1454.26 L1014.88 1454.26 L1014.88 1443.24 Z" fill="#000000" fill-rule="evenodd" fill-opacity="1" /><path clip-path="url(#clip150)" d="M1067.22 1397.1 L1045.09 1431.69 L1067.22 1431.69 L1067.22 1397.1 M1064.92 1389.46 L1075.95 1389.46 L1075.95 1431.69 L1085.19 1431.69 L1085.19 1438.98 L1075.95 1438.98 L1075.95 1454.26 L1067.22 1454.26 L1067.22 1438.98 L1037.97 1438.98 L1037.97 1430.52 L1064.92 1389.46 Z" fill="#000000" fill-rule="evenodd" fill-opacity="1" /><path clip-path="url(#clip150)" d="M1400.5 1395.23 Q1393.73 1395.23 1390.3 1401.92 Q1386.91 1408.56 1386.91 1421.92 Q1386.91 1435.25 1390.3 1441.93 Q1393.73 1448.57 1400.5 1448.57 Q1407.31 1448.57 1410.7 1441.93 Q1414.13 1435.25 1414.13 1421.92 Q1414.13 1408.56 1410.7 1401.92 Q1407.31 1395.23 1400.5 1395.23 M1400.5 1388.29 Q1411.39 1388.29 1417.12 1396.93 Q1422.89 1405.52 1422.89 1421.92 Q1422.89 1438.29 1417.12 1446.92 Q1411.39 1455.52 1400.5 1455.52 Q1389.6 1455.52 1383.83 1446.92 Q1378.1 1438.29 1378.1 1421.92 Q1378.1 1405.52 1383.83 1396.93 Q1389.6 1388.29 1400.5 1388.29 Z" fill="#000000" fill-rule="evenodd" fill-opacity="1" /><path clip-path="url(#clip150)" d="M1438.3 1443.24 L1447.46 1443.24 L1447.46 1454.26 L1438.3 1454.26 L1438.3 1443.24 Z" fill="#000000" fill-rule="evenodd" fill-opacity="1" /><path clip-path="url(#clip150)" d="M1486.39 1418.37 Q1480.49 1418.37 1477.02 1422.4 Q1473.59 1426.44 1473.59 1433.47 Q1473.59 1440.46 1477.02 1444.54 Q1480.49 1448.57 1486.39 1448.57 Q1492.29 1448.57 1495.72 1444.54 Q1499.2 1440.46 1499.2 1433.47 Q1499.2 1426.44 1495.72 1422.4 Q1492.29 1418.37 1486.39 1418.37 M1503.8 1390.89 L1503.8 1398.88 Q1500.5 1397.32 1497.11 1396.49 Q1493.77 1395.67 1490.47 1395.67 Q1481.79 1395.67 1477.19 1401.53 Q1472.63 1407.39 1471.98 1419.23 Q1474.54 1415.46 1478.41 1413.46 Q1482.27 1411.42 1486.91 1411.42 Q1496.68 1411.42 1502.32 1417.37 Q1508.01 1423.27 1508.01 1433.47 Q1508.01 1443.45 1502.1 1449.49 Q1496.2 1455.52 1486.39 1455.52 Q1475.15 1455.52 1469.2 1446.92 Q1463.26 1438.29 1463.26 1421.92 Q1463.26 1406.56 1470.55 1397.45 Q1477.84 1388.29 1490.12 1388.29 Q1493.42 1388.29 1496.77 1388.94 Q1500.15 1389.59 1503.8 1390.89 Z" fill="#000000" fill-rule="evenodd" fill-opacity="1" /><path clip-path="url(#clip150)" d="M1823.85 1395.23 Q1817.08 1395.23 1813.65 1401.92 Q1810.27 1408.56 1810.27 1421.92 Q1810.27 1435.25 1813.65 1441.93 Q1817.08 1448.57 1823.85 1448.57 Q1830.67 1448.57 1834.05 1441.93 Q1837.48 1435.25 1837.48 1421.92 Q1837.48 1408.56 1834.05 1401.92 Q1830.67 1395.23 1823.85 1395.23 M1823.85 1388.29 Q1834.75 1388.29 1840.48 1396.93 Q1846.25 1405.52 1846.25 1421.92 Q1846.25 1438.29 1840.48 1446.92 Q1834.75 1455.52 1823.85 1455.52 Q1812.96 1455.52 1807.19 1446.92 Q1801.46 1438.29 1801.46 1421.92 Q1801.46 1405.52 1807.19 1396.93 Q1812.96 1388.29 1823.85 1388.29 Z" fill="#000000" fill-rule="evenodd" fill-opacity="1" /><path clip-path="url(#clip150)" d="M1861.66 1443.24 L1870.82 1443.24 L1870.82 1454.26 L1861.66 1454.26 L1861.66 1443.24 Z" fill="#000000" fill-rule="evenodd" fill-opacity="1" /><path clip-path="url(#clip150)" d="M1908.66 1423.49 Q1902.41 1423.49 1898.81 1426.83 Q1895.25 1430.17 1895.25 1436.03 Q1895.25 1441.89 1898.81 1445.23 Q1902.41 1448.57 1908.66 1448.57 Q1914.91 1448.57 1918.51 1445.23 Q1922.12 1441.85 1922.12 1436.03 Q1922.12 1430.17 1918.51 1426.83 Q1914.96 1423.49 1908.66 1423.49 M1899.9 1419.75 Q1894.25 1418.37 1891.08 1414.5 Q1887.96 1410.64 1887.96 1405.08 Q1887.96 1397.32 1893.47 1392.8 Q1899.03 1388.29 1908.66 1388.29 Q1918.34 1388.29 1923.85 1392.8 Q1929.37 1397.32 1929.37 1405.08 Q1929.37 1410.64 1926.2 1414.5 Q1923.07 1418.37 1917.47 1419.75 Q1923.81 1421.23 1927.33 1425.53 Q1930.88 1429.82 1930.88 1436.03 Q1930.88 1445.45 1925.11 1450.48 Q1919.38 1455.52 1908.66 1455.52 Q1897.94 1455.52 1892.17 1450.48 Q1886.44 1445.45 1886.44 1436.03 Q1886.44 1429.82 1890 1425.53 Q1893.56 1421.23 1899.9 1419.75 M1896.68 1405.91 Q1896.68 1410.94 1899.81 1413.77 Q1902.98 1416.59 1908.66 1416.59 Q1914.3 1416.59 1917.47 1413.77 Q1920.69 1410.94 1920.69 1405.91 Q1920.69 1400.87 1917.47 1398.05 Q1914.3 1395.23 1908.66 1395.23 Q1902.98 1395.23 1899.81 1398.05 Q1896.68 1400.87 1896.68 1405.91 Z" fill="#000000" fill-rule="evenodd" fill-opacity="1" /><path clip-path="url(#clip150)" d="M2271.25 1446.88 L2285.58 1446.88 L2285.58 1397.45 L2270 1400.57 L2270 1392.58 L2285.49 1389.46 L2294.26 1389.46 L2294.26 1446.88 L2308.58 1446.88 L2308.58 1454.26 L2271.25 1454.26 L2271.25 1446.88 Z" fill="#000000" fill-rule="evenodd" fill-opacity="1" /><path clip-path="url(#clip150)" d="M1257.27 1519.59 Q1257.27 1522.87 1255.22 1524.74 Q1253.17 1526.56 1250.82 1526.56 Q1248.6 1526.56 1247.43 1525.27 Q1246.26 1523.98 1246.26 1522.34 Q1246.26 1520.12 1247.9 1518.18 Q1249.54 1516.25 1252 1515.84 Q1249.59 1514.32 1246.02 1514.32 Q1243.68 1514.32 1241.63 1515.55 Q1239.64 1516.78 1238.41 1518.36 Q1237.24 1519.94 1236.18 1522.22 Q1235.19 1524.45 1234.78 1525.8 Q1234.43 1527.08 1234.14 1528.49 L1230.04 1544.89 Q1228.05 1552.67 1228.05 1555.43 Q1228.05 1558.82 1229.69 1561.11 Q1231.32 1563.33 1234.6 1563.33 Q1235.89 1563.33 1237.36 1562.98 Q1238.82 1562.57 1240.69 1561.52 Q1242.63 1560.4 1244.32 1558.76 Q1246.08 1557.07 1247.78 1554.2 Q1249.48 1551.33 1250.59 1547.64 Q1250.94 1546.35 1252.11 1546.35 Q1253.58 1546.35 1253.58 1547.52 Q1253.58 1548.52 1252.76 1550.62 Q1252 1552.67 1250.3 1555.37 Q1248.66 1558 1246.49 1560.4 Q1244.32 1562.75 1241.1 1564.39 Q1237.88 1566.02 1234.37 1566.02 Q1229.33 1566.02 1226 1563.33 Q1222.66 1560.64 1221.43 1556.89 Q1221.14 1557.42 1220.73 1558.12 Q1220.32 1558.82 1219.09 1560.4 Q1217.92 1561.93 1216.57 1563.1 Q1215.22 1564.21 1213.11 1565.09 Q1211.06 1566.02 1208.84 1566.02 Q1206.03 1566.02 1203.51 1565.2 Q1201.05 1564.39 1199.29 1562.51 Q1197.54 1560.64 1197.54 1558.06 Q1197.54 1555.19 1199.47 1553.2 Q1201.46 1551.15 1204.15 1551.15 Q1205.85 1551.15 1207.2 1552.15 Q1208.6 1553.14 1208.6 1555.31 Q1208.6 1557.71 1206.97 1559.53 Q1205.33 1561.34 1202.98 1561.81 Q1205.38 1563.33 1208.96 1563.33 Q1212.82 1563.33 1215.87 1559.93 Q1218.91 1556.54 1220.37 1550.86 Q1224.01 1537.22 1225.41 1531.13 Q1226.82 1524.98 1226.82 1522.34 Q1226.82 1519.88 1226.17 1518.18 Q1225.53 1516.49 1224.42 1515.73 Q1223.36 1514.91 1222.37 1514.61 Q1221.43 1514.32 1220.37 1514.32 Q1218.62 1514.32 1216.63 1515.02 Q1214.69 1515.73 1212.35 1517.36 Q1210.07 1518.95 1207.9 1522.22 Q1205.74 1525.5 1204.27 1530.01 Q1203.98 1531.36 1202.69 1531.36 Q1201.29 1531.3 1201.29 1530.13 Q1201.29 1529.13 1202.05 1527.08 Q1202.87 1524.98 1204.51 1522.34 Q1206.2 1519.71 1208.37 1517.36 Q1210.6 1514.96 1213.82 1513.32 Q1217.1 1511.68 1220.61 1511.68 Q1222.19 1511.68 1223.71 1512.04 Q1225.29 1512.33 1227.17 1513.21 Q1229.1 1514.09 1230.8 1516.02 Q1232.5 1517.95 1233.55 1520.76 Q1234.25 1519.41 1235.19 1518.13 Q1236.18 1516.84 1237.71 1515.26 Q1239.29 1513.62 1241.45 1512.68 Q1243.68 1511.68 1246.14 1511.68 Q1248.54 1511.68 1250.88 1512.33 Q1253.22 1512.91 1255.22 1514.85 Q1257.27 1516.72 1257.27 1519.59 Z" fill="#000000" fill-rule="evenodd" fill-opacity="1" /><polyline clip-path="url(#clip150)" style="stroke:#000000; stroke-linecap:round; stroke-linejoin:round; stroke-width:4; stroke-opacity:1; fill:none" points="
  110.236,1354.06 110.236,47.2441 
  "/>
<polyline clip-path="url(#clip152)" style="stroke:#000000; stroke-linecap:round; stroke-linejoin:round; stroke-width:12; stroke-opacity:1; fill:none" points="
  173.704,1316.72 184.335,1316.54 194.966,1316.29 205.597,1315.93 216.228,1315.43 226.859,1314.72 237.49,1313.75 248.121,1312.42 258.752,1310.62 269.383,1308.22 
  280.015,1305.05 290.646,1300.91 301.277,1295.56 311.908,1288.73 322.539,1280.1 333.17,1269.33 343.801,1256.05 354.432,1239.85 365.063,1220.34 375.694,1197.11 
  386.325,1169.81 396.956,1138.1 407.587,1101.74 418.219,1060.6 428.85,1014.67 439.481,964.089 450.112,909.178 460.743,850.45 471.374,788.613 482.005,724.572 
  492.636,659.414 503.267,594.383 513.898,530.843 524.529,470.233 535.16,414.013 545.792,363.6 556.423,320.308 567.054,285.287 577.685,259.464 588.316,243.496 
  598.947,237.738 609.578,242.217 620.209,256.63 630.84,280.358 641.471,312.485 652.102,351.848 662.733,397.083 673.364,446.686 683.996,499.077 694.627,552.666 
  705.258,605.907 715.889,657.36 726.52,705.73 737.151,749.902 747.782,788.97 758.413,822.241 769.044,849.243 779.675,869.714 790.306,883.591 800.937,890.985 
  811.568,892.162 822.2,887.514 832.831,877.537 843.462,862.803 854.093,843.938 864.724,821.605 875.355,796.482 885.986,769.249 896.617,740.578 907.248,711.119 
  917.879,681.494 928.51,652.287 939.141,624.043 949.772,597.259 960.404,572.378 971.035,549.791 981.666,529.827 992.297,512.755 1002.93,498.778 1013.56,488.034 
  1024.19,480.596 1034.82,476.472 1045.45,475.604 1056.08,477.878 1066.71,483.121 1077.35,491.112 1087.98,501.586 1098.61,514.239 1109.24,528.744 1119.87,544.751 
  1130.5,561.899 1141.13,579.827 1151.76,598.178 1162.39,616.612 1173.03,634.809 1183.66,652.475 1194.29,669.351 1204.92,685.216 1215.55,699.885 1226.18,713.218 
  1236.81,725.117 1247.44,735.523 1258.07,744.42 1268.7,751.828 1279.34,757.803 1289.97,762.429 1300.6,765.821 1311.23,768.112 1321.86,769.455 1332.49,770.016 
  1343.12,769.969 1353.75,769.49 1364.38,768.759 1375.02,767.95 1385.65,767.229 1396.28,766.753 1406.91,766.667 1417.54,767.099 1428.17,768.161 1438.8,769.944 
  1449.43,772.52 1460.06,775.939 1470.7,780.223 1481.33,785.372 1491.96,791.357 1502.59,798.119 1513.22,805.566 1523.85,813.572 1534.48,821.974 1545.11,830.569 
  1555.74,839.111 1566.38,847.313 1577.01,854.842 1587.64,861.322 1598.27,866.338 1608.9,869.441 1619.53,870.153 1630.16,867.986 1640.79,862.451 1651.42,853.082 
  1662.05,839.455 1672.69,821.217 1683.32,798.111 1693.95,770.005 1704.58,736.918 1715.21,699.043 1725.84,656.767 1736.47,610.679 1747.1,561.577 1757.73,510.452 
  1768.37,458.475 1779,406.962 1789.63,357.333 1800.26,311.059 1810.89,269.604 1821.52,234.366 1832.15,206.607 1842.78,187.405 1853.41,177.592 1864.05,177.72 
  1874.68,188.032 1885.31,208.449 1895.94,238.577 1906.57,277.725 1917.2,324.941 1927.83,379.058 1938.46,438.751 1949.09,502.595 1959.72,569.13 1970.36,636.918 
  1980.99,704.601 1991.62,770.944 2002.25,834.868 2012.88,895.481 2023.51,952.087 2034.14,1004.19 2044.77,1051.47 2055.4,1093.81 2066.04,1131.23 2076.67,1163.88 
  2087.3,1192.01 2097.93,1215.96 2108.56,1236.1 2119.19,1252.85 2129.82,1266.6 2140.45,1277.78 2151.08,1286.76 2161.72,1293.9 2172.35,1299.51 2182.98,1303.88 
  2193.61,1307.24 2204.24,1309.8 2214.87,1311.73 2225.5,1313.18 2236.13,1314.25 2246.76,1315.04 2257.4,1315.61 2268.03,1316.03 2278.66,1316.32 2289.29,1316.54 
  
  "/>
<path clip-path="url(#clip152)" d="
M321.795 1278.9 L321.795 1317.07 L342.951 1317.07 L342.951 1278.9 L321.795 1278.9 L321.795 1278.9  Z
  " fill="#008000" fill-rule="evenodd" fill-opacity="1"/>
<polyline clip-path="url(#clip152)" style="stroke:#000000; stroke-linecap:round; stroke-linejoin:round; stroke-width:4; stroke-opacity:1; fill:none" points="
  321.795,1278.9 321.795,1317.07 342.951,1317.07 342.951,1278.9 321.795,1278.9 
  "/>
<path clip-path="url(#clip152)" d="
M342.951 1317.07 L342.951 1317.07 L364.106 1317.07 L364.106 1317.07 L342.951 1317.07 L342.951 1317.07  Z
  " fill="#008000" fill-rule="evenodd" fill-opacity="1"/>
<polyline clip-path="url(#clip152)" style="stroke:#000000; stroke-linecap:round; stroke-linejoin:round; stroke-width:4; stroke-opacity:1; fill:none" points="
  342.951,1317.07 342.951,1317.07 364.106,1317.07 342.951,1317.07 
  "/>
<path clip-path="url(#clip152)" d="
M364.106 1278.9 L364.106 1317.07 L385.262 1317.07 L385.262 1278.9 L364.106 1278.9 L364.106 1278.9  Z
  " fill="#008000" fill-rule="evenodd" fill-opacity="1"/>
<polyline clip-path="url(#clip152)" style="stroke:#000000; stroke-linecap:round; stroke-linejoin:round; stroke-width:4; stroke-opacity:1; fill:none" points="
  364.106,1278.9 364.106,1317.07 385.262,1317.07 385.262,1278.9 364.106,1278.9 
  "/>
<path clip-path="url(#clip152)" d="
M385.262 1317.07 L385.262 1317.07 L406.418 1317.07 L406.418 1317.07 L385.262 1317.07 L385.262 1317.07  Z
  " fill="#008000" fill-rule="evenodd" fill-opacity="1"/>
<polyline clip-path="url(#clip152)" style="stroke:#000000; stroke-linecap:round; stroke-linejoin:round; stroke-width:4; stroke-opacity:1; fill:none" points="
  385.262,1317.07 385.262,1317.07 406.418,1317.07 385.262,1317.07 
  "/>
<path clip-path="url(#clip152)" d="
M406.418 1202.56 L406.418 1317.07 L427.574 1317.07 L427.574 1202.56 L406.418 1202.56 L406.418 1202.56  Z
  " fill="#008000" fill-rule="evenodd" fill-opacity="1"/>
<polyline clip-path="url(#clip152)" style="stroke:#000000; stroke-linecap:round; stroke-linejoin:round; stroke-width:4; stroke-opacity:1; fill:none" points="
  406.418,1202.56 406.418,1317.07 427.574,1317.07 427.574,1202.56 406.418,1202.56 
  "/>
<path clip-path="url(#clip152)" d="
M427.574 1202.56 L427.574 1317.07 L448.73 1317.07 L448.73 1202.56 L427.574 1202.56 L427.574 1202.56  Z
  " fill="#008000" fill-rule="evenodd" fill-opacity="1"/>
<polyline clip-path="url(#clip152)" style="stroke:#000000; stroke-linecap:round; stroke-linejoin:round; stroke-width:4; stroke-opacity:1; fill:none" points="
  427.574,1202.56 427.574,1317.07 448.73,1317.07 448.73,1202.56 427.574,1202.56 
  "/>
<path clip-path="url(#clip152)" d="
M448.73 1202.56 L448.73 1317.07 L469.886 1317.07 L469.886 1202.56 L448.73 1202.56 L448.73 1202.56  Z
  " fill="#008000" fill-rule="evenodd" fill-opacity="1"/>
<polyline clip-path="url(#clip152)" style="stroke:#000000; stroke-linecap:round; stroke-linejoin:round; stroke-width:4; stroke-opacity:1; fill:none" points="
  448.73,1202.56 448.73,1317.07 469.886,1317.07 469.886,1202.56 448.73,1202.56 
  "/>
<path clip-path="url(#clip152)" d="
M469.886 1278.9 L469.886 1317.07 L491.041 1317.07 L491.041 1278.9 L469.886 1278.9 L469.886 1278.9  Z
  " fill="#008000" fill-rule="evenodd" fill-opacity="1"/>
<polyline clip-path="url(#clip152)" style="stroke:#000000; stroke-linecap:round; stroke-linejoin:round; stroke-width:4; stroke-opacity:1; fill:none" points="
  469.886,1278.9 469.886,1317.07 491.041,1317.07 491.041,1278.9 469.886,1278.9 
  "/>
<path clip-path="url(#clip152)" d="
M491.041 1126.22 L491.041 1317.07 L512.197 1317.07 L512.197 1126.22 L491.041 1126.22 L491.041 1126.22  Z
  " fill="#008000" fill-rule="evenodd" fill-opacity="1"/>
<polyline clip-path="url(#clip152)" style="stroke:#000000; stroke-linecap:round; stroke-linejoin:round; stroke-width:4; stroke-opacity:1; fill:none" points="
  491.041,1126.22 491.041,1317.07 512.197,1317.07 512.197,1126.22 491.041,1126.22 
  "/>
<path clip-path="url(#clip152)" d="
M512.197 1088.05 L512.197 1317.07 L533.353 1317.07 L533.353 1088.05 L512.197 1088.05 L512.197 1088.05  Z
  " fill="#008000" fill-rule="evenodd" fill-opacity="1"/>
<polyline clip-path="url(#clip152)" style="stroke:#000000; stroke-linecap:round; stroke-linejoin:round; stroke-width:4; stroke-opacity:1; fill:none" points="
  512.197,1088.05 512.197,1317.07 533.353,1317.07 533.353,1088.05 512.197,1088.05 
  "/>
<path clip-path="url(#clip152)" d="
M533.353 1088.05 L533.353 1317.07 L554.509 1317.07 L554.509 1088.05 L533.353 1088.05 L533.353 1088.05  Z
  " fill="#008000" fill-rule="evenodd" fill-opacity="1"/>
<polyline clip-path="url(#clip152)" style="stroke:#000000; stroke-linecap:round; stroke-linejoin:round; stroke-width:4; stroke-opacity:1; fill:none" points="
  533.353,1088.05 533.353,1317.07 554.509,1317.07 554.509,1088.05 533.353,1088.05 
  "/>
<path clip-path="url(#clip152)" d="
M554.509 897.188 L554.509 1317.07 L575.665 1317.07 L575.665 897.188 L554.509 897.188 L554.509 897.188  Z
  " fill="#008000" fill-rule="evenodd" fill-opacity="1"/>
<polyline clip-path="url(#clip152)" style="stroke:#000000; stroke-linecap:round; stroke-linejoin:round; stroke-width:4; stroke-opacity:1; fill:none" points="
  554.509,897.188 554.509,1317.07 575.665,1317.07 575.665,897.188 554.509,897.188 
  "/>
<path clip-path="url(#clip152)" d="
M575.665 1011.7 L575.665 1317.07 L596.821 1317.07 L596.821 1011.7 L575.665 1011.7 L575.665 1011.7  Z
  " fill="#008000" fill-rule="evenodd" fill-opacity="1"/>
<polyline clip-path="url(#clip152)" style="stroke:#000000; stroke-linecap:round; stroke-linejoin:round; stroke-width:4; stroke-opacity:1; fill:none" points="
  575.665,1011.7 575.665,1317.07 596.821,1317.07 596.821,1011.7 575.665,1011.7 
  "/>
<path clip-path="url(#clip152)" d="
M596.821 897.188 L596.821 1317.07 L617.977 1317.07 L617.977 897.188 L596.821 897.188 L596.821 897.188  Z
  " fill="#008000" fill-rule="evenodd" fill-opacity="1"/>
<polyline clip-path="url(#clip152)" style="stroke:#000000; stroke-linecap:round; stroke-linejoin:round; stroke-width:4; stroke-opacity:1; fill:none" points="
  596.821,897.188 596.821,1317.07 617.977,1317.07 617.977,897.188 596.821,897.188 
  "/>
<path clip-path="url(#clip152)" d="
M617.977 1088.05 L617.977 1317.07 L639.132 1317.07 L639.132 1088.05 L617.977 1088.05 L617.977 1088.05  Z
  " fill="#008000" fill-rule="evenodd" fill-opacity="1"/>
<polyline clip-path="url(#clip152)" style="stroke:#000000; stroke-linecap:round; stroke-linejoin:round; stroke-width:4; stroke-opacity:1; fill:none" points="
  617.977,1088.05 617.977,1317.07 639.132,1317.07 639.132,1088.05 617.977,1088.05 
  "/>
<path clip-path="url(#clip152)" d="
M639.132 973.531 L639.132 1317.07 L660.288 1317.07 L660.288 973.531 L639.132 973.531 L639.132 973.531  Z
  " fill="#008000" fill-rule="evenodd" fill-opacity="1"/>
<polyline clip-path="url(#clip152)" style="stroke:#000000; stroke-linecap:round; stroke-linejoin:round; stroke-width:4; stroke-opacity:1; fill:none" points="
  639.132,973.531 639.132,1317.07 660.288,1317.07 660.288,973.531 639.132,973.531 
  "/>
<path clip-path="url(#clip152)" d="
M660.288 1164.39 L660.288 1317.07 L681.444 1317.07 L681.444 1164.39 L660.288 1164.39 L660.288 1164.39  Z
  " fill="#008000" fill-rule="evenodd" fill-opacity="1"/>
<polyline clip-path="url(#clip152)" style="stroke:#000000; stroke-linecap:round; stroke-linejoin:round; stroke-width:4; stroke-opacity:1; fill:none" points="
  660.288,1164.39 660.288,1317.07 681.444,1317.07 681.444,1164.39 660.288,1164.39 
  "/>
<path clip-path="url(#clip152)" d="
M681.444 1126.22 L681.444 1317.07 L702.6 1317.07 L702.6 1126.22 L681.444 1126.22 L681.444 1126.22  Z
  " fill="#008000" fill-rule="evenodd" fill-opacity="1"/>
<polyline clip-path="url(#clip152)" style="stroke:#000000; stroke-linecap:round; stroke-linejoin:round; stroke-width:4; stroke-opacity:1; fill:none" points="
  681.444,1126.22 681.444,1317.07 702.6,1317.07 702.6,1126.22 681.444,1126.22 
  "/>
<path clip-path="url(#clip152)" d="
M702.6 1164.39 L702.6 1317.07 L723.756 1317.07 L723.756 1164.39 L702.6 1164.39 L702.6 1164.39  Z
  " fill="#008000" fill-rule="evenodd" fill-opacity="1"/>
<polyline clip-path="url(#clip152)" style="stroke:#000000; stroke-linecap:round; stroke-linejoin:round; stroke-width:4; stroke-opacity:1; fill:none" points="
  702.6,1164.39 702.6,1317.07 723.756,1317.07 723.756,1164.39 702.6,1164.39 
  "/>
<path clip-path="url(#clip152)" d="
M723.756 1126.22 L723.756 1317.07 L744.912 1317.07 L744.912 1126.22 L723.756 1126.22 L723.756 1126.22  Z
  " fill="#008000" fill-rule="evenodd" fill-opacity="1"/>
<polyline clip-path="url(#clip152)" style="stroke:#000000; stroke-linecap:round; stroke-linejoin:round; stroke-width:4; stroke-opacity:1; fill:none" points="
  723.756,1126.22 723.756,1317.07 744.912,1317.07 744.912,1126.22 723.756,1126.22 
  "/>
<path clip-path="url(#clip152)" d="
M744.912 1164.39 L744.912 1317.07 L766.067 1317.07 L766.067 1164.39 L744.912 1164.39 L744.912 1164.39  Z
  " fill="#008000" fill-rule="evenodd" fill-opacity="1"/>
<polyline clip-path="url(#clip152)" style="stroke:#000000; stroke-linecap:round; stroke-linejoin:round; stroke-width:4; stroke-opacity:1; fill:none" points="
  744.912,1164.39 744.912,1317.07 766.067,1317.07 766.067,1164.39 744.912,1164.39 
  "/>
<path clip-path="url(#clip152)" d="
M766.067 1202.56 L766.067 1317.07 L787.223 1317.07 L787.223 1202.56 L766.067 1202.56 L766.067 1202.56  Z
  " fill="#008000" fill-rule="evenodd" fill-opacity="1"/>
<polyline clip-path="url(#clip152)" style="stroke:#000000; stroke-linecap:round; stroke-linejoin:round; stroke-width:4; stroke-opacity:1; fill:none" points="
  766.067,1202.56 766.067,1317.07 787.223,1317.07 787.223,1202.56 766.067,1202.56 
  "/>
<path clip-path="url(#clip152)" d="
M787.223 1049.87 L787.223 1317.07 L808.379 1317.07 L808.379 1049.87 L787.223 1049.87 L787.223 1049.87  Z
  " fill="#008000" fill-rule="evenodd" fill-opacity="1"/>
<polyline clip-path="url(#clip152)" style="stroke:#000000; stroke-linecap:round; stroke-linejoin:round; stroke-width:4; stroke-opacity:1; fill:none" points="
  787.223,1049.87 787.223,1317.07 808.379,1317.07 808.379,1049.87 787.223,1049.87 
  "/>
<path clip-path="url(#clip152)" d="
M808.379 1164.39 L808.379 1317.07 L829.535 1317.07 L829.535 1164.39 L808.379 1164.39 L808.379 1164.39  Z
  " fill="#008000" fill-rule="evenodd" fill-opacity="1"/>
<polyline clip-path="url(#clip152)" style="stroke:#000000; stroke-linecap:round; stroke-linejoin:round; stroke-width:4; stroke-opacity:1; fill:none" points="
  808.379,1164.39 808.379,1317.07 829.535,1317.07 829.535,1164.39 808.379,1164.39 
  "/>
<path clip-path="url(#clip152)" d="
M829.535 1240.73 L829.535 1317.07 L850.691 1317.07 L850.691 1240.73 L829.535 1240.73 L829.535 1240.73  Z
  " fill="#008000" fill-rule="evenodd" fill-opacity="1"/>
<polyline clip-path="url(#clip152)" style="stroke:#000000; stroke-linecap:round; stroke-linejoin:round; stroke-width:4; stroke-opacity:1; fill:none" points="
  829.535,1240.73 829.535,1317.07 850.691,1317.07 850.691,1240.73 829.535,1240.73 
  "/>
<path clip-path="url(#clip152)" d="
M850.691 1202.56 L850.691 1317.07 L871.847 1317.07 L871.847 1202.56 L850.691 1202.56 L850.691 1202.56  Z
  " fill="#008000" fill-rule="evenodd" fill-opacity="1"/>
<polyline clip-path="url(#clip152)" style="stroke:#000000; stroke-linecap:round; stroke-linejoin:round; stroke-width:4; stroke-opacity:1; fill:none" points="
  850.691,1202.56 850.691,1317.07 871.847,1317.07 871.847,1202.56 850.691,1202.56 
  "/>
<path clip-path="url(#clip152)" d="
M871.847 1240.73 L871.847 1317.07 L893.003 1317.07 L893.003 1240.73 L871.847 1240.73 L871.847 1240.73  Z
  " fill="#008000" fill-rule="evenodd" fill-opacity="1"/>
<polyline clip-path="url(#clip152)" style="stroke:#000000; stroke-linecap:round; stroke-linejoin:round; stroke-width:4; stroke-opacity:1; fill:none" points="
  871.847,1240.73 871.847,1317.07 893.003,1317.07 893.003,1240.73 871.847,1240.73 
  "/>
<path clip-path="url(#clip152)" d="
M893.003 1202.56 L893.003 1317.07 L914.158 1317.07 L914.158 1202.56 L893.003 1202.56 L893.003 1202.56  Z
  " fill="#008000" fill-rule="evenodd" fill-opacity="1"/>
<polyline clip-path="url(#clip152)" style="stroke:#000000; stroke-linecap:round; stroke-linejoin:round; stroke-width:4; stroke-opacity:1; fill:none" points="
  893.003,1202.56 893.003,1317.07 914.158,1317.07 914.158,1202.56 893.003,1202.56 
  "/>
<path clip-path="url(#clip152)" d="
M914.158 1202.56 L914.158 1317.07 L935.314 1317.07 L935.314 1202.56 L914.158 1202.56 L914.158 1202.56  Z
  " fill="#008000" fill-rule="evenodd" fill-opacity="1"/>
<polyline clip-path="url(#clip152)" style="stroke:#000000; stroke-linecap:round; stroke-linejoin:round; stroke-width:4; stroke-opacity:1; fill:none" points="
  914.158,1202.56 914.158,1317.07 935.314,1317.07 935.314,1202.56 914.158,1202.56 
  "/>
<path clip-path="url(#clip152)" d="
M935.314 1049.87 L935.314 1317.07 L956.47 1317.07 L956.47 1049.87 L935.314 1049.87 L935.314 1049.87  Z
  " fill="#008000" fill-rule="evenodd" fill-opacity="1"/>
<polyline clip-path="url(#clip152)" style="stroke:#000000; stroke-linecap:round; stroke-linejoin:round; stroke-width:4; stroke-opacity:1; fill:none" points="
  935.314,1049.87 935.314,1317.07 956.47,1317.07 956.47,1049.87 935.314,1049.87 
  "/>
<path clip-path="url(#clip152)" d="
M956.47 1049.87 L956.47 1317.07 L977.626 1317.07 L977.626 1049.87 L956.47 1049.87 L956.47 1049.87  Z
  " fill="#008000" fill-rule="evenodd" fill-opacity="1"/>
<polyline clip-path="url(#clip152)" style="stroke:#000000; stroke-linecap:round; stroke-linejoin:round; stroke-width:4; stroke-opacity:1; fill:none" points="
  956.47,1049.87 956.47,1317.07 977.626,1317.07 977.626,1049.87 956.47,1049.87 
  "/>
<path clip-path="url(#clip152)" d="
M977.626 1126.22 L977.626 1317.07 L998.782 1317.07 L998.782 1126.22 L977.626 1126.22 L977.626 1126.22  Z
  " fill="#008000" fill-rule="evenodd" fill-opacity="1"/>
<polyline clip-path="url(#clip152)" style="stroke:#000000; stroke-linecap:round; stroke-linejoin:round; stroke-width:4; stroke-opacity:1; fill:none" points="
  977.626,1126.22 977.626,1317.07 998.782,1317.07 998.782,1126.22 977.626,1126.22 
  "/>
<path clip-path="url(#clip152)" d="
M998.782 820.845 L998.782 1317.07 L1019.94 1317.07 L1019.94 820.845 L998.782 820.845 L998.782 820.845  Z
  " fill="#008000" fill-rule="evenodd" fill-opacity="1"/>
<polyline clip-path="url(#clip152)" style="stroke:#000000; stroke-linecap:round; stroke-linejoin:round; stroke-width:4; stroke-opacity:1; fill:none" points="
  998.782,820.845 998.782,1317.07 1019.94,1317.07 1019.94,820.845 998.782,820.845 
  "/>
<path clip-path="url(#clip152)" d="
M1019.94 897.188 L1019.94 1317.07 L1041.09 1317.07 L1041.09 897.188 L1019.94 897.188 L1019.94 897.188  Z
  " fill="#008000" fill-rule="evenodd" fill-opacity="1"/>
<polyline clip-path="url(#clip152)" style="stroke:#000000; stroke-linecap:round; stroke-linejoin:round; stroke-width:4; stroke-opacity:1; fill:none" points="
  1019.94,897.188 1019.94,1317.07 1041.09,1317.07 1041.09,897.188 1019.94,897.188 
  "/>
<path clip-path="url(#clip152)" d="
M1041.09 1126.22 L1041.09 1317.07 L1062.25 1317.07 L1062.25 1126.22 L1041.09 1126.22 L1041.09 1126.22  Z
  " fill="#008000" fill-rule="evenodd" fill-opacity="1"/>
<polyline clip-path="url(#clip152)" style="stroke:#000000; stroke-linecap:round; stroke-linejoin:round; stroke-width:4; stroke-opacity:1; fill:none" points="
  1041.09,1126.22 1041.09,1317.07 1062.25,1317.07 1062.25,1126.22 1041.09,1126.22 
  "/>
<path clip-path="url(#clip152)" d="
M1062.25 1126.22 L1062.25 1317.07 L1083.41 1317.07 L1083.41 1126.22 L1062.25 1126.22 L1062.25 1126.22  Z
  " fill="#008000" fill-rule="evenodd" fill-opacity="1"/>
<polyline clip-path="url(#clip152)" style="stroke:#000000; stroke-linecap:round; stroke-linejoin:round; stroke-width:4; stroke-opacity:1; fill:none" points="
  1062.25,1126.22 1062.25,1317.07 1083.41,1317.07 1083.41,1126.22 1062.25,1126.22 
  "/>
<path clip-path="url(#clip152)" d="
M1083.41 1049.87 L1083.41 1317.07 L1104.56 1317.07 L1104.56 1049.87 L1083.41 1049.87 L1083.41 1049.87  Z
  " fill="#008000" fill-rule="evenodd" fill-opacity="1"/>
<polyline clip-path="url(#clip152)" style="stroke:#000000; stroke-linecap:round; stroke-linejoin:round; stroke-width:4; stroke-opacity:1; fill:none" points="
  1083.41,1049.87 1083.41,1317.07 1104.56,1317.07 1104.56,1049.87 1083.41,1049.87 
  "/>
<path clip-path="url(#clip152)" d="
M1104.56 1164.39 L1104.56 1317.07 L1125.72 1317.07 L1125.72 1164.39 L1104.56 1164.39 L1104.56 1164.39  Z
  " fill="#008000" fill-rule="evenodd" fill-opacity="1"/>
<polyline clip-path="url(#clip152)" style="stroke:#000000; stroke-linecap:round; stroke-linejoin:round; stroke-width:4; stroke-opacity:1; fill:none" points="
  1104.56,1164.39 1104.56,1317.07 1125.72,1317.07 1125.72,1164.39 1104.56,1164.39 
  "/>
<path clip-path="url(#clip152)" d="
M1125.72 1049.87 L1125.72 1317.07 L1146.87 1317.07 L1146.87 1049.87 L1125.72 1049.87 L1125.72 1049.87  Z
  " fill="#008000" fill-rule="evenodd" fill-opacity="1"/>
<polyline clip-path="url(#clip152)" style="stroke:#000000; stroke-linecap:round; stroke-linejoin:round; stroke-width:4; stroke-opacity:1; fill:none" points="
  1125.72,1049.87 1125.72,1317.07 1146.87,1317.07 1146.87,1049.87 1125.72,1049.87 
  "/>
<path clip-path="url(#clip152)" d="
M1146.87 1088.05 L1146.87 1317.07 L1168.03 1317.07 L1168.03 1088.05 L1146.87 1088.05 L1146.87 1088.05  Z
  " fill="#008000" fill-rule="evenodd" fill-opacity="1"/>
<polyline clip-path="url(#clip152)" style="stroke:#000000; stroke-linecap:round; stroke-linejoin:round; stroke-width:4; stroke-opacity:1; fill:none" points="
  1146.87,1088.05 1146.87,1317.07 1168.03,1317.07 1168.03,1088.05 1146.87,1088.05 
  "/>
<path clip-path="url(#clip152)" d="
M1168.03 1202.56 L1168.03 1317.07 L1189.18 1317.07 L1189.18 1202.56 L1168.03 1202.56 L1168.03 1202.56  Z
  " fill="#008000" fill-rule="evenodd" fill-opacity="1"/>
<polyline clip-path="url(#clip152)" style="stroke:#000000; stroke-linecap:round; stroke-linejoin:round; stroke-width:4; stroke-opacity:1; fill:none" points="
  1168.03,1202.56 1168.03,1317.07 1189.18,1317.07 1189.18,1202.56 1168.03,1202.56 
  "/>
<path clip-path="url(#clip152)" d="
M1189.18 1126.22 L1189.18 1317.07 L1210.34 1317.07 L1210.34 1126.22 L1189.18 1126.22 L1189.18 1126.22  Z
  " fill="#008000" fill-rule="evenodd" fill-opacity="1"/>
<polyline clip-path="url(#clip152)" style="stroke:#000000; stroke-linecap:round; stroke-linejoin:round; stroke-width:4; stroke-opacity:1; fill:none" points="
  1189.18,1126.22 1189.18,1317.07 1210.34,1317.07 1210.34,1126.22 1189.18,1126.22 
  "/>
<path clip-path="url(#clip152)" d="
M1210.34 1164.39 L1210.34 1317.07 L1231.5 1317.07 L1231.5 1164.39 L1210.34 1164.39 L1210.34 1164.39  Z
  " fill="#008000" fill-rule="evenodd" fill-opacity="1"/>
<polyline clip-path="url(#clip152)" style="stroke:#000000; stroke-linecap:round; stroke-linejoin:round; stroke-width:4; stroke-opacity:1; fill:none" points="
  1210.34,1164.39 1210.34,1317.07 1231.5,1317.07 1231.5,1164.39 1210.34,1164.39 
  "/>
<path clip-path="url(#clip152)" d="
M1231.5 1126.22 L1231.5 1317.07 L1252.65 1317.07 L1252.65 1126.22 L1231.5 1126.22 L1231.5 1126.22  Z
  " fill="#008000" fill-rule="evenodd" fill-opacity="1"/>
<polyline clip-path="url(#clip152)" style="stroke:#000000; stroke-linecap:round; stroke-linejoin:round; stroke-width:4; stroke-opacity:1; fill:none" points="
  1231.5,1126.22 1231.5,1317.07 1252.65,1317.07 1252.65,1126.22 1231.5,1126.22 
  "/>
<path clip-path="url(#clip152)" d="
M1252.65 1164.39 L1252.65 1317.07 L1273.81 1317.07 L1273.81 1164.39 L1252.65 1164.39 L1252.65 1164.39  Z
  " fill="#008000" fill-rule="evenodd" fill-opacity="1"/>
<polyline clip-path="url(#clip152)" style="stroke:#000000; stroke-linecap:round; stroke-linejoin:round; stroke-width:4; stroke-opacity:1; fill:none" points="
  1252.65,1164.39 1252.65,1317.07 1273.81,1317.07 1273.81,1164.39 1252.65,1164.39 
  "/>
<path clip-path="url(#clip152)" d="
M1273.81 1088.05 L1273.81 1317.07 L1294.96 1317.07 L1294.96 1088.05 L1273.81 1088.05 L1273.81 1088.05  Z
  " fill="#008000" fill-rule="evenodd" fill-opacity="1"/>
<polyline clip-path="url(#clip152)" style="stroke:#000000; stroke-linecap:round; stroke-linejoin:round; stroke-width:4; stroke-opacity:1; fill:none" points="
  1273.81,1088.05 1273.81,1317.07 1294.96,1317.07 1294.96,1088.05 1273.81,1088.05 
  "/>
<path clip-path="url(#clip152)" d="
M1294.96 1164.39 L1294.96 1317.07 L1316.12 1317.07 L1316.12 1164.39 L1294.96 1164.39 L1294.96 1164.39  Z
  " fill="#008000" fill-rule="evenodd" fill-opacity="1"/>
<polyline clip-path="url(#clip152)" style="stroke:#000000; stroke-linecap:round; stroke-linejoin:round; stroke-width:4; stroke-opacity:1; fill:none" points="
  1294.96,1164.39 1294.96,1317.07 1316.12,1317.07 1316.12,1164.39 1294.96,1164.39 
  "/>
<path clip-path="url(#clip152)" d="
M1316.12 1278.9 L1316.12 1317.07 L1337.28 1317.07 L1337.28 1278.9 L1316.12 1278.9 L1316.12 1278.9  Z
  " fill="#008000" fill-rule="evenodd" fill-opacity="1"/>
<polyline clip-path="url(#clip152)" style="stroke:#000000; stroke-linecap:round; stroke-linejoin:round; stroke-width:4; stroke-opacity:1; fill:none" points="
  1316.12,1278.9 1316.12,1317.07 1337.28,1317.07 1337.28,1278.9 1316.12,1278.9 
  "/>
<path clip-path="url(#clip152)" d="
M1337.28 1126.22 L1337.28 1317.07 L1358.43 1317.07 L1358.43 1126.22 L1337.28 1126.22 L1337.28 1126.22  Z
  " fill="#008000" fill-rule="evenodd" fill-opacity="1"/>
<polyline clip-path="url(#clip152)" style="stroke:#000000; stroke-linecap:round; stroke-linejoin:round; stroke-width:4; stroke-opacity:1; fill:none" points="
  1337.28,1126.22 1337.28,1317.07 1358.43,1317.07 1358.43,1126.22 1337.28,1126.22 
  "/>
<path clip-path="url(#clip152)" d="
M1358.43 1240.73 L1358.43 1317.07 L1379.59 1317.07 L1379.59 1240.73 L1358.43 1240.73 L1358.43 1240.73  Z
  " fill="#008000" fill-rule="evenodd" fill-opacity="1"/>
<polyline clip-path="url(#clip152)" style="stroke:#000000; stroke-linecap:round; stroke-linejoin:round; stroke-width:4; stroke-opacity:1; fill:none" points="
  1358.43,1240.73 1358.43,1317.07 1379.59,1317.07 1379.59,1240.73 1358.43,1240.73 
  "/>
<path clip-path="url(#clip152)" d="
M1379.59 1164.39 L1379.59 1317.07 L1400.74 1317.07 L1400.74 1164.39 L1379.59 1164.39 L1379.59 1164.39  Z
  " fill="#008000" fill-rule="evenodd" fill-opacity="1"/>
<polyline clip-path="url(#clip152)" style="stroke:#000000; stroke-linecap:round; stroke-linejoin:round; stroke-width:4; stroke-opacity:1; fill:none" points="
  1379.59,1164.39 1379.59,1317.07 1400.74,1317.07 1400.74,1164.39 1379.59,1164.39 
  "/>
<path clip-path="url(#clip152)" d="
M1400.74 1240.73 L1400.74 1317.07 L1421.9 1317.07 L1421.9 1240.73 L1400.74 1240.73 L1400.74 1240.73  Z
  " fill="#008000" fill-rule="evenodd" fill-opacity="1"/>
<polyline clip-path="url(#clip152)" style="stroke:#000000; stroke-linecap:round; stroke-linejoin:round; stroke-width:4; stroke-opacity:1; fill:none" points="
  1400.74,1240.73 1400.74,1317.07 1421.9,1317.07 1421.9,1240.73 1400.74,1240.73 
  "/>
<path clip-path="url(#clip152)" d="
M1421.9 1088.05 L1421.9 1317.07 L1443.05 1317.07 L1443.05 1088.05 L1421.9 1088.05 L1421.9 1088.05  Z
  " fill="#008000" fill-rule="evenodd" fill-opacity="1"/>
<polyline clip-path="url(#clip152)" style="stroke:#000000; stroke-linecap:round; stroke-linejoin:round; stroke-width:4; stroke-opacity:1; fill:none" points="
  1421.9,1088.05 1421.9,1317.07 1443.05,1317.07 1443.05,1088.05 1421.9,1088.05 
  "/>
<path clip-path="url(#clip152)" d="
M1443.05 1164.39 L1443.05 1317.07 L1464.21 1317.07 L1464.21 1164.39 L1443.05 1164.39 L1443.05 1164.39  Z
  " fill="#008000" fill-rule="evenodd" fill-opacity="1"/>
<polyline clip-path="url(#clip152)" style="stroke:#000000; stroke-linecap:round; stroke-linejoin:round; stroke-width:4; stroke-opacity:1; fill:none" points="
  1443.05,1164.39 1443.05,1317.07 1464.21,1317.07 1464.21,1164.39 1443.05,1164.39 
  "/>
<path clip-path="url(#clip152)" d="
M1464.21 1240.73 L1464.21 1317.07 L1485.37 1317.07 L1485.37 1240.73 L1464.21 1240.73 L1464.21 1240.73  Z
  " fill="#008000" fill-rule="evenodd" fill-opacity="1"/>
<polyline clip-path="url(#clip152)" style="stroke:#000000; stroke-linecap:round; stroke-linejoin:round; stroke-width:4; stroke-opacity:1; fill:none" points="
  1464.21,1240.73 1464.21,1317.07 1485.37,1317.07 1485.37,1240.73 1464.21,1240.73 
  "/>
<path clip-path="url(#clip152)" d="
M1485.37 1202.56 L1485.37 1317.07 L1506.52 1317.07 L1506.52 1202.56 L1485.37 1202.56 L1485.37 1202.56  Z
  " fill="#008000" fill-rule="evenodd" fill-opacity="1"/>
<polyline clip-path="url(#clip152)" style="stroke:#000000; stroke-linecap:round; stroke-linejoin:round; stroke-width:4; stroke-opacity:1; fill:none" points="
  1485.37,1202.56 1485.37,1317.07 1506.52,1317.07 1506.52,1202.56 1485.37,1202.56 
  "/>
<path clip-path="url(#clip152)" d="
M1506.52 1317.07 L1506.52 1317.07 L1527.68 1317.07 L1527.68 1317.07 L1506.52 1317.07 L1506.52 1317.07  Z
  " fill="#008000" fill-rule="evenodd" fill-opacity="1"/>
<polyline clip-path="url(#clip152)" style="stroke:#000000; stroke-linecap:round; stroke-linejoin:round; stroke-width:4; stroke-opacity:1; fill:none" points="
  1506.52,1317.07 1506.52,1317.07 1527.68,1317.07 1506.52,1317.07 
  "/>
<path clip-path="url(#clip152)" d="
M1527.68 1240.73 L1527.68 1317.07 L1548.83 1317.07 L1548.83 1240.73 L1527.68 1240.73 L1527.68 1240.73  Z
  " fill="#008000" fill-rule="evenodd" fill-opacity="1"/>
<polyline clip-path="url(#clip152)" style="stroke:#000000; stroke-linecap:round; stroke-linejoin:round; stroke-width:4; stroke-opacity:1; fill:none" points="
  1527.68,1240.73 1527.68,1317.07 1548.83,1317.07 1548.83,1240.73 1527.68,1240.73 
  "/>
<path clip-path="url(#clip152)" d="
M1548.83 1126.22 L1548.83 1317.07 L1569.99 1317.07 L1569.99 1126.22 L1548.83 1126.22 L1548.83 1126.22  Z
  " fill="#008000" fill-rule="evenodd" fill-opacity="1"/>
<polyline clip-path="url(#clip152)" style="stroke:#000000; stroke-linecap:round; stroke-linejoin:round; stroke-width:4; stroke-opacity:1; fill:none" points="
  1548.83,1126.22 1548.83,1317.07 1569.99,1317.07 1569.99,1126.22 1548.83,1126.22 
  "/>
<path clip-path="url(#clip152)" d="
M1569.99 1126.22 L1569.99 1317.07 L1591.15 1317.07 L1591.15 1126.22 L1569.99 1126.22 L1569.99 1126.22  Z
  " fill="#008000" fill-rule="evenodd" fill-opacity="1"/>
<polyline clip-path="url(#clip152)" style="stroke:#000000; stroke-linecap:round; stroke-linejoin:round; stroke-width:4; stroke-opacity:1; fill:none" points="
  1569.99,1126.22 1569.99,1317.07 1591.15,1317.07 1591.15,1126.22 1569.99,1126.22 
  "/>
<path clip-path="url(#clip152)" d="
M1591.15 1164.39 L1591.15 1317.07 L1612.3 1317.07 L1612.3 1164.39 L1591.15 1164.39 L1591.15 1164.39  Z
  " fill="#008000" fill-rule="evenodd" fill-opacity="1"/>
<polyline clip-path="url(#clip152)" style="stroke:#000000; stroke-linecap:round; stroke-linejoin:round; stroke-width:4; stroke-opacity:1; fill:none" points="
  1591.15,1164.39 1591.15,1317.07 1612.3,1317.07 1612.3,1164.39 1591.15,1164.39 
  "/>
<path clip-path="url(#clip152)" d="
M1612.3 1240.73 L1612.3 1317.07 L1633.46 1317.07 L1633.46 1240.73 L1612.3 1240.73 L1612.3 1240.73  Z
  " fill="#008000" fill-rule="evenodd" fill-opacity="1"/>
<polyline clip-path="url(#clip152)" style="stroke:#000000; stroke-linecap:round; stroke-linejoin:round; stroke-width:4; stroke-opacity:1; fill:none" points="
  1612.3,1240.73 1612.3,1317.07 1633.46,1317.07 1633.46,1240.73 1612.3,1240.73 
  "/>
<path clip-path="url(#clip152)" d="
M1633.46 1278.9 L1633.46 1317.07 L1654.61 1317.07 L1654.61 1278.9 L1633.46 1278.9 L1633.46 1278.9  Z
  " fill="#008000" fill-rule="evenodd" fill-opacity="1"/>
<polyline clip-path="url(#clip152)" style="stroke:#000000; stroke-linecap:round; stroke-linejoin:round; stroke-width:4; stroke-opacity:1; fill:none" points="
  1633.46,1278.9 1633.46,1317.07 1654.61,1317.07 1654.61,1278.9 1633.46,1278.9 
  "/>
<path clip-path="url(#clip152)" d="
M1654.61 1126.22 L1654.61 1317.07 L1675.77 1317.07 L1675.77 1126.22 L1654.61 1126.22 L1654.61 1126.22  Z
  " fill="#008000" fill-rule="evenodd" fill-opacity="1"/>
<polyline clip-path="url(#clip152)" style="stroke:#000000; stroke-linecap:round; stroke-linejoin:round; stroke-width:4; stroke-opacity:1; fill:none" points="
  1654.61,1126.22 1654.61,1317.07 1675.77,1317.07 1675.77,1126.22 1654.61,1126.22 
  "/>
<path clip-path="url(#clip152)" d="
M1675.77 1202.56 L1675.77 1317.07 L1696.92 1317.07 L1696.92 1202.56 L1675.77 1202.56 L1675.77 1202.56  Z
  " fill="#008000" fill-rule="evenodd" fill-opacity="1"/>
<polyline clip-path="url(#clip152)" style="stroke:#000000; stroke-linecap:round; stroke-linejoin:round; stroke-width:4; stroke-opacity:1; fill:none" points="
  1675.77,1202.56 1675.77,1317.07 1696.92,1317.07 1696.92,1202.56 1675.77,1202.56 
  "/>
<path clip-path="url(#clip152)" d="
M1696.92 1164.39 L1696.92 1317.07 L1718.08 1317.07 L1718.08 1164.39 L1696.92 1164.39 L1696.92 1164.39  Z
  " fill="#008000" fill-rule="evenodd" fill-opacity="1"/>
<polyline clip-path="url(#clip152)" style="stroke:#000000; stroke-linecap:round; stroke-linejoin:round; stroke-width:4; stroke-opacity:1; fill:none" points="
  1696.92,1164.39 1696.92,1317.07 1718.08,1317.07 1718.08,1164.39 1696.92,1164.39 
  "/>
<path clip-path="url(#clip152)" d="
M1718.08 1202.56 L1718.08 1317.07 L1739.24 1317.07 L1739.24 1202.56 L1718.08 1202.56 L1718.08 1202.56  Z
  " fill="#008000" fill-rule="evenodd" fill-opacity="1"/>
<polyline clip-path="url(#clip152)" style="stroke:#000000; stroke-linecap:round; stroke-linejoin:round; stroke-width:4; stroke-opacity:1; fill:none" points="
  1718.08,1202.56 1718.08,1317.07 1739.24,1317.07 1739.24,1202.56 1718.08,1202.56 
  "/>
<path clip-path="url(#clip152)" d="
M1739.24 935.359 L1739.24 1317.07 L1760.39 1317.07 L1760.39 935.359 L1739.24 935.359 L1739.24 935.359  Z
  " fill="#008000" fill-rule="evenodd" fill-opacity="1"/>
<polyline clip-path="url(#clip152)" style="stroke:#000000; stroke-linecap:round; stroke-linejoin:round; stroke-width:4; stroke-opacity:1; fill:none" points="
  1739.24,935.359 1739.24,1317.07 1760.39,1317.07 1760.39,935.359 1739.24,935.359 
  "/>
<path clip-path="url(#clip152)" d="
M1760.39 1088.05 L1760.39 1317.07 L1781.55 1317.07 L1781.55 1088.05 L1760.39 1088.05 L1760.39 1088.05  Z
  " fill="#008000" fill-rule="evenodd" fill-opacity="1"/>
<polyline clip-path="url(#clip152)" style="stroke:#000000; stroke-linecap:round; stroke-linejoin:round; stroke-width:4; stroke-opacity:1; fill:none" points="
  1760.39,1088.05 1760.39,1317.07 1781.55,1317.07 1781.55,1088.05 1760.39,1088.05 
  "/>
<path clip-path="url(#clip152)" d="
M1781.55 1126.22 L1781.55 1317.07 L1802.7 1317.07 L1802.7 1126.22 L1781.55 1126.22 L1781.55 1126.22  Z
  " fill="#008000" fill-rule="evenodd" fill-opacity="1"/>
<polyline clip-path="url(#clip152)" style="stroke:#000000; stroke-linecap:round; stroke-linejoin:round; stroke-width:4; stroke-opacity:1; fill:none" points="
  1781.55,1126.22 1781.55,1317.07 1802.7,1317.07 1802.7,1126.22 1781.55,1126.22 
  "/>
<path clip-path="url(#clip152)" d="
M1802.7 935.359 L1802.7 1317.07 L1823.86 1317.07 L1823.86 935.359 L1802.7 935.359 L1802.7 935.359  Z
  " fill="#008000" fill-rule="evenodd" fill-opacity="1"/>
<polyline clip-path="url(#clip152)" style="stroke:#000000; stroke-linecap:round; stroke-linejoin:round; stroke-width:4; stroke-opacity:1; fill:none" points="
  1802.7,935.359 1802.7,1317.07 1823.86,1317.07 1823.86,935.359 1802.7,935.359 
  "/>
<path clip-path="url(#clip152)" d="
M1823.86 782.673 L1823.86 1317.07 L1845.02 1317.07 L1845.02 782.673 L1823.86 782.673 L1823.86 782.673  Z
  " fill="#008000" fill-rule="evenodd" fill-opacity="1"/>
<polyline clip-path="url(#clip152)" style="stroke:#000000; stroke-linecap:round; stroke-linejoin:round; stroke-width:4; stroke-opacity:1; fill:none" points="
  1823.86,782.673 1823.86,1317.07 1845.02,1317.07 1845.02,782.673 1823.86,782.673 
  "/>
<path clip-path="url(#clip152)" d="
M1845.02 973.531 L1845.02 1317.07 L1866.17 1317.07 L1866.17 973.531 L1845.02 973.531 L1845.02 973.531  Z
  " fill="#008000" fill-rule="evenodd" fill-opacity="1"/>
<polyline clip-path="url(#clip152)" style="stroke:#000000; stroke-linecap:round; stroke-linejoin:round; stroke-width:4; stroke-opacity:1; fill:none" points="
  1845.02,973.531 1845.02,1317.07 1866.17,1317.07 1866.17,973.531 1845.02,973.531 
  "/>
<path clip-path="url(#clip152)" d="
M1866.17 744.502 L1866.17 1317.07 L1887.33 1317.07 L1887.33 744.502 L1866.17 744.502 L1866.17 744.502  Z
  " fill="#008000" fill-rule="evenodd" fill-opacity="1"/>
<polyline clip-path="url(#clip152)" style="stroke:#000000; stroke-linecap:round; stroke-linejoin:round; stroke-width:4; stroke-opacity:1; fill:none" points="
  1866.17,744.502 1866.17,1317.07 1887.33,1317.07 1887.33,744.502 1866.17,744.502 
  "/>
<path clip-path="url(#clip152)" d="
M1887.33 935.359 L1887.33 1317.07 L1908.48 1317.07 L1908.48 935.359 L1887.33 935.359 L1887.33 935.359  Z
  " fill="#008000" fill-rule="evenodd" fill-opacity="1"/>
<polyline clip-path="url(#clip152)" style="stroke:#000000; stroke-linecap:round; stroke-linejoin:round; stroke-width:4; stroke-opacity:1; fill:none" points="
  1887.33,935.359 1887.33,1317.07 1908.48,1317.07 1908.48,935.359 1887.33,935.359 
  "/>
<path clip-path="url(#clip152)" d="
M1908.48 1126.22 L1908.48 1317.07 L1929.64 1317.07 L1929.64 1126.22 L1908.48 1126.22 L1908.48 1126.22  Z
  " fill="#008000" fill-rule="evenodd" fill-opacity="1"/>
<polyline clip-path="url(#clip152)" style="stroke:#000000; stroke-linecap:round; stroke-linejoin:round; stroke-width:4; stroke-opacity:1; fill:none" points="
  1908.48,1126.22 1908.48,1317.07 1929.64,1317.07 1929.64,1126.22 1908.48,1126.22 
  "/>
<path clip-path="url(#clip152)" d="
M1929.64 1088.05 L1929.64 1317.07 L1950.79 1317.07 L1950.79 1088.05 L1929.64 1088.05 L1929.64 1088.05  Z
  " fill="#008000" fill-rule="evenodd" fill-opacity="1"/>
<polyline clip-path="url(#clip152)" style="stroke:#000000; stroke-linecap:round; stroke-linejoin:round; stroke-width:4; stroke-opacity:1; fill:none" points="
  1929.64,1088.05 1929.64,1317.07 1950.79,1317.07 1950.79,1088.05 1929.64,1088.05 
  "/>
<path clip-path="url(#clip152)" d="
M1950.79 1126.22 L1950.79 1317.07 L1971.95 1317.07 L1971.95 1126.22 L1950.79 1126.22 L1950.79 1126.22  Z
  " fill="#008000" fill-rule="evenodd" fill-opacity="1"/>
<polyline clip-path="url(#clip152)" style="stroke:#000000; stroke-linecap:round; stroke-linejoin:round; stroke-width:4; stroke-opacity:1; fill:none" points="
  1950.79,1126.22 1950.79,1317.07 1971.95,1317.07 1971.95,1126.22 1950.79,1126.22 
  "/>
<path clip-path="url(#clip152)" d="
M1971.95 1202.56 L1971.95 1317.07 L1993.11 1317.07 L1993.11 1202.56 L1971.95 1202.56 L1971.95 1202.56  Z
  " fill="#008000" fill-rule="evenodd" fill-opacity="1"/>
<polyline clip-path="url(#clip152)" style="stroke:#000000; stroke-linecap:round; stroke-linejoin:round; stroke-width:4; stroke-opacity:1; fill:none" points="
  1971.95,1202.56 1971.95,1317.07 1993.11,1317.07 1993.11,1202.56 1971.95,1202.56 
  "/>
<path clip-path="url(#clip152)" d="
M1993.11 1164.39 L1993.11 1317.07 L2014.26 1317.07 L2014.26 1164.39 L1993.11 1164.39 L1993.11 1164.39  Z
  " fill="#008000" fill-rule="evenodd" fill-opacity="1"/>
<polyline clip-path="url(#clip152)" style="stroke:#000000; stroke-linecap:round; stroke-linejoin:round; stroke-width:4; stroke-opacity:1; fill:none" points="
  1993.11,1164.39 1993.11,1317.07 2014.26,1317.07 2014.26,1164.39 1993.11,1164.39 
  "/>
<path clip-path="url(#clip152)" d="
M2014.26 1278.9 L2014.26 1317.07 L2035.42 1317.07 L2035.42 1278.9 L2014.26 1278.9 L2014.26 1278.9  Z
  " fill="#008000" fill-rule="evenodd" fill-opacity="1"/>
<polyline clip-path="url(#clip152)" style="stroke:#000000; stroke-linecap:round; stroke-linejoin:round; stroke-width:4; stroke-opacity:1; fill:none" points="
  2014.26,1278.9 2014.26,1317.07 2035.42,1317.07 2035.42,1278.9 2014.26,1278.9 
  "/>
<path clip-path="url(#clip152)" d="
M2035.42 1240.73 L2035.42 1317.07 L2056.57 1317.07 L2056.57 1240.73 L2035.42 1240.73 L2035.42 1240.73  Z
  " fill="#008000" fill-rule="evenodd" fill-opacity="1"/>
<polyline clip-path="url(#clip152)" style="stroke:#000000; stroke-linecap:round; stroke-linejoin:round; stroke-width:4; stroke-opacity:1; fill:none" points="
  2035.42,1240.73 2035.42,1317.07 2056.57,1317.07 2056.57,1240.73 2035.42,1240.73 
  "/>
<path clip-path="url(#clip152)" d="
M2056.57 1317.07 L2056.57 1317.07 L2077.73 1317.07 L2077.73 1317.07 L2056.57 1317.07 L2056.57 1317.07  Z
  " fill="#008000" fill-rule="evenodd" fill-opacity="1"/>
<polyline clip-path="url(#clip152)" style="stroke:#000000; stroke-linecap:round; stroke-linejoin:round; stroke-width:4; stroke-opacity:1; fill:none" points="
  2056.57,1317.07 2056.57,1317.07 2077.73,1317.07 2056.57,1317.07 
  "/>
<path clip-path="url(#clip152)" d="
M2077.73 1278.9 L2077.73 1317.07 L2098.89 1317.07 L2098.89 1278.9 L2077.73 1278.9 L2077.73 1278.9  Z
  " fill="#008000" fill-rule="evenodd" fill-opacity="1"/>
<polyline clip-path="url(#clip152)" style="stroke:#000000; stroke-linecap:round; stroke-linejoin:round; stroke-width:4; stroke-opacity:1; fill:none" points="
  2077.73,1278.9 2077.73,1317.07 2098.89,1317.07 2098.89,1278.9 2077.73,1278.9 
  "/>
<circle clip-path="url(#clip152)" style="fill:#008000; stroke:none; fill-opacity:0" cx="332.373" cy="1278.9" r="2"/>
<circle clip-path="url(#clip152)" style="fill:#008000; stroke:none; fill-opacity:0" cx="353.528" cy="1317.07" r="2"/>
<circle clip-path="url(#clip152)" style="fill:#008000; stroke:none; fill-opacity:0" cx="374.684" cy="1278.9" r="2"/>
<circle clip-path="url(#clip152)" style="fill:#008000; stroke:none; fill-opacity:0" cx="395.84" cy="1317.07" r="2"/>
<circle clip-path="url(#clip152)" style="fill:#008000; stroke:none; fill-opacity:0" cx="416.996" cy="1202.56" r="2"/>
<circle clip-path="url(#clip152)" style="fill:#008000; stroke:none; fill-opacity:0" cx="438.152" cy="1202.56" r="2"/>
<circle clip-path="url(#clip152)" style="fill:#008000; stroke:none; fill-opacity:0" cx="459.308" cy="1202.56" r="2"/>
<circle clip-path="url(#clip152)" style="fill:#008000; stroke:none; fill-opacity:0" cx="480.464" cy="1278.9" r="2"/>
<circle clip-path="url(#clip152)" style="fill:#008000; stroke:none; fill-opacity:0" cx="501.619" cy="1126.22" r="2"/>
<circle clip-path="url(#clip152)" style="fill:#008000; stroke:none; fill-opacity:0" cx="522.775" cy="1088.05" r="2"/>
<circle clip-path="url(#clip152)" style="fill:#008000; stroke:none; fill-opacity:0" cx="543.931" cy="1088.05" r="2"/>
<circle clip-path="url(#clip152)" style="fill:#008000; stroke:none; fill-opacity:0" cx="565.087" cy="897.188" r="2"/>
<circle clip-path="url(#clip152)" style="fill:#008000; stroke:none; fill-opacity:0" cx="586.243" cy="1011.7" r="2"/>
<circle clip-path="url(#clip152)" style="fill:#008000; stroke:none; fill-opacity:0" cx="607.399" cy="897.188" r="2"/>
<circle clip-path="url(#clip152)" style="fill:#008000; stroke:none; fill-opacity:0" cx="628.554" cy="1088.05" r="2"/>
<circle clip-path="url(#clip152)" style="fill:#008000; stroke:none; fill-opacity:0" cx="649.71" cy="973.531" r="2"/>
<circle clip-path="url(#clip152)" style="fill:#008000; stroke:none; fill-opacity:0" cx="670.866" cy="1164.39" r="2"/>
<circle clip-path="url(#clip152)" style="fill:#008000; stroke:none; fill-opacity:0" cx="692.022" cy="1126.22" r="2"/>
<circle clip-path="url(#clip152)" style="fill:#008000; stroke:none; fill-opacity:0" cx="713.178" cy="1164.39" r="2"/>
<circle clip-path="url(#clip152)" style="fill:#008000; stroke:none; fill-opacity:0" cx="734.334" cy="1126.22" r="2"/>
<circle clip-path="url(#clip152)" style="fill:#008000; stroke:none; fill-opacity:0" cx="755.49" cy="1164.39" r="2"/>
<circle clip-path="url(#clip152)" style="fill:#008000; stroke:none; fill-opacity:0" cx="776.645" cy="1202.56" r="2"/>
<circle clip-path="url(#clip152)" style="fill:#008000; stroke:none; fill-opacity:0" cx="797.801" cy="1049.87" r="2"/>
<circle clip-path="url(#clip152)" style="fill:#008000; stroke:none; fill-opacity:0" cx="818.957" cy="1164.39" r="2"/>
<circle clip-path="url(#clip152)" style="fill:#008000; stroke:none; fill-opacity:0" cx="840.113" cy="1240.73" r="2"/>
<circle clip-path="url(#clip152)" style="fill:#008000; stroke:none; fill-opacity:0" cx="861.269" cy="1202.56" r="2"/>
<circle clip-path="url(#clip152)" style="fill:#008000; stroke:none; fill-opacity:0" cx="882.425" cy="1240.73" r="2"/>
<circle clip-path="url(#clip152)" style="fill:#008000; stroke:none; fill-opacity:0" cx="903.58" cy="1202.56" r="2"/>
<circle clip-path="url(#clip152)" style="fill:#008000; stroke:none; fill-opacity:0" cx="924.736" cy="1202.56" r="2"/>
<circle clip-path="url(#clip152)" style="fill:#008000; stroke:none; fill-opacity:0" cx="945.892" cy="1049.87" r="2"/>
<circle clip-path="url(#clip152)" style="fill:#008000; stroke:none; fill-opacity:0" cx="967.048" cy="1049.87" r="2"/>
<circle clip-path="url(#clip152)" style="fill:#008000; stroke:none; fill-opacity:0" cx="988.204" cy="1126.22" r="2"/>
<circle clip-path="url(#clip152)" style="fill:#008000; stroke:none; fill-opacity:0" cx="1009.36" cy="820.845" r="2"/>
<circle clip-path="url(#clip152)" style="fill:#008000; stroke:none; fill-opacity:0" cx="1030.52" cy="897.188" r="2"/>
<circle clip-path="url(#clip152)" style="fill:#008000; stroke:none; fill-opacity:0" cx="1051.67" cy="1126.22" r="2"/>
<circle clip-path="url(#clip152)" style="fill:#008000; stroke:none; fill-opacity:0" cx="1072.83" cy="1126.22" r="2"/>
<circle clip-path="url(#clip152)" style="fill:#008000; stroke:none; fill-opacity:0" cx="1093.98" cy="1049.87" r="2"/>
<circle clip-path="url(#clip152)" style="fill:#008000; stroke:none; fill-opacity:0" cx="1115.14" cy="1164.39" r="2"/>
<circle clip-path="url(#clip152)" style="fill:#008000; stroke:none; fill-opacity:0" cx="1136.29" cy="1049.87" r="2"/>
<circle clip-path="url(#clip152)" style="fill:#008000; stroke:none; fill-opacity:0" cx="1157.45" cy="1088.05" r="2"/>
<circle clip-path="url(#clip152)" style="fill:#008000; stroke:none; fill-opacity:0" cx="1178.61" cy="1202.56" r="2"/>
<circle clip-path="url(#clip152)" style="fill:#008000; stroke:none; fill-opacity:0" cx="1199.76" cy="1126.22" r="2"/>
<circle clip-path="url(#clip152)" style="fill:#008000; stroke:none; fill-opacity:0" cx="1220.92" cy="1164.39" r="2"/>
<circle clip-path="url(#clip152)" style="fill:#008000; stroke:none; fill-opacity:0" cx="1242.07" cy="1126.22" r="2"/>
<circle clip-path="url(#clip152)" style="fill:#008000; stroke:none; fill-opacity:0" cx="1263.23" cy="1164.39" r="2"/>
<circle clip-path="url(#clip152)" style="fill:#008000; stroke:none; fill-opacity:0" cx="1284.39" cy="1088.05" r="2"/>
<circle clip-path="url(#clip152)" style="fill:#008000; stroke:none; fill-opacity:0" cx="1305.54" cy="1164.39" r="2"/>
<circle clip-path="url(#clip152)" style="fill:#008000; stroke:none; fill-opacity:0" cx="1326.7" cy="1278.9" r="2"/>
<circle clip-path="url(#clip152)" style="fill:#008000; stroke:none; fill-opacity:0" cx="1347.85" cy="1126.22" r="2"/>
<circle clip-path="url(#clip152)" style="fill:#008000; stroke:none; fill-opacity:0" cx="1369.01" cy="1240.73" r="2"/>
<circle clip-path="url(#clip152)" style="fill:#008000; stroke:none; fill-opacity:0" cx="1390.16" cy="1164.39" r="2"/>
<circle clip-path="url(#clip152)" style="fill:#008000; stroke:none; fill-opacity:0" cx="1411.32" cy="1240.73" r="2"/>
<circle clip-path="url(#clip152)" style="fill:#008000; stroke:none; fill-opacity:0" cx="1432.48" cy="1088.05" r="2"/>
<circle clip-path="url(#clip152)" style="fill:#008000; stroke:none; fill-opacity:0" cx="1453.63" cy="1164.39" r="2"/>
<circle clip-path="url(#clip152)" style="fill:#008000; stroke:none; fill-opacity:0" cx="1474.79" cy="1240.73" r="2"/>
<circle clip-path="url(#clip152)" style="fill:#008000; stroke:none; fill-opacity:0" cx="1495.94" cy="1202.56" r="2"/>
<circle clip-path="url(#clip152)" style="fill:#008000; stroke:none; fill-opacity:0" cx="1517.1" cy="1317.07" r="2"/>
<circle clip-path="url(#clip152)" style="fill:#008000; stroke:none; fill-opacity:0" cx="1538.26" cy="1240.73" r="2"/>
<circle clip-path="url(#clip152)" style="fill:#008000; stroke:none; fill-opacity:0" cx="1559.41" cy="1126.22" r="2"/>
<circle clip-path="url(#clip152)" style="fill:#008000; stroke:none; fill-opacity:0" cx="1580.57" cy="1126.22" r="2"/>
<circle clip-path="url(#clip152)" style="fill:#008000; stroke:none; fill-opacity:0" cx="1601.72" cy="1164.39" r="2"/>
<circle clip-path="url(#clip152)" style="fill:#008000; stroke:none; fill-opacity:0" cx="1622.88" cy="1240.73" r="2"/>
<circle clip-path="url(#clip152)" style="fill:#008000; stroke:none; fill-opacity:0" cx="1644.04" cy="1278.9" r="2"/>
<circle clip-path="url(#clip152)" style="fill:#008000; stroke:none; fill-opacity:0" cx="1665.19" cy="1126.22" r="2"/>
<circle clip-path="url(#clip152)" style="fill:#008000; stroke:none; fill-opacity:0" cx="1686.35" cy="1202.56" r="2"/>
<circle clip-path="url(#clip152)" style="fill:#008000; stroke:none; fill-opacity:0" cx="1707.5" cy="1164.39" r="2"/>
<circle clip-path="url(#clip152)" style="fill:#008000; stroke:none; fill-opacity:0" cx="1728.66" cy="1202.56" r="2"/>
<circle clip-path="url(#clip152)" style="fill:#008000; stroke:none; fill-opacity:0" cx="1749.81" cy="935.359" r="2"/>
<circle clip-path="url(#clip152)" style="fill:#008000; stroke:none; fill-opacity:0" cx="1770.97" cy="1088.05" r="2"/>
<circle clip-path="url(#clip152)" style="fill:#008000; stroke:none; fill-opacity:0" cx="1792.13" cy="1126.22" r="2"/>
<circle clip-path="url(#clip152)" style="fill:#008000; stroke:none; fill-opacity:0" cx="1813.28" cy="935.359" r="2"/>
<circle clip-path="url(#clip152)" style="fill:#008000; stroke:none; fill-opacity:0" cx="1834.44" cy="782.673" r="2"/>
<circle clip-path="url(#clip152)" style="fill:#008000; stroke:none; fill-opacity:0" cx="1855.59" cy="973.531" r="2"/>
<circle clip-path="url(#clip152)" style="fill:#008000; stroke:none; fill-opacity:0" cx="1876.75" cy="744.502" r="2"/>
<circle clip-path="url(#clip152)" style="fill:#008000; stroke:none; fill-opacity:0" cx="1897.91" cy="935.359" r="2"/>
<circle clip-path="url(#clip152)" style="fill:#008000; stroke:none; fill-opacity:0" cx="1919.06" cy="1126.22" r="2"/>
<circle clip-path="url(#clip152)" style="fill:#008000; stroke:none; fill-opacity:0" cx="1940.22" cy="1088.05" r="2"/>
<circle clip-path="url(#clip152)" style="fill:#008000; stroke:none; fill-opacity:0" cx="1961.37" cy="1126.22" r="2"/>
<circle clip-path="url(#clip152)" style="fill:#008000; stroke:none; fill-opacity:0" cx="1982.53" cy="1202.56" r="2"/>
<circle clip-path="url(#clip152)" style="fill:#008000; stroke:none; fill-opacity:0" cx="2003.68" cy="1164.39" r="2"/>
<circle clip-path="url(#clip152)" style="fill:#008000; stroke:none; fill-opacity:0" cx="2024.84" cy="1278.9" r="2"/>
<circle clip-path="url(#clip152)" style="fill:#008000; stroke:none; fill-opacity:0" cx="2046" cy="1240.73" r="2"/>
<circle clip-path="url(#clip152)" style="fill:#008000; stroke:none; fill-opacity:0" cx="2067.15" cy="1317.07" r="2"/>
<circle clip-path="url(#clip152)" style="fill:#008000; stroke:none; fill-opacity:0" cx="2088.31" cy="1278.9" r="2"/>
<polyline clip-path="url(#clip152)" style="stroke:#0000ff; stroke-linecap:round; stroke-linejoin:round; stroke-width:12; stroke-opacity:1; fill:none" stroke-dasharray="48, 24, 6, 24, 6, 24" points="
  173.704,1156.29 184.335,1147.97 194.966,1139.44 205.597,1130.69 216.228,1121.74 226.859,1112.58 237.49,1103.21 248.121,1093.65 258.752,1083.9 269.383,1073.96 
  280.015,1063.83 290.646,1053.53 301.277,1043.06 311.908,1032.44 322.539,1021.66 333.17,1010.76 343.801,999.721 354.432,988.563 365.063,977.296 375.694,965.935 
  386.325,954.495 396.956,942.993 407.587,931.439 418.219,919.846 428.85,908.232 439.481,896.613 450.112,885.01 460.743,873.44 471.374,861.923 482.005,850.48 
  492.636,839.128 503.267,827.889 513.898,816.789 524.529,805.85 535.16,795.089 545.792,784.522 556.423,774.169 567.054,764.047 577.685,754.172 588.316,744.561 
  598.947,735.226 609.578,726.181 620.209,717.445 630.84,709.031 641.471,700.949 652.102,693.209 662.733,685.813 673.364,678.769 683.996,672.077 694.627,665.739 
  705.258,659.756 715.889,654.13 726.52,648.859 737.151,643.938 747.782,639.365 758.413,635.132 769.044,631.232 779.675,627.656 790.306,624.394 800.937,621.438 
  811.568,618.778 822.2,616.41 832.831,614.325 843.462,612.515 854.093,610.973 864.724,609.689 875.355,608.656 885.986,607.87 896.617,607.323 907.248,607.008 
  917.879,606.918 928.51,607.047 939.141,607.387 949.772,607.937 960.404,608.691 971.035,609.647 981.666,610.803 992.297,612.16 1002.93,613.72 1013.56,615.485 
  1024.19,617.456 1034.82,619.637 1045.45,622.024 1056.08,624.62 1066.71,627.424 1077.35,630.434 1087.98,633.645 1098.61,637.053 1109.24,640.651 1119.87,644.43 
  1130.5,648.38 1141.13,652.495 1151.76,656.763 1162.39,661.172 1173.03,665.705 1183.66,670.348 1194.29,675.083 1204.92,679.89 1215.55,684.746 1226.18,689.629 
  1236.81,694.513 1247.44,699.371 1258.07,704.178 1268.7,708.907 1279.34,713.531 1289.97,718.021 1300.6,722.349 1311.23,726.486 1321.86,730.403 1332.49,734.073 
  1343.12,737.47 1353.75,740.57 1364.38,743.348 1375.02,745.781 1385.65,747.849 1396.28,749.536 1406.91,750.828 1417.54,751.712 1428.17,752.18 1438.8,752.225 
  1449.43,751.845 1460.06,751.041 1470.7,749.818 1481.33,748.185 1491.96,746.152 1502.59,743.736 1513.22,740.957 1523.85,737.843 1534.48,734.424 1545.11,730.731 
  1555.74,726.798 1566.38,722.659 1577.01,718.352 1587.64,713.917 1598.27,709.397 1608.9,704.842 1619.53,700.3 1630.16,695.82 1640.79,691.452 1651.42,687.246 
  1662.05,683.252 1672.69,679.513 1683.32,676.079 1693.95,672.996 1704.58,670.306 1715.21,668.051 1725.84,666.271 1736.47,665 1747.1,664.273 1757.73,664.118 
  1768.37,664.562 1779,665.628 1789.63,667.331 1800.26,669.687 1810.89,672.704 1821.52,676.389 1832.15,680.74 1842.78,685.754 1853.41,691.423 1864.05,697.733 
  1874.68,704.666 1885.31,712.204 1895.94,720.323 1906.57,728.999 1917.2,738.204 1927.83,747.911 1938.46,758.09 1949.09,768.707 1959.72,779.733 1970.36,791.136 
  1980.99,802.882 1991.62,814.937 2002.25,827.267 2012.88,839.836 2023.51,852.611 2034.14,865.56 2044.77,878.655 2055.4,891.865 2066.04,905.16 2076.67,918.513 
  2087.3,931.896 2097.93,945.284 2108.56,958.657 2119.19,971.99 2129.82,985.26 2140.45,998.442 2151.08,1011.51 2161.72,1024.45 2172.35,1037.23 2182.98,1049.84 
  2193.61,1062.25 2204.24,1074.46 2214.87,1086.45 2225.5,1098.23 2236.13,1109.78 2246.76,1121.1 2257.4,1132.18 2268.03,1143.03 2278.66,1153.63 2289.29,1163.97 
  
  "/>
<polyline clip-path="url(#clip152)" style="stroke:#0000ff; stroke-linecap:round; stroke-linejoin:round; stroke-width:12; stroke-opacity:1; fill:none" stroke-dasharray="48, 30" points="
  173.704,1266.93 184.335,1265.03 194.966,1262.85 205.597,1260.3 216.228,1257.33 226.859,1253.86 237.49,1249.74 248.121,1244.82 258.752,1238.94 269.383,1231.92 
  280.015,1223.62 290.646,1213.98 301.277,1202.89 311.908,1190.23 322.539,1175.93 333.17,1159.97 343.801,1142.27 354.432,1122.73 365.063,1101.35 375.694,1078.12 
  386.325,1053.05 396.956,1026.25 407.587,997.942 418.219,968.348 428.85,937.671 439.481,906.193 450.112,874.167 460.743,841.907 471.374,809.737 482.005,777.966 
  492.636,746.96 503.267,717.054 513.898,688.54 524.529,661.738 535.16,636.947 545.792,614.436 556.423,594.428 567.054,577.098 577.685,562.557 588.316,550.856 
  598.947,542.013 609.578,536.031 620.209,532.833 630.84,532.315 641.471,534.331 652.102,538.695 662.733,545.187 673.364,553.565 683.996,563.568 694.627,574.884 
  705.258,587.211 715.889,600.164 726.52,613.342 737.151,626.366 747.782,638.887 758.413,650.612 769.044,661.257 779.675,670.604 790.306,678.458 800.937,684.615 
  811.568,688.914 822.2,691.2 832.831,691.382 843.462,689.431 854.093,685.328 864.724,679.118 875.355,670.912 885.986,660.897 896.617,649.302 907.248,636.391 
  917.879,622.466 928.51,607.851 939.141,592.938 949.772,578.101 960.404,563.71 971.035,550.099 981.666,537.575 992.297,526.412 1002.93,516.86 1013.56,509.193 
  1024.19,503.593 1034.82,500.116 1045.45,498.796 1056.08,499.632 1066.71,502.551 1077.35,507.412 1087.98,514.063 1098.61,522.322 1109.24,532.014 1119.87,542.997 
  1130.5,555.086 1141.13,568.138 1151.76,581.978 1162.39,596.446 1173.03,611.357 1183.66,626.539 1194.29,641.846 1204.92,657.096 1215.55,672.147 1226.18,686.938 
  1236.81,701.411 1247.44,715.516 1258.07,729.183 1268.7,742.36 1279.34,755.027 1289.97,767.158 1300.6,778.757 1311.23,789.8 1321.86,800.306 1332.49,810.264 
  1343.12,819.677 1353.75,828.576 1364.38,836.948 1375.02,844.778 1385.65,852.036 1396.28,858.707 1406.91,864.776 1417.54,870.241 1428.17,875.078 1438.8,879.245 
  1449.43,882.688 1460.06,885.367 1470.7,887.228 1481.33,888.198 1491.96,888.235 1502.59,887.283 1513.22,885.279 1523.85,882.145 1534.48,877.78 1545.11,872.071 
  1555.74,864.935 1566.38,856.287 1577.01,846.037 1587.64,834.121 1598.27,820.513 1608.9,805.214 1619.53,788.21 1630.16,769.549 1640.79,749.288 1651.42,727.476 
  1662.05,704.222 1672.69,679.705 1683.32,654.156 1693.95,627.836 1704.58,601.034 1715.21,574.088 1725.84,547.35 1736.47,521.178 1747.1,495.931 1757.73,472.039 
  1768.37,449.883 1779,429.795 1789.63,412.123 1800.26,397.201 1810.89,385.364 1821.52,376.909 1832.15,372.093 1842.78,371.143 1853.41,374.232 1864.05,381.449 
  1874.68,392.815 1885.31,408.291 1895.94,427.837 1906.57,451.302 1917.2,478.444 1927.83,508.986 1938.46,542.608 1949.09,578.947 1959.72,617.579 1970.36,658.027 
  1980.99,699.798 1991.62,742.393 2002.25,785.312 2012.88,828.056 2023.51,870.118 2034.14,911.02 2044.77,950.36 2055.4,987.756 2066.04,1022.9 2076.67,1055.59 
  2087.3,1085.69 2097.93,1113.09 2108.56,1137.76 2119.19,1159.81 2129.82,1179.36 2140.45,1196.62 2151.08,1211.78 2161.72,1224.98 2172.35,1236.36 2182.98,1246.06 
  2193.61,1254.27 2204.24,1261.23 2214.87,1267.14 2225.5,1272.15 2236.13,1276.38 2246.76,1279.94 2257.4,1283.02 2268.03,1285.74 2278.66,1288.31 2289.29,1290.82 
  
  "/>
<polyline clip-path="url(#clip152)" style="stroke:#0000ff; stroke-linecap:round; stroke-linejoin:round; stroke-width:12; stroke-opacity:1; fill:none" points="
  173.704,1295.22 184.335,1294.85 194.966,1296.01 205.597,1298.13 216.228,1300.19 226.859,1301.8 237.49,1302.74 248.121,1301.94 258.752,1299.03 269.383,1294.19 
  280.015,1287.63 290.646,1279.55 301.277,1270.04 311.908,1259.29 322.539,1247.19 333.17,1233.94 343.801,1219.74 354.432,1203.91 365.063,1186.06 375.694,1166.01 
  386.325,1143.57 396.956,1118.45 407.587,1090.48 418.219,1059.5 428.85,1025.29 439.481,987.284 450.112,944.968 460.743,898.396 471.374,847.86 482.005,793.745 
  492.636,736.691 503.267,677.289 513.898,616.979 524.529,557.438 535.16,500.346 545.792,447.545 556.423,400.957 567.054,361.982 577.685,332.237 588.316,313.324 
  598.947,306.395 609.578,311.444 620.209,327.123 630.84,352.081 641.471,384.151 652.102,420.929 662.733,460.122 673.364,500.025 683.996,538.934 694.627,575.377 
  705.258,608.305 715.889,637.728 726.52,663.599 737.151,686.366 747.782,706.782 758.413,725.44 769.044,742.705 779.675,759.372 790.306,775.752 800.937,791.618 
  811.568,806.195 822.2,818.752 832.831,828.629 843.462,834.798 854.093,836.189 864.724,831.736 875.355,820.45 885.986,801.672 896.617,775.032 907.248,740.595 
  917.879,698.985 928.51,651.028 939.141,598.454 949.772,543.572 960.404,489.203 971.035,438.257 981.666,393.721 992.297,358.121 1002.93,333.064 1013.56,319.701 
  1024.19,318.401 1034.82,328.053 1045.45,346.898 1056.08,372.738 1066.71,403.078 1077.35,435.503 1087.98,468.06 1098.61,499.478 1109.24,528.897 1119.87,556.138 
  1130.5,581.143 1141.13,604.004 1151.76,624.388 1162.39,642.159 1173.03,657.638 1183.66,671.169 1194.29,683.053 1204.92,693.556 1215.55,702.939 1226.18,711.394 
  1236.81,719.666 1247.44,728.495 1258.07,738.26 1268.7,749.301 1279.34,761.664 1289.97,775.146 1300.6,789.202 1311.23,803.265 1321.86,816.766 1332.49,829.013 
  1343.12,839.53 1353.75,847.86 1364.38,854.072 1375.02,858.535 1385.65,861.493 1396.28,863.416 1406.91,865.11 1417.54,867.465 1428.17,870.996 1438.8,875.891 
  1449.43,881.805 1460.06,888.249 1470.7,894.552 1481.33,900.109 1491.96,904.326 1502.59,906.775 1513.22,907.471 1523.85,906.752 1534.48,904.982 1545.11,902.468 
  1555.74,899.474 1566.38,896.36 1577.01,893.365 1587.64,890.567 1598.27,887.834 1608.9,884.992 1619.53,881.043 1630.16,874.766 1640.79,864.992 1651.42,850.945 
  1662.05,831.858 1672.69,807.259 1683.32,777.173 1693.95,741.67 1704.58,701.186 1715.21,656.027 1725.84,606.547 1736.47,553.562 1747.1,498.074 1757.73,441.261 
  1768.37,384.044 1779,327.315 1789.63,272.404 1800.26,220.641 1810.89,174.063 1821.52,135.051 1832.15,105.904 1842.78,88.6128 1853.41,84.2294 1864.05,93.062 
  1874.68,115.147 1885.31,150.168 1895.94,196.958 1906.57,252.977 1917.2,315.659 1927.83,383.21 1938.46,453.68 1949.09,525.318 1959.72,596.865 1970.36,667.288 
  1980.99,736.021 1991.62,802.178 2002.25,864.815 2012.88,923.598 2023.51,978.289 2034.14,1028.64 2044.77,1074.53 2055.4,1115.63 2066.04,1151.59 2076.67,1181.99 
  2087.3,1206.54 2097.93,1225.54 2108.56,1239.48 2119.19,1248.52 2129.82,1253.53 2140.45,1255.87 2151.08,1257.07 2161.72,1258.12 2172.35,1259.22 2182.98,1260.15 
  2193.61,1261.24 2204.24,1263.03 2214.87,1265.59 2225.5,1268.63 2236.13,1271.69 2246.76,1274.14 2257.4,1275.63 2268.03,1276.1 2278.66,1275.63 2289.29,1275.35 
  
  "/>
</svg>
